<svg xmlns="http://www.w3.org/2000/svg" xmlns:xlink="http://www.w3.org/1999/xlink" width="333" height="252.223" viewBox="0 0 333 252.223">
  <defs>
    <filter id="Trazado_655375" x="0" y="30.139" width="333" height="222.084" filterUnits="userSpaceOnUse">
      <feOffset dy="3" input="SourceAlpha"/>
      <feGaussianBlur stdDeviation="3" result="blur"/>
      <feFlood flood-opacity="0.161"/>
      <feComposite operator="in" in2="blur"/>
      <feComposite in="SourceGraphic"/>
    </filter>
    <linearGradient id="linear-gradient" x1="0.5" x2="0.5" y2="1" gradientUnits="objectBoundingBox">
      <stop offset="0" stop-color="#f5f5f5"/>
      <stop offset="0.25" stop-color="#f5f5f5"/>
      <stop offset="1" stop-color="#a7b3cf"/>
    </linearGradient>
    <filter id="Trazado_655377" x="0" y="0" width="333" height="48.139" filterUnits="userSpaceOnUse">
      <feOffset dy="3" input="SourceAlpha"/>
      <feGaussianBlur stdDeviation="3" result="blur-2"/>
      <feFlood flood-opacity="0.161"/>
      <feComposite operator="in" in2="blur-2"/>
      <feComposite in="SourceGraphic"/>
    </filter>
  </defs>
  <g id="Grupo_981173" data-name="Grupo 981173" transform="translate(-78 8052.495)">
    <g transform="matrix(1, 0, 0, 1, 78, -8052.49)" filter="url(#Trazado_655375)">
      <path id="Trazado_655375-2" data-name="Trazado 655375" d="M0,0H315V204.085H0Z" transform="translate(9 36.14)" fill="#12263f"/>
    </g>
    <path id="Trazado_655376" data-name="Trazado 655376" d="M6.166,21.593a2.863,2.863,0,0,0,1.858-.645,2.268,2.268,0,0,0,.881-1.611h1.88a3.6,3.6,0,0,1-.687,1.9,4.528,4.528,0,0,1-1.692,1.439,4.882,4.882,0,0,1-2.24.537A4.788,4.788,0,0,1,2.39,21.63,6.311,6.311,0,0,1,.988,17.3v-.333a7,7,0,0,1,.623-3.019A4.745,4.745,0,0,1,3.4,11.893a5.081,5.081,0,0,1,2.755-.73A4.662,4.662,0,0,1,9.4,12.333a4.185,4.185,0,0,1,1.38,3.04H8.905a2.739,2.739,0,0,0-.854-1.853,2.657,2.657,0,0,0-1.9-.725,2.781,2.781,0,0,0-2.347,1.09,5.121,5.121,0,0,0-.833,3.153v.376A5.019,5.019,0,0,0,3.8,20.508,2.8,2.8,0,0,0,6.166,21.593Zm6.327-4.512a6.865,6.865,0,0,1,.671-3.072A5.008,5.008,0,0,1,15.034,11.9a5.088,5.088,0,0,1,2.734-.741,4.9,4.9,0,0,1,3.84,1.644,6.323,6.323,0,0,1,1.466,4.372v.14a6.925,6.925,0,0,1-.65,3.045,4.935,4.935,0,0,1-1.858,2.1,5.146,5.146,0,0,1-2.777.752,4.889,4.889,0,0,1-3.83-1.644,6.291,6.291,0,0,1-1.466-4.351Zm2,.236a4.972,4.972,0,0,0,.9,3.1,3.04,3.04,0,0,0,4.807-.016,5.437,5.437,0,0,0,.892-3.325,4.964,4.964,0,0,0-.908-3.1,2.886,2.886,0,0,0-2.412-1.187,2.854,2.854,0,0,0-2.374,1.171A5.4,5.4,0,0,0,14.491,17.317Zm12.955-5.94.064,1.461a4.236,4.236,0,0,1,3.48-1.676q3.685,0,3.717,4.157V23H32.721V15.309a2.676,2.676,0,0,0-.575-1.858,2.3,2.3,0,0,0-1.756-.6,2.868,2.868,0,0,0-1.7.516,3.5,3.5,0,0,0-1.139,1.354V23H25.566V11.377Zm17.026,8.54a1.463,1.463,0,0,0-.607-1.251A5.842,5.842,0,0,0,41.75,17.9a10.005,10.005,0,0,1-2.4-.773,3.408,3.408,0,0,1-1.311-1.074,2.57,2.57,0,0,1-.424-1.482,3.015,3.015,0,0,1,1.208-2.417,4.72,4.72,0,0,1,3.088-.988,4.857,4.857,0,0,1,3.207,1.021,3.241,3.241,0,0,1,1.23,2.61h-2a1.794,1.794,0,0,0-.693-1.407,2.6,2.6,0,0,0-1.746-.591,2.717,2.717,0,0,0-1.7.473,1.488,1.488,0,0,0-.612,1.235,1.205,1.205,0,0,0,.569,1.085,7.005,7.005,0,0,0,2.057.7,10.719,10.719,0,0,1,2.412.795,3.518,3.518,0,0,1,1.37,1.112,2.734,2.734,0,0,1,.446,1.584,2.975,2.975,0,0,1-1.246,2.5,5.227,5.227,0,0,1-3.233.94,5.853,5.853,0,0,1-2.471-.494,4.018,4.018,0,0,1-1.681-1.38,3.327,3.327,0,0,1-.607-1.917h1.987a2.058,2.058,0,0,0,.8,1.584,3.1,3.1,0,0,0,1.971.585,3.2,3.2,0,0,0,1.81-.457A1.4,1.4,0,0,0,44.473,19.917Zm9.55-2.825a6.831,6.831,0,0,1,1.257-4.324,4.333,4.333,0,0,1,6.649-.1l.1-1.289h1.815V22.721A4.728,4.728,0,0,1,62.5,26.276a4.935,4.935,0,0,1-3.593,1.3,5.978,5.978,0,0,1-2.46-.537,4.235,4.235,0,0,1-1.837-1.472l1.031-1.192a3.886,3.886,0,0,0,3.126,1.579,3.045,3.045,0,0,0,2.261-.816,3.12,3.12,0,0,0,.811-2.3v-1a4.085,4.085,0,0,1-3.255,1.375,3.97,3.97,0,0,1-3.3-1.644A7.182,7.182,0,0,1,54.022,17.092Zm2,.226a5.211,5.211,0,0,0,.806,3.088,2.618,2.618,0,0,0,2.256,1.123,2.911,2.911,0,0,0,2.761-1.708V14.514A2.945,2.945,0,0,0,59.1,12.849a2.641,2.641,0,0,0-2.267,1.128A5.676,5.676,0,0,0,56.021,17.317ZM72.456,13.16a5.955,5.955,0,0,0-.978-.075,2.619,2.619,0,0,0-2.653,1.665V23H66.838V11.377h1.934L68.8,12.72a3.094,3.094,0,0,1,2.771-1.558,2.03,2.03,0,0,1,.881.15ZM81.028,23a4.175,4.175,0,0,1-.279-1.225,4.434,4.434,0,0,1-3.309,1.439,4.1,4.1,0,0,1-2.82-.972,3.145,3.145,0,0,1-1.1-2.465,3.286,3.286,0,0,1,1.38-2.82,6.508,6.508,0,0,1,3.883-1h1.934V15.04a2.232,2.232,0,0,0-.623-1.66,2.5,2.5,0,0,0-1.837-.618,2.9,2.9,0,0,0-1.783.537,1.583,1.583,0,0,0-.72,1.3h-2a2.743,2.743,0,0,1,.618-1.681,4.216,4.216,0,0,1,1.676-1.284,5.638,5.638,0,0,1,2.326-.473,4.6,4.6,0,0,1,3.147,1A3.623,3.623,0,0,1,82.7,14.933v5.35a6.54,6.54,0,0,0,.408,2.546V23Zm-3.3-1.515A3.493,3.493,0,0,0,79.5,21a2.924,2.924,0,0,0,1.214-1.257V17.36H79.159q-3.652,0-3.652,2.138a1.809,1.809,0,0,0,.623,1.461A2.4,2.4,0,0,0,77.73,21.485ZM89.493,20.3l2.879-8.927H94.4L90.234,23H88.72L84.509,11.377h2.03Zm11.645,2.911a5.078,5.078,0,0,1-3.846-1.552,5.761,5.761,0,0,1-1.482-4.152v-.365a6.975,6.975,0,0,1,.661-3.088,5.154,5.154,0,0,1,1.848-2.127,4.645,4.645,0,0,1,2.573-.768,4.353,4.353,0,0,1,3.523,1.493,6.465,6.465,0,0,1,1.257,4.275v.827H97.8a4.132,4.132,0,0,0,1,2.777,3.157,3.157,0,0,0,2.444,1.058,3.461,3.461,0,0,0,1.783-.43,4.481,4.481,0,0,0,1.278-1.139l1.214.945A4.881,4.881,0,0,1,101.138,23.215Zm-.247-10.42a2.651,2.651,0,0,0-2.02.875,4.255,4.255,0,0,0-1.01,2.455h5.822v-.15a3.785,3.785,0,0,0-.816-2.347A2.5,2.5,0,0,0,100.891,12.795Zm6.6,4.3a6.809,6.809,0,0,1,1.268-4.3,4.313,4.313,0,0,1,6.553-.231V6.5h1.987V23h-1.826l-.1-1.246a4.047,4.047,0,0,1-3.319,1.461,3.97,3.97,0,0,1-3.292-1.654,6.886,6.886,0,0,1-1.273-4.318Zm1.987.226a5.155,5.155,0,0,0,.816,3.094,2.639,2.639,0,0,0,2.256,1.117,2.9,2.9,0,0,0,2.761-1.7V14.492a2.921,2.921,0,0,0-2.739-1.644,2.652,2.652,0,0,0-2.277,1.128A5.676,5.676,0,0,0,109.474,17.317ZM127.553,23a4.175,4.175,0,0,1-.279-1.225,4.434,4.434,0,0,1-3.309,1.439,4.1,4.1,0,0,1-2.82-.972,3.145,3.145,0,0,1-1.1-2.465,3.286,3.286,0,0,1,1.38-2.82,6.508,6.508,0,0,1,3.883-1h1.934V15.04a2.232,2.232,0,0,0-.623-1.66,2.5,2.5,0,0,0-1.837-.618A2.9,2.9,0,0,0,123,13.3a1.583,1.583,0,0,0-.72,1.3h-2a2.743,2.743,0,0,1,.618-1.681,4.216,4.216,0,0,1,1.676-1.284,5.638,5.638,0,0,1,2.326-.473,4.6,4.6,0,0,1,3.147,1,3.623,3.623,0,0,1,1.182,2.766v5.35a6.54,6.54,0,0,0,.408,2.546V23Zm-3.3-1.515A3.493,3.493,0,0,0,126.027,21a2.924,2.924,0,0,0,1.214-1.257V17.36h-1.558q-3.652,0-3.652,2.138a1.809,1.809,0,0,0,.623,1.461A2.4,2.4,0,0,0,124.255,21.485Zm7.605-4.394a6.809,6.809,0,0,1,1.268-4.3,4.313,4.313,0,0,1,6.553-.231V6.5h1.987V23h-1.826l-.1-1.246a4.047,4.047,0,0,1-3.319,1.461,3.97,3.97,0,0,1-3.292-1.654,6.886,6.886,0,0,1-1.273-4.318Zm1.987.226a5.155,5.155,0,0,0,.816,3.094,2.639,2.639,0,0,0,2.256,1.117,2.9,2.9,0,0,0,2.761-1.7V14.492a2.921,2.921,0,0,0-2.739-1.644,2.652,2.652,0,0,0-2.277,1.128A5.676,5.676,0,0,0,133.848,17.317Zm22.021-8.271h-5.027V23H148.79V9.046h-5.017V7.359h12.1ZM160.037,23H158.05V11.377h1.987ZM157.889,8.294a1.186,1.186,0,0,1,.3-.816,1.109,1.109,0,0,1,.875-.333,1.126,1.126,0,0,1,.881.333,1.174,1.174,0,0,1,.3.816,1.135,1.135,0,0,1-.3.806,1.147,1.147,0,0,1-.881.322,1.129,1.129,0,0,1-.875-.322A1.147,1.147,0,0,1,157.889,8.294ZM168.04,23.215a5.078,5.078,0,0,1-3.846-1.552,5.761,5.761,0,0,1-1.482-4.152v-.365a6.975,6.975,0,0,1,.661-3.088,5.154,5.154,0,0,1,1.848-2.127,4.645,4.645,0,0,1,2.573-.768,4.353,4.353,0,0,1,3.523,1.493,6.465,6.465,0,0,1,1.257,4.275v.827H164.7a4.132,4.132,0,0,0,1,2.777,3.157,3.157,0,0,0,2.444,1.058,3.461,3.461,0,0,0,1.783-.43,4.48,4.48,0,0,0,1.278-1.139l1.214.945A4.881,4.881,0,0,1,168.04,23.215Zm-.247-10.42a2.651,2.651,0,0,0-2.02.875,4.255,4.255,0,0,0-1.01,2.455h5.822v-.15a3.785,3.785,0,0,0-.816-2.347A2.5,2.5,0,0,0,167.793,12.795Zm12.7.365a5.955,5.955,0,0,0-.978-.075,2.619,2.619,0,0,0-2.653,1.665V23h-1.987V11.377h1.934l.032,1.343a3.094,3.094,0,0,1,2.771-1.558,2.03,2.03,0,0,1,.881.15Zm7.444,0a5.955,5.955,0,0,0-.978-.075A2.619,2.619,0,0,0,184.3,14.75V23h-1.987V11.377h1.934l.032,1.343a3.094,3.094,0,0,1,2.771-1.558,2.03,2.03,0,0,1,.881.15ZM196.507,23a4.175,4.175,0,0,1-.279-1.225,4.434,4.434,0,0,1-3.309,1.439,4.1,4.1,0,0,1-2.82-.972,3.145,3.145,0,0,1-1.1-2.465,3.286,3.286,0,0,1,1.38-2.82,6.508,6.508,0,0,1,3.883-1H196.2V15.04a2.232,2.232,0,0,0-.623-1.66,2.5,2.5,0,0,0-1.837-.618,2.9,2.9,0,0,0-1.783.537,1.583,1.583,0,0,0-.72,1.3h-2a2.743,2.743,0,0,1,.618-1.681,4.216,4.216,0,0,1,1.676-1.284,5.638,5.638,0,0,1,2.326-.473,4.6,4.6,0,0,1,3.147,1,3.623,3.623,0,0,1,1.182,2.766v5.35a6.54,6.54,0,0,0,.408,2.546V23Zm-3.3-1.515A3.493,3.493,0,0,0,194.981,21a2.924,2.924,0,0,0,1.214-1.257V17.36h-1.558q-3.652,0-3.652,2.138a1.809,1.809,0,0,0,.623,1.461A2.4,2.4,0,0,0,193.209,21.485Zm17.177-7.229h-8.959V12.526h8.959Zm0,4.458h-8.959V17h8.959Zm10.4-2.589a4.862,4.862,0,0,1-1.488,1.192,4.036,4.036,0,0,1-1.9.451,4.167,4.167,0,0,1-2.358-.666,4.33,4.33,0,0,1-1.552-1.875,6.39,6.39,0,0,1-.548-2.669,6.511,6.511,0,0,1,.6-2.825,4.379,4.379,0,0,1,1.692-1.923,4.825,4.825,0,0,1,2.557-.666,4.368,4.368,0,0,1,3.658,1.735,7.567,7.567,0,0,1,1.337,4.732v.58q0,4.565-1.8,6.666a6.933,6.933,0,0,1-5.446,2.154h-.387V21.324h.419a5.471,5.471,0,0,0,3.781-1.281A5.5,5.5,0,0,0,220.784,16.125Zm-3.062,0a3.069,3.069,0,0,0,1.842-.612A3.609,3.609,0,0,0,220.795,14V13.2a5.469,5.469,0,0,0-.849-3.18,2.594,2.594,0,0,0-4.254-.22,4.143,4.143,0,0,0-.795,2.648,4.312,4.312,0,0,0,.768,2.637A2.432,2.432,0,0,0,217.723,16.125Zm8.046,5.833a1.244,1.244,0,0,1,.306-.859,1.167,1.167,0,0,1,.918-.344,1.2,1.2,0,0,1,.929.344,1.219,1.219,0,0,1,.317.859,1.153,1.153,0,0,1-.317.827,1.223,1.223,0,0,1-.929.333,1.1,1.1,0,0,1-1.225-1.16ZM240.8,11.441a3.632,3.632,0,0,1-.618,2.084,4.2,4.2,0,0,1-1.67,1.429,4.483,4.483,0,0,1,1.939,1.536,3.865,3.865,0,0,1,.714,2.288,4.087,4.087,0,0,1-1.37,3.233,6,6,0,0,1-7.219-.005,4.106,4.106,0,0,1-1.359-3.228,3.981,3.981,0,0,1,.693-2.288,4.312,4.312,0,0,1,1.917-1.547,4.1,4.1,0,0,1-1.644-1.429,3.684,3.684,0,0,1-.6-2.073A4.043,4.043,0,0,1,232.848,8.3a5.383,5.383,0,0,1,6.676,0A4.034,4.034,0,0,1,240.8,11.441Zm-1.622,7.294a2.883,2.883,0,0,0-.833-2.138,2.952,2.952,0,0,0-2.175-.827,2.8,2.8,0,0,0-2.965,2.965,2.776,2.776,0,0,0,.79,2.095,3.528,3.528,0,0,0,4.388-.005A2.77,2.77,0,0,0,239.175,18.735Zm-2.986-9.958a2.564,2.564,0,0,0-1.9.725,2.664,2.664,0,0,0-.725,1.971,2.651,2.651,0,0,0,.714,1.928,2.838,2.838,0,0,0,3.813,0,2.651,2.651,0,0,0,.714-1.928,2.652,2.652,0,0,0-.741-1.944A2.528,2.528,0,0,0,236.188,8.777Zm7.369,3.7a1.244,1.244,0,0,1,.306-.859,1.167,1.167,0,0,1,.918-.344,1.2,1.2,0,0,1,.929.344,1.219,1.219,0,0,1,.317.859,1.153,1.153,0,0,1-.317.827,1.223,1.223,0,0,1-.929.333,1.1,1.1,0,0,1-1.225-1.16Zm.376,13.643-1.128-.773a5.184,5.184,0,0,0,1.053-2.9V20.647H245.8v1.558a4.893,4.893,0,0,1-.532,2.17A5.08,5.08,0,0,1,243.934,26.115Z" transform="translate(106.225 -7985.3)" fill="#fff"/>
    <g transform="matrix(1, 0, 0, 1, 78, -8052.49)" filter="url(#Trazado_655377)">
      <path id="Trazado_655377-2" data-name="Trazado 655377" d="M5,0H310a5,5,0,0,1,5,5V30.138H1a1,1,0,0,1-1-1V5A5,5,0,0,1,5,0Z" transform="translate(9 6)" fill="url(#linear-gradient)"/>
    </g>
    <path id="Trazado_654862" data-name="Trazado 654862" d="M367.33,159.913a5.453,5.453,0,1,1-5.452-5.454A5.452,5.452,0,0,1,367.33,159.913Z" transform="translate(-219.163 -8191.715)" fill="#fff"/>
    <path id="Trazado_654863" data-name="Trazado 654863" d="M367.33,159.913a5.453,5.453,0,1,1-5.452-5.454A5.452,5.452,0,0,1,367.33,159.913Z" transform="translate(-240.929 -8191.715)" fill="#ffa726"/>
    <path id="Trazado_654864" data-name="Trazado 654864" d="M377.147,159.913a5.454,5.454,0,1,1-5.454-5.454A5.454,5.454,0,0,1,377.147,159.913Z" transform="translate(-207.21 -8191.715)" fill="#26a69a"/>
  </g>
</svg>
