<svg xmlns="http://www.w3.org/2000/svg" xmlns:xlink="http://www.w3.org/1999/xlink" width="333.063" height="292.168" viewBox="0 0 333.063 292.168">
  <defs>
    <filter id="Trazado_655381" x="0" y="24.937" width="333.063" height="267.232" filterUnits="userSpaceOnUse">
      <feOffset dy="3" input="SourceAlpha"/>
      <feGaussianBlur stdDeviation="3" result="blur"/>
      <feFlood flood-opacity="0.161"/>
      <feComposite operator="in" in2="blur"/>
      <feComposite in="SourceGraphic"/>
    </filter>
    <linearGradient id="linear-gradient" x1="0.5" x2="0.5" y2="1" gradientUnits="objectBoundingBox">
      <stop offset="0" stop-color="#f5f5f5"/>
      <stop offset="0.25" stop-color="#f5f5f5"/>
      <stop offset="1" stop-color="#a7b3cf"/>
    </linearGradient>
    <filter id="Trazado_655383" x="0" y="0" width="333.063" height="42.937" filterUnits="userSpaceOnUse">
      <feOffset dy="3" input="SourceAlpha"/>
      <feGaussianBlur stdDeviation="3" result="blur-2"/>
      <feFlood flood-opacity="0.161"/>
      <feComposite operator="in" in2="blur-2"/>
      <feComposite in="SourceGraphic"/>
    </filter>
  </defs>
  <g id="Grupo_981175" data-name="Grupo 981175" transform="translate(-77.938 7058.372)">
    <g transform="matrix(1, 0, 0, 1, 77.94, -7058.37)" filter="url(#Trazado_655381)">
      <path id="Trazado_655381-2" data-name="Trazado 655381" d="M0,0H315.063V249.232H0Z" transform="translate(9 30.94)" fill="#12263f"/>
    </g>
    <path id="Trazado_655382" data-name="Trazado 655382" d="M2.481,23V12.913H.645V11.377H2.481V10.185a3.958,3.958,0,0,1,1-2.89A3.774,3.774,0,0,1,6.306,6.274a5.247,5.247,0,0,1,1.364.181l-.107,1.6a5.708,5.708,0,0,0-1.074-.1A1.939,1.939,0,0,0,5,8.527a2.3,2.3,0,0,0-.526,1.622v1.228H6.95v1.536H4.469V23Zm13.836-1.149a4.221,4.221,0,0,1-3.405,1.364,3.613,3.613,0,0,1-2.831-1.08,4.673,4.673,0,0,1-.983-3.2V11.377h1.987v7.509q0,2.643,2.148,2.643a2.975,2.975,0,0,0,3.029-1.7V11.377h1.987V23H16.36Zm6.832-10.474.064,1.461a4.236,4.236,0,0,1,3.48-1.676q3.685,0,3.717,4.157V23H28.424V15.309a2.676,2.676,0,0,0-.575-1.858,2.3,2.3,0,0,0-1.756-.6,2.868,2.868,0,0,0-1.7.516,3.5,3.5,0,0,0-1.139,1.354V23H21.27V11.377ZM38.07,21.593a2.863,2.863,0,0,0,1.858-.645,2.268,2.268,0,0,0,.881-1.611h1.88a3.6,3.6,0,0,1-.687,1.9,4.528,4.528,0,0,1-1.692,1.439,4.882,4.882,0,0,1-2.24.537,4.788,4.788,0,0,1-3.776-1.584,6.311,6.311,0,0,1-1.4-4.334v-.333a7,7,0,0,1,.623-3.019A4.745,4.745,0,0,1,35.3,11.893a5.081,5.081,0,0,1,2.755-.73,4.662,4.662,0,0,1,3.25,1.171,4.185,4.185,0,0,1,1.38,3.04H40.81a2.739,2.739,0,0,0-.854-1.853,2.657,2.657,0,0,0-1.9-.725,2.781,2.781,0,0,0-2.347,1.09,5.121,5.121,0,0,0-.833,3.153v.376a5.019,5.019,0,0,0,.827,3.094A2.8,2.8,0,0,0,38.07,21.593Zm9.55-13.03v2.814h2.17v1.536H47.62V20.13a1.613,1.613,0,0,0,.29,1.049,1.221,1.221,0,0,0,.988.35,4.811,4.811,0,0,0,.945-.129V23a5.8,5.8,0,0,1-1.525.214,2.475,2.475,0,0,1-2.009-.806,3.461,3.461,0,0,1-.677-2.288V12.913H43.517V11.377h2.116V8.563ZM54.27,23H52.282V11.377H54.27ZM52.121,8.294a1.186,1.186,0,0,1,.3-.816,1.109,1.109,0,0,1,.875-.333,1.126,1.126,0,0,1,.881.333,1.174,1.174,0,0,1,.3.816,1.135,1.135,0,0,1-.3.806,1.147,1.147,0,0,1-.881.322,1.129,1.129,0,0,1-.875-.322A1.147,1.147,0,0,1,52.121,8.294Zm4.8,8.787a6.865,6.865,0,0,1,.671-3.072A5.008,5.008,0,0,1,59.463,11.9a5.088,5.088,0,0,1,2.734-.741,4.9,4.9,0,0,1,3.84,1.644A6.323,6.323,0,0,1,67.5,17.178v.14a6.925,6.925,0,0,1-.65,3.045A4.935,4.935,0,0,1,65,22.463a5.146,5.146,0,0,1-2.777.752,4.889,4.889,0,0,1-3.83-1.644,6.291,6.291,0,0,1-1.466-4.351Zm2,.236a4.972,4.972,0,0,0,.9,3.1,3.04,3.04,0,0,0,4.807-.016,5.437,5.437,0,0,0,.892-3.325,4.964,4.964,0,0,0-.908-3.1A2.886,2.886,0,0,0,62.2,12.795a2.854,2.854,0,0,0-2.374,1.171A5.4,5.4,0,0,0,58.921,17.317Zm12.955-5.94.064,1.461a4.236,4.236,0,0,1,3.48-1.676q3.685,0,3.717,4.157V23H77.15V15.309a2.676,2.676,0,0,0-.575-1.858,2.3,2.3,0,0,0-1.756-.6,2.868,2.868,0,0,0-1.7.516,3.5,3.5,0,0,0-1.139,1.354V23H70V11.377Zm-63.6,34.54a1.463,1.463,0,0,0-.607-1.251A5.842,5.842,0,0,0,5.548,43.9a10.005,10.005,0,0,1-2.4-.773A3.408,3.408,0,0,1,1.842,42.05a2.57,2.57,0,0,1-.424-1.482A3.015,3.015,0,0,1,2.626,38.15a4.72,4.72,0,0,1,3.088-.988,4.857,4.857,0,0,1,3.207,1.021,3.241,3.241,0,0,1,1.23,2.61h-2a1.794,1.794,0,0,0-.693-1.407,2.6,2.6,0,0,0-1.746-.591,2.717,2.717,0,0,0-1.7.473A1.488,1.488,0,0,0,3.405,40.5a1.205,1.205,0,0,0,.569,1.085,7,7,0,0,0,2.057.7,10.719,10.719,0,0,1,2.412.795,3.518,3.518,0,0,1,1.37,1.112,2.734,2.734,0,0,1,.446,1.584,2.975,2.975,0,0,1-1.246,2.5,5.227,5.227,0,0,1-3.233.94,5.853,5.853,0,0,1-2.471-.494,4.018,4.018,0,0,1-1.681-1.38,3.327,3.327,0,0,1-.607-1.917H3.008a2.058,2.058,0,0,0,.8,1.584,3.1,3.1,0,0,0,1.971.585,3.2,3.2,0,0,0,1.81-.457A1.4,1.4,0,0,0,8.271,45.917Zm11.752,1.934a4.221,4.221,0,0,1-3.405,1.364,3.613,3.613,0,0,1-2.831-1.08,4.673,4.673,0,0,1-.983-3.2V37.377h1.987v7.509q0,2.643,2.148,2.643a2.975,2.975,0,0,0,3.029-1.7V37.377h1.987V49H20.066Zm6.821-10.474.054,1.289a4.292,4.292,0,0,1,3.448-1.5,3.323,3.323,0,0,1,3.319,1.869,4.4,4.4,0,0,1,1.509-1.354,4.458,4.458,0,0,1,2.2-.516q3.824,0,3.889,4.05V49H39.273V41.33a2.669,2.669,0,0,0-.569-1.864,2.507,2.507,0,0,0-1.912-.618,2.635,2.635,0,0,0-1.837.661,2.68,2.68,0,0,0-.849,1.778V49h-2V41.384a2.217,2.217,0,0,0-2.481-2.535,2.659,2.659,0,0,0-2.675,1.665V49H24.965V37.377ZM51.434,49a4.175,4.175,0,0,1-.279-1.225,4.434,4.434,0,0,1-3.309,1.439,4.1,4.1,0,0,1-2.82-.972,3.145,3.145,0,0,1-1.1-2.465,3.286,3.286,0,0,1,1.38-2.82,6.508,6.508,0,0,1,3.883-1h1.934V41.04a2.232,2.232,0,0,0-.623-1.66,2.5,2.5,0,0,0-1.837-.618,2.9,2.9,0,0,0-1.783.537,1.583,1.583,0,0,0-.72,1.3h-2a2.743,2.743,0,0,1,.618-1.681,4.216,4.216,0,0,1,1.676-1.284,5.638,5.638,0,0,1,2.326-.473,4.6,4.6,0,0,1,3.147,1,3.623,3.623,0,0,1,1.182,2.766v5.35a6.54,6.54,0,0,0,.408,2.546V49Zm-3.3-1.515A3.493,3.493,0,0,0,49.908,47a2.924,2.924,0,0,0,1.214-1.257V43.36H49.564q-3.652,0-3.652,2.138a1.809,1.809,0,0,0,.623,1.461A2.4,2.4,0,0,0,48.136,47.485ZM61.843,39.16a5.955,5.955,0,0,0-.978-.075,2.619,2.619,0,0,0-2.653,1.665V49H56.225V37.377h1.934l.032,1.343a3.094,3.094,0,0,1,2.771-1.558,2.03,2.03,0,0,1,.881.15ZM63.98,49V33.359H68.4a7.107,7.107,0,0,1,3.609.9,6.1,6.1,0,0,1,2.422,2.567,8.357,8.357,0,0,1,.865,3.824v1a8.386,8.386,0,0,1-.854,3.878A6.007,6.007,0,0,1,72,48.087,7.56,7.56,0,0,1,68.31,49Zm2.063-13.954V47.313h2.17a4.721,4.721,0,0,0,3.711-1.484A6.13,6.13,0,0,0,73.251,41.6V40.69A6.227,6.227,0,0,0,72,36.546a4.453,4.453,0,0,0-3.55-1.5ZM85.271,49a4.175,4.175,0,0,1-.279-1.225,4.434,4.434,0,0,1-3.309,1.439,4.1,4.1,0,0,1-2.82-.972,3.145,3.145,0,0,1-1.1-2.465,3.286,3.286,0,0,1,1.38-2.82,6.508,6.508,0,0,1,3.883-1H84.96V41.04a2.232,2.232,0,0,0-.623-1.66,2.5,2.5,0,0,0-1.837-.618,2.9,2.9,0,0,0-1.783.537A1.583,1.583,0,0,0,80,40.6H78a2.743,2.743,0,0,1,.618-1.681,4.216,4.216,0,0,1,1.676-1.284,5.638,5.638,0,0,1,2.326-.473,4.6,4.6,0,0,1,3.147,1,3.623,3.623,0,0,1,1.182,2.766v5.35a6.54,6.54,0,0,0,.408,2.546V49Zm-3.3-1.515A3.493,3.493,0,0,0,83.746,47a2.924,2.924,0,0,0,1.214-1.257V43.36H83.4q-3.652,0-3.652,2.138a1.809,1.809,0,0,0,.623,1.461A2.4,2.4,0,0,0,81.974,47.485ZM92.759,34.563v2.814h2.17v1.536h-2.17V46.13a1.613,1.613,0,0,0,.29,1.049,1.221,1.221,0,0,0,.988.35,4.811,4.811,0,0,0,.945-.129V49a5.8,5.8,0,0,1-1.525.214,2.475,2.475,0,0,1-2.009-.806,3.461,3.461,0,0,1-.677-2.288V38.913H88.655V37.377h2.116V34.563Zm3.749,8.519a6.865,6.865,0,0,1,.671-3.072A5.009,5.009,0,0,1,99.048,37.9a5.088,5.088,0,0,1,2.734-.741,4.9,4.9,0,0,1,3.84,1.644,6.323,6.323,0,0,1,1.466,4.372v.14a6.925,6.925,0,0,1-.65,3.045,4.935,4.935,0,0,1-1.858,2.1,5.147,5.147,0,0,1-2.777.752,4.889,4.889,0,0,1-3.83-1.644,6.291,6.291,0,0,1-1.466-4.351Zm2,.236a4.972,4.972,0,0,0,.9,3.1,3.04,3.04,0,0,0,4.807-.016,5.437,5.437,0,0,0,.892-3.325,4.964,4.964,0,0,0-.908-3.1,2.886,2.886,0,0,0-2.412-1.187,2.854,2.854,0,0,0-2.374,1.171A5.4,5.4,0,0,0,98.506,43.317Zm17.843,2.6a1.463,1.463,0,0,0-.607-1.251,5.842,5.842,0,0,0-2.116-.768,10.005,10.005,0,0,1-2.4-.773,3.408,3.408,0,0,1-1.311-1.074,2.57,2.57,0,0,1-.424-1.482A3.015,3.015,0,0,1,110.7,38.15a4.72,4.72,0,0,1,3.088-.988A4.857,4.857,0,0,1,117,38.183a3.241,3.241,0,0,1,1.23,2.61h-2a1.794,1.794,0,0,0-.693-1.407,2.6,2.6,0,0,0-1.746-.591,2.717,2.717,0,0,0-1.7.473,1.488,1.488,0,0,0-.612,1.235,1.205,1.205,0,0,0,.569,1.085,7,7,0,0,0,2.057.7,10.719,10.719,0,0,1,2.412.795,3.518,3.518,0,0,1,1.37,1.112,2.734,2.734,0,0,1,.446,1.584,2.975,2.975,0,0,1-1.246,2.5,5.227,5.227,0,0,1-3.233.94,5.853,5.853,0,0,1-2.471-.494,4.018,4.018,0,0,1-1.681-1.38,3.327,3.327,0,0,1-.607-1.917h1.987a2.058,2.058,0,0,0,.8,1.584,3.1,3.1,0,0,0,1.971.585,3.2,3.2,0,0,0,1.81-.457A1.4,1.4,0,0,0,116.349,45.917Zm4.5-3.266a16.608,16.608,0,0,1,.65-4.662,13.543,13.543,0,0,1,1.939-4.061,8.249,8.249,0,0,1,2.675-2.578l.408,1.311a8.556,8.556,0,0,0-2.573,3.674,15.927,15.927,0,0,0-1.1,5.532l-.011.913a16.01,16.01,0,0,0,1.515,7.2,8.6,8.6,0,0,0,2.17,2.857l-.408,1.214a8.514,8.514,0,0,1-2.729-2.664A14.932,14.932,0,0,1,120.85,42.651Zm17.413.666a6.96,6.96,0,0,1-1.214,4.275,3.891,3.891,0,0,1-3.287,1.622,4.263,4.263,0,0,1-3.33-1.343v5.6h-1.987V37.377h1.815l.1,1.289a4.094,4.094,0,0,1,3.373-1.5,3.963,3.963,0,0,1,3.314,1.579,7.036,7.036,0,0,1,1.219,4.394Zm-1.987-.226a5.135,5.135,0,0,0-.838-3.1,2.7,2.7,0,0,0-2.3-1.139,2.921,2.921,0,0,0-2.707,1.6V46a2.927,2.927,0,0,0,2.729,1.59,2.686,2.686,0,0,0,2.272-1.133A5.606,5.606,0,0,0,136.275,43.092ZM147.963,49a4.175,4.175,0,0,1-.279-1.225,4.434,4.434,0,0,1-3.309,1.439,4.1,4.1,0,0,1-2.82-.972,3.145,3.145,0,0,1-1.1-2.465,3.286,3.286,0,0,1,1.38-2.82,6.508,6.508,0,0,1,3.883-1h1.934V41.04a2.232,2.232,0,0,0-.623-1.66,2.5,2.5,0,0,0-1.837-.618,2.9,2.9,0,0,0-1.783.537,1.583,1.583,0,0,0-.72,1.3h-2a2.743,2.743,0,0,1,.618-1.681,4.216,4.216,0,0,1,1.676-1.284,5.638,5.638,0,0,1,2.326-.473,4.6,4.6,0,0,1,3.147,1,3.623,3.623,0,0,1,1.182,2.766v5.35a6.54,6.54,0,0,0,.408,2.546V49Zm-3.3-1.515A3.493,3.493,0,0,0,146.438,47a2.924,2.924,0,0,0,1.214-1.257V43.36h-1.558q-3.652,0-3.652,2.138a1.809,1.809,0,0,0,.623,1.461A2.4,2.4,0,0,0,144.665,47.485Zm13.707-8.325a5.955,5.955,0,0,0-.978-.075,2.619,2.619,0,0,0-2.653,1.665V49h-1.987V37.377h1.934l.032,1.343a3.094,3.094,0,0,1,2.771-1.558,2.03,2.03,0,0,1,.881.15ZM166.944,49a4.175,4.175,0,0,1-.279-1.225,4.434,4.434,0,0,1-3.309,1.439,4.1,4.1,0,0,1-2.82-.972,3.145,3.145,0,0,1-1.1-2.465,3.286,3.286,0,0,1,1.38-2.82,6.508,6.508,0,0,1,3.883-1h1.934V41.04a2.232,2.232,0,0,0-.623-1.66,2.5,2.5,0,0,0-1.837-.618,2.9,2.9,0,0,0-1.783.537,1.583,1.583,0,0,0-.72,1.3h-2a2.743,2.743,0,0,1,.618-1.681,4.216,4.216,0,0,1,1.676-1.284,5.638,5.638,0,0,1,2.326-.473,4.6,4.6,0,0,1,3.147,1,3.623,3.623,0,0,1,1.182,2.766v5.35a6.54,6.54,0,0,0,.408,2.546V49Zm-3.3-1.515A3.493,3.493,0,0,0,165.419,47a2.924,2.924,0,0,0,1.214-1.257V43.36h-1.558q-3.652,0-3.652,2.138a1.809,1.809,0,0,0,.623,1.461A2.4,2.4,0,0,0,163.646,47.485ZM173.6,37.377l.054,1.289a4.292,4.292,0,0,1,3.448-1.5,3.323,3.323,0,0,1,3.319,1.869,4.4,4.4,0,0,1,1.509-1.354,4.458,4.458,0,0,1,2.2-.516q3.824,0,3.889,4.05V49h-1.987V41.33a2.669,2.669,0,0,0-.569-1.864,2.507,2.507,0,0,0-1.912-.618,2.635,2.635,0,0,0-1.837.661,2.68,2.68,0,0,0-.849,1.778V49h-2V41.384a2.217,2.217,0,0,0-2.481-2.535,2.659,2.659,0,0,0-2.675,1.665V49h-1.987V37.377Zm22.236,11.838A5.078,5.078,0,0,1,192,47.663a5.761,5.761,0,0,1-1.482-4.152v-.365a6.975,6.975,0,0,1,.661-3.088,5.154,5.154,0,0,1,1.848-2.127,4.645,4.645,0,0,1,2.573-.768,4.353,4.353,0,0,1,3.523,1.493,6.465,6.465,0,0,1,1.257,4.275v.827H192.5a4.132,4.132,0,0,0,1,2.777,3.157,3.157,0,0,0,2.444,1.058,3.461,3.461,0,0,0,1.783-.43,4.48,4.48,0,0,0,1.278-1.139l1.214.945A4.881,4.881,0,0,1,195.841,49.215Zm-.247-10.42a2.651,2.651,0,0,0-2.02.875,4.255,4.255,0,0,0-1.01,2.455h5.822v-.15a3.785,3.785,0,0,0-.816-2.347A2.5,2.5,0,0,0,195.594,38.795Zm9.775-4.232v2.814h2.17v1.536h-2.17V46.13a1.613,1.613,0,0,0,.29,1.049,1.221,1.221,0,0,0,.988.35,4.811,4.811,0,0,0,.945-.129V49a5.8,5.8,0,0,1-1.525.214,2.475,2.475,0,0,1-2.009-.806,3.461,3.461,0,0,1-.677-2.288V38.913h-2.116V37.377h2.116V34.563Zm10.108,4.6a5.955,5.955,0,0,0-.978-.075,2.619,2.619,0,0,0-2.653,1.665V49h-1.987V37.377h1.934l.032,1.343a3.094,3.094,0,0,1,2.771-1.558,2.03,2.03,0,0,1,.881.15Zm1.085,3.921a6.865,6.865,0,0,1,.671-3.072A5.008,5.008,0,0,1,219.1,37.9a5.088,5.088,0,0,1,2.734-.741,4.9,4.9,0,0,1,3.84,1.644,6.323,6.323,0,0,1,1.466,4.372v.14a6.925,6.925,0,0,1-.65,3.045,4.935,4.935,0,0,1-1.858,2.1,5.146,5.146,0,0,1-2.777.752,4.889,4.889,0,0,1-3.83-1.644,6.291,6.291,0,0,1-1.466-4.351Zm2,.236a4.972,4.972,0,0,0,.9,3.1,3.04,3.04,0,0,0,4.807-.016,5.437,5.437,0,0,0,.892-3.325,4.964,4.964,0,0,0-.908-3.1,2.886,2.886,0,0,0-2.412-1.187,2.854,2.854,0,0,0-2.374,1.171A5.4,5.4,0,0,0,218.561,43.317Zm22.4-9.958V43.994a4.989,4.989,0,0,1-1.391,3.62,5.606,5.606,0,0,1-3.744,1.579l-.548.021a5.854,5.854,0,0,1-4.093-1.386,4.956,4.956,0,0,1-1.547-3.813V33.359h2.041V43.951a3.262,3.262,0,0,0,3.6,3.577,3.616,3.616,0,0,0,2.68-.935,3.571,3.571,0,0,0,.929-2.632v-10.6Zm4.823,4.018.064,1.461a4.236,4.236,0,0,1,3.48-1.676q3.685,0,3.717,4.157V49h-1.987V41.309a2.676,2.676,0,0,0-.575-1.858,2.3,2.3,0,0,0-1.756-.6,2.868,2.868,0,0,0-1.7.516,3.5,3.5,0,0,0-1.139,1.354V49H243.9V37.377Zm9.732,5.7a6.865,6.865,0,0,1,.671-3.072,5.009,5.009,0,0,1,1.869-2.105,5.088,5.088,0,0,1,2.734-.741,4.9,4.9,0,0,1,3.84,1.644,6.323,6.323,0,0,1,1.466,4.372v.14a6.925,6.925,0,0,1-.65,3.045,4.935,4.935,0,0,1-1.858,2.1,5.147,5.147,0,0,1-2.777.752,4.889,4.889,0,0,1-3.83-1.644,6.291,6.291,0,0,1-1.466-4.351Zm2,.236a4.972,4.972,0,0,0,.9,3.1,3.04,3.04,0,0,0,4.807-.016,5.438,5.438,0,0,0,.892-3.325,4.964,4.964,0,0,0-.908-3.1,2.886,2.886,0,0,0-2.412-1.187,2.854,2.854,0,0,0-2.374,1.171A5.4,5.4,0,0,0,257.512,43.317Zm11.011,8.8-1.128-.773a5.184,5.184,0,0,0,1.053-2.9V46.647h1.944v1.558a4.893,4.893,0,0,1-.532,2.17A5.08,5.08,0,0,1,268.522,52.115Zm-257.2,17.2a6.96,6.96,0,0,1-1.214,4.275,3.89,3.89,0,0,1-3.287,1.622,4.263,4.263,0,0,1-3.33-1.343v5.6H1.5V63.377H3.319l.1,1.289a4.094,4.094,0,0,1,3.373-1.5A3.963,3.963,0,0,1,10.1,64.741a7.036,7.036,0,0,1,1.219,4.394Zm-1.987-.226a5.135,5.135,0,0,0-.838-3.1,2.7,2.7,0,0,0-2.3-1.139,2.921,2.921,0,0,0-2.707,1.6V72a2.927,2.927,0,0,0,2.729,1.59,2.686,2.686,0,0,0,2.272-1.133A5.606,5.606,0,0,0,9.335,69.092ZM21.022,75a4.175,4.175,0,0,1-.279-1.225,4.434,4.434,0,0,1-3.309,1.439,4.1,4.1,0,0,1-2.82-.972,3.145,3.145,0,0,1-1.1-2.465,3.286,3.286,0,0,1,1.38-2.82,6.508,6.508,0,0,1,3.883-1h1.934V67.04a2.232,2.232,0,0,0-.623-1.66,2.5,2.5,0,0,0-1.837-.618,2.9,2.9,0,0,0-1.783.537,1.583,1.583,0,0,0-.72,1.3h-2a2.743,2.743,0,0,1,.618-1.681,4.216,4.216,0,0,1,1.676-1.284,5.638,5.638,0,0,1,2.326-.473,4.6,4.6,0,0,1,3.147,1A3.623,3.623,0,0,1,22.7,66.933v5.35a6.54,6.54,0,0,0,.408,2.546V75Zm-3.3-1.515A3.493,3.493,0,0,0,19.5,73a2.924,2.924,0,0,0,1.214-1.257V69.36H19.153Q15.5,69.36,15.5,71.5a1.809,1.809,0,0,0,.623,1.461A2.4,2.4,0,0,0,17.725,73.485ZM31.432,65.16a5.955,5.955,0,0,0-.978-.075A2.619,2.619,0,0,0,27.8,66.75V75H25.813V63.377h1.934l.032,1.343a3.094,3.094,0,0,1,2.771-1.558,2.03,2.03,0,0,1,.881.15ZM40,75a4.175,4.175,0,0,1-.279-1.225,4.434,4.434,0,0,1-3.309,1.439,4.1,4.1,0,0,1-2.82-.972,3.145,3.145,0,0,1-1.1-2.465,3.286,3.286,0,0,1,1.38-2.82,6.508,6.508,0,0,1,3.883-1h1.934V67.04a2.232,2.232,0,0,0-.623-1.66,2.5,2.5,0,0,0-1.837-.618,2.9,2.9,0,0,0-1.783.537,1.583,1.583,0,0,0-.72,1.3h-2a2.743,2.743,0,0,1,.618-1.681,4.216,4.216,0,0,1,1.676-1.284,5.638,5.638,0,0,1,2.326-.473,4.6,4.6,0,0,1,3.147,1,3.623,3.623,0,0,1,1.182,2.766v5.35a6.54,6.54,0,0,0,.408,2.546V75Zm-3.3-1.515A3.493,3.493,0,0,0,38.479,73a2.924,2.924,0,0,0,1.214-1.257V69.36H38.135q-3.652,0-3.652,2.138a1.809,1.809,0,0,0,.623,1.461A2.4,2.4,0,0,0,36.706,73.485Zm9.958-10.108.054,1.289a4.292,4.292,0,0,1,3.448-1.5,3.323,3.323,0,0,1,3.319,1.869,4.4,4.4,0,0,1,1.509-1.354,4.458,4.458,0,0,1,2.2-.516q3.824,0,3.889,4.05V75H59.093V67.33a2.669,2.669,0,0,0-.569-1.864,2.507,2.507,0,0,0-1.912-.618,2.635,2.635,0,0,0-1.837.661,2.68,2.68,0,0,0-.849,1.778V75h-2V67.384a2.217,2.217,0,0,0-2.481-2.535,2.659,2.659,0,0,0-2.675,1.665V75H44.784V63.377ZM68.9,75.215a5.078,5.078,0,0,1-3.846-1.552,5.761,5.761,0,0,1-1.482-4.152v-.365a6.975,6.975,0,0,1,.661-3.088,5.154,5.154,0,0,1,1.848-2.127,4.645,4.645,0,0,1,2.573-.768,4.353,4.353,0,0,1,3.523,1.493,6.465,6.465,0,0,1,1.257,4.275v.827H65.56a4.132,4.132,0,0,0,1,2.777,3.157,3.157,0,0,0,2.444,1.058,3.461,3.461,0,0,0,1.783-.43,4.481,4.481,0,0,0,1.278-1.139l1.214.945A4.881,4.881,0,0,1,68.9,75.215Zm-.247-10.42a2.651,2.651,0,0,0-2.02.875,4.255,4.255,0,0,0-1.01,2.455h5.822v-.15a3.785,3.785,0,0,0-.816-2.347A2.5,2.5,0,0,0,68.653,64.795Zm9.775-4.232v2.814H80.6v1.536h-2.17V72.13a1.613,1.613,0,0,0,.29,1.049,1.221,1.221,0,0,0,.988.35,4.811,4.811,0,0,0,.945-.129V75a5.8,5.8,0,0,1-1.525.214,2.475,2.475,0,0,1-2.009-.806,3.461,3.461,0,0,1-.677-2.288V64.913H74.325V63.377h2.116V60.563Zm10.108,4.6a5.955,5.955,0,0,0-.978-.075,2.619,2.619,0,0,0-2.653,1.665V75H82.919V63.377h1.934l.032,1.343a3.094,3.094,0,0,1,2.771-1.558,2.03,2.03,0,0,1,.881.15Zm1.085,3.921a6.865,6.865,0,0,1,.671-3.072A5.008,5.008,0,0,1,92.163,63.9a5.088,5.088,0,0,1,2.734-.741,4.9,4.9,0,0,1,3.84,1.644,6.323,6.323,0,0,1,1.466,4.372v.14a6.925,6.925,0,0,1-.65,3.045,4.935,4.935,0,0,1-1.858,2.1,5.146,5.146,0,0,1-2.777.752,4.889,4.889,0,0,1-3.83-1.644,6.291,6.291,0,0,1-1.466-4.351Zm2,.236a4.972,4.972,0,0,0,.9,3.1,3.04,3.04,0,0,0,4.807-.016,5.437,5.437,0,0,0,.892-3.325,4.964,4.964,0,0,0-.908-3.1A2.886,2.886,0,0,0,94.9,64.795a2.854,2.854,0,0,0-2.374,1.171A5.4,5.4,0,0,0,91.62,69.317ZM103.007,75V59.359h4.415a7.107,7.107,0,0,1,3.609.9,6.1,6.1,0,0,1,2.422,2.567,8.357,8.357,0,0,1,.865,3.824v1a8.386,8.386,0,0,1-.854,3.878,6.007,6.007,0,0,1-2.438,2.557,7.56,7.56,0,0,1-3.69.913Zm2.063-13.954V73.313h2.17a4.721,4.721,0,0,0,3.711-1.484,6.13,6.13,0,0,0,1.327-4.225V66.69a6.227,6.227,0,0,0-1.251-4.145,4.453,4.453,0,0,0-3.55-1.5ZM116.6,69.081a6.865,6.865,0,0,1,.671-3.072,5.008,5.008,0,0,1,1.869-2.105,5.088,5.088,0,0,1,2.734-.741,4.9,4.9,0,0,1,3.84,1.644,6.323,6.323,0,0,1,1.466,4.372v.14a6.925,6.925,0,0,1-.65,3.045,4.935,4.935,0,0,1-1.858,2.1,5.146,5.146,0,0,1-2.777.752,4.889,4.889,0,0,1-3.83-1.644,6.291,6.291,0,0,1-1.466-4.351Zm2,.236a4.972,4.972,0,0,0,.9,3.1,3.04,3.04,0,0,0,4.807-.016,5.437,5.437,0,0,0,.892-3.325,4.964,4.964,0,0,0-.908-3.1,2.886,2.886,0,0,0-2.412-1.187,2.854,2.854,0,0,0-2.374,1.171A5.4,5.4,0,0,0,118.594,69.317Zm17.843,2.6a1.463,1.463,0,0,0-.607-1.251,5.842,5.842,0,0,0-2.116-.768,10.005,10.005,0,0,1-2.4-.773,3.408,3.408,0,0,1-1.311-1.074,2.57,2.57,0,0,1-.424-1.482,3.015,3.015,0,0,1,1.208-2.417,4.72,4.72,0,0,1,3.088-.988,4.857,4.857,0,0,1,3.207,1.021,3.241,3.241,0,0,1,1.23,2.61h-2a1.794,1.794,0,0,0-.693-1.407,2.6,2.6,0,0,0-1.746-.591,2.717,2.717,0,0,0-1.7.473,1.488,1.488,0,0,0-.612,1.235,1.205,1.205,0,0,0,.569,1.085,7,7,0,0,0,2.057.7,10.719,10.719,0,0,1,2.412.795,3.518,3.518,0,0,1,1.37,1.112,2.734,2.734,0,0,1,.446,1.584,2.975,2.975,0,0,1-1.246,2.5,5.227,5.227,0,0,1-3.233.94,5.853,5.853,0,0,1-2.471-.494,4.018,4.018,0,0,1-1.681-1.38,3.327,3.327,0,0,1-.607-1.917h1.987a2.058,2.058,0,0,0,.8,1.584,3.1,3.1,0,0,0,1.971.585,3.2,3.2,0,0,0,1.81-.457A1.4,1.4,0,0,0,136.437,71.917Zm4.512,6.2-1.128-.773a5.184,5.184,0,0,0,1.053-2.9V72.647h1.944v1.558a4.893,4.893,0,0,1-.532,2.17A5.08,5.08,0,0,1,140.948,78.115ZM11.322,95.317a6.96,6.96,0,0,1-1.214,4.275,3.89,3.89,0,0,1-3.287,1.622,4.263,4.263,0,0,1-3.33-1.343v5.6H1.5V89.377H3.319l.1,1.289a4.094,4.094,0,0,1,3.373-1.5A3.963,3.963,0,0,1,10.1,90.741a7.036,7.036,0,0,1,1.219,4.394Zm-1.987-.226a5.135,5.135,0,0,0-.838-3.1,2.7,2.7,0,0,0-2.3-1.139,2.921,2.921,0,0,0-2.707,1.6V98a2.927,2.927,0,0,0,2.729,1.59,2.686,2.686,0,0,0,2.272-1.133A5.606,5.606,0,0,0,9.335,95.092ZM21.022,101a4.175,4.175,0,0,1-.279-1.225,4.434,4.434,0,0,1-3.309,1.439,4.1,4.1,0,0,1-2.82-.972,3.145,3.145,0,0,1-1.1-2.465,3.286,3.286,0,0,1,1.38-2.82,6.508,6.508,0,0,1,3.883-1h1.934V93.04a2.232,2.232,0,0,0-.623-1.66,2.5,2.5,0,0,0-1.837-.618,2.9,2.9,0,0,0-1.783.537,1.583,1.583,0,0,0-.72,1.3h-2a2.743,2.743,0,0,1,.618-1.681,4.216,4.216,0,0,1,1.676-1.284,5.638,5.638,0,0,1,2.326-.473,4.6,4.6,0,0,1,3.147,1A3.623,3.623,0,0,1,22.7,92.933v5.35a6.54,6.54,0,0,0,.408,2.546V101Zm-3.3-1.515A3.493,3.493,0,0,0,19.5,99a2.924,2.924,0,0,0,1.214-1.257V95.36H19.153Q15.5,95.36,15.5,97.5a1.809,1.809,0,0,0,.623,1.461A2.4,2.4,0,0,0,17.725,99.485ZM31.432,91.16a5.955,5.955,0,0,0-.978-.075A2.619,2.619,0,0,0,27.8,92.75V101H25.813V89.377h1.934l.032,1.343a3.094,3.094,0,0,1,2.771-1.558,2.03,2.03,0,0,1,.881.15ZM40,101a4.175,4.175,0,0,1-.279-1.225,4.434,4.434,0,0,1-3.309,1.439,4.1,4.1,0,0,1-2.82-.972,3.145,3.145,0,0,1-1.1-2.465,3.286,3.286,0,0,1,1.38-2.82,6.508,6.508,0,0,1,3.883-1h1.934V93.04a2.232,2.232,0,0,0-.623-1.66,2.5,2.5,0,0,0-1.837-.618,2.9,2.9,0,0,0-1.783.537,1.583,1.583,0,0,0-.72,1.3h-2a2.743,2.743,0,0,1,.618-1.681,4.216,4.216,0,0,1,1.676-1.284,5.638,5.638,0,0,1,2.326-.473,4.6,4.6,0,0,1,3.147,1,3.623,3.623,0,0,1,1.182,2.766v5.35a6.54,6.54,0,0,0,.408,2.546V101Zm-3.3-1.515A3.493,3.493,0,0,0,38.479,99a2.924,2.924,0,0,0,1.214-1.257V95.36H38.135q-3.652,0-3.652,2.138a1.809,1.809,0,0,0,.623,1.461A2.4,2.4,0,0,0,36.706,99.485Zm9.958-10.108.054,1.289a4.292,4.292,0,0,1,3.448-1.5,3.323,3.323,0,0,1,3.319,1.869,4.4,4.4,0,0,1,1.509-1.354,4.458,4.458,0,0,1,2.2-.516q3.824,0,3.889,4.05V101H59.093V93.33a2.669,2.669,0,0,0-.569-1.864,2.507,2.507,0,0,0-1.912-.618,2.635,2.635,0,0,0-1.837.661,2.68,2.68,0,0,0-.849,1.778V101h-2V93.384a2.217,2.217,0,0,0-2.481-2.535,2.659,2.659,0,0,0-2.675,1.665V101H44.784V89.377ZM68.9,101.215a5.078,5.078,0,0,1-3.846-1.552,5.761,5.761,0,0,1-1.482-4.152v-.365a6.975,6.975,0,0,1,.661-3.088,5.154,5.154,0,0,1,1.848-2.127,4.645,4.645,0,0,1,2.573-.768,4.353,4.353,0,0,1,3.523,1.493,6.465,6.465,0,0,1,1.257,4.275v.827H65.56a4.132,4.132,0,0,0,1,2.777,3.157,3.157,0,0,0,2.444,1.058,3.461,3.461,0,0,0,1.783-.43,4.481,4.481,0,0,0,1.278-1.139l1.214.945A4.881,4.881,0,0,1,68.9,101.215Zm-.247-10.42a2.651,2.651,0,0,0-2.02.875,4.255,4.255,0,0,0-1.01,2.455h5.822v-.15a3.785,3.785,0,0,0-.816-2.347A2.5,2.5,0,0,0,68.653,90.795Zm9.775-4.232v2.814H80.6v1.536h-2.17V98.13a1.613,1.613,0,0,0,.29,1.049,1.221,1.221,0,0,0,.988.35,4.811,4.811,0,0,0,.945-.129V101a5.8,5.8,0,0,1-1.525.214,2.475,2.475,0,0,1-2.009-.806,3.461,3.461,0,0,1-.677-2.288V90.913H74.325V89.377h2.116V86.563Zm10.108,4.6a5.955,5.955,0,0,0-.978-.075,2.619,2.619,0,0,0-2.653,1.665V101H82.919V89.377h1.934l.032,1.343a3.094,3.094,0,0,1,2.771-1.558,2.03,2.03,0,0,1,.881.15Zm1.085,3.921a6.865,6.865,0,0,1,.671-3.072A5.008,5.008,0,0,1,92.163,89.9a5.088,5.088,0,0,1,2.734-.741,4.9,4.9,0,0,1,3.84,1.644,6.323,6.323,0,0,1,1.466,4.372v.14a6.925,6.925,0,0,1-.65,3.045,4.935,4.935,0,0,1-1.858,2.1,5.146,5.146,0,0,1-2.777.752,4.889,4.889,0,0,1-3.83-1.644,6.291,6.291,0,0,1-1.466-4.351Zm2,.236a4.972,4.972,0,0,0,.9,3.1,3.04,3.04,0,0,0,4.807-.016,5.437,5.437,0,0,0,.892-3.325,4.964,4.964,0,0,0-.908-3.1A2.886,2.886,0,0,0,94.9,90.795a2.854,2.854,0,0,0-2.374,1.171A5.4,5.4,0,0,0,91.62,95.317Zm22.193-8.271h-5.027V101h-2.052V87.046h-5.017V85.359h12.1Zm6.821,4.114a5.955,5.955,0,0,0-.978-.075A2.619,2.619,0,0,0,117,92.75V101h-1.987V89.377h1.934l.032,1.343a3.094,3.094,0,0,1,2.771-1.558,2.03,2.03,0,0,1,.881.15Zm6.649,10.055a5.078,5.078,0,0,1-3.846-1.552,5.761,5.761,0,0,1-1.482-4.152v-.365a6.975,6.975,0,0,1,.661-3.088,5.154,5.154,0,0,1,1.848-2.127,4.645,4.645,0,0,1,2.573-.768,4.353,4.353,0,0,1,3.523,1.493,6.465,6.465,0,0,1,1.257,4.275v.827h-7.874a4.132,4.132,0,0,0,1,2.777,3.157,3.157,0,0,0,2.444,1.058,3.461,3.461,0,0,0,1.783-.43,4.48,4.48,0,0,0,1.278-1.139l1.214.945A4.881,4.881,0,0,1,127.284,101.215Zm-.247-10.42a2.651,2.651,0,0,0-2.02.875,4.255,4.255,0,0,0-1.01,2.455h5.822v-.15a3.785,3.785,0,0,0-.816-2.347A2.5,2.5,0,0,0,127.037,90.795Zm13.847,7.122a1.463,1.463,0,0,0-.607-1.251,5.842,5.842,0,0,0-2.116-.768,10.005,10.005,0,0,1-2.4-.773,3.408,3.408,0,0,1-1.311-1.074,2.57,2.57,0,0,1-.424-1.482,3.015,3.015,0,0,1,1.208-2.417,4.72,4.72,0,0,1,3.088-.988,4.857,4.857,0,0,1,3.207,1.021,3.241,3.241,0,0,1,1.23,2.61h-2a1.794,1.794,0,0,0-.693-1.407,2.6,2.6,0,0,0-1.746-.591,2.717,2.717,0,0,0-1.7.473,1.488,1.488,0,0,0-.612,1.235,1.205,1.205,0,0,0,.569,1.085,7,7,0,0,0,2.057.7,10.719,10.719,0,0,1,2.412.795,3.518,3.518,0,0,1,1.37,1.112,2.734,2.734,0,0,1,.446,1.584,2.975,2.975,0,0,1-1.246,2.5,5.227,5.227,0,0,1-3.233.94,5.853,5.853,0,0,1-2.471-.494,4.018,4.018,0,0,1-1.681-1.38,3.327,3.327,0,0,1-.607-1.917h1.987a2.058,2.058,0,0,0,.8,1.584,3.1,3.1,0,0,0,1.971.585,3.2,3.2,0,0,0,1.81-.457A1.4,1.4,0,0,0,140.884,97.917Zm9.163-3.158a16.616,16.616,0,0,1-.628,4.592,13.579,13.579,0,0,1-1.923,4.055,8.425,8.425,0,0,1-2.712,2.643l-.419-1.214a8.636,8.636,0,0,0,2.659-3.937,17.032,17.032,0,0,0,1.026-5.924V94.63a17.684,17.684,0,0,0-.473-4.195,14.157,14.157,0,0,0-1.316-3.475,8.027,8.027,0,0,0-1.9-2.4l.419-1.214a8.392,8.392,0,0,1,2.7,2.621,13.608,13.608,0,0,1,1.923,4.05A17,17,0,0,1,150.047,94.759Zm13.793,10.173a5.339,5.339,0,0,1-2.863-1.767,5.13,5.13,0,0,1-.961-3.25V97.777q0-2.61-2.277-2.61V93.609q2.277,0,2.277-2.6V88.775a5.122,5.122,0,0,1,.961-3.174,5.344,5.344,0,0,1,2.863-1.756l.408,1.235Q162,85.8,162,88.829V91a3.509,3.509,0,0,1-1.794,3.395A3.552,3.552,0,0,1,162,97.82v2.213q.032,2.954,2.245,3.663ZM93.339,124.3l2.879-8.927h2.03L94.08,127H92.565l-4.211-11.623h2.03Zm13.836,2.7a4.175,4.175,0,0,1-.279-1.225,4.434,4.434,0,0,1-3.309,1.439,4.1,4.1,0,0,1-2.82-.972,3.145,3.145,0,0,1-1.1-2.465,3.286,3.286,0,0,1,1.38-2.82,6.508,6.508,0,0,1,3.883-1h1.934v-.913a2.232,2.232,0,0,0-.623-1.66,2.5,2.5,0,0,0-1.837-.618,2.9,2.9,0,0,0-1.783.537,1.583,1.583,0,0,0-.72,1.3h-2a2.743,2.743,0,0,1,.618-1.681,4.216,4.216,0,0,1,1.676-1.284,5.638,5.638,0,0,1,2.326-.473,4.6,4.6,0,0,1,3.147,1,3.623,3.623,0,0,1,1.182,2.766v5.35a6.54,6.54,0,0,0,.408,2.546V127Zm-3.3-1.515a3.493,3.493,0,0,0,1.772-.483,2.924,2.924,0,0,0,1.214-1.257V121.36h-1.558q-3.652,0-3.652,2.138a1.809,1.809,0,0,0,.623,1.461A2.4,2.4,0,0,0,103.877,125.485Zm13.707-8.325a5.955,5.955,0,0,0-.978-.075,2.619,2.619,0,0,0-2.653,1.665V127h-1.987V115.377H113.9l.032,1.343a3.094,3.094,0,0,1,2.771-1.558,2.03,2.03,0,0,1,.881.15ZM132.032,127a4.175,4.175,0,0,1-.279-1.225,4.434,4.434,0,0,1-3.309,1.439,4.1,4.1,0,0,1-2.82-.972,3.145,3.145,0,0,1-1.1-2.465,3.286,3.286,0,0,1,1.38-2.82,6.508,6.508,0,0,1,3.883-1h1.934v-.913a2.232,2.232,0,0,0-.623-1.66,2.5,2.5,0,0,0-1.837-.618,2.9,2.9,0,0,0-1.783.537,1.583,1.583,0,0,0-.72,1.3h-2a2.743,2.743,0,0,1,.618-1.681,4.216,4.216,0,0,1,1.676-1.284,5.638,5.638,0,0,1,2.326-.473,4.6,4.6,0,0,1,3.147,1,3.623,3.623,0,0,1,1.182,2.766v5.35a6.54,6.54,0,0,0,.408,2.546V127Zm-3.3-1.515a3.493,3.493,0,0,0,1.772-.483,2.924,2.924,0,0,0,1.214-1.257V121.36h-1.558q-3.652,0-3.652,2.138a1.809,1.809,0,0,0,.623,1.461A2.4,2.4,0,0,0,128.734,125.485Zm17.177-7.229h-8.959v-1.729h8.959Zm0,4.458h-8.959V121h8.959Zm18.251-1.4a6.96,6.96,0,0,1-1.214,4.275,3.89,3.89,0,0,1-3.287,1.622,4.263,4.263,0,0,1-3.33-1.343v5.6h-1.987V115.377h1.815l.1,1.289a4.094,4.094,0,0,1,3.373-1.5,3.963,3.963,0,0,1,3.314,1.579,7.036,7.036,0,0,1,1.219,4.394Zm-1.987-.226a5.135,5.135,0,0,0-.838-3.1,2.7,2.7,0,0,0-2.3-1.139,2.921,2.921,0,0,0-2.707,1.6V124a2.927,2.927,0,0,0,2.729,1.59,2.686,2.686,0,0,0,2.272-1.133A5.606,5.606,0,0,0,162.175,121.092ZM173.862,127a4.175,4.175,0,0,1-.279-1.225,4.434,4.434,0,0,1-3.309,1.439,4.1,4.1,0,0,1-2.82-.972,3.145,3.145,0,0,1-1.1-2.465,3.286,3.286,0,0,1,1.38-2.82,6.508,6.508,0,0,1,3.883-1h1.934v-.913a2.232,2.232,0,0,0-.623-1.66,2.5,2.5,0,0,0-1.837-.618,2.9,2.9,0,0,0-1.783.537,1.583,1.583,0,0,0-.72,1.3h-2a2.743,2.743,0,0,1,.618-1.681,4.216,4.216,0,0,1,1.676-1.284,5.638,5.638,0,0,1,2.326-.473,4.6,4.6,0,0,1,3.147,1,3.623,3.623,0,0,1,1.182,2.766v5.35a6.54,6.54,0,0,0,.408,2.546V127Zm-3.3-1.515a3.493,3.493,0,0,0,1.772-.483,2.924,2.924,0,0,0,1.214-1.257V121.36h-1.558q-3.652,0-3.652,2.138a1.809,1.809,0,0,0,.623,1.461A2.4,2.4,0,0,0,170.564,125.485Zm13.707-8.325a5.955,5.955,0,0,0-.978-.075,2.619,2.619,0,0,0-2.653,1.665V127h-1.987V115.377h1.934l.032,1.343a3.094,3.094,0,0,1,2.771-1.558,2.03,2.03,0,0,1,.881.15Zm8.572,9.84a4.175,4.175,0,0,1-.279-1.225,4.434,4.434,0,0,1-3.309,1.439,4.1,4.1,0,0,1-2.82-.972,3.145,3.145,0,0,1-1.1-2.465,3.286,3.286,0,0,1,1.38-2.82,6.508,6.508,0,0,1,3.883-1h1.934v-.913a2.232,2.232,0,0,0-.623-1.66,2.5,2.5,0,0,0-1.837-.618,2.9,2.9,0,0,0-1.783.537,1.583,1.583,0,0,0-.72,1.3h-2a2.743,2.743,0,0,1,.618-1.681,4.216,4.216,0,0,1,1.676-1.284,5.638,5.638,0,0,1,2.326-.473,4.6,4.6,0,0,1,3.147,1,3.623,3.623,0,0,1,1.182,2.766v5.35a6.54,6.54,0,0,0,.408,2.546V127Zm-3.3-1.515a3.493,3.493,0,0,0,1.772-.483,2.924,2.924,0,0,0,1.214-1.257V121.36h-1.558q-3.652,0-3.652,2.138a1.809,1.809,0,0,0,.623,1.461A2.4,2.4,0,0,0,189.546,125.485Zm9.958-10.108.054,1.289a4.292,4.292,0,0,1,3.448-1.5,3.323,3.323,0,0,1,3.319,1.869,4.4,4.4,0,0,1,1.509-1.354,4.458,4.458,0,0,1,2.2-.516q3.824,0,3.889,4.05V127h-1.987v-7.67a2.669,2.669,0,0,0-.569-1.864,2.507,2.507,0,0,0-1.912-.618,2.635,2.635,0,0,0-1.837.661,2.68,2.68,0,0,0-.849,1.778V127h-2v-7.616a2.217,2.217,0,0,0-2.481-2.535,2.659,2.659,0,0,0-2.675,1.665V127h-1.987V115.377Zm22.236,11.838a5.078,5.078,0,0,1-3.846-1.552,5.761,5.761,0,0,1-1.482-4.152v-.365a6.975,6.975,0,0,1,.661-3.088,5.154,5.154,0,0,1,1.848-2.127,4.645,4.645,0,0,1,2.573-.768,4.353,4.353,0,0,1,3.523,1.493,6.465,6.465,0,0,1,1.257,4.275v.827H218.4a4.132,4.132,0,0,0,1,2.777,3.157,3.157,0,0,0,2.444,1.058,3.461,3.461,0,0,0,1.783-.43,4.48,4.48,0,0,0,1.278-1.139l1.214.945A4.881,4.881,0,0,1,221.74,127.215Zm-.247-10.42a2.651,2.651,0,0,0-2.02.875,4.255,4.255,0,0,0-1.01,2.455h5.822v-.15a3.785,3.785,0,0,0-.816-2.347A2.5,2.5,0,0,0,221.493,116.795Zm9.775-4.232v2.814h2.17v1.536h-2.17v7.217a1.613,1.613,0,0,0,.29,1.049,1.221,1.221,0,0,0,.988.35,4.811,4.811,0,0,0,.945-.129V127a5.8,5.8,0,0,1-1.525.214,2.475,2.475,0,0,1-2.009-.806,3.461,3.461,0,0,1-.677-2.288v-7.208h-2.116v-1.536h2.116v-2.814Zm10.108,4.6a5.955,5.955,0,0,0-.978-.075,2.619,2.619,0,0,0-2.653,1.665V127h-1.987V115.377h1.934l.032,1.343a3.094,3.094,0,0,1,2.771-1.558,2.03,2.03,0,0,1,.881.15Zm1.085,3.921a6.865,6.865,0,0,1,.671-3.072A5.008,5.008,0,0,1,245,115.9a5.088,5.088,0,0,1,2.734-.741,4.9,4.9,0,0,1,3.84,1.644,6.323,6.323,0,0,1,1.466,4.372v.14a6.925,6.925,0,0,1-.65,3.045,4.935,4.935,0,0,1-1.858,2.1,5.146,5.146,0,0,1-2.777.752,4.889,4.889,0,0,1-3.83-1.644,6.291,6.291,0,0,1-1.466-4.351Zm2,.236a4.972,4.972,0,0,0,.9,3.1,3.04,3.04,0,0,0,4.807-.016,5.437,5.437,0,0,0,.892-3.325,4.964,4.964,0,0,0-.908-3.1,2.886,2.886,0,0,0-2.412-1.187,2.854,2.854,0,0,0-2.374,1.171A5.4,5.4,0,0,0,244.46,121.317Zm22.4-9.958v10.635a4.989,4.989,0,0,1-1.391,3.62,5.606,5.606,0,0,1-3.744,1.579l-.548.021a5.854,5.854,0,0,1-4.093-1.386,4.956,4.956,0,0,1-1.547-3.813V111.359h2.041v10.592a3.262,3.262,0,0,0,3.6,3.577,3.616,3.616,0,0,0,2.68-.935,3.571,3.571,0,0,0,.929-2.632v-10.6Zm4.823,4.018.064,1.461a4.236,4.236,0,0,1,3.48-1.676q3.685,0,3.717,4.157V127h-1.987v-7.691a2.676,2.676,0,0,0-.575-1.858,2.3,2.3,0,0,0-1.756-.6,2.868,2.868,0,0,0-1.7.516,3.5,3.5,0,0,0-1.139,1.354V127H269.8V115.377Zm9.732,5.7a6.865,6.865,0,0,1,.671-3.072,5.009,5.009,0,0,1,1.869-2.105,5.088,5.088,0,0,1,2.734-.741,4.9,4.9,0,0,1,3.84,1.644,6.323,6.323,0,0,1,1.466,4.372v.14a6.925,6.925,0,0,1-.65,3.045,4.935,4.935,0,0,1-1.858,2.1,5.146,5.146,0,0,1-2.777.752,4.889,4.889,0,0,1-3.83-1.644,6.291,6.291,0,0,1-1.466-4.351Zm2,.236a4.972,4.972,0,0,0,.9,3.1,3.04,3.04,0,0,0,4.807-.016,5.438,5.438,0,0,0,.892-3.325,4.964,4.964,0,0,0-.908-3.1,2.886,2.886,0,0,0-2.412-1.187,2.854,2.854,0,0,0-2.374,1.171A5.4,5.4,0,0,0,283.411,121.317Zm10.764-4.845a1.244,1.244,0,0,1,.306-.859,1.167,1.167,0,0,1,.918-.344,1.2,1.2,0,0,1,.929.344,1.219,1.219,0,0,1,.317.859,1.153,1.153,0,0,1-.317.827,1.223,1.223,0,0,1-.929.333,1.1,1.1,0,0,1-1.225-1.16Zm.376,13.643-1.128-.773a5.184,5.184,0,0,0,1.053-2.9v-1.794h1.944v1.558a4.893,4.893,0,0,1-.532,2.17A5.08,5.08,0,0,1,294.551,130.115ZM93.339,150.3l2.879-8.927h2.03L94.08,153H92.565l-4.211-11.623h2.03Zm13.836,2.7a4.175,4.175,0,0,1-.279-1.225,4.434,4.434,0,0,1-3.309,1.439,4.1,4.1,0,0,1-2.82-.972,3.145,3.145,0,0,1-1.1-2.465,3.286,3.286,0,0,1,1.38-2.82,6.508,6.508,0,0,1,3.883-1h1.934v-.913a2.232,2.232,0,0,0-.623-1.66,2.5,2.5,0,0,0-1.837-.618,2.9,2.9,0,0,0-1.783.537,1.583,1.583,0,0,0-.72,1.3h-2a2.743,2.743,0,0,1,.618-1.681,4.216,4.216,0,0,1,1.676-1.284,5.638,5.638,0,0,1,2.326-.473,4.6,4.6,0,0,1,3.147,1,3.623,3.623,0,0,1,1.182,2.766v5.35a6.54,6.54,0,0,0,.408,2.546V153Zm-3.3-1.515a3.493,3.493,0,0,0,1.772-.483,2.924,2.924,0,0,0,1.214-1.257V147.36h-1.558q-3.652,0-3.652,2.138a1.809,1.809,0,0,0,.623,1.461A2.4,2.4,0,0,0,103.877,151.485Zm13.707-8.325a5.956,5.956,0,0,0-.978-.075,2.619,2.619,0,0,0-2.653,1.665V153h-1.987V141.377H113.9l.032,1.343a3.094,3.094,0,0,1,2.771-1.558,2.03,2.03,0,0,1,.881.15Zm17.112,4.157a6.911,6.911,0,0,1-1.225,4.281,3.913,3.913,0,0,1-3.287,1.617,4.052,4.052,0,0,1-3.405-1.558l-.1,1.343h-1.826V136.5h1.987v6.155a4.029,4.029,0,0,1,3.319-1.493,3.937,3.937,0,0,1,3.325,1.6,7.118,7.118,0,0,1,1.208,4.383Zm-1.987-.226a5.37,5.37,0,0,0-.784-3.137,2.6,2.6,0,0,0-2.256-1.106,2.918,2.918,0,0,0-2.825,1.826V149.7a3,3,0,0,0,2.847,1.826,2.582,2.582,0,0,0,2.224-1.106A5.711,5.711,0,0,0,132.709,147.092Zm13.578-2.836h-8.959v-1.729h8.959Zm0,4.458h-8.959V147h8.959Zm18.251-1.4a6.96,6.96,0,0,1-1.214,4.275,3.891,3.891,0,0,1-3.287,1.622,4.263,4.263,0,0,1-3.33-1.343v5.6H154.72V141.377h1.815l.1,1.289a4.094,4.094,0,0,1,3.373-1.5,3.963,3.963,0,0,1,3.314,1.579,7.036,7.036,0,0,1,1.219,4.394Zm-1.987-.226a5.135,5.135,0,0,0-.838-3.1,2.7,2.7,0,0,0-2.3-1.139,2.921,2.921,0,0,0-2.707,1.6V150a2.927,2.927,0,0,0,2.729,1.59,2.686,2.686,0,0,0,2.272-1.133A5.606,5.606,0,0,0,162.551,147.092ZM174.238,153a4.175,4.175,0,0,1-.279-1.225,4.434,4.434,0,0,1-3.309,1.439,4.1,4.1,0,0,1-2.82-.972,3.145,3.145,0,0,1-1.1-2.465,3.286,3.286,0,0,1,1.38-2.82,6.508,6.508,0,0,1,3.883-1h1.934v-.913a2.232,2.232,0,0,0-.623-1.66,2.5,2.5,0,0,0-1.837-.618,2.9,2.9,0,0,0-1.783.537,1.583,1.583,0,0,0-.72,1.3h-2a2.743,2.743,0,0,1,.618-1.681,4.216,4.216,0,0,1,1.676-1.284,5.638,5.638,0,0,1,2.326-.473,4.6,4.6,0,0,1,3.147,1,3.623,3.623,0,0,1,1.182,2.766v5.35a6.54,6.54,0,0,0,.408,2.546V153Zm-3.3-1.515a3.493,3.493,0,0,0,1.772-.483,2.924,2.924,0,0,0,1.214-1.257V147.36h-1.558q-3.652,0-3.652,2.138a1.809,1.809,0,0,0,.623,1.461A2.4,2.4,0,0,0,170.94,151.485Zm13.707-8.325a5.956,5.956,0,0,0-.978-.075,2.619,2.619,0,0,0-2.653,1.665V153h-1.987V141.377h1.934L181,142.72a3.094,3.094,0,0,1,2.771-1.558,2.03,2.03,0,0,1,.881.15ZM193.22,153a4.175,4.175,0,0,1-.279-1.225,4.434,4.434,0,0,1-3.309,1.439,4.1,4.1,0,0,1-2.82-.972,3.145,3.145,0,0,1-1.1-2.465,3.286,3.286,0,0,1,1.38-2.82,6.508,6.508,0,0,1,3.883-1h1.934v-.913a2.232,2.232,0,0,0-.623-1.66,2.5,2.5,0,0,0-1.837-.618,2.9,2.9,0,0,0-1.783.537,1.583,1.583,0,0,0-.72,1.3h-2a2.743,2.743,0,0,1,.618-1.681,4.216,4.216,0,0,1,1.676-1.284,5.638,5.638,0,0,1,2.326-.473,4.6,4.6,0,0,1,3.147,1,3.623,3.623,0,0,1,1.182,2.766v5.35a6.54,6.54,0,0,0,.408,2.546V153Zm-3.3-1.515a3.493,3.493,0,0,0,1.772-.483,2.924,2.924,0,0,0,1.214-1.257V147.36h-1.558q-3.652,0-3.652,2.138a1.809,1.809,0,0,0,.623,1.461A2.4,2.4,0,0,0,189.922,151.485Zm9.958-10.108.054,1.289a4.292,4.292,0,0,1,3.448-1.5,3.323,3.323,0,0,1,3.319,1.869,4.4,4.4,0,0,1,1.509-1.354,4.458,4.458,0,0,1,2.2-.516q3.824,0,3.889,4.05V153h-1.987v-7.67a2.669,2.669,0,0,0-.569-1.864,2.507,2.507,0,0,0-1.912-.618,2.635,2.635,0,0,0-1.837.661,2.68,2.68,0,0,0-.849,1.778V153h-2v-7.616a2.217,2.217,0,0,0-2.481-2.535,2.659,2.659,0,0,0-2.675,1.665V153H198V141.377Zm22.236,11.838a5.078,5.078,0,0,1-3.846-1.552,5.761,5.761,0,0,1-1.482-4.152v-.365a6.975,6.975,0,0,1,.661-3.088,5.153,5.153,0,0,1,1.848-2.127,4.645,4.645,0,0,1,2.573-.768,4.353,4.353,0,0,1,3.523,1.493,6.465,6.465,0,0,1,1.257,4.275v.827h-7.874a4.132,4.132,0,0,0,1,2.777,3.157,3.157,0,0,0,2.444,1.058,3.461,3.461,0,0,0,1.783-.43,4.48,4.48,0,0,0,1.278-1.139l1.214.945A4.881,4.881,0,0,1,222.116,153.215Zm-.247-10.42a2.651,2.651,0,0,0-2.02.875,4.255,4.255,0,0,0-1.01,2.455h5.822v-.15a3.785,3.785,0,0,0-.816-2.347A2.5,2.5,0,0,0,221.869,142.795Zm9.775-4.232v2.814h2.17v1.536h-2.17v7.217a1.613,1.613,0,0,0,.29,1.049,1.221,1.221,0,0,0,.988.35,4.811,4.811,0,0,0,.945-.129V153a5.8,5.8,0,0,1-1.525.214,2.475,2.475,0,0,1-2.009-.806,3.461,3.461,0,0,1-.677-2.288v-7.208h-2.116v-1.536h2.116v-2.814Zm10.108,4.6a5.956,5.956,0,0,0-.978-.075,2.619,2.619,0,0,0-2.653,1.665V153h-1.987V141.377h1.934l.032,1.343a3.094,3.094,0,0,1,2.771-1.558,2.03,2.03,0,0,1,.881.15Zm1.085,3.921a6.865,6.865,0,0,1,.671-3.072,5.008,5.008,0,0,1,1.869-2.105,5.088,5.088,0,0,1,2.734-.741,4.9,4.9,0,0,1,3.84,1.644,6.323,6.323,0,0,1,1.466,4.372v.14a6.925,6.925,0,0,1-.65,3.045,4.935,4.935,0,0,1-1.858,2.1,5.147,5.147,0,0,1-2.777.752,4.889,4.889,0,0,1-3.83-1.644,6.291,6.291,0,0,1-1.466-4.351Zm2,.236a4.972,4.972,0,0,0,.9,3.1,3.04,3.04,0,0,0,4.807-.016,5.437,5.437,0,0,0,.892-3.325,4.964,4.964,0,0,0-.908-3.1,2.886,2.886,0,0,0-2.412-1.187,2.854,2.854,0,0,0-2.374,1.171A5.4,5.4,0,0,0,244.836,147.317ZM256.223,153V137.359h4.415a7.107,7.107,0,0,1,3.609.9,6.1,6.1,0,0,1,2.422,2.567,8.357,8.357,0,0,1,.865,3.824v1a8.386,8.386,0,0,1-.854,3.878,6.007,6.007,0,0,1-2.438,2.557,7.56,7.56,0,0,1-3.69.913Zm2.063-13.954v12.268h2.17a4.721,4.721,0,0,0,3.711-1.484,6.13,6.13,0,0,0,1.327-4.225v-.914a6.227,6.227,0,0,0-1.251-4.145,4.453,4.453,0,0,0-3.55-1.5Zm11.526,8.035a6.865,6.865,0,0,1,.671-3.072,5.009,5.009,0,0,1,1.869-2.105,5.088,5.088,0,0,1,2.734-.741,4.9,4.9,0,0,1,3.84,1.644,6.323,6.323,0,0,1,1.466,4.372v.14a6.925,6.925,0,0,1-.65,3.045,4.935,4.935,0,0,1-1.858,2.1,5.147,5.147,0,0,1-2.777.752,4.889,4.889,0,0,1-3.83-1.644,6.291,6.291,0,0,1-1.466-4.351Zm2,.236a4.972,4.972,0,0,0,.9,3.1,3.04,3.04,0,0,0,4.807-.016,5.438,5.438,0,0,0,.892-3.325,4.964,4.964,0,0,0-.908-3.1,2.886,2.886,0,0,0-2.412-1.187,2.854,2.854,0,0,0-2.374,1.171A5.4,5.4,0,0,0,271.81,147.317Zm17.843,2.6a1.463,1.463,0,0,0-.607-1.251,5.842,5.842,0,0,0-2.116-.768,10.005,10.005,0,0,1-2.4-.773,3.408,3.408,0,0,1-1.311-1.074,2.57,2.57,0,0,1-.424-1.482,3.015,3.015,0,0,1,1.208-2.417,4.72,4.72,0,0,1,3.088-.988,4.857,4.857,0,0,1,3.207,1.021,3.241,3.241,0,0,1,1.23,2.61h-2a1.794,1.794,0,0,0-.693-1.407,2.6,2.6,0,0,0-1.746-.591,2.717,2.717,0,0,0-1.7.473,1.488,1.488,0,0,0-.612,1.235,1.206,1.206,0,0,0,.569,1.085,7,7,0,0,0,2.057.7,10.719,10.719,0,0,1,2.412.795,3.518,3.518,0,0,1,1.37,1.112,2.734,2.734,0,0,1,.446,1.584,2.975,2.975,0,0,1-1.246,2.5,5.227,5.227,0,0,1-3.233.94,5.853,5.853,0,0,1-2.471-.494,4.018,4.018,0,0,1-1.681-1.38,3.327,3.327,0,0,1-.607-1.917h1.987a2.058,2.058,0,0,0,.8,1.584,3.1,3.1,0,0,0,1.971.585,3.2,3.2,0,0,0,1.81-.457A1.4,1.4,0,0,0,289.652,149.917Zm4.265-7.444a1.245,1.245,0,0,1,.306-.859,1.167,1.167,0,0,1,.918-.344,1.2,1.2,0,0,1,.929.344,1.219,1.219,0,0,1,.317.859,1.153,1.153,0,0,1-.317.827,1.223,1.223,0,0,1-.929.333,1.1,1.1,0,0,1-1.225-1.16Zm.376,13.643-1.128-.773a5.184,5.184,0,0,0,1.053-2.9v-1.794h1.944v1.558a4.893,4.893,0,0,1-.532,2.17A5.08,5.08,0,0,1,294.293,156.115ZM93.339,176.3l2.879-8.927h2.03L94.08,179H92.565l-4.211-11.623h2.03Zm13.836,2.7a4.175,4.175,0,0,1-.279-1.225,4.434,4.434,0,0,1-3.309,1.439,4.1,4.1,0,0,1-2.82-.972,3.145,3.145,0,0,1-1.1-2.465,3.286,3.286,0,0,1,1.38-2.82,6.508,6.508,0,0,1,3.883-1h1.934v-.913a2.232,2.232,0,0,0-.623-1.66,2.5,2.5,0,0,0-1.837-.618,2.9,2.9,0,0,0-1.783.537,1.583,1.583,0,0,0-.72,1.3h-2a2.743,2.743,0,0,1,.618-1.681,4.216,4.216,0,0,1,1.676-1.284,5.638,5.638,0,0,1,2.326-.473,4.6,4.6,0,0,1,3.147,1,3.623,3.623,0,0,1,1.182,2.766v5.35a6.54,6.54,0,0,0,.408,2.546V179Zm-3.3-1.515a3.493,3.493,0,0,0,1.772-.483,2.924,2.924,0,0,0,1.214-1.257V173.36h-1.558q-3.652,0-3.652,2.138a1.809,1.809,0,0,0,.623,1.461A2.4,2.4,0,0,0,103.877,177.485Zm13.707-8.325a5.956,5.956,0,0,0-.978-.075,2.619,2.619,0,0,0-2.653,1.665V179h-1.987V167.377H113.9l.032,1.343a3.094,3.094,0,0,1,2.771-1.558,2.03,2.03,0,0,1,.881.15Zm11.935,8.433a2.863,2.863,0,0,0,1.858-.645,2.268,2.268,0,0,0,.881-1.611h1.88a3.6,3.6,0,0,1-.687,1.9,4.528,4.528,0,0,1-1.692,1.439,4.882,4.882,0,0,1-2.24.537,4.788,4.788,0,0,1-3.776-1.584,6.311,6.311,0,0,1-1.4-4.334v-.333a7,7,0,0,1,.623-3.019,4.746,4.746,0,0,1,1.789-2.052,5.081,5.081,0,0,1,2.755-.73,4.662,4.662,0,0,1,3.25,1.171,4.185,4.185,0,0,1,1.38,3.04h-1.88a2.739,2.739,0,0,0-.854-1.853,2.657,2.657,0,0,0-1.9-.725,2.781,2.781,0,0,0-2.347,1.09,5.121,5.121,0,0,0-.833,3.153v.376a5.019,5.019,0,0,0,.827,3.094A2.8,2.8,0,0,0,129.519,177.593Zm15.941-7.337H136.5v-1.729h8.959Zm0,4.458H136.5V173h8.959Zm-134.138,24.6a6.96,6.96,0,0,1-1.214,4.275,3.891,3.891,0,0,1-3.287,1.622,4.263,4.263,0,0,1-3.33-1.343v5.6H1.5V193.377H3.319l.1,1.289a4.094,4.094,0,0,1,3.373-1.5,3.963,3.963,0,0,1,3.314,1.579,7.036,7.036,0,0,1,1.219,4.394Zm-1.987-.226a5.135,5.135,0,0,0-.838-3.1,2.7,2.7,0,0,0-2.3-1.139,2.921,2.921,0,0,0-2.707,1.6V202a2.927,2.927,0,0,0,2.729,1.59,2.686,2.686,0,0,0,2.272-1.133A5.606,5.606,0,0,0,9.335,199.092ZM21.022,205a4.175,4.175,0,0,1-.279-1.225,4.434,4.434,0,0,1-3.309,1.439,4.1,4.1,0,0,1-2.82-.972,3.145,3.145,0,0,1-1.1-2.465,3.286,3.286,0,0,1,1.38-2.82,6.508,6.508,0,0,1,3.883-1h1.934v-.913a2.232,2.232,0,0,0-.623-1.66,2.5,2.5,0,0,0-1.837-.618,2.9,2.9,0,0,0-1.783.537,1.583,1.583,0,0,0-.72,1.3h-2a2.743,2.743,0,0,1,.618-1.681,4.216,4.216,0,0,1,1.676-1.284,5.638,5.638,0,0,1,2.326-.473,4.6,4.6,0,0,1,3.147,1,3.623,3.623,0,0,1,1.182,2.766v5.35a6.54,6.54,0,0,0,.408,2.546V205Zm-3.3-1.515A3.493,3.493,0,0,0,19.5,203a2.924,2.924,0,0,0,1.214-1.257V199.36H19.153q-3.652,0-3.652,2.138a1.809,1.809,0,0,0,.623,1.461A2.4,2.4,0,0,0,17.725,203.485Zm13.707-8.325a5.956,5.956,0,0,0-.978-.075A2.619,2.619,0,0,0,27.8,196.75V205H25.813V193.377h1.934l.032,1.343a3.094,3.094,0,0,1,2.771-1.558,2.03,2.03,0,0,1,.881.15ZM40,205a4.175,4.175,0,0,1-.279-1.225,4.434,4.434,0,0,1-3.309,1.439,4.1,4.1,0,0,1-2.82-.972,3.145,3.145,0,0,1-1.1-2.465,3.286,3.286,0,0,1,1.38-2.82,6.508,6.508,0,0,1,3.883-1h1.934v-.913a2.232,2.232,0,0,0-.623-1.66,2.5,2.5,0,0,0-1.837-.618,2.9,2.9,0,0,0-1.783.537,1.583,1.583,0,0,0-.72,1.3h-2a2.743,2.743,0,0,1,.618-1.681,4.216,4.216,0,0,1,1.676-1.284,5.638,5.638,0,0,1,2.326-.473,4.6,4.6,0,0,1,3.147,1,3.623,3.623,0,0,1,1.182,2.766v5.35a6.54,6.54,0,0,0,.408,2.546V205Zm-3.3-1.515A3.493,3.493,0,0,0,38.479,203a2.924,2.924,0,0,0,1.214-1.257V199.36H38.135q-3.652,0-3.652,2.138a1.809,1.809,0,0,0,.623,1.461A2.4,2.4,0,0,0,36.706,203.485Zm9.958-10.108.054,1.289a4.292,4.292,0,0,1,3.448-1.5,3.323,3.323,0,0,1,3.319,1.869,4.4,4.4,0,0,1,1.509-1.354,4.458,4.458,0,0,1,2.2-.516q3.824,0,3.889,4.05V205H59.093v-7.67a2.669,2.669,0,0,0-.569-1.864,2.507,2.507,0,0,0-1.912-.618,2.635,2.635,0,0,0-1.837.661,2.68,2.68,0,0,0-.849,1.778V205h-2v-7.616a2.217,2.217,0,0,0-2.481-2.535,2.659,2.659,0,0,0-2.675,1.665V205H44.784V193.377ZM68.9,205.215a5.078,5.078,0,0,1-3.846-1.552,5.761,5.761,0,0,1-1.482-4.152v-.365a6.975,6.975,0,0,1,.661-3.088,5.153,5.153,0,0,1,1.848-2.127,4.645,4.645,0,0,1,2.573-.768,4.353,4.353,0,0,1,3.523,1.493,6.465,6.465,0,0,1,1.257,4.275v.827H65.56a4.132,4.132,0,0,0,1,2.777,3.157,3.157,0,0,0,2.444,1.058,3.461,3.461,0,0,0,1.783-.43,4.48,4.48,0,0,0,1.278-1.139l1.214.945A4.881,4.881,0,0,1,68.9,205.215Zm-.247-10.42a2.651,2.651,0,0,0-2.02.875,4.255,4.255,0,0,0-1.01,2.455h5.822v-.15a3.785,3.785,0,0,0-.816-2.347A2.5,2.5,0,0,0,68.653,194.795Zm9.775-4.232v2.814H80.6v1.536h-2.17v7.217a1.613,1.613,0,0,0,.29,1.049,1.221,1.221,0,0,0,.988.35,4.811,4.811,0,0,0,.945-.129V205a5.8,5.8,0,0,1-1.525.214,2.475,2.475,0,0,1-2.009-.806,3.461,3.461,0,0,1-.677-2.288v-7.208H74.325v-1.536h2.116v-2.814Zm10.108,4.6a5.956,5.956,0,0,0-.978-.075,2.619,2.619,0,0,0-2.653,1.665V205H82.919V193.377h1.934l.032,1.343a3.094,3.094,0,0,1,2.771-1.558,2.03,2.03,0,0,1,.881.15Zm1.085,3.921a6.865,6.865,0,0,1,.671-3.072,5.009,5.009,0,0,1,1.869-2.105,5.088,5.088,0,0,1,2.734-.741,4.9,4.9,0,0,1,3.84,1.644,6.323,6.323,0,0,1,1.466,4.372v.14a6.925,6.925,0,0,1-.65,3.045,4.935,4.935,0,0,1-1.858,2.1,5.147,5.147,0,0,1-2.777.752,4.889,4.889,0,0,1-3.83-1.644,6.291,6.291,0,0,1-1.466-4.351Zm2,.236a4.972,4.972,0,0,0,.9,3.1,3.04,3.04,0,0,0,4.807-.016,5.437,5.437,0,0,0,.892-3.325,4.964,4.964,0,0,0-.908-3.1,2.886,2.886,0,0,0-2.412-1.187,2.854,2.854,0,0,0-2.374,1.171A5.4,5.4,0,0,0,91.62,199.317Zm22.193-8.271h-5.027V205h-2.052V191.046h-5.017v-1.687h12.1Zm6.821,4.114a5.956,5.956,0,0,0-.978-.075A2.619,2.619,0,0,0,117,196.75V205h-1.987V193.377h1.934l.032,1.343a3.094,3.094,0,0,1,2.771-1.558,2.03,2.03,0,0,1,.881.15Zm6.649,10.055a5.078,5.078,0,0,1-3.846-1.552,5.761,5.761,0,0,1-1.482-4.152v-.365a6.975,6.975,0,0,1,.661-3.088,5.153,5.153,0,0,1,1.848-2.127,4.645,4.645,0,0,1,2.573-.768,4.353,4.353,0,0,1,3.523,1.493,6.465,6.465,0,0,1,1.257,4.275v.827h-7.874a4.132,4.132,0,0,0,1,2.777,3.157,3.157,0,0,0,2.444,1.058,3.461,3.461,0,0,0,1.783-.43,4.48,4.48,0,0,0,1.278-1.139l1.214.945A4.881,4.881,0,0,1,127.284,205.215Zm-.247-10.42a2.651,2.651,0,0,0-2.02.875,4.255,4.255,0,0,0-1.01,2.455h5.822v-.15a3.785,3.785,0,0,0-.816-2.347A2.5,2.5,0,0,0,127.037,194.795Zm13.847,7.122a1.463,1.463,0,0,0-.607-1.251,5.842,5.842,0,0,0-2.116-.768,10.005,10.005,0,0,1-2.4-.773,3.408,3.408,0,0,1-1.311-1.074,2.569,2.569,0,0,1-.424-1.482,3.015,3.015,0,0,1,1.208-2.417,4.72,4.72,0,0,1,3.088-.988,4.857,4.857,0,0,1,3.207,1.021,3.241,3.241,0,0,1,1.23,2.61h-2a1.794,1.794,0,0,0-.693-1.407,2.6,2.6,0,0,0-1.746-.591,2.717,2.717,0,0,0-1.7.473,1.488,1.488,0,0,0-.612,1.235,1.205,1.205,0,0,0,.569,1.085,7,7,0,0,0,2.057.7,10.719,10.719,0,0,1,2.412.795,3.518,3.518,0,0,1,1.37,1.112,2.734,2.734,0,0,1,.446,1.584,2.975,2.975,0,0,1-1.246,2.5,5.227,5.227,0,0,1-3.233.94,5.853,5.853,0,0,1-2.471-.494,4.018,4.018,0,0,1-1.681-1.38,3.327,3.327,0,0,1-.607-1.917h1.987a2.058,2.058,0,0,0,.8,1.584,3.1,3.1,0,0,0,1.971.585,3.2,3.2,0,0,0,1.81-.457A1.4,1.4,0,0,0,140.884,201.917Zm4.265-7.444a1.245,1.245,0,0,1,.306-.859,1.167,1.167,0,0,1,.918-.344,1.2,1.2,0,0,1,.929.344,1.219,1.219,0,0,1,.317.859,1.153,1.153,0,0,1-.317.827,1.223,1.223,0,0,1-.929.333,1.1,1.1,0,0,1-1.225-1.16Zm.376,13.643-1.128-.773a5.184,5.184,0,0,0,1.053-2.9v-1.794h1.944v1.558a4.893,4.893,0,0,1-.532,2.17A5.08,5.08,0,0,1,145.524,208.115Z" transform="translate(100.397 -7009.081)" fill="#fff"/>
    <g transform="matrix(1, 0, 0, 1, 77.94, -7058.37)" filter="url(#Trazado_655383)">
      <path id="Trazado_655383-2" data-name="Trazado 655383" d="M5,0H310.063a5,5,0,0,1,5,5V24.937H1a1,1,0,0,1-1-1V5A5,5,0,0,1,5,0Z" transform="translate(9 6)" fill="url(#linear-gradient)"/>
    </g>
    <path id="Trazado_654862" data-name="Trazado 654862" d="M365.448,158.971a4.512,4.512,0,1,1-4.511-4.512A4.511,4.511,0,0,1,365.448,158.971Z" transform="translate(-230.865 -7199.187)" fill="#fff"/>
    <path id="Trazado_654863" data-name="Trazado 654863" d="M365.448,158.971a4.512,4.512,0,1,1-4.511-4.512A4.511,4.511,0,0,1,365.448,158.971Z" transform="translate(-248.874 -7199.187)" fill="#ffa726"/>
    <path id="Trazado_654864" data-name="Trazado 654864" d="M375.264,158.971a4.512,4.512,0,1,1-4.513-4.512A4.513,4.513,0,0,1,375.264,158.971Z" transform="translate(-222.669 -7199.187)" fill="#26a69a"/>
  </g>
</svg>
