<svg xmlns="http://www.w3.org/2000/svg" xmlns:xlink="http://www.w3.org/1999/xlink" width="333" height="283.279" viewBox="0 0 333 283.279">
  <defs>
    <filter id="Trazado_655378" x="0" y="30.138" width="333" height="253.141" filterUnits="userSpaceOnUse">
      <feOffset dy="3" input="SourceAlpha"/>
      <feGaussianBlur stdDeviation="3" result="blur"/>
      <feFlood flood-opacity="0.161"/>
      <feComposite operator="in" in2="blur"/>
      <feComposite in="SourceGraphic"/>
    </filter>
    <linearGradient id="linear-gradient" x1="0.5" x2="0.5" y2="1" gradientUnits="objectBoundingBox">
      <stop offset="0" stop-color="#f5f5f5"/>
      <stop offset="0.25" stop-color="#f5f5f5"/>
      <stop offset="1" stop-color="#a7b3cf"/>
    </linearGradient>
    <filter id="Trazado_655380" x="0" y="0" width="333" height="48.139" filterUnits="userSpaceOnUse">
      <feOffset dy="3" input="SourceAlpha"/>
      <feGaussianBlur stdDeviation="3" result="blur-2"/>
      <feFlood flood-opacity="0.161"/>
      <feComposite operator="in" in2="blur-2"/>
      <feComposite in="SourceGraphic"/>
    </filter>
  </defs>
  <g id="Grupo_981174" data-name="Grupo 981174" transform="translate(-78 7573.28)">
    <g transform="matrix(1, 0, 0, 1, 78, -7573.28)" filter="url(#Trazado_655378)">
      <path id="Trazado_655378-2" data-name="Trazado 655378" d="M0,0H315V235.141H0Z" transform="translate(9 36.14)" fill="#12263f"/>
    </g>
    <path id="Trazado_655379" data-name="Trazado 655379" d="M5.339,20.3l2.879-8.927h2.03L6.08,23H4.565L.354,11.377h2.03ZM19.175,23a4.175,4.175,0,0,1-.279-1.225,4.434,4.434,0,0,1-3.309,1.439,4.1,4.1,0,0,1-2.82-.972,3.145,3.145,0,0,1-1.1-2.465,3.286,3.286,0,0,1,1.38-2.82,6.508,6.508,0,0,1,3.883-1h1.934V15.04a2.232,2.232,0,0,0-.623-1.66,2.5,2.5,0,0,0-1.837-.618,2.9,2.9,0,0,0-1.783.537,1.583,1.583,0,0,0-.72,1.3h-2a2.743,2.743,0,0,1,.618-1.681A4.216,4.216,0,0,1,14.2,11.635a5.638,5.638,0,0,1,2.326-.473,4.6,4.6,0,0,1,3.147,1,3.623,3.623,0,0,1,1.182,2.766v5.35a6.54,6.54,0,0,0,.408,2.546V23Zm-3.3-1.515A3.493,3.493,0,0,0,17.649,21a2.924,2.924,0,0,0,1.214-1.257V17.36H17.306q-3.652,0-3.652,2.138a1.809,1.809,0,0,0,.623,1.461A2.4,2.4,0,0,0,15.877,21.485ZM29.584,13.16a5.955,5.955,0,0,0-.978-.075,2.619,2.619,0,0,0-2.653,1.665V23H23.966V11.377H25.9l.032,1.343A3.094,3.094,0,0,1,28.7,11.162a2.03,2.03,0,0,1,.881.15Zm9.152-1.783.064,1.461a4.236,4.236,0,0,1,3.48-1.676q3.685,0,3.717,4.157V23H44.011V15.309a2.676,2.676,0,0,0-.575-1.858,2.3,2.3,0,0,0-1.756-.6,2.868,2.868,0,0,0-1.7.516,3.5,3.5,0,0,0-1.139,1.354V23H36.856V11.377Zm9.732,5.7a6.865,6.865,0,0,1,.671-3.072A5.008,5.008,0,0,1,51.009,11.9a5.088,5.088,0,0,1,2.734-.741,4.9,4.9,0,0,1,3.84,1.644,6.323,6.323,0,0,1,1.466,4.372v.14a6.925,6.925,0,0,1-.65,3.045,4.935,4.935,0,0,1-1.858,2.1,5.146,5.146,0,0,1-2.777.752,4.889,4.889,0,0,1-3.83-1.644,6.291,6.291,0,0,1-1.466-4.351Zm2,.236a4.972,4.972,0,0,0,.9,3.1,3.04,3.04,0,0,0,4.807-.016,5.437,5.437,0,0,0,.892-3.325,4.964,4.964,0,0,0-.908-3.1,2.886,2.886,0,0,0-2.412-1.187,2.854,2.854,0,0,0-2.374,1.171A5.4,5.4,0,0,0,50.467,17.317Zm12.944-5.94.054,1.289a4.292,4.292,0,0,1,3.448-1.5,3.323,3.323,0,0,1,3.319,1.869,4.4,4.4,0,0,1,1.509-1.354,4.458,4.458,0,0,1,2.2-.516q3.824,0,3.889,4.05V23H75.84V15.33a2.669,2.669,0,0,0-.569-1.864,2.507,2.507,0,0,0-1.912-.618,2.635,2.635,0,0,0-1.837.661,2.68,2.68,0,0,0-.849,1.778V23h-2V15.384a2.217,2.217,0,0,0-2.481-2.535,2.659,2.659,0,0,0-2.675,1.665V23H61.531V11.377Zm27.253,5.94A6.911,6.911,0,0,1,89.439,21.6a3.913,3.913,0,0,1-3.287,1.617,4.052,4.052,0,0,1-3.405-1.558L82.65,23H80.824V6.5h1.987v6.155a4.029,4.029,0,0,1,3.319-1.493,3.937,3.937,0,0,1,3.325,1.6,7.118,7.118,0,0,1,1.208,4.383Zm-1.987-.226a5.37,5.37,0,0,0-.784-3.137,2.6,2.6,0,0,0-2.256-1.106,2.918,2.918,0,0,0-2.825,1.826V19.7a3,3,0,0,0,2.847,1.826,2.582,2.582,0,0,0,2.224-1.106A5.711,5.711,0,0,0,88.677,17.092ZM98.785,13.16a5.955,5.955,0,0,0-.978-.075,2.619,2.619,0,0,0-2.653,1.665V23H93.167V11.377H95.1l.032,1.343A3.094,3.094,0,0,1,97.9,11.162a2.03,2.03,0,0,1,.881.15Zm6.649,10.055a5.078,5.078,0,0,1-3.846-1.552,5.761,5.761,0,0,1-1.482-4.152v-.365a6.975,6.975,0,0,1,.661-3.088,5.154,5.154,0,0,1,1.848-2.127,4.645,4.645,0,0,1,2.573-.768,4.353,4.353,0,0,1,3.523,1.493,6.465,6.465,0,0,1,1.257,4.275v.827h-7.874a4.132,4.132,0,0,0,1,2.777,3.157,3.157,0,0,0,2.444,1.058,3.461,3.461,0,0,0,1.783-.43,4.481,4.481,0,0,0,1.278-1.139l1.214.945A4.881,4.881,0,0,1,105.435,23.215Zm-.247-10.42a2.651,2.651,0,0,0-2.02.875,4.255,4.255,0,0,0-1.01,2.455h5.822v-.15a3.785,3.785,0,0,0-.816-2.347A2.5,2.5,0,0,0,105.188,12.795Zm12.568,7.466,4.469-12.9h2.256L118.68,23h-1.826l-5.79-15.641h2.245ZM132.945,23a4.175,4.175,0,0,1-.279-1.225,4.434,4.434,0,0,1-3.309,1.439,4.1,4.1,0,0,1-2.82-.972,3.145,3.145,0,0,1-1.1-2.465,3.286,3.286,0,0,1,1.38-2.82,6.508,6.508,0,0,1,3.883-1h1.934V15.04a2.232,2.232,0,0,0-.623-1.66,2.5,2.5,0,0,0-1.837-.618,2.9,2.9,0,0,0-1.783.537,1.583,1.583,0,0,0-.72,1.3h-2a2.743,2.743,0,0,1,.618-1.681,4.216,4.216,0,0,1,1.676-1.284,5.638,5.638,0,0,1,2.326-.473,4.6,4.6,0,0,1,3.147,1,3.623,3.623,0,0,1,1.182,2.766v5.35a6.54,6.54,0,0,0,.408,2.546V23Zm-3.3-1.515A3.493,3.493,0,0,0,131.42,21a2.924,2.924,0,0,0,1.214-1.257V17.36h-1.558q-3.652,0-3.652,2.138a1.809,1.809,0,0,0,.623,1.461A2.4,2.4,0,0,0,129.647,21.485Zm13.707-8.325a5.955,5.955,0,0,0-.978-.075,2.619,2.619,0,0,0-2.653,1.665V23h-1.987V11.377h1.934l.032,1.343a3.094,3.094,0,0,1,2.771-1.558,2.03,2.03,0,0,1,.881.15ZM147.34,23h-1.987V11.377h1.987ZM145.191,8.294a1.186,1.186,0,0,1,.3-.816,1.109,1.109,0,0,1,.875-.333,1.126,1.126,0,0,1,.881.333,1.174,1.174,0,0,1,.3.816,1.135,1.135,0,0,1-.3.806,1.147,1.147,0,0,1-.881.322,1.129,1.129,0,0,1-.875-.322A1.147,1.147,0,0,1,145.191,8.294ZM157.7,23a4.175,4.175,0,0,1-.279-1.225,4.434,4.434,0,0,1-3.309,1.439,4.1,4.1,0,0,1-2.82-.972,3.145,3.145,0,0,1-1.1-2.465,3.286,3.286,0,0,1,1.38-2.82,6.508,6.508,0,0,1,3.883-1h1.934V15.04a2.232,2.232,0,0,0-.623-1.66,2.5,2.5,0,0,0-1.837-.618,2.9,2.9,0,0,0-1.783.537,1.583,1.583,0,0,0-.72,1.3h-2a2.743,2.743,0,0,1,.618-1.681,4.216,4.216,0,0,1,1.676-1.284,5.638,5.638,0,0,1,2.326-.473,4.6,4.6,0,0,1,3.147,1,3.623,3.623,0,0,1,1.182,2.766v5.35a6.54,6.54,0,0,0,.408,2.546V23Zm-3.3-1.515A3.493,3.493,0,0,0,156.17,21a2.924,2.924,0,0,0,1.214-1.257V17.36h-1.558q-3.652,0-3.652,2.138a1.809,1.809,0,0,0,.623,1.461A2.4,2.4,0,0,0,154.4,21.485Zm17.929-4.168A6.911,6.911,0,0,1,171.1,21.6a3.913,3.913,0,0,1-3.287,1.617,4.052,4.052,0,0,1-3.405-1.558l-.1,1.343h-1.826V6.5h1.987v6.155a4.029,4.029,0,0,1,3.319-1.493,3.937,3.937,0,0,1,3.325,1.6,7.118,7.118,0,0,1,1.208,4.383Zm-1.987-.226a5.37,5.37,0,0,0-.784-3.137,2.6,2.6,0,0,0-2.256-1.106,2.918,2.918,0,0,0-2.825,1.826V19.7a3,3,0,0,0,2.847,1.826,2.582,2.582,0,0,0,2.224-1.106A5.711,5.711,0,0,0,170.339,17.092ZM176.988,23H175V6.5h1.987Zm8,.215a5.078,5.078,0,0,1-3.846-1.552,5.761,5.761,0,0,1-1.482-4.152v-.365a6.975,6.975,0,0,1,.661-3.088,5.154,5.154,0,0,1,1.848-2.127,4.645,4.645,0,0,1,2.573-.768,4.353,4.353,0,0,1,3.523,1.493,6.465,6.465,0,0,1,1.257,4.275v.827H181.65a4.132,4.132,0,0,0,1,2.777,3.157,3.157,0,0,0,2.444,1.058,3.461,3.461,0,0,0,1.783-.43,4.48,4.48,0,0,0,1.278-1.139l1.214.945A4.881,4.881,0,0,1,184.991,23.215Zm-.247-10.42a2.651,2.651,0,0,0-2.02.875,4.255,4.255,0,0,0-1.01,2.455h5.822v-.15a3.785,3.785,0,0,0-.816-2.347A2.5,2.5,0,0,0,184.744,12.795Zm16.167,1.461h-8.959V12.526h8.959Zm0,4.458h-8.959V17h8.959ZM219.388,23H209.14V21.571l5.414-6.016a12.863,12.863,0,0,0,1.66-2.218,3.7,3.7,0,0,0,.457-1.767,2.806,2.806,0,0,0-.741-2.009,2.592,2.592,0,0,0-1.977-.784,3.069,3.069,0,0,0-2.3.843,3.221,3.221,0,0,0-.822,2.347h-1.987a4.613,4.613,0,0,1,1.391-3.491,5.157,5.157,0,0,1,3.722-1.332A4.955,4.955,0,0,1,217.4,8.289a3.9,3.9,0,0,1,1.268,3.045q0,2.31-2.943,5.5l-4.189,4.544h7.853ZM231.3,16.329a9.089,9.089,0,0,1-1.192,5.188,4.955,4.955,0,0,1-7.434.038,8.627,8.627,0,0,1-1.246-4.958V13.944a8.887,8.887,0,0,1,1.192-5.124,5.044,5.044,0,0,1,7.455-.059,8.576,8.576,0,0,1,1.225,4.99Zm-1.987-2.718a7.282,7.282,0,0,0-.709-3.679,2.44,2.44,0,0,0-2.245-1.155,2.408,2.408,0,0,0-2.224,1.149,7.11,7.11,0,0,0-.72,3.534v3.18a7.4,7.4,0,0,0,.736,3.744,2.436,2.436,0,0,0,2.229,1.208,2.4,2.4,0,0,0,2.186-1.139,7.131,7.131,0,0,0,.747-3.588Zm4.426-1.139a1.244,1.244,0,0,1,.306-.859,1.167,1.167,0,0,1,.918-.344,1.2,1.2,0,0,1,.929.344,1.219,1.219,0,0,1,.317.859,1.153,1.153,0,0,1-.317.827,1.223,1.223,0,0,1-.929.333,1.1,1.1,0,0,1-1.225-1.16Zm.376,13.643-1.128-.773a5.184,5.184,0,0,0,1.053-2.9V20.647h1.944v1.558a4.893,4.893,0,0,1-.532,2.17A5.08,5.08,0,0,1,234.115,26.115ZM6.166,47.593a2.863,2.863,0,0,0,1.858-.645,2.268,2.268,0,0,0,.881-1.611h1.88a3.6,3.6,0,0,1-.687,1.9,4.528,4.528,0,0,1-1.692,1.439,4.882,4.882,0,0,1-2.24.537A4.788,4.788,0,0,1,2.39,47.63,6.311,6.311,0,0,1,.988,43.3v-.333a7,7,0,0,1,.623-3.019A4.745,4.745,0,0,1,3.4,37.893a5.081,5.081,0,0,1,2.755-.73A4.662,4.662,0,0,1,9.4,38.333a4.185,4.185,0,0,1,1.38,3.04H8.905a2.739,2.739,0,0,0-.854-1.853,2.657,2.657,0,0,0-1.9-.725,2.781,2.781,0,0,0-2.347,1.09,5.121,5.121,0,0,0-.833,3.153v.376A5.019,5.019,0,0,0,3.8,46.508,2.8,2.8,0,0,0,6.166,47.593Zm6.327-4.512a6.865,6.865,0,0,1,.671-3.072A5.008,5.008,0,0,1,15.034,37.9a5.088,5.088,0,0,1,2.734-.741,4.9,4.9,0,0,1,3.84,1.644,6.323,6.323,0,0,1,1.466,4.372v.14a6.925,6.925,0,0,1-.65,3.045,4.935,4.935,0,0,1-1.858,2.1,5.147,5.147,0,0,1-2.777.752,4.889,4.889,0,0,1-3.83-1.644,6.291,6.291,0,0,1-1.466-4.351Zm2,.236a4.972,4.972,0,0,0,.9,3.1,3.04,3.04,0,0,0,4.807-.016,5.437,5.437,0,0,0,.892-3.325,4.964,4.964,0,0,0-.908-3.1,2.886,2.886,0,0,0-2.412-1.187,2.854,2.854,0,0,0-2.374,1.171A5.4,5.4,0,0,0,14.491,43.317Zm12.955-5.94.064,1.461a4.236,4.236,0,0,1,3.48-1.676q3.685,0,3.717,4.157V49H32.721V41.309a2.676,2.676,0,0,0-.575-1.858,2.3,2.3,0,0,0-1.756-.6,2.868,2.868,0,0,0-1.7.516,3.5,3.5,0,0,0-1.139,1.354V49H25.566V37.377Zm17.026,8.54a1.463,1.463,0,0,0-.607-1.251A5.842,5.842,0,0,0,41.75,43.9a10.005,10.005,0,0,1-2.4-.773,3.408,3.408,0,0,1-1.311-1.074,2.57,2.57,0,0,1-.424-1.482,3.015,3.015,0,0,1,1.208-2.417,4.72,4.72,0,0,1,3.088-.988,4.857,4.857,0,0,1,3.207,1.021,3.241,3.241,0,0,1,1.23,2.61h-2a1.794,1.794,0,0,0-.693-1.407,2.6,2.6,0,0,0-1.746-.591,2.717,2.717,0,0,0-1.7.473,1.488,1.488,0,0,0-.612,1.235,1.205,1.205,0,0,0,.569,1.085,7,7,0,0,0,2.057.7,10.719,10.719,0,0,1,2.412.795,3.518,3.518,0,0,1,1.37,1.112,2.734,2.734,0,0,1,.446,1.584,2.975,2.975,0,0,1-1.246,2.5,5.227,5.227,0,0,1-3.233.94,5.853,5.853,0,0,1-2.471-.494,4.018,4.018,0,0,1-1.681-1.38,3.327,3.327,0,0,1-.607-1.917h1.987a2.058,2.058,0,0,0,.8,1.584,3.1,3.1,0,0,0,1.971.585,3.2,3.2,0,0,0,1.81-.457A1.4,1.4,0,0,0,44.473,45.917Zm9.55-2.825a6.831,6.831,0,0,1,1.257-4.324,4.333,4.333,0,0,1,6.649-.1l.1-1.289h1.815V48.721A4.728,4.728,0,0,1,62.5,52.276a4.935,4.935,0,0,1-3.593,1.3,5.978,5.978,0,0,1-2.46-.537,4.235,4.235,0,0,1-1.837-1.472l1.031-1.192a3.886,3.886,0,0,0,3.126,1.579,3.045,3.045,0,0,0,2.261-.816,3.12,3.12,0,0,0,.811-2.3v-1a4.085,4.085,0,0,1-3.255,1.375,3.97,3.97,0,0,1-3.3-1.644A7.182,7.182,0,0,1,54.022,43.092Zm2,.226a5.211,5.211,0,0,0,.806,3.088,2.618,2.618,0,0,0,2.256,1.123,2.911,2.911,0,0,0,2.761-1.708V40.514A2.945,2.945,0,0,0,59.1,38.849a2.641,2.641,0,0,0-2.267,1.128A5.676,5.676,0,0,0,56.021,43.317ZM72.456,39.16a5.955,5.955,0,0,0-.978-.075,2.619,2.619,0,0,0-2.653,1.665V49H66.838V37.377h1.934L68.8,38.72a3.094,3.094,0,0,1,2.771-1.558,2.03,2.03,0,0,1,.881.15ZM81.028,49a4.175,4.175,0,0,1-.279-1.225,4.434,4.434,0,0,1-3.309,1.439,4.1,4.1,0,0,1-2.82-.972,3.145,3.145,0,0,1-1.1-2.465,3.286,3.286,0,0,1,1.38-2.82,6.508,6.508,0,0,1,3.883-1h1.934V41.04a2.232,2.232,0,0,0-.623-1.66,2.5,2.5,0,0,0-1.837-.618,2.9,2.9,0,0,0-1.783.537,1.583,1.583,0,0,0-.72,1.3h-2a2.743,2.743,0,0,1,.618-1.681,4.216,4.216,0,0,1,1.676-1.284,5.638,5.638,0,0,1,2.326-.473,4.6,4.6,0,0,1,3.147,1A3.623,3.623,0,0,1,82.7,40.933v5.35a6.54,6.54,0,0,0,.408,2.546V49Zm-3.3-1.515A3.493,3.493,0,0,0,79.5,47a2.924,2.924,0,0,0,1.214-1.257V43.36H79.159q-3.652,0-3.652,2.138a1.809,1.809,0,0,0,.623,1.461A2.4,2.4,0,0,0,77.73,47.485ZM89.493,46.3l2.879-8.927H94.4L90.234,49H88.72L84.509,37.377h2.03Zm11.645,2.911a5.078,5.078,0,0,1-3.846-1.552,5.761,5.761,0,0,1-1.482-4.152v-.365a6.975,6.975,0,0,1,.661-3.088,5.153,5.153,0,0,1,1.848-2.127,4.645,4.645,0,0,1,2.573-.768,4.353,4.353,0,0,1,3.523,1.493,6.465,6.465,0,0,1,1.257,4.275v.827H97.8a4.132,4.132,0,0,0,1,2.777,3.157,3.157,0,0,0,2.444,1.058,3.461,3.461,0,0,0,1.783-.43,4.48,4.48,0,0,0,1.278-1.139l1.214.945A4.881,4.881,0,0,1,101.138,49.215Zm-.247-10.42a2.651,2.651,0,0,0-2.02.875,4.255,4.255,0,0,0-1.01,2.455h5.822v-.15a3.785,3.785,0,0,0-.816-2.347A2.5,2.5,0,0,0,100.891,38.795Zm6.6,4.3a6.809,6.809,0,0,1,1.268-4.3,4.313,4.313,0,0,1,6.553-.231V32.5h1.987V49h-1.826l-.1-1.246a4.047,4.047,0,0,1-3.319,1.461,3.97,3.97,0,0,1-3.292-1.654,6.886,6.886,0,0,1-1.273-4.318Zm1.987.226a5.155,5.155,0,0,0,.816,3.094,2.639,2.639,0,0,0,2.256,1.117,2.9,2.9,0,0,0,2.761-1.7V40.492a2.921,2.921,0,0,0-2.739-1.644,2.652,2.652,0,0,0-2.277,1.128A5.676,5.676,0,0,0,109.474,43.317ZM127.553,49a4.175,4.175,0,0,1-.279-1.225,4.434,4.434,0,0,1-3.309,1.439,4.1,4.1,0,0,1-2.82-.972,3.145,3.145,0,0,1-1.1-2.465,3.286,3.286,0,0,1,1.38-2.82,6.508,6.508,0,0,1,3.883-1h1.934V41.04a2.232,2.232,0,0,0-.623-1.66,2.5,2.5,0,0,0-1.837-.618A2.9,2.9,0,0,0,123,39.3a1.583,1.583,0,0,0-.72,1.3h-2a2.743,2.743,0,0,1,.618-1.681,4.216,4.216,0,0,1,1.676-1.284,5.638,5.638,0,0,1,2.326-.473,4.6,4.6,0,0,1,3.147,1,3.623,3.623,0,0,1,1.182,2.766v5.35a6.54,6.54,0,0,0,.408,2.546V49Zm-3.3-1.515A3.493,3.493,0,0,0,126.027,47a2.924,2.924,0,0,0,1.214-1.257V43.36h-1.558q-3.652,0-3.652,2.138a1.809,1.809,0,0,0,.623,1.461A2.4,2.4,0,0,0,124.255,47.485Zm7.605-4.394a6.809,6.809,0,0,1,1.268-4.3,4.313,4.313,0,0,1,6.553-.231V32.5h1.987V49h-1.826l-.1-1.246a4.047,4.047,0,0,1-3.319,1.461,3.97,3.97,0,0,1-3.292-1.654,6.886,6.886,0,0,1-1.273-4.318Zm1.987.226a5.155,5.155,0,0,0,.816,3.094,2.639,2.639,0,0,0,2.256,1.117,2.9,2.9,0,0,0,2.761-1.7V40.492a2.921,2.921,0,0,0-2.739-1.644,2.652,2.652,0,0,0-2.277,1.128A5.676,5.676,0,0,0,133.848,43.317Zm22.021-8.271h-5.027V49H148.79V35.046h-5.017V33.359h12.1ZM160.037,49H158.05V37.377h1.987Zm-2.148-14.706a1.186,1.186,0,0,1,.3-.816,1.109,1.109,0,0,1,.875-.333,1.126,1.126,0,0,1,.881.333,1.174,1.174,0,0,1,.3.816,1.135,1.135,0,0,1-.3.806,1.147,1.147,0,0,1-.881.322,1.129,1.129,0,0,1-.875-.322A1.147,1.147,0,0,1,157.889,34.294ZM168.04,49.215a5.078,5.078,0,0,1-3.846-1.552,5.761,5.761,0,0,1-1.482-4.152v-.365a6.975,6.975,0,0,1,.661-3.088,5.154,5.154,0,0,1,1.848-2.127,4.645,4.645,0,0,1,2.573-.768,4.353,4.353,0,0,1,3.523,1.493,6.465,6.465,0,0,1,1.257,4.275v.827H164.7a4.132,4.132,0,0,0,1,2.777,3.157,3.157,0,0,0,2.444,1.058,3.461,3.461,0,0,0,1.783-.43,4.48,4.48,0,0,0,1.278-1.139l1.214.945A4.881,4.881,0,0,1,168.04,49.215Zm-.247-10.42a2.651,2.651,0,0,0-2.02.875,4.255,4.255,0,0,0-1.01,2.455h5.822v-.15a3.785,3.785,0,0,0-.816-2.347A2.5,2.5,0,0,0,167.793,38.795Zm12.7.365a5.955,5.955,0,0,0-.978-.075,2.619,2.619,0,0,0-2.653,1.665V49h-1.987V37.377h1.934l.032,1.343a3.094,3.094,0,0,1,2.771-1.558,2.03,2.03,0,0,1,.881.15Zm7.444,0a5.955,5.955,0,0,0-.978-.075A2.619,2.619,0,0,0,184.3,40.75V49h-1.987V37.377h1.934l.032,1.343a3.094,3.094,0,0,1,2.771-1.558,2.03,2.03,0,0,1,.881.15ZM196.507,49a4.175,4.175,0,0,1-.279-1.225,4.434,4.434,0,0,1-3.309,1.439,4.1,4.1,0,0,1-2.82-.972,3.145,3.145,0,0,1-1.1-2.465,3.286,3.286,0,0,1,1.38-2.82,6.508,6.508,0,0,1,3.883-1H196.2V41.04a2.232,2.232,0,0,0-.623-1.66,2.5,2.5,0,0,0-1.837-.618,2.9,2.9,0,0,0-1.783.537,1.583,1.583,0,0,0-.72,1.3h-2a2.743,2.743,0,0,1,.618-1.681,4.216,4.216,0,0,1,1.676-1.284,5.638,5.638,0,0,1,2.326-.473,4.6,4.6,0,0,1,3.147,1,3.623,3.623,0,0,1,1.182,2.766v5.35a6.54,6.54,0,0,0,.408,2.546V49Zm-3.3-1.515A3.493,3.493,0,0,0,194.981,47a2.924,2.924,0,0,0,1.214-1.257V43.36h-1.558q-3.652,0-3.652,2.138a1.809,1.809,0,0,0,.623,1.461A2.4,2.4,0,0,0,193.209,47.485Zm17.177-7.229h-8.959V38.526h8.959Zm0,4.458h-8.959V43h8.959Zm10.4-2.589a4.862,4.862,0,0,1-1.488,1.192,4.036,4.036,0,0,1-1.9.451,4.167,4.167,0,0,1-2.358-.666,4.33,4.33,0,0,1-1.552-1.875,6.39,6.39,0,0,1-.548-2.669,6.511,6.511,0,0,1,.6-2.825,4.379,4.379,0,0,1,1.692-1.923,4.825,4.825,0,0,1,2.557-.666,4.368,4.368,0,0,1,3.658,1.735,7.567,7.567,0,0,1,1.337,4.732v.58q0,4.565-1.8,6.666a6.933,6.933,0,0,1-5.446,2.154h-.387V47.324h.419a5.471,5.471,0,0,0,3.781-1.281A5.5,5.5,0,0,0,220.784,42.125Zm-3.062,0a3.069,3.069,0,0,0,1.842-.612A3.609,3.609,0,0,0,220.795,40V39.2a5.469,5.469,0,0,0-.849-3.18,2.594,2.594,0,0,0-4.254-.22,4.143,4.143,0,0,0-.795,2.648,4.312,4.312,0,0,0,.768,2.637A2.432,2.432,0,0,0,217.723,42.125Zm8.046,5.833a1.244,1.244,0,0,1,.306-.859,1.167,1.167,0,0,1,.918-.344,1.2,1.2,0,0,1,.929.344,1.219,1.219,0,0,1,.317.859,1.153,1.153,0,0,1-.317.827,1.223,1.223,0,0,1-.929.333,1.1,1.1,0,0,1-1.225-1.16ZM240.8,37.441a3.632,3.632,0,0,1-.618,2.084,4.2,4.2,0,0,1-1.67,1.429,4.483,4.483,0,0,1,1.939,1.536,3.865,3.865,0,0,1,.714,2.288,4.087,4.087,0,0,1-1.37,3.233,6,6,0,0,1-7.219-.005,4.106,4.106,0,0,1-1.359-3.228,3.981,3.981,0,0,1,.693-2.288,4.312,4.312,0,0,1,1.917-1.547,4.1,4.1,0,0,1-1.644-1.429,3.684,3.684,0,0,1-.6-2.073,4.043,4.043,0,0,1,1.268-3.137,5.383,5.383,0,0,1,6.676,0A4.034,4.034,0,0,1,240.8,37.441Zm-1.622,7.294a2.883,2.883,0,0,0-.833-2.138,2.952,2.952,0,0,0-2.175-.827,2.8,2.8,0,0,0-2.965,2.965,2.776,2.776,0,0,0,.79,2.095,3.528,3.528,0,0,0,4.388-.005A2.77,2.77,0,0,0,239.175,44.735Zm-2.986-9.958a2.564,2.564,0,0,0-1.9.725,3,3,0,0,0-.011,3.9,2.838,2.838,0,0,0,3.813,0,2.94,2.94,0,0,0-.027-3.873A2.528,2.528,0,0,0,236.188,34.777Zm7.369,3.7a1.244,1.244,0,0,1,.306-.859,1.167,1.167,0,0,1,.918-.344,1.2,1.2,0,0,1,.929.344,1.219,1.219,0,0,1,.317.859,1.153,1.153,0,0,1-.317.827,1.223,1.223,0,0,1-.929.333,1.1,1.1,0,0,1-1.225-1.16Zm.376,13.643-1.128-.773a5.184,5.184,0,0,0,1.053-2.9V46.647H245.8v1.558a4.893,4.893,0,0,1-.532,2.17A5.08,5.08,0,0,1,243.934,52.115ZM5.339,72.3l2.879-8.927h2.03L6.08,75H4.565L.354,63.377h2.03ZM19.175,75a4.175,4.175,0,0,1-.279-1.225,4.434,4.434,0,0,1-3.309,1.439,4.1,4.1,0,0,1-2.82-.972,3.145,3.145,0,0,1-1.1-2.465,3.286,3.286,0,0,1,1.38-2.82,6.508,6.508,0,0,1,3.883-1h1.934V67.04a2.232,2.232,0,0,0-.623-1.66,2.5,2.5,0,0,0-1.837-.618,2.9,2.9,0,0,0-1.783.537,1.583,1.583,0,0,0-.72,1.3h-2a2.743,2.743,0,0,1,.618-1.681A4.216,4.216,0,0,1,14.2,63.635a5.638,5.638,0,0,1,2.326-.473,4.6,4.6,0,0,1,3.147,1,3.623,3.623,0,0,1,1.182,2.766v5.35a6.54,6.54,0,0,0,.408,2.546V75Zm-3.3-1.515A3.493,3.493,0,0,0,17.649,73a2.924,2.924,0,0,0,1.214-1.257V69.36H17.306q-3.652,0-3.652,2.138a1.809,1.809,0,0,0,.623,1.461A2.4,2.4,0,0,0,15.877,73.485ZM29.584,65.16a5.955,5.955,0,0,0-.978-.075,2.619,2.619,0,0,0-2.653,1.665V75H23.966V63.377H25.9l.032,1.343A3.094,3.094,0,0,1,28.7,63.162a2.03,2.03,0,0,1,.881.15Zm12.891,0a5.955,5.955,0,0,0-.978-.075,2.619,2.619,0,0,0-2.653,1.665V75H36.856V63.377H38.79l.032,1.343a3.094,3.094,0,0,1,2.771-1.558,2.03,2.03,0,0,1,.881.15Zm6.649,10.055a5.078,5.078,0,0,1-3.846-1.552A5.761,5.761,0,0,1,43.8,69.511v-.365a6.975,6.975,0,0,1,.661-3.088A5.154,5.154,0,0,1,46.3,63.93a4.645,4.645,0,0,1,2.573-.768A4.353,4.353,0,0,1,52.4,64.655a6.465,6.465,0,0,1,1.257,4.275v.827H45.783a4.132,4.132,0,0,0,1,2.777,3.157,3.157,0,0,0,2.444,1.058,3.461,3.461,0,0,0,1.783-.43,4.48,4.48,0,0,0,1.278-1.139l1.214.945A4.881,4.881,0,0,1,49.124,75.215Zm-.247-10.42a2.651,2.651,0,0,0-2.02.875,4.255,4.255,0,0,0-1.01,2.455H51.67v-.15a3.785,3.785,0,0,0-.816-2.347A2.5,2.5,0,0,0,48.877,64.795Zm13.847,7.122a1.463,1.463,0,0,0-.607-1.251A5.842,5.842,0,0,0,60,69.9a10.005,10.005,0,0,1-2.4-.773,3.408,3.408,0,0,1-1.311-1.074,2.57,2.57,0,0,1-.424-1.482,3.015,3.015,0,0,1,1.208-2.417,4.72,4.72,0,0,1,3.088-.988,4.857,4.857,0,0,1,3.207,1.021,3.241,3.241,0,0,1,1.23,2.61h-2a1.794,1.794,0,0,0-.693-1.407,2.6,2.6,0,0,0-1.746-.591,2.717,2.717,0,0,0-1.7.473,1.488,1.488,0,0,0-.612,1.235,1.205,1.205,0,0,0,.569,1.085,7,7,0,0,0,2.057.7,10.719,10.719,0,0,1,2.412.795,3.518,3.518,0,0,1,1.37,1.112,2.734,2.734,0,0,1,.446,1.584,2.975,2.975,0,0,1-1.246,2.5,5.227,5.227,0,0,1-3.233.94,5.853,5.853,0,0,1-2.471-.494,4.018,4.018,0,0,1-1.681-1.38,3.327,3.327,0,0,1-.607-1.917H57.46a2.058,2.058,0,0,0,.8,1.584,3.1,3.1,0,0,0,1.971.585,3.2,3.2,0,0,0,1.81-.457A1.4,1.4,0,0,0,62.724,71.917Zm11.752,1.934a4.221,4.221,0,0,1-3.405,1.364,3.613,3.613,0,0,1-2.831-1.08,4.673,4.673,0,0,1-.983-3.2V63.377h1.987v7.509q0,2.643,2.148,2.643a2.975,2.975,0,0,0,3.029-1.7V63.377h1.987V75H74.519ZM81.587,75H79.6V58.5h1.987Zm5.876-14.437v2.814h2.17v1.536h-2.17V72.13a1.613,1.613,0,0,0,.29,1.049,1.221,1.221,0,0,0,.988.35,4.811,4.811,0,0,0,.945-.129V75a5.8,5.8,0,0,1-1.525.214,2.475,2.475,0,0,1-2.009-.806,3.461,3.461,0,0,1-.677-2.288V64.913H83.359V63.377h2.116V60.563ZM99.129,75a4.175,4.175,0,0,1-.279-1.225,4.434,4.434,0,0,1-3.309,1.439,4.1,4.1,0,0,1-2.82-.972,3.145,3.145,0,0,1-1.1-2.465A3.286,3.286,0,0,1,93,68.958a6.508,6.508,0,0,1,3.883-1h1.934V67.04a2.232,2.232,0,0,0-.623-1.66,2.5,2.5,0,0,0-1.837-.618,2.9,2.9,0,0,0-1.783.537,1.583,1.583,0,0,0-.72,1.3h-2a2.743,2.743,0,0,1,.618-1.681,4.216,4.216,0,0,1,1.676-1.284,5.638,5.638,0,0,1,2.326-.473,4.6,4.6,0,0,1,3.147,1,3.623,3.623,0,0,1,1.182,2.766v5.35a6.54,6.54,0,0,0,.408,2.546V75Zm-3.3-1.515A3.493,3.493,0,0,0,97.6,73a2.924,2.924,0,0,0,1.214-1.257V69.36H97.26q-3.652,0-3.652,2.138a1.809,1.809,0,0,0,.623,1.461A2.4,2.4,0,0,0,95.831,73.485Zm7.605-4.394a6.809,6.809,0,0,1,1.268-4.3,4.313,4.313,0,0,1,6.553-.231V58.5h1.987V75h-1.826l-.1-1.246A4.047,4.047,0,0,1,108,75.215a3.97,3.97,0,0,1-3.292-1.654,6.886,6.886,0,0,1-1.273-4.318Zm1.987.226a5.155,5.155,0,0,0,.816,3.094,2.639,2.639,0,0,0,2.256,1.117,2.9,2.9,0,0,0,2.761-1.7V66.492a2.921,2.921,0,0,0-2.739-1.644,2.652,2.652,0,0,0-2.277,1.128A5.676,5.676,0,0,0,105.424,69.317Zm10.377-.236a6.865,6.865,0,0,1,.671-3.072,5.008,5.008,0,0,1,1.869-2.105,5.088,5.088,0,0,1,2.734-.741,4.9,4.9,0,0,1,3.84,1.644,6.323,6.323,0,0,1,1.466,4.372v.14a6.925,6.925,0,0,1-.65,3.045,4.935,4.935,0,0,1-1.858,2.1,5.146,5.146,0,0,1-2.777.752,4.889,4.889,0,0,1-3.83-1.644,6.291,6.291,0,0,1-1.466-4.351Zm2,.236a4.972,4.972,0,0,0,.9,3.1,3.04,3.04,0,0,0,4.807-.016,5.437,5.437,0,0,0,.892-3.325,4.964,4.964,0,0,0-.908-3.1,2.886,2.886,0,0,0-2.412-1.187,2.854,2.854,0,0,0-2.374,1.171A5.4,5.4,0,0,0,117.8,69.317Zm25.609-3.062h-8.959V64.526h8.959Zm0,4.458h-8.959V69h8.959ZM3.384,89.377l.064,1.461a4.236,4.236,0,0,1,3.48-1.676q3.685,0,3.717,4.157V101H8.658V93.309a2.676,2.676,0,0,0-.575-1.858,2.3,2.3,0,0,0-1.756-.6,2.868,2.868,0,0,0-1.7.516,3.5,3.5,0,0,0-1.139,1.354V101H1.5V89.377Zm9.732,5.7a6.865,6.865,0,0,1,.671-3.072A5.008,5.008,0,0,1,15.657,89.9a5.088,5.088,0,0,1,2.734-.741,4.9,4.9,0,0,1,3.84,1.644A6.323,6.323,0,0,1,23.7,95.178v.14a6.925,6.925,0,0,1-.65,3.045,4.935,4.935,0,0,1-1.858,2.1,5.146,5.146,0,0,1-2.777.752,4.889,4.889,0,0,1-3.83-1.644,6.291,6.291,0,0,1-1.466-4.351Zm2,.236a4.972,4.972,0,0,0,.9,3.1,3.04,3.04,0,0,0,4.807-.016,5.437,5.437,0,0,0,.892-3.325,4.964,4.964,0,0,0-.908-3.1,2.886,2.886,0,0,0-2.412-1.187,2.854,2.854,0,0,0-2.374,1.171A5.4,5.4,0,0,0,15.114,95.317Zm12.944-5.94.054,1.289a4.292,4.292,0,0,1,3.448-1.5,3.323,3.323,0,0,1,3.319,1.869,4.4,4.4,0,0,1,1.509-1.354,4.458,4.458,0,0,1,2.2-.516q3.824,0,3.889,4.05V101H40.487V93.33a2.669,2.669,0,0,0-.569-1.864,2.507,2.507,0,0,0-1.912-.618,2.635,2.635,0,0,0-1.837.661,2.68,2.68,0,0,0-.849,1.778V101h-2V93.384a2.217,2.217,0,0,0-2.481-2.535,2.659,2.659,0,0,0-2.675,1.665V101H26.179V89.377Zm27.253,5.94A6.911,6.911,0,0,1,54.087,99.6a3.913,3.913,0,0,1-3.287,1.617,4.052,4.052,0,0,1-3.405-1.558L47.3,101H45.472V84.5h1.987v6.155a4.029,4.029,0,0,1,3.319-1.493,3.937,3.937,0,0,1,3.325,1.6,7.118,7.118,0,0,1,1.208,4.383Zm-1.987-.226a5.37,5.37,0,0,0-.784-3.137,2.6,2.6,0,0,0-2.256-1.106,2.918,2.918,0,0,0-2.825,1.826V97.7a3,3,0,0,0,2.847,1.826,2.582,2.582,0,0,0,2.224-1.106A5.711,5.711,0,0,0,53.324,95.092ZM63.433,91.16a5.955,5.955,0,0,0-.978-.075A2.619,2.619,0,0,0,59.8,92.75V101H57.814V89.377h1.934l.032,1.343a3.094,3.094,0,0,1,2.771-1.558,2.03,2.03,0,0,1,.881.15Zm6.649,10.055a5.078,5.078,0,0,1-3.846-1.552,5.761,5.761,0,0,1-1.482-4.152v-.365a6.975,6.975,0,0,1,.661-3.088,5.154,5.154,0,0,1,1.848-2.127,4.645,4.645,0,0,1,2.573-.768,4.353,4.353,0,0,1,3.523,1.493,6.465,6.465,0,0,1,1.257,4.275v.827H66.741a4.132,4.132,0,0,0,1,2.777,3.157,3.157,0,0,0,2.444,1.058,3.461,3.461,0,0,0,1.783-.43,4.481,4.481,0,0,0,1.278-1.139l1.214.945A4.881,4.881,0,0,1,70.082,101.215Zm-.247-10.42a2.651,2.651,0,0,0-2.02.875,4.255,4.255,0,0,0-1.01,2.455h5.822v-.15a3.785,3.785,0,0,0-.816-2.347A2.5,2.5,0,0,0,69.835,90.795ZM82.4,98.261l4.469-12.9h2.256L83.327,101H81.5l-5.79-15.641h2.245ZM97.593,101a4.175,4.175,0,0,1-.279-1.225A4.434,4.434,0,0,1,94,101.215a4.1,4.1,0,0,1-2.82-.972,3.145,3.145,0,0,1-1.1-2.465,3.286,3.286,0,0,1,1.38-2.82,6.508,6.508,0,0,1,3.883-1h1.934V93.04a2.232,2.232,0,0,0-.623-1.66,2.5,2.5,0,0,0-1.837-.618,2.9,2.9,0,0,0-1.783.537,1.583,1.583,0,0,0-.72,1.3h-2a2.743,2.743,0,0,1,.618-1.681,4.216,4.216,0,0,1,1.676-1.284,5.638,5.638,0,0,1,2.326-.473,4.6,4.6,0,0,1,3.147,1,3.623,3.623,0,0,1,1.182,2.766v5.35a6.54,6.54,0,0,0,.408,2.546V101Zm-3.3-1.515A3.493,3.493,0,0,0,96.067,99a2.924,2.924,0,0,0,1.214-1.257V95.36H95.724q-3.652,0-3.652,2.138a1.809,1.809,0,0,0,.623,1.461A2.4,2.4,0,0,0,94.295,99.485ZM108,91.16a5.955,5.955,0,0,0-.978-.075,2.619,2.619,0,0,0-2.653,1.665V101h-1.987V89.377h1.934l.032,1.343a3.094,3.094,0,0,1,2.771-1.558,2.03,2.03,0,0,1,.881.15Zm3.985,9.84H110V89.377h1.987Zm-2.148-14.706a1.186,1.186,0,0,1,.3-.816,1.109,1.109,0,0,1,.875-.333,1.126,1.126,0,0,1,.881.333,1.174,1.174,0,0,1,.3.816,1.135,1.135,0,0,1-.3.806,1.147,1.147,0,0,1-.881.322,1.129,1.129,0,0,1-.875-.322A1.147,1.147,0,0,1,109.839,86.294ZM122.343,101a4.175,4.175,0,0,1-.279-1.225,4.434,4.434,0,0,1-3.309,1.439,4.1,4.1,0,0,1-2.82-.972,3.145,3.145,0,0,1-1.1-2.465,3.286,3.286,0,0,1,1.38-2.82,6.508,6.508,0,0,1,3.883-1h1.934V93.04a2.232,2.232,0,0,0-.623-1.66,2.5,2.5,0,0,0-1.837-.618,2.9,2.9,0,0,0-1.783.537,1.583,1.583,0,0,0-.72,1.3h-2a2.743,2.743,0,0,1,.618-1.681,4.216,4.216,0,0,1,1.676-1.284,5.638,5.638,0,0,1,2.326-.473,4.6,4.6,0,0,1,3.147,1,3.623,3.623,0,0,1,1.182,2.766v5.35a6.54,6.54,0,0,0,.408,2.546V101Zm-3.3-1.515A3.493,3.493,0,0,0,120.817,99a2.924,2.924,0,0,0,1.214-1.257V95.36h-1.558q-3.652,0-3.652,2.138a1.809,1.809,0,0,0,.623,1.461A2.4,2.4,0,0,0,119.045,99.485Zm17.929-4.168a6.911,6.911,0,0,1-1.225,4.281,3.913,3.913,0,0,1-3.287,1.617,4.052,4.052,0,0,1-3.405-1.558l-.1,1.343h-1.826V84.5h1.987v6.155a4.029,4.029,0,0,1,3.319-1.493,3.937,3.937,0,0,1,3.325,1.6,7.118,7.118,0,0,1,1.208,4.383Zm-1.987-.226a5.37,5.37,0,0,0-.784-3.137,2.6,2.6,0,0,0-2.256-1.106,2.918,2.918,0,0,0-2.825,1.826V97.7a3,3,0,0,0,2.847,1.826,2.582,2.582,0,0,0,2.224-1.106A5.711,5.711,0,0,0,134.986,95.092ZM141.636,101h-1.987V84.5h1.987Zm8,.215a5.078,5.078,0,0,1-3.846-1.552,5.761,5.761,0,0,1-1.482-4.152v-.365a6.975,6.975,0,0,1,.661-3.088,5.154,5.154,0,0,1,1.848-2.127,4.645,4.645,0,0,1,2.573-.768,4.353,4.353,0,0,1,3.523,1.493,6.465,6.465,0,0,1,1.257,4.275v.827H146.3a4.132,4.132,0,0,0,1,2.777,3.157,3.157,0,0,0,2.444,1.058,3.461,3.461,0,0,0,1.783-.43,4.48,4.48,0,0,0,1.278-1.139l1.214.945A4.881,4.881,0,0,1,149.639,101.215Zm-.247-10.42a2.651,2.651,0,0,0-2.02.875,4.255,4.255,0,0,0-1.01,2.455h5.822v-.15a3.785,3.785,0,0,0-.816-2.347A2.5,2.5,0,0,0,149.392,90.795Zm11.215,4.372h-5.242V93.545h5.242ZM1.031,121.092a6.831,6.831,0,0,1,1.257-4.324,4.019,4.019,0,0,1,3.33-1.606,4,4,0,0,1,3.319,1.5l.1-1.289H10.85v11.344a4.728,4.728,0,0,1-1.337,3.556,4.935,4.935,0,0,1-3.593,1.3,5.978,5.978,0,0,1-2.46-.537,4.235,4.235,0,0,1-1.837-1.472l1.031-1.192a3.886,3.886,0,0,0,3.126,1.579,3.045,3.045,0,0,0,2.261-.816,3.12,3.12,0,0,0,.811-2.3v-1A4.085,4.085,0,0,1,5.6,127.215a3.97,3.97,0,0,1-3.3-1.644A7.182,7.182,0,0,1,1.031,121.092Zm2,.226a5.211,5.211,0,0,0,.806,3.088,2.618,2.618,0,0,0,2.256,1.123,2.911,2.911,0,0,0,2.761-1.708v-5.307a2.945,2.945,0,0,0-2.739-1.665,2.641,2.641,0,0,0-2.267,1.128A5.676,5.676,0,0,0,3.029,121.317Zm16.436-4.157a5.955,5.955,0,0,0-.978-.075,2.619,2.619,0,0,0-2.653,1.665V127H13.847V115.377H15.78l.032,1.343a3.094,3.094,0,0,1,2.771-1.558,2.03,2.03,0,0,1,.881.15ZM28.037,127a4.175,4.175,0,0,1-.279-1.225,4.434,4.434,0,0,1-3.309,1.439,4.1,4.1,0,0,1-2.82-.972,3.145,3.145,0,0,1-1.1-2.465,3.286,3.286,0,0,1,1.38-2.82,6.508,6.508,0,0,1,3.883-1h1.934v-.913a2.232,2.232,0,0,0-.623-1.66,2.5,2.5,0,0,0-1.837-.618,2.9,2.9,0,0,0-1.783.537,1.583,1.583,0,0,0-.72,1.3h-2a2.743,2.743,0,0,1,.618-1.681,4.216,4.216,0,0,1,1.676-1.284,5.638,5.638,0,0,1,2.326-.473,4.6,4.6,0,0,1,3.147,1,3.623,3.623,0,0,1,1.182,2.766v5.35a6.54,6.54,0,0,0,.408,2.546V127Zm-3.3-1.515A3.493,3.493,0,0,0,26.512,125a2.924,2.924,0,0,0,1.214-1.257V121.36H26.168q-3.652,0-3.652,2.138a1.809,1.809,0,0,0,.623,1.461A2.4,2.4,0,0,0,24.739,125.485ZM36.5,124.3l2.879-8.927h2.03L37.243,127H35.729l-4.211-11.623h2.03Zm11.645,2.911a5.078,5.078,0,0,1-3.846-1.552,5.761,5.761,0,0,1-1.482-4.152v-.365a6.975,6.975,0,0,1,.661-3.088,5.154,5.154,0,0,1,1.848-2.127,4.645,4.645,0,0,1,2.573-.768,4.353,4.353,0,0,1,3.523,1.493,6.465,6.465,0,0,1,1.257,4.275v.827H44.806a4.132,4.132,0,0,0,1,2.777,3.157,3.157,0,0,0,2.444,1.058,3.461,3.461,0,0,0,1.783-.43,4.48,4.48,0,0,0,1.278-1.139l1.214.945A4.881,4.881,0,0,1,48.146,127.215Zm-.247-10.42a2.651,2.651,0,0,0-2.02.875,4.255,4.255,0,0,0-1.01,2.455h5.822v-.15a3.785,3.785,0,0,0-.816-2.347A2.5,2.5,0,0,0,47.9,116.795Zm6.6,4.3a6.809,6.809,0,0,1,1.268-4.3,4.313,4.313,0,0,1,6.553-.231V110.5H64.3V127H62.477l-.1-1.246a4.047,4.047,0,0,1-3.319,1.461,3.97,3.97,0,0,1-3.292-1.654,6.886,6.886,0,0,1-1.273-4.318Zm1.987.226a5.155,5.155,0,0,0,.816,3.094,2.639,2.639,0,0,0,2.256,1.117,2.9,2.9,0,0,0,2.761-1.7v-5.339a2.921,2.921,0,0,0-2.739-1.644,2.652,2.652,0,0,0-2.277,1.128A5.676,5.676,0,0,0,56.482,121.317ZM74.562,127a4.175,4.175,0,0,1-.279-1.225,4.434,4.434,0,0,1-3.309,1.439,4.1,4.1,0,0,1-2.82-.972,3.145,3.145,0,0,1-1.1-2.465,3.286,3.286,0,0,1,1.38-2.82,6.508,6.508,0,0,1,3.883-1H74.25v-.913a2.232,2.232,0,0,0-.623-1.66,2.5,2.5,0,0,0-1.837-.618,2.9,2.9,0,0,0-1.783.537,1.583,1.583,0,0,0-.72,1.3h-2a2.743,2.743,0,0,1,.618-1.681,4.216,4.216,0,0,1,1.676-1.284,5.638,5.638,0,0,1,2.326-.473,4.6,4.6,0,0,1,3.147,1,3.623,3.623,0,0,1,1.182,2.766v5.35a6.54,6.54,0,0,0,.408,2.546V127Zm-3.3-1.515A3.493,3.493,0,0,0,73.036,125a2.924,2.924,0,0,0,1.214-1.257V121.36H72.692q-3.652,0-3.652,2.138a1.809,1.809,0,0,0,.623,1.461A2.4,2.4,0,0,0,71.264,125.485Zm7.605-4.394a6.809,6.809,0,0,1,1.268-4.3,4.313,4.313,0,0,1,6.553-.231V110.5h1.987V127H86.851l-.1-1.246a4.047,4.047,0,0,1-3.319,1.461,3.97,3.97,0,0,1-3.292-1.654,6.886,6.886,0,0,1-1.273-4.318Zm1.987.226a5.155,5.155,0,0,0,.816,3.094,2.639,2.639,0,0,0,2.256,1.117,2.9,2.9,0,0,0,2.761-1.7v-5.339a2.921,2.921,0,0,0-2.739-1.644,2.652,2.652,0,0,0-2.277,1.128A5.676,5.676,0,0,0,80.856,121.317Zm22.021-8.271H97.851V127H95.8V113.046H90.782v-1.687h12.1ZM107.046,127h-1.987V115.377h1.987ZM104.9,112.294a1.186,1.186,0,0,1,.3-.816,1.109,1.109,0,0,1,.875-.333,1.126,1.126,0,0,1,.881.333,1.174,1.174,0,0,1,.3.816,1.135,1.135,0,0,1-.3.806,1.147,1.147,0,0,1-.881.322,1.129,1.129,0,0,1-.875-.322A1.147,1.147,0,0,1,104.9,112.294Zm10.151,14.921a5.078,5.078,0,0,1-3.846-1.552,5.761,5.761,0,0,1-1.482-4.152v-.365a6.975,6.975,0,0,1,.661-3.088,5.154,5.154,0,0,1,1.848-2.127,4.645,4.645,0,0,1,2.573-.768,4.353,4.353,0,0,1,3.523,1.493,6.465,6.465,0,0,1,1.257,4.275v.827h-7.874a4.132,4.132,0,0,0,1,2.777,3.157,3.157,0,0,0,2.444,1.058,3.461,3.461,0,0,0,1.783-.43,4.481,4.481,0,0,0,1.278-1.139l1.214.945A4.881,4.881,0,0,1,115.049,127.215Zm-.247-10.42a2.651,2.651,0,0,0-2.02.875,4.255,4.255,0,0,0-1.01,2.455h5.822v-.15a3.785,3.785,0,0,0-.816-2.347A2.5,2.5,0,0,0,114.8,116.795Zm12.7.365a5.955,5.955,0,0,0-.978-.075,2.619,2.619,0,0,0-2.653,1.665V127h-1.987V115.377h1.934l.032,1.343a3.094,3.094,0,0,1,2.771-1.558,2.03,2.03,0,0,1,.881.15Zm7.444,0a5.955,5.955,0,0,0-.978-.075,2.619,2.619,0,0,0-2.653,1.665V127h-1.987V115.377h1.934l.032,1.343a3.094,3.094,0,0,1,2.771-1.558,2.03,2.03,0,0,1,.881.15Zm8.572,9.84a4.175,4.175,0,0,1-.279-1.225,4.434,4.434,0,0,1-3.309,1.439,4.1,4.1,0,0,1-2.82-.972,3.145,3.145,0,0,1-1.1-2.465,3.286,3.286,0,0,1,1.38-2.82,6.508,6.508,0,0,1,3.883-1H143.2v-.913a2.232,2.232,0,0,0-.623-1.66,2.5,2.5,0,0,0-1.837-.618,2.9,2.9,0,0,0-1.783.537,1.583,1.583,0,0,0-.72,1.3h-2a2.743,2.743,0,0,1,.618-1.681,4.216,4.216,0,0,1,1.676-1.284,5.638,5.638,0,0,1,2.326-.473,4.6,4.6,0,0,1,3.147,1,3.623,3.623,0,0,1,1.182,2.766v5.35a6.54,6.54,0,0,0,.408,2.546V127Zm-3.3-1.515A3.493,3.493,0,0,0,141.99,125a2.924,2.924,0,0,0,1.214-1.257V121.36h-1.558q-3.652,0-3.652,2.138a1.809,1.809,0,0,0,.623,1.461A2.4,2.4,0,0,0,140.218,125.485ZM148,116.473a1.244,1.244,0,0,1,.306-.859,1.167,1.167,0,0,1,.918-.344,1.2,1.2,0,0,1,.929.344,1.219,1.219,0,0,1,.317.859,1.153,1.153,0,0,1-.317.827,1.223,1.223,0,0,1-.929.333,1.1,1.1,0,0,1-1.225-1.16Zm.376,13.643-1.128-.773a5.184,5.184,0,0,0,1.053-2.9v-1.794h1.944v1.558a4.893,4.893,0,0,1-.532,2.17A5.08,5.08,0,0,1,148.371,130.115Z" transform="translate(106.225 -7514.958)" fill="#fff"/>
    <g transform="matrix(1, 0, 0, 1, 78, -7573.28)" filter="url(#Trazado_655380)">
      <path id="Trazado_655380-2" data-name="Trazado 655380" d="M5,0H310a5,5,0,0,1,5,5V30.138H1a1,1,0,0,1-1-1V5A5,5,0,0,1,5,0Z" transform="translate(9 6)" fill="url(#linear-gradient)"/>
    </g>
    <path id="Trazado_654862" data-name="Trazado 654862" d="M367.33,159.913a5.453,5.453,0,1,1-5.452-5.454A5.452,5.452,0,0,1,367.33,159.913Z" transform="translate(-219.163 -7712.5)" fill="#fff"/>
    <path id="Trazado_654863" data-name="Trazado 654863" d="M367.33,159.913a5.453,5.453,0,1,1-5.452-5.454A5.452,5.452,0,0,1,367.33,159.913Z" transform="translate(-240.929 -7712.5)" fill="#ffa726"/>
    <path id="Trazado_654864" data-name="Trazado 654864" d="M377.147,159.913a5.454,5.454,0,1,1-5.454-5.454A5.454,5.454,0,0,1,377.147,159.913Z" transform="translate(-207.21 -7712.5)" fill="#26a69a"/>
  </g>
</svg>
