<svg xmlns="http://www.w3.org/2000/svg" xmlns:xlink="http://www.w3.org/1999/xlink" width="255.055" height="192.379" viewBox="0 0 255.055 192.379">
  <defs>
    <filter id="Rectángulo_36033" x="0" y="20.379" width="255.055" height="172" filterUnits="userSpaceOnUse">
      <feOffset dy="3" input="SourceAlpha"/>
      <feGaussianBlur stdDeviation="3" result="blur"/>
      <feFlood flood-opacity="0.161"/>
      <feComposite operator="in" in2="blur"/>
      <feComposite in="SourceGraphic"/>
    </filter>
    <linearGradient id="linear-gradient" x1="0.5" x2="0.5" y2="1" gradientUnits="objectBoundingBox">
      <stop offset="0" stop-color="#f5f5f5"/>
      <stop offset="0.25" stop-color="#f5f5f5"/>
      <stop offset="1" stop-color="#a7b3cf"/>
    </linearGradient>
    <filter id="Rectángulo_342638" x="0" y="0" width="255.055" height="38.379" filterUnits="userSpaceOnUse">
      <feOffset dy="3" input="SourceAlpha"/>
      <feGaussianBlur stdDeviation="3" result="blur-2"/>
      <feFlood flood-opacity="0.161"/>
      <feComposite operator="in" in2="blur-2"/>
      <feComposite in="SourceGraphic"/>
    </filter>
  </defs>
  <g id="Grupo_981171" data-name="Grupo 981171" transform="translate(271 6643.461)">
    <g id="Grupo_980640" data-name="Grupo 980640" transform="translate(-1387 -10305.082)">
      <g transform="matrix(1, 0, 0, 1, 1116, 3661.62)" filter="url(#Rectángulo_36033)">
        <rect id="Rectángulo_36033-2" data-name="Rectángulo 36033" width="237.055" height="154" transform="translate(9 26.38)" fill="#12263f"/>
      </g>
      <text id="var_formatoEntero_45_var_formatoFloat_7845.123_var_formatoHexadecimal_0xF34_var_formatoOctal_0568_" data-name="var formatoEntero=45;
var formatoFloat=7845.123;
var formatoHexadecimal=0xF34;
var formatoOctal=0568;
" transform="translate(1138 3709)" fill="#fff" font-size="16" font-family="Roboto-Regular, Roboto"><tspan x="0" y="17">var formatoEntero=45;</tspan><tspan x="0" y="41">var formatoFloat=7845.123;</tspan><tspan x="0" y="65">var </tspan><tspan x="0" y="89">formatoHexadecimal=0xF34;</tspan><tspan x="0" y="113">var formatoOctal=0568;</tspan><tspan x="0" y="137"></tspan></text>
      <g transform="matrix(1, 0, 0, 1, 1116, 3661.62)" filter="url(#Rectángulo_342638)">
        <path id="Rectángulo_342638-2" data-name="Rectángulo 342638" d="M5,0H232.055a5,5,0,0,1,5,5V20.379a0,0,0,0,1,0,0H1a1,1,0,0,1-1-1V5A5,5,0,0,1,5,0Z" transform="translate(9 6)" fill="url(#linear-gradient)"/>
      </g>
      <path id="Trazado_654862" data-name="Trazado 654862" d="M363.8,158.147a3.687,3.687,0,1,1-3.686-3.688A3.687,3.687,0,0,1,363.8,158.147Z" transform="translate(802.562 3519.409)" fill="#fff"/>
      <path id="Trazado_654863" data-name="Trazado 654863" d="M363.8,158.147a3.687,3.687,0,1,1-3.686-3.688A3.687,3.687,0,0,1,363.8,158.147Z" transform="translate(787.844 3519.409)" fill="#ffa726"/>
      <path id="Trazado_654864" data-name="Trazado 654864" d="M373.615,158.147a3.688,3.688,0,1,1-3.688-3.688A3.688,3.688,0,0,1,373.615,158.147Z" transform="translate(807.466 3519.409)" fill="#26a69a"/>
    </g>
  </g>
</svg>
