<svg xmlns="http://www.w3.org/2000/svg" width="945" height="626.596" viewBox="0 0 945 626.596">
  <g id="Grupo_981172" data-name="Grupo 981172" transform="translate(-313 -5141.564)">
    <path id="Trazado_655382" data-name="Trazado 655382" d="M0,0H820V77H0Z" transform="translate(438 5156.895)" fill="#d7d7d7"/>
    <path id="Trazado_655383" data-name="Trazado 655383" d="M0,0H820V54H0Z" transform="translate(438 5244.895)" fill="#ebebeb"/>
    <path id="Trazado_655384" data-name="Trazado 655384" d="M0,0H820V54H0Z" transform="translate(438 5693.895)" fill="#d7d7d7"/>
    <path id="Trazado_655385" data-name="Trazado 655385" d="M0,0H571V363H0Z" transform="translate(438 5316.895)" fill="#ebebeb"/>
    <path id="Trazado_655386" data-name="Trazado 655386" d="M0,0H232V363H0Z" transform="translate(1026 5316.895)" fill="#d7d7d7"/>
    <path id="Trazado_655387" data-name="Trazado 655387" d="M4.211-7.544,11.169-5.09v3.418L.659-6.128V-9.009l10.51-4.456v3.418Zm13.306-4.224a4.4,4.4,0,0,1,3.528-1.685q4.3,0,4.358,4.993V0H21.875V-8.362a2.454,2.454,0,0,0-.488-1.678,2.093,2.093,0,0,0-1.624-.543,2.4,2.4,0,0,0-2.246,1.2V0H13.989V-18.75h3.528ZM34.143.244a6.484,6.484,0,0,1-4.73-1.782,6.335,6.335,0,0,1-1.825-4.749v-.342a7.979,7.979,0,0,1,.769-3.558A5.644,5.644,0,0,1,30.536-12.6a6.116,6.116,0,0,1,3.217-.848,5.482,5.482,0,0,1,4.266,1.709A6.944,6.944,0,0,1,39.575-6.9v1.44H31.165A3.277,3.277,0,0,0,32.2-3.381a3.118,3.118,0,0,0,2.179.781,3.808,3.808,0,0,0,3.186-1.477l1.733,1.941A5.3,5.3,0,0,1,37.146-.385,7.049,7.049,0,0,1,34.143.244Zm-.4-10.852a2.2,2.2,0,0,0-1.7.711A3.682,3.682,0,0,0,31.2-7.861h4.907v-.282a2.626,2.626,0,0,0-.635-1.821A2.274,2.274,0,0,0,33.74-10.608ZM49.231,0a3.918,3.918,0,0,1-.354-1.184A4.269,4.269,0,0,1,45.544.244,4.69,4.69,0,0,1,42.328-.879a3.612,3.612,0,0,1-1.276-2.832,3.733,3.733,0,0,1,1.556-3.223,7.68,7.68,0,0,1,4.5-1.135H48.73v-.757a2.177,2.177,0,0,0-.47-1.465,1.849,1.849,0,0,0-1.483-.549,2.1,2.1,0,0,0-1.4.427,1.451,1.451,0,0,0-.507,1.172H41.345a3.544,3.544,0,0,1,.708-2.124,4.68,4.68,0,0,1,2-1.532,7.3,7.3,0,0,1,2.905-.555,5.764,5.764,0,0,1,3.876,1.227,4.292,4.292,0,0,1,1.434,3.448v5.725A6.314,6.314,0,0,0,52.8-.208V0ZM46.313-2.454a3.038,3.038,0,0,0,1.44-.348,2.285,2.285,0,0,0,.977-.934V-6.006H47.412q-2.649,0-2.82,1.831l-.012.208a1.412,1.412,0,0,0,.464,1.086A1.8,1.8,0,0,0,46.313-2.454ZM54.431-6.7a7.96,7.96,0,0,1,1.385-4.919,4.5,4.5,0,0,1,3.79-1.831,4.045,4.045,0,0,1,3.186,1.44V-18.75h3.54V0H63.147l-.171-1.4A4.151,4.151,0,0,1,59.583.244a4.483,4.483,0,0,1-3.741-1.837A8.216,8.216,0,0,1,54.431-6.7Zm3.528.263a5.214,5.214,0,0,0,.647,2.849,2.108,2.108,0,0,0,1.88.99,2.361,2.361,0,0,0,2.307-1.381V-9.2a2.327,2.327,0,0,0-2.283-1.381Q57.959-10.583,57.959-6.439ZM75.146.244a6.484,6.484,0,0,1-4.73-1.782,6.335,6.335,0,0,1-1.825-4.749v-.342a7.979,7.979,0,0,1,.769-3.558A5.644,5.644,0,0,1,71.539-12.6a6.116,6.116,0,0,1,3.217-.848,5.482,5.482,0,0,1,4.266,1.709A6.944,6.944,0,0,1,80.579-6.9v1.44H72.168A3.277,3.277,0,0,0,73.2-3.381a3.118,3.118,0,0,0,2.179.781,3.808,3.808,0,0,0,3.186-1.477L80.3-2.136A5.3,5.3,0,0,1,78.149-.385,7.049,7.049,0,0,1,75.146.244Zm-.4-10.852a2.2,2.2,0,0,0-1.7.711A3.682,3.682,0,0,0,72.2-7.861h4.907v-.282a2.626,2.626,0,0,0-.635-1.821A2.274,2.274,0,0,0,74.744-10.608ZM90-9.9a9.584,9.584,0,0,0-1.27-.1,2.584,2.584,0,0,0-2.625,1.355V0H82.581V-13.208h3.333l.1,1.575a3.269,3.269,0,0,1,2.942-1.819,3.7,3.7,0,0,1,1.1.159Zm8.9,2.319-7.092-2.478v-3.394L102.441-9v2.869L91.809-1.66V-5.066Zm14.795.037,6.958,2.454v3.418l-10.51-4.456V-9.009l10.51-4.456v3.418Zm10.974,9.07h-2.625l6.543-19.3h2.625Zm11.67-13.293a4.4,4.4,0,0,1,3.528-1.685q4.3,0,4.358,4.993V0H140.7V-8.362a2.454,2.454,0,0,0-.488-1.678,2.093,2.093,0,0,0-1.624-.543,2.4,2.4,0,0,0-2.246,1.2V0h-3.528V-18.75h3.528ZM152.966.244a6.484,6.484,0,0,1-4.73-1.782,6.335,6.335,0,0,1-1.825-4.749v-.342a7.979,7.979,0,0,1,.769-3.558,5.644,5.644,0,0,1,2.179-2.417,6.116,6.116,0,0,1,3.217-.848,5.482,5.482,0,0,1,4.266,1.709A6.944,6.944,0,0,1,158.4-6.9v1.44h-8.411a3.277,3.277,0,0,0,1.031,2.075A3.118,3.118,0,0,0,153.2-2.6a3.808,3.808,0,0,0,3.186-1.477l1.733,1.941a5.3,5.3,0,0,1-2.148,1.752A7.049,7.049,0,0,1,152.966.244Zm-.4-10.852a2.2,2.2,0,0,0-1.7.711,3.683,3.683,0,0,0-.836,2.035h4.907v-.282a2.626,2.626,0,0,0-.635-1.821A2.274,2.274,0,0,0,152.563-10.608ZM168.054,0a3.917,3.917,0,0,1-.354-1.184A4.269,4.269,0,0,1,164.368.244a4.69,4.69,0,0,1-3.217-1.123,3.612,3.612,0,0,1-1.276-2.832,3.733,3.733,0,0,1,1.556-3.223,7.68,7.68,0,0,1,4.5-1.135h1.624v-.757a2.177,2.177,0,0,0-.47-1.465,1.849,1.849,0,0,0-1.483-.549,2.1,2.1,0,0,0-1.4.427,1.451,1.451,0,0,0-.507,1.172h-3.528a3.544,3.544,0,0,1,.708-2.124,4.68,4.68,0,0,1,2-1.532,7.3,7.3,0,0,1,2.905-.555,5.764,5.764,0,0,1,3.876,1.227,4.292,4.292,0,0,1,1.434,3.448v5.725a6.314,6.314,0,0,0,.525,2.844V0Zm-2.917-2.454a3.038,3.038,0,0,0,1.44-.348,2.285,2.285,0,0,0,.977-.934V-6.006h-1.318q-2.649,0-2.82,1.831l-.012.208a1.412,1.412,0,0,0,.464,1.086A1.8,1.8,0,0,0,165.137-2.454ZM173.254-6.7a7.96,7.96,0,0,1,1.385-4.919,4.5,4.5,0,0,1,3.79-1.831,4.045,4.045,0,0,1,3.186,1.44V-18.75h3.54V0H181.97L181.8-1.4A4.151,4.151,0,0,1,178.406.244a4.483,4.483,0,0,1-3.741-1.837A8.216,8.216,0,0,1,173.254-6.7Zm3.528.263a5.214,5.214,0,0,0,.647,2.849,2.108,2.108,0,0,0,1.88.99,2.361,2.361,0,0,0,2.307-1.381V-9.2a2.327,2.327,0,0,0-2.283-1.381Q176.782-10.583,176.782-6.439ZM193.97.244a6.484,6.484,0,0,1-4.73-1.782,6.335,6.335,0,0,1-1.825-4.749v-.342a7.979,7.979,0,0,1,.769-3.558,5.644,5.644,0,0,1,2.179-2.417,6.116,6.116,0,0,1,3.217-.848,5.482,5.482,0,0,1,4.266,1.709A6.944,6.944,0,0,1,199.4-6.9v1.44h-8.411a3.277,3.277,0,0,0,1.031,2.075A3.118,3.118,0,0,0,194.2-2.6a3.808,3.808,0,0,0,3.186-1.477l1.733,1.941a5.3,5.3,0,0,1-2.148,1.752A7.049,7.049,0,0,1,193.97.244Zm-.4-10.852a2.2,2.2,0,0,0-1.7.711,3.683,3.683,0,0,0-.836,2.035h4.907v-.282a2.626,2.626,0,0,0-.635-1.821A2.274,2.274,0,0,0,193.567-10.608Zm15.259.708a9.585,9.585,0,0,0-1.27-.1,2.584,2.584,0,0,0-2.625,1.355V0H201.4V-13.208h3.333l.1,1.575a3.269,3.269,0,0,1,2.942-1.819,3.7,3.7,0,0,1,1.1.159Zm8.9,2.319-7.092-2.478v-3.394L221.265-9v2.869L210.632-1.66V-5.066Z" transform="translate(737 5204.895)" fill="#12263f"/>
    <path id="Trazado_655388" data-name="Trazado 655388" d="M4.211-7.544,11.169-5.09v3.418L.659-6.128V-9.009l10.51-4.456v3.418ZM15.039,0V-10.62H13.074v-2.588h1.965v-1.123a4.56,4.56,0,0,1,1.276-3.448,4.94,4.94,0,0,1,3.571-1.227,8.247,8.247,0,0,1,1.794.244l-.037,2.734a4.5,4.5,0,0,0-1.074-.11q-1.99,0-1.99,1.868v1.062H21.2v2.588H18.579V0Zm7.446-6.726a7.833,7.833,0,0,1,.757-3.5,5.54,5.54,0,0,1,2.179-2.38,6.357,6.357,0,0,1,3.3-.842,6.014,6.014,0,0,1,4.364,1.636,6.565,6.565,0,0,1,1.886,4.443l.024.9a6.9,6.9,0,0,1-1.7,4.877A5.9,5.9,0,0,1,28.748.244a5.927,5.927,0,0,1-4.559-1.831,7.025,7.025,0,0,1-1.7-4.98Zm3.528.25A4.937,4.937,0,0,0,26.721-3.6a2.336,2.336,0,0,0,2.026,1,2.341,2.341,0,0,0,2-.984,5.4,5.4,0,0,0,.72-3.148,4.888,4.888,0,0,0-.72-2.861,2.341,2.341,0,0,0-2.026-1.015,2.3,2.3,0,0,0-2,1.009A5.493,5.493,0,0,0,26.013-6.476Zm10.608-.25a7.833,7.833,0,0,1,.757-3.5,5.54,5.54,0,0,1,2.179-2.38,6.357,6.357,0,0,1,3.3-.842,6.014,6.014,0,0,1,4.364,1.636,6.565,6.565,0,0,1,1.886,4.443l.024.9a6.9,6.9,0,0,1-1.7,4.877A5.9,5.9,0,0,1,42.883.244a5.927,5.927,0,0,1-4.559-1.831,7.025,7.025,0,0,1-1.7-4.98Zm3.528.25A4.937,4.937,0,0,0,40.857-3.6a2.336,2.336,0,0,0,2.026,1,2.341,2.341,0,0,0,2-.984,5.4,5.4,0,0,0,.72-3.148,4.888,4.888,0,0,0-.72-2.861,2.341,2.341,0,0,0-2.026-1.015,2.3,2.3,0,0,0-2,1.009A5.493,5.493,0,0,0,40.149-6.476ZM55.53-16.455v3.247h2.258v2.588H55.53v6.592a1.574,1.574,0,0,0,.281,1.05,1.41,1.41,0,0,0,1.074.317,5.626,5.626,0,0,0,1.038-.085V-.073a7.263,7.263,0,0,1-2.136.317Q52.075.244,52-3.5V-10.62H50.073v-2.588H52v-3.247Zm10.3,16.7A6.484,6.484,0,0,1,61.1-1.538a6.335,6.335,0,0,1-1.825-4.749v-.342a7.979,7.979,0,0,1,.769-3.558A5.644,5.644,0,0,1,62.225-12.6a6.116,6.116,0,0,1,3.217-.848,5.482,5.482,0,0,1,4.266,1.709A6.944,6.944,0,0,1,71.265-6.9v1.44H62.854a3.277,3.277,0,0,0,1.031,2.075,3.118,3.118,0,0,0,2.179.781A3.808,3.808,0,0,0,69.25-4.077l1.733,1.941A5.3,5.3,0,0,1,68.835-.385,7.049,7.049,0,0,1,65.833.244Zm-.4-10.852a2.2,2.2,0,0,0-1.7.711,3.682,3.682,0,0,0-.836,2.035H67.8v-.282a2.626,2.626,0,0,0-.635-1.821A2.274,2.274,0,0,0,65.43-10.608ZM80.688-9.9a9.584,9.584,0,0,0-1.27-.1,2.584,2.584,0,0,0-2.625,1.355V0H73.267V-13.208H76.6l.1,1.575a3.269,3.269,0,0,1,2.942-1.819,3.7,3.7,0,0,1,1.1.159Zm8.9,2.319L82.5-10.059v-3.394L93.127-9v2.869L82.5-1.66V-5.066Zm14.795.037L111.34-5.09v3.418L100.83-6.128V-9.009l10.51-4.456v3.418Zm10.974,9.07h-2.625l6.543-19.3H121.9ZM124.548,0V-10.62h-1.965v-2.588h1.965v-1.123a4.56,4.56,0,0,1,1.276-3.448,4.94,4.94,0,0,1,3.571-1.227,8.247,8.247,0,0,1,1.794.244l-.037,2.734a4.5,4.5,0,0,0-1.074-.11q-1.99,0-1.99,1.868v1.062h2.625v2.588h-2.625V0Zm7.446-6.726a7.833,7.833,0,0,1,.757-3.5,5.541,5.541,0,0,1,2.179-2.38,6.357,6.357,0,0,1,3.3-.842,6.014,6.014,0,0,1,4.364,1.636,6.565,6.565,0,0,1,1.886,4.443l.024.9a6.9,6.9,0,0,1-1.7,4.877A5.9,5.9,0,0,1,138.257.244,5.927,5.927,0,0,1,133.7-1.587a7.025,7.025,0,0,1-1.7-4.98Zm3.528.25A4.937,4.937,0,0,0,136.23-3.6a2.336,2.336,0,0,0,2.026,1,2.341,2.341,0,0,0,2-.984,5.4,5.4,0,0,0,.72-3.148,4.888,4.888,0,0,0-.72-2.861,2.341,2.341,0,0,0-2.026-1.015,2.3,2.3,0,0,0-2,1.009A5.493,5.493,0,0,0,135.522-6.476Zm10.608-.25a7.833,7.833,0,0,1,.757-3.5,5.541,5.541,0,0,1,2.179-2.38,6.357,6.357,0,0,1,3.3-.842,6.014,6.014,0,0,1,4.364,1.636,6.565,6.565,0,0,1,1.886,4.443l.024.9a6.9,6.9,0,0,1-1.7,4.877A5.9,5.9,0,0,1,152.393.244a5.927,5.927,0,0,1-4.559-1.831,7.025,7.025,0,0,1-1.7-4.98Zm3.528.25a4.937,4.937,0,0,0,.708,2.879,2.336,2.336,0,0,0,2.026,1,2.341,2.341,0,0,0,2-.984,5.4,5.4,0,0,0,.72-3.148,4.888,4.888,0,0,0-.72-2.861,2.341,2.341,0,0,0-2.026-1.015,2.3,2.3,0,0,0-2,1.009A5.493,5.493,0,0,0,149.658-6.476Zm15.381-9.979v3.247H167.3v2.588h-2.258v6.592a1.574,1.574,0,0,0,.281,1.05,1.41,1.41,0,0,0,1.074.317,5.626,5.626,0,0,0,1.038-.085V-.073A7.263,7.263,0,0,1,165.3.244q-3.711,0-3.784-3.748V-10.62h-1.929v-2.588h1.929v-3.247Zm10.3,16.7a6.484,6.484,0,0,1-4.73-1.782,6.335,6.335,0,0,1-1.825-4.749v-.342a7.979,7.979,0,0,1,.769-3.558,5.644,5.644,0,0,1,2.179-2.417,6.116,6.116,0,0,1,3.217-.848,5.482,5.482,0,0,1,4.266,1.709A6.944,6.944,0,0,1,180.774-6.9v1.44h-8.411a3.277,3.277,0,0,0,1.031,2.075,3.118,3.118,0,0,0,2.179.781,3.808,3.808,0,0,0,3.186-1.477l1.733,1.941a5.3,5.3,0,0,1-2.148,1.752A7.049,7.049,0,0,1,175.342.244Zm-.4-10.852a2.2,2.2,0,0,0-1.7.711,3.683,3.683,0,0,0-.836,2.035h4.907v-.282a2.626,2.626,0,0,0-.635-1.821A2.274,2.274,0,0,0,174.939-10.608ZM190.2-9.9a9.585,9.585,0,0,0-1.27-.1A2.584,2.584,0,0,0,186.3-8.643V0h-3.528V-13.208h3.333l.1,1.575a3.269,3.269,0,0,1,2.942-1.819,3.7,3.7,0,0,1,1.1.159Zm8.9,2.319L192-10.059v-3.394L202.637-9v2.869L192-1.66V-5.066Z" transform="translate(747 5728.895)" fill="#12263f"/>
    <path id="Trazado_655389" data-name="Trazado 655389" d="M4.211-7.544,11.169-5.09v3.418L.659-6.128V-9.009l10.51-4.456v3.418Zm13.11-5.664.11,1.526a4.611,4.611,0,0,1,3.8-1.77,3.832,3.832,0,0,1,3.125,1.233A5.752,5.752,0,0,1,25.4-8.533V0H21.875V-8.447a2.289,2.289,0,0,0-.488-1.63,2.186,2.186,0,0,0-1.624-.507,2.427,2.427,0,0,0-2.234,1.27V0H14V-13.208ZM35.73,0a3.918,3.918,0,0,1-.354-1.184A4.269,4.269,0,0,1,32.043.244,4.69,4.69,0,0,1,28.827-.879a3.612,3.612,0,0,1-1.276-2.832,3.733,3.733,0,0,1,1.556-3.223,7.68,7.68,0,0,1,4.5-1.135h1.624v-.757a2.177,2.177,0,0,0-.47-1.465,1.849,1.849,0,0,0-1.483-.549,2.1,2.1,0,0,0-1.4.427,1.451,1.451,0,0,0-.507,1.172H27.844a3.544,3.544,0,0,1,.708-2.124,4.68,4.68,0,0,1,2-1.532,7.3,7.3,0,0,1,2.905-.555,5.764,5.764,0,0,1,3.876,1.227A4.292,4.292,0,0,1,38.77-8.777v5.725a6.314,6.314,0,0,0,.525,2.844V0ZM32.813-2.454a3.038,3.038,0,0,0,1.44-.348,2.285,2.285,0,0,0,.977-.934V-6.006H33.911q-2.649,0-2.82,1.831l-.012.208a1.412,1.412,0,0,0,.464,1.086A1.8,1.8,0,0,0,32.813-2.454ZM46.24-4.309l2.454-8.9H52.38L47.925,0H44.556L40.1-13.208h3.687ZM61.133-7.581l-7.092-2.478v-3.394L64.673-9v2.869L54.041-1.66V-5.066Zm14.795.037L82.886-5.09v3.418L72.375-6.128V-9.009l10.51-4.456v3.418ZM86.9,1.526H84.277l6.543-19.3h2.625ZM98.376-13.208l.11,1.526a4.611,4.611,0,0,1,3.8-1.77,3.832,3.832,0,0,1,3.125,1.233,5.752,5.752,0,0,1,1.05,3.687V0H102.93V-8.447a2.289,2.289,0,0,0-.488-1.63,2.186,2.186,0,0,0-1.624-.507,2.427,2.427,0,0,0-2.234,1.27V0H95.056V-13.208ZM116.785,0a3.918,3.918,0,0,1-.354-1.184A4.269,4.269,0,0,1,113.1.244a4.69,4.69,0,0,1-3.217-1.123,3.612,3.612,0,0,1-1.276-2.832,3.733,3.733,0,0,1,1.556-3.223,7.68,7.68,0,0,1,4.5-1.135h1.624v-.757a2.177,2.177,0,0,0-.47-1.465,1.849,1.849,0,0,0-1.483-.549,2.1,2.1,0,0,0-1.4.427,1.451,1.451,0,0,0-.507,1.172H108.9a3.544,3.544,0,0,1,.708-2.124,4.68,4.68,0,0,1,2-1.532,7.3,7.3,0,0,1,2.905-.555,5.764,5.764,0,0,1,3.876,1.227,4.292,4.292,0,0,1,1.434,3.448v5.725a6.314,6.314,0,0,0,.525,2.844V0Zm-2.917-2.454a3.038,3.038,0,0,0,1.44-.348,2.285,2.285,0,0,0,.977-.934V-6.006h-1.318q-2.649,0-2.82,1.831l-.012.208a1.412,1.412,0,0,0,.464,1.086A1.8,1.8,0,0,0,113.867-2.454Zm13.428-1.855,2.454-8.9h3.687L128.979,0H125.61l-4.456-13.208h3.687Zm14.893-3.271L135.1-10.059v-3.394L145.728-9v2.869L135.1-1.66V-5.066Z" transform="translate(775 5279.895)" fill="#12263f"/>
    <path id="Trazado_655390" data-name="Trazado 655390" d="M4.211-7.544,11.169-5.09v3.418L.659-6.128V-9.009l10.51-4.456v3.418ZM21.228-3.65a1.137,1.137,0,0,0-.641-1.019,7.28,7.28,0,0,0-2.057-.665q-4.712-.989-4.712-4a3.629,3.629,0,0,1,1.459-2.936,5.884,5.884,0,0,1,3.815-1.178,6.333,6.333,0,0,1,4.022,1.184,3.732,3.732,0,0,1,1.508,3.076H21.094a1.707,1.707,0,0,0-.488-1.251,2.066,2.066,0,0,0-1.526-.494,2.111,2.111,0,0,0-1.379.4,1.272,1.272,0,0,0-.488,1.025,1.087,1.087,0,0,0,.555.946,5.714,5.714,0,0,0,1.874.623,15.3,15.3,0,0,1,2.222.592q2.8,1.025,2.8,3.552a3.445,3.445,0,0,1-1.55,2.924,6.688,6.688,0,0,1-4,1.117,6.985,6.985,0,0,1-2.948-.592,4.946,4.946,0,0,1-2.02-1.624A3.772,3.772,0,0,1,13.4-4.2h3.345a1.842,1.842,0,0,0,.7,1.44,2.76,2.76,0,0,0,1.733.5,2.554,2.554,0,0,0,1.532-.385A1.2,1.2,0,0,0,21.228-3.65ZM33.008.244a6.484,6.484,0,0,1-4.73-1.782,6.335,6.335,0,0,1-1.825-4.749v-.342a7.979,7.979,0,0,1,.769-3.558A5.644,5.644,0,0,1,29.4-12.6a6.116,6.116,0,0,1,3.217-.848,5.482,5.482,0,0,1,4.266,1.709A6.944,6.944,0,0,1,38.44-6.9v1.44H30.029a3.277,3.277,0,0,0,1.031,2.075A3.118,3.118,0,0,0,33.24-2.6a3.808,3.808,0,0,0,3.186-1.477l1.733,1.941A5.3,5.3,0,0,1,36.011-.385,7.049,7.049,0,0,1,33.008.244Zm-.4-10.852a2.2,2.2,0,0,0-1.7.711,3.682,3.682,0,0,0-.836,2.035h4.907v-.282a2.626,2.626,0,0,0-.635-1.821A2.274,2.274,0,0,0,32.6-10.608ZM45.935-2.6a2.314,2.314,0,0,0,1.587-.537,1.882,1.882,0,0,0,.635-1.428h3.308a4.525,4.525,0,0,1-.732,2.46A4.833,4.833,0,0,1,48.761-.372,6.17,6.17,0,0,1,46,.244a5.734,5.734,0,0,1-4.468-1.8,7.125,7.125,0,0,1-1.636-4.974v-.232a7.044,7.044,0,0,1,1.624-4.871,5.667,5.667,0,0,1,4.456-1.819,5.555,5.555,0,0,1,3.973,1.41,4.992,4.992,0,0,1,1.52,3.754H48.157a2.424,2.424,0,0,0-.635-1.675,2.116,2.116,0,0,0-1.611-.644,2.125,2.125,0,0,0-1.862.9,5.208,5.208,0,0,0-.629,2.916v.367a5.274,5.274,0,0,0,.623,2.934A2.151,2.151,0,0,0,45.935-2.6ZM57.7-16.455v3.247h2.258v2.588H57.7v6.592a1.574,1.574,0,0,0,.281,1.05,1.41,1.41,0,0,0,1.074.317A5.626,5.626,0,0,0,60.1-2.747V-.073a7.263,7.263,0,0,1-2.136.317q-3.711,0-3.784-3.748V-10.62H52.246v-2.588h1.929v-3.247ZM65.649,0h-3.54V-13.208h3.54ZM61.9-16.626a1.737,1.737,0,0,1,.531-1.306,2,2,0,0,1,1.447-.513,2,2,0,0,1,1.44.513,1.727,1.727,0,0,1,.537,1.306,1.732,1.732,0,0,1-.543,1.318,2,2,0,0,1-1.434.513,2,2,0,0,1-1.434-.513A1.732,1.732,0,0,1,61.9-16.626Zm6.1,9.9a7.833,7.833,0,0,1,.757-3.5,5.54,5.54,0,0,1,2.179-2.38,6.357,6.357,0,0,1,3.3-.842,6.014,6.014,0,0,1,4.364,1.636,6.565,6.565,0,0,1,1.886,4.443l.024.9a6.9,6.9,0,0,1-1.7,4.877A5.9,5.9,0,0,1,74.268.244a5.927,5.927,0,0,1-4.559-1.831,7.025,7.025,0,0,1-1.7-4.98Zm3.528.25A4.937,4.937,0,0,0,72.241-3.6a2.336,2.336,0,0,0,2.026,1,2.341,2.341,0,0,0,2-.984,5.4,5.4,0,0,0,.72-3.148,4.888,4.888,0,0,0-.72-2.861,2.341,2.341,0,0,0-2.026-1.015,2.3,2.3,0,0,0-2,1.009A5.493,5.493,0,0,0,71.533-6.476Zm14.4-6.732.11,1.526a4.611,4.611,0,0,1,3.8-1.77,3.832,3.832,0,0,1,3.125,1.233,5.752,5.752,0,0,1,1.05,3.687V0H90.491V-8.447A2.289,2.289,0,0,0,90-10.077a2.186,2.186,0,0,0-1.624-.507,2.427,2.427,0,0,0-2.234,1.27V0H82.617V-13.208Zm17.957,5.627L96.8-10.059v-3.394L107.434-9v2.869L96.8-1.66V-5.066Z" transform="translate(670 5367.895)" fill="#12263f"/>
    <path id="Trazado_655391" data-name="Trazado 655391" d="M4.211-7.544,11.169-5.09v3.418L.659-6.128V-9.009l10.51-4.456v3.418ZM21.729,0a3.918,3.918,0,0,1-.354-1.184A4.269,4.269,0,0,1,18.042.244,4.69,4.69,0,0,1,14.825-.879,3.612,3.612,0,0,1,13.55-3.711a3.733,3.733,0,0,1,1.556-3.223,7.68,7.68,0,0,1,4.5-1.135h1.624v-.757a2.177,2.177,0,0,0-.47-1.465,1.849,1.849,0,0,0-1.483-.549,2.1,2.1,0,0,0-1.4.427,1.451,1.451,0,0,0-.507,1.172H13.843a3.544,3.544,0,0,1,.708-2.124,4.68,4.68,0,0,1,2-1.532,7.3,7.3,0,0,1,2.905-.555,5.764,5.764,0,0,1,3.876,1.227,4.292,4.292,0,0,1,1.434,3.448v5.725a6.314,6.314,0,0,0,.525,2.844V0ZM18.811-2.454a3.038,3.038,0,0,0,1.44-.348,2.285,2.285,0,0,0,.977-.934V-6.006H19.91q-2.649,0-2.82,1.831l-.012.208a1.412,1.412,0,0,0,.464,1.086A1.8,1.8,0,0,0,18.811-2.454Zm15.82-1.2a1.137,1.137,0,0,0-.641-1.019,7.28,7.28,0,0,0-2.057-.665q-4.712-.989-4.712-4a3.629,3.629,0,0,1,1.459-2.936A5.884,5.884,0,0,1,32.5-13.452a6.333,6.333,0,0,1,4.022,1.184,3.732,3.732,0,0,1,1.508,3.076H34.5a1.707,1.707,0,0,0-.488-1.251,2.066,2.066,0,0,0-1.526-.494,2.111,2.111,0,0,0-1.379.4,1.272,1.272,0,0,0-.488,1.025,1.087,1.087,0,0,0,.555.946,5.714,5.714,0,0,0,1.874.623,15.3,15.3,0,0,1,2.222.592q2.8,1.025,2.8,3.552a3.445,3.445,0,0,1-1.55,2.924,6.688,6.688,0,0,1-4,1.117,6.985,6.985,0,0,1-2.948-.592,4.946,4.946,0,0,1-2.02-1.624A3.772,3.772,0,0,1,26.807-4.2h3.345a1.842,1.842,0,0,0,.7,1.44,2.76,2.76,0,0,0,1.733.5,2.554,2.554,0,0,0,1.532-.385A1.2,1.2,0,0,0,34.631-3.65ZM44.055,0h-3.54V-13.208h3.54ZM40.308-16.626a1.737,1.737,0,0,1,.531-1.306,2,2,0,0,1,1.447-.513,2,2,0,0,1,1.44.513,1.727,1.727,0,0,1,.537,1.306,1.732,1.732,0,0,1-.543,1.318,2,2,0,0,1-1.434.513,2,2,0,0,1-1.434-.513A1.732,1.732,0,0,1,40.308-16.626Zm6.1,9.924A7.96,7.96,0,0,1,47.8-11.621a4.5,4.5,0,0,1,3.79-1.831,4.045,4.045,0,0,1,3.186,1.44V-18.75h3.54V0H55.127l-.171-1.4A4.151,4.151,0,0,1,51.563.244a4.483,4.483,0,0,1-3.741-1.837A8.216,8.216,0,0,1,46.411-6.7Zm3.528.263a5.214,5.214,0,0,0,.647,2.849,2.108,2.108,0,0,0,1.88.99,2.361,2.361,0,0,0,2.307-1.381V-9.2a2.327,2.327,0,0,0-2.283-1.381Q49.939-10.583,49.939-6.439ZM67.126.244A6.484,6.484,0,0,1,62.4-1.538a6.335,6.335,0,0,1-1.825-4.749v-.342a7.979,7.979,0,0,1,.769-3.558A5.644,5.644,0,0,1,63.519-12.6a6.116,6.116,0,0,1,3.217-.848A5.482,5.482,0,0,1,71-11.743,6.944,6.944,0,0,1,72.559-6.9v1.44H64.148a3.277,3.277,0,0,0,1.031,2.075,3.118,3.118,0,0,0,2.179.781,3.808,3.808,0,0,0,3.186-1.477l1.733,1.941A5.3,5.3,0,0,1,70.129-.385,7.049,7.049,0,0,1,67.126.244Zm-.4-10.852a2.2,2.2,0,0,0-1.7.711,3.682,3.682,0,0,0-.836,2.035h4.907v-.282a2.626,2.626,0,0,0-.635-1.821A2.274,2.274,0,0,0,66.724-10.608ZM81.763-7.581,74.67-10.059v-3.394L85.3-9v2.869L74.67-1.66V-5.066Z" transform="translate(1083 5367.895)" fill="#12263f"/>
    <path id="Trazado_655392" data-name="Trazado 655392" d="M4.211-7.544,11.169-5.09v3.418L.659-6.128V-9.009l10.51-4.456v3.418Zm10.974,9.07H12.561l6.543-19.3h2.625ZM30.566-3.65a1.137,1.137,0,0,0-.641-1.019,7.28,7.28,0,0,0-2.057-.665q-4.712-.989-4.712-4a3.629,3.629,0,0,1,1.459-2.936,5.884,5.884,0,0,1,3.815-1.178,6.333,6.333,0,0,1,4.022,1.184A3.732,3.732,0,0,1,33.96-9.192H30.432a1.707,1.707,0,0,0-.488-1.251,2.066,2.066,0,0,0-1.526-.494,2.111,2.111,0,0,0-1.379.4,1.272,1.272,0,0,0-.488,1.025,1.087,1.087,0,0,0,.555.946,5.714,5.714,0,0,0,1.874.623,15.3,15.3,0,0,1,2.222.592Q34-6.323,34-3.8a3.445,3.445,0,0,1-1.55,2.924,6.688,6.688,0,0,1-4,1.117,6.985,6.985,0,0,1-2.948-.592,4.946,4.946,0,0,1-2.02-1.624A3.772,3.772,0,0,1,22.742-4.2h3.345a1.842,1.842,0,0,0,.7,1.44,2.76,2.76,0,0,0,1.733.5,2.554,2.554,0,0,0,1.532-.385A1.2,1.2,0,0,0,30.566-3.65ZM42.346.244a6.484,6.484,0,0,1-4.73-1.782,6.335,6.335,0,0,1-1.825-4.749v-.342a7.979,7.979,0,0,1,.769-3.558A5.644,5.644,0,0,1,38.739-12.6a6.116,6.116,0,0,1,3.217-.848,5.482,5.482,0,0,1,4.266,1.709A6.944,6.944,0,0,1,47.778-6.9v1.44H39.368A3.277,3.277,0,0,0,40.4-3.381a3.118,3.118,0,0,0,2.179.781,3.808,3.808,0,0,0,3.186-1.477L47.5-2.136A5.3,5.3,0,0,1,45.349-.385,7.049,7.049,0,0,1,42.346.244Zm-.4-10.852a2.2,2.2,0,0,0-1.7.711A3.682,3.682,0,0,0,39.4-7.861h4.907v-.282a2.626,2.626,0,0,0-.635-1.821A2.274,2.274,0,0,0,41.943-10.608ZM55.273-2.6a2.314,2.314,0,0,0,1.587-.537A1.882,1.882,0,0,0,57.5-4.565H60.8a4.525,4.525,0,0,1-.732,2.46A4.833,4.833,0,0,1,58.1-.372a6.17,6.17,0,0,1-2.765.616,5.734,5.734,0,0,1-4.468-1.8,7.125,7.125,0,0,1-1.636-4.974v-.232a7.044,7.044,0,0,1,1.624-4.871,5.667,5.667,0,0,1,4.456-1.819,5.555,5.555,0,0,1,3.973,1.41A4.992,4.992,0,0,1,60.8-8.289H57.5a2.424,2.424,0,0,0-.635-1.675,2.116,2.116,0,0,0-1.611-.644,2.125,2.125,0,0,0-1.862.9,5.208,5.208,0,0,0-.629,2.916v.367a5.274,5.274,0,0,0,.623,2.934A2.151,2.151,0,0,0,55.273-2.6ZM67.041-16.455v3.247H69.3v2.588H67.041v6.592a1.574,1.574,0,0,0,.281,1.05,1.41,1.41,0,0,0,1.074.317,5.626,5.626,0,0,0,1.038-.085V-.073A7.263,7.263,0,0,1,67.3.244q-3.711,0-3.784-3.748V-10.62H61.584v-2.588h1.929v-3.247ZM74.988,0h-3.54V-13.208h3.54ZM71.24-16.626a1.737,1.737,0,0,1,.531-1.306,2,2,0,0,1,1.447-.513,2,2,0,0,1,1.44.513,1.727,1.727,0,0,1,.537,1.306,1.732,1.732,0,0,1-.543,1.318,2,2,0,0,1-1.434.513,2,2,0,0,1-1.434-.513A1.732,1.732,0,0,1,71.24-16.626Zm6.1,9.9a7.833,7.833,0,0,1,.757-3.5,5.54,5.54,0,0,1,2.179-2.38,6.357,6.357,0,0,1,3.3-.842,6.014,6.014,0,0,1,4.364,1.636,6.565,6.565,0,0,1,1.886,4.443l.024.9a6.9,6.9,0,0,1-1.7,4.877A5.9,5.9,0,0,1,83.606.244a5.927,5.927,0,0,1-4.559-1.831,7.025,7.025,0,0,1-1.7-4.98Zm3.528.25A4.937,4.937,0,0,0,81.58-3.6a2.336,2.336,0,0,0,2.026,1,2.341,2.341,0,0,0,2-.984,5.4,5.4,0,0,0,.72-3.148,4.888,4.888,0,0,0-.72-2.861,2.341,2.341,0,0,0-2.026-1.015,2.3,2.3,0,0,0-2,1.009A5.493,5.493,0,0,0,80.872-6.476Zm14.4-6.732.11,1.526a4.611,4.611,0,0,1,3.8-1.77,3.832,3.832,0,0,1,3.125,1.233,5.752,5.752,0,0,1,1.05,3.687V0H99.829V-8.447a2.289,2.289,0,0,0-.488-1.63,2.186,2.186,0,0,0-1.624-.507,2.427,2.427,0,0,0-2.234,1.27V0H91.956V-13.208Zm17.957,5.627-7.092-2.478v-3.394L116.772-9v2.869L106.14-1.66V-5.066Z" transform="translate(670 5627.895)" fill="#12263f"/>
    <path id="Trazado_655393" data-name="Trazado 655393" d="M4.211-7.544,11.169-5.09v3.418L.659-6.128V-9.009l10.51-4.456v3.418Zm10.974,9.07H12.561l6.543-19.3h2.625ZM31.067,0a3.918,3.918,0,0,1-.354-1.184A4.269,4.269,0,0,1,27.38.244,4.69,4.69,0,0,1,24.164-.879a3.612,3.612,0,0,1-1.276-2.832,3.733,3.733,0,0,1,1.556-3.223,7.68,7.68,0,0,1,4.5-1.135h1.624v-.757a2.177,2.177,0,0,0-.47-1.465,1.849,1.849,0,0,0-1.483-.549,2.1,2.1,0,0,0-1.4.427,1.451,1.451,0,0,0-.507,1.172H23.181a3.544,3.544,0,0,1,.708-2.124,4.68,4.68,0,0,1,2-1.532,7.3,7.3,0,0,1,2.905-.555,5.764,5.764,0,0,1,3.876,1.227,4.292,4.292,0,0,1,1.434,3.448v5.725a6.314,6.314,0,0,0,.525,2.844V0ZM28.149-2.454A3.038,3.038,0,0,0,29.59-2.8a2.285,2.285,0,0,0,.977-.934V-6.006H29.248q-2.649,0-2.82,1.831l-.012.208a1.412,1.412,0,0,0,.464,1.086A1.8,1.8,0,0,0,28.149-2.454Zm15.82-1.2a1.137,1.137,0,0,0-.641-1.019,7.28,7.28,0,0,0-2.057-.665q-4.712-.989-4.712-4a3.629,3.629,0,0,1,1.459-2.936,5.884,5.884,0,0,1,3.815-1.178,6.333,6.333,0,0,1,4.022,1.184,3.732,3.732,0,0,1,1.508,3.076H43.835a1.707,1.707,0,0,0-.488-1.251,2.066,2.066,0,0,0-1.526-.494,2.111,2.111,0,0,0-1.379.4,1.272,1.272,0,0,0-.488,1.025,1.087,1.087,0,0,0,.555.946,5.714,5.714,0,0,0,1.874.623,15.3,15.3,0,0,1,2.222.592Q47.4-6.323,47.4-3.8A3.445,3.445,0,0,1,45.85-.873a6.688,6.688,0,0,1-4,1.117A6.985,6.985,0,0,1,38.9-.348a4.946,4.946,0,0,1-2.02-1.624A3.772,3.772,0,0,1,36.145-4.2H39.49a1.842,1.842,0,0,0,.7,1.44,2.76,2.76,0,0,0,1.733.5,2.554,2.554,0,0,0,1.532-.385A1.2,1.2,0,0,0,43.97-3.65ZM53.394,0h-3.54V-13.208h3.54ZM49.646-16.626a1.737,1.737,0,0,1,.531-1.306,2,2,0,0,1,1.447-.513,2,2,0,0,1,1.44.513,1.727,1.727,0,0,1,.537,1.306,1.732,1.732,0,0,1-.543,1.318,2,2,0,0,1-1.434.513,2,2,0,0,1-1.434-.513A1.732,1.732,0,0,1,49.646-16.626ZM55.75-6.7a7.96,7.96,0,0,1,1.385-4.919,4.5,4.5,0,0,1,3.79-1.831,4.045,4.045,0,0,1,3.186,1.44V-18.75h3.54V0H64.465l-.171-1.4A4.151,4.151,0,0,1,60.9.244a4.483,4.483,0,0,1-3.741-1.837A8.216,8.216,0,0,1,55.75-6.7Zm3.528.263a5.214,5.214,0,0,0,.647,2.849,2.108,2.108,0,0,0,1.88.99,2.361,2.361,0,0,0,2.307-1.381V-9.2a2.327,2.327,0,0,0-2.283-1.381Q59.277-10.583,59.277-6.439ZM76.465.244a6.484,6.484,0,0,1-4.73-1.782A6.335,6.335,0,0,1,69.91-6.287v-.342a7.979,7.979,0,0,1,.769-3.558A5.644,5.644,0,0,1,72.858-12.6a6.116,6.116,0,0,1,3.217-.848,5.482,5.482,0,0,1,4.266,1.709A6.944,6.944,0,0,1,81.9-6.9v1.44H73.486a3.277,3.277,0,0,0,1.031,2.075A3.118,3.118,0,0,0,76.7-2.6a3.808,3.808,0,0,0,3.186-1.477l1.733,1.941A5.3,5.3,0,0,1,79.468-.385,7.049,7.049,0,0,1,76.465.244Zm-.4-10.852a2.2,2.2,0,0,0-1.7.711,3.682,3.682,0,0,0-.836,2.035H78.43v-.282A2.626,2.626,0,0,0,77.8-9.964,2.274,2.274,0,0,0,76.062-10.608ZM91.1-7.581l-7.092-2.478v-3.394L94.641-9v2.869L84.009-1.66V-5.066Z" transform="translate(1093 5627.895)" fill="#12263f"/>
    <g id="Grupo_943421" data-name="Grupo 943421" transform="translate(313 5430.746)">
      <g id="Grupo_949464" data-name="Grupo 949464">
        <circle id="Elipse_7648" data-name="Elipse 7648" cx="24.117" cy="24.117" r="24.117" fill="#12263f" opacity="0.467"/>
      </g>
      <circle id="Elipse_7649" data-name="Elipse 7649" cx="15.542" cy="15.542" r="15.542" transform="translate(8.575 8.575)" fill="#f6f6f6" opacity="0.995"/>
    </g>
    <g id="Grupo_943421-2" data-name="Grupo 943421" transform="translate(419.767 5169.746)">
      <g id="Grupo_949464-2" data-name="Grupo 949464">
        <circle id="Elipse_7648-2" data-name="Elipse 7648" cx="24.117" cy="24.117" r="24.117" fill="#12263f" opacity="0.467"/>
      </g>
      <circle id="Elipse_7649-2" data-name="Elipse 7649" cx="15.542" cy="15.542" r="15.542" transform="translate(8.575 8.575)" fill="#f6f6f6" opacity="0.995"/>
    </g>
    <g id="Grupo_943421-3" data-name="Grupo 943421" transform="translate(418 5246.746)">
      <g id="Grupo_949464-3" data-name="Grupo 949464">
        <circle id="Elipse_7648-3" data-name="Elipse 7648" cx="24.117" cy="24.117" r="24.117" fill="#12263f" opacity="0.467"/>
      </g>
      <circle id="Elipse_7649-3" data-name="Elipse 7649" cx="15.542" cy="15.542" r="15.542" transform="translate(8.575 8.575)" fill="#f6f6f6" opacity="0.995"/>
    </g>
    <g id="Grupo_943421-4" data-name="Grupo 943421" transform="translate(418 5323.746)">
      <g id="Grupo_949464-4" data-name="Grupo 949464">
        <circle id="Elipse_7648-4" data-name="Elipse 7648" cx="24.117" cy="24.117" r="24.117" fill="#12263f" opacity="0.467"/>
      </g>
      <circle id="Elipse_7649-4" data-name="Elipse 7649" cx="15.542" cy="15.542" r="15.542" transform="translate(8.575 8.575)" fill="#f6f6f6" opacity="0.995"/>
    </g>
    <g id="Grupo_943421-5" data-name="Grupo 943421" transform="translate(1004.767 5313.746)">
      <g id="Grupo_949464-5" data-name="Grupo 949464">
        <circle id="Elipse_7648-5" data-name="Elipse 7648" cx="24.117" cy="24.117" r="24.117" fill="#12263f" opacity="0.467"/>
      </g>
      <circle id="Elipse_7649-5" data-name="Elipse 7649" cx="15.542" cy="15.542" r="15.542" transform="translate(8.575 8.575)" fill="#f6f6f6" opacity="0.995"/>
    </g>
    <path id="Trazado_654549" data-name="Trazado 654549" d="M-7986-7123.83h-38.328v623.6H-7986" transform="translate(8404 12266.895)" fill="none" stroke="#12263f" stroke-width="3"/>
  </g>
</svg>
