<svg xmlns="http://www.w3.org/2000/svg" width="813" height="263" viewBox="0 0 813 263">
  <g id="Grupo_981171" data-name="Grupo 981171" transform="translate(-397 -2941)">
    <path id="Trazado_655372" data-name="Trazado 655372" d="M0,0H813V263H0Z" transform="translate(397 2941)" fill="#12263f"/>
    <path id="Trazado_655355" data-name="Trazado 655355" d="M49.644,141.336a1.527,1.527,0,0,0-.6-1.292,7.84,7.84,0,0,0-2.145-.953,15.11,15.11,0,0,1-2.454-.988,4.008,4.008,0,0,1-2.463-3.591,3.487,3.487,0,0,1,.66-2.1,4.313,4.313,0,0,1,1.894-1.43,7.159,7.159,0,0,1,2.777-.516,6.491,6.491,0,0,1,2.761.561,4.393,4.393,0,0,1,1.882,1.584,4.149,4.149,0,0,1,.67,2.324H49.654a1.95,1.95,0,0,0-.625-1.543,2.57,2.57,0,0,0-1.758-.552,2.748,2.748,0,0,0-1.7.463,1.457,1.457,0,0,0-.606,1.217,1.4,1.4,0,0,0,.711,1.182,8.019,8.019,0,0,0,2.091.89,9.035,9.035,0,0,1,3.7,1.9,3.777,3.777,0,0,1,1.162,2.821,3.478,3.478,0,0,1-1.421,2.944,6.221,6.221,0,0,1-3.824,1.068,7.386,7.386,0,0,1-3.038-.61,4.809,4.809,0,0,1-2.091-1.674,4.283,4.283,0,0,1-.72-2.463h2.99q0,2.393,2.86,2.394a2.78,2.78,0,0,0,1.653-.432,1.406,1.406,0,0,0,.6-1.206m13.712-2.493H57.635v3.894h6.714v2.393h-9.7V130.669h9.673v2.415H57.635v3.447h5.721Zm5.721,3.894H75.4v2.393H66.1V130.669h2.979Zm16.729-3.894H80.086v3.894H86.8v2.393H77.107V130.669H86.78v2.415H80.086v3.447h5.721Zm14.094,1.47a5.116,5.116,0,0,1-1.723,3.673,6.046,6.046,0,0,1-4.1,1.343,5.443,5.443,0,0,1-4.375-1.873,7.674,7.674,0,0,1-1.594-5.14v-.89a8.682,8.682,0,0,1,.735-3.675,5.5,5.5,0,0,1,2.1-2.431,6.572,6.572,0,0,1,7.211.492,5.5,5.5,0,0,1,1.768,3.764H96.941a3.022,3.022,0,0,0-.779-2.034,2.885,2.885,0,0,0-2.04-.636,2.531,2.531,0,0,0-2.23,1.068,5.979,5.979,0,0,0-.763,3.312v1.106a6.409,6.409,0,0,0,.711,3.433,2.485,2.485,0,0,0,2.24,1.083,2.939,2.939,0,0,0,2.061-.636,2.849,2.849,0,0,0,.779-1.959Zm12.554-7.231h-4.429V145.13h-2.98V133.082h-4.37v-2.415h11.779Zm13.3,5.145a8.728,8.728,0,0,1-.755,3.744,5.689,5.689,0,0,1-2.161,2.483,6.379,6.379,0,0,1-6.43.01A5.745,5.745,0,0,1,114.222,142a8.462,8.462,0,0,1-.784-3.687v-.718a8.683,8.683,0,0,1,.772-3.759,5.724,5.724,0,0,1,2.175-2.493,6.369,6.369,0,0,1,6.425,0,5.724,5.724,0,0,1,2.175,2.493,8.658,8.658,0,0,1,.769,3.749Zm-3.019-.656a6.091,6.091,0,0,0-.815-3.457,2.876,2.876,0,0,0-4.638-.015,6.018,6.018,0,0,0-.824,3.421v.706a6.165,6.165,0,0,0,.815,3.433,2.853,2.853,0,0,0,4.649.044,6.123,6.123,0,0,0,.815-3.433Zm10.544,2.265H130.9v5.294h-2.98V130.669h5.374a6.071,6.071,0,0,1,3.953,1.144,3.94,3.94,0,0,1,1.391,3.228A4.447,4.447,0,0,1,138,137.5a4.364,4.364,0,0,1-1.941,1.574l3.129,5.915v.139h-3.2Zm-2.374-2.415h2.4a2.457,2.457,0,0,0,1.738-.571,2.044,2.044,0,0,0,.609-1.573,2.185,2.185,0,0,0-.581-1.609,2.414,2.414,0,0,0-1.78-.586h-2.4Z" transform="translate(391.27 2949.922)" fill="#b07baf"/>
    <path id="Trazado_655356" data-name="Trazado 655356" d="M167.995,140.034v5.1h-2.979V130.668h5.641a6.532,6.532,0,0,1,2.866.6,4.387,4.387,0,0,1,1.9,1.693,4.718,4.718,0,0,1,.665,2.5,4.152,4.152,0,0,1-1.451,3.351,6.063,6.063,0,0,1-4.028,1.227Zm0-2.415h2.662a2.614,2.614,0,0,0,1.8-.556,2.021,2.021,0,0,0,.62-1.589,2.387,2.387,0,0,0-.625-1.719,2.336,2.336,0,0,0-1.728-.675h-2.732Zm15.495,2.217h-2.374v5.294h-2.98V130.668h5.374a6.071,6.071,0,0,1,3.952,1.144,3.94,3.94,0,0,1,1.391,3.228,4.447,4.447,0,0,1-.641,2.461,4.364,4.364,0,0,1-1.941,1.574l3.134,5.915v.139h-3.2Zm-2.374-2.415h2.4a2.457,2.457,0,0,0,1.738-.571,2.04,2.04,0,0,0,.615-1.574,2.185,2.185,0,0,0-.581-1.609,2.414,2.414,0,0,0-1.78-.586h-2.4Zm21.881.8a8.736,8.736,0,0,1-.751,3.747,5.689,5.689,0,0,1-2.161,2.483,6.379,6.379,0,0,1-6.43.01A5.742,5.742,0,0,1,191.464,142a8.462,8.462,0,0,1-.784-3.687v-.718a8.685,8.685,0,0,1,.769-3.759,5.724,5.724,0,0,1,2.175-2.493,6.369,6.369,0,0,1,6.425,0,5.723,5.723,0,0,1,2.175,2.493,8.658,8.658,0,0,1,.769,3.749Zm-3.019-.656a6.091,6.091,0,0,0-.815-3.457,2.876,2.876,0,0,0-4.638-.015,6.018,6.018,0,0,0-.824,3.421v.706a6.165,6.165,0,0,0,.815,3.433,2.853,2.853,0,0,0,4.649.044,6.122,6.122,0,0,0,.815-3.433Zm8.164,2.464v5.1h-2.98V130.668H210.8a6.532,6.532,0,0,1,2.866.6,4.386,4.386,0,0,1,1.907,1.693,4.713,4.713,0,0,1,.653,2.5,4.151,4.151,0,0,1-1.449,3.351,6.063,6.063,0,0,1-4.028,1.227Zm0-2.416H210.8a2.614,2.614,0,0,0,1.8-.556,2.021,2.021,0,0,0,.62-1.589,2.386,2.386,0,0,0-.625-1.719,2.336,2.336,0,0,0-1.728-.675h-2.732Zm13.308,7.512h-2.979V130.668h2.98Zm11.462-6.287h-5.721v3.894h6.71v2.393h-9.69V130.668h9.673v2.415h-6.693v3.447h5.721Zm2.741,6.287V130.668h4.45a6.756,6.756,0,0,1,3.412.859,5.99,5.99,0,0,1,2.349,2.444,7.543,7.543,0,0,1,.844,3.6v.665a7.569,7.569,0,0,1-.829,3.585,5.932,5.932,0,0,1-2.339,2.433,6.81,6.81,0,0,1-3.41.875Zm2.98-12.048v9.654h1.44a3.234,3.234,0,0,0,2.67-1.144,5.158,5.158,0,0,0,.943-3.267v-.763a5.244,5.244,0,0,0-.914-3.342,3.228,3.228,0,0,0-2.67-1.138Zm18.2,9.068H251.6l-.993,2.98h-3.168l5.383-14.461h2.761L261,145.129h-3.169Zm-4.42-2.416h3.614l-1.815-5.411Zm9.943,5.4V130.668h4.45a6.756,6.756,0,0,1,3.412.859,5.989,5.989,0,0,1,2.349,2.444,7.543,7.543,0,0,1,.844,3.6v.665a7.569,7.569,0,0,1-.829,3.585,5.933,5.933,0,0,1-2.339,2.433,6.81,6.81,0,0,1-3.41.875Zm2.98-12.048v9.654h1.44a3.234,3.234,0,0,0,2.67-1.144,5.158,5.158,0,0,0,.943-3.267v-.763a5.244,5.244,0,0,0-.914-3.342,3.228,3.228,0,0,0-2.67-1.138Z" transform="translate(424.772 2949.923)" fill="#3ccdc5"/>
    <path id="Trazado_655357" data-name="Trazado 655357" d="M220.37,77.962h-2.375v5.294h-2.979V68.795h5.373a6.069,6.069,0,0,1,3.953,1.144,3.941,3.941,0,0,1,1.391,3.227,4.451,4.451,0,0,1-.641,2.463,4.368,4.368,0,0,1-1.941,1.579l3.129,5.91v.139h-3.2ZM218,75.547h2.4a2.463,2.463,0,0,0,1.738-.571,2.04,2.04,0,0,0,.614-1.573,2.185,2.185,0,0,0-.581-1.609,2.414,2.414,0,0,0-1.78-.586h-2.4Zm14.759,7.908A5.279,5.279,0,0,1,228.905,82a5.154,5.154,0,0,1-1.485-3.864v-.278a6.489,6.489,0,0,1,.625-2.895A4.591,4.591,0,0,1,229.819,73a4.972,4.972,0,0,1,2.618-.69,4.46,4.46,0,0,1,3.471,1.391,5.648,5.648,0,0,1,1.271,3.941v1.172h-6.847a2.671,2.671,0,0,0,.839,1.688,2.544,2.544,0,0,0,1.773.636,3.1,3.1,0,0,0,2.592-1.2l1.41,1.579a4.314,4.314,0,0,1-1.748,1.426,5.74,5.74,0,0,1-2.444.511m-.328-8.829a1.793,1.793,0,0,0-1.386.578,3,3,0,0,0-.68,1.653h3.993v-.23a2.139,2.139,0,0,0-.516-1.481,1.851,1.851,0,0,0-1.411-.52m5.96,3.178a6.3,6.3,0,0,1,1.177-3.983,3.816,3.816,0,0,1,3.178-1.509,3.343,3.343,0,0,1,2.751,1.212l.119-1.017h2.6V82.9a4.6,4.6,0,0,1-.636,2.454,4.118,4.118,0,0,1-1.818,1.59,6.326,6.326,0,0,1-2.722.547,5.9,5.9,0,0,1-2.3-.472,4.085,4.085,0,0,1-1.695-1.219l1.271-1.748a3.361,3.361,0,0,0,2.6,1.2,2.46,2.46,0,0,0,1.78-.61,2.288,2.288,0,0,0,.636-1.733v-.577a3.323,3.323,0,0,1-2.62,1.123,3.8,3.8,0,0,1-3.127-1.514,6.3,6.3,0,0,1-1.2-4.024Zm2.871.2a3.938,3.938,0,0,0,.586,2.3,1.86,1.86,0,0,0,1.609.833,1.992,1.992,0,0,0,1.878-.988v-4.54a1.988,1.988,0,0,0-1.857-.988,1.875,1.875,0,0,0-1.623.848,4.446,4.446,0,0,0-.594,2.535Zm12.186,5.248h-2.88V68h2.881Zm8.592,0a3.2,3.2,0,0,1-.289-.964,3.477,3.477,0,0,1-2.712,1.162,3.819,3.819,0,0,1-2.618-.914,2.937,2.937,0,0,1-1.037-2.3,3.035,3.035,0,0,1,1.271-2.621,6.254,6.254,0,0,1,3.66-.924h1.317v-.615a1.77,1.77,0,0,0-.381-1.191,1.5,1.5,0,0,0-1.207-.448,1.712,1.712,0,0,0-1.138.347,1.18,1.18,0,0,0-.412.953h-2.872a2.88,2.88,0,0,1,.576-1.728,3.829,3.829,0,0,1,1.629-1.246,5.934,5.934,0,0,1,2.363-.451,4.691,4.691,0,0,1,3.153,1,3.491,3.491,0,0,1,1.167,2.806v4.658a5.148,5.148,0,0,0,.427,2.314v.168Zm-2.374-2a2.475,2.475,0,0,0,1.172-.284,1.855,1.855,0,0,0,.795-.763V78.369h-1.073q-2.161,0-2.288,1.49l-.01.169a1.145,1.145,0,0,0,.381.89,1.463,1.463,0,0,0,1.023.342m18.554.9a3.6,3.6,0,0,1-2.941,1.29,3.4,3.4,0,0,1-2.637-.993,4.246,4.246,0,0,1-.928-2.91V72.509h2.871v6.95q0,1.68,1.526,1.681a2.071,2.071,0,0,0,2.006-1.017V72.509h2.881V83.256h-2.7Zm7.594-9.654.089,1.242a3.753,3.753,0,0,1,3.089-1.44,3.116,3.116,0,0,1,2.543,1,4.682,4.682,0,0,1,.854,3v6.943h-2.877V76.367a1.868,1.868,0,0,0-.393-1.329,1.781,1.781,0,0,0-1.321-.413,1.976,1.976,0,0,0-1.818,1.035v7.6H283.1V72.509Zm8.3,5.28a6.382,6.382,0,0,1,.615-2.85A4.507,4.507,0,0,1,296.493,73a5.167,5.167,0,0,1,2.686-.685,4.891,4.891,0,0,1,3.551,1.331,5.337,5.337,0,0,1,1.534,3.616l.02.735a5.616,5.616,0,0,1-1.381,3.967,5.35,5.35,0,0,1-7.414.005,5.725,5.725,0,0,1-1.384-4.048Zm2.871.2a4.014,4.014,0,0,0,.576,2.339,2.073,2.073,0,0,0,3.281.01,4.4,4.4,0,0,0,.586-2.562,3.969,3.969,0,0,0-.586-2.328,1.907,1.907,0,0,0-1.653-.825,1.873,1.873,0,0,0-1.629.821,4.474,4.474,0,0,0-.577,2.539Z" transform="translate(438.338 2932.975)" fill="#fff"/>
    <path id="Trazado_655358" data-name="Trazado 655358" d="M432.869,77.962h-2.375v5.294h-2.979V68.795h5.373a6.071,6.071,0,0,1,3.953,1.144,3.941,3.941,0,0,1,1.391,3.227,4.451,4.451,0,0,1-.641,2.463,4.368,4.368,0,0,1-1.941,1.579l3.129,5.91v.139h-3.2ZM430.5,75.547h2.4a2.463,2.463,0,0,0,1.738-.571,2.04,2.04,0,0,0,.614-1.573,2.185,2.185,0,0,0-.581-1.609,2.414,2.414,0,0,0-1.78-.586h-2.4Zm14.759,7.908A5.278,5.278,0,0,1,441.405,82a5.154,5.154,0,0,1-1.485-3.864v-.278a6.49,6.49,0,0,1,.626-2.895A4.591,4.591,0,0,1,442.319,73a4.972,4.972,0,0,1,2.618-.69,4.459,4.459,0,0,1,3.471,1.391,5.648,5.648,0,0,1,1.271,3.941v1.172h-6.847a2.672,2.672,0,0,0,.839,1.688,2.544,2.544,0,0,0,1.774.636,3.1,3.1,0,0,0,2.592-1.2l1.41,1.579a4.314,4.314,0,0,1-1.748,1.426,5.739,5.739,0,0,1-2.443.511m-.328-8.829a1.793,1.793,0,0,0-1.386.578,3,3,0,0,0-.68,1.653h3.993v-.23a2.139,2.139,0,0,0-.516-1.481,1.851,1.851,0,0,0-1.411-.52m5.96,3.178a6.3,6.3,0,0,1,1.177-3.983,3.816,3.816,0,0,1,3.178-1.509,3.344,3.344,0,0,1,2.751,1.212l.119-1.017h2.6V82.9a4.6,4.6,0,0,1-.636,2.454,4.118,4.118,0,0,1-1.818,1.59,6.326,6.326,0,0,1-2.722.547,5.9,5.9,0,0,1-2.3-.472,4.085,4.085,0,0,1-1.695-1.219l1.271-1.748a3.361,3.361,0,0,0,2.6,1.2,2.46,2.46,0,0,0,1.78-.61,2.287,2.287,0,0,0,.636-1.733v-.577a3.323,3.323,0,0,1-2.62,1.123,3.8,3.8,0,0,1-3.127-1.514,6.3,6.3,0,0,1-1.2-4.024Zm2.871.2a3.938,3.938,0,0,0,.586,2.3,1.86,1.86,0,0,0,1.609.833,1.992,1.992,0,0,0,1.878-.988v-4.54a1.988,1.988,0,0,0-1.857-.988,1.875,1.875,0,0,0-1.624.848,4.447,4.447,0,0,0-.594,2.535Zm12.186,5.248h-2.88V68h2.881Zm8.592,0a3.2,3.2,0,0,1-.289-.964,3.477,3.477,0,0,1-2.712,1.162,3.819,3.819,0,0,1-2.618-.914,2.937,2.937,0,0,1-1.037-2.3,3.035,3.035,0,0,1,1.271-2.621,6.254,6.254,0,0,1,3.66-.924h1.317v-.615a1.771,1.771,0,0,0-.381-1.191,1.5,1.5,0,0,0-1.206-.448,1.712,1.712,0,0,0-1.138.347,1.18,1.18,0,0,0-.412.953h-2.872a2.88,2.88,0,0,1,.576-1.728,3.829,3.829,0,0,1,1.629-1.246,5.934,5.934,0,0,1,2.363-.451,4.691,4.691,0,0,1,3.153,1,3.491,3.491,0,0,1,1.167,2.806v4.658a5.148,5.148,0,0,0,.427,2.314v.168Zm-2.374-2a2.475,2.475,0,0,0,1.172-.284,1.856,1.856,0,0,0,.795-.763V78.369h-1.073q-2.161,0-2.288,1.49l-.01.169a1.14,1.14,0,0,0,.381.89,1.463,1.463,0,0,0,1.023.342M483.831,77.8a6.476,6.476,0,0,1,1.128-4,3.654,3.654,0,0,1,3.084-1.49,3.3,3.3,0,0,1,2.592,1.172V68h2.88V83.256h-2.592l-.139-1.144a3.376,3.376,0,0,1-2.763,1.343,3.647,3.647,0,0,1-3.044-1.5,6.686,6.686,0,0,1-1.147-4.156m2.871.2a4.258,4.258,0,0,0,.525,2.324,1.712,1.712,0,0,0,1.526.809,1.92,1.92,0,0,0,1.878-1.128V75.755a1.893,1.893,0,0,0-1.857-1.13q-2.073,0-2.072,3.383Zm8.59-.219a6.381,6.381,0,0,1,.615-2.85A4.5,4.5,0,0,1,497.681,73a5.167,5.167,0,0,1,2.686-.685,4.891,4.891,0,0,1,3.551,1.331,5.34,5.34,0,0,1,1.534,3.614l.02.735a5.619,5.619,0,0,1-1.381,3.968,5.35,5.35,0,0,1-7.414.005,5.724,5.724,0,0,1-1.386-4.048Zm2.871.2a4.014,4.014,0,0,0,.576,2.339,2.073,2.073,0,0,0,3.281.01,4.395,4.395,0,0,0,.586-2.562,3.968,3.968,0,0,0-.586-2.328,1.907,1.907,0,0,0-1.653-.825,1.873,1.873,0,0,0-1.629.821,4.473,4.473,0,0,0-.576,2.539Zm14.892,2.293a.924.924,0,0,0-.521-.829,5.927,5.927,0,0,0-1.673-.542q-3.835-.8-3.834-3.257a2.949,2.949,0,0,1,1.2-2.389,4.786,4.786,0,0,1,3.1-.959,5.149,5.149,0,0,1,3.272.964,3.033,3.033,0,0,1,1.227,2.5h-2.874a1.386,1.386,0,0,0-.4-1.017,1.683,1.683,0,0,0-1.242-.4,1.715,1.715,0,0,0-1.123.328,1.035,1.035,0,0,0-.4.834.889.889,0,0,0,.451.769,4.666,4.666,0,0,0,1.526.509,12.505,12.505,0,0,1,1.808.482,2.97,2.97,0,0,1,2.273,2.888,2.8,2.8,0,0,1-1.261,2.379,5.443,5.443,0,0,1-3.257.909,5.684,5.684,0,0,1-2.4-.482,4.02,4.02,0,0,1-1.644-1.321,3.067,3.067,0,0,1-.592-1.812h2.722a1.5,1.5,0,0,0,.566,1.172,2.24,2.24,0,0,0,1.41.407,2.078,2.078,0,0,0,1.246-.313.974.974,0,0,0,.413-.82" transform="translate(495.993 2932.975)" fill="#fff"/>
    <path id="Trazado_655359" data-name="Trazado 655359" d="M251.716,190.347h-5.721v5.909h-2.979V181.795h9.415v2.416h-6.437v3.735h5.721ZM257,196.256H254.12V185.509H257Zm-3.051-13.528a1.416,1.416,0,0,1,.432-1.063,1.863,1.863,0,0,1,2.349,0,1.512,1.512,0,0,1-.005,2.132,1.84,1.84,0,0,1-2.333,0,1.41,1.41,0,0,1-.442-1.069ZM262,185.509l.089,1.242a3.753,3.753,0,0,1,3.089-1.44,3.116,3.116,0,0,1,2.543,1,4.682,4.682,0,0,1,.854,3v6.943H265.71v-6.889a1.869,1.869,0,0,0-.4-1.329,1.781,1.781,0,0,0-1.321-.413,1.976,1.976,0,0,0-1.818,1.035v7.6H259.3V185.509Zm13.37,5.294a6.476,6.476,0,0,1,1.128-4,3.654,3.654,0,0,1,3.084-1.49,3.3,3.3,0,0,1,2.592,1.172V181h2.881v15.256h-2.594l-.139-1.144a3.379,3.379,0,0,1-2.761,1.343,3.646,3.646,0,0,1-3.045-1.5,6.686,6.686,0,0,1-1.147-4.156m2.871.2a4.271,4.271,0,0,0,.526,2.324,1.713,1.713,0,0,0,1.526.809,1.92,1.92,0,0,0,1.878-1.128v-4.258a1.893,1.893,0,0,0-1.857-1.128q-2.073,0-2.072,3.38m13.984,5.448A5.275,5.275,0,0,1,288.382,195a5.154,5.154,0,0,1-1.485-3.864v-.278a6.49,6.49,0,0,1,.625-2.895A4.591,4.591,0,0,1,289.3,186a4.972,4.972,0,0,1,2.618-.69,4.46,4.46,0,0,1,3.471,1.391,5.648,5.648,0,0,1,1.271,3.941v1.172h-6.85a2.671,2.671,0,0,0,.839,1.688,2.544,2.544,0,0,0,1.773.636,3.1,3.1,0,0,0,2.592-1.2l1.41,1.579a4.314,4.314,0,0,1-1.748,1.426,5.735,5.735,0,0,1-2.442.511Zm-.328-8.829a1.793,1.793,0,0,0-1.386.578,3,3,0,0,0-.68,1.653h3.993v-.23a2.139,2.139,0,0,0-.516-1.481,1.848,1.848,0,0,0-1.411-.521Zm14.471,8.63h-2.881V181h2.881Zm8.592,0a3.2,3.2,0,0,1-.289-.964,3.472,3.472,0,0,1-2.712,1.162,3.819,3.819,0,0,1-2.618-.914,2.937,2.937,0,0,1-1.037-2.3,3.035,3.035,0,0,1,1.271-2.621,6.254,6.254,0,0,1,3.66-.924h1.321v-.615a1.77,1.77,0,0,0-.381-1.191,1.5,1.5,0,0,0-1.206-.447,1.713,1.713,0,0,0-1.138.347,1.18,1.18,0,0,0-.412.953h-2.876a2.88,2.88,0,0,1,.576-1.728,3.83,3.83,0,0,1,1.629-1.246,5.934,5.934,0,0,1,2.363-.451,4.691,4.691,0,0,1,3.153,1,3.491,3.491,0,0,1,1.167,2.806v4.658a5.15,5.15,0,0,0,.427,2.314v.168Zm-2.375-2a2.475,2.475,0,0,0,1.172-.283,1.855,1.855,0,0,0,.795-.763v-1.845h-1.073q-2.161,0-2.288,1.49l-.01.169a1.14,1.14,0,0,0,.381.89,1.463,1.463,0,0,0,1.023.342m18.156-6.059a7.79,7.79,0,0,0-1.032-.079,2.1,2.1,0,0,0-2.136,1.1v7.032h-2.871V185.509h2.712l.08,1.281a2.659,2.659,0,0,1,2.394-1.48,3.013,3.013,0,0,1,.89.127Zm6.139,8.253a5.279,5.279,0,0,1-3.85-1.449,5.154,5.154,0,0,1-1.485-3.864v-.278a6.49,6.49,0,0,1,.625-2.895A4.591,4.591,0,0,1,333.95,186a4.983,4.983,0,0,1,2.615-.69,4.46,4.46,0,0,1,3.471,1.391,5.648,5.648,0,0,1,1.271,3.941v1.172h-6.846a2.671,2.671,0,0,0,.839,1.688,2.544,2.544,0,0,0,1.773.636,3.1,3.1,0,0,0,2.592-1.2l1.41,1.579a4.314,4.314,0,0,1-1.748,1.426,5.735,5.735,0,0,1-2.442.511m-.328-8.829a1.793,1.793,0,0,0-1.386.578,3,3,0,0,0-.68,1.653h3.993v-.23a2.138,2.138,0,0,0-.521-1.477,1.853,1.853,0,0,0-1.406-.524m5.96,3.178a6.3,6.3,0,0,1,1.177-3.983,3.816,3.816,0,0,1,3.178-1.509,3.345,3.345,0,0,1,2.751,1.212l.12-1.017h2.6V195.9a4.6,4.6,0,0,1-.636,2.454,4.116,4.116,0,0,1-1.814,1.59,6.326,6.326,0,0,1-2.722.547,5.9,5.9,0,0,1-2.3-.472,4.085,4.085,0,0,1-1.695-1.219l1.271-1.748a3.362,3.362,0,0,0,2.6,1.2,2.461,2.461,0,0,0,1.78-.61,2.288,2.288,0,0,0,.636-1.733v-.577a3.317,3.317,0,0,1-2.613,1.123,3.8,3.8,0,0,1-3.134-1.514,6.3,6.3,0,0,1-1.2-4.017Zm2.871.2a3.937,3.937,0,0,0,.585,2.3,1.86,1.86,0,0,0,1.609.833,1.992,1.992,0,0,0,1.878-.988v-4.54a1.988,1.988,0,0,0-1.857-.988,1.875,1.875,0,0,0-1.63.848,4.453,4.453,0,0,0-.586,2.535Zm12.186,5.248h-2.881V181h2.881Zm8.592,0a3.2,3.2,0,0,1-.289-.964,3.472,3.472,0,0,1-2.712,1.162,3.819,3.819,0,0,1-2.618-.914,2.937,2.937,0,0,1-1.037-2.3,3.035,3.035,0,0,1,1.271-2.621,6.254,6.254,0,0,1,3.66-.924h1.321v-.615a1.771,1.771,0,0,0-.381-1.191,1.5,1.5,0,0,0-1.207-.447,1.712,1.712,0,0,0-1.138.347,1.18,1.18,0,0,0-.412.953h-2.876a2.88,2.88,0,0,1,.576-1.728,3.83,3.83,0,0,1,1.629-1.246,5.934,5.934,0,0,1,2.363-.451,4.691,4.691,0,0,1,3.153,1,3.491,3.491,0,0,1,1.167,2.806v4.658a5.151,5.151,0,0,0,.427,2.314v.168Zm-2.374-2a2.475,2.475,0,0,0,1.172-.283,1.855,1.855,0,0,0,.795-.763v-1.845h-1.073q-2.161,0-2.288,1.49l-.01.169a1.14,1.14,0,0,0,.381.89,1.463,1.463,0,0,0,1.023.342" transform="translate(445.935 2963.634)" fill="#fff"/>
    <path id="Trazado_655360" data-name="Trazado 655360" d="M479.716,190.347h-5.721v5.909h-2.979V181.795h9.415v2.416h-6.437v3.735h5.721ZM485,196.256H482.12V185.509H485Zm-3.051-13.528a1.416,1.416,0,0,1,.432-1.063,1.863,1.863,0,0,1,2.349,0,1.512,1.512,0,0,1-.005,2.132,1.84,1.84,0,0,1-2.333,0,1.41,1.41,0,0,1-.442-1.069ZM490,185.509l.089,1.242a3.753,3.753,0,0,1,3.089-1.44,3.116,3.116,0,0,1,2.543,1,4.682,4.682,0,0,1,.854,3v6.943H493.71v-6.889a1.868,1.868,0,0,0-.4-1.329,1.781,1.781,0,0,0-1.321-.413,1.976,1.976,0,0,0-1.818,1.035v7.6H487.3V185.509Zm13.37,5.294a6.477,6.477,0,0,1,1.128-4,3.654,3.654,0,0,1,3.084-1.49,3.3,3.3,0,0,1,2.592,1.172V181h2.881v15.256h-2.594l-.139-1.144a3.379,3.379,0,0,1-2.761,1.343,3.646,3.646,0,0,1-3.045-1.5,6.686,6.686,0,0,1-1.147-4.156m2.871.2a4.271,4.271,0,0,0,.526,2.324,1.713,1.713,0,0,0,1.526.809,1.92,1.92,0,0,0,1.878-1.128v-4.258a1.893,1.893,0,0,0-1.857-1.128q-2.073,0-2.072,3.38m13.984,5.448A5.275,5.275,0,0,1,516.382,195a5.154,5.154,0,0,1-1.485-3.864v-.278a6.489,6.489,0,0,1,.625-2.895A4.591,4.591,0,0,1,517.3,186a4.972,4.972,0,0,1,2.618-.69,4.46,4.46,0,0,1,3.471,1.391,5.648,5.648,0,0,1,1.271,3.941v1.172h-6.85a2.671,2.671,0,0,0,.839,1.688,2.544,2.544,0,0,0,1.773.636,3.1,3.1,0,0,0,2.592-1.2l1.41,1.579a4.314,4.314,0,0,1-1.748,1.426,5.735,5.735,0,0,1-2.442.511Zm-.328-8.829a1.793,1.793,0,0,0-1.386.578,3,3,0,0,0-.68,1.653h3.993v-.23a2.139,2.139,0,0,0-.516-1.481,1.848,1.848,0,0,0-1.411-.521Zm14.471,8.63h-2.881V181h2.881Zm8.592,0a3.2,3.2,0,0,1-.289-.964,3.472,3.472,0,0,1-2.712,1.162,3.819,3.819,0,0,1-2.618-.914,2.937,2.937,0,0,1-1.037-2.3,3.035,3.035,0,0,1,1.271-2.621,6.254,6.254,0,0,1,3.66-.924h1.321v-.615a1.771,1.771,0,0,0-.381-1.191,1.5,1.5,0,0,0-1.206-.447,1.713,1.713,0,0,0-1.138.347,1.18,1.18,0,0,0-.412.953h-2.876a2.88,2.88,0,0,1,.576-1.728,3.83,3.83,0,0,1,1.629-1.246,5.934,5.934,0,0,1,2.363-.451,4.69,4.69,0,0,1,3.153,1,3.492,3.492,0,0,1,1.167,2.806v4.658a5.149,5.149,0,0,0,.427,2.314v.168Zm-2.375-2a2.474,2.474,0,0,0,1.172-.283,1.855,1.855,0,0,0,.795-.763v-1.845h-1.073q-2.161,0-2.288,1.49l-.01.169a1.14,1.14,0,0,0,.381.89,1.462,1.462,0,0,0,1.023.342m18.156-6.059a7.792,7.792,0,0,0-1.032-.079,2.1,2.1,0,0,0-2.136,1.1v7.032h-2.871V185.509h2.712l.08,1.281a2.659,2.659,0,0,1,2.394-1.48,3.013,3.013,0,0,1,.89.127Zm6.139,8.253a5.279,5.279,0,0,1-3.85-1.449,5.154,5.154,0,0,1-1.485-3.864v-.278a6.489,6.489,0,0,1,.625-2.895A4.59,4.59,0,0,1,561.95,186a4.983,4.983,0,0,1,2.615-.69,4.46,4.46,0,0,1,3.471,1.391,5.648,5.648,0,0,1,1.271,3.941v1.172h-6.846a2.671,2.671,0,0,0,.839,1.688,2.544,2.544,0,0,0,1.774.636,3.1,3.1,0,0,0,2.592-1.2l1.41,1.579a4.314,4.314,0,0,1-1.748,1.426,5.735,5.735,0,0,1-2.442.511m-.328-8.829a1.793,1.793,0,0,0-1.386.578,3,3,0,0,0-.68,1.653h3.993v-.23a2.137,2.137,0,0,0-.521-1.477,1.853,1.853,0,0,0-1.406-.524m5.96,3.178a6.3,6.3,0,0,1,1.177-3.983,3.816,3.816,0,0,1,3.178-1.509,3.345,3.345,0,0,1,2.751,1.212l.119-1.017h2.6V195.9a4.6,4.6,0,0,1-.636,2.454,4.116,4.116,0,0,1-1.814,1.59,6.327,6.327,0,0,1-2.722.547,5.9,5.9,0,0,1-2.3-.472,4.085,4.085,0,0,1-1.695-1.219l1.271-1.748a3.362,3.362,0,0,0,2.6,1.2,2.46,2.46,0,0,0,1.78-.61,2.287,2.287,0,0,0,.636-1.733v-.577a3.317,3.317,0,0,1-2.613,1.123,3.8,3.8,0,0,1-3.134-1.514,6.3,6.3,0,0,1-1.2-4.017Zm2.871.2a3.938,3.938,0,0,0,.585,2.3,1.86,1.86,0,0,0,1.609.833,1.992,1.992,0,0,0,1.878-.988v-4.54a1.987,1.987,0,0,0-1.857-.988,1.874,1.874,0,0,0-1.63.848,4.453,4.453,0,0,0-.586,2.535Zm12.186,5.248h-2.881V181h2.881Zm8.591,0a3.2,3.2,0,0,1-.289-.964,3.474,3.474,0,0,1-2.712,1.162,3.819,3.819,0,0,1-2.618-.914,2.937,2.937,0,0,1-1.037-2.3,3.035,3.035,0,0,1,1.271-2.621,6.255,6.255,0,0,1,3.66-.924h1.321v-.615a1.771,1.771,0,0,0-.381-1.191,1.5,1.5,0,0,0-1.206-.447,1.712,1.712,0,0,0-1.138.347,1.18,1.18,0,0,0-.412.953h-2.876a2.88,2.88,0,0,1,.576-1.728,3.829,3.829,0,0,1,1.629-1.246,5.934,5.934,0,0,1,2.363-.451,4.691,4.691,0,0,1,3.153,1,3.491,3.491,0,0,1,1.167,2.806v4.658a5.149,5.149,0,0,0,.427,2.314v.168Zm-2.374-2a2.474,2.474,0,0,0,1.172-.283,1.855,1.855,0,0,0,.795-.763v-1.845h-1.073q-2.161,0-2.288,1.49l-.01.169a1.14,1.14,0,0,0,.381.89,1.463,1.463,0,0,0,1.023.342" transform="translate(507.795 2963.634)" fill="#fff"/>
    <path id="Trazado_655361" data-name="Trazado 655361" d="M139.221,151.006a6.335,6.335,0,0,1-5.14-6.639v-2.841q0-3.013-2.543-3.013v-2.955q2.485,0,2.543-2.841V129.69a6.69,6.69,0,0,1,1.285-4.269,7.247,7.247,0,0,1,3.855-2.356l.8,2.3a3.018,3.018,0,0,0-1.643,1.392,5.842,5.842,0,0,0-.585,2.749v3a4.648,4.648,0,0,1-2.555,4.526,4.688,4.688,0,0,1,2.555,4.555v3.027q.071,3.341,2.227,4.083Z" transform="translate(415.688 2947.914)" fill="#ecd458"/>
    <path id="Trazado_655362" data-name="Trazado 655362" d="M588.382,148.693q2.17-.77,2.227-4.141v-3.027a4.546,4.546,0,0,1,2.613-4.483,4.6,4.6,0,0,1-2.613-4.555V129.5q-.057-3.328-2.227-4.141l.8-2.3a7.187,7.187,0,0,1,3.841,2.333,6.7,6.7,0,0,1,1.3,4.247v3.07q.057,2.841,2.543,2.841v2.956q-2.542,0-2.543,2.984v3.1a6.316,6.316,0,0,1-5.14,6.411Z" transform="translate(539.639 2947.914)" fill="#ecd458"/>
    <path id="Trazado_655363" data-name="Trazado 655363" d="M259.4,143.374a2.078,2.078,0,0,1,.664-1.6,2.579,2.579,0,0,1,3.341,0,2.078,2.078,0,0,1,.664,1.6,2.05,2.05,0,0,1-.651,1.578,2.621,2.621,0,0,1-3.356,0,2.048,2.048,0,0,1-.661-1.578m0-11.7a2.078,2.078,0,0,1,.664-1.6,2.579,2.579,0,0,1,3.341,0,2.078,2.078,0,0,1,.664,1.6,2.05,2.05,0,0,1-.651,1.58,2.625,2.625,0,0,1-3.356,0,2.047,2.047,0,0,1-.661-1.576Z" transform="translate(450.38 2949.65)" fill="#d4d4d4"/>
    <path id="Trazado_655364" data-name="Trazado 655364" d="M487.4,143.374a2.078,2.078,0,0,1,.664-1.6,2.579,2.579,0,0,1,3.341,0,2.078,2.078,0,0,1,.664,1.6,2.05,2.05,0,0,1-.651,1.578,2.621,2.621,0,0,1-3.356,0,2.048,2.048,0,0,1-.661-1.578m0-11.7a2.078,2.078,0,0,1,.664-1.6,2.579,2.579,0,0,1,3.341,0,2.078,2.078,0,0,1,.664,1.6,2.05,2.05,0,0,1-.651,1.58,2.625,2.625,0,0,1-3.356,0,2.047,2.047,0,0,1-.661-1.576Z" transform="translate(512.24 2949.65)" fill="#d4d4d4"/>
    <path id="Trazado_655365" data-name="Trazado 655365" d="M331.368,130.681a2.078,2.078,0,0,1,.664-1.6,2.579,2.579,0,0,1,3.341,0,2.078,2.078,0,0,1,.664,1.6,2.048,2.048,0,0,1-.657,1.578,2.623,2.623,0,0,1-3.355,0,2.051,2.051,0,0,1-.656-1.578m1.428,18.933-2.156-1.129.509-.928a7.422,7.422,0,0,0,.99-3.469v-3.2h3.485l-.015,2.855a7.411,7.411,0,0,1-.8,3.2,8.214,8.214,0,0,1-2.012,2.67" transform="translate(469.708 2949.38)" fill="#d4d4d4"/>
    <path id="Trazado_655366" data-name="Trazado 655366" d="M559.368,130.681a2.078,2.078,0,0,1,.664-1.6,2.579,2.579,0,0,1,3.341,0,2.078,2.078,0,0,1,.664,1.6,2.048,2.048,0,0,1-.657,1.578,2.623,2.623,0,0,1-3.355,0,2.051,2.051,0,0,1-.656-1.578m1.428,18.933-2.156-1.129.508-.928a7.42,7.42,0,0,0,.99-3.469v-3.2h3.485l-.015,2.855a7.412,7.412,0,0,1-.8,3.2,8.214,8.214,0,0,1-2.013,2.67" transform="translate(531.569 2949.38)" fill="#d4d4d4"/>
    <path id="Trazado_655367" data-name="Trazado 655367" d="M150.854,117.368,152.8,118.5a7.623,7.623,0,0,0-1.271,3.941v2.384h-3.266v-2.142a6.5,6.5,0,0,1,.75-2.863,7.469,7.469,0,0,1,1.846-2.447m4.9,0,1.941,1.128a7.622,7.622,0,0,0-1.271,3.941v2.384h-3.266v-2.142a6.5,6.5,0,0,1,.75-2.863,7.459,7.459,0,0,1,1.849-2.447Z" transform="translate(420.225 2946.369)" fill="#ecd458"/>
    <path id="Trazado_655368" data-name="Trazado 655368" d="M573.75,126.274l-1.941-1.128a7.626,7.626,0,0,0,1.271-3.983v-2.416h3.282v2.213a6.515,6.515,0,0,1-.714,2.784,7.65,7.65,0,0,1-1.9,2.529m4.958,0-1.941-1.128a7.624,7.624,0,0,0,1.271-3.983v-2.416h3.279v2.213a6.517,6.517,0,0,1-.714,2.784,7.649,7.649,0,0,1-1.9,2.529Z" transform="translate(535.142 2946.743)" fill="#ecd458"/>
    <path id="Trazado_655369" data-name="Trazado 655369" d="M359.995,140.034v5.1h-2.979V130.669h5.641a6.532,6.532,0,0,1,2.866.6,4.387,4.387,0,0,1,1.9,1.693,4.718,4.718,0,0,1,.665,2.5,4.152,4.152,0,0,1-1.451,3.351,6.063,6.063,0,0,1-4.028,1.227Zm0-2.415h2.662a2.614,2.614,0,0,0,1.8-.556,2.021,2.021,0,0,0,.62-1.589,2.387,2.387,0,0,0-.626-1.719,2.336,2.336,0,0,0-1.728-.675h-2.732Zm15.495,2.217h-2.374v5.294h-2.98V130.669h5.374a6.071,6.071,0,0,1,3.953,1.144,3.94,3.94,0,0,1,1.391,3.228,4.446,4.446,0,0,1-.641,2.461,4.364,4.364,0,0,1-1.941,1.574l3.134,5.915v.139h-3.2Zm-2.374-2.415h2.4a2.457,2.457,0,0,0,1.738-.571,2.039,2.039,0,0,0,.615-1.574,2.185,2.185,0,0,0-.581-1.609,2.414,2.414,0,0,0-1.78-.586h-2.4Zm21.881.8a8.735,8.735,0,0,1-.751,3.747,5.689,5.689,0,0,1-2.161,2.483,6.379,6.379,0,0,1-6.43.01A5.742,5.742,0,0,1,383.465,142a8.463,8.463,0,0,1-.784-3.687v-.718a8.684,8.684,0,0,1,.769-3.759,5.723,5.723,0,0,1,2.175-2.493,6.369,6.369,0,0,1,6.425,0,5.724,5.724,0,0,1,2.175,2.493,8.659,8.659,0,0,1,.769,3.749Zm-3.019-.656a6.091,6.091,0,0,0-.815-3.457,2.876,2.876,0,0,0-4.638-.015,6.018,6.018,0,0,0-.824,3.421v.706a6.164,6.164,0,0,0,.815,3.433,2.853,2.853,0,0,0,4.649.044,6.123,6.123,0,0,0,.815-3.433Zm8.164,2.464v5.1h-2.98V130.669H402.8a6.532,6.532,0,0,1,2.866.6,4.386,4.386,0,0,1,1.907,1.693,4.713,4.713,0,0,1,.653,2.5,4.151,4.151,0,0,1-1.449,3.351,6.063,6.063,0,0,1-4.028,1.227Zm0-2.416H402.8a2.614,2.614,0,0,0,1.8-.556,2.021,2.021,0,0,0,.62-1.589,2.387,2.387,0,0,0-.625-1.719,2.336,2.336,0,0,0-1.728-.675h-2.732Zm13.308,7.512h-2.979V130.669h2.98Zm11.462-6.287h-5.721v3.894h6.71v2.393h-9.69V130.669h9.673v2.416h-6.694v3.447h5.721Zm2.741,6.287V130.669h4.45a6.756,6.756,0,0,1,3.412.859,5.99,5.99,0,0,1,2.349,2.443,7.543,7.543,0,0,1,.844,3.6v.665a7.57,7.57,0,0,1-.829,3.585,5.933,5.933,0,0,1-2.339,2.433,6.8,6.8,0,0,1-3.41.875Zm2.98-12.048v9.654h1.44a3.234,3.234,0,0,0,2.67-1.144,5.158,5.158,0,0,0,.943-3.267v-.763a5.244,5.244,0,0,0-.914-3.342,3.228,3.228,0,0,0-2.67-1.138Zm18.2,9.068H443.6l-.993,2.98h-3.168l5.383-14.461h2.761L453,145.13h-3.169Zm-4.42-2.416h3.614l-1.815-5.411Zm9.943,5.4V130.669h4.45a6.756,6.756,0,0,1,3.412.859,5.99,5.99,0,0,1,2.349,2.443,7.543,7.543,0,0,1,.844,3.6v.665a7.57,7.57,0,0,1-.829,3.585,5.933,5.933,0,0,1-2.339,2.433,6.8,6.8,0,0,1-3.41.875Zm2.98-12.048v9.654h1.44a3.234,3.234,0,0,0,2.67-1.144,5.158,5.158,0,0,0,.943-3.267v-.763a5.244,5.244,0,0,0-.914-3.342,3.228,3.228,0,0,0-2.67-1.138Zm15.305,12.048V130.669h4.45a6.756,6.756,0,0,1,3.412.859,5.99,5.99,0,0,1,2.349,2.443,7.544,7.544,0,0,1,.844,3.6v.665a7.567,7.567,0,0,1-.835,3.588,5.932,5.932,0,0,1-2.339,2.433,6.809,6.809,0,0,1-3.4.872Zm2.974-12.048v9.654h1.44a3.234,3.234,0,0,0,2.67-1.144,5.158,5.158,0,0,0,.943-3.267v-.763a5.244,5.244,0,0,0-.914-3.342,3.228,3.228,0,0,0-2.67-1.138Zm22.121,5.145a8.729,8.729,0,0,1-.755,3.744,5.689,5.689,0,0,1-2.161,2.483,6.379,6.379,0,0,1-6.43.01A5.745,5.745,0,0,1,486.2,142a8.48,8.48,0,0,1-.784-3.687v-.718a8.684,8.684,0,0,1,.769-3.759,5.723,5.723,0,0,1,2.175-2.493,6.369,6.369,0,0,1,6.425,0,5.729,5.729,0,0,1,2.184,2.493,8.658,8.658,0,0,1,.769,3.749Zm-3.019-.656a6.092,6.092,0,0,0-.815-3.457,2.876,2.876,0,0,0-4.638-.015,6.018,6.018,0,0,0-.824,3.421v.706a6.166,6.166,0,0,0,.815,3.433,2.853,2.853,0,0,0,4.649.044,6.124,6.124,0,0,0,.815-3.433Zm12.681,3.766a1.528,1.528,0,0,0-.59-1.292,7.839,7.839,0,0,0-2.145-.953,15.112,15.112,0,0,1-2.454-.988,4.008,4.008,0,0,1-2.463-3.585,3.5,3.5,0,0,1,.659-2.1,4.315,4.315,0,0,1,1.9-1.435,7.158,7.158,0,0,1,2.777-.516,6.491,6.491,0,0,1,2.761.561,4.394,4.394,0,0,1,1.882,1.584,4.149,4.149,0,0,1,.67,2.324h-2.98a1.948,1.948,0,0,0-.626-1.545,2.57,2.57,0,0,0-1.758-.552,2.751,2.751,0,0,0-1.7.469,1.457,1.457,0,0,0-.606,1.217,1.4,1.4,0,0,0,.711,1.182,8.017,8.017,0,0,0,2.091.89,9.044,9.044,0,0,1,3.7,1.9,3.779,3.779,0,0,1,1.163,2.824,3.48,3.48,0,0,1-1.42,2.944,6.221,6.221,0,0,1-3.824,1.068,7.392,7.392,0,0,1-3.04-.61,4.81,4.81,0,0,1-2.085-1.674,4.284,4.284,0,0,1-.72-2.463h2.99q0,2.393,2.86,2.394a2.78,2.78,0,0,0,1.653-.432,1.4,1.4,0,0,0,.59-1.206" transform="translate(476.865 2949.922)" fill="#3ccdc5"/>
    <path id="Trazado_655370" data-name="Trazado 655370" d="M278.62,141.544l3.281-10.876h3.317l-5.039,14.461H277.07l-5.015-14.461h3.305ZM294,142.15h-5.229l-.989,2.979h-3.168l5.383-14.461h2.761l5.413,14.461H295Zm-4.42-2.415h3.616l-1.818-5.412Zm12.922,3h6.327v2.394h-9.306V130.668H302.5Zm19.278-4.509a8.727,8.727,0,0,1-.755,3.744,5.689,5.689,0,0,1-2.161,2.483,6.379,6.379,0,0,1-6.43.01A5.745,5.745,0,0,1,310.243,142a8.462,8.462,0,0,1-.784-3.687v-.718a8.685,8.685,0,0,1,.769-3.759,5.723,5.723,0,0,1,2.175-2.493,6.369,6.369,0,0,1,6.425,0A5.723,5.723,0,0,1,321,133.831a8.657,8.657,0,0,1,.769,3.749Zm-3.019-.656a6.091,6.091,0,0,0-.815-3.457,2.876,2.876,0,0,0-4.638-.015,6.018,6.018,0,0,0-.824,3.421v.706a6.165,6.165,0,0,0,.815,3.433,2.853,2.853,0,0,0,4.649.044,6.123,6.123,0,0,0,.815-3.433Zm10.538,2.264H326.92v5.3h-2.98V130.668h5.374a6.071,6.071,0,0,1,3.953,1.144,3.939,3.939,0,0,1,1.395,3.227,4.454,4.454,0,0,1-.645,2.463,4.364,4.364,0,0,1-1.941,1.574l3.129,5.915v.139h-3.2Zm-2.374-2.416h2.4a2.457,2.457,0,0,0,1.738-.571,2.04,2.04,0,0,0,.615-1.574,2.188,2.188,0,0,0-.573-1.607,2.415,2.415,0,0,0-1.78-.586h-2.4Z" transform="translate(453.813 2949.923)" fill="#f0ab0a"/>
    <path id="Trazado_655371" data-name="Trazado 655371" d="M506.62,141.544l3.281-10.876h3.317l-5.04,14.461H505.07l-5.015-14.461h3.305ZM522,142.15h-5.229l-.989,2.979h-3.168l5.383-14.461h2.761l5.413,14.461H523Zm-4.42-2.415h3.616l-1.818-5.412Zm12.922,3h6.327v2.394h-9.306V130.668H530.5Zm19.278-4.509a8.729,8.729,0,0,1-.755,3.744,5.689,5.689,0,0,1-2.161,2.483,6.379,6.379,0,0,1-6.43.01A5.745,5.745,0,0,1,538.243,142a8.461,8.461,0,0,1-.784-3.687v-.718a8.685,8.685,0,0,1,.769-3.759,5.723,5.723,0,0,1,2.175-2.493,6.369,6.369,0,0,1,6.425,0A5.724,5.724,0,0,1,549,133.831a8.658,8.658,0,0,1,.769,3.749Zm-3.019-.656a6.091,6.091,0,0,0-.815-3.457,2.876,2.876,0,0,0-4.638-.015,6.018,6.018,0,0,0-.824,3.421v.706a6.165,6.165,0,0,0,.815,3.433,2.853,2.853,0,0,0,4.649.044,6.123,6.123,0,0,0,.815-3.433Zm10.538,2.264H554.92v5.3h-2.98V130.668h5.374a6.071,6.071,0,0,1,3.953,1.144,3.939,3.939,0,0,1,1.395,3.227,4.455,4.455,0,0,1-.645,2.463,4.364,4.364,0,0,1-1.941,1.574l3.129,5.915v.139h-3.2Zm-2.374-2.416h2.4a2.457,2.457,0,0,0,1.738-.571,2.039,2.039,0,0,0,.615-1.574,2.188,2.188,0,0,0-.573-1.607,2.414,2.414,0,0,0-1.78-.586h-2.4Z" transform="translate(515.674 2949.923)" fill="#f0ab0a"/>
    <path id="Trazado_655373" data-name="Trazado 655373" d="M0,0H218.667" transform="translate(589.132 3032.248)" fill="#fff"/>
    <path id="Trazado_655374" data-name="Trazado 655374" d="M0,0H218.667" transform="translate(589.132 3032.248)" fill="none" stroke="#fff" stroke-width="2"/>
    <path id="Trazado_655375" data-name="Trazado 655375" d="M0,0H256.806" transform="translate(832.589 3032.248)" fill="#fff"/>
    <path id="Trazado_655376" data-name="Trazado 655376" d="M0,0H256.806" transform="translate(832.589 3032.248)" fill="none" stroke="#fff" stroke-width="2"/>
    <path id="Trazado_655377" data-name="Trazado 655377" d="M0,21.7V0" transform="translate(803.343 3110.831)" fill="#fff"/>
    <path id="Trazado_655378" data-name="Trazado 655378" d="M0,21.7V0" transform="translate(803.343 3110.831)" fill="none" stroke="#fff" stroke-width="2"/>
    <path id="Trazado_655379" data-name="Trazado 655379" d="M0,21.7V0" transform="translate(1093.204 3110.831)" fill="#fff"/>
    <path id="Trazado_655380" data-name="Trazado 655380" d="M0,21.7V0" transform="translate(1093.204 3110.831)" fill="none" stroke="#fff" stroke-width="2"/>
    <path id="Trazado_655381" data-name="Trazado 655381" d="M0,0H794V244H0Z" transform="translate(406 2954)" fill="none"/>
  </g>
</svg>
