<svg xmlns="http://www.w3.org/2000/svg" xmlns:xlink="http://www.w3.org/1999/xlink" width="1258" height="350" viewBox="0 0 1258 350">
  <defs>
    <filter id="Trazado_655372" x="0" y="247" width="127" height="103" filterUnits="userSpaceOnUse">
      <feOffset dy="3" input="SourceAlpha"/>
      <feGaussianBlur stdDeviation="3" result="blur"/>
      <feFlood flood-opacity="0.161"/>
      <feComposite operator="in" in2="blur"/>
      <feComposite in="SourceGraphic"/>
    </filter>
    <filter id="Trazado_655373" x="505" y="247" width="126" height="103" filterUnits="userSpaceOnUse">
      <feOffset dy="3" input="SourceAlpha"/>
      <feGaussianBlur stdDeviation="3" result="blur-2"/>
      <feFlood flood-opacity="0.161"/>
      <feComposite operator="in" in2="blur-2"/>
      <feComposite in="SourceGraphic"/>
    </filter>
    <filter id="Trazado_655374" x="252" y="247" width="129" height="103" filterUnits="userSpaceOnUse">
      <feOffset dy="3" input="SourceAlpha"/>
      <feGaussianBlur stdDeviation="3" result="blur-3"/>
      <feFlood flood-opacity="0.161"/>
      <feComposite operator="in" in2="blur-3"/>
      <feComposite in="SourceGraphic"/>
    </filter>
    <filter id="Trazado_655375" x="1002" y="247" width="129" height="103" filterUnits="userSpaceOnUse">
      <feOffset dy="3" input="SourceAlpha"/>
      <feGaussianBlur stdDeviation="3" result="blur-4"/>
      <feFlood flood-opacity="0.161"/>
      <feComposite operator="in" in2="blur-4"/>
      <feComposite in="SourceGraphic"/>
    </filter>
    <filter id="Trazado_655376" x="125" y="247" width="129" height="103" filterUnits="userSpaceOnUse">
      <feOffset dy="3" input="SourceAlpha"/>
      <feGaussianBlur stdDeviation="3" result="blur-5"/>
      <feFlood flood-opacity="0.161"/>
      <feComposite operator="in" in2="blur-5"/>
      <feComposite in="SourceGraphic"/>
    </filter>
    <filter id="Trazado_655377" x="629" y="247" width="126" height="103" filterUnits="userSpaceOnUse">
      <feOffset dy="3" input="SourceAlpha"/>
      <feGaussianBlur stdDeviation="3" result="blur-6"/>
      <feFlood flood-opacity="0.161"/>
      <feComposite operator="in" in2="blur-6"/>
      <feComposite in="SourceGraphic"/>
    </filter>
    <filter id="Trazado_655378" x="877" y="247" width="128" height="103" filterUnits="userSpaceOnUse">
      <feOffset dy="3" input="SourceAlpha"/>
      <feGaussianBlur stdDeviation="3" result="blur-7"/>
      <feFlood flood-opacity="0.161"/>
      <feComposite operator="in" in2="blur-7"/>
      <feComposite in="SourceGraphic"/>
    </filter>
    <filter id="Trazado_655379" x="380" y="247" width="128" height="103" filterUnits="userSpaceOnUse">
      <feOffset dy="3" input="SourceAlpha"/>
      <feGaussianBlur stdDeviation="3" result="blur-8"/>
      <feFlood flood-opacity="0.161"/>
      <feComposite operator="in" in2="blur-8"/>
      <feComposite in="SourceGraphic"/>
    </filter>
    <filter id="Trazado_655380" x="752" y="247" width="127" height="103" filterUnits="userSpaceOnUse">
      <feOffset dy="3" input="SourceAlpha"/>
      <feGaussianBlur stdDeviation="3" result="blur-9"/>
      <feFlood flood-opacity="0.161"/>
      <feComposite operator="in" in2="blur-9"/>
      <feComposite in="SourceGraphic"/>
    </filter>
    <filter id="Trazado_655381" x="1129" y="247" width="129" height="103" filterUnits="userSpaceOnUse">
      <feOffset dy="3" input="SourceAlpha"/>
      <feGaussianBlur stdDeviation="3" result="blur-10"/>
      <feFlood flood-opacity="0.161"/>
      <feComposite operator="in" in2="blur-10"/>
      <feComposite in="SourceGraphic"/>
    </filter>
    <filter id="Trazado_655402" x="539" y="0" width="207" height="93" filterUnits="userSpaceOnUse">
      <feOffset dy="3" input="SourceAlpha"/>
      <feGaussianBlur stdDeviation="3" result="blur-11"/>
      <feFlood flood-opacity="0.161"/>
      <feComposite operator="in" in2="blur-11"/>
      <feComposite in="SourceGraphic"/>
    </filter>
    <filter id="Trazado_655404" x="539" y="90" width="207" height="92" filterUnits="userSpaceOnUse">
      <feOffset dy="3" input="SourceAlpha"/>
      <feGaussianBlur stdDeviation="3" result="blur-12"/>
      <feFlood flood-opacity="0.161"/>
      <feComposite operator="in" in2="blur-12"/>
      <feComposite in="SourceGraphic"/>
    </filter>
  </defs>
  <g id="Grupo_981172" data-name="Grupo 981172" transform="translate(-171 -2460)">
    <g transform="matrix(1, 0, 0, 1, 171, 2460)" filter="url(#Trazado_655372)">
      <path id="Trazado_655372-2" data-name="Trazado 655372" d="M10,0H99a10,10,0,0,1,10,10V75A10,10,0,0,1,99,85H10A10,10,0,0,1,0,75V10A10,10,0,0,1,10,0Z" transform="translate(9 253)" fill="#4adbd1"/>
    </g>
    <g transform="matrix(1, 0, 0, 1, 171, 2460)" filter="url(#Trazado_655373)">
      <path id="Trazado_655373-2" data-name="Trazado 655373" d="M10,0H98a10,10,0,0,1,10,10V75A10,10,0,0,1,98,85H10A10,10,0,0,1,0,75V10A10,10,0,0,1,10,0Z" transform="translate(514 253)" fill="#4adbd1"/>
    </g>
    <g transform="matrix(1, 0, 0, 1, 171, 2460)" filter="url(#Trazado_655374)">
      <path id="Trazado_655374-2" data-name="Trazado 655374" d="M10,0h91a10,10,0,0,1,10,10V75a10,10,0,0,1-10,10H10A10,10,0,0,1,0,75V10A10,10,0,0,1,10,0Z" transform="translate(261 253)" fill="#4adbd1"/>
    </g>
    <g transform="matrix(1, 0, 0, 1, 171, 2460)" filter="url(#Trazado_655375)">
      <path id="Trazado_655375-2" data-name="Trazado 655375" d="M10,0h91a10,10,0,0,1,10,10V75a10,10,0,0,1-10,10H10A10,10,0,0,1,0,75V10A10,10,0,0,1,10,0Z" transform="translate(1011 253)" fill="#4adbd1"/>
    </g>
    <g transform="matrix(1, 0, 0, 1, 171, 2460)" filter="url(#Trazado_655376)">
      <path id="Trazado_655376-2" data-name="Trazado 655376" d="M10,0h91a10,10,0,0,1,10,10V75a10,10,0,0,1-10,10H10A10,10,0,0,1,0,75V10A10,10,0,0,1,10,0Z" transform="translate(134 253)" fill="#4adbd1"/>
    </g>
    <g transform="matrix(1, 0, 0, 1, 171, 2460)" filter="url(#Trazado_655377)">
      <path id="Trazado_655377-2" data-name="Trazado 655377" d="M10,0H98a10,10,0,0,1,10,10V75A10,10,0,0,1,98,85H10A10,10,0,0,1,0,75V10A10,10,0,0,1,10,0Z" transform="translate(638 253)" fill="#4adbd1"/>
    </g>
    <g transform="matrix(1, 0, 0, 1, 171, 2460)" filter="url(#Trazado_655378)">
      <path id="Trazado_655378-2" data-name="Trazado 655378" d="M10,0h90a10,10,0,0,1,10,10V75a10,10,0,0,1-10,10H10A10,10,0,0,1,0,75V10A10,10,0,0,1,10,0Z" transform="translate(886 253)" fill="#4adbd1"/>
    </g>
    <g transform="matrix(1, 0, 0, 1, 171, 2460)" filter="url(#Trazado_655379)">
      <path id="Trazado_655379-2" data-name="Trazado 655379" d="M10,0h90a10,10,0,0,1,10,10V75a10,10,0,0,1-10,10H10A10,10,0,0,1,0,75V10A10,10,0,0,1,10,0Z" transform="translate(389 253)" fill="#4adbd1"/>
    </g>
    <g transform="matrix(1, 0, 0, 1, 171, 2460)" filter="url(#Trazado_655380)">
      <path id="Trazado_655380-2" data-name="Trazado 655380" d="M10,0H99a10,10,0,0,1,10,10V75A10,10,0,0,1,99,85H10A10,10,0,0,1,0,75V10A10,10,0,0,1,10,0Z" transform="translate(761 253)" fill="#4adbd1"/>
    </g>
    <g transform="matrix(1, 0, 0, 1, 171, 2460)" filter="url(#Trazado_655381)">
      <path id="Trazado_655381-2" data-name="Trazado 655381" d="M10,0h91a10,10,0,0,1,10,10V75a10,10,0,0,1-10,10H10A10,10,0,0,1,0,75V10A10,10,0,0,1,10,0Z" transform="translate(1138 253)" fill="#4adbd1"/>
    </g>
    <path id="Trazado_655382" data-name="Trazado 655382" d="M5.328,15H2.935V5.047H5.328ZM9.005,7.6l.075.868a2.508,2.508,0,0,1,2.112-1,2.11,2.11,0,0,1,1.726.69,3.287,3.287,0,0,1,.591,2.078V15H11.2V10.331a1.248,1.248,0,0,0-.226-.824,1.044,1.044,0,0,0-.82-.263,1.1,1.1,0,0,0-1,.533V15h-2.3V7.6Zm5.489,3.644a4.518,4.518,0,0,1,.759-2.769,2.5,2.5,0,0,1,2.119-1.012,2.124,2.124,0,0,1,1.668.779V4.5h2.311V15H19.28l-.116-.793a2.181,2.181,0,0,1-1.8.93,2.493,2.493,0,0,1-2.092-1.012A4.662,4.662,0,0,1,14.495,11.247Zm2.3.144q0,1.969,1.148,1.969a1.134,1.134,0,0,0,1.094-.643V9.9a1.1,1.1,0,0,0-1.08-.656q-1.066,0-1.155,1.723Zm9.44,3.746a3.8,3.8,0,0,1-2.755-1.015,3.506,3.506,0,0,1-1.053-2.642v-.191a4.542,4.542,0,0,1,.42-2,3.076,3.076,0,0,1,1.227-1.343,3.7,3.7,0,0,1,1.914-.475,3.2,3.2,0,0,1,2.461.967,3.8,3.8,0,0,1,.9,2.7v.9h-4.58a1.66,1.66,0,0,0,.54.978,1.607,1.607,0,0,0,1.08.355,2.07,2.07,0,0,0,1.709-.766l1.053,1.244a2.943,2.943,0,0,1-1.22.947A4.124,4.124,0,0,1,26.239,15.137Zm-.26-5.893q-1.012,0-1.2,1.34H27.1v-.178a1.141,1.141,0,0,0-.28-.858A1.115,1.115,0,0,0,25.979,9.244Zm11.17,2.112a4.46,4.46,0,0,1-.776,2.751,2.488,2.488,0,0,1-2.1,1.029,2.132,2.132,0,0,1-1.675-.745v3.452H30.3V7.6h2.153l.068.684a2.132,2.132,0,0,1,1.743-.82A2.508,2.508,0,0,1,36.39,8.475a4.515,4.515,0,0,1,.759,2.772Zm-2.3-.144q0-1.969-1.148-1.969a1.084,1.084,0,0,0-1.094.588v2.912a1.119,1.119,0,0,0,1.107.615q1.1,0,1.135-1.9Zm6.9,3.924a3.8,3.8,0,0,1-2.755-1.015,3.506,3.506,0,0,1-1.053-2.642v-.191a4.542,4.542,0,0,1,.42-2,3.076,3.076,0,0,1,1.227-1.343A3.7,3.7,0,0,1,41.5,7.467a3.2,3.2,0,0,1,2.461.967,3.8,3.8,0,0,1,.9,2.7v.9H40.28a1.66,1.66,0,0,0,.54.978,1.607,1.607,0,0,0,1.08.355,2.07,2.07,0,0,0,1.709-.766l1.053,1.244a2.943,2.943,0,0,1-1.22.947A4.123,4.123,0,0,1,41.743,15.137Zm-.26-5.893q-1.012,0-1.2,1.34H42.6v-.178a1.141,1.141,0,0,0-.28-.858A1.115,1.115,0,0,0,41.483,9.244ZM47.9,7.6l.075.868a2.508,2.508,0,0,1,2.112-1,2.11,2.11,0,0,1,1.726.69,3.287,3.287,0,0,1,.591,2.078V15H50.1V10.331a1.248,1.248,0,0,0-.226-.824,1.044,1.044,0,0,0-.82-.263,1.1,1.1,0,0,0-1,.533V15h-2.3V7.6Zm5.489,3.644a4.518,4.518,0,0,1,.759-2.769,2.5,2.5,0,0,1,2.119-1.012,2.124,2.124,0,0,1,1.668.779V4.5h2.311V15H58.176l-.116-.793a2.181,2.181,0,0,1-1.8.93,2.493,2.493,0,0,1-2.092-1.012A4.662,4.662,0,0,1,53.391,11.247Zm2.3.144q0,1.969,1.148,1.969a1.134,1.134,0,0,0,1.094-.643V9.9a1.1,1.1,0,0,0-1.08-.656q-1.066,0-1.155,1.723Zm9.44,3.746a3.8,3.8,0,0,1-2.755-1.015,3.506,3.506,0,0,1-1.053-2.642v-.191a4.542,4.542,0,0,1,.42-2,3.076,3.076,0,0,1,1.227-1.343,3.7,3.7,0,0,1,1.914-.475,3.2,3.2,0,0,1,2.461.967,3.8,3.8,0,0,1,.9,2.7v.9h-4.58a1.66,1.66,0,0,0,.54.978,1.607,1.607,0,0,0,1.08.355A2.07,2.07,0,0,0,67,12.594l1.053,1.244a2.943,2.943,0,0,1-1.22.947A4.124,4.124,0,0,1,65.135,15.137Zm-.26-5.893q-1.012,0-1.2,1.34H66v-.178a1.141,1.141,0,0,0-.28-.858A1.115,1.115,0,0,0,64.875,9.244ZM71.294,7.6l.075.868a2.508,2.508,0,0,1,2.112-1,2.11,2.11,0,0,1,1.726.69,3.287,3.287,0,0,1,.591,2.078V15H73.489V10.331a1.248,1.248,0,0,0-.226-.824,1.044,1.044,0,0,0-.82-.263,1.1,1.1,0,0,0-1,.533V15h-2.3V7.6ZM80.2,13.359a1.025,1.025,0,0,0,.752-.263.965.965,0,0,0,.26-.735h2.16a2.557,2.557,0,0,1-.872,2,3.242,3.242,0,0,1-2.246.779,3.282,3.282,0,0,1-2.543-1.012,3.986,3.986,0,0,1-.93-2.8v-.1A4.505,4.505,0,0,1,77.2,9.248,3.011,3.011,0,0,1,78.39,7.928a3.557,3.557,0,0,1,1.846-.461,3.2,3.2,0,0,1,2.29.8,2.837,2.837,0,0,1,.848,2.167h-2.16a1.265,1.265,0,0,0-.28-.882.967.967,0,0,0-.752-.308q-.9,0-1.046,1.142a8.056,8.056,0,0,0-.048,1,3.164,3.164,0,0,0,.267,1.545A.923.923,0,0,0,80.2,13.359ZM86.778,15H84.467V7.6h2.311ZM84.331,5.7a1.028,1.028,0,0,1,.355-.807,1.511,1.511,0,0,1,1.846,0,1.028,1.028,0,0,1,.355.807,1.028,1.028,0,0,1-.355.807,1.511,1.511,0,0,1-1.846,0A1.028,1.028,0,0,1,84.331,5.7ZM92.363,15a2.6,2.6,0,0,1-.219-.663,2.142,2.142,0,0,1-1.777.8,2.624,2.624,0,0,1-1.777-.632,2.013,2.013,0,0,1-.731-1.589,2.069,2.069,0,0,1,.889-1.818,4.527,4.527,0,0,1,2.584-.615h.711V10.09q0-1.023-.882-1.023a.721.721,0,0,0-.82.811h-2.3a2.065,2.065,0,0,1,.913-1.741,3.835,3.835,0,0,1,2.328-.669,3.363,3.363,0,0,1,2.235.69,2.4,2.4,0,0,1,.841,1.894v3.274a3.353,3.353,0,0,0,.314,1.559V15ZM90.92,13.5a1.285,1.285,0,0,0,.714-.185,1.157,1.157,0,0,0,.407-.417V11.712h-.67q-1.2,0-1.2,1.08a.659.659,0,0,0,.212.509A.767.767,0,0,0,90.92,13.5ZM5.492,39.137a3.8,3.8,0,0,1-2.755-1.015,3.506,3.506,0,0,1-1.053-2.642v-.191a4.542,4.542,0,0,1,.42-2,3.076,3.076,0,0,1,1.227-1.343,3.7,3.7,0,0,1,1.914-.475,3.2,3.2,0,0,1,2.461.967,3.8,3.8,0,0,1,.9,2.7v.9H4.029a1.66,1.66,0,0,0,.54.978,1.607,1.607,0,0,0,1.08.355,2.07,2.07,0,0,0,1.709-.766l1.053,1.244a2.943,2.943,0,0,1-1.22.947A4.124,4.124,0,0,1,5.492,39.137Zm-.26-5.893q-1.012,0-1.2,1.34H6.353v-.178a1.141,1.141,0,0,0-.28-.858A1.115,1.115,0,0,0,5.232,33.244ZM11.651,31.6l.075.868a2.508,2.508,0,0,1,2.112-1,2.11,2.11,0,0,1,1.726.69,3.287,3.287,0,0,1,.591,2.078V39H13.845V34.331a1.248,1.248,0,0,0-.226-.824,1.044,1.044,0,0,0-.82-.263,1.1,1.1,0,0,0-1,.533V39h-2.3V31.6Zm8.463-1.839V31.6h1.217v1.6H20.114v3.384a.864.864,0,0,0,.15.581.807.807,0,0,0,.595.164,3.38,3.38,0,0,0,.574-.041v1.647a4.252,4.252,0,0,1-1.3.2,2.413,2.413,0,0,1-1.757-.561,2.3,2.3,0,0,1-.567-1.7V33.2h-.943V31.6h.943V29.765Zm6.6,3.924-.759-.055a1.363,1.363,0,0,0-1.395.684V39h-2.3V31.6h2.16l.075.95a1.784,1.784,0,0,1,1.62-1.087,2.247,2.247,0,0,1,.643.082Zm4.409,5.448a3.8,3.8,0,0,1-2.755-1.015,3.506,3.506,0,0,1-1.053-2.642v-.191a4.542,4.542,0,0,1,.42-2,3.076,3.076,0,0,1,1.227-1.343,3.7,3.7,0,0,1,1.914-.475,3.2,3.2,0,0,1,2.461.967,3.8,3.8,0,0,1,.9,2.7v.9h-4.58A1.66,1.66,0,0,0,30.2,37a1.607,1.607,0,0,0,1.08.355,2.07,2.07,0,0,0,1.709-.766l1.053,1.244a2.943,2.943,0,0,1-1.22.947A4.124,4.124,0,0,1,31.12,39.137Zm-.26-5.893q-1.012,0-1.2,1.34h2.324v-.178a1.141,1.141,0,0,0-.28-.858A1.115,1.115,0,0,0,30.86,33.244Zm11.368,5.893a3.8,3.8,0,0,1-2.755-1.015,3.506,3.506,0,0,1-1.053-2.642v-.191a4.542,4.542,0,0,1,.42-2,3.076,3.076,0,0,1,1.227-1.343,3.7,3.7,0,0,1,1.914-.475,3.2,3.2,0,0,1,2.461.967,3.8,3.8,0,0,1,.9,2.7v.9h-4.58a1.66,1.66,0,0,0,.54.978,1.607,1.607,0,0,0,1.08.355,2.07,2.07,0,0,0,1.709-.766l1.053,1.244a2.943,2.943,0,0,1-1.22.947A4.124,4.124,0,0,1,42.228,39.137Zm-.26-5.893q-1.012,0-1.2,1.34h2.324v-.178a1.141,1.141,0,0,0-.28-.858A1.115,1.115,0,0,0,41.968,33.244ZM48.7,39H46.391V28.5H48.7Zm8.032-1.641a1.025,1.025,0,0,0,.752-.263.965.965,0,0,0,.26-.735h2.16a2.557,2.557,0,0,1-.872,2,3.242,3.242,0,0,1-2.246.779,3.282,3.282,0,0,1-2.543-1.012,3.986,3.986,0,0,1-.93-2.8v-.1a4.505,4.505,0,0,1,.414-1.979,3.011,3.011,0,0,1,1.193-1.319,3.557,3.557,0,0,1,1.846-.461,3.2,3.2,0,0,1,2.29.8,2.837,2.837,0,0,1,.848,2.167h-2.16a1.265,1.265,0,0,0-.28-.882.967.967,0,0,0-.752-.308q-.9,0-1.046,1.142a8.055,8.055,0,0,0-.048,1,3.164,3.164,0,0,0,.267,1.545A.923.923,0,0,0,56.734,37.359Zm3.855-2.126a4.366,4.366,0,0,1,.431-1.972,3.08,3.08,0,0,1,1.237-1.33,3.726,3.726,0,0,1,1.894-.465A3.4,3.4,0,0,1,66.769,32.5a3.948,3.948,0,0,1,.957,2.8v.082a3.83,3.83,0,0,1-.96,2.745,3.41,3.41,0,0,1-2.6,1.015,3.449,3.449,0,0,1-2.536-.947A3.7,3.7,0,0,1,60.6,35.623Zm2.3.144a2.752,2.752,0,0,0,.321,1.5,1.07,1.07,0,0,0,.95.479q1.23,0,1.258-1.894v-.232q0-1.989-1.271-1.989Q63,33.244,62.9,34.96ZM64.465,28.5H66.9L65,30.646l-1.88,0Zm3.985,6.747a4.518,4.518,0,0,1,.759-2.769,2.5,2.5,0,0,1,2.119-1.012A2.124,2.124,0,0,1,73,32.246V28.5h2.311V39H73.236l-.116-.793a2.181,2.181,0,0,1-1.8.93,2.493,2.493,0,0,1-2.092-1.012A4.661,4.661,0,0,1,68.451,35.247Zm2.3.144q0,1.969,1.148,1.969A1.134,1.134,0,0,0,73,36.717V33.9a1.1,1.1,0,0,0-1.08-.656q-1.066,0-1.155,1.723ZM79.046,39H76.736V31.6h2.311ZM76.6,29.7a1.028,1.028,0,0,1,.355-.807,1.511,1.511,0,0,1,1.846,0,1.093,1.093,0,0,1,0,1.613,1.511,1.511,0,0,1-1.846,0A1.028,1.028,0,0,1,76.6,29.7Zm3.6,5.551a4.994,4.994,0,0,1,.369-1.982,2.972,2.972,0,0,1,1.06-1.33,2.793,2.793,0,0,1,1.606-.468,2.221,2.221,0,0,1,1.8.779l.082-.643h2.092V38.72a3.118,3.118,0,0,1-.455,1.7,2.917,2.917,0,0,1-1.316,1.107,4.837,4.837,0,0,1-2,.386,4.173,4.173,0,0,1-1.576-.308,2.844,2.844,0,0,1-1.166-.8l.964-1.354a2.112,2.112,0,0,0,1.7.759,1.372,1.372,0,0,0,1.531-1.572v-.232a2.163,2.163,0,0,1-1.675.731A2.673,2.673,0,0,1,81.029,38.1a4.291,4.291,0,0,1-.834-2.772Zm2.311.144a2.631,2.631,0,0,0,.342,1.439,1.078,1.078,0,0,0,.957.53,1.224,1.224,0,0,0,1.087-.5V33.75a1.193,1.193,0,0,0-1.073-.506,1.086,1.086,0,0,0-.964.55A3,3,0,0,0,82.505,35.391Zm5.722-.157a4.366,4.366,0,0,1,.431-1.972,3.08,3.08,0,0,1,1.237-1.33,3.726,3.726,0,0,1,1.894-.465A3.4,3.4,0,0,1,94.407,32.5a3.948,3.948,0,0,1,.957,2.8v.082a3.83,3.83,0,0,1-.96,2.745,3.41,3.41,0,0,1-2.6,1.015,3.449,3.449,0,0,1-2.536-.947,3.7,3.7,0,0,1-1.032-2.567Zm2.3.144a2.752,2.752,0,0,0,.321,1.5,1.07,1.07,0,0,0,.95.479q1.23,0,1.258-1.894v-.232q0-1.989-1.271-1.989-1.155,0-1.251,1.716ZM5.669,59.773,6.9,55.6H9.368L6.353,64.237l-.13.314a2.29,2.29,0,0,1-2.27,1.436A3.61,3.61,0,0,1,3,65.851V64.21h.3a1.576,1.576,0,0,0,.742-.14.851.851,0,0,0,.379-.5l.185-.493L2.04,55.6H4.5Zm11.361,3.363a3.8,3.8,0,0,1-2.755-1.015,3.506,3.506,0,0,1-1.053-2.642v-.191a4.542,4.542,0,0,1,.42-2,3.076,3.076,0,0,1,1.227-1.343,3.7,3.7,0,0,1,1.914-.475,3.2,3.2,0,0,1,2.461.967,3.8,3.8,0,0,1,.9,2.7v.9h-4.58a1.66,1.66,0,0,0,.54.978,1.607,1.607,0,0,0,1.08.355,2.07,2.07,0,0,0,1.709-.766l1.053,1.244a2.943,2.943,0,0,1-1.22.947A4.124,4.124,0,0,1,17.031,63.137Zm-.26-5.893q-1.012,0-1.2,1.34h2.324v-.178a1.141,1.141,0,0,0-.28-.858A1.115,1.115,0,0,0,16.771,57.244ZM23.5,63H21.194V52.5H23.5Zm8.032-1.641a1.025,1.025,0,0,0,.752-.263.965.965,0,0,0,.26-.735h2.16a2.557,2.557,0,0,1-.872,2,3.242,3.242,0,0,1-2.246.779,3.282,3.282,0,0,1-2.543-1.012,3.986,3.986,0,0,1-.93-2.8v-.1a4.505,4.505,0,0,1,.414-1.979,3.011,3.011,0,0,1,1.193-1.319,3.557,3.557,0,0,1,1.846-.461,3.2,3.2,0,0,1,2.29.8,2.837,2.837,0,0,1,.848,2.167h-2.16a1.265,1.265,0,0,0-.28-.882.967.967,0,0,0-.752-.308q-.9,0-1.046,1.142a8.055,8.055,0,0,0-.048,1,3.164,3.164,0,0,0,.267,1.545A.923.923,0,0,0,31.537,61.359Zm3.855-2.126a4.366,4.366,0,0,1,.431-1.972,3.08,3.08,0,0,1,1.237-1.33,3.726,3.726,0,0,1,1.894-.465A3.4,3.4,0,0,1,41.572,56.5a3.948,3.948,0,0,1,.957,2.8v.082a3.83,3.83,0,0,1-.96,2.745,3.41,3.41,0,0,1-2.6,1.015,3.449,3.449,0,0,1-2.536-.947A3.7,3.7,0,0,1,35.4,59.623Zm2.3.144a2.752,2.752,0,0,0,.321,1.5,1.07,1.07,0,0,0,.95.479q1.23,0,1.258-1.894v-.232q0-1.989-1.271-1.989-1.155,0-1.251,1.716ZM45.66,55.6l.075.868a2.508,2.508,0,0,1,2.112-1,2.11,2.11,0,0,1,1.726.69,3.287,3.287,0,0,1,.591,2.078V63H47.854V58.331a1.248,1.248,0,0,0-.226-.824,1.044,1.044,0,0,0-.82-.263,1.1,1.1,0,0,0-1,.533V63H43.5V55.6Zm8.463-1.839V55.6h1.217v1.6H54.123v3.384a.864.864,0,0,0,.15.581.807.807,0,0,0,.595.164,3.38,3.38,0,0,0,.574-.041v1.647a4.252,4.252,0,0,1-1.3.2,2.413,2.413,0,0,1-1.757-.561,2.3,2.3,0,0,1-.567-1.7V57.2h-.943V55.6h.943V53.765Zm5.7,9.372a3.8,3.8,0,0,1-2.755-1.015,3.506,3.506,0,0,1-1.053-2.642v-.191a4.542,4.542,0,0,1,.42-2,3.076,3.076,0,0,1,1.227-1.343,3.7,3.7,0,0,1,1.914-.475,3.2,3.2,0,0,1,2.461.967,3.8,3.8,0,0,1,.9,2.7v.9h-4.58A1.66,1.66,0,0,0,58.9,61a1.607,1.607,0,0,0,1.08.355,2.07,2.07,0,0,0,1.709-.766l1.053,1.244a2.943,2.943,0,0,1-1.22.947A4.124,4.124,0,0,1,59.824,63.137Zm-.26-5.893q-1.012,0-1.2,1.34h2.324v-.178a1.141,1.141,0,0,0-.28-.858A1.115,1.115,0,0,0,59.564,57.244ZM65.983,55.6l.075.868a2.508,2.508,0,0,1,2.112-1,2.11,2.11,0,0,1,1.726.69,3.287,3.287,0,0,1,.591,2.078V63H68.177V58.331a1.248,1.248,0,0,0-.226-.824,1.044,1.044,0,0,0-.82-.263,1.1,1.1,0,0,0-1,.533V63h-2.3V55.6Zm8.21,7.4H71.882V55.6h2.311Zm-2.447-9.3a1.028,1.028,0,0,1,.355-.807,1.511,1.511,0,0,1,1.846,0,1.093,1.093,0,0,1,0,1.613,1.511,1.511,0,0,1-1.846,0A1.028,1.028,0,0,1,71.746,53.7Zm3.575,5.551a4.518,4.518,0,0,1,.759-2.769A2.5,2.5,0,0,1,78.2,55.467a2.124,2.124,0,0,1,1.668.779V52.5h2.311V63H80.106l-.116-.793a2.181,2.181,0,0,1-1.8.93,2.493,2.493,0,0,1-2.092-1.012A4.661,4.661,0,0,1,75.321,59.247Zm2.3.144q0,1.969,1.148,1.969a1.134,1.134,0,0,0,1.094-.643V57.9a1.1,1.1,0,0,0-1.08-.656q-1.066,0-1.155,1.723Zm5.571-.157a4.366,4.366,0,0,1,.431-1.972,3.08,3.08,0,0,1,1.237-1.33,3.726,3.726,0,0,1,1.894-.465A3.4,3.4,0,0,1,89.375,56.5a3.948,3.948,0,0,1,.957,2.8v.082a3.83,3.83,0,0,1-.96,2.745,3.41,3.41,0,0,1-2.6,1.015,3.449,3.449,0,0,1-2.536-.947A3.7,3.7,0,0,1,83.2,59.623Zm2.3.144a2.752,2.752,0,0,0,.321,1.5,1.07,1.07,0,0,0,.95.479q1.23,0,1.258-1.894v-.232q0-1.989-1.271-1.989-1.155,0-1.251,1.716Zm7.273,1.388a1.311,1.311,0,0,1,.909.325,1.133,1.133,0,0,1,0,1.661,1.434,1.434,0,0,1-1.822,0,1.133,1.133,0,0,1,0-1.654A1.3,1.3,0,0,1,92.773,60.765Z" transform="translate(186 2725)" fill="#12263f"/>
    <path id="Trazado_655383" data-name="Trazado 655383" d="M23.535,13.77a3.858,3.858,0,0,1-1.62.991,6.988,6.988,0,0,1-2.338.376,4.169,4.169,0,0,1-3.124-1.2A4.843,4.843,0,0,1,15.2,10.611L15.2,9.75a5.94,5.94,0,0,1,.52-2.567A3.858,3.858,0,0,1,17.2,5.495,4.206,4.206,0,0,1,19.44,4.9a4.409,4.409,0,0,1,2.888.851,3.606,3.606,0,0,1,1.2,2.54H21.218A1.887,1.887,0,0,0,20.685,7.1a1.72,1.72,0,0,0-1.162-.355,1.566,1.566,0,0,0-1.395.766,4.088,4.088,0,0,0-.5,2.188v.6a4,4,0,0,0,.509,2.239,1.8,1.8,0,0,0,1.6.749,2.016,2.016,0,0,0,1.395-.417V11.329H19.468V9.682h4.067ZM28.4,15.137a3.8,3.8,0,0,1-2.755-1.015,3.506,3.506,0,0,1-1.053-2.642v-.191a4.542,4.542,0,0,1,.42-2,3.076,3.076,0,0,1,1.227-1.343,3.7,3.7,0,0,1,1.914-.475,3.2,3.2,0,0,1,2.461.967,3.8,3.8,0,0,1,.9,2.7v.9h-4.58a1.66,1.66,0,0,0,.54.978,1.607,1.607,0,0,0,1.08.355,2.07,2.07,0,0,0,1.709-.766l1.053,1.244a2.943,2.943,0,0,1-1.22.947A4.124,4.124,0,0,1,28.4,15.137Zm-.26-5.893q-1.012,0-1.2,1.34h2.324v-.178a1.141,1.141,0,0,0-.28-.858A1.115,1.115,0,0,0,28.143,9.244Zm8.176,3.678a.532.532,0,0,0-.308-.472,4.679,4.679,0,0,0-1.169-.369,5.33,5.33,0,0,1-1.422-.5,2.382,2.382,0,0,1-.854-.755A1.8,1.8,0,0,1,32.271,9.8a2.044,2.044,0,0,1,.841-1.678,3.464,3.464,0,0,1,2.2-.66,3.837,3.837,0,0,1,2.352.663,2.074,2.074,0,0,1,.889,1.743H36.243q0-.889-.937-.889a.928.928,0,0,0-.608.2.624.624,0,0,0-.246.5.573.573,0,0,0,.3.5,2.842,2.842,0,0,0,.96.314,8.3,8.3,0,0,1,1.159.294,2.105,2.105,0,0,1,1.668,2.058,1.937,1.937,0,0,1-.9,1.647,3.942,3.942,0,0,1-2.328.636,4.023,4.023,0,0,1-1.7-.342,2.835,2.835,0,0,1-1.162-.93,2.105,2.105,0,0,1-.417-1.237h2.153a.89.89,0,0,0,.342.749,1.406,1.406,0,0,0,.841.236,1.106,1.106,0,0,0,.708-.191A.612.612,0,0,0,36.318,12.922ZM42.3,5.765V7.6h1.217V9.2H42.3v3.384a.864.864,0,0,0,.15.581.807.807,0,0,0,.595.164,3.38,3.38,0,0,0,.574-.041v1.647a4.252,4.252,0,0,1-1.3.2,2.413,2.413,0,0,1-1.757-.561,2.3,2.3,0,0,1-.567-1.7V9.2h-.943V7.6H40V5.765ZM46.853,15H44.542V7.6h2.311ZM44.405,5.7a1.028,1.028,0,0,1,.355-.807,1.511,1.511,0,0,1,1.846,0,1.028,1.028,0,0,1,.355.807,1.028,1.028,0,0,1-.355.807,1.511,1.511,0,0,1-1.846,0A1.028,1.028,0,0,1,44.405,5.7Zm3.575,5.537a4.366,4.366,0,0,1,.431-1.972,3.08,3.08,0,0,1,1.237-1.33,3.726,3.726,0,0,1,1.894-.465A3.4,3.4,0,0,1,54.16,8.5a3.948,3.948,0,0,1,.957,2.8v.082a3.83,3.83,0,0,1-.96,2.745,3.41,3.41,0,0,1-2.6,1.015,3.449,3.449,0,0,1-2.536-.947,3.7,3.7,0,0,1-1.032-2.567Zm2.3.144a2.752,2.752,0,0,0,.321,1.5,1.07,1.07,0,0,0,.95.479q1.23,0,1.258-1.894v-.232q0-1.989-1.271-1.989-1.155,0-1.251,1.716ZM51.856,4.5H54.29l-1.9,2.146-1.88,0Zm6.392,3.1.075.868a2.508,2.508,0,0,1,2.112-1,2.11,2.11,0,0,1,1.726.69,3.287,3.287,0,0,1,.591,2.078V15H60.442V10.331a1.248,1.248,0,0,0-.226-.824,1.044,1.044,0,0,0-.82-.263,1.1,1.1,0,0,0-1,.533V15h-2.3V7.6Zm8.976,3.644a4.518,4.518,0,0,1,.759-2.769A2.5,2.5,0,0,1,70.1,7.467a2.124,2.124,0,0,1,1.668.779V4.5H74.08V15H72.009l-.116-.793a2.181,2.181,0,0,1-1.8.93A2.493,2.493,0,0,1,68,14.125,4.661,4.661,0,0,1,67.224,11.247Zm2.3.144q0,1.969,1.148,1.969a1.134,1.134,0,0,0,1.094-.643V9.9a1.1,1.1,0,0,0-1.08-.656q-1.066,0-1.155,1.723Zm9.44,3.746a3.8,3.8,0,0,1-2.755-1.015,3.506,3.506,0,0,1-1.053-2.642v-.191a4.542,4.542,0,0,1,.42-2,3.076,3.076,0,0,1,1.227-1.343,3.7,3.7,0,0,1,1.914-.475,3.2,3.2,0,0,1,2.461.967,3.8,3.8,0,0,1,.9,2.7v.9H77.5a1.66,1.66,0,0,0,.54.978,1.607,1.607,0,0,0,1.08.355,2.07,2.07,0,0,0,1.709-.766l1.053,1.244a2.943,2.943,0,0,1-1.22.947A4.124,4.124,0,0,1,78.968,15.137Zm-.26-5.893q-1.012,0-1.2,1.34h2.324v-.178a1.141,1.141,0,0,0-.28-.858A1.115,1.115,0,0,0,78.708,9.244ZM28.293,39.137a3.8,3.8,0,0,1-2.755-1.015,3.506,3.506,0,0,1-1.053-2.642v-.191a4.542,4.542,0,0,1,.42-2,3.076,3.076,0,0,1,1.227-1.343,3.7,3.7,0,0,1,1.914-.475,3.2,3.2,0,0,1,2.461.967,3.8,3.8,0,0,1,.9,2.7v.9H26.83a1.66,1.66,0,0,0,.54.978,1.607,1.607,0,0,0,1.08.355,2.07,2.07,0,0,0,1.709-.766l1.053,1.244a2.943,2.943,0,0,1-1.22.947A4.124,4.124,0,0,1,28.293,39.137Zm-.26-5.893q-1.012,0-1.2,1.34h2.324v-.178a1.141,1.141,0,0,0-.28-.858A1.115,1.115,0,0,0,28.033,33.244ZM34.452,31.6l.075.868a2.508,2.508,0,0,1,2.112-1,2.11,2.11,0,0,1,1.726.69,3.287,3.287,0,0,1,.591,2.078V39H36.646V34.331a1.248,1.248,0,0,0-.226-.824,1.044,1.044,0,0,0-.82-.263,1.1,1.1,0,0,0-1,.533V39h-2.3V31.6Zm8.21,7.4H40.352V28.5h2.311Zm5.585,0a2.6,2.6,0,0,1-.219-.663,2.142,2.142,0,0,1-1.777.8,2.624,2.624,0,0,1-1.777-.632,2.013,2.013,0,0,1-.731-1.589,2.069,2.069,0,0,1,.889-1.818,4.527,4.527,0,0,1,2.584-.615h.711V34.09q0-1.023-.882-1.023a.721.721,0,0,0-.82.811h-2.3a2.065,2.065,0,0,1,.913-1.741,3.835,3.835,0,0,1,2.328-.669,3.363,3.363,0,0,1,2.235.69,2.4,2.4,0,0,1,.841,1.894v3.274a3.353,3.353,0,0,0,.314,1.559V39ZM46.8,37.5a1.285,1.285,0,0,0,.714-.185,1.157,1.157,0,0,0,.407-.417V35.712h-.67q-1.2,0-1.2,1.08a.659.659,0,0,0,.212.509A.767.767,0,0,0,46.8,37.5Zm7.834-.137a1.025,1.025,0,0,0,.752-.263.965.965,0,0,0,.26-.735h2.16a2.557,2.557,0,0,1-.872,2,3.242,3.242,0,0,1-2.246.779,3.282,3.282,0,0,1-2.543-1.012,3.986,3.986,0,0,1-.93-2.8v-.1a4.505,4.505,0,0,1,.414-1.979,3.011,3.011,0,0,1,1.193-1.319,3.557,3.557,0,0,1,1.846-.461,3.2,3.2,0,0,1,2.29.8,2.837,2.837,0,0,1,.848,2.167H55.65a1.265,1.265,0,0,0-.28-.882.967.967,0,0,0-.752-.308q-.9,0-1.046,1.142a8.055,8.055,0,0,0-.048,1,3.164,3.164,0,0,0,.267,1.545A.923.923,0,0,0,54.639,37.359Zm7.725,1.777a3.8,3.8,0,0,1-2.755-1.015,3.506,3.506,0,0,1-1.053-2.642v-.191a4.542,4.542,0,0,1,.42-2A3.076,3.076,0,0,1,60.2,31.942a3.7,3.7,0,0,1,1.914-.475,3.2,3.2,0,0,1,2.461.967,3.8,3.8,0,0,1,.9,2.7v.9H60.9a1.66,1.66,0,0,0,.54.978,1.607,1.607,0,0,0,1.08.355,2.07,2.07,0,0,0,1.709-.766l1.053,1.244a2.943,2.943,0,0,1-1.22.947A4.124,4.124,0,0,1,62.363,39.137Zm-.26-5.893q-1.012,0-1.2,1.34h2.324v-.178a1.141,1.141,0,0,0-.28-.858A1.115,1.115,0,0,0,62.1,33.244Zm8.176,3.678a.532.532,0,0,0-.308-.472,4.679,4.679,0,0,0-1.169-.369,5.33,5.33,0,0,1-1.422-.5,2.382,2.382,0,0,1-.854-.755,1.8,1.8,0,0,1-.294-1.019,2.044,2.044,0,0,1,.841-1.678,3.464,3.464,0,0,1,2.2-.66,3.837,3.837,0,0,1,2.352.663,2.074,2.074,0,0,1,.889,1.743H70.2q0-.889-.937-.889a.928.928,0,0,0-.608.2.624.624,0,0,0-.246.5.573.573,0,0,0,.3.5,2.842,2.842,0,0,0,.96.314,8.3,8.3,0,0,1,1.159.294A2.105,2.105,0,0,1,72.5,36.854a1.937,1.937,0,0,1-.9,1.647,3.942,3.942,0,0,1-2.328.636,4.023,4.023,0,0,1-1.7-.342,2.835,2.835,0,0,1-1.162-.93A2.105,2.105,0,0,1,66,36.628h2.153a.89.89,0,0,0,.342.749,1.406,1.406,0,0,0,.841.236,1.106,1.106,0,0,0,.708-.191A.612.612,0,0,0,70.279,36.922Z" transform="translate(690 2733)" fill="#12263f"/>
    <path id="Trazado_655384" data-name="Trazado 655384" d="M14.864,10.775H11.09v2.379h4.457V15H8.691V5.047h6.87V6.9H11.09V9h3.773Zm4.553-1.135L20.49,7.6h2.393l-1.948,3.6L22.978,15H20.572L19.41,12.813,18.268,15h-2.42L17.9,11.206,15.958,7.6h2.42Zm6.891-3.876V7.6h1.217V9.2H26.307v3.384a.864.864,0,0,0,.15.581.807.807,0,0,0,.595.164,3.38,3.38,0,0,0,.574-.041v1.647a4.252,4.252,0,0,1-1.3.2,2.413,2.413,0,0,1-1.757-.561,2.3,2.3,0,0,1-.567-1.7V9.2H23.06V7.6H24V5.765Zm5.7,9.372a3.8,3.8,0,0,1-2.755-1.015A3.506,3.506,0,0,1,28.2,11.479v-.191a4.542,4.542,0,0,1,.42-2,3.076,3.076,0,0,1,1.227-1.343,3.7,3.7,0,0,1,1.914-.475,3.2,3.2,0,0,1,2.461.967,3.8,3.8,0,0,1,.9,2.7v.9h-4.58a1.66,1.66,0,0,0,.54.978,1.607,1.607,0,0,0,1.08.355,2.07,2.07,0,0,0,1.709-.766l1.053,1.244a2.943,2.943,0,0,1-1.22.947A4.123,4.123,0,0,1,32.008,15.137Zm-.26-5.893q-1.012,0-1.2,1.34H32.87v-.178a1.141,1.141,0,0,0-.28-.858A1.115,1.115,0,0,0,31.749,9.244ZM38.167,7.6l.075.868a2.508,2.508,0,0,1,2.112-1,2.11,2.11,0,0,1,1.726.69,3.287,3.287,0,0,1,.591,2.078V15H40.362V10.331a1.248,1.248,0,0,0-.226-.824,1.044,1.044,0,0,0-.82-.263,1.1,1.1,0,0,0-1,.533V15h-2.3V7.6Zm9.652,5.318a.532.532,0,0,0-.308-.472,4.679,4.679,0,0,0-1.169-.369,5.33,5.33,0,0,1-1.422-.5,2.382,2.382,0,0,1-.854-.755A1.8,1.8,0,0,1,43.773,9.8a2.044,2.044,0,0,1,.841-1.678,3.464,3.464,0,0,1,2.2-.66,3.837,3.837,0,0,1,2.352.663,2.074,2.074,0,0,1,.889,1.743H47.745q0-.889-.937-.889a.928.928,0,0,0-.608.2.624.624,0,0,0-.246.5.573.573,0,0,0,.3.5,2.842,2.842,0,0,0,.96.314,8.3,8.3,0,0,1,1.159.294,2.105,2.105,0,0,1,1.668,2.058,1.937,1.937,0,0,1-.9,1.647,3.942,3.942,0,0,1-2.328.636,4.023,4.023,0,0,1-1.7-.342,2.835,2.835,0,0,1-1.162-.93,2.105,2.105,0,0,1-.417-1.237h2.153a.89.89,0,0,0,.342.749,1.406,1.406,0,0,0,.841.236,1.106,1.106,0,0,0,.708-.191A.612.612,0,0,0,47.82,12.922ZM53.548,15H51.238V7.6h2.311ZM51.1,5.7a1.028,1.028,0,0,1,.355-.807,1.511,1.511,0,0,1,1.846,0,1.028,1.028,0,0,1,.355.807A1.028,1.028,0,0,1,53.3,6.5a1.511,1.511,0,0,1-1.846,0A1.028,1.028,0,0,1,51.1,5.7Zm3.575,5.537a4.366,4.366,0,0,1,.431-1.972,3.08,3.08,0,0,1,1.237-1.33,3.726,3.726,0,0,1,1.894-.465A3.4,3.4,0,0,1,60.856,8.5a3.948,3.948,0,0,1,.957,2.8v.082a3.83,3.83,0,0,1-.96,2.745,3.41,3.41,0,0,1-2.6,1.015,3.449,3.449,0,0,1-2.536-.947,3.7,3.7,0,0,1-1.032-2.567Zm2.3.144a2.752,2.752,0,0,0,.321,1.5,1.07,1.07,0,0,0,.95.479q1.23,0,1.258-1.894v-.232q0-1.989-1.271-1.989-1.155,0-1.251,1.716ZM58.552,4.5h2.434l-1.9,2.146-1.88,0Zm6.392,3.1.075.868a2.508,2.508,0,0,1,2.112-1,2.11,2.11,0,0,1,1.726.69,3.287,3.287,0,0,1,.591,2.078V15H67.138V10.331a1.248,1.248,0,0,0-.226-.824,1.044,1.044,0,0,0-.82-.263,1.1,1.1,0,0,0-1,.533V15h-2.3V7.6Zm8.976,3.644a4.518,4.518,0,0,1,.759-2.769A2.5,2.5,0,0,1,76.8,7.467a2.124,2.124,0,0,1,1.668.779V4.5h2.311V15H78.7l-.116-.793a2.181,2.181,0,0,1-1.8.93,2.493,2.493,0,0,1-2.092-1.012A4.661,4.661,0,0,1,73.919,11.247Zm2.3.144q0,1.969,1.148,1.969a1.134,1.134,0,0,0,1.094-.643V9.9a1.1,1.1,0,0,0-1.08-.656q-1.066,0-1.155,1.723Zm9.44,3.746a3.8,3.8,0,0,1-2.755-1.015,3.506,3.506,0,0,1-1.053-2.642v-.191a4.542,4.542,0,0,1,.42-2A3.076,3.076,0,0,1,83.5,7.942a3.7,3.7,0,0,1,1.914-.475,3.2,3.2,0,0,1,2.461.967,3.8,3.8,0,0,1,.9,2.7v.9H84.2a1.66,1.66,0,0,0,.54.978,1.607,1.607,0,0,0,1.08.355,2.07,2.07,0,0,0,1.709-.766l1.053,1.244a2.943,2.943,0,0,1-1.22.947A4.124,4.124,0,0,1,85.664,15.137ZM85.4,9.244q-1.012,0-1.2,1.34h2.324v-.178a1.141,1.141,0,0,0-.28-.858A1.115,1.115,0,0,0,85.4,9.244ZM12.717,37.359a1.025,1.025,0,0,0,.752-.263.965.965,0,0,0,.26-.735h2.16a2.557,2.557,0,0,1-.872,2,3.242,3.242,0,0,1-2.246.779,3.282,3.282,0,0,1-2.543-1.012,3.986,3.986,0,0,1-.93-2.8v-.1a4.505,4.505,0,0,1,.414-1.979,3.011,3.011,0,0,1,1.193-1.319,3.557,3.557,0,0,1,1.846-.461,3.2,3.2,0,0,1,2.29.8,2.837,2.837,0,0,1,.848,2.167h-2.16a1.265,1.265,0,0,0-.28-.882.967.967,0,0,0-.752-.308q-.9,0-1.046,1.142a8.055,8.055,0,0,0-.048,1,3.164,3.164,0,0,0,.267,1.545A.923.923,0,0,0,12.717,37.359ZM21.03,39a2.6,2.6,0,0,1-.219-.663,2.142,2.142,0,0,1-1.777.8,2.624,2.624,0,0,1-1.777-.632,2.013,2.013,0,0,1-.731-1.589,2.069,2.069,0,0,1,.889-1.818A4.527,4.527,0,0,1,20,34.481h.711V34.09q0-1.023-.882-1.023a.721.721,0,0,0-.82.811H16.7a2.065,2.065,0,0,1,.913-1.741,3.835,3.835,0,0,1,2.328-.669,3.363,3.363,0,0,1,2.235.69,2.4,2.4,0,0,1,.841,1.894v3.274a3.353,3.353,0,0,0,.314,1.559V39Zm-1.442-1.5a1.285,1.285,0,0,0,.714-.185,1.157,1.157,0,0,0,.407-.417V35.712h-.67q-1.2,0-1.2,1.08a.659.659,0,0,0,.212.509A.767.767,0,0,0,19.587,37.5Zm11.573-2.14a4.46,4.46,0,0,1-.776,2.751,2.488,2.488,0,0,1-2.1,1.029,2.132,2.132,0,0,1-1.675-.745v3.452h-2.3V31.6h2.153l.068.684a2.132,2.132,0,0,1,1.743-.82A2.508,2.508,0,0,1,30.4,32.475a4.515,4.515,0,0,1,.759,2.772Zm-2.3-.144q0-1.969-1.148-1.969a1.084,1.084,0,0,0-1.094.588v2.912a1.119,1.119,0,0,0,1.107.615q1.1,0,1.135-1.9ZM36.342,39a2.6,2.6,0,0,1-.219-.663,2.142,2.142,0,0,1-1.777.8,2.624,2.624,0,0,1-1.777-.632,2.013,2.013,0,0,1-.731-1.589,2.069,2.069,0,0,1,.889-1.818,4.527,4.527,0,0,1,2.584-.615h.711V34.09q0-1.023-.882-1.023a.721.721,0,0,0-.82.811h-2.3a2.065,2.065,0,0,1,.913-1.741,3.835,3.835,0,0,1,2.328-.669,3.363,3.363,0,0,1,2.235.69,2.4,2.4,0,0,1,.841,1.894v3.274a3.353,3.353,0,0,0,.314,1.559V39ZM34.9,37.5a1.285,1.285,0,0,0,.714-.185,1.157,1.157,0,0,0,.407-.417V35.712h-.67q-1.2,0-1.2,1.08a.659.659,0,0,0,.212.509A.767.767,0,0,0,34.9,37.5Zm7.834-.137a1.025,1.025,0,0,0,.752-.263.965.965,0,0,0,.26-.735h2.16a2.557,2.557,0,0,1-.872,2,3.242,3.242,0,0,1-2.246.779,3.282,3.282,0,0,1-2.543-1.012,3.986,3.986,0,0,1-.93-2.8v-.1a4.505,4.505,0,0,1,.414-1.979,3.011,3.011,0,0,1,1.193-1.319,3.557,3.557,0,0,1,1.846-.461,3.2,3.2,0,0,1,2.29.8,2.837,2.837,0,0,1,.848,2.167h-2.16a1.265,1.265,0,0,0-.28-.882.967.967,0,0,0-.752-.308q-.9,0-1.046,1.142a8.055,8.055,0,0,0-.048,1,3.164,3.164,0,0,0,.267,1.545A.923.923,0,0,0,42.734,37.359ZM49.31,39H47V31.6H49.31Zm-2.447-9.3a1.028,1.028,0,0,1,.355-.807,1.511,1.511,0,0,1,1.846,0,1.093,1.093,0,0,1,0,1.613,1.511,1.511,0,0,1-1.846,0A1.028,1.028,0,0,1,46.863,29.7Zm3.575,5.551a4.518,4.518,0,0,1,.759-2.769,2.5,2.5,0,0,1,2.119-1.012,2.124,2.124,0,0,1,1.668.779V28.5h2.311V39H55.223l-.116-.793a2.181,2.181,0,0,1-1.8.93,2.493,2.493,0,0,1-2.092-1.012A4.662,4.662,0,0,1,50.438,35.247Zm2.3.144q0,1.969,1.148,1.969a1.134,1.134,0,0,0,1.094-.643V33.9a1.1,1.1,0,0,0-1.08-.656q-1.066,0-1.155,1.723ZM62.77,39a2.6,2.6,0,0,1-.219-.663,2.142,2.142,0,0,1-1.777.8A2.624,2.624,0,0,1,59,38.5a2.013,2.013,0,0,1-.731-1.589,2.069,2.069,0,0,1,.889-1.818,4.527,4.527,0,0,1,2.584-.615h.711V34.09q0-1.023-.882-1.023a.721.721,0,0,0-.82.811h-2.3a2.065,2.065,0,0,1,.913-1.741,3.835,3.835,0,0,1,2.328-.669,3.363,3.363,0,0,1,2.235.69,2.4,2.4,0,0,1,.841,1.894v3.274a3.353,3.353,0,0,0,.314,1.559V39Zm-1.442-1.5a1.285,1.285,0,0,0,.714-.185,1.157,1.157,0,0,0,.407-.417V35.712h-.67q-1.2,0-1.2,1.08a.659.659,0,0,0,.212.509A.767.767,0,0,0,61.328,37.5Zm4.416-2.249a4.518,4.518,0,0,1,.759-2.769,2.5,2.5,0,0,1,2.119-1.012,2.124,2.124,0,0,1,1.668.779V28.5H72.6V39H70.529l-.116-.793a2.181,2.181,0,0,1-1.8.93,2.493,2.493,0,0,1-2.092-1.012A4.661,4.661,0,0,1,65.744,35.247Zm2.3.144q0,1.969,1.148,1.969a1.134,1.134,0,0,0,1.094-.643V33.9a1.1,1.1,0,0,0-1.08-.656q-1.066,0-1.155,1.723Zm9.44,3.746a3.8,3.8,0,0,1-2.755-1.015,3.506,3.506,0,0,1-1.053-2.642v-.191a4.542,4.542,0,0,1,.42-2,3.076,3.076,0,0,1,1.227-1.343,3.7,3.7,0,0,1,1.914-.475,3.2,3.2,0,0,1,2.461.967,3.8,3.8,0,0,1,.9,2.7v.9h-4.58a1.66,1.66,0,0,0,.54.978,1.607,1.607,0,0,0,1.08.355,2.07,2.07,0,0,0,1.709-.766l1.053,1.244a2.943,2.943,0,0,1-1.22.947A4.124,4.124,0,0,1,77.488,39.137Zm-.26-5.893q-1.012,0-1.2,1.34h2.324v-.178a1.141,1.141,0,0,0-.28-.858A1.115,1.115,0,0,0,77.228,33.244ZM85.4,36.922a.532.532,0,0,0-.308-.472,4.679,4.679,0,0,0-1.169-.369,5.33,5.33,0,0,1-1.422-.5,2.382,2.382,0,0,1-.854-.755,1.8,1.8,0,0,1-.294-1.019,2.044,2.044,0,0,1,.841-1.678,3.464,3.464,0,0,1,2.2-.66,3.837,3.837,0,0,1,2.352.663,2.074,2.074,0,0,1,.889,1.743H85.329q0-.889-.937-.889a.928.928,0,0,0-.608.2.624.624,0,0,0-.246.5.573.573,0,0,0,.3.5,2.842,2.842,0,0,0,.96.314,8.3,8.3,0,0,1,1.159.294,2.105,2.105,0,0,1,1.668,2.058,1.937,1.937,0,0,1-.9,1.647,3.942,3.942,0,0,1-2.328.636,4.023,4.023,0,0,1-1.7-.342,2.835,2.835,0,0,1-1.162-.93,2.105,2.105,0,0,1-.417-1.237h2.153a.89.89,0,0,0,.342.749,1.406,1.406,0,0,0,.841.236,1.106,1.106,0,0,0,.708-.191A.612.612,0,0,0,85.4,36.922Z" transform="translate(438 2733)" fill="#12263f"/>
    <path id="Trazado_655385" data-name="Trazado 655385" d="M22.807,5.047l2.222,6.925,2.215-6.925H30.4V15H28V12.676l.232-4.758L25.822,15H24.236L21.823,7.911l.232,4.765V15h-2.4V5.047ZM36.226,14.2a2.375,2.375,0,0,1-1.976.937,2.329,2.329,0,0,1-1.842-.708,2.976,2.976,0,0,1-.625-2.034V7.6h2.3v4.806a.828.828,0,0,0,.923.95,1.2,1.2,0,0,0,1.128-.567V7.6h2.317V15h-2.16Zm-.82-9.7h2.434l-1.9,2.146-1.88,0ZM42.146,15H39.835V4.5h2.311Zm4.1-9.235V7.6h1.217V9.2H46.248v3.384a.864.864,0,0,0,.15.581.807.807,0,0,0,.595.164,3.38,3.38,0,0,0,.574-.041v1.647a4.252,4.252,0,0,1-1.3.2,2.413,2.413,0,0,1-1.757-.561,2.3,2.3,0,0,1-.567-1.7V9.2H43V7.6h.943V5.765ZM50.8,15H48.49V7.6H50.8ZM48.353,5.7a1.028,1.028,0,0,1,.355-.807,1.511,1.511,0,0,1,1.846,0,1.028,1.028,0,0,1,.355.807,1.028,1.028,0,0,1-.355.807,1.511,1.511,0,0,1-1.846,0A1.028,1.028,0,0,1,48.353,5.7Zm10.732,5.66a4.46,4.46,0,0,1-.776,2.751,2.488,2.488,0,0,1-2.1,1.029,2.132,2.132,0,0,1-1.675-.745v3.452h-2.3V7.6h2.153l.068.684a2.132,2.132,0,0,1,1.743-.82,2.508,2.508,0,0,1,2.126,1.008,4.515,4.515,0,0,1,.759,2.772Zm-2.3-.144q0-1.969-1.148-1.969a1.084,1.084,0,0,0-1.094.588v2.912a1.119,1.119,0,0,0,1.107.615q1.1,0,1.135-1.9ZM62.531,15H60.22V4.5h2.311Zm5,.137a3.8,3.8,0,0,1-2.755-1.015,3.506,3.506,0,0,1-1.053-2.642v-.191a4.542,4.542,0,0,1,.42-2,3.076,3.076,0,0,1,1.227-1.343,3.7,3.7,0,0,1,1.914-.475,3.2,3.2,0,0,1,2.461.967,3.8,3.8,0,0,1,.9,2.7v.9h-4.58A1.66,1.66,0,0,0,66.6,13a1.607,1.607,0,0,0,1.08.355,2.07,2.07,0,0,0,1.709-.766l1.053,1.244a2.943,2.943,0,0,1-1.22.947A4.124,4.124,0,0,1,67.528,15.137Zm-.26-5.893q-1.012,0-1.2,1.34h2.324v-.178a1.141,1.141,0,0,0-.28-.858A1.115,1.115,0,0,0,67.268,9.244Zm8.176,3.678a.532.532,0,0,0-.308-.472,4.679,4.679,0,0,0-1.169-.369,5.33,5.33,0,0,1-1.422-.5,2.382,2.382,0,0,1-.854-.755A1.8,1.8,0,0,1,71.4,9.8a2.044,2.044,0,0,1,.841-1.678,3.464,3.464,0,0,1,2.2-.66,3.837,3.837,0,0,1,2.352.663,2.074,2.074,0,0,1,.889,1.743H75.369q0-.889-.937-.889a.928.928,0,0,0-.608.2.624.624,0,0,0-.246.5.573.573,0,0,0,.3.5,2.842,2.842,0,0,0,.96.314A8.3,8.3,0,0,1,76,10.8a2.105,2.105,0,0,1,1.668,2.058,1.937,1.937,0,0,1-.9,1.647,3.942,3.942,0,0,1-2.328.636,4.023,4.023,0,0,1-1.7-.342,2.835,2.835,0,0,1-1.162-.93,2.105,2.105,0,0,1-.417-1.237h2.153a.89.89,0,0,0,.342.749,1.406,1.406,0,0,0,.841.236,1.106,1.106,0,0,0,.708-.191A.612.612,0,0,0,75.444,12.922ZM26.529,39H24.219V31.6h2.311Zm-2.447-9.3a1.028,1.028,0,0,1,.355-.807,1.511,1.511,0,0,1,1.846,0,1.093,1.093,0,0,1,0,1.613,1.511,1.511,0,0,1-1.846,0A1.028,1.028,0,0,1,24.082,29.7Zm3.575,5.551a4.518,4.518,0,0,1,.759-2.769,2.5,2.5,0,0,1,2.119-1.012,2.124,2.124,0,0,1,1.668.779V28.5h2.311V39H32.442l-.116-.793a2.181,2.181,0,0,1-1.8.93,2.493,2.493,0,0,1-2.092-1.012A4.661,4.661,0,0,1,27.657,35.247Zm2.3.144q0,1.969,1.148,1.969a1.134,1.134,0,0,0,1.094-.643V33.9a1.1,1.1,0,0,0-1.08-.656q-1.066,0-1.155,1.723ZM38.253,39H35.942V31.6h2.311Zm-2.447-9.3a1.028,1.028,0,0,1,.355-.807,1.511,1.511,0,0,1,1.846,0,1.093,1.093,0,0,1,0,1.613,1.511,1.511,0,0,1-1.846,0A1.028,1.028,0,0,1,35.806,29.7Zm3.575,5.537a4.366,4.366,0,0,1,.431-1.972,3.08,3.08,0,0,1,1.237-1.33,3.726,3.726,0,0,1,1.894-.465A3.4,3.4,0,0,1,45.561,32.5a3.948,3.948,0,0,1,.957,2.8v.082a3.83,3.83,0,0,1-.96,2.745,3.41,3.41,0,0,1-2.6,1.015,3.449,3.449,0,0,1-2.536-.947,3.7,3.7,0,0,1-1.032-2.567Zm2.3.144a2.752,2.752,0,0,0,.321,1.5,1.07,1.07,0,0,0,.95.479q1.23,0,1.258-1.894v-.232q0-1.989-1.271-1.989-1.155,0-1.251,1.716ZM49.71,31.6l.075.868a2.543,2.543,0,0,1,2.112-1,1.872,1.872,0,0,1,1.894,1.114,2.462,2.462,0,0,1,2.174-1.114q2.249,0,2.311,2.721V39H55.965V34.331a1.41,1.41,0,0,0-.191-.827.815.815,0,0,0-.7-.26,1.091,1.091,0,0,0-1.019.608l.007.1V39H51.754V34.345a1.482,1.482,0,0,0-.185-.841.812.812,0,0,0-.7-.26,1.1,1.1,0,0,0-1.012.608V39h-2.3V31.6ZM63.758,39a2.6,2.6,0,0,1-.219-.663,2.142,2.142,0,0,1-1.777.8,2.624,2.624,0,0,1-1.777-.632,2.013,2.013,0,0,1-.731-1.589,2.069,2.069,0,0,1,.889-1.818,4.527,4.527,0,0,1,2.584-.615h.711V34.09q0-1.023-.882-1.023a.721.721,0,0,0-.82.811h-2.3a2.065,2.065,0,0,1,.913-1.741,3.835,3.835,0,0,1,2.328-.669,3.363,3.363,0,0,1,2.235.69,2.4,2.4,0,0,1,.841,1.894v3.274a3.353,3.353,0,0,0,.314,1.559V39Zm-1.442-1.5a1.285,1.285,0,0,0,.714-.185,1.157,1.157,0,0,0,.407-.417V35.712h-.67q-1.2,0-1.2,1.08a.659.659,0,0,0,.212.509A.767.767,0,0,0,62.315,37.5Zm8.579-.574a.532.532,0,0,0-.308-.472,4.679,4.679,0,0,0-1.169-.369,5.33,5.33,0,0,1-1.422-.5,2.382,2.382,0,0,1-.854-.755,1.8,1.8,0,0,1-.294-1.019,2.044,2.044,0,0,1,.841-1.678,3.464,3.464,0,0,1,2.2-.66,3.837,3.837,0,0,1,2.352.663,2.074,2.074,0,0,1,.889,1.743H70.819q0-.889-.937-.889a.928.928,0,0,0-.608.2.624.624,0,0,0-.246.5.573.573,0,0,0,.3.5,2.842,2.842,0,0,0,.96.314,8.3,8.3,0,0,1,1.159.294,2.105,2.105,0,0,1,1.668,2.058,1.937,1.937,0,0,1-.9,1.647,3.942,3.942,0,0,1-2.328.636,4.023,4.023,0,0,1-1.7-.342,2.835,2.835,0,0,1-1.162-.93,2.105,2.105,0,0,1-.417-1.237h2.153a.89.89,0,0,0,.342.749,1.406,1.406,0,0,0,.841.236,1.106,1.106,0,0,0,.708-.191A.612.612,0,0,0,70.895,36.922Z" transform="translate(1189 2733)" fill="#12263f"/>
    <path id="Trazado_655386" data-name="Trazado 655386" d="M5.051,11.623V15h-2.4V5.047H6.623a4.626,4.626,0,0,1,2.02.42A3.168,3.168,0,0,1,10,6.664a3.267,3.267,0,0,1,.482,1.76,2.88,2.88,0,0,1-1.042,2.328,4.326,4.326,0,0,1-2.861.872Zm0-1.853H6.623a1.483,1.483,0,0,0,1.063-.349,1.3,1.3,0,0,0,.366-.984,1.6,1.6,0,0,0-.376-1.114A1.331,1.331,0,0,0,6.65,6.9h-1.6ZM14.088,15H11.777V4.5h2.311Zm5.585,0a2.6,2.6,0,0,1-.219-.663,2.142,2.142,0,0,1-1.777.8A2.624,2.624,0,0,1,15.9,14.5a2.013,2.013,0,0,1-.731-1.589,2.069,2.069,0,0,1,.889-1.818,4.527,4.527,0,0,1,2.584-.615h.711V10.09q0-1.023-.882-1.023a.721.721,0,0,0-.82.811h-2.3a2.065,2.065,0,0,1,.913-1.741,3.835,3.835,0,0,1,2.328-.669,3.363,3.363,0,0,1,2.235.69,2.4,2.4,0,0,1,.841,1.894v3.274a3.353,3.353,0,0,0,.314,1.559V15ZM18.23,13.5a1.285,1.285,0,0,0,.714-.185,1.157,1.157,0,0,0,.407-.417V11.712h-.67q-1.2,0-1.2,1.08a.659.659,0,0,0,.212.509A.767.767,0,0,0,18.23,13.5ZM25.053,7.6l.075.868a2.508,2.508,0,0,1,2.112-1,2.11,2.11,0,0,1,1.726.69,3.287,3.287,0,0,1,.591,2.078V15H27.247V10.331a1.248,1.248,0,0,0-.226-.824,1.044,1.044,0,0,0-.82-.263,1.1,1.1,0,0,0-1,.533V15h-2.3V7.6Zm8.463-1.839V7.6h1.217V9.2H33.516v3.384a.864.864,0,0,0,.15.581.807.807,0,0,0,.595.164,3.38,3.38,0,0,0,.574-.041v1.647a4.252,4.252,0,0,1-1.3.2,2.413,2.413,0,0,1-1.757-.561,2.3,2.3,0,0,1-.567-1.7V9.2h-.943V7.6h.943V5.765ZM38.068,15H35.758V7.6h2.311ZM35.621,5.7a1.028,1.028,0,0,1,.355-.807,1.511,1.511,0,0,1,1.846,0,1.028,1.028,0,0,1,.355.807,1.028,1.028,0,0,1-.355.807,1.511,1.511,0,0,1-1.846,0A1.028,1.028,0,0,1,35.621,5.7Zm6.3,9.3H39.606V4.5h2.311Zm3.849,0H43.455V4.5h2.311Zm5.585,0a2.6,2.6,0,0,1-.219-.663,2.142,2.142,0,0,1-1.777.8,2.624,2.624,0,0,1-1.777-.632,2.013,2.013,0,0,1-.731-1.589,2.069,2.069,0,0,1,.889-1.818,4.527,4.527,0,0,1,2.584-.615h.711V10.09q0-1.023-.882-1.023a.721.721,0,0,0-.82.811h-2.3a2.065,2.065,0,0,1,.913-1.741,3.835,3.835,0,0,1,2.328-.669,3.363,3.363,0,0,1,2.235.69,2.4,2.4,0,0,1,.841,1.894v3.274a3.353,3.353,0,0,0,.314,1.559V15Zm-1.442-1.5a1.285,1.285,0,0,0,.714-.185,1.157,1.157,0,0,0,.407-.417V11.712h-.67q-1.2,0-1.2,1.08a.659.659,0,0,0,.212.509A.767.767,0,0,0,49.908,13.5Zm8.579-.574a.532.532,0,0,0-.308-.472,4.679,4.679,0,0,0-1.169-.369,5.33,5.33,0,0,1-1.422-.5,2.382,2.382,0,0,1-.854-.755A1.8,1.8,0,0,1,54.44,9.8a2.044,2.044,0,0,1,.841-1.678,3.464,3.464,0,0,1,2.2-.66,3.837,3.837,0,0,1,2.352.663,2.074,2.074,0,0,1,.889,1.743H58.412q0-.889-.937-.889a.928.928,0,0,0-.608.2.624.624,0,0,0-.246.5.573.573,0,0,0,.3.5,2.842,2.842,0,0,0,.96.314,8.3,8.3,0,0,1,1.159.294,2.105,2.105,0,0,1,1.668,2.058,1.937,1.937,0,0,1-.9,1.647,3.942,3.942,0,0,1-2.328.636,4.023,4.023,0,0,1-1.7-.342,2.835,2.835,0,0,1-1.162-.93,2.105,2.105,0,0,1-.417-1.237h2.153a.89.89,0,0,0,.342.749,1.406,1.406,0,0,0,.841.236,1.106,1.106,0,0,0,.708-.191A.612.612,0,0,0,58.487,12.922Zm10.363,2.215A3.8,3.8,0,0,1,66.1,14.122a3.506,3.506,0,0,1-1.053-2.642v-.191a4.542,4.542,0,0,1,.42-2A3.076,3.076,0,0,1,66.69,7.942,3.7,3.7,0,0,1,68.6,7.467a3.2,3.2,0,0,1,2.461.967,3.8,3.8,0,0,1,.9,2.7v.9h-4.58a1.66,1.66,0,0,0,.54.978,1.607,1.607,0,0,0,1.08.355,2.07,2.07,0,0,0,1.709-.766l1.053,1.244a2.943,2.943,0,0,1-1.22.947A4.124,4.124,0,0,1,68.851,15.137Zm-.26-5.893q-1.012,0-1.2,1.34h2.324v-.178a1.141,1.141,0,0,0-.28-.858A1.115,1.115,0,0,0,68.591,9.244ZM75.01,7.6l.075.868a2.508,2.508,0,0,1,2.112-1,2.11,2.11,0,0,1,1.726.69,3.287,3.287,0,0,1,.591,2.078V15H77.2V10.331a1.248,1.248,0,0,0-.226-.824,1.044,1.044,0,0,0-.82-.263,1.1,1.1,0,0,0-1,.533V15h-2.3V7.6Zm12.845,7.533A3.8,3.8,0,0,1,85.1,14.122a3.506,3.506,0,0,1-1.053-2.642v-.191a4.542,4.542,0,0,1,.42-2,3.076,3.076,0,0,1,1.227-1.343,3.7,3.7,0,0,1,1.914-.475,3.2,3.2,0,0,1,2.461.967,3.8,3.8,0,0,1,.9,2.7v.9h-4.58a1.66,1.66,0,0,0,.54.978,1.607,1.607,0,0,0,1.08.355,2.07,2.07,0,0,0,1.709-.766l1.053,1.244a2.943,2.943,0,0,1-1.22.947A4.124,4.124,0,0,1,87.854,15.137Zm-.26-5.893q-1.012,0-1.2,1.34h2.324v-.178a1.141,1.141,0,0,0-.28-.858A1.115,1.115,0,0,0,87.595,9.244ZM94.328,15H92.018V4.5h2.311ZM13.141,35.247a4.518,4.518,0,0,1,.759-2.769,2.5,2.5,0,0,1,2.119-1.012,2.124,2.124,0,0,1,1.668.779V28.5H20V39H17.926l-.116-.793a2.181,2.181,0,0,1-1.8.93,2.493,2.493,0,0,1-2.092-1.012A4.662,4.662,0,0,1,13.141,35.247Zm2.3.144q0,1.969,1.148,1.969a1.134,1.134,0,0,0,1.094-.643V33.9a1.1,1.1,0,0,0-1.08-.656q-1.066,0-1.155,1.723ZM23.737,39H21.426V31.6h2.311ZM21.29,29.7a1.028,1.028,0,0,1,.355-.807,1.511,1.511,0,0,1,1.846,0,1.093,1.093,0,0,1,0,1.613,1.511,1.511,0,0,1-1.846,0A1.028,1.028,0,0,1,21.29,29.7Zm7.738,7.226a.532.532,0,0,0-.308-.472,4.679,4.679,0,0,0-1.169-.369,5.33,5.33,0,0,1-1.422-.5,2.382,2.382,0,0,1-.854-.755,1.8,1.8,0,0,1-.294-1.019,2.044,2.044,0,0,1,.841-1.678,3.464,3.464,0,0,1,2.2-.66,3.837,3.837,0,0,1,2.352.663,2.074,2.074,0,0,1,.889,1.743H28.953q0-.889-.937-.889a.928.928,0,0,0-.608.2.624.624,0,0,0-.246.5.573.573,0,0,0,.3.5,2.842,2.842,0,0,0,.96.314,8.3,8.3,0,0,1,1.159.294,2.105,2.105,0,0,1,1.668,2.058,1.937,1.937,0,0,1-.9,1.647,3.942,3.942,0,0,1-2.328.636,4.023,4.023,0,0,1-1.7-.342,2.835,2.835,0,0,1-1.162-.93,2.105,2.105,0,0,1-.417-1.237H26.9a.89.89,0,0,0,.342.749,1.406,1.406,0,0,0,.841.236,1.106,1.106,0,0,0,.708-.191A.612.612,0,0,0,29.028,36.922ZM35.9,39.137a3.8,3.8,0,0,1-2.755-1.015A3.506,3.506,0,0,1,32.1,35.479v-.191a4.542,4.542,0,0,1,.42-2,3.076,3.076,0,0,1,1.227-1.343,3.7,3.7,0,0,1,1.914-.475,3.2,3.2,0,0,1,2.461.967,3.8,3.8,0,0,1,.9,2.7v.9h-4.58a1.66,1.66,0,0,0,.54.978,1.607,1.607,0,0,0,1.08.355,2.07,2.07,0,0,0,1.709-.766l1.053,1.244a2.943,2.943,0,0,1-1.22.947A4.124,4.124,0,0,1,35.9,39.137Zm-.26-5.893q-1.012,0-1.2,1.34h2.324v-.178a1.141,1.141,0,0,0-.28-.858A1.115,1.115,0,0,0,35.645,33.244ZM42.064,31.6l.075.868a2.508,2.508,0,0,1,2.112-1,2.11,2.11,0,0,1,1.726.69,3.287,3.287,0,0,1,.591,2.078V39H44.258V34.331a1.248,1.248,0,0,0-.226-.824,1.044,1.044,0,0,0-.82-.263,1.1,1.1,0,0,0-1,.533V39H39.9V31.6Zm3.821-3.049a1.993,1.993,0,0,1-.455,1.323,1.41,1.41,0,0,1-1.125.543,2.219,2.219,0,0,1-1-.287,2.1,2.1,0,0,0-.9-.287.513.513,0,0,0-.373.15.625.625,0,0,0-.154.465L40.6,30.394a2,2,0,0,1,.455-1.312,1.394,1.394,0,0,1,1.118-.554,2.307,2.307,0,0,1,.9.253,5.5,5.5,0,0,0,.7.287,1.354,1.354,0,0,0,.311.035.522.522,0,0,0,.376-.152.627.627,0,0,0,.157-.47Zm1.668,6.679a4.366,4.366,0,0,1,.431-1.972,3.08,3.08,0,0,1,1.237-1.33,3.726,3.726,0,0,1,1.894-.465A3.4,3.4,0,0,1,53.733,32.5a3.948,3.948,0,0,1,.957,2.8v.082a3.83,3.83,0,0,1-.96,2.745,3.41,3.41,0,0,1-2.6,1.015,3.449,3.449,0,0,1-2.536-.947,3.7,3.7,0,0,1-1.032-2.567Zm2.3.144a2.752,2.752,0,0,0,.321,1.5,1.07,1.07,0,0,0,.95.479q1.23,0,1.258-1.894v-.232q0-1.989-1.271-1.989-1.155,0-1.251,1.716Zm15.723.588.745-4.361h2.208L66.79,39H64.841l-1.224-4.389L62.387,39H60.439L58.7,31.6H60.9l.731,4.464L62.811,31.6h1.606Zm7.355,3.172a3.8,3.8,0,0,1-2.755-1.015,3.506,3.506,0,0,1-1.053-2.642v-.191a4.542,4.542,0,0,1,.42-2,3.076,3.076,0,0,1,1.227-1.343,3.7,3.7,0,0,1,1.914-.475,3.2,3.2,0,0,1,2.461.967,3.8,3.8,0,0,1,.9,2.7v.9h-4.58a1.66,1.66,0,0,0,.54.978,1.607,1.607,0,0,0,1.08.355,2.07,2.07,0,0,0,1.709-.766l1.053,1.244a2.943,2.943,0,0,1-1.22.947A4.124,4.124,0,0,1,72.935,39.137Zm-.26-5.893q-1.012,0-1.2,1.34H73.8v-.178a1.141,1.141,0,0,0-.28-.858A1.115,1.115,0,0,0,72.675,33.244Zm11.17,2.119a4.508,4.508,0,0,1-.752,2.8,2.519,2.519,0,0,1-2.119.978,2.186,2.186,0,0,1-1.818-.9l-.1.759H77V28.5h2.3v3.7a2.109,2.109,0,0,1,1.661-.731,2.519,2.519,0,0,1,2.133.991,4.531,4.531,0,0,1,.752,2.789Zm-2.311-.147a3.007,3.007,0,0,0-.284-1.518.956.956,0,0,0-.872-.454,1.1,1.1,0,0,0-1.08.594v2.935a1.109,1.109,0,0,0,1.094.587.978.978,0,0,0,1.032-.792A5.685,5.685,0,0,0,81.535,35.216Z" transform="translate(311 2733)" fill="#12263f"/>
    <path id="Trazado_655387" data-name="Trazado 655387" d="M26.922,11.035H23.053V15h-2.4V5.047h6.658V6.9H23.053v2.29h3.869ZM30.634,15H28.324V4.5h2.311Zm5.824-.8a2.375,2.375,0,0,1-1.976.937,2.329,2.329,0,0,1-1.842-.708,2.976,2.976,0,0,1-.625-2.034V7.6h2.3v4.806a.828.828,0,0,0,.923.95,1.2,1.2,0,0,0,1.128-.567V7.6h2.317V15h-2.16Zm5.968-6.6v7.649a2.685,2.685,0,0,1-.752,2.023,2.889,2.889,0,0,1-2.078.711,4.906,4.906,0,0,1-1.087-.116V16.128a4.408,4.408,0,0,0,.649.062.843.843,0,0,0,.957-.95V7.6ZM39.945,5.7A1.028,1.028,0,0,1,40.3,4.89a1.511,1.511,0,0,1,1.846,0A1.028,1.028,0,0,1,42.5,5.7a1.028,1.028,0,0,1-.355.807,1.511,1.511,0,0,1-1.846,0A1.028,1.028,0,0,1,39.945,5.7Zm3.493,5.537a4.366,4.366,0,0,1,.431-1.972,3.08,3.08,0,0,1,1.237-1.33A3.726,3.726,0,0,1,47,7.467,3.4,3.4,0,0,1,49.618,8.5a3.948,3.948,0,0,1,.957,2.8v.082a3.83,3.83,0,0,1-.96,2.745,3.41,3.41,0,0,1-2.6,1.015,3.449,3.449,0,0,1-2.536-.947,3.7,3.7,0,0,1-1.032-2.567Zm2.3.144a2.752,2.752,0,0,0,.321,1.5,1.07,1.07,0,0,0,.95.479q1.23,0,1.258-1.894v-.232q0-1.989-1.271-1.989-1.155,0-1.251,1.716Zm9.721,1.545a.532.532,0,0,0-.308-.472,4.679,4.679,0,0,0-1.169-.369,5.33,5.33,0,0,1-1.422-.5,2.382,2.382,0,0,1-.854-.755A1.8,1.8,0,0,1,51.416,9.8a2.044,2.044,0,0,1,.841-1.678,3.464,3.464,0,0,1,2.2-.66,3.837,3.837,0,0,1,2.352.663A2.074,2.074,0,0,1,57.7,9.873H55.387q0-.889-.937-.889a.928.928,0,0,0-.608.2.624.624,0,0,0-.246.5.573.573,0,0,0,.3.5,2.842,2.842,0,0,0,.96.314,8.3,8.3,0,0,1,1.159.294,2.105,2.105,0,0,1,1.668,2.058,1.937,1.937,0,0,1-.9,1.647,3.942,3.942,0,0,1-2.328.636,4.023,4.023,0,0,1-1.7-.342,2.835,2.835,0,0,1-1.162-.93,2.105,2.105,0,0,1-.417-1.237h2.153a.89.89,0,0,0,.342.749,1.406,1.406,0,0,0,.841.236,1.106,1.106,0,0,0,.708-.191A.612.612,0,0,0,55.462,12.922Zm6.494-1.675a4.518,4.518,0,0,1,.759-2.769,2.5,2.5,0,0,1,2.119-1.012,2.124,2.124,0,0,1,1.668.779V4.5h2.311V15H66.742l-.116-.793a2.181,2.181,0,0,1-1.8.93,2.493,2.493,0,0,1-2.092-1.012A4.662,4.662,0,0,1,61.957,11.247Zm2.3.144q0,1.969,1.148,1.969a1.134,1.134,0,0,0,1.094-.643V9.9a1.1,1.1,0,0,0-1.08-.656q-1.066,0-1.155,1.723Zm9.44,3.746a3.8,3.8,0,0,1-2.755-1.015,3.506,3.506,0,0,1-1.053-2.642v-.191a4.542,4.542,0,0,1,.42-2,3.076,3.076,0,0,1,1.227-1.343,3.7,3.7,0,0,1,1.914-.475,3.2,3.2,0,0,1,2.461.967,3.8,3.8,0,0,1,.9,2.7v.9h-4.58a1.66,1.66,0,0,0,.54.978,1.607,1.607,0,0,0,1.08.355,2.07,2.07,0,0,0,1.709-.766l1.053,1.244a2.943,2.943,0,0,1-1.22.947A4.124,4.124,0,0,1,73.7,15.137Zm-.26-5.893q-1.012,0-1.2,1.34h2.324v-.178a1.141,1.141,0,0,0-.28-.858A1.115,1.115,0,0,0,73.441,9.244ZM29.684,29.765V31.6H30.9v1.6H29.684v3.384a.864.864,0,0,0,.15.581.807.807,0,0,0,.595.164A3.38,3.38,0,0,0,31,37.291v1.647a4.252,4.252,0,0,1-1.3.2,2.413,2.413,0,0,1-1.757-.561,2.3,2.3,0,0,1-.567-1.7V33.2h-.943V31.6h.943V29.765Zm6.6,3.924-.759-.055a1.363,1.363,0,0,0-1.395.684V39h-2.3V31.6h2.16l.075.95a1.784,1.784,0,0,1,1.62-1.087,2.247,2.247,0,0,1,.643.082ZM41.073,39a2.6,2.6,0,0,1-.219-.663,2.142,2.142,0,0,1-1.777.8A2.624,2.624,0,0,1,37.3,38.5a2.013,2.013,0,0,1-.731-1.589,2.069,2.069,0,0,1,.889-1.818,4.527,4.527,0,0,1,2.584-.615h.711V34.09q0-1.023-.882-1.023a.721.721,0,0,0-.82.811h-2.3a2.065,2.065,0,0,1,.913-1.741,3.835,3.835,0,0,1,2.328-.669,3.363,3.363,0,0,1,2.235.69,2.4,2.4,0,0,1,.841,1.894v3.274a3.353,3.353,0,0,0,.314,1.559V39ZM39.63,37.5a1.285,1.285,0,0,0,.714-.185,1.157,1.157,0,0,0,.407-.417V35.712h-.67q-1.2,0-1.2,1.08a.659.659,0,0,0,.212.509A.767.767,0,0,0,39.63,37.5ZM51.2,35.363a4.508,4.508,0,0,1-.752,2.8,2.519,2.519,0,0,1-2.119.978,2.186,2.186,0,0,1-1.818-.9l-.1.759H44.354V28.5h2.3v3.7a2.109,2.109,0,0,1,1.661-.731,2.519,2.519,0,0,1,2.133.991,4.531,4.531,0,0,1,.752,2.789Zm-2.311-.147a3.007,3.007,0,0,0-.284-1.518.956.956,0,0,0-.872-.454,1.1,1.1,0,0,0-1.08.594v2.935a1.109,1.109,0,0,0,1.094.587.978.978,0,0,0,1.032-.792A5.685,5.685,0,0,0,48.893,35.216ZM56.385,39a2.6,2.6,0,0,1-.219-.663,2.142,2.142,0,0,1-1.777.8,2.624,2.624,0,0,1-1.777-.632,2.013,2.013,0,0,1-.731-1.589,2.069,2.069,0,0,1,.889-1.818,4.527,4.527,0,0,1,2.584-.615h.711V34.09q0-1.023-.882-1.023a.721.721,0,0,0-.82.811h-2.3a2.065,2.065,0,0,1,.913-1.741,3.835,3.835,0,0,1,2.328-.669,3.363,3.363,0,0,1,2.235.69,2.4,2.4,0,0,1,.841,1.894v3.274a3.353,3.353,0,0,0,.314,1.559V39Zm-1.442-1.5a1.285,1.285,0,0,0,.714-.185,1.157,1.157,0,0,0,.407-.417V35.712h-.67q-1.2,0-1.2,1.08a.659.659,0,0,0,.212.509A.767.767,0,0,0,54.943,37.5ZM62.127,31.6v7.649a2.685,2.685,0,0,1-.752,2.023,2.889,2.889,0,0,1-2.078.711,4.906,4.906,0,0,1-1.087-.116V40.128a4.408,4.408,0,0,0,.649.062.843.843,0,0,0,.957-.95V31.6ZM59.646,29.7A1.028,1.028,0,0,1,60,28.89a1.511,1.511,0,0,1,1.846,0,1.093,1.093,0,0,1,0,1.613A1.511,1.511,0,0,1,60,30.5,1.028,1.028,0,0,1,59.646,29.7Zm3.493,5.537a4.366,4.366,0,0,1,.431-1.972,3.08,3.08,0,0,1,1.237-1.33,3.726,3.726,0,0,1,1.894-.465A3.4,3.4,0,0,1,69.319,32.5a3.948,3.948,0,0,1,.957,2.8v.082a3.83,3.83,0,0,1-.96,2.745,3.41,3.41,0,0,1-2.6,1.015,3.449,3.449,0,0,1-2.536-.947,3.7,3.7,0,0,1-1.032-2.567Zm2.3.144a2.752,2.752,0,0,0,.321,1.5,1.07,1.07,0,0,0,.95.479q1.23,0,1.258-1.894v-.232q0-1.989-1.271-1.989-1.155,0-1.251,1.716Z" transform="translate(814 2733)" fill="#12263f"/>
    <path id="Trazado_655388" data-name="Trazado 655388" d="M24.554,11.63a3.635,3.635,0,0,1-.561,1.835A3.383,3.383,0,0,1,22.554,14.7a4.9,4.9,0,0,1-2.116.438,3.908,3.908,0,0,1-3.09-1.278,5.278,5.278,0,0,1-1.128-3.609V9.757A6.025,6.025,0,0,1,16.73,7.2,3.859,3.859,0,0,1,18.2,5.5a4.091,4.091,0,0,1,2.215-.6,4.29,4.29,0,0,1,2.912.954,3.768,3.768,0,0,1,1.251,2.628H22.182a1.783,1.783,0,0,0-.458-1.306,1.884,1.884,0,0,0-1.312-.4,1.433,1.433,0,0,0-1.312.67,4.306,4.306,0,0,0-.437,2.14v.7a4.764,4.764,0,0,0,.4,2.276,1.463,1.463,0,0,0,1.377.684,1.842,1.842,0,0,0,1.265-.39,1.654,1.654,0,0,0,.465-1.237Zm.738-.4a4.366,4.366,0,0,1,.431-1.972,3.08,3.08,0,0,1,1.237-1.33,3.726,3.726,0,0,1,1.894-.465A3.4,3.4,0,0,1,31.472,8.5a3.948,3.948,0,0,1,.957,2.8v.082a3.83,3.83,0,0,1-.96,2.745,3.41,3.41,0,0,1-2.6,1.015,3.449,3.449,0,0,1-2.536-.947A3.7,3.7,0,0,1,25.3,11.623Zm2.3.144a2.752,2.752,0,0,0,.321,1.5,1.07,1.07,0,0,0,.95.479q1.23,0,1.258-1.894v-.232q0-1.989-1.271-1.989-1.155,0-1.251,1.716ZM35.56,7.6l.075.868a2.508,2.508,0,0,1,2.112-1,2.11,2.11,0,0,1,1.726.69,3.287,3.287,0,0,1,.591,2.078V15H37.754V10.331a1.248,1.248,0,0,0-.226-.824,1.044,1.044,0,0,0-.82-.263,1.1,1.1,0,0,0-1,.533V15H33.4V7.6Zm8.463-1.839V7.6h1.217V9.2H44.022v3.384a.864.864,0,0,0,.15.581.807.807,0,0,0,.595.164,3.38,3.38,0,0,0,.574-.041v1.647a4.252,4.252,0,0,1-1.3.2,2.413,2.413,0,0,1-1.757-.561,2.3,2.3,0,0,1-.567-1.7V9.2h-.943V7.6h.943V5.765Zm6.6,3.924-.759-.055a1.363,1.363,0,0,0-1.395.684V15h-2.3V7.6h2.16l.075.95a1.784,1.784,0,0,1,1.62-1.087,2.247,2.247,0,0,1,.643.082Zm.294,1.545a4.366,4.366,0,0,1,.431-1.972,3.08,3.08,0,0,1,1.237-1.33,3.726,3.726,0,0,1,1.894-.465A3.4,3.4,0,0,1,57.093,8.5a3.948,3.948,0,0,1,.957,2.8v.082a3.83,3.83,0,0,1-.96,2.745,3.41,3.41,0,0,1-2.6,1.015,3.449,3.449,0,0,1-2.536-.947,3.7,3.7,0,0,1-1.032-2.567Zm2.3.144a2.752,2.752,0,0,0,.321,1.5,1.07,1.07,0,0,0,.95.479q1.23,0,1.258-1.894v-.232q0-1.989-1.271-1.989-1.155,0-1.251,1.716ZM61.5,15H59.185V4.5H61.5Zm4.614-3.753a4.518,4.518,0,0,1,.759-2.769,2.5,2.5,0,0,1,2.119-1.012,2.124,2.124,0,0,1,1.668.779V4.5h2.311V15H70.895l-.116-.793a2.181,2.181,0,0,1-1.8.93,2.493,2.493,0,0,1-2.092-1.012A4.661,4.661,0,0,1,66.109,11.247Zm2.3.144q0,1.969,1.148,1.969a1.134,1.134,0,0,0,1.094-.643V9.9a1.1,1.1,0,0,0-1.08-.656q-1.066,0-1.155,1.723Zm9.44,3.746A3.8,3.8,0,0,1,75.1,14.122a3.506,3.506,0,0,1-1.053-2.642v-.191a4.542,4.542,0,0,1,.42-2,3.076,3.076,0,0,1,1.227-1.343,3.7,3.7,0,0,1,1.914-.475,3.2,3.2,0,0,1,2.461.967,3.8,3.8,0,0,1,.9,2.7v.9h-4.58a1.66,1.66,0,0,0,.54.978,1.607,1.607,0,0,0,1.08.355,2.07,2.07,0,0,0,1.709-.766l1.053,1.244a2.943,2.943,0,0,1-1.22.947A4.124,4.124,0,0,1,77.854,15.137Zm-.26-5.893q-1.012,0-1.2,1.34h2.324v-.178a1.141,1.141,0,0,0-.28-.858A1.115,1.115,0,0,0,77.594,9.244ZM21.231,36.259,22.4,31.6h2.427L22.414,39H20.063l-2.413-7.4h2.434Zm7.861,2.878a3.8,3.8,0,0,1-2.755-1.015,3.506,3.506,0,0,1-1.053-2.642v-.191a4.542,4.542,0,0,1,.42-2,3.076,3.076,0,0,1,1.227-1.343,3.7,3.7,0,0,1,1.914-.475,3.2,3.2,0,0,1,2.461.967,3.8,3.8,0,0,1,.9,2.7v.9H27.63a1.66,1.66,0,0,0,.54.978,1.607,1.607,0,0,0,1.08.355,2.07,2.07,0,0,0,1.709-.766l1.053,1.244a2.943,2.943,0,0,1-1.22.947A4.124,4.124,0,0,1,29.093,39.137Zm-.26-5.893q-1.012,0-1.2,1.34h2.324v-.178a1.141,1.141,0,0,0-.28-.858A1.115,1.115,0,0,0,28.833,33.244Zm8.777.444-.759-.055a1.363,1.363,0,0,0-1.395.684V39h-2.3V31.6h2.16l.075.95a1.784,1.784,0,0,1,1.62-1.087,2.247,2.247,0,0,1,.643.082Zm4.7,3.233a.532.532,0,0,0-.308-.472,4.679,4.679,0,0,0-1.169-.369,5.33,5.33,0,0,1-1.422-.5,2.382,2.382,0,0,1-.854-.755,1.8,1.8,0,0,1-.294-1.019,2.044,2.044,0,0,1,.841-1.678,3.464,3.464,0,0,1,2.2-.66,3.837,3.837,0,0,1,2.352.663,2.074,2.074,0,0,1,.889,1.743H42.238q0-.889-.937-.889a.928.928,0,0,0-.608.2.624.624,0,0,0-.246.5.573.573,0,0,0,.3.5,2.842,2.842,0,0,0,.96.314,8.3,8.3,0,0,1,1.159.294,2.105,2.105,0,0,1,1.668,2.058,1.937,1.937,0,0,1-.9,1.647,3.942,3.942,0,0,1-2.328.636,4.023,4.023,0,0,1-1.7-.342,2.835,2.835,0,0,1-1.162-.93,2.105,2.105,0,0,1-.417-1.237h2.153a.89.89,0,0,0,.342.749,1.406,1.406,0,0,0,.841.236,1.106,1.106,0,0,0,.708-.191A.612.612,0,0,0,42.313,36.922ZM48.042,39H45.731V31.6h2.311Zm-2.447-9.3a1.028,1.028,0,0,1,.355-.807,1.511,1.511,0,0,1,1.846,0,1.093,1.093,0,0,1,0,1.613,1.511,1.511,0,0,1-1.846,0A1.028,1.028,0,0,1,45.595,29.7Zm3.575,5.537a4.366,4.366,0,0,1,.431-1.972,3.08,3.08,0,0,1,1.237-1.33,3.726,3.726,0,0,1,1.894-.465A3.4,3.4,0,0,1,55.35,32.5a3.948,3.948,0,0,1,.957,2.8v.082a3.83,3.83,0,0,1-.96,2.745,3.41,3.41,0,0,1-2.6,1.015,3.449,3.449,0,0,1-2.536-.947,3.7,3.7,0,0,1-1.032-2.567Zm2.3.144a2.752,2.752,0,0,0,.321,1.5,1.07,1.07,0,0,0,.95.479q1.23,0,1.258-1.894v-.232q0-1.989-1.271-1.989-1.155,0-1.251,1.716ZM59.438,31.6l.075.868a2.508,2.508,0,0,1,2.112-1,2.11,2.11,0,0,1,1.726.69,3.287,3.287,0,0,1,.591,2.078V39H61.632V34.331a1.248,1.248,0,0,0-.226-.824,1.044,1.044,0,0,0-.82-.263,1.1,1.1,0,0,0-1,.533V39h-2.3V31.6ZM68.8,39.137a3.8,3.8,0,0,1-2.755-1.015,3.506,3.506,0,0,1-1.053-2.642v-.191a4.542,4.542,0,0,1,.42-2,3.076,3.076,0,0,1,1.227-1.343,3.7,3.7,0,0,1,1.914-.475,3.2,3.2,0,0,1,2.461.967,3.8,3.8,0,0,1,.9,2.7v.9h-4.58a1.66,1.66,0,0,0,.54.978,1.607,1.607,0,0,0,1.08.355,2.07,2.07,0,0,0,1.709-.766l1.053,1.244a2.943,2.943,0,0,1-1.22.947A4.124,4.124,0,0,1,68.8,39.137Zm-.26-5.893q-1.012,0-1.2,1.34h2.324v-.178a1.141,1.141,0,0,0-.28-.858A1.115,1.115,0,0,0,68.536,33.244Zm8.176,3.678a.532.532,0,0,0-.308-.472,4.679,4.679,0,0,0-1.169-.369,5.33,5.33,0,0,1-1.422-.5,2.382,2.382,0,0,1-.854-.755,1.8,1.8,0,0,1-.294-1.019,2.044,2.044,0,0,1,.841-1.678,3.464,3.464,0,0,1,2.2-.66,3.837,3.837,0,0,1,2.352.663,2.074,2.074,0,0,1,.889,1.743H76.637q0-.889-.937-.889a.928.928,0,0,0-.608.2.624.624,0,0,0-.246.5.573.573,0,0,0,.3.5,2.842,2.842,0,0,0,.96.314,8.3,8.3,0,0,1,1.159.294,2.105,2.105,0,0,1,1.668,2.058,1.937,1.937,0,0,1-.9,1.647,3.942,3.942,0,0,1-2.328.636,4.023,4.023,0,0,1-1.7-.342,2.835,2.835,0,0,1-1.162-.93,2.105,2.105,0,0,1-.417-1.237h2.153a.89.89,0,0,0,.342.749,1.406,1.406,0,0,0,.841.236,1.106,1.106,0,0,0,.708-.191A.612.612,0,0,0,76.712,36.922Z" transform="translate(1064 2733)" fill="#12263f"/>
    <path id="Trazado_655389" data-name="Trazado 655389" d="M18.49,10.775H14.717v2.379h4.457V15H12.317V5.047h6.87V6.9H14.717V9H18.49ZM22.161,7.6l.075.868a2.508,2.508,0,0,1,2.112-1,2.11,2.11,0,0,1,1.726.69,3.287,3.287,0,0,1,.591,2.078V15H24.355V10.331a1.248,1.248,0,0,0-.226-.824,1.044,1.044,0,0,0-.82-.263,1.1,1.1,0,0,0-1,.533V15H20V7.6ZM28.45,15V9.2H27.377V7.6H28.45V7.016A2.556,2.556,0,0,1,29.2,5.054a2.944,2.944,0,0,1,2.092-.7,4.581,4.581,0,0,1,1.08.144l.007,1.7a2.1,2.1,0,0,0-.567-.062q-1.046,0-1.046.9V7.6H32.2V9.2H30.761V15Zm4.272-3.767a4.366,4.366,0,0,1,.431-1.972,3.08,3.08,0,0,1,1.237-1.33,3.726,3.726,0,0,1,1.894-.465A3.4,3.4,0,0,1,38.9,8.5a3.948,3.948,0,0,1,.957,2.8v.082a3.83,3.83,0,0,1-.96,2.745,3.41,3.41,0,0,1-2.6,1.015,3.449,3.449,0,0,1-2.536-.947,3.7,3.7,0,0,1-1.032-2.567Zm2.3.144a2.752,2.752,0,0,0,.321,1.5,1.07,1.07,0,0,0,.95.479q1.23,0,1.258-1.894v-.232q0-1.989-1.271-1.989-1.155,0-1.251,1.716ZM44,13.359a1.025,1.025,0,0,0,.752-.263.965.965,0,0,0,.26-.735h2.16a2.557,2.557,0,0,1-.872,2,3.242,3.242,0,0,1-2.246.779,3.282,3.282,0,0,1-2.543-1.012,3.986,3.986,0,0,1-.93-2.8v-.1A4.505,4.505,0,0,1,41,9.248,3.011,3.011,0,0,1,42.19,7.928a3.557,3.557,0,0,1,1.846-.461,3.2,3.2,0,0,1,2.29.8,2.837,2.837,0,0,1,.848,2.167h-2.16a1.265,1.265,0,0,0-.28-.882.967.967,0,0,0-.752-.308q-.9,0-1.046,1.142a8.055,8.055,0,0,0-.048,1,3.164,3.164,0,0,0,.267,1.545A.923.923,0,0,0,44,13.359ZM52.314,15a2.6,2.6,0,0,1-.219-.663,2.142,2.142,0,0,1-1.777.8,2.624,2.624,0,0,1-1.777-.632,2.013,2.013,0,0,1-.731-1.589A2.069,2.069,0,0,1,48.7,11.1a4.527,4.527,0,0,1,2.584-.615h.711V10.09q0-1.023-.882-1.023a.721.721,0,0,0-.82.811h-2.3A2.065,2.065,0,0,1,48.9,8.136a3.835,3.835,0,0,1,2.328-.669,3.363,3.363,0,0,1,2.235.69,2.4,2.4,0,0,1,.841,1.894v3.274a3.353,3.353,0,0,0,.314,1.559V15Zm-1.442-1.5a1.285,1.285,0,0,0,.714-.185,1.157,1.157,0,0,0,.407-.417V11.712h-.67q-1.2,0-1.2,1.08a.659.659,0,0,0,.212.509A.767.767,0,0,0,50.872,13.5Zm4.416-2.249a4.518,4.518,0,0,1,.759-2.769,2.5,2.5,0,0,1,2.119-1.012,2.124,2.124,0,0,1,1.668.779V4.5h2.311V15H60.073l-.116-.793a2.181,2.181,0,0,1-1.8.93,2.493,2.493,0,0,1-2.092-1.012A4.662,4.662,0,0,1,55.288,11.247Zm2.3.144q0,1.969,1.148,1.969a1.134,1.134,0,0,0,1.094-.643V9.9a1.1,1.1,0,0,0-1.08-.656q-1.066,0-1.155,1.723Zm5.571-.157a4.366,4.366,0,0,1,.431-1.972,3.08,3.08,0,0,1,1.237-1.33,3.726,3.726,0,0,1,1.894-.465A3.4,3.4,0,0,1,69.343,8.5a3.948,3.948,0,0,1,.957,2.8v.082a3.83,3.83,0,0,1-.96,2.745,3.41,3.41,0,0,1-2.6,1.015A3.449,3.449,0,0,1,64.2,14.19a3.7,3.7,0,0,1-1.032-2.567Zm2.3.144a2.752,2.752,0,0,0,.321,1.5,1.07,1.07,0,0,0,.95.479q1.23,0,1.258-1.894v-.232q0-1.989-1.271-1.989-1.155,0-1.251,1.716ZM78.968,15a2.6,2.6,0,0,1-.219-.663,2.142,2.142,0,0,1-1.777.8,2.624,2.624,0,0,1-1.777-.632,2.013,2.013,0,0,1-.731-1.589,2.069,2.069,0,0,1,.889-1.818,4.527,4.527,0,0,1,2.584-.615h.711V10.09q0-1.023-.882-1.023a.721.721,0,0,0-.82.811h-2.3a2.065,2.065,0,0,1,.913-1.741,3.835,3.835,0,0,1,2.328-.669,3.363,3.363,0,0,1,2.235.69,2.4,2.4,0,0,1,.841,1.894v3.274a3.353,3.353,0,0,0,.314,1.559V15Zm-1.442-1.5a1.285,1.285,0,0,0,.714-.185,1.157,1.157,0,0,0,.407-.417V11.712h-.67q-1.2,0-1.2,1.08a.659.659,0,0,0,.212.509A.767.767,0,0,0,77.525,13.5ZM84.662,15H82.352V4.5h2.311ZM41.254,36.354a.986.986,0,0,0-.373-.82,4.631,4.631,0,0,0-1.309-.608,12.559,12.559,0,0,1-1.531-.608,2.9,2.9,0,0,1-1.935-2.611,2.342,2.342,0,0,1,.482-1.459,3.117,3.117,0,0,1,1.364-.984,5.307,5.307,0,0,1,1.982-.352,4.642,4.642,0,0,1,1.924.383,3.047,3.047,0,0,1,1.323,1.09A2.847,2.847,0,0,1,43.653,32H41.261a1.2,1.2,0,0,0-.373-.943,1.452,1.452,0,0,0-1.008-.335,1.638,1.638,0,0,0-1.015.284A.835.835,0,0,0,38.9,32.42a5.172,5.172,0,0,0,1.442.643,8.836,8.836,0,0,1,1.7.714,2.849,2.849,0,0,1,1.613,2.563,2.43,2.43,0,0,1-.984,2.051,4.378,4.378,0,0,1-2.7.745,5.357,5.357,0,0,1-2.191-.434A3.3,3.3,0,0,1,36.3,37.513a3.1,3.1,0,0,1-.5-1.74h2.406a1.526,1.526,0,0,0,.414,1.179,1.955,1.955,0,0,0,1.343.379,1.544,1.544,0,0,0,.94-.256A.846.846,0,0,0,41.254,36.354Zm9.8-1.579H47.283v2.379H51.74V39H44.884V29.047h6.87V30.9H47.283V33h3.773Zm10.09-.547a5.869,5.869,0,0,1-.54,2.577,3.991,3.991,0,0,1-1.535,1.726,4.273,4.273,0,0,1-2.266.6,4.334,4.334,0,0,1-2.256-.584,3.985,3.985,0,0,1-1.535-1.671,5.7,5.7,0,0,1-.578-2.5v-.561a5.9,5.9,0,0,1,.537-2.581,3.981,3.981,0,0,1,1.538-1.726,4.553,4.553,0,0,1,4.536-.007,4.053,4.053,0,0,1,1.542,1.712,5.726,5.726,0,0,1,.557,2.546Zm-2.44-.417a4.185,4.185,0,0,0-.5-2.252,1.59,1.59,0,0,0-1.418-.769q-1.8,0-1.907,2.707l-.007.731a4.3,4.3,0,0,0,.485,2.249,1.587,1.587,0,0,0,1.442.786,1.568,1.568,0,0,0,1.4-.772,4.187,4.187,0,0,0,.5-2.222Z" transform="translate(565 2733)" fill="#12263f"/>
    <path id="Trazado_655390" data-name="Trazado 655390" d="M16.781,11.63a3.635,3.635,0,0,1-.561,1.835A3.383,3.383,0,0,1,14.782,14.7a4.9,4.9,0,0,1-2.116.438,3.908,3.908,0,0,1-3.09-1.278,5.278,5.278,0,0,1-1.128-3.609V9.757A6.025,6.025,0,0,1,8.958,7.2a3.859,3.859,0,0,1,1.466-1.7,4.091,4.091,0,0,1,2.215-.6,4.29,4.29,0,0,1,2.912.954A3.768,3.768,0,0,1,16.8,8.485H14.409a1.783,1.783,0,0,0-.458-1.306,1.884,1.884,0,0,0-1.312-.4,1.433,1.433,0,0,0-1.312.67,4.306,4.306,0,0,0-.437,2.14v.7a4.764,4.764,0,0,0,.4,2.276,1.463,1.463,0,0,0,1.377.684,1.842,1.842,0,0,0,1.265-.39A1.654,1.654,0,0,0,14.4,11.63Zm.738-.4a4.366,4.366,0,0,1,.431-1.972,3.08,3.08,0,0,1,1.237-1.33,3.726,3.726,0,0,1,1.894-.465A3.4,3.4,0,0,1,23.7,8.5a3.948,3.948,0,0,1,.957,2.8v.082a3.83,3.83,0,0,1-.96,2.745,3.41,3.41,0,0,1-2.6,1.015,3.449,3.449,0,0,1-2.536-.947,3.7,3.7,0,0,1-1.032-2.567Zm2.3.144a2.752,2.752,0,0,0,.321,1.5,1.07,1.07,0,0,0,.95.479q1.23,0,1.258-1.894v-.232q0-1.989-1.271-1.989-1.155,0-1.251,1.716ZM27.849,7.6l.075.868a2.543,2.543,0,0,1,2.112-1A1.872,1.872,0,0,1,31.93,8.581,2.462,2.462,0,0,1,34.1,7.467q2.249,0,2.311,2.721V15H34.1V10.331a1.41,1.41,0,0,0-.191-.827.815.815,0,0,0-.7-.26,1.091,1.091,0,0,0-1.019.608l.007.1V15H29.893V10.345a1.482,1.482,0,0,0-.185-.841.812.812,0,0,0-.7-.26,1.1,1.1,0,0,0-1.012.608V15h-2.3V7.6Zm13.46,7.533a3.8,3.8,0,0,1-2.755-1.015A3.506,3.506,0,0,1,37.5,11.479v-.191a4.542,4.542,0,0,1,.42-2,3.076,3.076,0,0,1,1.227-1.343,3.7,3.7,0,0,1,1.914-.475,3.2,3.2,0,0,1,2.461.967,3.8,3.8,0,0,1,.9,2.7v.9h-4.58a1.66,1.66,0,0,0,.54.978,1.607,1.607,0,0,0,1.08.355,2.07,2.07,0,0,0,1.709-.766l1.053,1.244a2.943,2.943,0,0,1-1.22.947A4.123,4.123,0,0,1,41.309,15.137Zm-.26-5.893q-1.012,0-1.2,1.34H42.17v-.178a1.141,1.141,0,0,0-.28-.858A1.115,1.115,0,0,0,41.049,9.244ZM47.468,7.6l.075.868a2.508,2.508,0,0,1,2.112-1,2.11,2.11,0,0,1,1.726.69,3.287,3.287,0,0,1,.591,2.078V15H49.662V10.331a1.248,1.248,0,0,0-.226-.824,1.044,1.044,0,0,0-.82-.263,1.1,1.1,0,0,0-1,.533V15h-2.3V7.6Zm8.463-1.839V7.6h1.217V9.2H55.931v3.384a.864.864,0,0,0,.15.581.807.807,0,0,0,.595.164,3.38,3.38,0,0,0,.574-.041v1.647a4.252,4.252,0,0,1-1.3.2,2.413,2.413,0,0,1-1.757-.561,2.3,2.3,0,0,1-.567-1.7V9.2h-.943V7.6h.943V5.765ZM62.22,15A2.6,2.6,0,0,1,62,14.337a2.142,2.142,0,0,1-1.777.8,2.624,2.624,0,0,1-1.777-.632,2.013,2.013,0,0,1-.731-1.589A2.069,2.069,0,0,1,58.6,11.1a4.527,4.527,0,0,1,2.584-.615H61.9V10.09q0-1.023-.882-1.023a.721.721,0,0,0-.82.811h-2.3a2.065,2.065,0,0,1,.913-1.741,3.835,3.835,0,0,1,2.328-.669,3.363,3.363,0,0,1,2.235.69,2.4,2.4,0,0,1,.841,1.894v3.274a3.353,3.353,0,0,0,.314,1.559V15Zm-1.442-1.5a1.285,1.285,0,0,0,.714-.185,1.157,1.157,0,0,0,.407-.417V11.712h-.67q-1.2,0-1.2,1.08a.659.659,0,0,0,.212.509A.767.767,0,0,0,60.777,13.5Zm9.181-3.808L69.2,9.634a1.363,1.363,0,0,0-1.395.684V15H65.5V7.6h2.16l.075.95a1.784,1.784,0,0,1,1.62-1.087A2.246,2.246,0,0,1,70,7.549ZM73.219,15H70.908V7.6h2.311ZM70.771,5.7a1.028,1.028,0,0,1,.355-.807,1.511,1.511,0,0,1,1.846,0,1.028,1.028,0,0,1,.355.807,1.028,1.028,0,0,1-.355.807,1.511,1.511,0,0,1-1.846,0A1.028,1.028,0,0,1,70.771,5.7Zm3.575,5.537a4.366,4.366,0,0,1,.431-1.972,3.08,3.08,0,0,1,1.237-1.33,3.726,3.726,0,0,1,1.894-.465A3.4,3.4,0,0,1,80.526,8.5a3.948,3.948,0,0,1,.957,2.8v.082a3.83,3.83,0,0,1-.96,2.745,3.41,3.41,0,0,1-2.6,1.015,3.449,3.449,0,0,1-2.536-.947,3.7,3.7,0,0,1-1.032-2.567Zm2.3.144a2.752,2.752,0,0,0,.321,1.5,1.07,1.07,0,0,0,.95.479q1.23,0,1.258-1.894v-.232q0-1.989-1.271-1.989-1.155,0-1.251,1.716Zm9.721,1.545a.532.532,0,0,0-.308-.472,4.679,4.679,0,0,0-1.169-.369,5.33,5.33,0,0,1-1.422-.5,2.382,2.382,0,0,1-.854-.755A1.8,1.8,0,0,1,82.324,9.8a2.044,2.044,0,0,1,.841-1.678,3.464,3.464,0,0,1,2.2-.66,3.837,3.837,0,0,1,2.352.663,2.074,2.074,0,0,1,.889,1.743H86.3q0-.889-.937-.889a.928.928,0,0,0-.608.2.624.624,0,0,0-.246.5.573.573,0,0,0,.3.5,2.842,2.842,0,0,0,.96.314,8.3,8.3,0,0,1,1.159.294,2.105,2.105,0,0,1,1.668,2.058,1.937,1.937,0,0,1-.9,1.647,3.942,3.942,0,0,1-2.328.636,4.023,4.023,0,0,1-1.7-.342,2.835,2.835,0,0,1-1.162-.93,2.105,2.105,0,0,1-.417-1.237h2.153a.89.89,0,0,0,.342.749,1.406,1.406,0,0,0,.841.236,1.106,1.106,0,0,0,.708-.191A.612.612,0,0,0,86.371,12.922Z" transform="translate(938 2746)" fill="#12263f"/>
    <path id="Trazado_655391" data-name="Trazado 655391" d="M22.052,12.354a.986.986,0,0,0-.373-.82,4.631,4.631,0,0,0-1.309-.608,12.559,12.559,0,0,1-1.531-.608A2.9,2.9,0,0,1,16.9,7.706a2.342,2.342,0,0,1,.482-1.459,3.117,3.117,0,0,1,1.364-.984,5.307,5.307,0,0,1,1.982-.352,4.642,4.642,0,0,1,1.924.383,3.047,3.047,0,0,1,1.323,1.09A2.847,2.847,0,0,1,24.451,8H22.059a1.2,1.2,0,0,0-.373-.943,1.452,1.452,0,0,0-1.008-.335,1.638,1.638,0,0,0-1.015.284A.835.835,0,0,0,19.7,8.42a5.172,5.172,0,0,0,1.442.643,8.836,8.836,0,0,1,1.7.714,2.849,2.849,0,0,1,1.613,2.563,2.43,2.43,0,0,1-.984,2.051,4.378,4.378,0,0,1-2.7.745,5.357,5.357,0,0,1-2.191-.434A3.3,3.3,0,0,1,17.1,13.513a3.1,3.1,0,0,1-.5-1.74H19.01a1.526,1.526,0,0,0,.414,1.179,1.955,1.955,0,0,0,1.343.379,1.544,1.544,0,0,0,.94-.256A.846.846,0,0,0,22.052,12.354Zm7.1,2.782A3.8,3.8,0,0,1,26.4,14.122a3.506,3.506,0,0,1-1.053-2.642v-.191a4.542,4.542,0,0,1,.42-2,3.076,3.076,0,0,1,1.227-1.343,3.7,3.7,0,0,1,1.914-.475,3.2,3.2,0,0,1,2.461.967,3.8,3.8,0,0,1,.9,2.7v.9h-4.58a1.66,1.66,0,0,0,.54.978,1.607,1.607,0,0,0,1.08.355,2.07,2.07,0,0,0,1.709-.766l1.053,1.244a2.943,2.943,0,0,1-1.22.947A4.124,4.124,0,0,1,29.154,15.137Zm-.26-5.893q-1.012,0-1.2,1.34h2.324v-.178a1.141,1.141,0,0,0-.28-.858A1.115,1.115,0,0,0,28.895,9.244Zm4.033,2A4.994,4.994,0,0,1,33.3,9.265a2.972,2.972,0,0,1,1.06-1.33,2.793,2.793,0,0,1,1.606-.468,2.221,2.221,0,0,1,1.8.779L37.85,7.6h2.092V14.72a3.118,3.118,0,0,1-.455,1.7,2.917,2.917,0,0,1-1.316,1.107,4.837,4.837,0,0,1-2,.386A4.173,4.173,0,0,1,34.6,17.6a2.844,2.844,0,0,1-1.166-.8l.964-1.354a2.112,2.112,0,0,0,1.7.759,1.372,1.372,0,0,0,1.531-1.572v-.232a2.163,2.163,0,0,1-1.675.731A2.673,2.673,0,0,1,33.762,14.1a4.291,4.291,0,0,1-.834-2.772Zm2.311.144a2.631,2.631,0,0,0,.342,1.439,1.078,1.078,0,0,0,.957.53,1.224,1.224,0,0,0,1.087-.5V9.75a1.193,1.193,0,0,0-1.073-.506,1.086,1.086,0,0,0-.964.55A3,3,0,0,0,35.238,11.391ZM45.656,14.2a2.375,2.375,0,0,1-1.976.937,2.329,2.329,0,0,1-1.842-.708,2.976,2.976,0,0,1-.625-2.034V7.6h2.3v4.806a.828.828,0,0,0,.923.95,1.2,1.2,0,0,0,1.128-.567V7.6h2.317V15h-2.16ZM53.62,9.688l-.759-.055a1.363,1.363,0,0,0-1.395.684V15h-2.3V7.6h2.16l.075.95a1.784,1.784,0,0,1,1.62-1.087,2.247,2.247,0,0,1,.643.082ZM56.881,15H54.57V7.6h2.311ZM54.434,5.7a1.028,1.028,0,0,1,.355-.807,1.511,1.511,0,0,1,1.846,0,1.028,1.028,0,0,1,.355.807,1.028,1.028,0,0,1-.355.807,1.511,1.511,0,0,1-1.846,0A1.028,1.028,0,0,1,54.434,5.7Zm3.575,5.551a4.518,4.518,0,0,1,.759-2.769,2.5,2.5,0,0,1,2.119-1.012,2.124,2.124,0,0,1,1.668.779V4.5h2.311V15H62.794l-.116-.793a2.181,2.181,0,0,1-1.8.93,2.493,2.493,0,0,1-2.092-1.012A4.662,4.662,0,0,1,58.009,11.247Zm2.3.144q0,1.969,1.148,1.969a1.134,1.134,0,0,0,1.094-.643V9.9a1.1,1.1,0,0,0-1.08-.656q-1.066,0-1.155,1.723ZM70.341,15a2.6,2.6,0,0,1-.219-.663,2.142,2.142,0,0,1-1.777.8,2.624,2.624,0,0,1-1.777-.632,2.013,2.013,0,0,1-.731-1.589,2.069,2.069,0,0,1,.889-1.818,4.527,4.527,0,0,1,2.584-.615h.711V10.09q0-1.023-.882-1.023a.721.721,0,0,0-.82.811h-2.3a2.065,2.065,0,0,1,.913-1.741,3.835,3.835,0,0,1,2.328-.669,3.363,3.363,0,0,1,2.235.69,2.4,2.4,0,0,1,.841,1.894v3.274a3.353,3.353,0,0,0,.314,1.559V15ZM68.9,13.5a1.285,1.285,0,0,0,.714-.185,1.157,1.157,0,0,0,.407-.417V11.712h-.67q-1.2,0-1.2,1.08a.659.659,0,0,0,.212.509A.767.767,0,0,0,68.9,13.5Zm4.416-2.249a4.518,4.518,0,0,1,.759-2.769,2.5,2.5,0,0,1,2.119-1.012,2.124,2.124,0,0,1,1.668.779V4.5h2.311V15H78.1l-.116-.793a2.181,2.181,0,0,1-1.8.93,2.493,2.493,0,0,1-2.092-1.012A4.661,4.661,0,0,1,73.314,11.247Zm2.3.144q0,1.969,1.148,1.969a1.134,1.134,0,0,0,1.094-.643V9.9a1.1,1.1,0,0,0-1.08-.656q-1.066,0-1.155,1.723Z" transform="translate(1316 2746)" fill="#12263f"/>
    <path id="Trazado_237463" data-name="Trazado 237463" d="M0,0V118.256" transform="translate(813.268 2652.72) rotate(180)" fill="none" stroke="#12263f" stroke-width="3"/>
    <path id="Trazado_655121" data-name="Trazado 655121" d="M0,0V33.633" transform="translate(862.073 2686.353) rotate(180)" fill="none" stroke="#12263f" stroke-width="3"/>
    <path id="Trazado_655117" data-name="Trazado 655117" d="M0,0V33.633" transform="translate(235.79 2686.353) rotate(180)" fill="none" stroke="#12263f" stroke-width="3"/>
    <path id="Trazado_655118" data-name="Trazado 655118" d="M0,0V33.633" transform="translate(361.321 2686.353) rotate(180)" fill="none" stroke="#12263f" stroke-width="3"/>
    <path id="Trazado_655119" data-name="Trazado 655119" d="M0,0V33.633" transform="translate(487.704 2686.353) rotate(180)" fill="none" stroke="#12263f" stroke-width="3"/>
    <path id="Trazado_655078" data-name="Trazado 655078" d="M0,0V33.633" transform="translate(1365.568 2686.353) rotate(180)" fill="none" stroke="#12263f" stroke-width="3"/>
    <path id="Trazado_655077" data-name="Trazado 655077" d="M0,0V33.633" transform="translate(616.385 2686.353) rotate(180)" fill="none" stroke="#12263f" stroke-width="3"/>
    <path id="Trazado_655392" data-name="Trazado 655392" d="M5.365,0l5.365,8.941H0Z" transform="translate(608.642 2686.057) rotate(-60)" fill="#12263f"/>
    <path id="Trazado_655120" data-name="Trazado 655120" d="M0,0V33.633" transform="translate(740.896 2686.353) rotate(180)" fill="none" stroke="#12263f" stroke-width="3"/>
    <path id="Trazado_655393" data-name="Trazado 655393" d="M5.365,0l5.365,8.941H0Z" transform="translate(733.152 2686.057) rotate(-60)" fill="#12263f"/>
    <path id="Trazado_655394" data-name="Trazado 655394" d="M5.365,0l5.365,8.941H0Z" transform="translate(854.33 2686.057) rotate(-60)" fill="#12263f"/>
    <path id="Trazado_655123" data-name="Trazado 655123" d="M0,0V33.633" transform="translate(987.875 2686.353) rotate(180)" fill="none" stroke="#12263f" stroke-width="3"/>
    <path id="Trazado_655395" data-name="Trazado 655395" d="M5.365,0l5.365,8.941H0Z" transform="translate(980.132 2686.057) rotate(-60)" fill="#12263f"/>
    <path id="Trazado_655124" data-name="Trazado 655124" d="M0,0V33.633" transform="translate(1113.406 2686.353) rotate(180)" fill="none" stroke="#12263f" stroke-width="3"/>
    <path id="Trazado_655396" data-name="Trazado 655396" d="M5.365,0l5.365,8.941H0Z" transform="translate(1105.663 2686.057) rotate(-60)" fill="#12263f"/>
    <path id="Trazado_655125" data-name="Trazado 655125" d="M0,0V33.633" transform="translate(1238.937 2686.353) rotate(180)" fill="none" stroke="#12263f" stroke-width="3"/>
    <path id="Trazado_655397" data-name="Trazado 655397" d="M5.365,0l5.365,8.941H0Z" transform="translate(1231.193 2686.057) rotate(-60)" fill="#12263f"/>
    <path id="Trazado_655398" data-name="Trazado 655398" d="M5.365,0l5.365,8.941H0Z" transform="translate(228.047 2686.057) rotate(-60)" fill="#12263f"/>
    <path id="Trazado_655399" data-name="Trazado 655399" d="M5.365,0l5.365,8.941H0Z" transform="translate(353.578 2686.057) rotate(-60)" fill="#12263f"/>
    <path id="Trazado_655400" data-name="Trazado 655400" d="M5.365,0l5.365,8.941H0Z" transform="translate(480.049 2686.057) rotate(-60)" fill="#12263f"/>
    <path id="Trazado_655401" data-name="Trazado 655401" d="M5.365,0l5.365,8.941H0Z" transform="translate(1357.825 2686.057) rotate(-60)" fill="#12263f"/>
    <path id="Trazado_655076" data-name="Trazado 655076" d="M0,0V1129.946" transform="translate(235.621 2652.72) rotate(-90)" fill="none" stroke="#12263f" stroke-width="3"/>
    <g transform="matrix(1, 0, 0, 1, 171, 2460)" filter="url(#Trazado_655402)">
      <path id="Trazado_655402-2" data-name="Trazado 655402" d="M10,0H179a10,10,0,0,1,10,10V65a10,10,0,0,1-10,10H10A10,10,0,0,1,0,65V10A10,10,0,0,1,10,0Z" transform="translate(548 6)" fill="#5573c6"/>
    </g>
    <path id="Trazado_655403" data-name="Trazado 655403" d="M-47.451-3.171a1.278,1.278,0,0,0-.5-1.083,6.533,6.533,0,0,0-1.793-.8,12.71,12.71,0,0,1-2.05-.826,3.35,3.35,0,0,1-2.059-3,2.919,2.919,0,0,1,.552-1.747,3.6,3.6,0,0,1,1.585-1.2,5.967,5.967,0,0,1,2.32-.432,5.432,5.432,0,0,1,2.308.469,3.674,3.674,0,0,1,1.573,1.324,3.464,3.464,0,0,1,.56,1.942h-2.49a1.63,1.63,0,0,0-.523-1.291,2.15,2.15,0,0,0-1.469-.461,2.3,2.3,0,0,0-1.419.386,1.217,1.217,0,0,0-.506,1.017,1.166,1.166,0,0,0,.594.988,6.705,6.705,0,0,0,1.747.747,7.55,7.55,0,0,1,3.1,1.585,3.157,3.157,0,0,1,.971,2.357A2.909,2.909,0,0,1-46.14-.726a5.2,5.2,0,0,1-3.2.892,6.171,6.171,0,0,1-2.54-.51,4.019,4.019,0,0,1-1.747-1.4,3.582,3.582,0,0,1-.6-2.059h2.5q0,2,2.391,2a2.326,2.326,0,0,0,1.386-.361A1.175,1.175,0,0,0-47.451-3.171Zm3.652-1.4a5.327,5.327,0,0,1,.515-2.382A3.767,3.767,0,0,1-41.8-8.575a4.323,4.323,0,0,1,2.245-.573A4.09,4.09,0,0,1-36.59-8.035a4.464,4.464,0,0,1,1.282,3.021l.017.614a4.694,4.694,0,0,1-1.154,3.316,4.011,4.011,0,0,1-3.1,1.249,4.031,4.031,0,0,1-3.1-1.245A4.777,4.777,0,0,1-43.8-4.466Zm2.4.17a3.357,3.357,0,0,0,.481,1.958,1.588,1.588,0,0,0,1.378.678,1.592,1.592,0,0,0,1.361-.669,3.674,3.674,0,0,0,.49-2.141,3.324,3.324,0,0,0-.49-1.945,1.592,1.592,0,0,0-1.378-.69,1.566,1.566,0,0,0-1.361.686A3.735,3.735,0,0,0-41.4-4.4ZM-33.157,0V-7.222h-1.336v-1.76h1.336v-.764a3.1,3.1,0,0,1,.867-2.345,3.359,3.359,0,0,1,2.428-.834,5.608,5.608,0,0,1,1.22.166l-.025,1.859a3.058,3.058,0,0,0-.73-.075q-1.353,0-1.353,1.27v.722h1.785v1.76H-30.75V0Zm8.309-11.189v2.208h1.536v1.76h-1.536v4.482a1.07,1.07,0,0,0,.191.714.959.959,0,0,0,.73.216,3.826,3.826,0,0,0,.706-.058V-.05a4.939,4.939,0,0,1-1.453.216,2.29,2.29,0,0,1-2.573-2.548V-7.222h-1.312v-1.76h1.312v-2.208Zm10.683,7.927,1.179-5.719h2.316L-12.962,0H-14.97l-1.7-5.653L-18.374,0h-2l-2.291-8.981h2.316l1.17,5.711,1.644-5.711H-15.8ZM-4.279,0A2.664,2.664,0,0,1-4.52-.805,2.9,2.9,0,0,1-6.786.166,3.189,3.189,0,0,1-8.973-.6a2.456,2.456,0,0,1-.867-1.926A2.538,2.538,0,0,1-8.782-4.715a5.222,5.222,0,0,1,3.059-.772h1.1V-6a1.48,1.48,0,0,0-.32-1,1.257,1.257,0,0,0-1.009-.374,1.429,1.429,0,0,0-.95.291.987.987,0,0,0-.344.8h-2.4A2.41,2.41,0,0,1-9.16-7.728,3.182,3.182,0,0,1-7.8-8.77a4.961,4.961,0,0,1,1.976-.378,3.92,3.92,0,0,1,2.635.834,2.918,2.918,0,0,1,.975,2.345v3.893A4.294,4.294,0,0,0-1.855-.141V0ZM-6.263-1.668a2.066,2.066,0,0,0,.979-.237,1.554,1.554,0,0,0,.664-.635V-4.084h-.9q-1.8,0-1.917,1.245l-.008.141a.96.96,0,0,0,.315.739A1.225,1.225,0,0,0-6.263-1.668ZM4.677-6.732A6.517,6.517,0,0,0,3.814-6.8a1.757,1.757,0,0,0-1.785.921V0h-2.4V-8.981H1.9l.066,1.071a2.223,2.223,0,0,1,2-1.237,2.514,2.514,0,0,1,.747.108ZM9.965.166A4.409,4.409,0,0,1,6.749-1.046,4.308,4.308,0,0,1,5.508-4.275v-.232a5.426,5.426,0,0,1,.523-2.42A3.838,3.838,0,0,1,7.512-8.571,4.159,4.159,0,0,1,9.7-9.147a3.727,3.727,0,0,1,2.9,1.162,4.722,4.722,0,0,1,1.058,3.3v.979H7.94a2.229,2.229,0,0,0,.7,1.411,2.12,2.12,0,0,0,1.482.531,2.589,2.589,0,0,0,2.167-1l1.179,1.32A3.6,3.6,0,0,1,12.007-.261,4.793,4.793,0,0,1,9.965.166ZM9.691-7.213a1.5,1.5,0,0,0-1.158.484,2.5,2.5,0,0,0-.569,1.384H11.3v-.192a1.786,1.786,0,0,0-.432-1.238A1.547,1.547,0,0,0,9.691-7.213ZM28.9-4.026a4.277,4.277,0,0,1-1.44,3.071A5.058,5.058,0,0,1,24.035.166,4.548,4.548,0,0,1,20.378-1.4a6.416,6.416,0,0,1-1.332-4.3v-.739A7.245,7.245,0,0,1,19.66-9.5a4.6,4.6,0,0,1,1.756-2.038,4.918,4.918,0,0,1,2.652-.71,4.927,4.927,0,0,1,3.37,1.121,4.6,4.6,0,0,1,1.478,3.146h-2.49a2.524,2.524,0,0,0-.652-1.7,2.413,2.413,0,0,0-1.706-.527,2.116,2.116,0,0,0-1.864.892,5,5,0,0,0-.635,2.768v.913a5.352,5.352,0,0,0,.594,2.864,2.077,2.077,0,0,0,1.872.9,2.458,2.458,0,0,0,1.722-.527,2.381,2.381,0,0,0,.652-1.631Zm4.889-8.06,3.1,8.766,3.088-8.766h3.271V0h-2.5V-3.3L41-9.006,37.74,0H36.03L32.776-9,33.025-3.3V0h-2.49V-12.086Zm17.9,8.915a1.278,1.278,0,0,0-.5-1.083,6.533,6.533,0,0,0-1.793-.8,12.71,12.71,0,0,1-2.05-.826,3.35,3.35,0,0,1-2.059-3,2.919,2.919,0,0,1,.552-1.747,3.6,3.6,0,0,1,1.585-1.2,5.967,5.967,0,0,1,2.32-.432,5.432,5.432,0,0,1,2.308.469,3.674,3.674,0,0,1,1.573,1.324,3.464,3.464,0,0,1,.56,1.942H51.7a1.63,1.63,0,0,0-.523-1.291,2.15,2.15,0,0,0-1.469-.461,2.3,2.3,0,0,0-1.419.386,1.217,1.217,0,0,0-.506,1.017,1.166,1.166,0,0,0,.594.988,6.705,6.705,0,0,0,1.747.747,7.55,7.55,0,0,1,3.1,1.585,3.157,3.157,0,0,1,.971,2.357A2.909,2.909,0,0,1,53-.726a5.2,5.2,0,0,1-3.2.892,6.171,6.171,0,0,1-2.54-.51,4.019,4.019,0,0,1-1.747-1.4,3.582,3.582,0,0,1-.6-2.059h2.5q0,2,2.391,2A2.326,2.326,0,0,0,51.2-2.162,1.175,1.175,0,0,0,51.693-3.171Z" transform="translate(812 2508)" fill="#fff"/>
    <g transform="matrix(1, 0, 0, 1, 171, 2460)" filter="url(#Trazado_655404)">
      <path id="Trazado_655404-2" data-name="Trazado 655404" d="M10,0H179a10,10,0,0,1,10,10V64a10,10,0,0,1-10,10H10A10,10,0,0,1,0,64V10A10,10,0,0,1,10,0Z" transform="translate(548 96)" fill="#f4a338"/>
    </g>
    <path id="Trazado_655405" data-name="Trazado 655405" d="M-30.949-4.939h-4.781V0h-2.49V-12.086h7.869v2.017h-5.379v3.121h4.781Zm7.081,4.026A3.008,3.008,0,0,1-26.326.166a2.837,2.837,0,0,1-2.2-.83A3.543,3.543,0,0,1-29.306-3.1V-8.981h2.4v5.809q0,1.4,1.278,1.4a1.732,1.732,0,0,0,1.677-.848V-8.981h2.407V0H-23.8Zm6.342-8.068.075,1.038a3.136,3.136,0,0,1,2.582-1.2,2.606,2.606,0,0,1,2.125.838A3.912,3.912,0,0,1-12.032-5.8V0h-2.4V-5.744a1.556,1.556,0,0,0-.332-1.108,1.486,1.486,0,0,0-1.1-.344,1.65,1.65,0,0,0-1.519.863V0h-2.4V-8.981ZM-6.479-1.768A1.573,1.573,0,0,0-5.4-2.133,1.28,1.28,0,0,0-4.968-3.1h2.25a3.077,3.077,0,0,1-.5,1.673A3.286,3.286,0,0,1-4.557-.253a4.2,4.2,0,0,1-1.88.419A3.9,3.9,0,0,1-9.475-1.058a4.845,4.845,0,0,1-1.112-3.383V-4.6a4.79,4.79,0,0,1,1.1-3.312,3.854,3.854,0,0,1,3.03-1.237,3.778,3.778,0,0,1,2.7.959A3.4,3.4,0,0,1-2.719-5.636h-2.25A1.648,1.648,0,0,0-5.4-6.775a1.439,1.439,0,0,0-1.1-.438A1.445,1.445,0,0,0-7.761-6.6,3.541,3.541,0,0,0-8.189-4.62v.249a3.586,3.586,0,0,0,.423,2A1.463,1.463,0,0,0-6.479-1.768ZM1.183,0H-1.224V-8.981H1.183ZM-1.365-11.306A1.181,1.181,0,0,1-1-12.194a1.356,1.356,0,0,1,.984-.349,1.36,1.36,0,0,1,.979.349,1.175,1.175,0,0,1,.365.888,1.178,1.178,0,0,1-.369.9,1.363,1.363,0,0,1-.975.349A1.363,1.363,0,0,1-1-10.409,1.178,1.178,0,0,1-1.365-11.306Zm4.15,6.732A5.327,5.327,0,0,1,3.3-6.956,3.768,3.768,0,0,1,4.781-8.575a4.323,4.323,0,0,1,2.245-.573A4.09,4.09,0,0,1,9.994-8.035a4.464,4.464,0,0,1,1.282,3.021l.017.614a4.694,4.694,0,0,1-1.154,3.316A4.011,4.011,0,0,1,7.043.166a4.031,4.031,0,0,1-3.1-1.245A4.777,4.777,0,0,1,2.785-4.466Zm2.4.17a3.357,3.357,0,0,0,.481,1.958,1.588,1.588,0,0,0,1.378.678A1.592,1.592,0,0,0,8.4-2.437a3.674,3.674,0,0,0,.49-2.141A3.324,3.324,0,0,0,8.4-6.523a1.592,1.592,0,0,0-1.378-.69,1.566,1.566,0,0,0-1.361.686A3.735,3.735,0,0,0,5.184-4.4Zm9.795-4.578.075,1.038a3.136,3.136,0,0,1,2.582-1.2,2.606,2.606,0,0,1,2.125.838A3.912,3.912,0,0,1,20.474-5.8V0h-2.4V-5.744a1.556,1.556,0,0,0-.332-1.108,1.486,1.486,0,0,0-1.1-.344,1.65,1.65,0,0,0-1.519.863V0h-2.4V-8.981ZM26.426.166a4.409,4.409,0,0,1-3.217-1.212,4.308,4.308,0,0,1-1.241-3.229v-.232a5.426,5.426,0,0,1,.523-2.42,3.838,3.838,0,0,1,1.482-1.644,4.159,4.159,0,0,1,2.187-.577,3.727,3.727,0,0,1,2.9,1.162,4.722,4.722,0,0,1,1.058,3.3v.979H24.4A2.229,2.229,0,0,0,25.1-2.3a2.12,2.12,0,0,0,1.482.531,2.589,2.589,0,0,0,2.167-1l1.179,1.32A3.6,3.6,0,0,1,28.468-.261,4.793,4.793,0,0,1,26.426.166Zm-.274-7.379a1.5,1.5,0,0,0-1.158.484,2.5,2.5,0,0,0-.569,1.384h3.337v-.192a1.786,1.786,0,0,0-.432-1.238A1.547,1.547,0,0,0,26.152-7.213ZM36.345-2.482a.773.773,0,0,0-.436-.693,4.95,4.95,0,0,0-1.4-.452q-3.2-.672-3.2-2.723a2.468,2.468,0,0,1,.992-2,4,4,0,0,1,2.594-.8,4.307,4.307,0,0,1,2.735.805A2.538,2.538,0,0,1,38.653-6.25h-2.4a1.161,1.161,0,0,0-.332-.851,1.405,1.405,0,0,0-1.038-.336,1.436,1.436,0,0,0-.938.274.865.865,0,0,0-.332.7.739.739,0,0,0,.378.643,3.885,3.885,0,0,0,1.274.423,10.407,10.407,0,0,1,1.511.4,2.482,2.482,0,0,1,1.9,2.416A2.343,2.343,0,0,1,37.623-.594,4.548,4.548,0,0,1,34.9.166a4.75,4.75,0,0,1-2-.4,3.363,3.363,0,0,1-1.374-1.1,2.565,2.565,0,0,1-.5-1.515H33.3a1.252,1.252,0,0,0,.473.979,1.877,1.877,0,0,0,1.179.34A1.737,1.737,0,0,0,35.992-1.8.814.814,0,0,0,36.345-2.482Z" transform="translate(812 2598)" fill="#12263f"/>
  </g>
</svg>
