<svg id="Grupo_180275" data-name="Grupo 180275" xmlns="http://www.w3.org/2000/svg" xmlns:xlink="http://www.w3.org/1999/xlink" width="240.451" height="162.146" viewBox="0 0 240.451 162.146">
  <defs>
    <clipPath id="clip-path">
      <rect id="Rectángulo_57471" data-name="Rectángulo 57471" width="240.451" height="162.146" fill="none"/>
    </clipPath>
    <clipPath id="clip-path-4">
      <rect id="Rectángulo_57458" data-name="Rectángulo 57458" width="43.75" height="18.388" fill="none"/>
    </clipPath>
    <clipPath id="clip-path-5">
      <rect id="Rectángulo_57459" data-name="Rectángulo 57459" width="6.689" height="9.166" fill="none"/>
    </clipPath>
    <clipPath id="clip-path-6">
      <rect id="Rectángulo_57460" data-name="Rectángulo 57460" width="12.532" height="7.064" fill="none"/>
    </clipPath>
    <clipPath id="clip-path-7">
      <rect id="Rectángulo_57461" data-name="Rectángulo 57461" width="24.311" height="15.691" fill="none"/>
    </clipPath>
    <clipPath id="clip-path-8">
      <rect id="Rectángulo_57462" data-name="Rectángulo 57462" width="9.654" height="26.802" fill="none"/>
    </clipPath>
  </defs>
  <g id="Grupo_179253" data-name="Grupo 179253" clip-path="url(#clip-path)">
    <path id="Trazado_227361" data-name="Trazado 227361" d="M398.677,321.163l3.714,2.231-3.773,2.238-3.773,2.238.058-4.469.058-4.468L397,320.159" transform="translate(-246.202 -198.867)" fill="#e0e0e0"/>
    <path id="Trazado_227362" data-name="Trazado 227362" d="M19.7,382.994v17.378H73.139V382.994Z" transform="translate(-12.281 -238.811)" fill="#f5f5f5"/>
    <path id="Trazado_227363" data-name="Trazado 227363" d="M13.74,370.088v4.859H71.294v-4.859H13.74Z" transform="translate(-8.567 -230.764)" fill="#e0e0e0"/>
    <path id="Trazado_227364" data-name="Trazado 227364" d="M88.323,392.325h26.908V374.946H117.1v-4.859H87.2V374.5Z" transform="translate(-54.373 -230.764)" fill="#e0e0e0"/>
    <rect id="Rectángulo_57451" data-name="Rectángulo 57451" width="10.838" height="2.616" transform="translate(14.889 146.985)" fill="#e0e0e0"/>
    <rect id="Rectángulo_57452" data-name="Rectángulo 57452" width="13.917" height="5.524" transform="translate(13.494 152.871)" fill="#fff"/>
    <path id="Trazado_227365" data-name="Trazado 227365" d="M38.695,324.935v17.378H92.137V324.935Z" transform="translate(-24.128 -202.609)" fill="#f5f5f5"/>
    <path id="Trazado_227366" data-name="Trazado 227366" d="M32.738,312.029v4.859H90.292v-4.859H32.738Z" transform="translate(-20.414 -194.562)" fill="#e0e0e0"/>
    <path id="Trazado_227367" data-name="Trazado 227367" d="M107.321,334.266h26.908V316.887H136.1v-4.859H106.2v4.409Z" transform="translate(-66.22 -194.562)" fill="#e0e0e0"/>
    <rect id="Rectángulo_57453" data-name="Rectángulo 57453" width="10.838" height="2.616" transform="translate(22.041 125.128)" fill="#e0e0e0"/>
    <rect id="Rectángulo_57454" data-name="Rectángulo 57454" width="13.917" height="5.524" transform="translate(20.647 131.014)" fill="#fff"/>
    <g id="Grupo_179233" data-name="Grupo 179233">
      <g id="Grupo_179232" data-name="Grupo 179232" clip-path="url(#clip-path)">
        <path id="Trazado_227368" data-name="Trazado 227368" d="M474.943,199.737H412.009a2.962,2.962,0,0,1-2.962-2.962V160.023a2.962,2.962,0,0,1,2.962-2.962h62.934a2.962,2.962,0,0,1,2.962,2.962v36.753a2.962,2.962,0,0,1-2.962,2.962" transform="translate(-255.057 -97.934)" fill="#e0e0e0"/>
        <path id="Trazado_227369" data-name="Trazado 227369" d="M497.058,206.6a5.245,5.245,0,1,1-5.245-5.245,5.245,5.245,0,0,1,5.245,5.245" transform="translate(-303.394 -125.55)" fill="#ebebeb"/>
        <path id="Trazado_227370" data-name="Trazado 227370" d="M497.143,213.906v-3.095a.2.2,0,0,1,.294-.172L500.2,212.2a.2.2,0,0,1,0,.344l-2.766,1.536a.2.2,0,0,1-.293-.172" transform="translate(-309.988 -131.326)" fill="#fff"/>
        <path id="Trazado_227371" data-name="Trazado 227371" d="M418.6,256.4v.111h-.519v-.087l.279-.265c.069-.065.081-.107.081-.146,0-.064-.044-.1-.131-.1a.2.2,0,0,0-.164.073l-.091-.07a.325.325,0,0,1,.267-.117c.153,0,.251.078.251.2a.282.282,0,0,1-.117.222l-.188.179Z" transform="translate(-260.673 -159.5)" fill="#fff"/>
        <path id="Trazado_227372" data-name="Trazado 227372" d="M419.69,256.335a.083.083,0,1,1,.083.084.082.082,0,0,1-.083-.084m0,.383a.083.083,0,1,1,.165,0,.083.083,0,1,1-.165,0" transform="translate(-261.693 -159.783)" fill="#fff"/>
        <path id="Trazado_227373" data-name="Trazado 227373" d="M420.534,255.825v.7H420.4v-.594h-.149v-.11Z" transform="translate(-262.045 -159.517)" fill="#fff"/>
        <path id="Trazado_227374" data-name="Trazado 227374" d="M421.976,256.369h-.125v.16h-.127v-.16h-.386v-.09l.347-.453h.14l-.327.433h.23v-.142h.123v.142h.125Z" transform="translate(-262.721 -159.517)" fill="#fff"/>
        <rect id="Rectángulo_57455" data-name="Rectángulo 57455" width="53.328" height="0.282" transform="translate(160.403 96.551)" fill="#fff"/>
        <rect id="Rectángulo_57456" data-name="Rectángulo 57456" width="16.666" height="0.753" transform="translate(160.363 96.257)" fill="#ebebeb"/>
        <path id="Trazado_227375" data-name="Trazado 227375" d="M468.984,255.5a.811.811,0,1,1-.811-.811.811.811,0,0,1,.811.811" transform="translate(-291.418 -158.81)" fill="#ebebeb"/>
        <path id="Trazado_227376" data-name="Trazado 227376" d="M570.377,256a.235.235,0,0,1-.257.228c-.191,0-.3-.124-.3-.35a.333.333,0,0,1,.344-.374.352.352,0,0,1,.185.045l-.048.1a.238.238,0,0,0-.134-.034c-.133,0-.216.082-.216.242h0a.242.242,0,0,1,.188-.073.22.22,0,0,1,.242.216m-.126.006c0-.073-.056-.119-.141-.119a.128.128,0,0,0-.143.12c0,.066.053.118.146.118a.122.122,0,0,0,.138-.119" transform="translate(-355.302 -159.32)" fill="#fff"/>
        <path id="Trazado_227377" data-name="Trazado 227377" d="M571.473,256.046a.082.082,0,1,1,.083.084.082.082,0,0,1-.083-.084m0,.383a.082.082,0,1,1,.083.084.082.082,0,0,1-.083-.084" transform="translate(-356.336 -159.603)" fill="#fff"/>
        <path id="Trazado_227378" data-name="Trazado 227378" d="M572.134,255.871c0-.231.127-.362.294-.362s.295.131.295.362-.127.362-.295.362-.294-.131-.294-.362m.457,0c0-.17-.067-.248-.163-.248s-.161.078-.161.248.066.248.161.248.163-.078.163-.248" transform="translate(-356.748 -159.32)" fill="#fff"/>
        <path id="Trazado_227379" data-name="Trazado 227379" d="M573.927,255.871c0-.231.127-.362.294-.362s.295.131.295.362-.127.362-.295.362-.294-.131-.294-.362m.457,0c0-.17-.067-.248-.163-.248s-.162.078-.162.248.066.248.162.248.163-.078.163-.248" transform="translate(-357.866 -159.32)" fill="#fff"/>
        <path id="Trazado_227380" data-name="Trazado 227380" d="M578.089,255.162h-.282v-.721h.719v.282h-.437Z" transform="translate(-360.285 -158.654)" fill="#fff"/>
        <path id="Trazado_227381" data-name="Trazado 227381" d="M578.525,257.647H577.8v-.719h.282v.437h.438Z" transform="translate(-360.283 -160.204)" fill="#fff"/>
        <path id="Trazado_227382" data-name="Trazado 227382" d="M581.545,257.644h-.719v-.282h.437v-.438h.282Z" transform="translate(-362.168 -160.202)" fill="#fff"/>
        <path id="Trazado_227383" data-name="Trazado 227383" d="M581.544,255.16h-.282v-.437h-.438v-.282h.721Z" transform="translate(-362.166 -158.654)" fill="#fff"/>
        <path id="Trazado_227384" data-name="Trazado 227384" d="M558.433,167.947a11.272,11.272,0,0,1,1.451-.079l.078,0v.081c.006.55.012,1.172.019,1.843l0,.238-.169-.169-.193-.193-.492-.494.132,0-.771.678-.146.128,0-.192c.008-.57.027-1.042.044-1.362a2.212,2.212,0,0,1,.042-.48,3.707,3.707,0,0,1,.042.535c.016.326.035.775.044,1.307l-.143-.064.757-.694.067-.061.065.065.494.491.193.194-.167.069c.007-.671.013-1.293.019-1.843l.079.079a14.239,14.239,0,0,1-1.451-.079" transform="translate(-348.15 -104.671)" fill="#fff"/>
        <path id="Trazado_227385" data-name="Trazado 227385" d="M568.892,168.512a5.12,5.12,0,0,1-.351.448c-.238.295-.594.736-1.03,1.227l-.162.183v-.245c0-.288,0-.6,0-.914v-.09l.03.071-.643-.626-.168-.163.233,0c.637.009,1.185.042,1.549.064a4.855,4.855,0,0,1,.547.041c-.019.008-.258.016-.634.034s-.879.044-1.464.046l.065-.16.65.618.03.029v.131c0,.318,0,.625,0,.914l-.163-.062c.407-.445.776-.811,1.053-1.088s.448-.453.468-.462" transform="translate(-353.274 -105.006)" fill="#fff"/>
        <path id="Trazado_227386" data-name="Trazado 227386" d="M570.345,168.67c.021.05-.287.227-.687.395s-.742.264-.763.214.287-.227.687-.395.742-.264.763-.214" transform="translate(-354.727 -105.164)" fill="#fff"/>
        <path id="Trazado_227387" data-name="Trazado 227387" d="M577.814,168.051c0-.01.092-.033.26,0a1.025,1.025,0,0,1,.611.369,1.091,1.091,0,0,1,.178,1.044,1.112,1.112,0,0,1-2.1,0,1.09,1.09,0,0,1,.178-1.044,1.024,1.024,0,0,1,.611-.369c.168-.028.261-.005.26,0s-.091.021-.241.069a1.028,1.028,0,0,0-.52.378.962.962,0,0,0-.119.9.939.939,0,0,0,1.76,0,.962.962,0,0,0-.119-.9,1.028,1.028,0,0,0-.52-.378c-.15-.048-.242-.053-.241-.069" transform="translate(-359.597 -104.775)" fill="#fff"/>
        <path id="Trazado_227388" data-name="Trazado 227388" d="M579.7,170.2c-.038.038-.264-.126-.507-.368l-.029-.029v-.047c0-.345.044-.625.1-.625s.1.28.1.625v.006l-.029-.069c.242.242.406.469.368.507" transform="translate(-361.13 -105.462)" fill="#fff"/>
        <path id="Trazado_227389" data-name="Trazado 227389" d="M461.048,171.63c0,.054-7.077.1-15.8.1s-15.806-.044-15.806-.1,7.075-.1,15.806-.1,15.8.044,15.8.1" transform="translate(-267.771 -106.957)" fill="#fff"/>
        <path id="Trazado_227390" data-name="Trazado 227390" d="M421.346,169.727a1.246,1.246,0,1,1-1.246-1.246,1.246,1.246,0,0,1,1.246,1.246" transform="translate(-261.171 -105.054)" fill="#fff"/>
      </g>
    </g>
    <g id="Grupo_179250" data-name="Grupo 179250">
      <g id="Grupo_179249" data-name="Grupo 179249" clip-path="url(#clip-path)">
        <path id="Trazado_227391" data-name="Trazado 227391" d="M279.462,140.954l-19.94-7.16c1.3,15.564,2.575,31.513-1.565,46.573-.448,1.629-.841,3.671.454,4.755a4.228,4.228,0,0,0,2.893.639q3.1-.1,6.192-.453c2.191-.254,4.528-.683,6.088-2.243a10.255,10.255,0,0,0,2.276-4.981,130.671,130.671,0,0,0,3.6-37.13" transform="translate(-160.58 -83.426)" fill="#263238"/>
        <path id="Trazado_227392" data-name="Trazado 227392" d="M229.022,255.045l2.362-3.1,1.583-8.288,3.6-20.158s1.586-7.584,6.475-9.757l1.037,20.143L234.1,259.194Z" transform="translate(-142.804 -133.276)" fill="#636363"/>
        <path id="Trazado_227393" data-name="Trazado 227393" d="M245.074,195.572l-2.941,3.48-4.483,1.993s-9.869,18.856-10.133,19.032-1.85,5.551-.969,10.133a79.543,79.543,0,0,1,1.41,14.891c-.088,4.318-5.727,18.5-6.08,21.764s-1.5,15.86-1.5,15.86l49.871-.379a91.9,91.9,0,0,0-1.85-9.4s-.176-12.512-2.026-14.891c0,0,1.41-3.26,1.233-5.11s7.4-11.719,8.9-15.156,7.4-11.278,7.489-16.917-.793-10.4-3.613-14.275-7.93-6.52-10.044-7.93l-4.141-5.287Z" transform="translate(-137.416 -120.579)" fill="#636363"/>
        <path id="Trazado_227394" data-name="Trazado 227394" d="M238.742,335.364a.855.855,0,0,1,0-.151c0-.109.009-.255.015-.442.018-.4.043-.969.074-1.7.062-1.485.15-3.615.26-6.243.045-1.318.092-2.762.111-4.312.011-.775.011-1.577-.017-2.4a10.92,10.92,0,0,1,.255-2.551,39.8,39.8,0,0,1,1.629-5.234,25.081,25.081,0,0,0,.861-2.749,11.749,11.749,0,0,0,.193-1.455l.149-1.493c.2-2,.4-3.959.587-5.847q.143-1.416.28-2.78c.081-.91.208-1.8.236-2.668a68.341,68.341,0,0,1,1.256-9.186c.51-2.59.975-4.673,1.276-6.118.149-.714.266-1.272.347-1.663.04-.183.07-.326.093-.432a.075.075,0,1,1,.02,0c-.018.108-.043.252-.074.436-.073.392-.178.953-.311,1.67-.278,1.449-.723,3.538-1.215,6.129a70.186,70.186,0,0,0-1.211,9.172c-.026.873-.15,1.76-.229,2.669s-.182,1.837-.276,2.782c-.188,1.89-.383,3.846-.583,5.85q-.075.751-.149,1.493a11.88,11.88,0,0,1-.2,1.478,24.948,24.948,0,0,1-.871,2.772,40.1,40.1,0,0,0-1.632,5.206,10.8,10.8,0,0,0-.26,2.508c.024.829.021,1.632.007,2.409-.027,1.552-.082,3-.136,4.315-.113,2.637-.233,4.769-.322,6.242-.048.728-.085,1.3-.111,1.7-.015.186-.026.332-.035.44a.842.842,0,0,1-.019.15" transform="translate(-148.863 -173.218)" fill="#263238"/>
        <path id="Trazado_227395" data-name="Trazado 227395" d="M259.367,223.079a43.759,43.759,0,0,1,5.468-12.946,30.882,30.882,0,0,0,4.5-10.694l.058-7.372.316.95,18.75-2.718.566,2.708L276.5,204.344s-5.8,1.126-6.038,1.286-11.1,17.449-11.1,17.449" transform="translate(-161.725 -118.659)" fill="#efbda8"/>
        <path id="Trazado_227396" data-name="Trazado 227396" d="M313.917,207.422a1.833,1.833,0,0,1-.165.262c-.114.168-.282.415-.507.728-.445.629-1.106,1.527-1.946,2.618s-1.859,2.375-2.959,3.824c-.549.725-1.118,1.491-1.693,2.3a5.152,5.152,0,0,1-.471.6,1.143,1.143,0,0,1-.721.376,1.419,1.419,0,0,1-.786-.225c-.232-.134-.444-.28-.667-.42l-2.581-1.658c-.416-.265-.826-.537-1.226-.783a2.026,2.026,0,0,0-1.261-.369,2.519,2.519,0,0,0-1.15.538c-.34.256-.676.519-1.026.731a7.317,7.317,0,0,1-2.092.871,7.411,7.411,0,0,1-3.257.075,4.8,4.8,0,0,1-.5-.122,3.478,3.478,0,0,1-.358-.114,1.792,1.792,0,0,1-.287-.117,1.81,1.81,0,0,1,.3.079c.1.032.217.062.361.1s.309.073.5.1a7.578,7.578,0,0,0,3.209-.134,7.264,7.264,0,0,0,2.04-.875c.34-.211.663-.467,1.01-.732a2.671,2.671,0,0,1,1.231-.578,2.2,2.2,0,0,1,1.377.387c.413.251.815.517,1.234.783l2.583,1.654c.443.264.868.64,1.333.615a.95.95,0,0,0,.6-.317,5.052,5.052,0,0,0,.453-.576c.578-.805,1.151-1.571,1.705-2.294,1.109-1.446,2.142-2.719,2.993-3.8s1.53-1.964,1.994-2.578l.536-.706a1.863,1.863,0,0,1,.2-.239" transform="translate(-180.993 -129.335)" fill="#263238"/>
        <path id="Trazado_227397" data-name="Trazado 227397" d="M278.161,244.4a3.521,3.521,0,0,1,.28-.533c.19-.337.478-.818.845-1.405.733-1.175,1.8-2.766,3.073-4.452s2.518-3.145,3.449-4.169c.465-.512.85-.92,1.123-1.194a3.608,3.608,0,0,1,.437-.414,3.465,3.465,0,0,1-.381.466l-1.075,1.235c-.9,1.046-2.124,2.514-3.4,4.2s-2.352,3.255-3.113,4.409l-.9,1.37a3.525,3.525,0,0,1-.345.493" transform="translate(-173.444 -144.805)" fill="#263238"/>
        <path id="Trazado_227398" data-name="Trazado 227398" d="M276.631,268.4a.316.316,0,0,1,.073.011l.214.043.833.179c.729.157,1.8.39,3.163.664.683.136,1.439.285,2.265.426.414.071.842.133,1.293.2s.909.18,1.38.3c.942.244,1.928.557,2.957.917.514.181,1.039.373,1.571.583q.4.156.805.327l.405.179.2.1c.034.017.068.035.1.055a.475.475,0,0,1,.054.034l.029.021a.155.155,0,0,1,.046.086v.011l0,.015L288.09,285.1l0,.008,0,.007a7.589,7.589,0,0,1-.738,1.146,5.383,5.383,0,0,1-.993,1.015,1.839,1.839,0,0,1-.458.249l-.466.157L284.5,288l-1.828.616-3.529,1.188-.053.018-.041-.038-3.692-3.423-.877-.814a10.424,10.424,0,0,1-.84-.827,2.11,2.11,0,0,1-.5-1.059,3.8,3.8,0,0,1,.025-1.131c.5-2.884,1.072-5.411,1.587-7.505s.99-3.749,1.326-4.882c.172-.557.305-.991.4-1.3l.109-.333a.669.669,0,0,1,.043-.111.633.633,0,0,1-.026.116l-.093.338-.369,1.3c-.316,1.138-.77,2.8-1.271,4.892s-1.054,4.628-1.542,7.5a3.638,3.638,0,0,0-.021,1.081,1.934,1.934,0,0,0,.466.975,10.354,10.354,0,0,0,.827.809l.879.811,3.7,3.416-.095-.02,3.527-1.192,1.828-.617.926-.313.466-.157a1.657,1.657,0,0,0,.406-.221,5.207,5.207,0,0,0,.954-.977,7.379,7.379,0,0,0,.719-1.115l-.006.015L291.86,272.5l.073.026a50.052,50.052,0,0,0-6.115-2.166c-.468-.124-.923-.23-1.367-.308s-.88-.137-1.292-.211c-.827-.148-1.583-.3-2.264-.447-1.363-.289-2.429-.537-3.154-.711l-.827-.2-.211-.056a.3.3,0,0,1-.07-.023" transform="translate(-170.294 -167.356)" fill="#263238"/>
        <g id="Grupo_179236" data-name="Grupo 179236" transform="translate(85.96 131.241)" opacity="0.3">
          <g id="Grupo_179235" data-name="Grupo 179235">
            <g id="Grupo_179234" data-name="Grupo 179234" clip-path="url(#clip-path-4)">
              <path id="Trazado_227399" data-name="Trazado 227399" d="M249.127,361.895c-4.361-.66-10.416-2.479-15.385-3.516-1.775-.37-3.309-.8-5.084-1.17l-.319.987a59.535,59.535,0,0,1,14.492,5.168c2.758,1.411,5.49,3.061,8.555,3.511,3.43.5,6.875-.552,10.181-1.6,1.865-.588,3.818-1.231,5.148-2.665a10.848,10.848,0,0,0,1.964-3.609q1.952-5.109,3.41-10.39c-5.921,6.643-14.163,14.609-22.961,13.279" transform="translate(-228.338 -348.616)"/>
            </g>
          </g>
        </g>
        <path id="Trazado_227400" data-name="Trazado 227400" d="M298.526,269.913,286,292.952a3.712,3.712,0,0,0-2.91,3.661,2.19,2.19,0,0,0-2.482.065c-.946.562-3.608,1.311-5.078,2.1a1.757,1.757,0,0,0-.866,2.017l3.887,14.127s4.725,0,5.145-1.172l6.476-2.026s4.185-1.108,5.8-3.891,11.27-17.176,11.27-17.176" transform="translate(-171.223 -168.301)" fill="#636363"/>
        <path id="Trazado_227401" data-name="Trazado 227401" d="M307.076,290.655s-.027.05-.087.144l-.268.415-1.052,1.6-3.948,5.981-2.762,4.216c-.992,1.531-2.069,3.172-3.145,4.954a7.326,7.326,0,0,1-2.3,2.257,13.352,13.352,0,0,1-3.066,1.459l-6.886,2.158.06-.058a1.055,1.055,0,0,1-.494.5,3.281,3.281,0,0,1-.629.258,8.749,8.749,0,0,1-1.333.281,22.045,22.045,0,0,1-2.778.194h-.073l-.02-.072-2.195-7.971-1.172-4.259c-.188-.707-.394-1.384-.564-2.1a1.858,1.858,0,0,1,.924-1.9,37.69,37.69,0,0,1,3.87-1.56c.317-.122.63-.248.93-.39a7.678,7.678,0,0,1,.915-.441,2.2,2.2,0,0,1,1.982.223l-.149.072a3.75,3.75,0,0,1,.842-2.444,4.1,4.1,0,0,1,2.142-1.3l-.059.044,9.093-16.65,2.578-4.691.687-1.236.18-.316c.041-.07.065-.1.065-.1s-.016.039-.053.111l-.167.322-.664,1.249-2.535,4.714-9.031,16.684-.018.034-.041.01a3.935,3.935,0,0,0-2.039,1.247,3.565,3.565,0,0,0-.8,2.329l0,.175-.147-.1a2.027,2.027,0,0,0-1.808-.19,7.652,7.652,0,0,0-.893.433c-.309.147-.625.274-.944.4a37.9,37.9,0,0,0-3.843,1.553,1.662,1.662,0,0,0-.826,1.7c.161.676.374,1.383.561,2.081l1.172,4.259,2.192,7.972-.093-.071a21.876,21.876,0,0,0,2.75-.19,8.569,8.569,0,0,0,1.3-.273,3.166,3.166,0,0,0,.593-.242.888.888,0,0,0,.409-.4l.018-.045.043-.014,6.887-2.146a13.22,13.22,0,0,0,3.028-1.432,7.176,7.176,0,0,0,2.256-2.2c1.083-1.783,2.166-3.421,3.164-4.948l2.782-4.2,3.993-5.951,1.077-1.583.282-.406c.064-.091.1-.135.1-.135" transform="translate(-171.062 -168.301)" fill="#263238"/>
        <path id="Trazado_227402" data-name="Trazado 227402" d="M333.426,314.143a1.022,1.022,0,0,1-.071-.221l-.165-.644-.585-2.372c-.494-2-1.192-4.765-2.013-7.8s-1.612-5.776-2.195-7.755l-.69-2.343-.181-.639a1.016,1.016,0,0,1-.05-.227,1.06,1.06,0,0,1,.088.215l.216.628c.185.547.442,1.341.75,2.326.617,1.969,1.428,4.7,2.251,7.744s1.5,5.81,1.958,7.822c.23,1.006.409,1.821.525,2.387.053.266.1.482.129.652a1.032,1.032,0,0,1,.032.23" transform="translate(-204.193 -182.16)" fill="#fff"/>
        <path id="Trazado_227403" data-name="Trazado 227403" d="M323.727,329.281c-.053.01-1.1-5.448-2.336-12.189s-2.2-12.216-2.143-12.226,1.1,5.447,2.336,12.19,2.2,12.215,2.143,12.224" transform="translate(-199.062 -190.096)" fill="#fff"/>
        <path id="Trazado_227404" data-name="Trazado 227404" d="M262.611,284.777c.03.045-1.805,1.347-4.1,2.907s-4.18,2.79-4.21,2.745,1.8-1.346,4.1-2.907,4.179-2.79,4.21-2.745" transform="translate(-158.567 -177.569)" fill="#fff"/>
        <path id="Trazado_227405" data-name="Trazado 227405" d="M260.221,297.839a1.521,1.521,0,0,1-.271.285c-.183.175-.453.421-.791.719-.676.6-1.627,1.4-2.7,2.261s-2.078,1.6-2.813,2.127c-.367.262-.668.47-.879.608a.2.2,0,1,1-.045-.062l.841-.658c.713-.551,1.7-1.313,2.773-2.169s2.039-1.643,2.737-2.213l.83-.672a1.522,1.522,0,0,1,.321-.228" transform="translate(-157.397 -185.713)" fill="#fff"/>
        <path id="Trazado_227406" data-name="Trazado 227406" d="M241.965,286.348c-.044.032-1.353-1.687-2.924-3.838s-2.81-3.922-2.767-3.954,1.353,1.687,2.925,3.839,2.81,3.922,2.766,3.954" transform="translate(-147.325 -173.69)" fill="#fff"/>
        <path id="Trazado_227407" data-name="Trazado 227407" d="M243.233,309.186a3.591,3.591,0,0,1-.668-.579c-.391-.38-.911-.927-1.448-1.563s-.989-1.24-1.3-1.69a3.6,3.6,0,0,1-.458-.756,4.441,4.441,0,0,1,.57.673c.337.427.8,1.013,1.336,1.646s1.034,1.19,1.4,1.593a4.454,4.454,0,0,1,.568.675" transform="translate(-149.25 -189.929)" fill="#fff"/>
        <path id="Trazado_227408" data-name="Trazado 227408" d="M330.517,215.357a7.113,7.113,0,0,1-.924-.624l-2.177-1.576c-.847-.621-1.606-1.194-2.144-1.624a5.651,5.651,0,0,1-.841-.734,7.079,7.079,0,0,1,.924.624L327.532,213c.846.621,1.606,1.194,2.144,1.624a5.635,5.635,0,0,1,.841.735" transform="translate(-202.295 -131.44)" fill="#fff"/>
        <path id="Trazado_227409" data-name="Trazado 227409" d="M336.354,209.293a60.848,60.848,0,0,1-5.315-4.41,60.916,60.916,0,0,1,5.315,4.41" transform="translate(-206.416 -127.752)" fill="#fff"/>
        <path id="Trazado_227410" data-name="Trazado 227410" d="M291.819,280.006c.053.01-.619,3.75-1.5,8.352s-1.639,8.326-1.693,8.316.618-3.749,1.5-8.353,1.639-8.325,1.693-8.315" transform="translate(-179.968 -174.595)" fill="#fff"/>
        <path id="Trazado_227411" data-name="Trazado 227411" d="M311.851,343.892a1.272,1.272,0,0,1-.327-.153c-.205-.108-.493-.28-.84-.508a16.219,16.219,0,0,1-4.559-4.558c-.227-.347-.4-.634-.508-.84a1.287,1.287,0,0,1-.153-.328c.027-.016.3.42.776,1.088a19.529,19.529,0,0,0,4.524,4.522c.669.48,1.1.748,1.088.775" transform="translate(-190.467 -210.448)" fill="#263238"/>
        <path id="Trazado_227412" data-name="Trazado 227412" d="M311.493,333.99a4.345,4.345,0,0,1-1.069.195,12.689,12.689,0,0,1-5.19-.55,4.342,4.342,0,0,1-1-.414,9.436,9.436,0,0,1,1.044.282,15.9,15.9,0,0,0,5.139.545,9.489,9.489,0,0,1,1.08-.056" transform="translate(-189.7 -207.773)" fill="#263238"/>
        <path id="Trazado_227413" data-name="Trazado 227413" d="M241.88,240.208a.328.328,0,0,1-.027.09l-.1.256c-.084.226-.228.551-.419.967-.385.832-1.029,1.993-1.863,3.4a31.01,31.01,0,0,0-2.591,5.1q-.068.19-.137.382l-.11.395-.221.8a5.583,5.583,0,0,0-.175.833q-.071.425-.144.857c-.068.58-.1,1.176-.14,1.778q0,.453,0,.914a9.069,9.069,0,0,0,.029.925,58.586,58.586,0,0,0,.966,6.951,49.625,49.625,0,0,1,.774,5.7c.076.817.038,1.56.049,2.211-.05.649-.081,1.21-.139,1.664l-.184,1.039-.053.269a.337.337,0,0,1-.024.09.344.344,0,0,1,0-.094l.034-.272c.036-.253.085-.6.148-1.041.045-.454.065-1.012.1-1.658-.021-.648.007-1.386-.078-2.2a52.322,52.322,0,0,0-.814-5.675,56.645,56.645,0,0,1-.984-6.974,9.212,9.212,0,0,1-.029-.933c0-.309,0-.617,0-.921.036-.609.074-1.211.144-1.8q.075-.437.148-.867a5.684,5.684,0,0,1,.18-.842l.226-.815.113-.4.14-.385a30.174,30.174,0,0,1,2.642-5.108c.849-1.4,1.508-2.543,1.913-3.362.2-.41.355-.729.452-.949l.116-.248a.374.374,0,0,1,.046-.082" transform="translate(-147.006 -149.779)" fill="#263238"/>
        <path id="Trazado_227414" data-name="Trazado 227414" d="M269.252,199.2a.335.335,0,0,1-.046.078l-.151.221c-.133.194-.347.468-.629.816-.566.7-1.43,1.667-2.516,2.861l-1.771,1.966c-.629.715-1.3,1.483-1.938,2.348a15.263,15.263,0,0,0-2.436,6.517l-.185-.055a10.88,10.88,0,0,1,1.058-1.635c.2-.277.4-.552.594-.83.095-.139.186-.279.273-.421l.124-.215.057-.109.028-.055.014-.027c.007-.01-.007.006.023-.037a.114.114,0,0,1,.1-.036.115.115,0,0,1,.082.061l.008.02.011.03.023.06.045.12a1.648,1.648,0,0,1,.079.243,3.6,3.6,0,0,1,.109.5,5.4,5.4,0,0,1,.064.993,19.9,19.9,0,0,1-.618,3.695c-.441,2.351-1.245,4.359-1.724,6.086a15.683,15.683,0,0,0-.7,4.178,10.582,10.582,0,0,0,.053,1.154l.034.3a.4.4,0,0,1,.006.1,6.852,6.852,0,0,1-.169-1.556,15.109,15.109,0,0,1,.641-4.215c.465-1.744,1.252-3.747,1.681-6.087a20.047,20.047,0,0,0,.6-3.661,5.192,5.192,0,0,0-.064-.959,3.332,3.332,0,0,0-.1-.473,1.51,1.51,0,0,0-.075-.231l-.043-.114-.021-.057-.011-.029,0-.007c.032-.016-.075.026.07-.038h0c-.064-.031.091.043.073.038l0,.007-.015.029-.029.057-.059.114-.128.222q-.133.219-.278.43c-.192.282-.395.558-.6.835a10.791,10.791,0,0,0-1.039,1.6l-.28.587.1-.642a15.321,15.321,0,0,1,2.487-6.591c.646-.873,1.327-1.637,1.963-2.35s1.241-1.36,1.79-1.951c1.1-1.182,1.976-2.139,2.558-2.819.291-.34.513-.606.655-.792l.166-.209a.344.344,0,0,1,.062-.068" transform="translate(-161.594 -124.211)" fill="#263238"/>
        <path id="Trazado_227415" data-name="Trazado 227415" d="M288.046,341.924s.05.04.132.128l.35.394a7.57,7.57,0,0,1,.524.649c.193.262.427.551.642.9s.471.719.7,1.145c.248.415.463.884.7,1.372a18.846,18.846,0,0,1,1.673,6.822c.016.542.042,1.058.014,1.54,0,.483-.047.931-.09,1.338s-.1.774-.152,1.1a7.633,7.633,0,0,1-.165.818l-.128.512a.624.624,0,0,1-.058.175.68.68,0,0,1,.019-.184l.091-.518c.045-.224.1-.5.131-.82s.1-.684.123-1.091.068-.85.065-1.329c.021-.478-.011-.989-.032-1.526a19.58,19.58,0,0,0-1.657-6.759c-.23-.486-.438-.953-.678-1.368-.219-.426-.455-.8-.672-1.148s-.431-.644-.614-.911-.352-.489-.5-.666l-.321-.417a.667.667,0,0,1-.1-.154" transform="translate(-179.608 -213.202)" fill="#263238"/>
        <path id="Trazado_227416" data-name="Trazado 227416" d="M295.451,280.985a3.531,3.531,0,0,1-.569-.192l-1.533-.564c-1.3-.467-3.106-1.066-5.138-1.607s-3.9-.916-5.26-1.154l-1.611-.271a3.5,3.5,0,0,1-.59-.116,3.493,3.493,0,0,1,.6.04c.385.037.939.107,1.623.21A49.806,49.806,0,0,1,293.4,280.1c.644.25,1.161.465,1.513.623a3.543,3.543,0,0,1,.541.262" transform="translate(-175.059 -172.768)" fill="#263238"/>
        <g id="Grupo_179239" data-name="Grupo 179239" transform="translate(111.867 127.906)" opacity="0.3">
          <g id="Grupo_179238" data-name="Grupo 179238">
            <g id="Grupo_179237" data-name="Grupo 179237" clip-path="url(#clip-path-5)">
              <path id="Trazado_227417" data-name="Trazado 227417" d="M303.642,346.62a5.156,5.156,0,0,0-1.062-1.357l-5.407-5.5-.018.407c1.2.816,1.46,2.471,1.8,3.884a8.731,8.731,0,0,0,1.63,3.993,2.6,2.6,0,0,0,1.494.864,1.579,1.579,0,0,0,1.542-.629,1.746,1.746,0,0,0,.016-1.658" transform="translate(-297.154 -339.759)"/>
            </g>
          </g>
        </g>
        <g id="Grupo_179242" data-name="Grupo 179242" transform="translate(103.181 117.004)" opacity="0.3">
          <g id="Grupo_179241" data-name="Grupo 179241">
            <g id="Grupo_179240" data-name="Grupo 179240" clip-path="url(#clip-path-6)">
              <path id="Trazado_227418" data-name="Trazado 227418" d="M281.825,315.508a2.489,2.489,0,0,1-3.246-.606l-4.5-4.1c1.287,1.894,2.318,3.812,3.605,5.707a2.991,2.991,0,0,0,1.308,1.26,2.743,2.743,0,0,0,1.886-.205,16,16,0,0,0,5.733-3.786l-4.789,1.733" transform="translate(-274.082 -310.8)"/>
            </g>
          </g>
        </g>
        <g id="Grupo_179245" data-name="Grupo 179245" transform="translate(105.274 82.772)" opacity="0.3">
          <g id="Grupo_179244" data-name="Grupo 179244">
            <g id="Grupo_179243" data-name="Grupo 179243" clip-path="url(#clip-path-7)">
              <path id="Trazado_227419" data-name="Trazado 227419" d="M279.64,235.56c4.2-2.017,5.719-7.609,9.891-9.692a7.515,7.515,0,0,1,7.582.61c.723.52,1.525,1.213,2.381.968.647-.185,1.02-.843,1.326-1.442l3.132-6.134-4.108,4.839a2.248,2.248,0,0,1-1.065.83c-.827.212-1.426-.714-2.19-1.1-2.383-1.188-4.051-2.681-5.379-1.678a14.846,14.846,0,0,1-3.241,1.759L279.64,235.4" transform="translate(-279.64 -219.869)"/>
            </g>
          </g>
        </g>
        <g id="Grupo_179248" data-name="Grupo 179248" transform="translate(97.989 75.755)" opacity="0.3">
          <g id="Grupo_179247" data-name="Grupo 179247">
            <g id="Grupo_179246" data-name="Grupo 179246" clip-path="url(#clip-path-8)">
              <path id="Trazado_227420" data-name="Trazado 227420" d="M260.416,228.031a9.819,9.819,0,0,1,.829-5.621,34.407,34.407,0,0,0,2.2-5.2,10.339,10.339,0,0,0,.153-4.467,5.35,5.35,0,0,1-.181-2.086,3.937,3.937,0,0,1,.567-1.222,27.155,27.155,0,0,1,3.28-4.252l2.625-3.952s.113,4.591.028,5.026a29.7,29.7,0,0,1-1.146,4,31.914,31.914,0,0,1-2.983,6.1,48.362,48.362,0,0,0-3.7,6.949Z" transform="translate(-260.291 -201.229)"/>
            </g>
          </g>
        </g>
        <path id="Trazado_227421" data-name="Trazado 227421" d="M279.345,136.491c-5.335-1.259-6.974-3.912-7.038-8.6l-.081-5.968s-5.905-.307-7.282-9.1a87.5,87.5,0,0,1-.9-17.3c.344-5.274,5.824-14.575,11.078-14.007l14.431,7.021a3.093,3.093,0,0,1,2.76,3.143l-1.12,34.1" transform="translate(-164.568 -50.806)" fill="#efbda8"/>
        <path id="Trazado_227422" data-name="Trazado 227422" d="M270.236,134.241a1.128,1.128,0,0,0,1.085,1.14,1.079,1.079,0,0,0,1.164-1.014,1.128,1.128,0,0,0-1.083-1.141,1.079,1.079,0,0,0-1.166,1.015" transform="translate(-168.502 -83.071)" fill="#263238"/>
        <path id="Trazado_227423" data-name="Trazado 227423" d="M268.353,129.061c.122.109,1.009-.012,2.187.278s1.984.813,2.126.768c.069-.018-.045-.189-.4-.425a5.41,5.41,0,0,0-1.685-.708,4.83,4.83,0,0,0-1.757-.127c-.388.058-.535.165-.474.215" transform="translate(-167.32 -80.32)" fill="#263238"/>
        <path id="Trazado_227424" data-name="Trazado 227424" d="M300.241,135.139a1.128,1.128,0,0,0,1.085,1.14,1.079,1.079,0,0,0,1.165-1.014,1.128,1.128,0,0,0-1.084-1.141,1.079,1.079,0,0,0-1.165,1.015" transform="translate(-187.211 -83.631)" fill="#263238"/>
        <path id="Trazado_227425" data-name="Trazado 227425" d="M300.072,129.5c.175.044.954-.553,2.228-.891s2.321-.244,2.432-.365c.055-.055-.142-.166-.6-.216a5.626,5.626,0,0,0-1.98.189,5.032,5.032,0,0,0-1.739.813c-.337.267-.421.453-.337.471" transform="translate(-187.088 -79.818)" fill="#263238"/>
        <path id="Trazado_227426" data-name="Trazado 227426" d="M283.167,136.475a8.026,8.026,0,0,0-1.97-.36c-.309-.033-.6-.095-.655-.306a1.579,1.579,0,0,1,.209-.918l.922-2.357a40.539,40.539,0,0,0,2.072-6.167,40.609,40.609,0,0,0-2.563,5.986q-.462,1.241-.883,2.371a1.791,1.791,0,0,0-.163,1.216.778.778,0,0,0,.509.454,2.093,2.093,0,0,0,.526.074,7.9,7.9,0,0,0,2,.007" transform="translate(-174.639 -78.794)" fill="#263238"/>
        <path id="Trazado_227427" data-name="Trazado 227427" d="M285.974,183.965a22.368,22.368,0,0,0,11.782-3.115s-2.984,6.2-11.782,5.357Z" transform="translate(-178.316 -112.767)" fill="#d1967c"/>
        <path id="Trazado_227428" data-name="Trazado 227428" d="M288.481,158.5a3.239,3.239,0,0,1,2.332-1.541,1.389,1.389,0,0,1,1.367.762,2.2,2.2,0,0,1-.2,2.017,1.857,1.857,0,0,1-1.839.889,3.108,3.108,0,0,1-1.518-.989,1.09,1.09,0,0,1-.308-.435.747.747,0,0,1,.1-.636" transform="translate(-179.758 -97.868)" fill="#d1967c"/>
        <path id="Trazado_227429" data-name="Trazado 227429" d="M291.348,155.469c-.2-.012-.2,1.305-1.332,2.237s-2.531.785-2.541.969c-.019.082.312.256.9.274a3.281,3.281,0,0,0,2.122-.734,2.858,2.858,0,0,0,1.033-1.876c.051-.55-.095-.877-.185-.87" transform="translate(-179.251 -96.941)" fill="#263238"/>
        <path id="Trazado_227430" data-name="Trazado 227430" d="M297.479,115.97c.152.317,1.342.042,2.775.073,1.434,0,2.617.3,2.776-.009.07-.149-.16-.439-.653-.711a4.827,4.827,0,0,0-4.23-.049c-.5.261-.736.544-.669.7" transform="translate(-185.483 -71.589)" fill="#263238"/>
        <path id="Trazado_227431" data-name="Trazado 227431" d="M267.327,120.282c.266.275,1.3-.013,2.552-.028,1.248-.051,2.306.181,2.549-.108.107-.14-.061-.416-.523-.676a4.188,4.188,0,0,0-2.076-.448,4.106,4.106,0,0,0-2.035.558c-.44.284-.585.568-.468.7" transform="translate(-166.664 -74.214)" fill="#263238"/>
        <path id="Trazado_227432" data-name="Trazado 227432" d="M319.63,125.667c-1.918-3.1-3.482-10.818-4.15-14.733s-2.741-16.461-6.076-23.056-7.262-9.262-11.114-10.3a8.86,8.86,0,0,0-8.483,1.927c-1.74,1.556-2.334,6.086-2.334,6.086s9.294,2.067,12.425,7.367c3.6,6.088,4.467,9.151,4.467,9.151l1.164,3.33s-1.089,6.446-1.49,9.633.238,6.146,2.861,7.438l5.275,3.728s6.9,4.687,7.214,4.929c1.471,1.124,4.357,5.409,4.357,5.409s-.2-4.576-4.116-10.91" transform="translate(-179.251 -48.152)" fill="#263238"/>
        <path id="Trazado_227433" data-name="Trazado 227433" d="M271.209,86.941s-5.314-.576-7.278,5.426c-.888,2.715-1.566,10.557-1.566,10.557a63.93,63.93,0,0,1-.491-9.78c.287-3.555,2.06-8.048,4.784-10.536,2.649-2.42,4.883-3.555,9.62-3.268A7.6,7.6,0,0,0,272.86,81.9c-.607.9-.871,1.667-1.651,5.045" transform="translate(-163.249 -49.444)" fill="#263238"/>
        <path id="Trazado_227434" data-name="Trazado 227434" d="M331.74,140.25a2.667,2.667,0,0,1,3.9-2.27c.926.535,1.634,1.611,1.549,3.677-.227,5.51-5.711,4.145-5.714,3.987,0-.1.148-3.116.262-5.394" transform="translate(-206.689 -85.829)" fill="#efbda8"/>
        <path id="Trazado_227435" data-name="Trazado 227435" d="M336.167,146.378c.025-.017.093.072.253.152a.959.959,0,0,0,.716.044,2.377,2.377,0,0,0,1.187-2.085,3.173,3.173,0,0,0-.212-1.385,1.11,1.11,0,0,0-.692-.766.489.489,0,0,0-.577.24c-.08.151-.05.263-.079.271s-.114-.1-.061-.323a.613.613,0,0,1,.231-.337.726.726,0,0,1,.536-.118,1.349,1.349,0,0,1,.967.9,3.257,3.257,0,0,1,.27,1.549,2.493,2.493,0,0,1-1.5,2.321,1.027,1.027,0,0,1-.872-.182c-.165-.143-.189-.267-.17-.277" transform="translate(-209.61 -88.581)" fill="#d1967c"/>
        <path id="Trazado_227436" data-name="Trazado 227436" d="M296.072,77.2c0,.041-.756.019-1.952.177a6.769,6.769,0,0,0-2.011.6,6.636,6.636,0,0,0-2.018,1.572,10.223,10.223,0,0,0-2.233,4.093c-.32,1.165-.358,1.922-.4,1.917a2.459,2.459,0,0,1,.018-.529,9.835,9.835,0,0,1,2.467-5.611,6.25,6.25,0,0,1,4.156-2.179,11.324,11.324,0,0,1,1.443-.07,2.533,2.533,0,0,1,.528.03" transform="translate(-179.238 -48.115)" fill="#455a64"/>
        <path id="Trazado_227437" data-name="Trazado 227437" d="M310.105,116.638a.3.3,0,0,1,.01-.09l.048-.258.082-.417.083-.574a13.247,13.247,0,0,0-1.956-8.758A14.864,14.864,0,0,0,303.536,102a27.62,27.62,0,0,0-3.077-1.61c-1.021-.469-2.042-.835-2.991-1.265a35.706,35.706,0,0,1-4.8-2.7c-1.306-.867-2.323-1.626-3.014-2.165-.344-.271-.61-.483-.786-.632l-.2-.17c-.044-.039-.066-.061-.064-.063a.314.314,0,0,1,.076.047l.212.155.808.6c.7.52,1.731,1.26,3.043,2.11a37.133,37.133,0,0,0,4.8,2.65c.939.42,1.968.785,3,1.254a27.359,27.359,0,0,1,3.1,1.618,14.894,14.894,0,0,1,4.885,4.612,13.1,13.1,0,0,1,1.891,5.156,12.571,12.571,0,0,1-.012,3.71l-.1.574-.1.415-.067.254a.3.3,0,0,1-.029.085" transform="translate(-179.956 -58.235)" fill="#455a64"/>
        <path id="Trazado_227438" data-name="Trazado 227438" d="M314.778,108.865a.32.32,0,0,1-.006-.09c0-.071,0-.158,0-.264,0-.232.026-.572.017-1.01a21.226,21.226,0,0,0-.359-3.691,21.483,21.483,0,0,0-1.7-5.214,20.7,20.7,0,0,0-3.849-5.484,24.421,24.421,0,0,0-5.389-4.007c-1.8-1.029-3.5-1.825-4.909-2.514s-2.559-1.245-3.336-1.658c-.391-.2-.687-.372-.89-.484l-.229-.131a.318.318,0,0,1-.075-.051.309.309,0,0,1,.084.033l.237.114.906.451c.786.392,1.936.935,3.361,1.6s3.124,1.457,4.939,2.483a24.2,24.2,0,0,1,5.44,4.026,20.559,20.559,0,0,1,3.872,5.545,21.124,21.124,0,0,1,1.679,5.266,19.723,19.723,0,0,1,.3,3.716c0,.44-.042.781-.055,1.012-.008.106-.016.192-.021.263a.337.337,0,0,1-.014.089" transform="translate(-183.353 -52.543)" fill="#455a64"/>
        <path id="Trazado_227439" data-name="Trazado 227439" d="M345.745,174.447a.659.659,0,0,1-.084-.166l-.207-.491a8.39,8.39,0,0,1-.293-.791c-.1-.313-.23-.666-.329-1.068q-.08-.3-.168-.629c-.054-.22-.1-.451-.149-.689-.111-.475-.181-.992-.269-1.533a32.388,32.388,0,0,1-.269-3.552,55.138,55.138,0,0,1,.322-6.455c.084-.822.161-1.487.221-1.945.029-.21.053-.384.073-.527a.679.679,0,0,1,.039-.183.7.7,0,0,1,0,.187l-.036.531c-.04.491-.093,1.149-.158,1.95-.129,1.645-.306,3.922-.264,6.438a35.013,35.013,0,0,0,.252,3.532c.083.538.146,1.052.25,1.525.048.237.087.468.137.687s.1.427.154.628c.089.4.207.756.3,1.07s.18.582.259.8l.172.5a.667.667,0,0,1,.047.181" transform="translate(-214.48 -97.533)" fill="#455a64"/>
        <path id="Trazado_227440" data-name="Trazado 227440" d="M163.553,338.638s5.987,7.678,8.132,8.291,10.274,2.616,10.274,2.616l26.674,6.166-3.142-11.433-25.259-.345Z" transform="translate(-101.982 -211.154)" fill="#efbda8"/>
        <path id="Trazado_227441" data-name="Trazado 227441" d="M72.384,233.461c2,4.957,12.075,27.64,14.409,32.891a2.647,2.647,0,0,0,1.619,1.448l31.705,10.065,31.456,2.351v-1.037l-25.431-7.705-8.033-.941-11.994-29.747a4.289,4.289,0,0,0-3.2-2.615l-29.9-5.479a.568.568,0,0,0-.631.77" transform="translate(-45.108 -145.086)" fill="#455a64"/>
        <path id="Trazado_227442" data-name="Trazado 227442" d="M226.6,339.943a.382.382,0,0,1-.1,0l-.292-.022-1.123-.1-4.124-.413-6.113-.637-7.489-.752c-2.657-.263-5.191-.463-7.5-.594l-3.28-.207a5.557,5.557,0,0,1-.763-.1,1.65,1.65,0,0,1-.368-.119.651.651,0,0,1-.286-.277,12.143,12.143,0,0,1-.518-1.286l-1.466-3.876-.389-1.057-.1-.277a.05.05,0,1,1,.019-.007l.115.27.424,1.044,1.525,3.855a12.406,12.406,0,0,0,.517,1.255.5.5,0,0,0,.224.218,1.536,1.536,0,0,0,.333.1,5.483,5.483,0,0,0,.741.088c1.024.047,2.124.122,3.279.188,2.312.122,4.851.316,7.51.579l7.487.768,6.11.679,4.117.475,1.118.139.29.041a.389.389,0,0,1,.1.021" transform="translate(-120.134 -205.85)" fill="#263238"/>
        <path id="Trazado_227443" data-name="Trazado 227443" d="M210.12,323.953s.456-2.991,0-3.579-3.661-3.472-3.661-3.472l-1.816-1.709-4.01-.614a1.224,1.224,0,0,0-1.223.563l-.411.66-1.086-.182-.961-1.389h-2.671l-1.976,2.137v2.885a.544.544,0,0,0,.961.213c.695-.588.737-2.213.737-2.213l1.186,1.091-1.259,3.848s.885.8,1.527,0S197,320.214,197,320.214s1.068,2.883,2.884,3.739a20.312,20.312,0,0,0,7.1,1.432c.908-.2,2.954.167,3.127-1.432" transform="translate(-119.908 -195.935)" fill="#efbda8"/>
        <path id="Trazado_227444" data-name="Trazado 227444" d="M210.772,319.427s-.014.045-.073.107a.811.811,0,0,1-.314.2,1.592,1.592,0,0,1-.583.081c-.231,0-.485-.057-.76-.083a1.332,1.332,0,0,0-.847.133,3.929,3.929,0,0,0-.7.755,3.177,3.177,0,0,1-2.142,1.165,2.019,2.019,0,0,1-1.788-.831l-.04-.062.05-.053a20.473,20.473,0,0,0,1.938-2.365c.434-.619.667-1,.689-.987a1.215,1.215,0,0,1-.136.289c-.1.182-.251.443-.456.763a17.192,17.192,0,0,1-1.9,2.428l.01-.115a1.848,1.848,0,0,0,1.624.737,3.044,3.044,0,0,0,2.017-1.09,3.839,3.839,0,0,1,.752-.774,1.456,1.456,0,0,1,.946-.131c.285.037.532.1.75.111a1.62,1.62,0,0,0,.554-.044,1.179,1.179,0,0,0,.411-.236" transform="translate(-126.904 -197.966)" fill="#d1967c"/>
        <path id="Trazado_227445" data-name="Trazado 227445" d="M226.691,328.034c-.022,0-.044-.169-.165-.452a4.353,4.353,0,0,0-.694-1.1c-.346-.431-.823-.9-1.255-1.509a3.247,3.247,0,0,1-.5-1.072,2.548,2.548,0,0,1,.021-1.274,3.1,3.1,0,0,1,.574-1.135,1.343,1.343,0,0,1,.483-.4.712.712,0,0,1,.624.018,1.439,1.439,0,0,1,.638.875,4.023,4.023,0,0,0,.356.821,3.507,3.507,0,0,0,.851.97c.242.191.395.273.387.288a1.369,1.369,0,0,1-.432-.226,3.267,3.267,0,0,1-.924-.959,3.99,3.99,0,0,1-.39-.837,1.292,1.292,0,0,0-.566-.769.526.526,0,0,0-.468-.009,1.169,1.169,0,0,0-.408.353,2.944,2.944,0,0,0-.535,1.066,2.385,2.385,0,0,0-.024,1.179,3.128,3.128,0,0,0,.462,1.015c.41.6.876,1.076,1.214,1.524a3.95,3.95,0,0,1,.657,1.156,1.64,1.64,0,0,1,.084.353c.012.082.015.125.009.126" transform="translate(-139.677 -200.173)" fill="#d1967c"/>
        <path id="Trazado_227446" data-name="Trazado 227446" d="M200.49,319.911a.849.849,0,0,0-.579.238,3.924,3.924,0,0,0-.718,1.419c-.216.6-.4,1.151-.561,1.542a1.934,1.934,0,0,1-.3.614,3.133,3.133,0,0,1,.173-.66c.122-.4.289-.957.507-1.564a3.414,3.414,0,0,1,.809-1.455.752.752,0,0,1,.488-.19c.127,0,.188.045.184.055" transform="translate(-123.663 -199.442)" fill="#d1967c"/>
        <path id="Trazado_227447" data-name="Trazado 227447" d="M199.832,318.843c0,.021-.164.058-.44.022a2.015,2.015,0,0,1-1.005-.446h.125l-.246.212a8.6,8.6,0,0,1-1.454,1.109,8.6,8.6,0,0,1,1.327-1.258l.248-.21.063-.053.062.053a2.276,2.276,0,0,0,.9.469c.253.066.415.075.415.1" transform="translate(-122.719 -198.421)" fill="#d1967c"/>
        <path id="Trazado_227448" data-name="Trazado 227448" d="M216.108,332.013a2.177,2.177,0,0,1,.284-.681,7.932,7.932,0,0,1,2.336-2.659,2.2,2.2,0,0,1,.639-.37,12.829,12.829,0,0,0-3.259,3.71" transform="translate(-134.749 -204.708)" fill="#d1967c"/>
        <path id="Trazado_227449" data-name="Trazado 227449" d="M156.071,248.544a.465.465,0,0,1,.049.1l.126.293.466,1.132,1.681,4.178,5.476,13.812,5.424,13.835,1.623,4.2.432,1.146.108.3a.055.055,0,1,1-.018.008l-.126-.292-.466-1.132-1.681-4.178-5.477-13.814L158.264,254.3l-1.623-4.2-.432-1.146-.108-.3a.459.459,0,0,1-.03-.1" transform="translate(-97.316 -154.977)" fill="#263238"/>
        <path id="Trazado_227450" data-name="Trazado 227450" d="M132.239,283.816c.8,1.106.791,2.478-.02,3.064s-2.116.165-2.916-.941-.791-2.478.02-3.064,2.116-.165,2.916.941" transform="translate(-80.255 -176.218)" fill="#fff"/>
      </g>
    </g>
    <g id="Grupo_179252" data-name="Grupo 179252">
      <g id="Grupo_179251" data-name="Grupo 179251" clip-path="url(#clip-path)">
        <path id="Trazado_227451" data-name="Trazado 227451" d="M77,131.7H2.962A2.962,2.962,0,0,1,0,128.737V85.1A2.962,2.962,0,0,1,2.962,82.14H77A2.962,2.962,0,0,1,79.96,85.1v43.635A2.962,2.962,0,0,1,77,131.7" transform="translate(0 -51.217)" fill="#263238"/>
        <path id="Trazado_227452" data-name="Trazado 227452" d="M102.2,139.662a6.091,6.091,0,1,1-6.091-6.091,6.091,6.091,0,0,1,6.091,6.091" transform="translate(-56.132 -83.287)" fill="#eeac3a"/>
        <path id="Trazado_227453" data-name="Trazado 227453" d="M102.3,148.152v-3.594a.229.229,0,0,1,.341-.2l3.212,1.811a.229.229,0,0,1,0,.4l-3.212,1.783a.229.229,0,0,1-.34-.2" transform="translate(-63.789 -89.995)" fill="#fff"/>
        <path id="Trazado_227454" data-name="Trazado 227454" d="M11.092,197.5v.128h-.6v-.1l.324-.308c.079-.076.093-.123.093-.169,0-.075-.052-.118-.152-.118a.23.23,0,0,0-.191.085l-.106-.082a.377.377,0,0,1,.31-.135c.177,0,.292.09.292.234a.327.327,0,0,1-.136.258l-.218.207Z" transform="translate(-6.522 -122.714)" fill="#fff"/>
        <path id="Trazado_227455" data-name="Trazado 227455" d="M12.359,197.425a.1.1,0,1,1,.191,0,.1.1,0,1,1-.191,0m0,.444a.1.1,0,1,1,.191,0,.1.1,0,1,1-.191,0" transform="translate(-7.706 -123.042)" fill="#fff"/>
        <path id="Trazado_227456" data-name="Trazado 227456" d="M13.338,196.832v.816h-.151v-.689h-.173v-.127Z" transform="translate(-8.115 -122.733)" fill="#fff"/>
        <path id="Trazado_227457" data-name="Trazado 227457" d="M15.013,197.463h-.145v.185h-.147v-.185h-.448v-.105l.4-.526h.162l-.379.5h.267v-.165h.142v.165h.145Z" transform="translate(-8.9 -122.733)" fill="#fff"/>
        <rect id="Rectángulo_57464" data-name="Rectángulo 57464" width="61.927" height="0.282" transform="translate(7.446 74.404)" fill="#fff"/>
        <rect id="Rectángulo_57465" data-name="Rectángulo 57465" width="19.352" height="0.753" transform="translate(7.4 74.1)" fill="#eeac3a"/>
        <path id="Trazado_227458" data-name="Trazado 227458" d="M69.6,196.456a.942.942,0,1,1-.942-.942.942.942,0,0,1,.942.942" transform="translate(-42.224 -121.911)" fill="#eeac3a"/>
        <path id="Trazado_227459" data-name="Trazado 227459" d="M187.343,197.04a.272.272,0,0,1-.3.265c-.222,0-.353-.143-.353-.406a.386.386,0,0,1,.4-.434.408.408,0,0,1,.215.052l-.056.114a.28.28,0,0,0-.156-.04c-.154,0-.251.1-.251.281h0a.279.279,0,0,1,.218-.085.255.255,0,0,1,.281.25m-.147.007c0-.085-.064-.139-.163-.139a.149.149,0,0,0-.166.14c0,.077.061.138.169.138a.142.142,0,0,0,.16-.139" transform="translate(-116.409 -122.504)" fill="#fff"/>
        <path id="Trazado_227460" data-name="Trazado 227460" d="M188.618,197.089a.1.1,0,1,1,.191,0,.1.1,0,1,1-.191,0m0,.444a.1.1,0,1,1,.191,0,.1.1,0,1,1-.191,0" transform="translate(-117.611 -122.832)" fill="#fff"/>
        <path id="Trazado_227461" data-name="Trazado 227461" d="M189.385,196.886c0-.268.147-.42.34-.42s.342.152.342.42-.147.42-.342.42-.34-.152-.34-.42m.529,0c0-.2-.077-.288-.189-.288s-.188.091-.188.288.077.288.188.288.189-.091.189-.288" transform="translate(-118.089 -122.504)" fill="#fff"/>
        <path id="Trazado_227462" data-name="Trazado 227462" d="M191.467,196.886c0-.268.147-.42.34-.42s.342.152.342.42-.147.42-.342.42-.34-.152-.34-.42m.529,0c0-.2-.077-.288-.189-.288s-.188.091-.188.288.077.288.188.288.189-.091.189-.288" transform="translate(-119.387 -122.504)" fill="#fff"/>
        <path id="Trazado_227463" data-name="Trazado 227463" d="M196.314,196.1h-.282v-.814h.812v.282h-.53Z" transform="translate(-122.234 -121.767)" fill="#fff"/>
        <path id="Trazado_227464" data-name="Trazado 227464" d="M196.844,198.922h-.814v-.812h.282v.53h.532Z" transform="translate(-122.232 -123.529)" fill="#fff"/>
        <path id="Trazado_227465" data-name="Trazado 227465" d="M200.29,198.919h-.812v-.282h.53V198.1h.282Z" transform="translate(-124.382 -123.526)" fill="#fff"/>
        <path id="Trazado_227466" data-name="Trazado 227466" d="M200.289,196.1h-.282v-.53h-.532v-.282h.814Z" transform="translate(-124.38 -121.767)" fill="#fff"/>
        <path id="Trazado_227467" data-name="Trazado 227467" d="M173.5,94.805a2.074,2.074,0,0,1,.434-.038c.291-.014.721-.032,1.25-.041h.078v.08c.006.631.012,1.356.019,2.14l0,.238-.169-.169-.225-.224-.571-.574.132,0-.895.789-.145.128,0-.192c.008-.659.027-1.205.044-1.578a3.08,3.08,0,0,1,.042-.562,4.893,4.893,0,0,1,.042.617c.016.378.035.9.044,1.523l-.143-.064.881-.8.067-.061.065.065.574.571.224.224-.167.069c.007-.784.013-1.509.019-2.14l.079.079c-.494-.009-.9-.027-1.2-.041a3.461,3.461,0,0,1-.483-.038" transform="translate(-108.128 -59.065)" fill="#fff"/>
        <path id="Trazado_227468" data-name="Trazado 227468" d="M185.681,95.464c.02-.008-.137.18-.417.522s-.695.847-1.2,1.413l-.162.182v-.245c0-.334,0-.691,0-1.061v-.1l.03.071-.747-.726-.168-.163.233,0c.736.009,1.368.043,1.792.065s.661.034.642.042-.293.016-.729.034-1.023.043-1.706.044l.065-.159.754.718.03.028v.146c0,.37,0,.727,0,1.061l-.163-.062c.475-.521.9-.952,1.22-1.275s.514-.527.534-.536" transform="translate(-114.116 -59.457)" fill="#fff"/>
        <path id="Trazado_227469" data-name="Trazado 227469" d="M187.306,95.628a4.289,4.289,0,0,1-1.685.708,4.325,4.325,0,0,1,1.685-.708" transform="translate(-115.742 -59.621)" fill="#fff"/>
        <path id="Trazado_227470" data-name="Trazado 227470" d="M196,94.909a.543.543,0,0,1,.3,0,1.187,1.187,0,0,1,.7.429,1.256,1.256,0,0,1,.2,1.2,1.277,1.277,0,0,1-2.41,0,1.258,1.258,0,0,1,.2-1.2,1.189,1.189,0,0,1,.7-.428.543.543,0,0,1,.3,0,2.438,2.438,0,0,1-.282.074,1.2,1.2,0,0,0-.611.439,1.128,1.128,0,0,0-.142,1.055,1.1,1.1,0,0,0,2.071,0,1.128,1.128,0,0,0-.142-1.055,1.194,1.194,0,0,0-.611-.439,2.438,2.438,0,0,1-.282-.074" transform="translate(-121.42 -59.169)" fill="#fff"/>
        <path id="Trazado_227471" data-name="Trazado 227471" d="M198.192,97.4c-.038.038-.3-.158-.577-.439l-.029-.029v-.048c0-.4.044-.725.1-.725s.1.325.1.725v.007l-.029-.07c.28.282.477.539.439.577" transform="translate(-123.203 -59.959)" fill="#fff"/>
        <path id="Trazado_227472" data-name="Trazado 227472" d="M60.386,99.085c0,.054-8.218.1-18.352.1s-18.354-.044-18.354-.1,8.216-.1,18.354-.1,18.352.044,18.352.1" transform="translate(-14.765 -61.722)" fill="#fff"/>
        <path id="Trazado_227473" data-name="Trazado 227473" d="M14.281,96.849A1.447,1.447,0,1,1,12.833,95.4a1.447,1.447,0,0,1,1.447,1.447" transform="translate(-7.1 -59.487)" fill="#fff"/>
        <path id="Trazado_227474" data-name="Trazado 227474" d="M503.314,333.487H429.277a2.962,2.962,0,0,1-2.962-2.962V286.891a2.962,2.962,0,0,1,2.962-2.962h74.037a2.962,2.962,0,0,1,2.962,2.962v43.635a2.962,2.962,0,0,1-2.962,2.962" transform="translate(-265.824 -177.041)" fill="#263238"/>
        <path id="Trazado_227475" data-name="Trazado 227475" d="M528.518,341.451a6.091,6.091,0,1,1-6.092-6.091,6.091,6.091,0,0,1,6.092,6.091" transform="translate(-321.955 -209.11)" fill="#4adbd1"/>
        <path id="Trazado_227476" data-name="Trazado 227476" d="M528.616,349.941v-3.594a.229.229,0,0,1,.341-.2l3.212,1.811a.229.229,0,0,1,0,.4l-3.212,1.783a.229.229,0,0,1-.34-.2" transform="translate(-329.613 -215.818)" fill="#fff"/>
        <path id="Trazado_227477" data-name="Trazado 227477" d="M437.407,399.29v.128h-.6v-.1l.324-.308c.079-.076.093-.123.093-.169,0-.075-.051-.118-.152-.118a.23.23,0,0,0-.191.085l-.106-.082a.377.377,0,0,1,.31-.135c.177,0,.292.09.292.234a.327.327,0,0,1-.136.258l-.218.207Z" transform="translate(-272.345 -248.537)" fill="#fff"/>
        <path id="Trazado_227478" data-name="Trazado 227478" d="M438.674,399.214a.1.1,0,1,1,.191,0,.1.1,0,1,1-.191,0m0,.444a.1.1,0,1,1,.191,0,.1.1,0,1,1-.191,0" transform="translate(-273.53 -248.865)" fill="#fff"/>
        <path id="Trazado_227479" data-name="Trazado 227479" d="M439.653,398.621v.816H439.5v-.689h-.173v-.127Z" transform="translate(-273.939 -248.556)" fill="#fff"/>
        <path id="Trazado_227480" data-name="Trazado 227480" d="M441.328,399.252h-.145v.185h-.147v-.185h-.448v-.105l.4-.526h.162l-.379.5h.267v-.164h.142v.164h.145Z" transform="translate(-274.724 -248.556)" fill="#fff"/>
        <rect id="Rectángulo_57466" data-name="Rectángulo 57466" width="61.928" height="0.282" transform="translate(167.937 150.37)" fill="#fff"/>
        <rect id="Rectángulo_57467" data-name="Rectángulo 57467" width="19.352" height="0.753" transform="translate(167.891 150.066)" fill="#4adbd1"/>
        <path id="Trazado_227481" data-name="Trazado 227481" d="M495.916,398.245a.942.942,0,1,1-.942-.942.942.942,0,0,1,.942.942" transform="translate(-308.047 -247.734)" fill="#4adbd1"/>
        <path id="Trazado_227482" data-name="Trazado 227482" d="M613.658,398.829a.272.272,0,0,1-.3.265c-.222,0-.353-.143-.353-.406a.386.386,0,0,1,.4-.434.408.408,0,0,1,.215.052l-.056.114a.28.28,0,0,0-.155-.04c-.154,0-.251.1-.251.281h0a.278.278,0,0,1,.218-.085.255.255,0,0,1,.281.25m-.147.007c0-.085-.064-.139-.163-.139a.148.148,0,0,0-.166.14c0,.077.061.138.169.138a.142.142,0,0,0,.16-.139" transform="translate(-382.233 -248.327)" fill="#fff"/>
        <path id="Trazado_227483" data-name="Trazado 227483" d="M614.933,398.878a.1.1,0,1,1,.191,0,.1.1,0,1,1-.191,0m0,.444a.1.1,0,1,1,.191,0,.1.1,0,1,1-.191,0" transform="translate(-383.435 -248.655)" fill="#fff"/>
        <path id="Trazado_227484" data-name="Trazado 227484" d="M615.7,398.675c0-.268.147-.42.34-.42s.342.152.342.42-.147.42-.342.42-.34-.152-.34-.42m.529,0c0-.2-.077-.288-.189-.288s-.188.091-.188.288.077.288.188.288.189-.091.189-.288" transform="translate(-383.913 -248.327)" fill="#fff"/>
        <path id="Trazado_227485" data-name="Trazado 227485" d="M617.782,398.675c0-.268.147-.42.34-.42s.342.152.342.42-.147.42-.342.42-.34-.152-.34-.42m.529,0c0-.2-.077-.288-.189-.288s-.187.091-.187.288.077.288.188.288.189-.091.189-.288" transform="translate(-385.211 -248.327)" fill="#fff"/>
        <path id="Trazado_227486" data-name="Trazado 227486" d="M622.629,397.887h-.282v-.814h.812v.282h-.53Z" transform="translate(-388.057 -247.59)" fill="#fff"/>
        <path id="Trazado_227487" data-name="Trazado 227487" d="M623.158,400.711h-.814V399.9h.282v.53h.532Z" transform="translate(-388.056 -249.352)" fill="#fff"/>
        <path id="Trazado_227488" data-name="Trazado 227488" d="M626.6,400.708h-.812v-.282h.53v-.532h.282Z" transform="translate(-390.206 -249.349)" fill="#fff"/>
        <path id="Trazado_227489" data-name="Trazado 227489" d="M626.6,397.885h-.282v-.53h-.532v-.282h.814Z" transform="translate(-390.204 -247.59)" fill="#fff"/>
        <path id="Trazado_227490" data-name="Trazado 227490" d="M599.813,296.594a2.071,2.071,0,0,1,.434-.038c.291-.014.721-.032,1.25-.041h.078v.08c.006.631.012,1.356.019,2.14l0,.238-.169-.169-.225-.224-.571-.574.132,0-.895.789-.145.128,0-.192c.008-.659.027-1.205.044-1.578a3.122,3.122,0,0,1,.042-.562,4.8,4.8,0,0,1,.042.617c.016.378.035.9.044,1.523l-.143-.064.881-.8.067-.061.065.065.574.571.224.224-.167.069c.007-.784.013-1.509.019-2.14l.079.079c-.494-.009-.9-.027-1.2-.041a3.461,3.461,0,0,1-.483-.038" transform="translate(-373.952 -184.888)" fill="#fff"/>
        <path id="Trazado_227491" data-name="Trazado 227491" d="M612,297.254c.02-.009-.137.179-.417.522s-.695.847-1.2,1.413l-.162.183v-.245c0-.334,0-.691,0-1.061v-.1l.03.071-.747-.726-.168-.163.233,0c.736.009,1.368.043,1.792.065s.661.033.642.042-.293.016-.729.034-1.023.044-1.706.045l.065-.16.754.719.03.029v.146c0,.37,0,.727,0,1.061l-.163-.063c.475-.521.9-.951,1.22-1.275s.514-.527.534-.535" transform="translate(-379.94 -185.28)" fill="#fff"/>
        <path id="Trazado_227492" data-name="Trazado 227492" d="M613.621,297.418a4.294,4.294,0,0,1-1.685.707,4.316,4.316,0,0,1,1.685-.707" transform="translate(-381.566 -185.444)" fill="#fff"/>
        <path id="Trazado_227493" data-name="Trazado 227493" d="M622.318,296.7a.543.543,0,0,1,.3,0,1.185,1.185,0,0,1,.7.429,1.256,1.256,0,0,1,.2,1.2,1.277,1.277,0,0,1-2.41,0,1.258,1.258,0,0,1,.2-1.2,1.187,1.187,0,0,1,.7-.428.543.543,0,0,1,.3,0,2.446,2.446,0,0,1-.282.074,1.2,1.2,0,0,0-.611.439,1.128,1.128,0,0,0-.142,1.055,1.1,1.1,0,0,0,2.071,0,1.127,1.127,0,0,0-.142-1.055,1.194,1.194,0,0,0-.611-.439,2.441,2.441,0,0,1-.282-.074" transform="translate(-387.244 -184.992)" fill="#fff"/>
        <path id="Trazado_227494" data-name="Trazado 227494" d="M624.507,299.189c-.038.038-.3-.158-.577-.439l-.029-.029v-.048c0-.4.044-.725.1-.725s.1.325.1.725v.007l-.029-.069c.28.282.477.539.439.577" transform="translate(-389.026 -185.783)" fill="#fff"/>
        <path id="Trazado_227495" data-name="Trazado 227495" d="M486.7,300.874c0,.054-8.218.1-18.353.1s-18.354-.044-18.354-.1,8.216-.1,18.354-.1,18.353.044,18.353.1" transform="translate(-280.589 -187.545)" fill="#fff"/>
        <path id="Trazado_227496" data-name="Trazado 227496" d="M440.6,298.638a1.447,1.447,0,1,1-1.447-1.447,1.448,1.448,0,0,1,1.447,1.447" transform="translate(-272.924 -185.31)" fill="#fff"/>
        <path id="Trazado_227497" data-name="Trazado 227497" d="M428.232,57.8H373.318a2.962,2.962,0,0,1-2.962-2.962V23.055a2.962,2.962,0,0,1,2.962-2.962h54.914a2.961,2.961,0,0,1,2.961,2.962V54.837a2.961,2.961,0,0,1-2.961,2.962" transform="translate(-230.931 -12.529)" fill="#f5f5f5"/>
        <path id="Trazado_227498" data-name="Trazado 227498" d="M421.537,59.174a8.79,8.79,0,0,0-4.786-1.582c-2.42.091-4.44,1.786-6.251,3.393L402.03,68.5a1.144,1.144,0,0,1-1.978-.045l-7.5-8.321c-1.556-1.726-3.333-3.568-5.645-3.793-1.875-.182-3.666.76-5.242,1.792a37.517,37.517,0,0,0-11.219,11.411l-.088,7.876a4,4,0,0,0,3.623,2.968h53.59a3.671,3.671,0,0,0,3.623-3.324V69.647a25.565,25.565,0,0,0-9.656-10.472" transform="translate(-230.931 -35.115)" fill="#455a64"/>
        <path id="Trazado_227499" data-name="Trazado 227499" d="M378.8,107.867v.1h-.457v-.077l.245-.233c.061-.058.072-.094.072-.128,0-.057-.039-.09-.115-.09a.175.175,0,0,0-.145.065l-.081-.062a.286.286,0,0,1,.235-.1c.134,0,.221.068.221.178a.248.248,0,0,1-.1.2l-.165.157Z" transform="translate(-235.894 -66.928)" fill="#263238"/>
        <path id="Trazado_227500" data-name="Trazado 227500" d="M379.76,107.809a.073.073,0,1,1,.145,0,.073.073,0,1,1-.145,0m0,.337a.073.073,0,1,1,.145,0,.073.073,0,1,1-.145,0" transform="translate(-236.795 -67.178)" fill="#263238"/>
        <path id="Trazado_227501" data-name="Trazado 227501" d="M380.5,107.359v.619h-.115v-.523h-.131v-.1Z" transform="translate(-237.106 -66.943)" fill="#263238"/>
        <path id="Trazado_227502" data-name="Trazado 227502" d="M381.777,107.838h-.11v.14h-.111v-.14h-.34v-.079l.3-.4h.123l-.287.381h.2v-.125h.108v.125h.11Z" transform="translate(-237.703 -66.943)" fill="#263238"/>
        <rect id="Rectángulo_57468" data-name="Rectángulo 57468" width="47.118" height="0.282" transform="translate(145.09 40.613)" fill="#263238"/>
        <rect id="Rectángulo_57469" data-name="Rectángulo 57469" width="14.724" height="0.753" transform="translate(145.055 40.326)" fill="#f4a338"/>
        <path id="Trazado_227503" data-name="Trazado 227503" d="M423.311,107.07a.717.717,0,1,1-.717-.717.717.717,0,0,1,.717.717" transform="translate(-263.057 -66.315)" fill="#f4a338"/>
        <path id="Trazado_227504" data-name="Trazado 227504" d="M512.892,107.516a.207.207,0,0,1-.227.2c-.169,0-.268-.109-.268-.308a.293.293,0,0,1,.3-.329.31.31,0,0,1,.163.04l-.043.087a.212.212,0,0,0-.117-.03c-.117,0-.19.072-.19.213h0a.212.212,0,0,1,.165-.065.194.194,0,0,1,.213.19m-.111.005c0-.065-.049-.105-.124-.105a.113.113,0,0,0-.126.106c0,.058.046.1.128.1a.108.108,0,0,0,.121-.105" transform="translate(-319.499 -66.769)" fill="#263238"/>
        <path id="Trazado_227505" data-name="Trazado 227505" d="M513.863,107.553a.073.073,0,1,1,.145,0,.073.073,0,1,1-.145,0m0,.337a.073.073,0,1,1,.145,0,.073.073,0,1,1-.145,0" transform="translate(-320.413 -67.018)" fill="#263238"/>
        <path id="Trazado_227506" data-name="Trazado 227506" d="M514.447,107.4c0-.2.111-.318.258-.318s.26.115.26.318-.112.318-.26.318-.258-.115-.258-.318m.4,0c0-.149-.058-.219-.143-.219s-.142.069-.142.219.058.218.142.218.143-.069.143-.218" transform="translate(-320.778 -66.769)" fill="#263238"/>
        <path id="Trazado_227507" data-name="Trazado 227507" d="M516.031,107.4c0-.2.111-.318.258-.318s.26.115.26.318-.112.318-.26.318-.258-.115-.258-.318m.4,0c0-.149-.058-.219-.143-.219s-.142.069-.142.219.059.218.142.218.143-.069.143-.218" transform="translate(-321.765 -66.769)" fill="#263238"/>
        <path id="Trazado_227508" data-name="Trazado 227508" d="M519.7,106.742h-.282v-.653h.652v.282h-.37Z" transform="translate(-323.876 -66.15)" fill="#263238"/>
        <path id="Trazado_227509" data-name="Trazado 227509" d="M520.068,108.98h-.653v-.652h.282v.369h.37Z" transform="translate(-323.875 -67.547)" fill="#263238"/>
        <path id="Trazado_227510" data-name="Trazado 227510" d="M522.779,108.978h-.652V108.7h.369v-.371h.282Z" transform="translate(-325.567 -67.545)" fill="#263238"/>
        <path id="Trazado_227511" data-name="Trazado 227511" d="M522.779,106.74H522.5v-.369h-.37v-.282h.653Z" transform="translate(-325.566 -66.15)" fill="#263238"/>
        <path id="Trazado_227512" data-name="Trazado 227512" d="M502.324,29.7a8.684,8.684,0,0,1,1.281-.079l.077,0,0,.081c.011.462.017,1.021.019,1.628v.236l-.168-.167-.171-.171-.434-.437.132,0-.682.6-.147.129,0-.193a12.369,12.369,0,0,1,.086-1.628,15.441,15.441,0,0,1,.086,1.628l-.143-.064.669-.614.067-.061.065.065.437.434.171.171-.167.069c0-.607.008-1.166.019-1.628l.079.079a11.321,11.321,0,0,1-1.281-.079" transform="translate(-313.162 -18.466)" fill="#263238"/>
        <path id="Trazado_227513" data-name="Trazado 227513" d="M511.538,30.192a3.744,3.744,0,0,1-.3.4c-.208.262-.523.656-.909,1.092l-.161.183v-.245c0-.256,0-.526,0-.807v-.079l.03.07-.567-.553-.167-.163.232,0c.566.009,1.053.041,1.374.063a3.629,3.629,0,0,1,.478.041c-.02.008-.232.016-.565.035s-.774.045-1.288.047l.065-.16.574.545.03.029v.121c0,.281,0,.552,0,.807l-.163-.062c.358-.391.684-.709.931-.953s.4-.4.42-.409" transform="translate(-317.664 -18.759)" fill="#263238"/>
        <path id="Trazado_227514" data-name="Trazado 227514" d="M512.867,30.345c.021.05-.249.211-.6.36s-.658.229-.679.179.249-.211.6-.36.658-.229.679-.179" transform="translate(-318.992 -18.912)" fill="#263238"/>
        <path id="Trazado_227515" data-name="Trazado 227515" d="M519.45,29.8c0-.011.081-.032.231-.009a.906.906,0,0,1,.546.325.972.972,0,0,1,.161.931.993.993,0,0,1-1.875,0,.972.972,0,0,1,.161-.931.9.9,0,0,1,.545-.325c.149-.023.231,0,.231.009s-.081.022-.212.066a.908.908,0,0,0-.454.335.843.843,0,0,0-.1.785.82.82,0,0,0,1.535,0,.842.842,0,0,0-.1-.785.909.909,0,0,0-.454-.335c-.132-.044-.213-.049-.212-.066" transform="translate(-323.279 -18.568)" fill="#263238"/>
        <path id="Trazado_227516" data-name="Trazado 227516" d="M521.111,31.7c-.038.038-.242-.1-.456-.317l-.029-.029v-.046c0-.3.044-.552.1-.552s.1.247.1.552v.005l-.029-.069c.214.214.355.418.318.456" transform="translate(-324.63 -19.18)" fill="#263238"/>
        <path id="Trazado_227517" data-name="Trazado 227517" d="M416.3,32.946c0,.054-6.252.1-13.963.1s-13.965-.044-13.965-.1,6.251-.1,13.965-.1,13.963.044,13.963.1" transform="translate(-242.165 -20.482)" fill="#263238"/>
        <path id="Trazado_227518" data-name="Trazado 227518" d="M381.222,31.284a1.1,1.1,0,1,1-1.1-1.1,1.1,1.1,0,0,1,1.1,1.1" transform="translate(-236.333 -18.82)" fill="#263238"/>
        <path id="Trazado_227519" data-name="Trazado 227519" d="M428.066,57.636c0-.012.17,0,.491-.054A2.927,2.927,0,0,0,429.866,57a2.956,2.956,0,0,0,1.114-1.993c.037-.927,0-2.011.011-3.224-.008-4.862-.018-11.89-.031-20.574q0-3.257-.007-6.817c-.007-.589.014-1.2-.016-1.788a2.89,2.89,0,0,0-2.235-2.52,3.909,3.909,0,0,0-.923-.072h-.953l-16.306.009-37.363.008a2.864,2.864,0,0,0-2.126.945,2.959,2.959,0,0,0-.742,2.2q0,2.455,0,4.876,0,4.842,0,9.533t0,9.2q0,2.255,0,4.461,0,1.1,0,2.193,0,.545,0,1.087a3.185,3.185,0,0,0,.142,1.036,2.874,2.874,0,0,0,2.23,1.936,5.8,5.8,0,0,0,1.034.047l4.14,0,7.915,0,14.208.012,20.572.031,5.593.018,1.455.009c.327,0,.5.01.5.01s-.168.007-.5.01l-1.455.009-5.593.018-20.572.031-14.208.012-7.915,0-4.14,0a5.973,5.973,0,0,1-1.065-.049,3.054,3.054,0,0,1-2.371-2.055,3.374,3.374,0,0,1-.152-1.092q0-.542,0-1.087,0-1.09,0-2.193,0-2.206,0-4.461,0-4.51,0-9.2t0-9.533q0-2.421,0-4.876a3.5,3.5,0,0,1,.155-1.244,3.072,3.072,0,0,1,2.909-2.1l37.363.008,16.306.009h.953a4.1,4.1,0,0,1,.958.077,3.049,3.049,0,0,1,2.353,2.661c.03.619.008,1.207.014,1.8q0,3.556-.007,6.817c-.013,8.684-.023,15.712-.031,20.574-.012,1.216.015,2.291-.029,3.231a2.993,2.993,0,0,1-1.148,2.018,2.9,2.9,0,0,1-1.329.572,2.239,2.239,0,0,1-.37.033c-.083,0-.125,0-.125,0" transform="translate(-230.766 -12.366)" fill="#263238"/>
        <path id="Trazado_227520" data-name="Trazado 227520" d="M451.218,48.47a4.044,4.044,0,1,1-4.044-4.044,4.044,4.044,0,0,1,4.044,4.044" transform="translate(-276.309 -27.701)" fill="#455a64"/>
        <path id="Trazado_227521" data-name="Trazado 227521" d="M239.681,22.177a1.983,1.983,0,0,0,.958-.343,1.814,1.814,0,0,0,.678-1,2.931,2.931,0,0,0,.06-.789q0-.433,0-.919c.012-2.617.029-6.372.051-11q.011-1.743.023-3.646.007-.951.014-1.94a5.518,5.518,0,0,0-.032-.966A1.646,1.646,0,0,0,241,.753a1.554,1.554,0,0,0-.822-.438,8.065,8.065,0,0,0-1.021-.021l-2.15.014-4.488.029-19.983.11a1.629,1.629,0,0,0-1.577,1.5q-.016,1.306-.032,2.595-.026,2.589-.051,5.1c-.035,3.342-.069,6.566-.1,9.638q-.006.576-.013,1.144a1.714,1.714,0,0,0,.248,1,1.561,1.561,0,0,0,.768.636,2.708,2.708,0,0,0,1.031.1l4.234-.012,7.6-.016h11l2.991.017.778.013a1.56,1.56,0,0,1,.265.016,1.527,1.527,0,0,1-.265.019l-.778.021-2.991.046-11,.107-7.6.058-4.233.029a2.966,2.966,0,0,1-1.14-.115,1.863,1.863,0,0,1-.921-.757,2.019,2.019,0,0,1-.3-1.161q0-.568.009-1.144c.026-3.072.053-6.3.082-9.638q.023-2.507.046-5.1.016-1.3.032-2.621A1.97,1.97,0,0,1,212.537.107L232.519.024l4.488-.015L239.157,0a7.9,7.9,0,0,1,1.075.03,1.838,1.838,0,0,1,.971.522,1.931,1.931,0,0,1,.5.957,5.654,5.654,0,0,1,.033,1.024q-.012.988-.024,1.94-.024,1.9-.046,3.646c-.067,4.632-.121,8.386-.159,11q-.008.486-.017.919a3.012,3.012,0,0,1-.079.814,1.872,1.872,0,0,1-.737,1.033,1.706,1.706,0,0,1-.731.28.992.992,0,0,1-.267.007" transform="translate(-131.224 0)" fill="#5573c6"/>
        <path id="Trazado_227522" data-name="Trazado 227522" d="M248.748,21.14l3.715,2.231-3.773,2.238-3.773,2.238.058-4.469.058-4.469Z" transform="translate(-152.715 -11.791)" fill="#5573c6"/>
      </g>
    </g>
  </g>
</svg>
