<svg id="Grupo_981156" data-name="Grupo 981156" xmlns="http://www.w3.org/2000/svg" xmlns:xlink="http://www.w3.org/1999/xlink" width="223.656" height="265.659" viewBox="0 0 223.656 265.659">
  <defs>
    <clipPath id="clip-path">
      <rect id="Rectángulo_59013" data-name="Rectángulo 59013" width="223.656" height="265.659" fill="none"/>
    </clipPath>
    <clipPath id="clip-path-3">
      <rect id="Rectángulo_58985" data-name="Rectángulo 58985" width="195.833" height="124.65" fill="none"/>
    </clipPath>
    <clipPath id="clip-path-4">
      <rect id="Rectángulo_58986" data-name="Rectángulo 58986" width="194.003" height="112.259" fill="none"/>
    </clipPath>
    <clipPath id="clip-path-5">
      <rect id="Rectángulo_58987" data-name="Rectángulo 58987" width="15.753" height="17.767" fill="none"/>
    </clipPath>
    <clipPath id="clip-path-7">
      <rect id="Rectángulo_58989" data-name="Rectángulo 58989" width="15.753" height="17.766" fill="none"/>
    </clipPath>
    <clipPath id="clip-path-9">
      <rect id="Rectángulo_58991" data-name="Rectángulo 58991" width="15.755" height="17.766" fill="none"/>
    </clipPath>
    <clipPath id="clip-path-12">
      <rect id="Rectángulo_58994" data-name="Rectángulo 58994" width="91.144" height="189.67" fill="none"/>
    </clipPath>
    <clipPath id="clip-path-13">
      <rect id="Rectángulo_58995" data-name="Rectángulo 58995" width="93.186" height="53.967" fill="none"/>
    </clipPath>
    <clipPath id="clip-path-14">
      <rect id="Rectángulo_58996" data-name="Rectángulo 58996" width="5.027" height="15.911" fill="none"/>
    </clipPath>
    <clipPath id="clip-path-15">
      <rect id="Rectángulo_58997" data-name="Rectángulo 58997" width="40.186" height="24.304" fill="none"/>
    </clipPath>
    <clipPath id="clip-path-16">
      <rect id="Rectángulo_58998" data-name="Rectángulo 58998" width="9.458" height="6.559" fill="none"/>
    </clipPath>
    <clipPath id="clip-path-18">
      <rect id="Rectángulo_59000" data-name="Rectángulo 59000" width="9.458" height="6.558" fill="none"/>
    </clipPath>
    <clipPath id="clip-path-22">
      <rect id="Rectángulo_59004" data-name="Rectángulo 59004" width="11.65" height="7.801" fill="none"/>
    </clipPath>
    <clipPath id="clip-path-26">
      <rect id="Rectángulo_59008" data-name="Rectángulo 59008" width="10.449" height="22.52" fill="none"/>
    </clipPath>
    <clipPath id="clip-path-27">
      <rect id="Rectángulo_59009" data-name="Rectángulo 59009" width="16.584" height="25.214" fill="none"/>
    </clipPath>
    <clipPath id="clip-path-28">
      <rect id="Rectángulo_59010" data-name="Rectángulo 59010" width="9.935" height="15.363" fill="none"/>
    </clipPath>
    <clipPath id="clip-path-29">
      <rect id="Rectángulo_59011" data-name="Rectángulo 59011" width="16.07" height="16.605" fill="none"/>
    </clipPath>
  </defs>
  <g id="Grupo_182729" data-name="Grupo 182729" clip-path="url(#clip-path)">
    <g id="Grupo_182714" data-name="Grupo 182714">
      <g id="Grupo_182713" data-name="Grupo 182713" clip-path="url(#clip-path)">
        <path id="Trazado_235743" data-name="Trazado 235743" d="M215.743,264.338a1.441,1.441,0,0,1-.709-.213L28.656,156.432a5.923,5.923,0,0,1-2.644-4.567V11.044c0-.985.416-1.573,1.111-1.573a2.151,2.151,0,0,1,1.044.33L214.549,117.446a5.936,5.936,0,0,1,2.642,4.572V262.137a2.86,2.86,0,0,1-.458,1.609,1.232,1.232,0,0,1-.99.591" transform="translate(2.293 0.835)" fill="#fafafa"/>
        <path id="Trazado_235744" data-name="Trazado 235744" d="M204.7,252.844c-.312.165-2.553,1.444-3.535,2a2.935,2.935,0,0,0,1.061-2.42V121.738l3.689-2.16V250.342a2.8,2.8,0,0,1-1.214,2.5" transform="translate(17.737 10.543)" fill="#ebebeb"/>
        <path id="Trazado_235745" data-name="Trazado 235745" d="M27.162,10a1.641,1.641,0,0,1,.8.263L214.347,117.906a5.388,5.388,0,0,1,2.4,4.15v140.12c0,.913-.448,1.714-.96,1.714a.961.961,0,0,1-.466-.148L28.937,156.048a5.372,5.372,0,0,1-2.4-4.144V11.083c0-.4.081-1.085.622-1.085m0-.973c-.946,0-1.6.754-1.6,2.058V151.9a6.357,6.357,0,0,0,2.885,4.987L214.83,264.585a1.9,1.9,0,0,0,.952.279c1.126,0,1.933-1.234,1.933-2.687V122.056a6.37,6.37,0,0,0-2.881-4.991L28.45,9.419a2.608,2.608,0,0,0-1.287-.394" transform="translate(2.254 0.796)" fill="#e0e0e0"/>
        <path id="Trazado_235746" data-name="Trazado 235746" d="M25.569,11.195v9.611L217.713,131.764l3.689-2.147v-9.488a5.978,5.978,0,0,0-.876-2.883,5.8,5.8,0,0,0-2.007-2.1L32.132,7.5a2.058,2.058,0,0,0-2.1-.166c-.526.324-3.05,1.761-3.567,2.024a.97.97,0,0,0-.219.149,1.4,1.4,0,0,0-.227.227,1.576,1.576,0,0,0-.184.289,1.364,1.364,0,0,0-.14.35,1.874,1.874,0,0,0-.088.394v.018a3,3,0,0,0-.035.411" transform="translate(2.254 0.627)" fill="#27debf"/>
        <g id="Grupo_182649" data-name="Grupo 182649" transform="translate(27.823 7.741)" opacity="0.15">
          <g id="Grupo_182648" data-name="Grupo 182648">
            <g id="Grupo_182647" data-name="Grupo 182647" clip-path="url(#clip-path-3)">
              <path id="Trazado_235747" data-name="Trazado 235747" d="M25.569,11.195v9.611L217.713,131.764l3.689-2.147v-9.488a5.978,5.978,0,0,0-.876-2.883,5.8,5.8,0,0,0-2.007-2.1L32.132,7.5a2.058,2.058,0,0,0-2.1-.166c-.526.324-3.05,1.761-3.567,2.024a.97.97,0,0,0-.219.149,1.4,1.4,0,0,0-.227.227,1.576,1.576,0,0,0-.184.289,1.364,1.364,0,0,0-.14.35,1.874,1.874,0,0,0-.088.394v.018a3,3,0,0,0-.035.411" transform="translate(-25.569 -7.114)"/>
            </g>
          </g>
        </g>
        <path id="Trazado_235748" data-name="Trazado 235748" d="M25.569,11.026v9.611L217.713,131.6v-9.54a5.108,5.108,0,0,0-.35-1.788c-.036-.1-.071-.2-.114-.3a7.258,7.258,0,0,0-.394-.779,5.784,5.784,0,0,0-2.024-2.13L28.452,9.422a1.911,1.911,0,0,0-2.208-.087,1.4,1.4,0,0,0-.227.227,1.576,1.576,0,0,0-.184.289,1.364,1.364,0,0,0-.14.35,1.874,1.874,0,0,0-.088.394v.018a3,3,0,0,0-.035.411" transform="translate(2.254 0.796)" fill="#27debf"/>
        <path id="Trazado_235749" data-name="Trazado 235749" d="M43.5,21.505a4.745,4.745,0,0,1,1.8,3.809c0,1.53-.805,2.3-1.8,1.731a4.747,4.747,0,0,1-1.8-3.809c0-1.53.805-2.3,1.8-1.731" transform="translate(3.676 1.879)" fill="#fafafa"/>
        <path id="Trazado_235750" data-name="Trazado 235750" d="M37.545,18.062a4.745,4.745,0,0,1,1.8,3.809c0,1.53-.805,2.3-1.8,1.731a4.745,4.745,0,0,1-1.8-3.809c0-1.53.805-2.3,1.8-1.731" transform="translate(3.152 1.576)" fill="#fafafa"/>
        <path id="Trazado_235751" data-name="Trazado 235751" d="M31.593,14.619a4.745,4.745,0,0,1,1.8,3.809c0,1.53-.805,2.3-1.8,1.731a4.745,4.745,0,0,1-1.8-3.809c0-1.53.805-2.3,1.8-1.731" transform="translate(2.627 1.272)" fill="#fafafa"/>
        <path id="Trazado_235752" data-name="Trazado 235752" d="M28.372,9.585l186.38,107.647a5.919,5.919,0,0,1,2.031,2.138l3.663-2.12a5.742,5.742,0,0,0-2-2.1L32.053,7.5a2.031,2.031,0,0,0-2.094-.172c-.517.317-2.91,1.677-3.518,2a2.09,2.09,0,0,1,1.931.254" transform="translate(2.331 0.627)" fill="#27debf"/>
        <g id="Grupo_182652" data-name="Grupo 182652" transform="translate(28.773 7.739)" opacity="0.5">
          <g id="Grupo_182651" data-name="Grupo 182651">
            <g id="Grupo_182650" data-name="Grupo 182650" clip-path="url(#clip-path-4)">
              <path id="Trazado_235753" data-name="Trazado 235753" d="M28.372,9.585l186.38,107.647a5.919,5.919,0,0,1,2.031,2.138l3.663-2.12a5.742,5.742,0,0,0-2-2.1L32.053,7.5a2.031,2.031,0,0,0-2.094-.172c-.517.317-2.91,1.677-3.518,2a2.09,2.09,0,0,1,1.931.254" transform="translate(-26.442 -7.112)" fill="#fff"/>
            </g>
          </g>
        </g>
        <path id="Trazado_235754" data-name="Trazado 235754" d="M159.367,126.9a.258.258,0,0,0,.258-.259V115.657a.258.258,0,1,0-.516,0v10.981a.258.258,0,0,0,.258.259" transform="translate(14.029 10.175)" fill="#455a64"/>
        <path id="Trazado_235755" data-name="Trazado 235755" d="M160.293,124.782l-.876.876-.875-.876v.743l.875.876.876-.876Z" transform="translate(13.979 11.002)" fill="#455a64"/>
        <path id="Trazado_235756" data-name="Trazado 235756" d="M151.384,127.448a.259.259,0,0,0,.13-.482l-7.231-4.174a.258.258,0,1,0-.258.447l7.231,4.174a.251.251,0,0,0,.128.035" transform="translate(12.687 10.823)" fill="#455a64"/>
        <path id="Trazado_235757" data-name="Trazado 235757" d="M144.626,124.316l-.321-1.2,1.2-.321-.644-.371-1.2.32.32,1.2Z" transform="translate(12.667 10.794)" fill="#455a64"/>
        <path id="Trazado_235758" data-name="Trazado 235758" d="M152.613,180.463a.255.255,0,0,0,.223-.129.258.258,0,0,0-.094-.353l-7.231-4.175a.259.259,0,0,0-.258.448l7.231,4.174a.251.251,0,0,0,.128.035" transform="translate(12.796 15.498)" fill="#455a64"/>
        <path id="Trazado_235759" data-name="Trazado 235759" d="M145.856,177.331l-.321-1.2,1.2-.321-.644-.371-1.2.32.32,1.2Z" transform="translate(12.775 15.469)" fill="#455a64"/>
        <path id="Trazado_235760" data-name="Trazado 235760" d="M128.495,166.538a.258.258,0,0,0,.128-.482l-7.23-4.175a.259.259,0,0,0-.258.448l7.231,4.174a.251.251,0,0,0,.128.035" transform="translate(10.669 14.27)" fill="#455a64"/>
        <path id="Trazado_235761" data-name="Trazado 235761" d="M121.738,163.407l-.321-1.2,1.2-.321-.644-.371-1.2.32.32,1.2Z" transform="translate(10.649 14.241)" fill="#455a64"/>
        <path id="Trazado_235762" data-name="Trazado 235762" d="M126.947,113.34a.259.259,0,0,0,.129-.482l-7.231-4.175a.259.259,0,0,0-.258.448l7.231,4.174a.251.251,0,0,0,.128.035" transform="translate(10.533 9.58)" fill="#455a64"/>
        <path id="Trazado_235763" data-name="Trazado 235763" d="M120.189,110.208l-.321-1.2,1.2-.321-.644-.371-1.2.32.32,1.2Z" transform="translate(10.512 9.551)" fill="#455a64"/>
        <path id="Trazado_235764" data-name="Trazado 235764" d="M127.383,140a.259.259,0,0,0,.13-.482l-7.231-4.175a.259.259,0,0,0-.258.448l7.231,4.174a.251.251,0,0,0,.128.035" transform="translate(10.571 11.93)" fill="#455a64"/>
        <path id="Trazado_235765" data-name="Trazado 235765" d="M126.431,138.216l.321,1.2-1.2.321.644.371,1.2-.32-.32-1.2Z" transform="translate(11.07 12.186)" fill="#455a64"/>
        <path id="Trazado_235766" data-name="Trazado 235766" d="M127.766,189.555a.258.258,0,0,0,.128-.482l-6.752-3.9a.258.258,0,1,0-.258.447l6.753,3.9a.251.251,0,0,0,.128.035" transform="translate(10.647 16.324)" fill="#455a64"/>
        <path id="Trazado_235767" data-name="Trazado 235767" d="M126.853,187.791l.321,1.2-1.2.321.644.371,1.2-.32-.32-1.2Z" transform="translate(11.107 16.557)" fill="#455a64"/>
        <path id="Trazado_235768" data-name="Trazado 235768" d="M151.268,153.793a.259.259,0,0,0,.13-.482l-7.231-4.175a.259.259,0,0,0-.258.448l7.231,4.174a.251.251,0,0,0,.128.035" transform="translate(12.677 13.146)" fill="#455a64"/>
        <path id="Trazado_235769" data-name="Trazado 235769" d="M150.315,152.006l.321,1.2-1.2.32.644.372,1.2-.32-.32-1.2Z" transform="translate(13.176 13.402)" fill="#455a64"/>
        <path id="Trazado_235770" data-name="Trazado 235770" d="M112.883,122.689a.258.258,0,0,0,.258-.259v-8.371a.258.258,0,0,0-.516,0v8.371a.258.258,0,0,0,.258.259" transform="translate(9.93 10.034)" fill="#455a64"/>
        <path id="Trazado_235771" data-name="Trazado 235771" d="M113.808,120.786l-.876.876-.875-.876v.743l.875.876.876-.876Z" transform="translate(9.88 10.65)" fill="#455a64"/>
        <path id="Trazado_235772" data-name="Trazado 235772" d="M163.465,173.842a.259.259,0,0,0,.258-.259v-6.158a.258.258,0,1,0-.516,0v5.712L113.14,144.23V140.4a.258.258,0,1,0-.516,0v3.976a.257.257,0,0,0,.129.224l50.582,29.2a.263.263,0,0,0,.129.035" transform="translate(9.93 12.356)" fill="#455a64"/>
        <path id="Trazado_235773" data-name="Trazado 235773" d="M158.542,166.291l.876-.876.875.876v-.743l-.875-.876-.876.876Z" transform="translate(13.979 14.519)" fill="#455a64"/>
        <path id="Trazado_235774" data-name="Trazado 235774" d="M163.465,200.268a.259.259,0,0,0,.258-.259v-3.976a.258.258,0,0,0-.516,0v3.53L113.14,170.657v-6.009a.258.258,0,1,0-.516,0v6.158a.259.259,0,0,0,.129.224l50.582,29.2a.262.262,0,0,0,.129.035" transform="translate(9.93 14.494)" fill="#455a64"/>
        <path id="Trazado_235775" data-name="Trazado 235775" d="M112.057,165.7l.876-.876.875.876v-.743l-.875-.876-.876.876Z" transform="translate(9.88 14.467)" fill="#455a64"/>
        <path id="Trazado_235776" data-name="Trazado 235776" d="M170.266,192.914a.259.259,0,0,0,.258-.258V164.479a.259.259,0,0,0-.129-.224l-2.735-1.579a.259.259,0,0,0-.258.448l2.606,1.5v27.581l-2.87-1.657a.258.258,0,0,0-.258.447l3.257,1.88a.256.256,0,0,0,.128.035" transform="translate(14.702 14.34)" fill="#455a64"/>
        <path id="Trazado_235777" data-name="Trazado 235777" d="M167.483,189.818l-.321-1.2,1.2-.321-.644-.371-1.2.32.32,1.2Z" transform="translate(14.682 16.57)" fill="#455a64"/>
        <path id="Trazado_235778" data-name="Trazado 235778" d="M104.1,177.958a.258.258,0,0,0,.128-.482L101.5,175.9V150.994l2.348,1.356a.258.258,0,1,0,.258-.446l-2.735-1.58a.258.258,0,0,0-.387.223v25.5a.256.256,0,0,0,.129.223l2.854,1.649a.251.251,0,0,0,.128.035" transform="translate(8.904 13.251)" fill="#455a64"/>
        <path id="Trazado_235779" data-name="Trazado 235779" d="M103.5,174.309l.321,1.2-1.2.321.644.371,1.2-.32-.32-1.2Z" transform="translate(9.049 15.369)" fill="#455a64"/>
        <path id="Trazado_235780" data-name="Trazado 235780" d="M152.175,105.437c0,2.924,3.494,7.311,7.8,9.8s7.8,2.135,7.8-.789-3.494-7.311-7.8-9.8-7.8-2.135-7.8.789" transform="translate(13.417 9.081)" fill="#27debf"/>
        <path id="Trazado_235781" data-name="Trazado 235781" d="M128.628,189.983c0,2.924,3.494,7.311,7.8,9.8s7.8,2.136,7.8-.788-3.494-7.312-7.8-9.8-7.8-2.136-7.8.788" transform="translate(11.341 16.535)" fill="#27debf"/>
        <path id="Trazado_235782" data-name="Trazado 235782" d="M152.877,133.082l14.215,8.207c.425.246.77-.015.77-.582v-7.321a1.844,1.844,0,0,0-.77-1.471l-14.215-8.207c-.425-.245-.769.015-.769.582v7.321a1.844,1.844,0,0,0,.769,1.471" transform="translate(13.411 10.899)" fill="#27debf"/>
        <g id="Grupo_182655" data-name="Grupo 182655" transform="translate(165.519 134.514)" opacity="0.6">
          <g id="Grupo_182654" data-name="Grupo 182654">
            <g id="Grupo_182653" data-name="Grupo 182653" clip-path="url(#clip-path-5)">
              <path id="Trazado_235783" data-name="Trazado 235783" d="M152.877,133.082l14.215,8.207c.425.246.77-.015.77-.582v-7.321a1.844,1.844,0,0,0-.77-1.471l-14.215-8.207c-.425-.245-.769.015-.769.582v7.321a1.844,1.844,0,0,0,.769,1.471" transform="translate(-152.108 -123.615)" fill="#fff"/>
            </g>
          </g>
        </g>
        <path id="Trazado_235784" data-name="Trazado 235784" d="M129.33,119.487l14.215,8.207c.425.246.77-.015.77-.582v-7.321a1.844,1.844,0,0,0-.77-1.471l-14.215-8.207c-.425-.245-.769.015-.769.582v7.321a1.844,1.844,0,0,0,.769,1.471" transform="translate(11.335 9.7)" fill="#27debf"/>
        <g id="Grupo_182658" data-name="Grupo 182658" transform="translate(139.896 119.72)" opacity="0.6">
          <g id="Grupo_182657" data-name="Grupo 182657">
            <g id="Grupo_182656" data-name="Grupo 182656" clip-path="url(#clip-path-5)">
              <path id="Trazado_235785" data-name="Trazado 235785" d="M129.33,119.487l14.215,8.207c.425.246.77-.015.77-.582v-7.321a1.844,1.844,0,0,0-.77-1.471l-14.215-8.207c-.425-.245-.769.015-.769.582v7.321a1.844,1.844,0,0,0,.769,1.471" transform="translate(-128.561 -110.02)" fill="#fff"/>
            </g>
          </g>
        </g>
        <path id="Trazado_235786" data-name="Trazado 235786" d="M129.33,145.9l14.215,8.207c.425.246.77-.015.77-.582V146.2a1.844,1.844,0,0,0-.77-1.471l-14.215-8.207c-.425-.245-.769.015-.769.582v7.321a1.844,1.844,0,0,0,.769,1.471" transform="translate(11.335 12.029)" fill="#27debf"/>
        <g id="Grupo_182661" data-name="Grupo 182661" transform="translate(139.896 148.461)" opacity="0.6">
          <g id="Grupo_182660" data-name="Grupo 182660">
            <g id="Grupo_182659" data-name="Grupo 182659" clip-path="url(#clip-path-7)">
              <path id="Trazado_235787" data-name="Trazado 235787" d="M129.33,145.9l14.215,8.207c.425.246.77-.015.77-.582V146.2a1.844,1.844,0,0,0-.77-1.471l-14.215-8.207c-.425-.245-.769.015-.769.582v7.321a1.844,1.844,0,0,0,.769,1.471" transform="translate(-128.561 -136.432)" fill="#fff"/>
            </g>
          </g>
        </g>
        <path id="Trazado_235788" data-name="Trazado 235788" d="M129.33,171.792,143.545,180c.425.246.77-.015.77-.582V172.1a1.845,1.845,0,0,0-.77-1.471l-14.215-8.207c-.425-.245-.769.015-.769.582v7.321a1.844,1.844,0,0,0,.769,1.471" transform="translate(11.335 14.312)" fill="#27debf"/>
        <g id="Grupo_182664" data-name="Grupo 182664" transform="translate(139.896 176.637)" opacity="0.6">
          <g id="Grupo_182663" data-name="Grupo 182663">
            <g id="Grupo_182662" data-name="Grupo 182662" clip-path="url(#clip-path-7)">
              <path id="Trazado_235789" data-name="Trazado 235789" d="M129.33,171.792,143.545,180c.425.246.77-.015.77-.582V172.1a1.845,1.845,0,0,0-.77-1.471l-14.215-8.207c-.425-.245-.769.015-.769.582v7.321a1.844,1.844,0,0,0,.769,1.471" transform="translate(-128.561 -162.325)" fill="#fff"/>
            </g>
          </g>
        </g>
        <path id="Trazado_235790" data-name="Trazado 235790" d="M106.392,158.549l14.215,8.207c.425.246.77-.015.77-.582v-7.321a1.845,1.845,0,0,0-.77-1.471l-14.215-8.207c-.425-.245-.769.015-.769.582v7.322a1.843,1.843,0,0,0,.769,1.47" transform="translate(9.313 13.145)" fill="#27debf"/>
        <g id="Grupo_182667" data-name="Grupo 182667" transform="translate(114.936 162.226)" opacity="0.6">
          <g id="Grupo_182666" data-name="Grupo 182666">
            <g id="Grupo_182665" data-name="Grupo 182665" clip-path="url(#clip-path-9)">
              <path id="Trazado_235791" data-name="Trazado 235791" d="M106.392,158.549l14.215,8.207c.425.246.77-.015.77-.582v-7.321a1.845,1.845,0,0,0-.77-1.471l-14.215-8.207c-.425-.245-.769.015-.769.582v7.322a1.843,1.843,0,0,0,.769,1.47" transform="translate(-105.623 -149.082)" fill="#fff"/>
            </g>
          </g>
        </g>
        <path id="Trazado_235792" data-name="Trazado 235792" d="M106.392,181.986l14.215,8.207c.425.246.77-.015.77-.582V182.29a1.845,1.845,0,0,0-.77-1.471l-14.215-8.207c-.425-.245-.769.015-.769.582v7.321a1.844,1.844,0,0,0,.769,1.471" transform="translate(9.313 15.211)" fill="#27debf"/>
        <g id="Grupo_182670" data-name="Grupo 182670" transform="translate(114.936 187.73)" opacity="0.6">
          <g id="Grupo_182669" data-name="Grupo 182669">
            <g id="Grupo_182668" data-name="Grupo 182668" clip-path="url(#clip-path-9)">
              <path id="Trazado_235793" data-name="Trazado 235793" d="M106.392,181.986l14.215,8.207c.425.246.77-.015.77-.582V182.29a1.845,1.845,0,0,0-.77-1.471l-14.215-8.207c-.425-.245-.769.015-.769.582v7.321a1.844,1.844,0,0,0,.769,1.471" transform="translate(-105.623 -172.519)" fill="#fff"/>
            </g>
          </g>
        </g>
        <path id="Trazado_235794" data-name="Trazado 235794" d="M152.877,159.494l14.215,8.207c.425.246.77-.015.77-.582V159.8a1.844,1.844,0,0,0-.77-1.471l-14.215-8.207c-.425-.245-.769.015-.769.582v7.321a1.844,1.844,0,0,0,.769,1.471" transform="translate(13.411 13.228)" fill="#27debf"/>
        <g id="Grupo_182673" data-name="Grupo 182673" transform="translate(165.519 163.255)" opacity="0.6">
          <g id="Grupo_182672" data-name="Grupo 182672">
            <g id="Grupo_182671" data-name="Grupo 182671" clip-path="url(#clip-path-7)">
              <path id="Trazado_235795" data-name="Trazado 235795" d="M152.877,159.494l14.215,8.207c.425.246.77-.015.77-.582V159.8a1.844,1.844,0,0,0-.77-1.471l-14.215-8.207c-.425-.245-.769.015-.769.582v7.321a1.844,1.844,0,0,0,.769,1.471" transform="translate(-152.108 -150.027)" fill="#fff"/>
            </g>
          </g>
        </g>
        <path id="Trazado_235796" data-name="Trazado 235796" d="M114.141,113.472l6.011-8.4a2.3,2.3,0,0,0-.718-2.68l-12.023-6.941c-.758-.437-1.185.661-.718,1.851l6.012,15.339c.365.93,1.072,1.338,1.436.829" transform="translate(9.39 8.407)" fill="#455a64"/>
        <path id="Trazado_235797" data-name="Trazado 235797" d="M107.274,129.587l5.568,9.6c.323.557.766.813,1.089.629l5.568-3.173c.489-.277.489-1.406,0-2.249l-5.568-9.6c-.323-.557-.766-.813-1.089-.629l-5.568,3.173c-.489.279-.489,1.406,0,2.249" transform="translate(9.426 10.942)" fill="#f4a338"/>
        <path id="Trazado_235798" data-name="Trazado 235798" d="M153.759,182.318l5.568,9.6c.323.557.766.811,1.089.628l5.568-3.172c.489-.28.489-1.407,0-2.251l-5.568-9.6c-.323-.557-.766-.812-1.089-.628l-5.568,3.173c-.489.279-.489,1.4,0,2.249" transform="translate(13.525 15.592)" fill="#f4a338"/>
        <path id="Trazado_235799" data-name="Trazado 235799" d="M180.095,151.6a.258.258,0,0,0,.128-.482l-16.782-9.689a.256.256,0,0,0-.353.095.258.258,0,0,0,.095.353l16.783,9.689a.251.251,0,0,0,.128.035" transform="translate(14.376 12.467)" fill="#455a64"/>
        <path id="Trazado_235800" data-name="Trazado 235800" d="M180.095,153.837a.258.258,0,0,0,.128-.482l-16.782-9.689a.258.258,0,1,0-.258.447l16.783,9.689a.251.251,0,0,0,.128.035" transform="translate(14.376 12.664)" fill="#e0e0e0"/>
        <path id="Trazado_235801" data-name="Trazado 235801" d="M180.095,156.073a.258.258,0,0,0,.128-.482L163.441,145.9a.258.258,0,1,0-.258.447l16.783,9.689a.251.251,0,0,0,.128.035" transform="translate(14.376 12.861)" fill="#e0e0e0"/>
        <path id="Trazado_235802" data-name="Trazado 235802" d="M180.095,158.31a.258.258,0,0,0,.128-.482l-16.782-9.69a.259.259,0,0,0-.258.448l16.783,9.689a.251.251,0,0,0,.128.035" transform="translate(14.376 13.058)" fill="#e0e0e0"/>
        <path id="Trazado_235803" data-name="Trazado 235803" d="M186.872,125.424a.258.258,0,0,0,.128-.482l-16.782-9.69a.259.259,0,0,0-.258.448l16.783,9.689a.251.251,0,0,0,.128.035" transform="translate(14.974 10.159)" fill="#455a64"/>
        <path id="Trazado_235804" data-name="Trazado 235804" d="M186.872,127.66a.258.258,0,0,0,.128-.482l-16.782-9.69a.259.259,0,0,0-.258.448l16.783,9.689a.251.251,0,0,0,.128.035" transform="translate(14.974 10.356)" fill="#e0e0e0"/>
        <path id="Trazado_235805" data-name="Trazado 235805" d="M186.872,129.9a.258.258,0,0,0,.128-.482l-16.782-9.69a.259.259,0,0,0-.258.448l16.783,9.689a.251.251,0,0,0,.128.035" transform="translate(14.974 10.553)" fill="#e0e0e0"/>
        <path id="Trazado_235806" data-name="Trazado 235806" d="M186.872,132.133a.258.258,0,0,0,.128-.482l-16.782-9.69a.259.259,0,0,0-.258.448l16.783,9.689a.251.251,0,0,0,.128.035" transform="translate(14.974 10.75)" fill="#e0e0e0"/>
        <path id="Trazado_235807" data-name="Trazado 235807" d="M144.892,131a.254.254,0,0,0,.223-.13.258.258,0,0,0-.094-.353l-16.783-9.689a.258.258,0,0,0-.258.447l16.783,9.689a.251.251,0,0,0,.128.035" transform="translate(11.273 10.651)" fill="#455a64"/>
        <path id="Trazado_235808" data-name="Trazado 235808" d="M144.892,133.238a.254.254,0,0,0,.223-.129.258.258,0,0,0-.094-.353l-16.783-9.689a.258.258,0,1,0-.258.447l16.783,9.689a.251.251,0,0,0,.128.035" transform="translate(11.273 10.848)" fill="#e0e0e0"/>
        <path id="Trazado_235809" data-name="Trazado 235809" d="M144.892,135.475a.254.254,0,0,0,.223-.129.258.258,0,0,0-.094-.353l-16.783-9.69a.259.259,0,0,0-.258.448l16.783,9.689a.251.251,0,0,0,.128.035" transform="translate(11.273 11.045)" fill="#e0e0e0"/>
        <path id="Trazado_235810" data-name="Trazado 235810" d="M144.892,137.711a.254.254,0,0,0,.223-.129.258.258,0,0,0-.094-.353l-16.783-9.69a.259.259,0,0,0-.258.448l16.783,9.689a.251.251,0,0,0,.128.035" transform="translate(11.273 11.242)" fill="#e0e0e0"/>
        <path id="Trazado_235811" data-name="Trazado 235811" d="M122.579,92.756a.258.258,0,0,0,.128-.482l-16.782-9.689a.258.258,0,0,0-.258.447l16.782,9.689a.257.257,0,0,0,.129.035" transform="translate(9.305 7.278)" fill="#455a64"/>
        <path id="Trazado_235812" data-name="Trazado 235812" d="M122.579,94.993a.258.258,0,0,0,.128-.482l-16.782-9.689a.258.258,0,0,0-.258.447l16.782,9.689a.257.257,0,0,0,.129.035" transform="translate(9.305 7.476)" fill="#e0e0e0"/>
        <path id="Trazado_235813" data-name="Trazado 235813" d="M122.579,97.229a.258.258,0,0,0,.128-.482l-16.782-9.689a.258.258,0,0,0-.258.447l16.782,9.689a.257.257,0,0,0,.129.035" transform="translate(9.305 7.673)" fill="#e0e0e0"/>
        <path id="Trazado_235814" data-name="Trazado 235814" d="M122.579,99.465a.258.258,0,0,0,.128-.482l-16.782-9.689a.258.258,0,0,0-.258.447l16.782,9.689a.257.257,0,0,0,.129.035" transform="translate(9.305 7.87)" fill="#e0e0e0"/>
        <path id="Trazado_235815" data-name="Trazado 235815" d="M108.288,117.8a.255.255,0,0,0,.223-.13.258.258,0,0,0-.094-.353l-16.783-9.689a.258.258,0,1,0-.258.447l16.783,9.689a.251.251,0,0,0,.128.035" transform="translate(8.045 9.486)" fill="#455a64"/>
        <path id="Trazado_235816" data-name="Trazado 235816" d="M108.288,120.034a.255.255,0,0,0,.223-.129.258.258,0,0,0-.094-.353l-16.783-9.689a.258.258,0,1,0-.258.447L108.159,120a.251.251,0,0,0,.128.035" transform="translate(8.045 9.683)" fill="#e0e0e0"/>
        <path id="Trazado_235817" data-name="Trazado 235817" d="M108.288,122.271a.255.255,0,0,0,.223-.129.258.258,0,0,0-.094-.353L91.634,112.1a.259.259,0,0,0-.258.448l16.783,9.689a.251.251,0,0,0,.128.035" transform="translate(8.045 9.881)" fill="#e0e0e0"/>
        <path id="Trazado_235818" data-name="Trazado 235818" d="M108.288,124.507a.255.255,0,0,0,.223-.13.258.258,0,0,0-.094-.353l-16.783-9.69a.259.259,0,0,0-.258.448l16.783,9.689a.251.251,0,0,0,.128.035" transform="translate(8.045 10.078)" fill="#e0e0e0"/>
        <path id="Trazado_235819" data-name="Trazado 235819" d="M108.288,140.037a.255.255,0,0,0,.223-.13.258.258,0,0,0-.094-.353l-16.783-9.69a.259.259,0,0,0-.258.448L108.159,140a.251.251,0,0,0,.128.035" transform="translate(8.045 11.447)" fill="#455a64"/>
        <path id="Trazado_235820" data-name="Trazado 235820" d="M108.288,142.273a.259.259,0,0,0,.129-.482L91.634,132.1a.259.259,0,0,0-.258.448l16.783,9.689a.251.251,0,0,0,.128.035" transform="translate(8.045 11.644)" fill="#e0e0e0"/>
        <path id="Trazado_235821" data-name="Trazado 235821" d="M108.288,144.51a.255.255,0,0,0,.223-.129.258.258,0,0,0-.094-.353l-16.783-9.69a.259.259,0,0,0-.258.448l16.783,9.689a.251.251,0,0,0,.128.035" transform="translate(8.045 11.841)" fill="#e0e0e0"/>
        <path id="Trazado_235822" data-name="Trazado 235822" d="M108.288,146.746a.255.255,0,0,0,.223-.129.258.258,0,0,0-.094-.353l-16.783-9.69a.259.259,0,0,0-.258.448l16.783,9.689a.251.251,0,0,0,.128.035" transform="translate(8.045 12.039)" fill="#e0e0e0"/>
        <path id="Trazado_235823" data-name="Trazado 235823" d="M180.856,202.09a.258.258,0,0,0,.128-.482l-16.782-9.69a.259.259,0,0,0-.258.448l16.783,9.689a.251.251,0,0,0,.128.035" transform="translate(14.444 16.918)" fill="#455a64"/>
        <path id="Trazado_235824" data-name="Trazado 235824" d="M180.856,204.327a.258.258,0,0,0,.128-.482l-16.782-9.69a.259.259,0,0,0-.258.448l16.783,9.689a.251.251,0,0,0,.128.035" transform="translate(14.444 17.116)" fill="#e0e0e0"/>
        <path id="Trazado_235825" data-name="Trazado 235825" d="M180.856,206.563a.258.258,0,0,0,.128-.482l-16.782-9.69a.257.257,0,0,0-.353.095.259.259,0,0,0,.095.354l16.783,9.689a.25.25,0,0,0,.128.035" transform="translate(14.444 17.313)" fill="#e0e0e0"/>
        <path id="Trazado_235826" data-name="Trazado 235826" d="M180.856,208.8a.258.258,0,0,0,.128-.482L164.2,198.628a.258.258,0,1,0-.258.447l16.783,9.689a.25.25,0,0,0,.128.035" transform="translate(14.444 17.51)" fill="#e0e0e0"/>
        <path id="Trazado_235827" data-name="Trazado 235827" d="M.008,34.873,0,167.55a7.04,7.04,0,0,0,3.188,5.518l84.767,48.923a2.057,2.057,0,0,0,1.057.3,1.742,1.742,0,0,0,.407-.053,1.15,1.15,0,0,0,.272-.094c.063-.03.115-.063.168-.094s.125-.083.187-.126a1.22,1.22,0,0,0,.178-.156,2.516,2.516,0,0,0,.585-.837,3.985,3.985,0,0,0,.334-1.609V87.445a7.054,7.054,0,0,0-3.188-5.518L3.188,33.055a2.318,2.318,0,0,0-2.143-.272,1.289,1.289,0,0,0-.272.166,2.252,2.252,0,0,0-.766,1.924" transform="translate(0 2.877)" fill="#455a64"/>
        <path id="Trazado_235828" data-name="Trazado 235828" d="M1.774,33.714A1.81,1.81,0,0,1,2.644,34L87.412,82.869a6.032,6.032,0,0,1,2.643,4.576V219.327a2.883,2.883,0,0,1-.238,1.162,1.425,1.425,0,0,1-.328.481l-.056.051-.013.015-.017.014-.048.032-.078.052a.568.568,0,0,1-.1.049.864.864,0,0,1-.206.025,1,1,0,0,1-.467-.159L3.731,172.126a5.937,5.937,0,0,1-2.643-4.576L1.095,34.873c0-.779.3-1.032.338-1.06a.3.3,0,0,1,.076-.046.607.607,0,0,1,.264-.053m0-1.088a1.683,1.683,0,0,0-.729.158,1.3,1.3,0,0,0-.272.164,2.257,2.257,0,0,0-.766,1.925L0,167.55a7.041,7.041,0,0,0,3.187,5.518l84.768,48.923a2.075,2.075,0,0,0,1.011.3h.045a1.792,1.792,0,0,0,.407-.052,1.2,1.2,0,0,0,.272-.094c.063-.032.115-.063.168-.095l.188-.125a1.353,1.353,0,0,0,.177-.157,2.507,2.507,0,0,0,.585-.837,3.988,3.988,0,0,0,.334-1.609V87.445a7.057,7.057,0,0,0-3.187-5.518L3.187,33.055a2.9,2.9,0,0,0-1.414-.429" transform="translate(0 2.877)" fill="#455a64"/>
        <g id="Grupo_182676" data-name="Grupo 182676" transform="translate(0 35.503)" opacity="0.8">
          <g id="Grupo_182675" data-name="Grupo 182675">
            <g id="Grupo_182674" data-name="Grupo 182674" clip-path="url(#clip-path-12)">
              <path id="Trazado_235829" data-name="Trazado 235829" d="M.008,34.873,0,167.55a7.04,7.04,0,0,0,3.188,5.518l84.767,48.923a2.057,2.057,0,0,0,1.057.3,1.742,1.742,0,0,0,.407-.053,1.15,1.15,0,0,0,.272-.094c.063-.03.115-.063.168-.094s.125-.083.187-.126a1.22,1.22,0,0,0,.178-.156,2.516,2.516,0,0,0,.585-.837,3.985,3.985,0,0,0,.334-1.609V87.445a7.054,7.054,0,0,0-3.188-5.518L3.188,33.055a2.318,2.318,0,0,0-2.143-.272,1.289,1.289,0,0,0-.272.166,2.252,2.252,0,0,0-.766,1.924" transform="translate(0 -32.626)" fill="#455a64"/>
            </g>
          </g>
        </g>
        <path id="Trazado_235830" data-name="Trazado 235830" d="M.961,32.97a2.312,2.312,0,0,1,2.143.272L87.872,82.113a7.056,7.056,0,0,1,3.186,5.518V98.042l4.065-2.383V85.322a7.03,7.03,0,0,0-3.175-5.508L7.168,30.943a2.213,2.213,0,0,0-2.309-.188c-.573.345-3.219,1.861-3.9,2.216" transform="translate(0.085 2.69)" fill="#27debf"/>
        <path id="Trazado_235831" data-name="Trazado 235831" d="M.007,34.873c.012-2.011,1.431-2.824,3.182-1.814l84.768,48.87a7.04,7.04,0,0,1,3.184,5.516l0,10.415L.007,45.325Z" transform="translate(0.001 2.877)" fill="#27debf"/>
        <g id="Grupo_182679" data-name="Grupo 182679" transform="translate(1.057 33.201)" opacity="0.4">
          <g id="Grupo_182678" data-name="Grupo 182678">
            <g id="Grupo_182677" data-name="Grupo 182677" clip-path="url(#clip-path-13)">
              <path id="Trazado_235832" data-name="Trazado 235832" d="M3.1,33.244l84.764,48.87a6.551,6.551,0,0,1,2.243,2.364l4.046-2.343a6.36,6.36,0,0,0-2.216-2.325L7.171,30.94a2.241,2.241,0,0,0-2.313-.189C4.287,31.1,1.642,32.6.972,32.964a2.306,2.306,0,0,1,2.133.281" transform="translate(-0.971 -30.511)" fill="#fff"/>
            </g>
          </g>
        </g>
        <g id="Grupo_182682" data-name="Grupo 182682" transform="translate(90.187 84.825)" opacity="0.15">
          <g id="Grupo_182681" data-name="Grupo 182681">
            <g id="Grupo_182680" data-name="Grupo 182680" clip-path="url(#clip-path-14)">
              <path id="Trazado_235833" data-name="Trazado 235833" d="M87.906,91.489l0-10.352a6.571,6.571,0,0,0-.97-3.185l-4.056,2.333a6.441,6.441,0,0,1,.951,3.164V93.863Z" transform="translate(-82.88 -77.952)"/>
            </g>
          </g>
        </g>
        <path id="Trazado_235834" data-name="Trazado 235834" d="M17.778,45.6a4.742,4.742,0,0,1,1.8,3.809c0,1.53-.805,2.3-1.8,1.731a4.748,4.748,0,0,1-1.8-3.809c0-1.531.805-2.3,1.8-1.731" transform="translate(1.409 4.004)" fill="#455a64"/>
        <path id="Trazado_235835" data-name="Trazado 235835" d="M11.825,42.159a4.745,4.745,0,0,1,1.8,3.809c0,1.53-.805,2.3-1.8,1.731a4.745,4.745,0,0,1-1.8-3.809c0-1.53.805-2.3,1.8-1.731" transform="translate(0.884 3.701)" fill="#455a64"/>
        <path id="Trazado_235836" data-name="Trazado 235836" d="M5.873,38.716a4.745,4.745,0,0,1,1.8,3.809c0,1.53-.805,2.3-1.8,1.731a4.745,4.745,0,0,1-1.8-3.809c0-1.53.805-2.3,1.8-1.731" transform="translate(0.359 3.397)" fill="#455a64"/>
        <path id="Trazado_235837" data-name="Trazado 235837" d="M82.683,216.91c.115-.073.25-.146.4-.23.293-.178.627-.367.983-.554l.01-.011c.178-.1.356-.209.533-.3a.08.08,0,0,1,.042-.022c.293-.166.575-.334.836-.481s.513-.292.7-.4.334-.187.4-.219a1.8,1.8,0,0,0,.543-.44,2.412,2.412,0,0,0,.429-.647,3.948,3.948,0,0,0,.366-1.683V90.38l-4.065,2.383V214.234a4.768,4.768,0,0,1-.335,1.609,2.507,2.507,0,0,1-.585.837.521.521,0,0,1-.177.157.233.233,0,0,1-.073.073" transform="translate(7.29 7.969)" fill="#37474f"/>
        <path id="Trazado_235838" data-name="Trazado 235838" d="M76.6,97.839a.351.351,0,0,1-.121.3l-1.7,1.556a.082.082,0,0,1-.077.015c-.023-.009-.037-.015-.044-.019a.351.351,0,0,1-.133-.163.546.546,0,0,1-.057-.238V98.11a1.064,1.064,0,0,1,.035-.326.452.452,0,0,1,.121-.182l.9-.824-.9-1.86a1.733,1.733,0,0,1-.121-.322,1.511,1.511,0,0,1-.035-.365V93.049a.226.226,0,0,1,.057-.172.1.1,0,0,1,.133-.01.469.469,0,0,1,.044.032.343.343,0,0,1,.077.1l1.7,3.519a.943.943,0,0,1,.121.442Z" transform="translate(6.566 8.186)" fill="#27debf"/>
        <path id="Trazado_235839" data-name="Trazado 235839" d="M73.7,101.015a.565.565,0,0,1,.016.128.231.231,0,0,1-.056.174.1.1,0,0,1-.134.01l-.613-.353a.64.64,0,0,1-.258-.284,1.561,1.561,0,0,1-.122-.335L69.624,87.929a.635.635,0,0,1-.016-.129.234.234,0,0,1,.055-.173.1.1,0,0,1,.134-.01l.639.369a.626.626,0,0,1,.25.27,1.781,1.781,0,0,1,.128.347Z" transform="translate(6.137 7.723)" fill="#27debf"/>
        <path id="Trazado_235840" data-name="Trazado 235840" d="M66.572,91.089a.353.353,0,0,1,.121-.3l1.7-1.556a.084.084,0,0,1,.077-.014.333.333,0,0,1,.042.019.346.346,0,0,1,.134.163.54.54,0,0,1,.056.237v1.183a1.1,1.1,0,0,1-.034.325.475.475,0,0,1-.121.183l-.9.824.9,1.859a1.814,1.814,0,0,1,.121.322,1.581,1.581,0,0,1,.034.366v1.182a.233.233,0,0,1-.056.174.1.1,0,0,1-.134.009l-.042-.032a.344.344,0,0,1-.077-.106l-1.7-3.517a.946.946,0,0,1-.121-.442Z" transform="translate(5.87 7.866)" fill="#27debf"/>
        <path id="Trazado_235841" data-name="Trazado 235841" d="M63.049,91.457a.429.429,0,0,1,.163.2.67.67,0,0,1,.07.292v1.3a.283.283,0,0,1-.07.213.124.124,0,0,1-.163.011l-.8-.464a.441.441,0,0,1-.164-.2.685.685,0,0,1-.069-.293v-1.3A.286.286,0,0,1,62.083,91a.127.127,0,0,1,.164-.012Z" transform="translate(5.468 8.021)" fill="#27debf"/>
        <path id="Trazado_235842" data-name="Trazado 235842" d="M60.584,90.034a.43.43,0,0,1,.163.2.67.67,0,0,1,.07.292v1.3a.284.284,0,0,1-.07.213.124.124,0,0,1-.163.011l-.8-.464a.439.439,0,0,1-.163-.2.671.671,0,0,1-.07-.293v-1.3a.282.282,0,0,1,.07-.212.125.125,0,0,1,.163-.011Z" transform="translate(5.25 7.895)" fill="#27debf"/>
        <path id="Trazado_235843" data-name="Trazado 235843" d="M58.118,88.611a.436.436,0,0,1,.163.2.667.667,0,0,1,.07.292v1.3a.28.28,0,0,1-.07.212.123.123,0,0,1-.163.012l-.8-.464a.441.441,0,0,1-.164-.2.687.687,0,0,1-.07-.293v-1.3a.286.286,0,0,1,.07-.212.127.127,0,0,1,.164-.012Z" transform="translate(5.033 7.77)" fill="#27debf"/>
        <path id="Trazado_235844" data-name="Trazado 235844" d="M80.289,107.928,25.4,76.24c-.464-.268-.84-.077-.84.425a1.8,1.8,0,0,0,.84,1.4l54.886,31.689c.464.268.84.077.84-.425a1.8,1.8,0,0,0-.84-1.4" transform="translate(2.166 6.711)" fill="#27debf"/>
        <path id="Trazado_235845" data-name="Trazado 235845" d="M68.7,121.31,13.814,89.622c-.464-.268-.84-.077-.84.425a1.8,1.8,0,0,0,.84,1.4L68.7,123.131c.464.268.84.077.84-.425a1.8,1.8,0,0,0-.84-1.4" transform="translate(1.144 7.891)" fill="#f4a338"/>
        <path id="Trazado_235846" data-name="Trazado 235846" d="M67.04,127.043,32.647,107.195c-.464-.268-.84-.078-.84.424a1.806,1.806,0,0,0,.84,1.4L67.04,128.864c.464.268.84.077.84-.425a1.8,1.8,0,0,0-.84-1.4" transform="translate(2.804 9.441)" fill="#f4a338"/>
        <path id="Trazado_235847" data-name="Trazado 235847" d="M67.04,133.734,32.647,113.886c-.464-.268-.84-.078-.84.424a1.806,1.806,0,0,0,.84,1.4L67.04,135.555c.464.268.84.077.84-.425a1.8,1.8,0,0,0-.84-1.4" transform="translate(2.804 10.031)" fill="#f4a338"/>
        <path id="Trazado_235848" data-name="Trazado 235848" d="M23.68,75.247,8.02,66.173c-.465-.269-.84-.078-.84.424a1.8,1.8,0,0,0,.84,1.4l15.66,9.075c.464.268.84.077.84-.425a1.8,1.8,0,0,0-.84-1.4" transform="translate(0.633 5.824)" fill="#27debf"/>
        <path id="Trazado_235849" data-name="Trazado 235849" d="M66.762,173.8,25.4,149.837c-.464-.268-.84-.077-.84.425a1.8,1.8,0,0,0,.84,1.4l41.359,23.958c.464.268.84.077.84-.425a1.8,1.8,0,0,0-.84-1.4" transform="translate(2.166 13.2)" fill="#27debf"/>
        <path id="Trazado_235850" data-name="Trazado 235850" d="M23.68,148.844,8.02,139.769c-.465-.268-.84-.077-.84.425a1.8,1.8,0,0,0,.84,1.4l15.66,9.075c.464.268.84.077.84-.425a1.8,1.8,0,0,0-.84-1.4" transform="translate(0.633 12.313)" fill="#27debf"/>
        <path id="Trazado_235851" data-name="Trazado 235851" d="M61.228,150.417,8.019,119.731c-.464-.268-.84-.077-.84.425a1.8,1.8,0,0,0,.84,1.4l53.209,30.686c.464.268.84.077.84-.425a1.8,1.8,0,0,0-.84-1.4" transform="translate(0.633 10.546)" fill="#27debf"/>
        <path id="Trazado_235852" data-name="Trazado 235852" d="M74.581,165.066,8.019,126.421c-.464-.268-.84-.077-.84.425a1.8,1.8,0,0,0,.84,1.4l66.562,38.645c.465.268.841.077.841-.425a1.8,1.8,0,0,0-.841-1.4" transform="translate(0.633 11.136)" fill="#27debf"/>
        <path id="Trazado_235853" data-name="Trazado 235853" d="M69.919,168.942,25.4,143.154c-.464-.269-.84-.078-.84.424a1.8,1.8,0,0,0,.84,1.4l44.516,25.79c.464.268.84.077.84-.425a1.8,1.8,0,0,0-.84-1.4" transform="translate(2.166 12.611)" fill="#f4a338"/>
        <path id="Trazado_235854" data-name="Trazado 235854" d="M69.9,155.407l-8.8-5.08c-.464-.268-.84-.077-.84.425a1.8,1.8,0,0,0,.84,1.4l8.8,5.08c.464.268.84.077.84-.425a1.8,1.8,0,0,0-.84-1.4" transform="translate(5.313 13.244)" fill="#27debf"/>
        <path id="Trazado_235855" data-name="Trazado 235855" d="M78.962,113.87,40.456,91.629c-.464-.268-.84-.077-.84.425a1.8,1.8,0,0,0,.84,1.4L78.962,115.69c.464.268.84.077.84-.425a1.8,1.8,0,0,0-.84-1.4" transform="translate(3.493 8.068)" fill="#27debf"/>
        <g id="Grupo_182685" data-name="Grupo 182685" transform="translate(43.109 99.575)" opacity="0.6">
          <g id="Grupo_182684" data-name="Grupo 182684">
            <g id="Grupo_182683" data-name="Grupo 182683" clip-path="url(#clip-path-15)">
              <path id="Trazado_235856" data-name="Trazado 235856" d="M78.962,113.87,40.456,91.629c-.464-.268-.84-.077-.84.425a1.8,1.8,0,0,0,.84,1.4L78.962,115.69c.464.268.84.077.84-.425a1.8,1.8,0,0,0-.84-1.4" transform="translate(-39.616 -91.507)" fill="#fff"/>
            </g>
          </g>
        </g>
        <path id="Trazado_235857" data-name="Trazado 235857" d="M76.472,119.11l-7.778-4.5c-.464-.268-.84-.077-.84.425a1.8,1.8,0,0,0,.84,1.4l7.778,4.5c.464.268.84.077.84-.425a1.8,1.8,0,0,0-.84-1.4" transform="translate(5.983 10.095)" fill="#27debf"/>
        <g id="Grupo_182688" data-name="Grupo 182688" transform="translate(73.837 124.588)" opacity="0.6">
          <g id="Grupo_182687" data-name="Grupo 182687">
            <g id="Grupo_182686" data-name="Grupo 182686" clip-path="url(#clip-path-16)">
              <path id="Trazado_235858" data-name="Trazado 235858" d="M76.472,119.11l-7.778-4.5c-.464-.268-.84-.077-.84.425a1.8,1.8,0,0,0,.84,1.4l7.778,4.5c.464.268.84.077.84-.425a1.8,1.8,0,0,0-.84-1.4" transform="translate(-67.855 -114.493)" fill="#fff"/>
            </g>
          </g>
        </g>
        <path id="Trazado_235859" data-name="Trazado 235859" d="M76.472,125.8l-7.778-4.5c-.464-.268-.84-.077-.84.425a1.8,1.8,0,0,0,.84,1.4l7.778,4.5c.464.268.84.077.84-.425a1.8,1.8,0,0,0-.84-1.4" transform="translate(5.983 10.685)" fill="#27debf"/>
        <g id="Grupo_182691" data-name="Grupo 182691" transform="translate(73.837 131.869)" opacity="0.6">
          <g id="Grupo_182690" data-name="Grupo 182690">
            <g id="Grupo_182689" data-name="Grupo 182689" clip-path="url(#clip-path-16)">
              <path id="Trazado_235860" data-name="Trazado 235860" d="M76.472,125.8l-7.778-4.5c-.464-.268-.84-.077-.84.425a1.8,1.8,0,0,0,.84,1.4l7.778,4.5c.464.268.84.077.84-.425a1.8,1.8,0,0,0-.84-1.4" transform="translate(-67.855 -121.184)" fill="#fff"/>
            </g>
          </g>
        </g>
        <path id="Trazado_235861" data-name="Trazado 235861" d="M76.472,132.492,68.694,128c-.464-.268-.84-.077-.84.425a1.8,1.8,0,0,0,.84,1.4l7.778,4.5c.464.268.84.077.84-.425a1.8,1.8,0,0,0-.84-1.4" transform="translate(5.983 11.275)" fill="#27debf"/>
        <g id="Grupo_182694" data-name="Grupo 182694" transform="translate(73.837 139.15)" opacity="0.6">
          <g id="Grupo_182693" data-name="Grupo 182693">
            <g id="Grupo_182692" data-name="Grupo 182692" clip-path="url(#clip-path-18)">
              <path id="Trazado_235862" data-name="Trazado 235862" d="M76.472,132.492,68.694,128c-.464-.268-.84-.077-.84.425a1.8,1.8,0,0,0,.84,1.4l7.778,4.5c.464.268.84.077.84-.425a1.8,1.8,0,0,0-.84-1.4" transform="translate(-67.855 -127.875)" fill="#fff"/>
            </g>
          </g>
        </g>
        <path id="Trazado_235863" data-name="Trazado 235863" d="M76.472,139.183l-7.778-4.5c-.464-.268-.84-.077-.84.425a1.8,1.8,0,0,0,.84,1.4l7.778,4.5c.464.268.84.077.84-.425a1.8,1.8,0,0,0-.84-1.4" transform="translate(5.983 11.865)" fill="#27debf"/>
        <g id="Grupo_182697" data-name="Grupo 182697" transform="translate(73.837 146.431)" opacity="0.6">
          <g id="Grupo_182696" data-name="Grupo 182696">
            <g id="Grupo_182695" data-name="Grupo 182695" clip-path="url(#clip-path-18)">
              <path id="Trazado_235864" data-name="Trazado 235864" d="M76.472,139.183l-7.778-4.5c-.464-.268-.84-.077-.84.425a1.8,1.8,0,0,0,.84,1.4l7.778,4.5c.464.268.84.077.84-.425a1.8,1.8,0,0,0-.84-1.4" transform="translate(-67.855 -134.566)" fill="#fff"/>
            </g>
          </g>
        </g>
        <path id="Trazado_235865" data-name="Trazado 235865" d="M67.04,180.805,32.647,160.957c-.464-.268-.84-.077-.84.424a1.806,1.806,0,0,0,.84,1.4L67.04,182.626c.464.268.84.077.84-.425a1.8,1.8,0,0,0-.84-1.4" transform="translate(2.804 14.181)" fill="#f4a338"/>
        <path id="Trazado_235866" data-name="Trazado 235866" d="M67.04,187.5,32.647,167.649c-.464-.268-.84-.078-.84.424a1.8,1.8,0,0,0,.84,1.4L67.04,189.318c.464.268.84.077.84-.425a1.8,1.8,0,0,0-.84-1.4" transform="translate(2.804 14.771)" fill="#f4a338"/>
        <path id="Trazado_235867" data-name="Trazado 235867" d="M29.8,159.3,8.191,146.873c-.464-.268-.84-.077-.84.425a1.8,1.8,0,0,0,.84,1.4L29.8,161.125c.464.268.84.077.84-.425a1.8,1.8,0,0,0-.84-1.4" transform="translate(0.648 12.939)" fill="#f4a338"/>
        <path id="Trazado_235868" data-name="Trazado 235868" d="M29.8,166,8.191,153.564c-.464-.269-.84-.077-.84.424a1.806,1.806,0,0,0,.84,1.4L29.8,167.816c.464.268.84.077.84-.425a1.8,1.8,0,0,0-.84-1.4" transform="translate(0.648 13.529)" fill="#f4a338"/>
        <path id="Trazado_235869" data-name="Trazado 235869" d="M76.472,186.255l-7.778-4.5c-.464-.268-.84-.077-.84.425a1.8,1.8,0,0,0,.84,1.4l7.778,4.5c.464.268.84.077.84-.425a1.8,1.8,0,0,0-.84-1.4" transform="translate(5.983 16.015)" fill="#27debf"/>
        <g id="Grupo_182700" data-name="Grupo 182700" transform="translate(73.837 197.652)" opacity="0.6">
          <g id="Grupo_182699" data-name="Grupo 182699">
            <g id="Grupo_182698" data-name="Grupo 182698" clip-path="url(#clip-path-16)">
              <path id="Trazado_235870" data-name="Trazado 235870" d="M76.472,186.255l-7.778-4.5c-.464-.268-.84-.077-.84.425a1.8,1.8,0,0,0,.84,1.4l7.778,4.5c.464.268.84.077.84-.425a1.8,1.8,0,0,0-.84-1.4" transform="translate(-67.855 -181.638)" fill="#fff"/>
            </g>
          </g>
        </g>
        <path id="Trazado_235871" data-name="Trazado 235871" d="M76.472,192.946l-7.778-4.5c-.464-.268-.84-.077-.84.425a1.8,1.8,0,0,0,.84,1.4l7.778,4.5c.464.268.84.077.84-.425a1.8,1.8,0,0,0-.84-1.4" transform="translate(5.983 16.605)" fill="#27debf"/>
        <g id="Grupo_182703" data-name="Grupo 182703" transform="translate(73.837 204.933)" opacity="0.6">
          <g id="Grupo_182702" data-name="Grupo 182702">
            <g id="Grupo_182701" data-name="Grupo 182701" clip-path="url(#clip-path-16)">
              <path id="Trazado_235872" data-name="Trazado 235872" d="M76.472,192.946l-7.778-4.5c-.464-.268-.84-.077-.84.425a1.8,1.8,0,0,0,.84,1.4l7.778,4.5c.464.268.84.077.84-.425a1.8,1.8,0,0,0-.84-1.4" transform="translate(-67.855 -188.328)" fill="#fff"/>
            </g>
          </g>
        </g>
        <path id="Trazado_235873" data-name="Trazado 235873" d="M38.272,90.365,28.3,84.627c-.465-.268-.84-.077-.84.425a1.8,1.8,0,0,0,.84,1.4l9.97,5.738c.464.268.84.077.84-.425a1.8,1.8,0,0,0-.84-1.4" transform="translate(2.421 7.451)" fill="#27debf"/>
        <g id="Grupo_182706" data-name="Grupo 182706" transform="translate(29.883 91.957)" opacity="0.6">
          <g id="Grupo_182705" data-name="Grupo 182705">
            <g id="Grupo_182704" data-name="Grupo 182704" clip-path="url(#clip-path-22)">
              <path id="Trazado_235874" data-name="Trazado 235874" d="M38.272,90.365,28.3,84.627c-.465-.268-.84-.077-.84.425a1.8,1.8,0,0,0,.84,1.4l9.97,5.738c.464.268.84.077.84-.425a1.8,1.8,0,0,0-.84-1.4" transform="translate(-27.461 -84.506)" fill="#fff"/>
            </g>
          </g>
        </g>
        <path id="Trazado_235875" data-name="Trazado 235875" d="M68.733,141.345l-48.558-28c-.464-.268-.84-.077-.84.424a1.8,1.8,0,0,0,.84,1.4l48.558,28c.464.268.84.077.84-.425a1.8,1.8,0,0,0-.84-1.4" transform="translate(1.705 9.983)" fill="#f4a338"/>
        <path id="Trazado_235876" data-name="Trazado 235876" d="M81.822,155.768,8.019,113.05c-.465-.268-.841-.077-.841.425a1.8,1.8,0,0,0,.841,1.4l73.8,42.718c.465.268.841.077.841-.425a1.8,1.8,0,0,0-.841-1.4" transform="translate(0.633 9.957)" fill="#f4a338"/>
        <path id="Trazado_235877" data-name="Trazado 235877" d="M17.99,112.086l-9.97-5.738c-.465-.268-.84-.077-.84.425a1.8,1.8,0,0,0,.84,1.4l9.97,5.738c.464.268.839.077.839-.425a1.8,1.8,0,0,0-.839-1.4" transform="translate(0.633 9.366)" fill="#ffa8a7"/>
        <path id="Trazado_235878" data-name="Trazado 235878" d="M67.373,113.857,28.867,91.616c-.464-.268-.84-.077-.84.425a1.8,1.8,0,0,0,.84,1.4l38.506,22.241c.464.268.84.077.84-.425a1.8,1.8,0,0,0-.84-1.4" transform="translate(2.471 8.067)" fill="#27debf"/>
        <g id="Grupo_182709" data-name="Grupo 182709" transform="translate(30.498 99.562)" opacity="0.6">
          <g id="Grupo_182708" data-name="Grupo 182708">
            <g id="Grupo_182707" data-name="Grupo 182707" clip-path="url(#clip-path-15)">
              <path id="Trazado_235879" data-name="Trazado 235879" d="M67.373,113.857,28.867,91.616c-.464-.268-.84-.077-.84.425a1.8,1.8,0,0,0,.84,1.4l38.506,22.241c.464.268.84.077.84-.425a1.8,1.8,0,0,0-.84-1.4" transform="translate(-28.027 -91.495)" fill="#fff"/>
            </g>
          </g>
        </g>
        <path id="Trazado_235880" data-name="Trazado 235880" d="M26.682,90.353l-9.97-5.738c-.465-.268-.84-.077-.84.425a1.8,1.8,0,0,0,.84,1.4l9.97,5.738c.464.268.84.077.84-.425a1.8,1.8,0,0,0-.84-1.4" transform="translate(1.399 7.45)" fill="#27debf"/>
        <g id="Grupo_182712" data-name="Grupo 182712" transform="translate(17.272 91.943)" opacity="0.6">
          <g id="Grupo_182711" data-name="Grupo 182711">
            <g id="Grupo_182710" data-name="Grupo 182710" clip-path="url(#clip-path-22)">
              <path id="Trazado_235881" data-name="Trazado 235881" d="M26.682,90.353l-9.97-5.738c-.465-.268-.84-.077-.84.425a1.8,1.8,0,0,0,.84,1.4l9.97,5.738c.464.268.84.077.84-.425a1.8,1.8,0,0,0-.84-1.4" transform="translate(-15.872 -84.493)" fill="#fff"/>
            </g>
          </g>
        </g>
      </g>
    </g>
    <g id="Grupo_182728" data-name="Grupo 182728">
      <g id="Grupo_182727" data-name="Grupo 182727" clip-path="url(#clip-path)">
        <path id="Trazado_235882" data-name="Trazado 235882" d="M194.783,90.378,180.89,82.357l-2.853,6.588a1.162,1.162,0,0,1-1.14.7,1.148,1.148,0,0,1-1.044-.832l-3.317-11.278L161.61,71.226a5.853,5.853,0,0,1-2.683-4.648V28.594a1.972,1.972,0,0,1,3.185-1.839l33.173,19.152a5.852,5.852,0,0,1,2.683,4.648V88.539a2.183,2.183,0,0,1-.963,2.01,1.756,1.756,0,0,1-.884.231,2.709,2.709,0,0,1-1.338-.4M161.61,27.623a1,1,0,0,0-1.68.971V66.578a4.906,4.906,0,0,0,2.182,3.779l11.273,6.508,3.429,11.662a.15.15,0,0,0,.144.115.144.144,0,0,0,.159-.1l3.3-7.62,14.869,8.583a1,1,0,0,0,1.68-.971V50.554a4.9,4.9,0,0,0-2.182-3.779Z" transform="translate(14.013 2.324)" fill="#27debf"/>
        <path id="Trazado_235883" data-name="Trazado 235883" d="M177.363,43.254c-2.3-1.325-4.411-1.548-6.136-.871l6.136,14.8Z" transform="translate(15.097 3.704)" fill="#455a64"/>
        <path id="Trazado_235884" data-name="Trazado 235884" d="M183,49.368a19.042,19.042,0,0,0-6.135-6.215V57.085Z" transform="translate(15.594 3.805)" fill="#27debf"/>
        <path id="Trazado_235885" data-name="Trazado 235885" d="M186.8,58.013a27.878,27.878,0,0,0-3.8-9.149l-6.135,7.717Z" transform="translate(15.594 4.308)" fill="#27debf"/>
        <path id="Trazado_235886" data-name="Trazado 235886" d="M171.535,42.353a6.76,6.76,0,0,0-3.8,4.762l9.936,10.041Z" transform="translate(14.789 3.734)" fill="#455a64"/>
        <path id="Trazado_235887" data-name="Trazado 235887" d="M186.8,66a14.689,14.689,0,0,0,.514-4.008,22.119,22.119,0,0,0-.514-4.6l-9.935-1.431Z" transform="translate(15.594 4.934)" fill="#27debf"/>
        <path id="Trazado_235888" data-name="Trazado 235888" d="M167.736,54.64a27.877,27.877,0,0,0,3.8,9.149l6.135-7.717Z" transform="translate(14.789 4.818)" fill="#27debf"/>
        <path id="Trazado_235889" data-name="Trazado 235889" d="M176.866,69.888c2.295,1.325,4.411,1.548,6.135.871l-6.135-14.8Z" transform="translate(15.594 4.934)" fill="#27debf"/>
        <path id="Trazado_235890" data-name="Trazado 235890" d="M186.8,66l-9.935-10.039L183,70.758A6.757,6.757,0,0,0,186.8,66" transform="translate(15.594 4.934)" fill="#27debf"/>
        <g id="Grupo_182717" data-name="Grupo 182717" transform="translate(192.46 53.172)" opacity="0.5">
          <g id="Grupo_182716" data-name="Grupo 182716">
            <g id="Grupo_182715" data-name="Grupo 182715" clip-path="url(#clip-path-26)">
              <path id="Trazado_235891" data-name="Trazado 235891" d="M183,48.864a27.924,27.924,0,0,1,3.8,9.149,22.193,22.193,0,0,1,.514,4.6,14.744,14.744,0,0,1-.514,4.008,6.76,6.76,0,0,1-3.8,4.762l-6.135-14.8Z" transform="translate(-176.866 -48.864)" fill="#fff"/>
            </g>
          </g>
        </g>
        <path id="Trazado_235892" data-name="Trazado 235892" d="M167.778,46.73a14.689,14.689,0,0,0-.514,4.008,22.119,22.119,0,0,0,.514,4.6l9.935,1.431Z" transform="translate(14.748 4.12)" fill="#27debf"/>
        <path id="Trazado_235893" data-name="Trazado 235893" d="M171.227,63.673a19.034,19.034,0,0,0,6.136,6.215V55.956Z" transform="translate(15.097 4.934)" fill="#27debf"/>
        <g id="Grupo_182720" data-name="Grupo 182720" transform="translate(182.012 50.85)" opacity="0.2">
          <g id="Grupo_182719" data-name="Grupo 182719">
            <g id="Grupo_182718" data-name="Grupo 182718" clip-path="url(#clip-path-27)">
              <path id="Trazado_235894" data-name="Trazado 235894" d="M167.778,46.73l9.935,10.039,6.135,14.8c-1.724.678-3.84.455-6.135-.871a19.021,19.021,0,0,1-6.135-6.215,27.872,27.872,0,0,1-3.8-9.148,22.119,22.119,0,0,1-.514-4.6,14.689,14.689,0,0,1,.514-4.008" transform="translate(-167.264 -46.73)"/>
            </g>
          </g>
        </g>
        <path id="Trazado_235895" data-name="Trazado 235895" d="M149.139,64.025,135.246,56l-2.853,6.589a1.162,1.162,0,0,1-1.14.7,1.148,1.148,0,0,1-1.044-.834L126.892,51.18l-10.925-6.307a5.853,5.853,0,0,1-2.683-4.648V2.241a2.183,2.183,0,0,1,.963-2.01A2.183,2.183,0,0,1,116.468.4l33.173,19.152a5.852,5.852,0,0,1,2.683,4.648V62.186a2.185,2.185,0,0,1-.963,2.01,1.759,1.759,0,0,1-.884.231,2.709,2.709,0,0,1-1.338-.4M115.966,1.27a1.268,1.268,0,0,0-1.219-.171,1.266,1.266,0,0,0-.462,1.141V40.225A4.9,4.9,0,0,0,116.468,44l11.273,6.508,3.429,11.662a.15.15,0,0,0,.144.115.144.144,0,0,0,.159-.1l3.3-7.622,14.869,8.585a1,1,0,0,0,1.68-.971V24.2a4.9,4.9,0,0,0-2.182-3.779Z" transform="translate(9.988 0)" fill="#27debf"/>
        <path id="Trazado_235896" data-name="Trazado 235896" d="M131.719,16.9c-2.3-1.325-4.411-1.548-6.135-.871l6.135,14.8Z" transform="translate(11.073 1.381)" fill="#455a64"/>
        <path id="Trazado_235897" data-name="Trazado 235897" d="M137.357,23.015a19.042,19.042,0,0,0-6.135-6.215V30.732Z" transform="translate(11.57 1.481)" fill="#27debf"/>
        <path id="Trazado_235898" data-name="Trazado 235898" d="M141.157,31.66a27.878,27.878,0,0,0-3.8-9.149l-6.135,7.717Z" transform="translate(11.57 1.985)" fill="#27debf"/>
        <g id="Grupo_182723" data-name="Grupo 182723" transform="translate(142.792 18.282)" opacity="0.5">
          <g id="Grupo_182722" data-name="Grupo 182722">
            <g id="Grupo_182721" data-name="Grupo 182721" clip-path="url(#clip-path-28)">
              <path id="Trazado_235899" data-name="Trazado 235899" d="M137.357,23.015a27.9,27.9,0,0,1,3.8,9.149l-9.934-1.432V16.8a19.042,19.042,0,0,1,6.135,6.215" transform="translate(-131.222 -16.801)" fill="#fff"/>
            </g>
          </g>
        </g>
        <path id="Trazado_235900" data-name="Trazado 235900" d="M125.891,16a6.756,6.756,0,0,0-3.8,4.762L132.026,30.8Z" transform="translate(10.765 1.411)" fill="#455a64"/>
        <path id="Trazado_235901" data-name="Trazado 235901" d="M141.157,39.643a14.686,14.686,0,0,0,.514-4.007,22.1,22.1,0,0,0-.514-4.6L131.222,29.6Z" transform="translate(11.57 2.61)" fill="#27debf"/>
        <path id="Trazado_235902" data-name="Trazado 235902" d="M122.092,28.288a27.9,27.9,0,0,0,3.8,9.149l6.136-7.717Z" transform="translate(10.765 2.494)" fill="#27debf"/>
        <path id="Trazado_235903" data-name="Trazado 235903" d="M131.222,43.535c2.3,1.325,4.411,1.548,6.135.871l-6.135-14.8Z" transform="translate(11.57 2.61)" fill="#27debf"/>
        <path id="Trazado_235904" data-name="Trazado 235904" d="M141.157,39.643,131.222,29.6l6.135,14.8a6.755,6.755,0,0,0,3.8-4.763" transform="translate(11.57 2.61)" fill="#27debf"/>
        <path id="Trazado_235905" data-name="Trazado 235905" d="M122.134,20.377a14.689,14.689,0,0,0-.514,4.008,22.118,22.118,0,0,0,.514,4.6l9.935,1.431Z" transform="translate(10.723 1.797)" fill="#455a64"/>
        <path id="Trazado_235906" data-name="Trazado 235906" d="M125.583,37.32a19.042,19.042,0,0,0,6.135,6.215V29.6Z" transform="translate(11.073 2.61)" fill="#27debf"/>
        <g id="Grupo_182726" data-name="Grupo 182726" transform="translate(132.857 30.782)" opacity="0.2">
          <g id="Grupo_182725" data-name="Grupo 182725">
            <g id="Grupo_182724" data-name="Grupo 182724" clip-path="url(#clip-path-29)">
              <path id="Trazado_235907" data-name="Trazado 235907" d="M132.027,29.719l6.135,14.8c-1.724.678-3.839.455-6.135-.871a19.032,19.032,0,0,1-6.135-6.215,27.878,27.878,0,0,1-3.8-9.149Z" transform="translate(-122.092 -28.288)"/>
            </g>
          </g>
        </g>
      </g>
    </g>
  </g>
</svg>
