<svg id="Grupo_182647" data-name="Grupo 182647" xmlns="http://www.w3.org/2000/svg" xmlns:xlink="http://www.w3.org/1999/xlink" width="139.374" height="180.668" viewBox="0 0 139.374 180.668">
  <defs>
    <clipPath id="clip-path">
      <rect id="Rectángulo_59017" data-name="Rectángulo 59017" width="139.374" height="180.668" fill="none"/>
    </clipPath>
    <clipPath id="clip-path-3">
      <rect id="Rectángulo_59014" data-name="Rectángulo 59014" width="139.372" height="91.011" transform="translate(0.002 0.001)" fill="none"/>
    </clipPath>
    <clipPath id="clip-path-4">
      <rect id="Rectángulo_59015" data-name="Rectángulo 59015" width="137.691" height="79.725" transform="translate(0.875)" fill="none"/>
    </clipPath>
  </defs>
  <g id="Grupo_182739" data-name="Grupo 182739" clip-path="url(#clip-path)">
    <g id="Grupo_182738" data-name="Grupo 182738">
      <g id="Grupo_182737" data-name="Grupo 182737" clip-path="url(#clip-path)">
        <path id="Trazado_235908" data-name="Trazado 235908" d="M134.21,180.221a1.324,1.324,0,0,1-.652-.2L2.875,104.5a5.439,5.439,0,0,1-2.43-4.2V3.8c0-.9.382-1.445,1.021-1.445a1.977,1.977,0,0,1,.959.3L133.113,78.147a5.455,5.455,0,0,1,2.428,4.2V178.2a2.628,2.628,0,0,1-.421,1.479,1.132,1.132,0,0,1-.91.543" fill="#fafafa"/>
        <path id="Trazado_235909" data-name="Trazado 235909" d="M138.258,178.579c-.287.152-2.346,1.327-3.249,1.841a2.7,2.7,0,0,0,.975-2.224V91.012l3.39-1.984V176.28a2.576,2.576,0,0,1-1.116,2.3" fill="#ebebeb"/>
        <path id="Trazado_235910" data-name="Trazado 235910" d="M1.466,2.807a1.511,1.511,0,0,1,.736.242L132.89,78.535a4.946,4.946,0,0,1,2.2,3.813V178.2c0,.839-.412,1.575-.882,1.575a.884.884,0,0,1-.428-.136L3.1,104.107a4.937,4.937,0,0,1-2.2-3.808V3.8c0-.372.074-1,.572-1m0-.894C.6,1.913,0,2.606,0,3.8v96.5a5.842,5.842,0,0,0,2.651,4.583l130.684,75.53a1.748,1.748,0,0,0,.875.256c1.035,0,1.776-1.134,1.776-2.469V82.348a5.851,5.851,0,0,0-2.648-4.587L2.649,2.275a2.4,2.4,0,0,0-1.183-.362" fill="#e0e0e0"/>
        <path id="Trazado_235911" data-name="Trazado 235911" d="M0,3.751v8.73L135.984,91.012l3.39-1.973V80.422a5.5,5.5,0,0,0-.8-2.65,5.334,5.334,0,0,0-1.844-1.932L6.033.353A1.892,1.892,0,0,0,4.1.2C3.618.5,1.3,1.818.823,2.06a.86.86,0,0,0-.2.137,1.29,1.29,0,0,0-.209.209,1.448,1.448,0,0,0-.169.266,1.253,1.253,0,0,0-.129.322,1.662,1.662,0,0,0-.081.362v.017A2.761,2.761,0,0,0,0,3.751" fill="#27debf"/>
        <g id="Grupo_182733" data-name="Grupo 182733" opacity="0.15">
          <g id="Grupo_182732" data-name="Grupo 182732">
            <g id="Grupo_182731" data-name="Grupo 182731" clip-path="url(#clip-path-3)">
              <path id="Trazado_235912" data-name="Trazado 235912" d="M0,3.751v8.73L135.984,91.012l3.39-1.973V80.422a5.5,5.5,0,0,0-.8-2.65,5.334,5.334,0,0,0-1.844-1.932L6.033.353A1.892,1.892,0,0,0,4.1.2C3.618.5,1.3,1.818.823,2.06a.86.86,0,0,0-.2.137,1.29,1.29,0,0,0-.209.209,1.448,1.448,0,0,0-.169.266,1.253,1.253,0,0,0-.129.322,1.662,1.662,0,0,0-.081.362v.017A2.761,2.761,0,0,0,0,3.751"/>
            </g>
          </g>
        </g>
        <path id="Trazado_235913" data-name="Trazado 235913" d="M0,3.751v8.73L135.984,91.012V82.346a4.7,4.7,0,0,0-.322-1.643c-.032-.088-.065-.185-.1-.273a6.6,6.6,0,0,0-.362-.717,5.331,5.331,0,0,0-1.86-1.957L2.651,2.277A1.756,1.756,0,0,0,.622,2.2a1.29,1.29,0,0,0-.209.209,1.448,1.448,0,0,0-.169.266,1.253,1.253,0,0,0-.129.322,1.662,1.662,0,0,0-.081.362v.017A2.761,2.761,0,0,0,0,3.751" fill="#27debf"/>
        <path id="Trazado_235914" data-name="Trazado 235914" d="M17.07,14.488a4.361,4.361,0,0,1,1.653,3.5c0,1.406-.74,2.118-1.653,1.591a4.362,4.362,0,0,1-1.653-3.5c0-1.406.74-2.118,1.653-1.591" fill="#fafafa"/>
        <path id="Trazado_235915" data-name="Trazado 235915" d="M11.118,11.046a4.361,4.361,0,0,1,1.653,3.5c0,1.406-.74,2.118-1.653,1.591a4.361,4.361,0,0,1-1.653-3.5c0-1.406.74-2.118,1.653-1.591" fill="#fafafa"/>
        <path id="Trazado_235916" data-name="Trazado 235916" d="M5.166,7.6a4.361,4.361,0,0,1,1.653,3.5c0,1.406-.74,2.118-1.653,1.591a4.361,4.361,0,0,1-1.653-3.5c0-1.406.74-2.118,1.653-1.591" fill="#fafafa"/>
        <path id="Trazado_235917" data-name="Trazado 235917" d="M2.65,2.273,133.335,77.759a5.451,5.451,0,0,1,1.866,1.966l3.366-1.949a5.281,5.281,0,0,0-1.841-1.933L6.032.357A1.862,1.862,0,0,0,4.108.2C3.633.49,1.434,1.74.876,2.04a1.916,1.916,0,0,1,1.774.233" fill="#27debf"/>
        <g id="Grupo_182736" data-name="Grupo 182736" opacity="0.5">
          <g id="Grupo_182735" data-name="Grupo 182735">
            <g id="Grupo_182734" data-name="Grupo 182734" clip-path="url(#clip-path-4)">
              <path id="Trazado_235918" data-name="Trazado 235918" d="M2.65,2.273,133.335,77.759a5.451,5.451,0,0,1,1.866,1.966l3.366-1.949a5.281,5.281,0,0,0-1.841-1.933L6.032.357A1.862,1.862,0,0,0,4.108.2C3.633.49,1.434,1.74.876,2.04a1.916,1.916,0,0,1,1.774.233" fill="#fff"/>
            </g>
          </g>
        </g>
        <path id="Trazado_235919" data-name="Trazado 235919" d="M130.054,96.661c0,1.229-.863,1.728-1.928,1.113a4.276,4.276,0,0,1-1.933-3.342c0-1.231.86-1.73,1.928-1.113a4.271,4.271,0,0,1,1.933,3.342" fill="#27debf"/>
        <path id="Trazado_235920" data-name="Trazado 235920" d="M116.647,88.581,99.424,78.637c-.568-.328-1.028-.1-1.028.52a2.2,2.2,0,0,0,1.027,1.706l17.224,9.944c.567.328,1.027.1,1.027-.52a2.2,2.2,0,0,0-1.027-1.706" fill="#e0e0e0"/>
        <path id="Trazado_235921" data-name="Trazado 235921" d="M93.716,75.171,76.493,65.227c-.568-.328-1.028-.095-1.028.52a2.2,2.2,0,0,0,1.027,1.706L93.716,77.4c.567.327,1.027.095,1.027-.52a2.2,2.2,0,0,0-1.027-1.706" fill="#e0e0e0"/>
        <path id="Trazado_235922" data-name="Trazado 235922" d="M70.785,61.76,53.562,51.816c-.568-.328-1.028-.1-1.028.52a2.2,2.2,0,0,0,1.027,1.706l17.224,9.944c.567.327,1.027.1,1.027-.52a2.2,2.2,0,0,0-1.027-1.706" fill="#e0e0e0"/>
        <path id="Trazado_235923" data-name="Trazado 235923" d="M47.854,48.35,30.631,38.406c-.568-.328-1.028-.095-1.028.52a2.2,2.2,0,0,0,1.027,1.706l17.224,9.944c.567.327,1.027.1,1.027-.52a2.2,2.2,0,0,0-1.027-1.706" fill="#e0e0e0"/>
        <path id="Trazado_235924" data-name="Trazado 235924" d="M24.923,34.939,7.7,25c-.568-.328-1.028-.1-1.028.52A2.2,2.2,0,0,0,7.7,27.221l17.224,9.944c.567.327,1.027.095,1.027-.52a2.2,2.2,0,0,0-1.027-1.706" fill="#e0e0e0"/>
        <path id="Trazado_235925" data-name="Trazado 235925" d="M128.375,108.181v1.907c0,.524-.368.736-.822.474l-4.587-2.652a1.827,1.827,0,0,1-.824-1.424l0-1.913c0-.525.365-.737.819-.474l4.6,2.658a1.817,1.817,0,0,1,.822,1.424" fill="#27debf"/>
        <path id="Trazado_235926" data-name="Trazado 235926" d="M118.679,102.4,106.321,95.3c-.568-.328-1.028-.1-1.028.52a2.205,2.205,0,0,0,1.027,1.706l12.359,7.108c.567.327,1.027.1,1.027-.52a2.2,2.2,0,0,0-1.027-1.706" fill="#e0e0e0"/>
        <path id="Trazado_235927" data-name="Trazado 235927" d="M130.054,105.655l-26.99-15.583v8.9l26.99,15.582Z" fill="none" stroke="#e0e0e0" stroke-linecap="round" stroke-linejoin="round" stroke-width="0.497"/>
        <path id="Trazado_235928" data-name="Trazado 235928" d="M128.375,121.538v1.907c0,.524-.368.736-.822.474l-4.587-2.652a1.825,1.825,0,0,1-.824-1.424l0-1.913c0-.525.365-.737.819-.475l4.6,2.659a1.817,1.817,0,0,1,.822,1.424" fill="#27debf"/>
        <path id="Trazado_235929" data-name="Trazado 235929" d="M118.679,115.761l-12.358-7.108c-.568-.328-1.028-.1-1.028.519a2.205,2.205,0,0,0,1.027,1.707l12.359,7.108c.567.328,1.027.1,1.027-.52a2.2,2.2,0,0,0-1.027-1.706" fill="#e0e0e0"/>
        <path id="Trazado_235930" data-name="Trazado 235930" d="M130.054,119.011l-26.99-15.583v8.9l26.99,15.582Z" fill="none" stroke="#e0e0e0" stroke-linecap="round" stroke-linejoin="round" stroke-width="0.497"/>
        <path id="Trazado_235931" data-name="Trazado 235931" d="M128.375,134.9V136.8c0,.524-.368.736-.822.474l-4.587-2.652a1.828,1.828,0,0,1-.824-1.424l0-1.914c0-.524.365-.737.819-.473l4.6,2.658a1.817,1.817,0,0,1,.822,1.424" fill="#27debf"/>
        <path id="Trazado_235932" data-name="Trazado 235932" d="M118.679,129.117l-12.358-7.108c-.568-.328-1.028-.1-1.028.519a2.205,2.205,0,0,0,1.027,1.707l12.359,7.108c.567.327,1.027.1,1.027-.52a2.2,2.2,0,0,0-1.027-1.706" fill="#e0e0e0"/>
        <path id="Trazado_235933" data-name="Trazado 235933" d="M130.054,132.367l-26.99-15.583v8.9l26.99,15.582Z" fill="none" stroke="#e0e0e0" stroke-linecap="round" stroke-linejoin="round" stroke-width="0.497"/>
        <path id="Trazado_235934" data-name="Trazado 235934" d="M128.375,148.251v1.907c0,.524-.368.736-.822.474l-4.587-2.652a1.826,1.826,0,0,1-.824-1.424l0-1.913c0-.525.365-.737.819-.475l4.6,2.659a1.817,1.817,0,0,1,.822,1.424" fill="#27debf"/>
        <path id="Trazado_235935" data-name="Trazado 235935" d="M118.679,142.474l-12.358-7.108c-.568-.328-1.028-.1-1.028.52a2.205,2.205,0,0,0,1.027,1.706l12.359,7.108c.567.328,1.027.1,1.027-.52a2.2,2.2,0,0,0-1.027-1.706" fill="#e0e0e0"/>
        <path id="Trazado_235936" data-name="Trazado 235936" d="M130.054,145.724l-26.99-15.583v8.9l26.99,15.582Z" fill="none" stroke="#e0e0e0" stroke-linecap="round" stroke-linejoin="round" stroke-width="0.497"/>
        <path id="Trazado_235937" data-name="Trazado 235937" d="M128.375,161.608v1.907c0,.524-.368.736-.822.474l-4.587-2.652a1.827,1.827,0,0,1-.824-1.424l0-1.913c0-.525.365-.737.819-.474l4.6,2.658a1.817,1.817,0,0,1,.822,1.424" fill="#27debf"/>
        <path id="Trazado_235938" data-name="Trazado 235938" d="M118.679,155.83l-12.358-7.108c-.568-.328-1.028-.1-1.028.519a2.205,2.205,0,0,0,1.027,1.707l12.359,7.108c.567.327,1.027.1,1.027-.52a2.2,2.2,0,0,0-1.027-1.706" fill="#e0e0e0"/>
        <path id="Trazado_235939" data-name="Trazado 235939" d="M130.054,159.081,103.064,143.5V152.4l26.99,15.582Z" fill="none" stroke="#e0e0e0" stroke-linecap="round" stroke-linejoin="round" stroke-width="0.497"/>
        <path id="Trazado_235940" data-name="Trazado 235940" d="M92.125,118.7l-28.25-16.31a4.194,4.194,0,0,1-1.9-3.287v-24.4c0-1.21.849-1.7,1.9-1.1l28.249,16.31a4.2,4.2,0,0,1,1.9,3.287v24.4c0,1.211-.85,1.7-1.9,1.1" fill="#fafafa"/>
        <path id="Trazado_235941" data-name="Trazado 235941" d="M92.125,118.7l-28.25-16.31a4.194,4.194,0,0,1-1.9-3.287v-24.4c0-1.21.849-1.7,1.9-1.1l28.249,16.31a4.2,4.2,0,0,1,1.9,3.287v24.4C94.023,118.817,93.173,119.307,92.125,118.7Z" fill="none" stroke="#e0e0e0" stroke-miterlimit="10" stroke-width="0.917"/>
        <path id="Trazado_235942" data-name="Trazado 235942" d="M95.753,88.177a.329.329,0,0,0,.164-.614l-.949-.548a.333.333,0,0,0-.449.121.328.328,0,0,0,.12.449l.95.548a.326.326,0,0,0,.164.044" fill="#27debf"/>
        <path id="Trazado_235943" data-name="Trazado 235943" d="M92.642,86.433l-2-1.153a.329.329,0,0,1-.121-.45.334.334,0,0,1,.45-.121l2,1.153a.329.329,0,0,1-.165.614.335.335,0,0,1-.164-.043m-3.994-2.306-2-1.154a.328.328,0,0,1-.121-.449.334.334,0,0,1,.45-.121l2,1.153a.329.329,0,0,1-.164.614.335.335,0,0,1-.164-.043M84.654,81.82l-2-1.153a.328.328,0,0,1-.121-.449.333.333,0,0,1,.449-.121l2,1.153a.329.329,0,0,1-.164.614.333.333,0,0,1-.164-.044M80.66,79.514l-2-1.153a.329.329,0,0,1-.12-.449.333.333,0,0,1,.449-.121l2,1.153a.329.329,0,0,1-.164.614.34.34,0,0,1-.165-.044m-3.994-2.306-2-1.153a.329.329,0,0,1,.329-.57l2,1.153a.329.329,0,0,1-.164.614.34.34,0,0,1-.165-.044M72.672,74.9l-2-1.153a.33.33,0,0,1-.121-.449.334.334,0,0,1,.45-.121l2,1.153a.329.329,0,0,1-.164.614.34.34,0,0,1-.165-.044M68.678,72.6l-2-1.153a.329.329,0,1,1,.329-.57l2,1.153a.329.329,0,0,1-.164.614.334.334,0,0,1-.165-.044M64.684,70.29l-2-1.153a.329.329,0,0,1-.121-.449.333.333,0,0,1,.45-.121l2,1.153a.329.329,0,0,1-.165.614.333.333,0,0,1-.164-.044" fill="#27debf"/>
        <path id="Trazado_235944" data-name="Trazado 235944" d="M60.854,68.028a.329.329,0,0,0,.164-.614l-.948-.548a.334.334,0,0,0-.45.121.33.33,0,0,0,.121.449l.949.548a.323.323,0,0,0,.164.044" fill="#27debf"/>
        <path id="Trazado_235945" data-name="Trazado 235945" d="M97.212,124.411a.329.329,0,0,0,.329-.329v-1.1a.329.329,0,1,0-.658,0v1.1a.329.329,0,0,0,.329.329" fill="#27debf"/>
        <path id="Trazado_235946" data-name="Trazado 235946" d="M96.883,120.886v-2.1a.329.329,0,0,1,.658,0v2.1a.329.329,0,0,1-.658,0m0-4.2v-2.1a.329.329,0,0,1,.658,0v2.1a.329.329,0,1,1-.658,0m0-4.2v-2.1a.329.329,0,0,1,.658,0v2.1a.329.329,0,0,1-.658,0m0-4.2v-2.1a.328.328,0,1,1,.657,0v2.1a.329.329,0,1,1-.658,0m0-4.2v-2.1a.328.328,0,1,1,.657,0v2.1a.328.328,0,1,1-.657,0m0-4.2v-2.1a.328.328,0,1,1,.657,0v2.1a.328.328,0,1,1-.657,0m0-4.2v-2.1a.328.328,0,0,1,.657,0v2.1a.328.328,0,1,1-.657,0" fill="#27debf"/>
        <path id="Trazado_235947" data-name="Trazado 235947" d="M97.213,91.8a.329.329,0,0,0,.329-.329v-1.1a.329.329,0,1,0-.658,0v1.1a.329.329,0,0,0,.329.329" fill="#27debf"/>
        <path id="Trazado_235948" data-name="Trazado 235948" d="M60.826,105.088a.329.329,0,0,0,.165-.614l-.95-.547a.332.332,0,0,0-.449.12.328.328,0,0,0,.12.449l.95.548a.326.326,0,0,0,.164.044" fill="#27debf"/>
        <path id="Trazado_235949" data-name="Trazado 235949" d="M92.64,123.507l-2-1.153a.33.33,0,0,1,.329-.571l2,1.154a.329.329,0,0,1-.165.614.323.323,0,0,1-.164-.044m-4-2.307-2-1.154a.329.329,0,1,1,.328-.57l2,1.154a.328.328,0,0,1-.164.613.339.339,0,0,1-.165-.043m-4-2.308-2-1.154a.33.33,0,0,1-.121-.449.334.334,0,0,1,.45-.121l2,1.154a.329.329,0,0,1-.165.614.333.333,0,0,1-.164-.044m-4-2.308-2-1.155a.328.328,0,0,1,.328-.569l2,1.154a.329.329,0,0,1-.164.614.337.337,0,0,1-.165-.044m-4-2.309-2-1.153a.33.33,0,0,1-.121-.45.333.333,0,0,1,.45-.121l2,1.154a.329.329,0,0,1-.164.614.323.323,0,0,1-.164-.044m-4-2.307-2-1.154a.329.329,0,0,1,.329-.57l2,1.154a.329.329,0,0,1,.121.449.332.332,0,0,1-.285.164.336.336,0,0,1-.165-.043m-4-2.308-2-1.154a.328.328,0,0,1-.121-.449.332.332,0,0,1,.449-.121l2,1.154a.328.328,0,0,1,.121.449.328.328,0,0,1-.449.121m-4-2.308-2-1.154a.329.329,0,0,1-.12-.449.333.333,0,0,1,.449-.121l2,1.154a.329.329,0,0,1-.165.614.333.333,0,0,1-.164-.044" fill="#27debf"/>
        <path id="Trazado_235950" data-name="Trazado 235950" d="M95.753,125.253a.329.329,0,0,0,.164-.614l-.949-.548a.33.33,0,0,0-.329.571l.95.547a.326.326,0,0,0,.164.044" fill="#27debf"/>
        <path id="Trazado_235951" data-name="Trazado 235951" d="M58.417,69.4a.329.329,0,0,0,.329-.329v-1.1a.329.329,0,0,0-.658,0v1.1a.329.329,0,0,0,.329.329" fill="#27debf"/>
        <path id="Trazado_235952" data-name="Trazado 235952" d="M58.088,98.486v-2.1a.329.329,0,1,1,.658,0v2.1a.329.329,0,1,1-.658,0m0-4.2v-2.1a.329.329,0,0,1,.658,0v2.1a.329.329,0,1,1-.658,0m0-4.2v-2.1a.329.329,0,1,1,.658,0v2.1a.329.329,0,0,1-.658,0m0-4.2v-2.1a.328.328,0,1,1,.657,0v2.1a.329.329,0,0,1-.658,0m0-4.2v-2.1a.328.328,0,1,1,.657,0v2.1a.328.328,0,0,1-.657,0m0-4.2v-2.1a.328.328,0,1,1,.657,0v2.1a.328.328,0,1,1-.657,0m0-4.2v-2.1a.328.328,0,0,1,.657,0v2.1a.328.328,0,1,1-.657,0" fill="#27debf"/>
        <path id="Trazado_235953" data-name="Trazado 235953" d="M58.416,102.011a.329.329,0,0,0,.329-.329v-1.1a.329.329,0,0,0-.658,0v1.1a.329.329,0,0,0,.329.329" fill="#27debf"/>
        <path id="Trazado_235954" data-name="Trazado 235954" d="M59.713,69.106l-2.92-1.686a.329.329,0,0,1-.164-.285V63.763a.328.328,0,0,1,.493-.285l2.92,1.686a.331.331,0,0,1,.164.285v3.372a.329.329,0,0,1-.493.285m-2.427-4.774v2.613l2.262,1.307V65.639Z" fill="#27debf"/>
        <path id="Trazado_235955" data-name="Trazado 235955" d="M59.713,106.182l-2.92-1.686a.329.329,0,0,1-.164-.285v-3.372a.328.328,0,0,1,.164-.285.333.333,0,0,1,.329,0l2.92,1.686a.331.331,0,0,1,.164.285V105.9a.329.329,0,0,1-.493.285m-2.427-4.774v2.613l2.262,1.307v-2.613Z" fill="#27debf"/>
        <path id="Trazado_235956" data-name="Trazado 235956" d="M98.508,91.5l-2.92-1.687a.328.328,0,0,1-.164-.285V86.162a.328.328,0,0,1,.493-.285l2.919,1.686a.33.33,0,0,1,.165.285V91.22a.33.33,0,0,1-.493.285m-2.427-4.774v2.612l2.262,1.307V88.038Z" fill="#27debf"/>
        <path id="Trazado_235957" data-name="Trazado 235957" d="M98.508,128.581l-2.92-1.686a.329.329,0,0,1-.164-.285v-3.372a.329.329,0,0,1,.164-.285.333.333,0,0,1,.329,0l2.919,1.686a.33.33,0,0,1,.165.285V128.3a.329.329,0,0,1-.493.285m-2.427-4.774v2.613l2.262,1.307v-2.613Z" fill="#27debf"/>
        <path id="Trazado_235958" data-name="Trazado 235958" d="M56.947,86.058a3.522,3.522,0,0,0,1.47,2.809c.812.469,1.47-.028,1.47-1.111a3.519,3.519,0,0,0-1.47-2.809c-.812-.469-1.47.028-1.47,1.111" fill="#27debf"/>
        <path id="Trazado_235959" data-name="Trazado 235959" d="M76.359,76.643a3.52,3.52,0,0,0,1.47,2.809c.812.469,1.471-.029,1.471-1.111a3.52,3.52,0,0,0-1.471-2.809c-.812-.469-1.47.028-1.47,1.111" fill="#27debf"/>
        <path id="Trazado_235960" data-name="Trazado 235960" d="M76.359,113.719a3.522,3.522,0,0,0,1.47,2.809c.812.469,1.471-.029,1.471-1.111a3.523,3.523,0,0,0-1.471-2.81c-.812-.468-1.47.029-1.47,1.112" fill="#27debf"/>
        <path id="Trazado_235961" data-name="Trazado 235961" d="M95.744,108.507a3.52,3.52,0,0,0,1.47,2.809c.812.469,1.47-.029,1.47-1.111a3.519,3.519,0,0,0-1.47-2.809c-.812-.469-1.47.028-1.47,1.111" fill="#27debf"/>
        <path id="Trazado_235962" data-name="Trazado 235962" d="M70.592,93.271l1.777,1.251a.723.723,0,0,1,.249.377,11.609,11.609,0,0,0,.45,1.508.372.372,0,0,1-.1.385l-1,.864a.3.3,0,0,0-.063.369l1.43,2.477a.306.306,0,0,0,.351.13l1.249-.436a.373.373,0,0,1,.382.108,11.774,11.774,0,0,0,1.081,1.144.725.725,0,0,1,.2.4l.195,2.165a.525.525,0,0,0,.232.363l1.945,1.123a.145.145,0,0,0,.235-.12l.19-1.89a.2.2,0,0,1,.259-.183,3.862,3.862,0,0,0,.937.1.481.481,0,0,1,.377.187l1.438,2.163a.261.261,0,0,0,.344.081l1.253-.723a.262.262,0,0,0,.1-.339l-1.154-2.327a.482.482,0,0,1,.027-.42,3.871,3.871,0,0,0,.385-.858.207.207,0,0,1,.289-.134l1.731.781a.145.145,0,0,0,.222-.143V99.426a.522.522,0,0,0-.2-.382l-1.777-1.251a.723.723,0,0,1-.249-.377,11.56,11.56,0,0,0-.45-1.508.372.372,0,0,1,.1-.385l1-.864a.3.3,0,0,0,.063-.368l-1.43-2.478a.306.306,0,0,0-.351-.13l-1.249.436a.373.373,0,0,1-.382-.108A11.654,11.654,0,0,0,79.6,90.867a.729.729,0,0,1-.2-.4L79.205,88.3a.525.525,0,0,0-.232-.363l-1.945-1.123a.145.145,0,0,0-.235.12l-.19,1.89a.2.2,0,0,1-.259.183,3.863,3.863,0,0,0-.937-.095.481.481,0,0,1-.376-.187L73.592,86.56a.261.261,0,0,0-.344-.081L72,87.2a.262.262,0,0,0-.1.339l1.154,2.327a.482.482,0,0,1-.026.42,3.827,3.827,0,0,0-.386.858.207.207,0,0,1-.289.134L70.615,90.5a.145.145,0,0,0-.222.143v2.247a.522.522,0,0,0,.2.382m4.122.989c0-2.1,1.471-2.945,3.286-1.9a7.26,7.26,0,0,1,3.287,5.692c0,2.1-1.471,2.945-3.287,1.9a7.263,7.263,0,0,1-3.286-5.692" fill="#27debf"/>
        <path id="Trazado_235963" data-name="Trazado 235963" d="M42.168,89.938,13.919,73.628a4.2,4.2,0,0,1-1.9-3.288v-24.4c0-1.209.849-1.7,1.9-1.1l28.249,16.31a4.192,4.192,0,0,1,1.9,3.287v24.4c0,1.211-.85,1.7-1.9,1.1" fill="#fafafa"/>
        <path id="Trazado_235964" data-name="Trazado 235964" d="M42.168,89.938,13.919,73.628a4.2,4.2,0,0,1-1.9-3.288v-24.4c0-1.209.849-1.7,1.9-1.1l28.249,16.31a4.192,4.192,0,0,1,1.9,3.287v24.4C44.066,90.052,43.216,90.543,42.168,89.938Z" fill="none" stroke="#e0e0e0" stroke-miterlimit="10" stroke-width="0.917"/>
        <path id="Trazado_235965" data-name="Trazado 235965" d="M45.8,59.412a.328.328,0,0,0,.164-.613l-.949-.549a.333.333,0,0,0-.449.121.33.33,0,0,0,.12.45l.95.547a.326.326,0,0,0,.164.044" fill="#27debf"/>
        <path id="Trazado_235966" data-name="Trazado 235966" d="M42.686,57.667l-2-1.153a.328.328,0,0,1-.12-.449.333.333,0,0,1,.45-.121l2,1.153a.329.329,0,0,1-.165.614.32.32,0,0,1-.163-.044m-3.994-2.306-2-1.153a.327.327,0,0,1-.12-.449.333.333,0,0,1,.449-.121l2,1.153a.329.329,0,0,1-.166.614.322.322,0,0,1-.163-.044m-4-2.306-2-1.153a.327.327,0,0,1-.122-.449.334.334,0,0,1,.45-.121l2,1.153a.329.329,0,0,1-.166.614.339.339,0,0,1-.164-.044M30.7,50.749l-2-1.153a.326.326,0,0,1-.121-.449.332.332,0,0,1,.448-.121l2,1.153a.329.329,0,1,1-.328.57m-4-2.306-2-1.153a.329.329,0,0,1,.33-.57l2,1.153a.33.33,0,0,1,.122.45.334.334,0,0,1-.285.164.347.347,0,0,1-.166-.044m-3.994-2.306-2-1.153a.329.329,0,0,1-.121-.449.334.334,0,0,1,.45-.121l2,1.153a.329.329,0,0,1-.164.614.344.344,0,0,1-.166-.044m-3.993-2.306-2-1.153a.329.329,0,1,1,.328-.57l2,1.153a.329.329,0,0,1-.164.614.336.336,0,0,1-.164-.044m-3.995-2.306-2-1.153a.329.329,0,0,1-.122-.449.333.333,0,0,1,.45-.121l2,1.153a.329.329,0,0,1-.164.614.334.334,0,0,1-.165-.044" fill="#27debf"/>
        <path id="Trazado_235967" data-name="Trazado 235967" d="M10.9,39.264a.329.329,0,0,0,.164-.614l-.948-.548a.332.332,0,0,0-.449.121.328.328,0,0,0,.12.449l.949.548a.333.333,0,0,0,.164.044" fill="#27debf"/>
        <path id="Trazado_235968" data-name="Trazado 235968" d="M47.256,95.646a.329.329,0,0,0,.329-.329v-1.1a.329.329,0,1,0-.658,0v1.1a.329.329,0,0,0,.329.329" fill="#27debf"/>
        <path id="Trazado_235969" data-name="Trazado 235969" d="M46.927,92.121v-2.1a.329.329,0,0,1,.657,0v2.1a.329.329,0,1,1-.657,0m0-4.2v-2.1a.329.329,0,1,1,.657,0v2.1a.329.329,0,1,1-.657,0m0-4.2v-2.1a.329.329,0,1,1,.657,0v2.1a.329.329,0,0,1-.657,0m0-4.2v-2.1a.328.328,0,1,1,.657,0v2.1a.329.329,0,1,1-.657,0m0-4.2v-2.1a.328.328,0,1,1,.657,0v2.1a.328.328,0,1,1-.657,0m0-4.2v-2.1a.328.328,0,1,1,.657,0v2.1a.328.328,0,1,1-.657,0m0-4.2v-2.1a.328.328,0,0,1,.657,0v2.1a.328.328,0,1,1-.657,0" fill="#27debf"/>
        <path id="Trazado_235970" data-name="Trazado 235970" d="M47.257,63.037a.328.328,0,0,0,.328-.329v-1.1a.328.328,0,1,0-.657,0v1.1a.329.329,0,0,0,.329.329" fill="#27debf"/>
        <path id="Trazado_235971" data-name="Trazado 235971" d="M10.87,76.324a.329.329,0,0,0,.164-.614l-.949-.548a.332.332,0,0,0-.449.121.328.328,0,0,0,.12.449l.95.548a.336.336,0,0,0,.164.044" fill="#27debf"/>
        <path id="Trazado_235972" data-name="Trazado 235972" d="M42.684,94.743l-2-1.154a.33.33,0,0,1-.121-.449.334.334,0,0,1,.45-.121l2,1.154a.329.329,0,0,1-.165.614.333.333,0,0,1-.164-.044m-4-2.307-2-1.154a.329.329,0,1,1,.328-.57l2,1.153a.329.329,0,0,1-.164.614.339.339,0,0,1-.165-.043m-4-2.308-2-1.154a.33.33,0,0,1-.121-.45.334.334,0,0,1,.45-.12l2,1.154a.328.328,0,0,1-.164.613.332.332,0,0,1-.164-.043m-4-2.308-2-1.156a.328.328,0,0,1,.329-.568l2,1.154a.329.329,0,0,1-.164.614.337.337,0,0,1-.165-.044m-4-2.309-2-1.153a.329.329,0,0,1-.121-.45.333.333,0,0,1,.45-.121l2,1.154a.329.329,0,0,1-.164.614.333.333,0,0,1-.164-.044m-4-2.307-2-1.154a.329.329,0,0,1,.329-.57l2,1.154a.328.328,0,0,1-.165.613A.335.335,0,0,1,22.7,83.2m-4-2.308-2-1.154a.329.329,0,1,1,.328-.57l2,1.154a.328.328,0,0,1,.121.449.332.332,0,0,1-.285.165A.34.34,0,0,1,18.7,80.9m-4-2.308-2-1.154a.33.33,0,0,1-.121-.449.334.334,0,0,1,.45-.121l2,1.154a.329.329,0,0,1-.165.614.333.333,0,0,1-.164-.044" fill="#27debf"/>
        <path id="Trazado_235973" data-name="Trazado 235973" d="M45.8,96.489a.329.329,0,0,0,.164-.614l-.949-.548a.332.332,0,0,0-.449.121.328.328,0,0,0,.12.449l.95.548a.326.326,0,0,0,.164.044" fill="#27debf"/>
        <path id="Trazado_235974" data-name="Trazado 235974" d="M8.461,40.638a.329.329,0,0,0,.329-.329V39.214a.329.329,0,1,0-.658,0v1.095a.329.329,0,0,0,.329.329" fill="#27debf"/>
        <path id="Trazado_235975" data-name="Trazado 235975" d="M8.131,69.721v-2.1a.329.329,0,0,1,.658,0v2.1a.329.329,0,1,1-.658,0m0-4.2v-2.1a.329.329,0,0,1,.658,0v2.1a.329.329,0,1,1-.658,0m0-4.2v-2.1a.329.329,0,0,1,.658,0v2.1a.329.329,0,0,1-.658,0m0-4.2v-2.1a.329.329,0,1,1,.657,0v2.1a.329.329,0,0,1-.658,0m0-4.2v-2.1a.329.329,0,1,1,.657,0v2.1a.329.329,0,1,1-.657,0m0-4.2v-2.1a.329.329,0,0,1,.657,0v2.1a.329.329,0,1,1-.657,0m0-4.2v-2.1a.329.329,0,0,1,.657,0v2.1a.329.329,0,1,1-.657,0" fill="#27debf"/>
        <path id="Trazado_235976" data-name="Trazado 235976" d="M8.46,73.246a.329.329,0,0,0,.329-.329v-1.1a.329.329,0,1,0-.658,0v1.1a.329.329,0,0,0,.329.329" fill="#27debf"/>
        <path id="Trazado_235977" data-name="Trazado 235977" d="M9.756,40.342l-2.92-1.686a.329.329,0,0,1-.164-.285V35a.329.329,0,0,1,.164-.285.333.333,0,0,1,.329,0l2.92,1.686a.331.331,0,0,1,.164.285v3.372a.329.329,0,0,1-.493.285M7.329,35.568v2.613l2.262,1.307V36.875Z" fill="#27debf"/>
        <path id="Trazado_235978" data-name="Trazado 235978" d="M9.756,77.418l-2.92-1.687a.327.327,0,0,1-.164-.285V72.075a.329.329,0,0,1,.493-.285l2.92,1.686a.331.331,0,0,1,.164.285v3.372a.33.33,0,0,1-.493.285M7.329,72.644v2.613l2.262,1.307V73.951Z" fill="#27debf"/>
        <path id="Trazado_235979" data-name="Trazado 235979" d="M48.552,62.741l-2.92-1.687a.328.328,0,0,1-.164-.285V57.4a.329.329,0,0,1,.493-.286L48.88,58.8a.33.33,0,0,1,.165.285v3.372a.329.329,0,0,1-.493.285m-2.427-4.774v2.612l2.262,1.307V59.274Z" fill="#27debf"/>
        <path id="Trazado_235980" data-name="Trazado 235980" d="M48.552,99.817l-2.92-1.686a.329.329,0,0,1-.164-.285V94.474a.329.329,0,0,1,.493-.285l2.919,1.686a.33.33,0,0,1,.165.285v3.372a.329.329,0,0,1-.493.285m-2.427-4.774v2.613l2.262,1.307V96.35Z" fill="#27debf"/>
        <path id="Trazado_235981" data-name="Trazado 235981" d="M6.99,57.293A3.52,3.52,0,0,0,8.46,60.1c.812.469,1.47-.029,1.47-1.111a3.519,3.519,0,0,0-1.47-2.809c-.812-.469-1.47.028-1.47,1.111" fill="#27debf"/>
        <path id="Trazado_235982" data-name="Trazado 235982" d="M26.4,47.878a3.52,3.52,0,0,0,1.47,2.809c.812.469,1.47-.029,1.47-1.111a3.519,3.519,0,0,0-1.47-2.809c-.812-.469-1.47.028-1.47,1.111" fill="#27debf"/>
        <path id="Trazado_235983" data-name="Trazado 235983" d="M26.4,84.954a3.52,3.52,0,0,0,1.47,2.809c.812.469,1.47-.029,1.47-1.111a3.519,3.519,0,0,0-1.47-2.809c-.812-.469-1.47.028-1.47,1.111" fill="#27debf"/>
        <path id="Trazado_235984" data-name="Trazado 235984" d="M45.787,79.743a3.52,3.52,0,0,0,1.47,2.809c.812.469,1.471-.029,1.471-1.111a3.52,3.52,0,0,0-1.471-2.809c-.812-.469-1.47.028-1.47,1.111" fill="#27debf"/>
        <path id="Trazado_235985" data-name="Trazado 235985" d="M20.635,64.506l1.777,1.251a.723.723,0,0,1,.249.377,11.561,11.561,0,0,0,.45,1.508.37.37,0,0,1-.1.385l-1,.864a.3.3,0,0,0-.063.368l1.43,2.478a.305.305,0,0,0,.351.13l1.249-.436a.373.373,0,0,1,.382.108,11.775,11.775,0,0,0,1.081,1.144.729.729,0,0,1,.2.4l.2,2.165a.525.525,0,0,0,.232.363l1.945,1.123a.145.145,0,0,0,.235-.12l.19-1.89a.2.2,0,0,1,.259-.183,3.863,3.863,0,0,0,.937.1.484.484,0,0,1,.377.187l1.438,2.163a.262.262,0,0,0,.345.081l1.252-.723a.262.262,0,0,0,.1-.339L33,73.682a.485.485,0,0,1,.026-.42,3.827,3.827,0,0,0,.386-.858.207.207,0,0,1,.289-.134l1.731.781a.145.145,0,0,0,.222-.143V70.661a.522.522,0,0,0-.2-.382l-1.777-1.251a.723.723,0,0,1-.249-.377,11.562,11.562,0,0,0-.45-1.508.372.372,0,0,1,.1-.385l1-.864a.3.3,0,0,0,.063-.368l-1.43-2.478a.305.305,0,0,0-.351-.13l-1.249.436a.373.373,0,0,1-.382-.108A11.775,11.775,0,0,0,29.645,62.1a.725.725,0,0,1-.2-.4l-.2-2.165a.525.525,0,0,0-.232-.363l-1.945-1.123a.145.145,0,0,0-.235.12l-.19,1.89a.2.2,0,0,1-.259.183,3.863,3.863,0,0,0-.937-.1.478.478,0,0,1-.376-.187l-1.439-2.163a.261.261,0,0,0-.344-.081l-1.253.723a.262.262,0,0,0-.1.339L23.09,61.1a.478.478,0,0,1-.026.42,3.827,3.827,0,0,0-.386.858.207.207,0,0,1-.289.134l-1.731-.781a.145.145,0,0,0-.222.143v2.247a.522.522,0,0,0,.2.382m4.122.989c0-2.1,1.471-2.945,3.287-1.9A7.263,7.263,0,0,1,31.33,69.29c0,2.1-1.471,2.945-3.286,1.9A7.26,7.26,0,0,1,24.757,65.5" fill="#27debf"/>
        <path id="Trazado_235986" data-name="Trazado 235986" d="M99.208,147.8V136.966a4.542,4.542,0,0,0-2.055-3.559L8.726,82.354c-1.135-.656-2.055-.125-2.055,1.186V94.377a4.54,4.54,0,0,0,2.055,3.559L97.153,148.99c1.135.655,2.055.124,2.055-1.187" fill="#e0e0e0"/>
      </g>
    </g>
  </g>
</svg>
