<svg id="Grupo_981157" data-name="Grupo 981157" xmlns="http://www.w3.org/2000/svg" xmlns:xlink="http://www.w3.org/1999/xlink" width="22.343" height="81.851" viewBox="0 0 22.343 81.851">
  <defs>
    <clipPath id="clip-path">
      <rect id="Rectángulo_59203" data-name="Rectángulo 59203" width="22.342" height="81.851" fill="none"/>
    </clipPath>
    <clipPath id="clip-path-3">
      <rect id="Rectángulo_59199" data-name="Rectángulo 59199" width="3.489" height="19.702" transform="translate(4.371 8.565)" fill="none"/>
    </clipPath>
    <clipPath id="clip-path-4">
      <rect id="Rectángulo_59200" data-name="Rectángulo 59200" width="17.808" height="10.28" transform="translate(4.528)" fill="none"/>
    </clipPath>
    <clipPath id="clip-path-5">
      <rect id="Rectángulo_59201" data-name="Rectángulo 59201" width="7.36" height="7.159" transform="translate(0 14.59)" fill="none"/>
    </clipPath>
  </defs>
  <g id="Grupo_182802" data-name="Grupo 182802" clip-path="url(#clip-path)">
    <g id="Grupo_182801" data-name="Grupo 182801">
      <g id="Grupo_182800" data-name="Grupo 182800" clip-path="url(#clip-path)">
        <path id="Trazado_236004" data-name="Trazado 236004" d="M18.854,53.7,4.871,61.792a1.1,1.1,0,0,0-.5.864V79.747a1.088,1.088,0,0,0,.5.859l1.985,1.129a1.119,1.119,0,0,0,1,0l13.984-8.089a1.1,1.1,0,0,0,.5-.865V55.687a1.09,1.09,0,0,0-.5-.86L19.855,53.7a1.119,1.119,0,0,0-1,0" fill="#fdc77f"/>
        <path id="Trazado_236005" data-name="Trazado 236005" d="M7.86,81.73a1.145,1.145,0,0,1-1,.006L4.873,80.605a1.088,1.088,0,0,1-.5-.858V62.656a1.024,1.024,0,0,1,.159-.509l2.978,1.714c-.092.154-.147.332-.147.061V81.011c0,.721.2.889.5.719" fill="#d9953b"/>
        <path id="Trazado_236007" data-name="Trazado 236007" d="M3,75.33C2.689,75.143.3,73.8.223,73.752a.464.464,0,0,1-.1-.712l4.247-4.869L7.36,69.885,2.918,74.63a.472.472,0,0,0,.085.7" fill="#fdc77f"/>
        <path id="Trazado_236009" data-name="Trazado 236009" d="M21.843,55.4,7.86,63.488a1.1,1.1,0,0,0-.5.864v5.535L2.917,74.63a.448.448,0,0,0,.286.765l4.158-.3h0v6.351c0,.319.223.448.5.288l13.983-8.089a1.1,1.1,0,0,0,.5-.864V55.687c0-.318-.223-.447-.5-.288" fill="#f4a338"/>
        <path id="Trazado_236010" data-name="Trazado 236010" d="M19.073,70.568l-2.844-2.15,2.959-5.653a1.074,1.074,0,1,0-1.9-1l-2.793,5.337-2.558-1.934a1.074,1.074,0,0,0-1.3,1.714l2.843,2.15-2.833,5.414a1.074,1.074,0,1,0,1.9,1l2.667-5.1,2.558,1.933a1.074,1.074,0,1,0,1.3-1.714" fill="#fafafa"/>
        <path id="Trazado_236011" data-name="Trazado 236011" d="M7.86,54.939a1.145,1.145,0,0,1-1,.006L4.873,53.814c-.276-.155-.5-.54-.5-.428V36.295a1.646,1.646,0,0,1,.159-.939L7.508,37.07a1.653,1.653,0,0,0-.147.921V55.08c0-.139.2.029.5-.141" fill="#263238"/>
        <path id="Trazado_236012" data-name="Trazado 236012" d="M22.336,28.805c-.039-.251-.244-.341-.493-.2L7.861,36.7a1.028,1.028,0,0,0-.353.374l-2.98-1.714A1,1,0,0,1,4.871,35l13.984-8.09a1.119,1.119,0,0,1,1,0l1.984,1.129a1.1,1.1,0,0,1,.5.77" fill="#455a64"/>
        <path id="Trazado_236013" data-name="Trazado 236013" d="M3,48.539c-.314-.187-2.7-1.534-2.78-1.578a.464.464,0,0,1-.1-.712L4.371,41.38,7.36,43.094,2.918,47.839a.472.472,0,0,0,.085.7" fill="#455a64"/>
        <path id="Trazado_236014" data-name="Trazado 236014" d="M21.843,28.608,7.86,36.7a1.1,1.1,0,0,0-.5.865V43.1L2.917,47.839A.448.448,0,0,0,3.2,48.6l4.158-.3v6.35c0,.319.223.448.5.288L21.843,46.85a1.1,1.1,0,0,0,.5-.864V28.9c0-.318-.223-.447-.5-.288" fill="#37474f"/>
        <path id="Trazado_236015" data-name="Trazado 236015" d="M20.007,40.662l-.329-2.445a.294.294,0,0,0-.476-.19l-.824.663a3.773,3.773,0,0,0-.5-1.164l0-.01v0l0,0,.423-1,.55-1.916a.3.3,0,0,0-.2-.364.322.322,0,0,0-.081-.011.3.3,0,0,0-.284.213l-.532,1.863-.312.74a2.133,2.133,0,0,0-.278-.207,1.87,1.87,0,0,0-.938-.281l.5-1.931a.294.294,0,0,0-.211-.359.307.307,0,0,0-.074-.01.294.294,0,0,0-.285.221l-.555,2.151a2.9,2.9,0,0,0-.654.259,3.94,3.94,0,0,0-.458.291l-.355-1.313a.294.294,0,0,0-.284-.218.339.339,0,0,0-.077.01.3.3,0,0,0-.207.362L14,37.579a7.806,7.806,0,0,0-1.51,2.071l-.132-.206-.421-1.31a.294.294,0,0,0-.281-.2.3.3,0,0,0-.089.014.3.3,0,0,0-.191.371l.443,1.385.373.574a10.939,10.939,0,0,0-.684,2.153.25.25,0,0,0-.066.009l-1.024.269a.3.3,0,0,0-.216.235l-.493,2.886a.295.295,0,1,0,.581.1l.461-2.7.648-.171a9.686,9.686,0,0,0-.1,1.069,6.414,6.414,0,0,0,.262,2.153.3.3,0,0,0-.074.064l-.952,1.15a.3.3,0,0,0-.038.319l.917,1.857a.295.295,0,0,0,.529-.261l-.833-1.686.7-.844a2.482,2.482,0,0,0,.878.989,1.871,1.871,0,0,0,1,.284,2.563,2.563,0,0,0,1.215-.334l.019-.01.005,0a7.85,7.85,0,0,0,3.1-4.376.224.224,0,0,0,.037.01l.718.118-.943,2.587a.3.3,0,0,0,.176.378.287.287,0,0,0,.1.018.3.3,0,0,0,.277-.194l1.064-2.921a.294.294,0,0,0-.229-.392L18.2,42.862a9.965,9.965,0,0,0,.355-2.3,7.5,7.5,0,0,0-.056-1.221.239.239,0,0,0,.026-.018l.635-.511.259,1.926a.3.3,0,0,0,.291.256l.04,0a.295.295,0,0,0,.253-.331m-4.775-3.27a1.993,1.993,0,0,1,.936-.264,1.3,1.3,0,0,1,.7.2,1.577,1.577,0,0,1,.33.276,6.141,6.141,0,0,1-2.344,2.642,2.245,2.245,0,0,1-1.05.3,1.3,1.3,0,0,1-.915-.355,6.163,6.163,0,0,1,2.348-2.8m-3.341,6.751a10.012,10.012,0,0,1,.743-3.392,1.838,1.838,0,0,0,1.151.385,2.569,2.569,0,0,0,.894-.173l-.2,6.409a1.9,1.9,0,0,1-.786.189,1.293,1.293,0,0,1-.7-.2c-.742-.459-1.156-1.664-1.108-3.222m3.19,2.862.2-6.329a6.6,6.6,0,0,0,2.286-2.516,5.234,5.234,0,0,1,.407,2.386,9.086,9.086,0,0,1-2.89,6.459" fill="#27debf"/>
        <path id="Trazado_236016" data-name="Trazado 236016" d="M18.854.121,4.871,8.21c-.276.159-.5.547-.5,1.3v17.09c0-.112.225.273.5.429l1.985,1.129a1.119,1.119,0,0,0,1,0l13.984-8.089a1.1,1.1,0,0,0,.5-.864V2.105a1.092,1.092,0,0,0-.5-.86L19.855.117a1.119,1.119,0,0,0-1,0" fill="#27debf"/>
        <g id="Grupo_182793" data-name="Grupo 182793" opacity="0.2">
          <g id="Grupo_182792" data-name="Grupo 182792">
            <g id="Grupo_182791" data-name="Grupo 182791" clip-path="url(#clip-path-3)">
              <path id="Trazado_236017" data-name="Trazado 236017" d="M7.86,28.148a1.145,1.145,0,0,1-1,.006L4.873,27.023c-.276-.155-.5-.54-.5-.428V9.505a1.653,1.653,0,0,1,.159-.94l2.978,1.714c-.092.155-.147.332-.147.061V27.429c0,.721.2.889.5.719"/>
            </g>
          </g>
        </g>
        <g id="Grupo_182796" data-name="Grupo 182796" opacity="0.4">
          <g id="Grupo_182795" data-name="Grupo 182795">
            <g id="Grupo_182794" data-name="Grupo 182794" clip-path="url(#clip-path-4)">
              <path id="Trazado_236018" data-name="Trazado 236018" d="M22.336,2.015c-.039-.251-.244-.341-.493-.2L7.861,9.906a1.028,1.028,0,0,0-.353.374L4.528,8.566a1.012,1.012,0,0,1,.343-.356L18.855.121a1.119,1.119,0,0,1,1-.005L21.84,1.245a1.1,1.1,0,0,1,.5.77" fill="#fff"/>
            </g>
          </g>
        </g>
        <path id="Trazado_236019" data-name="Trazado 236019" d="M3,21.749c-.314-.187-2.7-1.534-2.78-1.578a.464.464,0,0,1-.1-.712L4.371,14.59,7.36,16.3,2.918,21.049a.471.471,0,0,0,.085.7" fill="#27debf"/>
        <g id="Grupo_182799" data-name="Grupo 182799" opacity="0.4">
          <g id="Grupo_182798" data-name="Grupo 182798">
            <g id="Grupo_182797" data-name="Grupo 182797" clip-path="url(#clip-path-5)">
              <path id="Trazado_236020" data-name="Trazado 236020" d="M3,21.749c-.314-.187-2.7-1.534-2.78-1.578a.464.464,0,0,1-.1-.712L4.371,14.59,7.36,16.3,2.918,21.049a.471.471,0,0,0,.085.7" fill="#fff"/>
            </g>
          </g>
        </g>
        <path id="Trazado_236021" data-name="Trazado 236021" d="M21.843,1.817,7.86,9.906a1.1,1.1,0,0,0-.5.865v5.534L2.917,21.048a.448.448,0,0,0,.286.765l4.158-.3v6.35c0,.319.223.448.5.288l13.983-8.089a1.1,1.1,0,0,0,.5-.864V2.105c0-.318-.223-.447-.5-.288" fill="#27debf"/>
        <path id="Trazado_236022" data-name="Trazado 236022" d="M19.249,6.59a1.244,1.244,0,0,0-1.627.663L12.927,18.425l-1.118-1.088a1.242,1.242,0,1,0-1.731,1.782L12.5,21.475a1.242,1.242,0,0,0,2.011-.409l5.4-12.849a1.244,1.244,0,0,0-.663-1.627" fill="#fafafa"/>
      </g>
    </g>
  </g>
</svg>
