<svg xmlns="http://www.w3.org/2000/svg" xmlns:xlink="http://www.w3.org/1999/xlink" width="413.123" height="405.731" viewBox="0 0 413.123 405.731">
  <defs>
    <linearGradient id="linear-gradient" x1="0.5" x2="0.5" y2="1" gradientUnits="objectBoundingBox">
      <stop offset="0" stop-color="#fff"/>
      <stop offset="1" stop-color="#d2e6ee"/>
    </linearGradient>
    <linearGradient id="linear-gradient-2" x1="0.167" y1="-0.077" x2="0.833" y2="1.077" gradientUnits="objectBoundingBox">
      <stop offset="0" stop-color="#b1b2f3"/>
      <stop offset="1" stop-color="#9d9ef0"/>
    </linearGradient>
    <linearGradient id="linear-gradient-5" x1="0.314" y1="-0.604" x2="0.686" y2="1.604" xlink:href="#linear-gradient-2"/>
  </defs>
  <g id="Grupo_179789" data-name="Grupo 179789" transform="translate(0 0)">
    <g id="Grupo_29020" data-name="Grupo 29020" transform="translate(197.989 14.636)">
      <path id="Trazado_68871" data-name="Trazado 68871" d="M543.705,126.019Z" transform="translate(-505.183 -115.422)" fill="#cbd9e4"/>
      <path id="Trazado_68872" data-name="Trazado 68872" d="M550.737,133.377l-2.388.467a18.118,18.118,0,0,0-1.935-5.316l2.126-1.178a20.53,20.53,0,0,0-6.46-7.069l-1.361,2.011a18.111,18.111,0,0,0-5.124-2.4l.672-2.328-.108-.031a20.475,20.475,0,0,0-9.463-.412l.46,2.388a18.151,18.151,0,0,0-5.322,1.921l-1.171-2.129a20.533,20.533,0,0,0-7.086,6.442l2.007,1.364a18.14,18.14,0,0,0-2.413,5.12l-2.327-.678-.046.16a20.479,20.479,0,0,0-.424,9.407l2.389-.453a18.141,18.141,0,0,0,1.907,5.328l-2.132,1.165h0a20.551,20.551,0,0,0,6.421,7.1l1.37-2a18.13,18.13,0,0,0,5.114,2.423l-.685,2.327h0l.214.063a20.492,20.492,0,0,0,9.573.391l-.474-2.387a18.151,18.151,0,0,0,5.312-1.951l1.184,2.124a20.537,20.537,0,0,0,7.051-6.478l-2.016-1.356a18.142,18.142,0,0,0,2.39-5.13l2.328.666.015-.054a20.447,20.447,0,0,0,.4-9.518Zm-20.162,16.155a12.245,12.245,0,1,1,11.757-8.9A12.21,12.21,0,0,1,530.575,149.531Z" transform="translate(-510.018 -116.752)" fill="#cbd9e4"/>
    </g>
    <g id="Grupo_29021" data-name="Grupo 29021" transform="translate(44.75 79.372)">
      <path id="Trazado_68873" data-name="Trazado 68873" d="M668.156,468.216a71.576,71.576,0,1,0-125.783,0Z" transform="translate(-353.382 -146.222)" fill="#fff"/>
      <ellipse id="Elipse_3363" data-name="Elipse 3363" cx="95.307" cy="95.307" rx="95.307" ry="95.307" transform="translate(0 60.858)" fill="#fff"/>
      <ellipse id="Elipse_3364" data-name="Elipse 3364" cx="71.576" cy="71.576" rx="71.576" ry="71.576" transform="translate(43.826)" fill="#fff"/>
      <ellipse id="Elipse_3365" data-name="Elipse 3365" cx="71.576" cy="71.576" rx="71.576" ry="71.576" transform="translate(119.502 142.206) rotate(-79.905)" fill="#fff"/>
      <ellipse id="Elipse_3366" data-name="Elipse 3366" cx="56.215" cy="56.215" rx="56.215" ry="56.215" transform="translate(173.559 126.759)" fill="#fff"/>
      <path id="Trazado_68874" data-name="Trazado 68874" d="M402.831,391.568a71.573,71.573,0,0,0,20.422,79.425H580.072a71.564,71.564,0,0,0-79.1-118.775,71.6,71.6,0,0,0-84.623,16.962,13.078,13.078,0,1,0-13.517,22.388Z" transform="translate(-373.103 -148.999)" fill="#fff"/>
    </g>
    <g id="Grupo_29048" data-name="Grupo 29048" transform="translate(120.976 62.923)">
      <g id="Grupo_29044" data-name="Grupo 29044">
        <g id="Grupo_29043" data-name="Grupo 29043">
          <g id="Grupo_29042" data-name="Grupo 29042">
            <path id="Rectángulo_26499" data-name="Rectángulo 26499" d="M8.851,0H168.389a8.85,8.85,0,0,1,8.85,8.85V327.583a8.851,8.851,0,0,1-8.851,8.851H8.85A8.85,8.85,0,0,1,0,327.584V8.851A8.851,8.851,0,0,1,8.851,0Z" transform="translate(1.143 1.143)" fill="#00223d"/>
            <path id="Trazado_68906" data-name="Trazado 68906" d="M610.933,161.265a8.976,8.976,0,0,1,8.977,8.977V486.435a8.977,8.977,0,0,1-8.977,8.977h-157a8.977,8.977,0,0,1-8.977-8.977V170.242a8.977,8.977,0,0,1,8.977-8.977h157m0-2.287h-157a11.276,11.276,0,0,0-11.264,11.264V486.435A11.277,11.277,0,0,0,453.936,497.7h157A11.276,11.276,0,0,0,622.2,486.435V170.242a11.276,11.276,0,0,0-11.264-11.264Z" transform="translate(-442.672 -158.978)" fill="#b4b7c6"/>
          </g>
        </g>
      </g>
      <g id="Grupo_29045" data-name="Grupo 29045" transform="translate(2.287 19.526)">
        <path id="Trazado_68907" data-name="Trazado 68907" d="M619.625,186.426V465.347a10.373,10.373,0,0,1-10.373,10.374H455.045a10.373,10.373,0,0,1-10.373-10.374V186.426a10.373,10.373,0,0,1,10.373-10.373H609.252A10.373,10.373,0,0,1,619.625,186.426Z" transform="translate(-444.672 -176.053)" fill="url(#linear-gradient)"/>
      </g>
      <g id="Grupo_29046" data-name="Grupo 29046" transform="translate(77.066 9.16)">
        <path id="Trazado_68908" data-name="Trazado 68908" d="M533.455,170.993H512.067a2,2,0,0,1-2-2h0a2,2,0,0,1,2-2h21.388a2,2,0,0,1,2,2h0A2,2,0,0,1,533.455,170.993Z" transform="translate(-510.065 -166.988)" fill="#161c59"/>
      </g>
      <g id="Grupo_29047" data-name="Grupo 29047" transform="translate(68.808 9.16)">
        <path id="Trazado_68909" data-name="Trazado 68909" d="M506.848,168.99a2,2,0,1,1-2-2A2,2,0,0,1,506.848,168.99Z" transform="translate(-502.843 -166.988)" fill="#161c59"/>
      </g>
    </g>
    <path id="Rectángulo_26500" data-name="Rectángulo 26500" d="M2.949,0H137.014a2.949,2.949,0,0,1,2.949,2.949V13.51a2.948,2.948,0,0,1-2.948,2.948H2.948A2.948,2.948,0,0,1,0,13.51V2.949A2.949,2.949,0,0,1,2.949,0Z" transform="translate(140.757 196.195)" fill="#e6e7e8" style="mix-blend-mode: multiply;isolation: isolate"/>
    <rect id="Rectángulo_26501" data-name="Rectángulo 26501" width="41.237" height="19.429" rx="2.106" transform="translate(140.04 98.023)" fill="#e6e7e8" style="mix-blend-mode: multiply;isolation: isolate"/>
    <rect id="Rectángulo_26502" data-name="Rectángulo 26502" width="41.237" height="19.429" rx="2.106" transform="translate(190.121 98.023)" fill="#e6e7e8" style="mix-blend-mode: multiply;isolation: isolate"/>
    <rect id="Rectángulo_26503" data-name="Rectángulo 26503" width="41.237" height="19.429" rx="2.106" transform="translate(240.201 98.023)" fill="#e6e7e8" style="mix-blend-mode: multiply;isolation: isolate"/>
    <rect id="Rectángulo_26504" data-name="Rectángulo 26504" width="61.672" height="61.672" rx="2.455" transform="translate(145.909 262.114)" stroke="#707070" stroke-miterlimit="10" stroke-width="8" opacity="0.4" fill="url(#linear-gradient-2)" style="mix-blend-mode: multiply;isolation: isolate"/>
    <rect id="Rectángulo_26505" data-name="Rectángulo 26505" width="61.672" height="61.672" rx="2.455" transform="translate(225.921 262.114)" stroke="#707070" stroke-miterlimit="10" stroke-width="8" opacity="0.4" fill="url(#linear-gradient-2)" style="mix-blend-mode: multiply;isolation: isolate"/>
    <rect id="Rectángulo_26506" data-name="Rectángulo 26506" width="61.672" height="61.672" rx="2.455" transform="translate(305.934 262.114)" stroke="#707070" stroke-miterlimit="10" stroke-width="8" opacity="0.4" fill="url(#linear-gradient-2)" style="mix-blend-mode: multiply;isolation: isolate"/>
    <rect id="Rectángulo_26507" data-name="Rectángulo 26507" width="61.673" height="61.672" rx="2.455" transform="translate(141.507 257.712)" fill="#fff"/>
    <rect id="Rectángulo_26508" data-name="Rectángulo 26508" width="61.673" height="61.672" rx="2.455" transform="translate(221.519 257.712)" fill="#fff"/>
    <rect id="Rectángulo_26509" data-name="Rectángulo 26509" width="61.673" height="29.634" rx="1.702" transform="translate(221.519 331.349)" fill="#e6e7e8" style="mix-blend-mode: multiply;isolation: isolate"/>
    <rect id="Rectángulo_26510" data-name="Rectángulo 26510" width="61.672" height="29.634" rx="1.702" transform="translate(140.884 331.349)" fill="#e6e7e8" style="mix-blend-mode: multiply;isolation: isolate"/>
    <rect id="Rectángulo_26511" data-name="Rectángulo 26511" width="61.672" height="61.672" rx="2.455" transform="translate(301.532 257.712)" fill="#fff"/>
    <g id="Grupo_29049" data-name="Grupo 29049" transform="translate(140.04 122.623)">
      <rect id="Rectángulo_26512" data-name="Rectángulo 26512" width="41.237" height="4.593" rx="1.646" fill="#707070"/>
      <rect id="Rectángulo_26513" data-name="Rectángulo 26513" width="41.237" height="4.593" rx="1.646" transform="translate(50.08)" fill="#707070"/>
      <rect id="Rectángulo_26514" data-name="Rectángulo 26514" width="41.237" height="4.593" rx="1.646" transform="translate(100.161)" fill="#707070"/>
    </g>
    <g id="Grupo_29050" data-name="Grupo 29050" transform="translate(140.04 132.338)" style="mix-blend-mode: multiply;isolation: isolate">
      <rect id="Rectángulo_26515" data-name="Rectángulo 26515" width="41.237" height="4.593" rx="1.646" fill="#e6e7e8"/>
      <rect id="Rectángulo_26516" data-name="Rectángulo 26516" width="41.237" height="4.593" rx="1.646" transform="translate(50.08)" fill="#e6e7e8"/>
      <rect id="Rectángulo_26517" data-name="Rectángulo 26517" width="41.237" height="4.593" rx="1.646" transform="translate(100.161)" fill="#e6e7e8"/>
    </g>
    <g id="Grupo_29053" data-name="Grupo 29053" transform="translate(340.241 266.331)">
      <path id="Trazado_68910" data-name="Trazado 68910" d="M670.373,425.771c-3.092-.259-3.313-17.567-2.836-24.914s2.226-13.045,6-12.729,4.549,6.228,3.792,13.552S673.466,426.031,670.373,425.771Z" transform="translate(-629.688 -329.497)" fill="#ffc8af"/>
      <path id="Trazado_68911" data-name="Trazado 68911" d="M684.959,453.8c-2.552,1.03-11.928-21.375-13.975-26.441s-3.815-10.573-.955-11.728,5.412,4.034,7.459,9.1S687.51,452.769,684.959,453.8Z" transform="translate(-629.517 -325.57)" fill="#ffc8af"/>
      <path id="Trazado_68912" data-name="Trazado 68912" d="M685.392,454.57c-1.672,1.149-5.133,1.891-5.448,1.307s.225-2.228.7-3.412l.007-.011c.144-.351.279-.662.383-.892.123-.29.206-.46.206-.46s-5.542-21.9-4.517-22.179c1.113-.3,8.53,21.433,8.53,21.433s.037.137.1.332l.085.28.565,1.886C686.074,453.082,686.62,453.742,685.392,454.57Z" transform="translate(-628.359 -323.639)" fill="#ffc8af"/>
      <path id="Trazado_68913" data-name="Trazado 68913" d="M684.985,451.8c-1.672,1.149-5.133,1.891-5.448,1.307s.224-2.228.7-3.412l.007-.011c.144-.351.279-.662.383-.892.105.219.265.543.389.83.219.5.5.506,1.526-.164a19.829,19.829,0,0,1,2.487-1.26s.661,1.386.842,1.864C685.958,450.287,686.212,450.974,684.985,451.8Z" transform="translate(-627.951 -320.872)" fill="#262b7f"/>
      <g id="Grupo_29052" data-name="Grupo 29052" transform="translate(39.66 22.516)">
        <path id="Trazado_68914" data-name="Trazado 68914" d="M684.533,383.019c-2.065.859-8.164-10.671-10.389-15.758s-3.069-9.49-.549-10.539,5.049,2.657,7.087,7.819S686.6,382.16,684.533,383.019Z" transform="translate(-668.672 -356.544)" fill="#ffc8af"/>
        <g id="Grupo_29051" data-name="Grupo 29051" transform="translate(0 22.92)">
          <path id="Trazado_68915" data-name="Trazado 68915" d="M672.817,401.436c-1.8-.827,3.781-14.317,5.5-18.062s3.8-7.573,5.825-6.646.486,5.005-1.23,8.751S674.62,402.262,672.817,401.436Z" transform="translate(-668.612 -376.587)" fill="#ffc8af"/>
          <path id="Trazado_68916" data-name="Trazado 68916" d="M674.786,395.309c2.2.815.318,4.525-.369,5.767-1.118,2.023-4.244,3.024-5.035,2.6s2.086-4.811,1.988-5.062-1.41,2.25-2.112,1.776,1.042-3.439,2.182-4.347S673.411,394.8,674.786,395.309Z" transform="translate(-669.096 -373.934)" fill="#ffc8af"/>
        </g>
      </g>
      <path id="Trazado_68917" data-name="Trazado 68917" d="M670.055,452.48c.187.743.565,1.576.159,2.311a2.037,2.037,0,0,1-1.445.853,16.372,16.372,0,0,1-2.4.343,8.839,8.839,0,0,1-.98.079c-.272,0-.54-.051-.809-.066-.531-.032-1.064-.01-1.594-.056-.052,0-.41.008-.459-.063s.044-.168.087-.207c.228-.2.529-.29.765-.48.264-.214.507-.454.775-.664a7.406,7.406,0,0,1,1.734-1.051c.12-.05-3.547-23.032-2.453-23.27C664.426,429.991,670.053,452.469,670.055,452.48Z" transform="translate(-630.382 -323.455)" fill="#ffc8af"/>
      <path id="Trazado_68918" data-name="Trazado 68918" d="M657.288,426.492c-3.033-.662-.991-17.849.44-25.072s3.911-12.643,7.612-11.836,3.7,6.769,1.99,13.931S660.319,427.153,657.288,426.492Z" transform="translate(-631.357 -329.297)" fill="#ffc8af"/>
      <path id="Trazado_68919" data-name="Trazado 68919" d="M669.732,455.417c-2.626.823-10.62-22.145-12.255-27.358s-2.958-10.844-.015-11.767,5.073,4.454,6.708,9.667S672.358,454.594,669.732,455.417Z" transform="translate(-631.357 -325.467)" fill="#ffc8af"/>
      <path id="Trazado_68920" data-name="Trazado 68920" d="M670.687,451.023l0,2.583a.471.471,0,0,1-.47.471l-8.313,0a.753.753,0,0,1-.455-1.357,31.462,31.462,0,0,1,4.579-2.49c.34.3.852,1.226,1.45,1.337A16.689,16.689,0,0,0,670.687,451.023Z" transform="translate(-630.578 -320.581)" fill="#262b7f"/>
      <path id="Trazado_68921" data-name="Trazado 68921" d="M638.084,365.263c1.3-1.477,12.529,7.657,15.6,10.351s6.115,5.763,4.66,7.42-4.893-.96-7.965-3.652S636.787,366.742,638.084,365.263Z" transform="translate(-633.903 -332.8)" fill="#ffc8af"/>
      <path id="Trazado_68922" data-name="Trazado 68922" d="M678.665,399.838l-19.253-.8-.844-32.937,1.33-8.272,8.892-3.269,5.728,1.093a6.718,6.718,0,0,1,5.455,6.835L677.887,385.8Z" transform="translate(-630.947 -334.313)" fill="#ffc8af"/>
      <path id="Trazado_68923" data-name="Trazado 68923" d="M670.242,351.011v6.619a9.827,9.827,0,0,1-4.672.836c-1.764,0-2.16-.836-2.16-.836v-2.447Z" transform="translate(-630.252 -334.822)" fill="#ffc8af"/>
      <path id="Trazado_68924" data-name="Trazado 68924" d="M671.767,347.912c-.015.24-.023.464-.039.68,0,.078.008.155.008.24.163,3.929-2.359,8.136-6.155,8.708,0,0-.031.008-.086.016-.031,0-.076.007-.131.007-.812.1-3.751.341-4.826-.843a10,10,0,0,1-2.382-5.687,22.288,22.288,0,0,1,.318-2.86c0-.549-.3-2.267-.3-3.013-.025-3.506,2.334-6.986,6.526-6.986C670.986,338.175,671.946,343.689,671.767,347.912Z" transform="translate(-631.007 -336.665)" fill="#ffc8af"/>
      <path id="Trazado_68925" data-name="Trazado 68925" d="M663.414,356.6" transform="translate(-630.252 -334.02)" fill="#6ebaad"/>
      <path id="Trazado_68926" data-name="Trazado 68926" d="M659.576,357.525c-1.338,1.241-2.378,3.412-2.63,7.855a16.39,16.39,0,0,0,.674,8.8c2.936,7.32,1.137,16.4,1.137,16.4l19.947.736s.421-13.374,1.1-17.639c2.057-12.873-.016-17.016-3.6-18.022C670.83,354.152,660.914,356.283,659.576,357.525Z" transform="translate(-631.226 -334.229)" fill="#4dd0e1"/>
      <path id="Trazado_68927" data-name="Trazado 68927" d="M655.008,384.648c-2.148-.555-.086-13.323,1.19-18.678s3.241-9.345,5.862-8.669,2.409,5.119.938,10.423S657.154,385.2,655.008,384.648Z" transform="translate(-631.592 -333.93)" fill="#ffc8af"/>
      <path id="Trazado_68928" data-name="Trazado 68928" d="M634.6,361.347c.516-.575,3.321,2.182,4.223,2.893.136.107.232.172.266.167s.033-.053.01-.123c-.146-.44-1.252-1.983-.716-2.47.591-.534,2.8,1.561,3.546,2.9.042.073.1.154.129.223a2.969,2.969,0,0,1-.08,3.4c-1.3,1.923-4.435-.758-5.47-1.711a7.268,7.268,0,0,1-1.838-3.077A2.781,2.781,0,0,1,634.6,361.347Z" transform="translate(-634.414 -333.35)" fill="#ffc8af"/>
      <path id="Trazado_68929" data-name="Trazado 68929" d="M657.142,343.179a5.9,5.9,0,0,0,.122.635c.432,1.756,1.807,2.779,1.669,4.7a8.011,8.011,0,0,0,1.082,4.964c2.12,3.593-.809,2.8-.221,8.311.289,2.709,2.861,3.824,7.94,3.751s10.668-.147,10.522-3.973a7.024,7.024,0,0,0-1.4-3.8c-.975-1.477-1.811-2.716-1.28-4.536a10.566,10.566,0,0,0,.582-2.284c.116-1.921-1.261-2.54-2.33-3.785-1.148-1.338-.476-3.6-.86-5.21-1.251-5.239-6.681-5.854-11.091-4.435C659.178,338.382,656.725,340.084,657.142,343.179Z" transform="translate(-631.159 -336.854)" fill="#00223d"/>
      <path id="Trazado_68930" data-name="Trazado 68930" d="M677.424,382.215c-.167,4.185,2.99,9.674,3.478,13.843.979,8.352-4.8,24-4.8,25.007s5.406,14.58,7.5,22.855c0,0-1.177,1.691-6.841,2.722,0,0-8.687-18.9-9.492-23.168s.183-40.477.183-40.477Z" transform="translate(-629.743 -330.343)" fill="#00223d"/>
      <path id="Trazado_68931" data-name="Trazado 68931" d="M670.47,382.816H659.547a204.756,204.756,0,0,0-4.132,23.286c-1.618,13.386-1.1,17.358-.808,19.491s7.673,22.284,7.673,22.284a12.865,12.865,0,0,0,7.608-1.765s-2.484-11.474-4.616-16.769a52.759,52.759,0,0,1-2.366-6.472s6.141-13.092,7.673-22.433A55.255,55.255,0,0,0,670.47,382.816Z" transform="translate(-631.562 -330.257)" fill="#00223d"/>
    </g>
    <rect id="Rectángulo_26518" data-name="Rectángulo 26518" width="199.608" height="58.34" rx="1.881" transform="translate(66.44 149.907)" stroke="#707070" stroke-miterlimit="10" stroke-width="8" opacity="0.3" fill="url(#linear-gradient-5)" style="mix-blend-mode: multiply;isolation: isolate"/>
    <g id="Grupo_29065" data-name="Grupo 29065" transform="translate(57.165 142.571)">
      <g id="Grupo_29054" data-name="Grupo 29054" transform="translate(0 179.429)">
        <path id="Trazado_68932" data-name="Trazado 68932" d="M412.674,385.535V401.11h-5.5v12.318h5.5v.048H401.491v12.318h11.184v.048H397V438.16h15.672v.048H391.321v12.318h21.353v.048h-25.8v12.318h64.245V385.535Z" transform="translate(-386.871 -385.535)" fill="#00223d"/>
      </g>
      <path id="Trazado_68933" data-name="Trazado 68933" d="M433.546,385.535V401.11h-5.5v12.318h5.5v.048H422.362v12.318h11.184v.048H417.874V438.16h15.672v.048H412.193v12.318h21.353v.048h-25.8v12.318H448.12V385.535Z" transform="translate(-383.875 -206.107)" fill="#8998a5"/>
      <g id="Grupo_29064" data-name="Grupo 29064" transform="translate(10.742)">
        <path id="Trazado_68934" data-name="Trazado 68934" d="M430.784,356.131c3.268-.274,3.5-18.565,3-26.33s-2.352-13.786-6.342-13.451-4.806,6.581-4.007,14.322S427.516,356.406,430.784,356.131Z" transform="translate(-392.404 -216.039)" fill="#ffc8af"/>
        <path id="Trazado_68935" data-name="Trazado 68935" d="M416.257,385.752c2.7,1.089,12.606-22.589,14.769-27.944s4.032-11.173,1.009-12.395-5.72,4.264-7.882,9.618S413.561,384.662,416.257,385.752Z" transform="translate(-393.47 -211.89)" fill="#ffc8af"/>
        <path id="Trazado_68936" data-name="Trazado 68936" d="M414.824,386.564c1.768,1.216,5.426,2,5.758,1.381s-.237-2.353-.742-3.606l-.007-.011c-.152-.37-.3-.7-.4-.944-.13-.308-.217-.486-.217-.486s5.857-23.145,4.773-23.438c-1.176-.318-9.013,22.651-9.013,22.651s-.039.144-.1.35l-.09.3-.6,1.992C414.1,384.992,413.528,385.691,414.824,386.564Z" transform="translate(-393.72 -209.85)" fill="#ffc8af"/>
        <path id="Trazado_68937" data-name="Trazado 68937" d="M414.847,383.64c1.768,1.216,5.426,2,5.758,1.381s-.237-2.353-.742-3.606l-.007-.012c-.152-.371-.295-.7-.4-.943-.111.232-.28.574-.412.878-.23.53-.533.535-1.611-.174a20.867,20.867,0,0,0-2.629-1.331s-.7,1.464-.89,1.969C413.82,382.04,413.552,382.766,414.847,383.64Z" transform="translate(-393.744 -206.925)" fill="#00223d"/>
        <path id="Trazado_68938" data-name="Trazado 68938" d="M435.859,330.686s.135,16.711-.612,20.209-15.3,36.95-15.3,36.95a20.691,20.691,0,0,1-5.574-1.585s5.441-19.12,7.695-25.961,4.275-10.027,4.119-12.514-2.643-23.24-2.643-23.24l12.328-.52Z" transform="translate(-393.665 -214.936)" fill="#00223d"/>
        <g id="Grupo_29057" data-name="Grupo 29057" transform="translate(30.893 36.389)">
          <g id="Grupo_29055" data-name="Grupo 29055" transform="translate(23.376)">
            <path id="Trazado_68939" data-name="Trazado 68939" d="M466.64,265.13c-1.3-1.647-13.771,7.434-17.192,10.126s-6.835,5.786-5.383,7.633,5.263-.743,8.685-3.435S467.935,266.776,466.64,265.13Z" transform="translate(-443.722 -259.807)" fill="#ffc8af"/>
            <path id="Trazado_68940" data-name="Trazado 68940" d="M461.041,268.161c1.383,2.054,4.727-.8,5.832-1.809,1.8-1.651,2.054-5.111,1.424-5.818s-4.425,3.337-4.708,3.3,1.962-2.007,1.3-2.611-3.274,1.922-3.925,3.32S460.174,266.873,461.041,268.161Z" transform="translate(-441.323 -260.45)" fill="#ffc8af"/>
          </g>
          <g id="Grupo_29056" data-name="Grupo 29056" transform="translate(0 19.627)">
            <path id="Trazado_68941" data-name="Trazado 68941" d="M452.616,278.453c-.7-2.257-14.188.575-19.824,2.2s-9.786,3.917-8.936,6.673,5.569,2.31,11.143.478S453.312,280.712,452.616,278.453Z" transform="translate(-423.213 -277.614)" fill="#ffc8af"/>
            <path id="Trazado_68942" data-name="Trazado 68942" d="M423.808,288.161c-1.357-2.452-.093-5.107,3.689-6.6,4.377-1.725,13.433-3.56,13.433-3.56.1.214.19.426.275.633,2.239,5.235,1.23,6.9,1.23,6.9-6.474,2.6-14.061,4.656-16.605,3.788A7.417,7.417,0,0,1,423.808,288.161Z" transform="translate(-423.279 -277.558)" fill="#ffe3a1"/>
          </g>
        </g>
        <g id="Grupo_29060" data-name="Grupo 29060">
          <rect id="Rectángulo_26519" data-name="Rectángulo 26519" width="199.608" height="58.339" rx="1.47" fill="#00223d"/>
          <g id="Grupo_29058" data-name="Grupo 29058" transform="translate(9.04 8.498)">
            <rect id="Rectángulo_26520" data-name="Rectángulo 26520" width="41.344" height="41.344" rx="0.634" fill="#eef0f2"/>
          </g>
          <g id="Grupo_29059" data-name="Grupo 29059" transform="translate(63.593 10.857)">
            <rect id="Rectángulo_26521" data-name="Rectángulo 26521" width="116.298" height="5.184" rx="1.857" fill="#eef0f2"/>
            <rect id="Rectángulo_26522" data-name="Rectángulo 26522" width="116.298" height="5.184" rx="1.857" transform="translate(0 15.72)" fill="#eef0f2"/>
            <rect id="Rectángulo_26523" data-name="Rectángulo 26523" width="90.041" height="5.184" rx="1.857" transform="translate(0 31.441)" fill="#eef0f2"/>
          </g>
        </g>
        <path id="Trazado_68944" data-name="Trazado 68944" d="M430.815,384.357c-.159.633-.719,1.953-.2,2.533.319.358,1.087.383,1.518.4a4.774,4.774,0,0,0,1.6-.136c.685-.194,1.089-.347,1.267-1.068.406-1.646.572-3.349.812-5.029.363-2.535.722-5.072,1.059-7.61.343-2.576.673-5.156.923-7.743.094-.964.178-1.931.22-2.9a5.472,5.472,0,0,0-.046-1.706c-.025-.085-.042-.256-.152-.28C436.765,360.592,430.818,384.347,430.815,384.357Z" transform="translate(-391.365 -209.655)" fill="#ffc8af"/>
        <path id="Trazado_68945" data-name="Trazado 68945" d="M444.941,356.892c3.2-.7,1.046-18.864-.467-26.5s-4.133-13.362-8.044-12.508-3.906,7.153-2.1,14.722S441.737,357.591,444.941,356.892Z" transform="translate(-390.968 -215.829)" fill="#ffc8af"/>
        <path id="Trazado_68946" data-name="Trazado 68946" d="M432.044,387.461c2.774.87,11.223-23.4,12.951-28.912s3.126-11.459.016-12.435-5.361,4.707-7.089,10.216S429.269,386.59,432.044,387.461Z" transform="translate(-391.222 -211.781)" fill="#ffc8af"/>
        <path id="Trazado_68947" data-name="Trazado 68947" d="M430.245,382.819l0,2.731a.5.5,0,0,0,.5.5l8.784-.007a.8.8,0,0,0,.48-1.435,33.347,33.347,0,0,0-4.839-2.629c-.359.317-.9,1.3-1.531,1.413A17.632,17.632,0,0,1,430.245,382.819Z" transform="translate(-391.387 -206.618)" fill="#00223d"/>
        <path id="Trazado_68948" data-name="Trazado 68948" d="M423.5,328.725h21.642l.891-34.808-1.611-9.821-10.487-3.222-6.053,1.155a7.1,7.1,0,0,0-5.766,7.224l2.206,24.635Z" transform="translate(-392.554 -221.13)" fill="#ffc8af"/>
        <path id="Trazado_68949" data-name="Trazado 68949" d="M430.47,276.8V283.8s1.478.883,4.937.883c1.865,0,2.284-.883,2.284-.883v-2.586Z" transform="translate(-391.354 -221.714)" fill="#ffc8af"/>
        <path id="Trazado_68950" data-name="Trazado 68950" d="M429.761,273.529c.016.254.024.49.04.719,0,.082-.008.164-.008.254-.172,4.152,2.493,8.6,6.506,9.2,0,0,.033.008.09.016.033,0,.081.008.138.008.859.106,3.965.359,5.1-.891a10.572,10.572,0,0,0,2.518-6.01,23.6,23.6,0,0,0-.335-3.022c0-.58.311-2.4.317-3.185.027-3.705-2.467-7.381-6.9-7.381C430.586,263.239,429.572,269.067,429.761,273.529Z" transform="translate(-391.459 -223.661)" fill="#ffc8af"/>
        <path id="Trazado_68951" data-name="Trazado 68951" d="M436.781,283.034" transform="translate(-390.449 -220.819)" fill="#6ebaad"/>
        <g id="Grupo_29062" data-name="Grupo 29062" transform="translate(69.958 55.712)">
          <path id="Trazado_68952" data-name="Trazado 68952" d="M480.33,281.145c-1.268-1.646-13.727,7.237-17.146,9.873s-6.834,5.67-5.411,7.515,5.226-.685,8.645-3.321S481.6,282.791,480.33,281.145Z" transform="translate(-457.441 -276.832)" fill="#ffc8af"/>
          <g id="Grupo_29061" data-name="Grupo 29061" transform="translate(18.645)">
            <path id="Trazado_68953" data-name="Trazado 68953" d="M477.849,279.986a.758.758,0,0,1-.293.158c-.038-.008-.031-.058,0-.131.184-.454,1.453-2.008.92-2.557-.587-.6-3.056,1.46-3.934,2.821-.049.075-.113.158-.151.227-.728,1.344-.923,2.262-.143,3.589,1.244,2.116,4.727-.5,5.882-1.44a6.205,6.205,0,0,0,1.986-2.762C480.71,279.986,479.441,279.905,477.849,279.986Z" transform="translate(-473.746 -277.348)" fill="#ffc8af"/>
          </g>
        </g>
        <path id="Trazado_68954" data-name="Trazado 68954" d="M444.493,326.486c3.163,9.245,3.707,22.226,3.357,27.939s-11.726,35.439-11.726,35.439a8.541,8.541,0,0,1-5.712-1.295s8.343-35.078,7.878-37.876-6.754-25.43-6.754-25.43Z" transform="translate(-391.363 -214.758)" fill="#00223d"/>
        <path id="Trazado_68955" data-name="Trazado 68955" d="M439.058,281.952a22.071,22.071,0,0,1,5.728,1.939,25.336,25.336,0,0,1,2.042,8.453c.076,1.312.069,5.077.022,9.806-.13,12.135-.527,30.654-.527,30.654H421.57s1.819-27.18,1.1-31.687c-2.173-13.6.017-17.982,3.808-19.046C432.154,280.478,435.357,281.644,439.058,281.952Z" transform="translate(-392.632 -221.075)" fill="#26a69a"/>
        <path id="Trazado_68956" data-name="Trazado 68956" d="M442.548,273.25s-.078,2.721-.467,2.915-.468-.742-.544-1.458c-.087-.811-.156-2.2-1.4-2.04s-.839,2.906-.568,3.838-1.4,4.674-2.473,4.79-5.392.467-5.975-.428a18.34,18.34,0,0,1-2.021-7.617c-.117-3.381-.778-8.006,2.371-9.016,0,0,.46-2.432,5.017-1.849s4.851,1.188,6.68,1.227a6.4,6.4,0,0,0,2.155-.467s.839,3.877-1.648,4.576c0,0,.581,2.613-.313,3.041S442.595,272.348,442.548,273.25Z" transform="translate(-391.571 -223.796)" fill="#00223d"/>
        <g id="Grupo_29063" data-name="Grupo 29063" transform="translate(46.263 62.203)">
          <path id="Trazado_68957" data-name="Trazado 68957" d="M463.678,298.294c1.057-2.092-10.524-9.354-15.668-12.071s-9.682-3.939-10.972-1.386,2.388,5.482,7.626,8.009S462.622,300.386,463.678,298.294Z" transform="translate(-436.711 -282.964)" fill="#ffc8af"/>
          <path id="Trazado_68958" data-name="Trazado 68958" d="M437.895,283.62c-2.177,1.766-1.243,4.955,2.1,7.262,3.875,2.668,12.284,6.5,12.284,6.5.144-.186.28-.373.409-.556,3.363-4.595,2.755-6.439,2.755-6.439C449.728,286.392,440.8,281.262,437.895,283.62Z" transform="translate(-436.72 -283.024)" fill="#26a69a"/>
        </g>
        <path id="Trazado_68959" data-name="Trazado 68959" d="M469.443,288.048c-.544-.608-3.508,2.3-4.462,3.057,1.611-.253,3.112-.5,4.385-.734C469.694,289.318,469.746,288.386,469.443,288.048Z" transform="translate(-386.401 -220.112)" fill="#ffc8af"/>
      </g>
    </g>
    <path id="Trazado_68960" data-name="Trazado 68960" d="M391.595,231.609a27.364,27.364,0,1,0-14.808,24.307c4.466,1.449,12.7,4.087,12.7,4.087l-3.466-11.852A27.235,27.235,0,0,0,391.595,231.609Z" transform="translate(-336.881 -89.556)" fill="#cbd9e4"/>
    <g id="Grupo_29066" data-name="Grupo 29066" transform="translate(61.966 78.8)">
      <path id="Trazado_68961" data-name="Trazado 68961" d="M406.43,173.032a8.959,8.959,0,1,0,7.02,7.019A8.964,8.964,0,0,0,406.43,173.032Zm3.189,17.735a10.183,10.183,0,0,1-9.92,0,13.593,13.593,0,0,0-8.63,12.66v.3a20.876,20.876,0,0,0,27.191,0v-.3A13.6,13.6,0,0,0,409.619,190.768Z" transform="translate(-391.069 -172.862)" fill="#cbd9e4"/>
    </g>
    <g id="Grupo_29067" data-name="Grupo 29067" transform="translate(240.704 280.902)">
      <path id="Trazado_68962" data-name="Trazado 68962" d="M547.372,358.7v-2.362l6.562-3.066v1.9l-5.124,2.347,5.124,2.346v1.9Z" transform="translate(-547.372 -349.069)" fill="#00223d"/>
      <path id="Trazado_68963" data-name="Trazado 68963" d="M560.131,349.6h2.2l-6.146,15.293H554Z" transform="translate(-546.42 -349.596)" fill="#00223d"/>
      <path id="Trazado_68964" data-name="Trazado 68964" d="M562.012,361.76v-1.9l5.108-2.346-5.108-2.347v-1.9l6.562,3.066V358.7Z" transform="translate(-545.271 -349.069)" fill="#00223d"/>
    </g>
    <path id="Rectángulo_26524" data-name="Rectángulo 26524" d="M2.949,0H137.014a2.949,2.949,0,0,1,2.949,2.949V13.51a2.949,2.949,0,0,1-2.949,2.949H2.948A2.948,2.948,0,0,1,0,13.51V2.949A2.949,2.949,0,0,1,2.949,0Z" transform="translate(140.757 220.609)" fill="#707070"/>
    <path id="Trazado_68965" data-name="Trazado 68965" d="M494.436,357.536a6.477,6.477,0,0,0-.808-2.764l.8-.446a7.4,7.4,0,0,0-1.547-1.93l-.611.687a6.456,6.456,0,0,0-2.523-1.388l.25-.878-.012,0a7.4,7.4,0,0,0-2.016-.28c-.144,0-.289,0-.433.013l.055.916a6.469,6.469,0,0,0-2.764.806l-.446-.8a7.419,7.419,0,0,0-1.932,1.546l.686.612a6.454,6.454,0,0,0-1.388,2.522l-.879-.252,0,.018a7.394,7.394,0,0,0-.281,2.015c0,.143,0,.285.012.426l.916-.053a6.456,6.456,0,0,0,.805,2.764l-.8.446a7.416,7.416,0,0,0,1.545,1.931l.612-.685a6.437,6.437,0,0,0,2.52,1.391l-.252.879.023.006a7.411,7.411,0,0,0,2.016.281c.149,0,.3,0,.445-.014l-.056-.916a6.467,6.467,0,0,0,2.763-.811l.447.8a7.376,7.376,0,0,0,1.928-1.55l-.686-.609a6.44,6.44,0,0,0,1.385-2.524l.879.249v-.006a7.4,7.4,0,0,0,.281-2.015q0-.221-.014-.439Zm-8.067,6.06h0l.046-.16Zm5.373-4.606a3.908,3.908,0,1,1,.15-1.068A3.917,3.917,0,0,1,491.742,358.989Z" transform="translate(-316.254 -68.56)" fill="#00223d"/>
    <path id="Trazado_68966" data-name="Trazado 68966" d="M629.154,355.848V352.14H627.1v3.708h-3.708v2.058H627.1v3.708h2.058v-3.708h3.707v-2.058Z" transform="translate(-295.756 -68.329)" fill="#00223d"/>
    <g id="Grupo_29070" data-name="Grupo 29070" transform="translate(252.809 14.961)">
      <g id="Grupo_29069" data-name="Grupo 29069" transform="translate(0)">
        <rect id="Rectángulo_26525" data-name="Rectángulo 26525" width="144.996" height="92.12" rx="2.658" fill="url(#linear-gradient)"/>
        <g id="Grupo_29068" data-name="Grupo 29068" transform="translate(13.09 10.641)">
          <rect id="Rectángulo_26526" data-name="Rectángulo 26526" width="24.384" height="1.477" rx="0.443" transform="translate(73.555)" fill="#00223d"/>
          <rect id="Rectángulo_26527" data-name="Rectángulo 26527" width="69.678" height="1.477" rx="0.443" fill="#00223d"/>
          <rect id="Rectángulo_26528" data-name="Rectángulo 26528" width="24.3" height="1.477" rx="0.443" transform="translate(94.516 7.707)" fill="#00223d"/>
          <rect id="Rectángulo_26529" data-name="Rectángulo 26529" width="21.447" height="1.477" rx="0.443" transform="translate(0 7.707)" fill="#00223d"/>
          <rect id="Rectángulo_26530" data-name="Rectángulo 26530" width="65.516" height="1.477" rx="0.443" transform="translate(25.508 7.707)" fill="#00223d"/>
          <rect id="Rectángulo_26531" data-name="Rectángulo 26531" width="41.216" height="1.477" rx="0.443" transform="translate(68.873 15.414)" fill="#00223d"/>
          <rect id="Rectángulo_26532" data-name="Rectángulo 26532" width="64.778" height="1.477" rx="0.443" transform="translate(0 15.414)" fill="#00223d"/>
          <rect id="Rectángulo_26533" data-name="Rectángulo 26533" width="30.733" height="1.477" rx="0.443" transform="translate(0 23.12)" fill="#00223d"/>
          <rect id="Rectángulo_26534" data-name="Rectángulo 26534" width="84.407" height="1.477" rx="0.443" transform="translate(34.408 23.12)" fill="#00223d"/>
          <rect id="Rectángulo_26535" data-name="Rectángulo 26535" width="100.289" height="1.477" rx="0.443" transform="translate(0 30.827)" fill="#00223d"/>
          <rect id="Rectángulo_26536" data-name="Rectángulo 26536" width="17.252" height="1.477" rx="0.443" transform="translate(0 38.534)" fill="#00223d"/>
          <rect id="Rectángulo_26537" data-name="Rectángulo 26537" width="65.919" height="1.477" rx="0.443" transform="translate(21.816 38.534)" fill="#00223d"/>
          <rect id="Rectángulo_26538" data-name="Rectángulo 26538" width="19.87" height="1.477" rx="0.443" transform="translate(92.569 38.534)" fill="#00223d"/>
          <rect id="Rectángulo_26539" data-name="Rectángulo 26539" width="67.933" height="1.477" rx="0.443" transform="translate(0 46.241)" fill="#00223d"/>
          <rect id="Rectángulo_26540" data-name="Rectángulo 26540" width="46.385" height="1.477" rx="0.443" transform="translate(72.431 46.241)" fill="#00223d"/>
          <rect id="Rectángulo_26541" data-name="Rectángulo 26541" width="10.908" height="1.477" rx="0.443" transform="translate(102.974 53.948)" fill="#00223d"/>
          <rect id="Rectángulo_26542" data-name="Rectángulo 26542" width="29.251" height="1.477" rx="0.443" transform="translate(0 53.948)" fill="#00223d"/>
          <rect id="Rectángulo_26543" data-name="Rectángulo 26543" width="64.996" height="1.477" rx="0.443" transform="translate(33.48 53.948)" fill="#00223d"/>
          <rect id="Rectángulo_26544" data-name="Rectángulo 26544" width="53.702" height="1.477" rx="0.443" transform="translate(65.114 61.655)" fill="#00223d"/>
          <rect id="Rectángulo_26545" data-name="Rectángulo 26545" width="61.086" height="1.477" rx="0.443" transform="translate(0 61.655)" fill="#00223d"/>
          <rect id="Rectángulo_26546" data-name="Rectángulo 26546" width="71.692" height="1.477" rx="0.443" transform="translate(13.09 69.362)" fill="#00223d"/>
          <rect id="Rectángulo_26547" data-name="Rectángulo 26547" width="8.391" height="1.477" rx="0.443" transform="translate(0 69.362)" fill="#00223d"/>
        </g>
      </g>
    </g>
    <rect id="Rectángulo_26548" data-name="Rectángulo 26548" width="404.766" height="6.374" rx="2.787" transform="translate(8.357 399.356)" fill="#b3b5c4"/>
    <rect id="Rectángulo_26549" data-name="Rectángulo 26549" width="152.88" height="32.749" rx="3.608" transform="translate(27.635 22.39)" fill="#4dd0e1"/>
    <g id="Grupo_29071" data-name="Grupo 29071" transform="translate(64.729 30.933)">
      <rect id="Rectángulo_26550" data-name="Rectángulo 26550" width="102.831" height="2.217" rx="0.794" fill="#e6eef3"/>
      <rect id="Rectángulo_26551" data-name="Rectángulo 26551" width="102.831" height="2.217" rx="0.794" transform="translate(0 6.723)" fill="#e6eef3"/>
      <rect id="Rectángulo_26552" data-name="Rectángulo 26552" width="79.615" height="2.217" rx="0.794" transform="translate(0 13.446)" fill="#e6eef3"/>
    </g>
    <circle id="Elipse_3367" data-name="Elipse 3367" cx="11.786" cy="11.786" r="11.786" transform="translate(29.318 38.764) rotate(-45)" fill="#e6eef3"/>
    <g id="Grupo_29072" data-name="Grupo 29072" transform="translate(40.577 31.623)">
      <path id="Trazado_68967" data-name="Trazado 68967" d="M378.476,131.675a3.564,3.564,0,1,0,2.794,2.792A3.566,3.566,0,0,0,378.476,131.675Zm1.269,7.057a4.056,4.056,0,0,1-3.946,0,5.407,5.407,0,0,0-3.434,5.036v.118a8.3,8.3,0,0,0,10.819,0v-.118A5.411,5.411,0,0,0,379.745,138.731Z" transform="translate(-372.365 -131.607)" fill="#12263f"/>
    </g>
    <g id="Grupo_29077" data-name="Grupo 29077" transform="translate(2.155 231.955)">
      <rect id="Rectángulo_26553" data-name="Rectángulo 26553" width="77.092" height="48.075" rx="2.294" fill="#cbd9e4"/>
      <g id="Grupo_29075" data-name="Grupo 29075" transform="translate(6.697 10.422)">
        <g id="Grupo_29073" data-name="Grupo 29073">
          <rect id="Rectángulo_26554" data-name="Rectángulo 26554" width="4.671" height="27.231" fill="#f6c343"/>
          <rect id="Rectángulo_26555" data-name="Rectángulo 26555" width="4.671" height="27.231" transform="translate(10.007)" fill="#f6c343"/>
          <rect id="Rectángulo_26556" data-name="Rectángulo 26556" width="4.671" height="27.231" transform="translate(20.014)" fill="#f6c343"/>
          <rect id="Rectángulo_26557" data-name="Rectángulo 26557" width="4.671" height="27.231" transform="translate(30.02)" fill="#f6c343"/>
          <rect id="Rectángulo_26558" data-name="Rectángulo 26558" width="4.671" height="27.231" transform="translate(40.027)" fill="#f6c343"/>
        </g>
        <g id="Grupo_29074" data-name="Grupo 29074">
          <rect id="Rectángulo_26559" data-name="Rectángulo 26559" width="4.671" height="6.801" fill="#f1f1f1"/>
          <rect id="Rectángulo_26560" data-name="Rectángulo 26560" width="4.671" height="15.87" transform="translate(10.007)" fill="#f1f1f1"/>
          <rect id="Rectángulo_26561" data-name="Rectángulo 26561" width="4.671" height="11.579" transform="translate(20.014)" fill="#f1f1f1"/>
          <rect id="Rectángulo_26562" data-name="Rectángulo 26562" width="4.671" height="19.645" transform="translate(30.02)" fill="#f1f1f1"/>
          <rect id="Rectángulo_26563" data-name="Rectángulo 26563" width="4.671" height="23.159" transform="translate(40.027)" fill="#f1f1f1"/>
        </g>
      </g>
      <g id="Grupo_29076" data-name="Grupo 29076" transform="translate(56.434 10.422)" style="mix-blend-mode: multiply;isolation: isolate">
        <rect id="Rectángulo_26564" data-name="Rectángulo 26564" width="14.159" height="2.271" fill="#dce8ef"/>
        <rect id="Rectángulo_26565" data-name="Rectángulo 26565" width="14.159" height="2.271" transform="translate(0 4.992)" fill="#dce8ef"/>
        <rect id="Rectángulo_26566" data-name="Rectángulo 26566" width="14.159" height="2.271" transform="translate(0 9.984)" fill="#dce8ef"/>
        <rect id="Rectángulo_26567" data-name="Rectángulo 26567" width="14.159" height="2.271" transform="translate(0 14.976)" fill="#dce8ef"/>
        <rect id="Rectángulo_26568" data-name="Rectángulo 26568" width="14.159" height="2.271" transform="translate(0 19.968)" fill="#dce8ef"/>
        <rect id="Rectángulo_26569" data-name="Rectángulo 26569" width="14.159" height="2.271" transform="translate(0 24.96)" fill="#dce8ef"/>
      </g>
    </g>
    <g id="Grupo_29082" data-name="Grupo 29082" transform="translate(309.837 120.155)">
      <rect id="Rectángulo_26570" data-name="Rectángulo 26570" width="77.092" height="48.075" rx="2.294" transform="translate(0)" fill="url(#linear-gradient)"/>
      <g id="Grupo_29078" data-name="Grupo 29078" transform="translate(8.724 4.573)" style="mix-blend-mode: multiply;isolation: isolate">
        <line id="Línea_260" data-name="Línea 260" y2="38.929" transform="translate(59.644)" fill="none" stroke="#dce8ef" stroke-miterlimit="10" stroke-width="0.5"/>
        <line id="Línea_261" data-name="Línea 261" y2="38.929" transform="translate(49.703)" fill="none" stroke="#dce8ef" stroke-miterlimit="10" stroke-width="0.5"/>
        <line id="Línea_262" data-name="Línea 262" y2="38.929" transform="translate(39.763)" fill="none" stroke="#dce8ef" stroke-miterlimit="10" stroke-width="0.5"/>
        <line id="Línea_263" data-name="Línea 263" y2="38.929" transform="translate(29.822)" fill="none" stroke="#dce8ef" stroke-miterlimit="10" stroke-width="0.5"/>
        <line id="Línea_264" data-name="Línea 264" y2="38.929" transform="translate(19.881)" fill="none" stroke="#dce8ef" stroke-miterlimit="10" stroke-width="0.5"/>
        <line id="Línea_265" data-name="Línea 265" y2="38.929" fill="none" stroke="#dce8ef" stroke-miterlimit="10" stroke-width="0.5"/>
        <line id="Línea_266" data-name="Línea 266" y2="38.929" transform="translate(9.941)" fill="none" stroke="#dce8ef" stroke-miterlimit="10" stroke-width="0.5"/>
      </g>
      <g id="Grupo_29081" data-name="Grupo 29081" transform="translate(6.743 5.197)">
        <g id="Grupo_29080" data-name="Grupo 29080">
          <path id="Trazado_68968" data-name="Trazado 68968" d="M615.456,243.77l9.94-9.627,9.941-2.5,9.941-9.841,9.94,3.962,9.941-5.019L675.1,215.3" transform="translate(-613.475 -213.321)" fill="none" stroke="#f6c343" stroke-linecap="round" stroke-miterlimit="10" stroke-width="1"/>
          <g id="Grupo_29079" data-name="Grupo 29079">
            <rect id="Rectángulo_26571" data-name="Rectángulo 26571" width="3.962" height="3.962" transform="translate(0 28.468)" fill="#002b45"/>
            <rect id="Rectángulo_26572" data-name="Rectángulo 26572" width="3.962" height="3.962" transform="translate(9.941 18.841)" fill="#00223d"/>
            <rect id="Rectángulo_26573" data-name="Rectángulo 26573" width="3.962" height="3.962" transform="translate(19.881 16.343)" fill="#00223d"/>
            <rect id="Rectángulo_26574" data-name="Rectángulo 26574" width="3.962" height="3.962" transform="translate(29.822 6.502)" fill="#00223d"/>
            <rect id="Rectángulo_26575" data-name="Rectángulo 26575" width="3.962" height="3.962" transform="translate(39.763 10.464)" fill="#00223d"/>
            <rect id="Rectángulo_26576" data-name="Rectángulo 26576" width="3.962" height="3.962" transform="translate(49.703 5.446)" fill="#00223d"/>
            <rect id="Rectángulo_26577" data-name="Rectángulo 26577" width="3.962" height="3.962" transform="translate(59.644)" fill="#00223d"/>
          </g>
        </g>
      </g>
    </g>
    <path id="Trazado_68969" data-name="Trazado 68969" d="M380.56,231.234h.425a1.164,1.164,0,1,0,0-2.328h-.424l1.755-3.374h-4.525a15.714,15.714,0,1,0,0,9.077h4.526Zm-17.812,12.221a13.385,13.385,0,1,1,12.593-17.923h-.061l-1.755,3.374h-.5a10.346,10.346,0,1,0,0,2.328h.5l1.758,3.376h.059A13.408,13.408,0,0,1,362.748,243.455Zm4-14.549a4.168,4.168,0,1,0,0,2.328h3.931a8.017,8.017,0,1,1,0-2.328Z" transform="translate(-335.423 -88.106)" fill="#12263f"/>
    <path id="Trazado_68970" data-name="Trazado 68970" d="M641.291,319.475h10.891v-4.062H641.291ZM655.6,304.024c.082-.969.132-1.946.132-2.936a34.75,34.75,0,0,0-7.57-21.7,1.829,1.829,0,0,0-2.855,0,34.749,34.749,0,0,0-7.569,21.7c0,.989.05,1.967.132,2.936-5.429,3.655-9.008,12.7-5.037,19.684a.726.726,0,0,0,1.344-.174c.611-2.628,2.258-7.465,6.255-9.34H653.04c4,1.875,5.646,6.713,6.256,9.34a.726.726,0,0,0,1.343.174C664.61,316.725,661.031,307.678,655.6,304.024Zm-8.866-8.82a3.209,3.209,0,1,1,3.21-3.209A3.208,3.208,0,0,1,646.737,295.2Z" transform="translate(-294.643 -78.87)" fill="#12263f"/>
    <g id="Grupo_29083" data-name="Grupo 29083" transform="translate(31.1 64.145)">
      <path id="Trazado_68971" data-name="Trazado 68971" d="M366.482,164.857a2.4,2.4,0,1,0-1.7-.7,2.425,2.425,0,0,0,1.7.7" transform="translate(-364.077 -160.047)" fill="#cbd9e4"/>
      <path id="Trazado_68972" data-name="Trazado 68972" d="M397.818,164.857h.012a2.4,2.4,0,1,0,0-4.81h-.012a2.4,2.4,0,0,0,0,4.81Zm-16.723,0h.011a2.4,2.4,0,1,0,0-4.81h-.011a2.4,2.4,0,0,0,0,4.81Z" transform="translate(-361.979 -160.047)" fill="#cbd9e4"/>
      <path id="Trazado_68973" data-name="Trazado 68973" d="M410.353,164.857a2.4,2.4,0,1,0-1.7-.7,2.422,2.422,0,0,0,1.7.7" transform="translate(-357.78 -160.047)" fill="#cbd9e4"/>
    </g>
    <g id="Grupo_29084" data-name="Grupo 29084" transform="translate(324.811 0)">
      <path id="Trazado_68974" data-name="Trazado 68974" d="M623.326,108.762a2.4,2.4,0,1,0-1.7-.7,2.417,2.417,0,0,0,1.7.7" transform="translate(-620.921 -103.953)" fill="#cbd9e4"/>
      <path id="Trazado_68975" data-name="Trazado 68975" d="M654.662,108.762h.013a2.4,2.4,0,1,0,0-4.809h-.013a2.4,2.4,0,1,0,0,4.809Zm-16.723,0h.013a2.4,2.4,0,1,0,0-4.809h-.013a2.4,2.4,0,0,0,0,4.809Z" transform="translate(-618.823 -103.953)" fill="#cbd9e4"/>
      <path id="Trazado_68976" data-name="Trazado 68976" d="M667.2,108.762a2.4,2.4,0,1,0-1.7-.7,2.421,2.421,0,0,0,1.7.7" transform="translate(-614.624 -103.953)" fill="#cbd9e4"/>
    </g>
    <g id="Grupo_29085" data-name="Grupo 29085" transform="translate(32.279 362.704)">
      <path id="Trazado_68977" data-name="Trazado 68977" d="M375.695,431.717H365.108V421.13h10.587Zm-8.784-1.8h6.98v-6.98h-6.98Z" transform="translate(-365.108 -421.13)" fill="#dfe1f7"/>
    </g>
    <g id="Grupo_29086" data-name="Grupo 29086" transform="translate(383.188 220.68)">
      <path id="Trazado_68978" data-name="Trazado 68978" d="M682.558,307.52H671.971V296.933h10.587Zm-8.783-1.8h6.979v-6.979h-6.979Z" transform="translate(-671.971 -296.933)" fill="#cbd9e4"/>
    </g>
    <g id="Grupo_29087" data-name="Grupo 29087" transform="translate(383.188 238.108)">
      <path id="Trazado_68979" data-name="Trazado 68979" d="M682.558,322.761H671.971V312.174h10.587Zm-8.783-1.8h6.979v-6.979h-6.979Z" transform="translate(-671.971 -312.174)" fill="#cbd9e4"/>
    </g>
    <path id="Trazado_68980" data-name="Trazado 68980" d="M386.471,375.848v-6.305h-3.5v6.305h-6.306v3.5h6.306v6.306h3.5v-6.306h6.3v-3.5Z" transform="translate(-331.17 -65.831)" fill="#002b45"/>
    <path id="Trazado_68981" data-name="Trazado 68981" d="M639.326,439.247a2.073,2.073,0,1,0,1.465.607A2.086,2.086,0,0,0,639.326,439.247Zm10.691,0h-.01a2.073,2.073,0,0,0,0,4.145h.01a2.073,2.073,0,0,0,0-4.145Zm-10.691-10.586a2.073,2.073,0,1,0,1.465.607A2.092,2.092,0,0,0,639.326,428.661Zm10.681,4.145h.01a2.073,2.073,0,0,0,0-4.145h-.01a2.073,2.073,0,0,0,0,4.145Z" transform="translate(-293.766 -57.345)" fill="#f9fbfc"/>
    <path id="Trazado_68982" data-name="Trazado 68982" d="M350.293,296.407a2.4,2.4,0,1,0,1.7.7A2.425,2.425,0,0,0,350.293,296.407Zm12.405,0h-.011a2.4,2.4,0,1,0,0,4.81h.011a2.4,2.4,0,1,0,0-4.81Zm-12.405-12.281a2.4,2.4,0,1,0,1.7.7A2.423,2.423,0,0,0,350.293,284.126Zm12.394,4.808h.011a2.4,2.4,0,1,0,0-4.808h-.011a2.4,2.4,0,1,0,0,4.808Z" transform="translate(-335.301 -78.091)" fill="#cbd9e4"/>
    <path id="Trazado_68983" data-name="Trazado 68983" d="M661.246,270.391H651.31V272h9.936ZM654.8,280.413l1.134,1.134,7.025-7.026-1.134-1.134Zm14.258-10.022V272h9.936v-1.6ZM654.8,261.975,661.822,269l1.134-1.134-7.025-7.025Zm20.706,0-1.135-1.134-7.024,7.025L668.479,269Zm-8.159,12.547,7.024,7.026,1.135-1.134-7.025-7.026Zm-3-7.234h1.6v-9.934h-1.6Zm0,17.745h1.6V275.1h-1.6Z" transform="translate(-291.748 -81.934)" fill="#cbd9e4"/>
    <path id="Trazado_68984" data-name="Trazado 68984" d="M390.919,179.931H355.591a5.326,5.326,0,0,0-5.327,5.327v19.755" transform="translate(-334.96 -93.047)" fill="none" stroke="#cbd9e4" stroke-miterlimit="10" stroke-width="2"/>
    <path id="Trazado_68985" data-name="Trazado 68985" d="M660,290.711H688.42a3.778,3.778,0,0,1,3.778,3.777v49.893a3.778,3.778,0,0,1-3.778,3.777h-10.58" transform="translate(-290.501 -77.146)" fill="none" stroke="#cbd9e4" stroke-miterlimit="10" stroke-width="2"/>
    <path id="Trazado_68986" data-name="Trazado 68986" d="M374,379.9H354.186a5.114,5.114,0,0,1-5.114-5.114V353.538" transform="translate(-335.131 -68.128)" fill="none" stroke="#cbd9e4" stroke-miterlimit="10" stroke-width="2"/>
    <path id="Trazado_68987" data-name="Trazado 68987" d="M413.173,121.158V111.044a4.988,4.988,0,0,1,4.989-4.988h220.2" transform="translate(-325.93 -103.651)" fill="none" stroke="#cbd9e4" stroke-miterlimit="10" stroke-width="2"/>
    <line id="Línea_267" data-name="Línea 267" y2="48.544" transform="translate(53.551 324.747)" fill="none" stroke="#dfe1f7" stroke-miterlimit="10" stroke-width="2"/>
  </g>
</svg>
