<svg xmlns="http://www.w3.org/2000/svg" xmlns:xlink="http://www.w3.org/1999/xlink" width="333" height="252.223" viewBox="0 0 333 252.223">
  <defs>
    <filter id="Trazado_655372" x="0" y="30.138" width="333" height="222.084" filterUnits="userSpaceOnUse">
      <feOffset dy="3" input="SourceAlpha"/>
      <feGaussianBlur stdDeviation="3" result="blur"/>
      <feFlood flood-opacity="0.161"/>
      <feComposite operator="in" in2="blur"/>
      <feComposite in="SourceGraphic"/>
    </filter>
    <linearGradient id="linear-gradient" x1="0.5" x2="0.5" y2="1" gradientUnits="objectBoundingBox">
      <stop offset="0" stop-color="#f5f5f5"/>
      <stop offset="0.25" stop-color="#f5f5f5"/>
      <stop offset="1" stop-color="#a7b3cf"/>
    </linearGradient>
    <filter id="Trazado_655374" x="0" y="0" width="333" height="48.139" filterUnits="userSpaceOnUse">
      <feOffset dy="3" input="SourceAlpha"/>
      <feGaussianBlur stdDeviation="3" result="blur-2"/>
      <feFlood flood-opacity="0.161"/>
      <feComposite operator="in" in2="blur-2"/>
      <feComposite in="SourceGraphic"/>
    </filter>
  </defs>
  <g id="Grupo_981172" data-name="Grupo 981172" transform="translate(-906 -4136.277)">
    <g transform="matrix(1, 0, 0, 1, 906, 4136.28)" filter="url(#Trazado_655372)">
      <path id="Trazado_655372-2" data-name="Trazado 655372" d="M0,0H315V204.085H0Z" transform="translate(9 36.14)" fill="#12263f"/>
    </g>
    <path id="Trazado_655373" data-name="Trazado 655373" d="M5.339,20.3l2.879-8.927h2.03L6.08,23H4.565L.354,11.377h2.03ZM19.175,23a4.175,4.175,0,0,1-.279-1.225,4.434,4.434,0,0,1-3.309,1.439,4.1,4.1,0,0,1-2.82-.972,3.145,3.145,0,0,1-1.1-2.465,3.286,3.286,0,0,1,1.38-2.82,6.508,6.508,0,0,1,3.883-1h1.934V15.04a2.232,2.232,0,0,0-.623-1.66,2.5,2.5,0,0,0-1.837-.618,2.9,2.9,0,0,0-1.783.537,1.583,1.583,0,0,0-.72,1.3h-2a2.743,2.743,0,0,1,.618-1.681A4.216,4.216,0,0,1,14.2,11.635a5.638,5.638,0,0,1,2.326-.473,4.6,4.6,0,0,1,3.147,1,3.623,3.623,0,0,1,1.182,2.766v5.35a6.54,6.54,0,0,0,.408,2.546V23Zm-3.3-1.515A3.493,3.493,0,0,0,17.649,21a2.924,2.924,0,0,0,1.214-1.257V17.36H17.306q-3.652,0-3.652,2.138a1.809,1.809,0,0,0,.623,1.461A2.4,2.4,0,0,0,15.877,21.485ZM29.584,13.16a5.955,5.955,0,0,0-.978-.075,2.619,2.619,0,0,0-2.653,1.665V23H23.966V11.377H25.9l.032,1.343A3.094,3.094,0,0,1,28.7,11.162a2.03,2.03,0,0,1,.881.15Zm9.152-1.783.064,1.461a4.236,4.236,0,0,1,3.48-1.676q3.685,0,3.717,4.157V23H44.011V15.309a2.676,2.676,0,0,0-.575-1.858,2.3,2.3,0,0,0-1.756-.6,2.868,2.868,0,0,0-1.7.516,3.5,3.5,0,0,0-1.139,1.354V23H36.856V11.377Zm9.732,5.7a6.865,6.865,0,0,1,.671-3.072A5.008,5.008,0,0,1,51.009,11.9a5.088,5.088,0,0,1,2.734-.741,4.9,4.9,0,0,1,3.84,1.644,6.323,6.323,0,0,1,1.466,4.372v.14a6.925,6.925,0,0,1-.65,3.045,4.935,4.935,0,0,1-1.858,2.1,5.146,5.146,0,0,1-2.777.752,4.889,4.889,0,0,1-3.83-1.644,6.291,6.291,0,0,1-1.466-4.351Zm2,.236a4.972,4.972,0,0,0,.9,3.1,3.04,3.04,0,0,0,4.807-.016,5.437,5.437,0,0,0,.892-3.325,4.964,4.964,0,0,0-.908-3.1,2.886,2.886,0,0,0-2.412-1.187,2.854,2.854,0,0,0-2.374,1.171A5.4,5.4,0,0,0,50.467,17.317Zm12.944-5.94.054,1.289a4.292,4.292,0,0,1,3.448-1.5,3.323,3.323,0,0,1,3.319,1.869,4.4,4.4,0,0,1,1.509-1.354,4.458,4.458,0,0,1,2.2-.516q3.824,0,3.889,4.05V23H75.84V15.33a2.669,2.669,0,0,0-.569-1.864,2.507,2.507,0,0,0-1.912-.618,2.635,2.635,0,0,0-1.837.661,2.68,2.68,0,0,0-.849,1.778V23h-2V15.384a2.217,2.217,0,0,0-2.481-2.535,2.659,2.659,0,0,0-2.675,1.665V23H61.531V11.377Zm27.253,5.94A6.911,6.911,0,0,1,89.439,21.6a3.913,3.913,0,0,1-3.287,1.617,4.052,4.052,0,0,1-3.405-1.558L82.65,23H80.824V6.5h1.987v6.155a4.029,4.029,0,0,1,3.319-1.493,3.937,3.937,0,0,1,3.325,1.6,7.118,7.118,0,0,1,1.208,4.383Zm-1.987-.226a5.37,5.37,0,0,0-.784-3.137,2.6,2.6,0,0,0-2.256-1.106,2.918,2.918,0,0,0-2.825,1.826V19.7a3,3,0,0,0,2.847,1.826,2.582,2.582,0,0,0,2.224-1.106A5.711,5.711,0,0,0,88.677,17.092ZM98.785,13.16a5.955,5.955,0,0,0-.978-.075,2.619,2.619,0,0,0-2.653,1.665V23H93.167V11.377H95.1l.032,1.343A3.094,3.094,0,0,1,97.9,11.162a2.03,2.03,0,0,1,.881.15Zm6.649,10.055a5.078,5.078,0,0,1-3.846-1.552,5.761,5.761,0,0,1-1.482-4.152v-.365a6.975,6.975,0,0,1,.661-3.088,5.154,5.154,0,0,1,1.848-2.127,4.645,4.645,0,0,1,2.573-.768,4.353,4.353,0,0,1,3.523,1.493,6.465,6.465,0,0,1,1.257,4.275v.827h-7.874a4.132,4.132,0,0,0,1,2.777,3.157,3.157,0,0,0,2.444,1.058,3.461,3.461,0,0,0,1.783-.43,4.481,4.481,0,0,0,1.278-1.139l1.214.945A4.881,4.881,0,0,1,105.435,23.215Zm-.247-10.42a2.651,2.651,0,0,0-2.02.875,4.255,4.255,0,0,0-1.01,2.455h5.822v-.15a3.785,3.785,0,0,0-.816-2.347A2.5,2.5,0,0,0,105.188,12.795Zm12.568,7.466,4.469-12.9h2.256L118.68,23h-1.826l-5.79-15.641h2.245ZM132.945,23a4.175,4.175,0,0,1-.279-1.225,4.434,4.434,0,0,1-3.309,1.439,4.1,4.1,0,0,1-2.82-.972,3.145,3.145,0,0,1-1.1-2.465,3.286,3.286,0,0,1,1.38-2.82,6.508,6.508,0,0,1,3.883-1h1.934V15.04a2.232,2.232,0,0,0-.623-1.66,2.5,2.5,0,0,0-1.837-.618,2.9,2.9,0,0,0-1.783.537,1.583,1.583,0,0,0-.72,1.3h-2a2.743,2.743,0,0,1,.618-1.681,4.216,4.216,0,0,1,1.676-1.284,5.638,5.638,0,0,1,2.326-.473,4.6,4.6,0,0,1,3.147,1,3.623,3.623,0,0,1,1.182,2.766v5.35a6.54,6.54,0,0,0,.408,2.546V23Zm-3.3-1.515A3.493,3.493,0,0,0,131.42,21a2.924,2.924,0,0,0,1.214-1.257V17.36h-1.558q-3.652,0-3.652,2.138a1.809,1.809,0,0,0,.623,1.461A2.4,2.4,0,0,0,129.647,21.485Zm13.707-8.325a5.955,5.955,0,0,0-.978-.075,2.619,2.619,0,0,0-2.653,1.665V23h-1.987V11.377h1.934l.032,1.343a3.094,3.094,0,0,1,2.771-1.558,2.03,2.03,0,0,1,.881.15ZM147.34,23h-1.987V11.377h1.987ZM145.191,8.294a1.186,1.186,0,0,1,.3-.816,1.109,1.109,0,0,1,.875-.333,1.126,1.126,0,0,1,.881.333,1.174,1.174,0,0,1,.3.816,1.135,1.135,0,0,1-.3.806,1.147,1.147,0,0,1-.881.322,1.129,1.129,0,0,1-.875-.322A1.147,1.147,0,0,1,145.191,8.294ZM157.7,23a4.175,4.175,0,0,1-.279-1.225,4.434,4.434,0,0,1-3.309,1.439,4.1,4.1,0,0,1-2.82-.972,3.145,3.145,0,0,1-1.1-2.465,3.286,3.286,0,0,1,1.38-2.82,6.508,6.508,0,0,1,3.883-1h1.934V15.04a2.232,2.232,0,0,0-.623-1.66,2.5,2.5,0,0,0-1.837-.618,2.9,2.9,0,0,0-1.783.537,1.583,1.583,0,0,0-.72,1.3h-2a2.743,2.743,0,0,1,.618-1.681,4.216,4.216,0,0,1,1.676-1.284,5.638,5.638,0,0,1,2.326-.473,4.6,4.6,0,0,1,3.147,1,3.623,3.623,0,0,1,1.182,2.766v5.35a6.54,6.54,0,0,0,.408,2.546V23Zm-3.3-1.515A3.493,3.493,0,0,0,156.17,21a2.924,2.924,0,0,0,1.214-1.257V17.36h-1.558q-3.652,0-3.652,2.138a1.809,1.809,0,0,0,.623,1.461A2.4,2.4,0,0,0,154.4,21.485Zm17.929-4.168A6.911,6.911,0,0,1,171.1,21.6a3.913,3.913,0,0,1-3.287,1.617,4.052,4.052,0,0,1-3.405-1.558l-.1,1.343h-1.826V6.5h1.987v6.155a4.029,4.029,0,0,1,3.319-1.493,3.937,3.937,0,0,1,3.325,1.6,7.118,7.118,0,0,1,1.208,4.383Zm-1.987-.226a5.37,5.37,0,0,0-.784-3.137,2.6,2.6,0,0,0-2.256-1.106,2.918,2.918,0,0,0-2.825,1.826V19.7a3,3,0,0,0,2.847,1.826,2.582,2.582,0,0,0,2.224-1.106A5.711,5.711,0,0,0,170.339,17.092ZM176.988,23H175V6.5h1.987Zm8,.215a5.078,5.078,0,0,1-3.846-1.552,5.761,5.761,0,0,1-1.482-4.152v-.365a6.975,6.975,0,0,1,.661-3.088,5.154,5.154,0,0,1,1.848-2.127,4.645,4.645,0,0,1,2.573-.768,4.353,4.353,0,0,1,3.523,1.493,6.465,6.465,0,0,1,1.257,4.275v.827H181.65a4.132,4.132,0,0,0,1,2.777,3.157,3.157,0,0,0,2.444,1.058,3.461,3.461,0,0,0,1.783-.43,4.48,4.48,0,0,0,1.278-1.139l1.214.945A4.881,4.881,0,0,1,184.991,23.215Zm-.247-10.42a2.651,2.651,0,0,0-2.02.875,4.255,4.255,0,0,0-1.01,2.455h5.822v-.15a3.785,3.785,0,0,0-.816-2.347A2.5,2.5,0,0,0,184.744,12.795Zm16.167,1.461h-8.959V12.526h8.959Zm0,4.458h-8.959V17h8.959ZM219.388,23H209.14V21.571l5.414-6.016a12.863,12.863,0,0,0,1.66-2.218,3.7,3.7,0,0,0,.457-1.767,2.806,2.806,0,0,0-.741-2.009,2.592,2.592,0,0,0-1.977-.784,3.069,3.069,0,0,0-2.3.843,3.221,3.221,0,0,0-.822,2.347h-1.987a4.613,4.613,0,0,1,1.391-3.491,5.157,5.157,0,0,1,3.722-1.332A4.955,4.955,0,0,1,217.4,8.289a3.9,3.9,0,0,1,1.268,3.045q0,2.31-2.943,5.5l-4.189,4.544h7.853ZM231.3,16.329a9.089,9.089,0,0,1-1.192,5.188,4.955,4.955,0,0,1-7.434.038,8.627,8.627,0,0,1-1.246-4.958V13.944a8.887,8.887,0,0,1,1.192-5.124,5.044,5.044,0,0,1,7.455-.059,8.576,8.576,0,0,1,1.225,4.99Zm-1.987-2.718a7.282,7.282,0,0,0-.709-3.679,2.44,2.44,0,0,0-2.245-1.155,2.408,2.408,0,0,0-2.224,1.149,7.11,7.11,0,0,0-.72,3.534v3.18a7.4,7.4,0,0,0,.736,3.744,2.436,2.436,0,0,0,2.229,1.208,2.4,2.4,0,0,0,2.186-1.139,7.131,7.131,0,0,0,.747-3.588Zm4.426-1.139a1.244,1.244,0,0,1,.306-.859,1.167,1.167,0,0,1,.918-.344,1.2,1.2,0,0,1,.929.344,1.219,1.219,0,0,1,.317.859,1.153,1.153,0,0,1-.317.827,1.223,1.223,0,0,1-.929.333,1.1,1.1,0,0,1-1.225-1.16Zm.376,13.643-1.128-.773a5.184,5.184,0,0,0,1.053-2.9V20.647h1.944v1.558a4.893,4.893,0,0,1-.532,2.17A5.08,5.08,0,0,1,234.115,26.115ZM5.339,46.3l2.879-8.927h2.03L6.08,49H4.565L.354,37.377h2.03ZM19.175,49a4.175,4.175,0,0,1-.279-1.225,4.434,4.434,0,0,1-3.309,1.439,4.1,4.1,0,0,1-2.82-.972,3.145,3.145,0,0,1-1.1-2.465,3.286,3.286,0,0,1,1.38-2.82,6.508,6.508,0,0,1,3.883-1h1.934V41.04a2.232,2.232,0,0,0-.623-1.66,2.5,2.5,0,0,0-1.837-.618,2.9,2.9,0,0,0-1.783.537,1.583,1.583,0,0,0-.72,1.3h-2a2.743,2.743,0,0,1,.618-1.681A4.216,4.216,0,0,1,14.2,37.635a5.638,5.638,0,0,1,2.326-.473,4.6,4.6,0,0,1,3.147,1,3.623,3.623,0,0,1,1.182,2.766v5.35a6.54,6.54,0,0,0,.408,2.546V49Zm-3.3-1.515A3.493,3.493,0,0,0,17.649,47a2.924,2.924,0,0,0,1.214-1.257V43.36H17.306q-3.652,0-3.652,2.138a1.809,1.809,0,0,0,.623,1.461A2.4,2.4,0,0,0,15.877,47.485ZM29.584,39.16a5.955,5.955,0,0,0-.978-.075,2.619,2.619,0,0,0-2.653,1.665V49H23.966V37.377H25.9l.032,1.343A3.094,3.094,0,0,1,28.7,37.162a2.03,2.03,0,0,1,.881.15ZM44.032,49a4.175,4.175,0,0,1-.279-1.225,4.434,4.434,0,0,1-3.309,1.439,4.1,4.1,0,0,1-2.82-.972,3.145,3.145,0,0,1-1.1-2.465,3.286,3.286,0,0,1,1.38-2.82,6.508,6.508,0,0,1,3.883-1h1.934V41.04a2.232,2.232,0,0,0-.623-1.66,2.5,2.5,0,0,0-1.837-.618,2.9,2.9,0,0,0-1.783.537,1.583,1.583,0,0,0-.72,1.3h-2a2.743,2.743,0,0,1,.618-1.681,4.216,4.216,0,0,1,1.676-1.284,5.638,5.638,0,0,1,2.326-.473,4.6,4.6,0,0,1,3.147,1,3.623,3.623,0,0,1,1.182,2.766v5.35a6.54,6.54,0,0,0,.408,2.546V49Zm-3.3-1.515A3.493,3.493,0,0,0,42.507,47a2.924,2.924,0,0,0,1.214-1.257V43.36H42.163q-3.652,0-3.652,2.138a1.809,1.809,0,0,0,.623,1.461A2.4,2.4,0,0,0,40.734,47.485Zm17.177-7.229H48.952V38.526h8.959Zm0,4.458H48.952V43h8.959Zm3.7-3.556.795-7.8h8.014V35.2H64.088l-.473,4.265a5.047,5.047,0,0,1,2.61-.677A4.315,4.315,0,0,1,69.62,40.2a5.536,5.536,0,0,1,1.257,3.819,5.344,5.344,0,0,1-1.305,3.808,4.757,4.757,0,0,1-3.647,1.391,4.944,4.944,0,0,1-3.384-1.149,4.588,4.588,0,0,1-1.493-3.18h1.88a3.156,3.156,0,0,0,.956,2.025,2.973,2.973,0,0,0,2.041.682,2.682,2.682,0,0,0,2.175-.945,3.952,3.952,0,0,0,.79-2.61,3.627,3.627,0,0,0-.854-2.519,2.9,2.9,0,0,0-2.272-.951,3.276,3.276,0,0,0-2.041.569l-.526.43Zm11.333-2.686a1.244,1.244,0,0,1,.306-.859,1.167,1.167,0,0,1,.918-.344,1.2,1.2,0,0,1,.929.344,1.219,1.219,0,0,1,.317.859,1.153,1.153,0,0,1-.317.827,1.223,1.223,0,0,1-.929.333,1.1,1.1,0,0,1-1.225-1.16Zm.376,13.643-1.128-.773a5.184,5.184,0,0,0,1.053-2.9V46.647h1.944v1.558a4.893,4.893,0,0,1-.532,2.17A5.08,5.08,0,0,1,73.315,52.115ZM5.339,72.3l2.879-8.927h2.03L6.08,75H4.565L.354,63.377h2.03ZM19.175,75a4.175,4.175,0,0,1-.279-1.225,4.434,4.434,0,0,1-3.309,1.439,4.1,4.1,0,0,1-2.82-.972,3.145,3.145,0,0,1-1.1-2.465,3.286,3.286,0,0,1,1.38-2.82,6.508,6.508,0,0,1,3.883-1h1.934V67.04a2.232,2.232,0,0,0-.623-1.66,2.5,2.5,0,0,0-1.837-.618,2.9,2.9,0,0,0-1.783.537,1.583,1.583,0,0,0-.72,1.3h-2a2.743,2.743,0,0,1,.618-1.681A4.216,4.216,0,0,1,14.2,63.635a5.638,5.638,0,0,1,2.326-.473,4.6,4.6,0,0,1,3.147,1,3.623,3.623,0,0,1,1.182,2.766v5.35a6.54,6.54,0,0,0,.408,2.546V75Zm-3.3-1.515A3.493,3.493,0,0,0,17.649,73a2.924,2.924,0,0,0,1.214-1.257V69.36H17.306q-3.652,0-3.652,2.138a1.809,1.809,0,0,0,.623,1.461A2.4,2.4,0,0,0,15.877,73.485ZM29.584,65.16a5.955,5.955,0,0,0-.978-.075,2.619,2.619,0,0,0-2.653,1.665V75H23.966V63.377H25.9l.032,1.343A3.094,3.094,0,0,1,28.7,63.162a2.03,2.03,0,0,1,.881.15ZM46.7,69.317A6.911,6.911,0,0,1,45.472,73.6a3.913,3.913,0,0,1-3.287,1.617,4.052,4.052,0,0,1-3.405-1.558L38.683,75H36.856V58.5h1.987v6.155a4.029,4.029,0,0,1,3.319-1.493,3.937,3.937,0,0,1,3.325,1.6A7.118,7.118,0,0,1,46.7,69.146Zm-1.987-.226a5.37,5.37,0,0,0-.784-3.137,2.6,2.6,0,0,0-2.256-1.106,2.918,2.918,0,0,0-2.825,1.826V71.7a3,3,0,0,0,2.847,1.826,2.582,2.582,0,0,0,2.224-1.106A5.711,5.711,0,0,0,44.709,69.092Zm13.578-2.836H49.328V64.526h8.959Zm0,4.458H49.328V69h8.959Zm5.672-4.5h1.493a3.282,3.282,0,0,0,2.213-.741,2.476,2.476,0,0,0,.806-1.944,2.426,2.426,0,0,0-2.739-2.75,2.849,2.849,0,0,0-2.057.736,2.575,2.575,0,0,0-.768,1.95H60.919a3.99,3.99,0,0,1,1.359-3.088,4.95,4.95,0,0,1,3.454-1.23,4.892,4.892,0,0,1,3.47,1.171,4.23,4.23,0,0,1,1.257,3.255,3.433,3.433,0,0,1-.661,1.977A3.989,3.989,0,0,1,68,66.976a3.844,3.844,0,0,1,1.993,1.354,3.759,3.759,0,0,1,.7,2.31,4.267,4.267,0,0,1-1.375,3.341,5.149,5.149,0,0,1-3.577,1.235,5.285,5.285,0,0,1-3.583-1.192,3.955,3.955,0,0,1-1.38-3.147h2a2.556,2.556,0,0,0,.806,1.977,3.064,3.064,0,0,0,2.159.741,3.007,3.007,0,0,0,2.2-.752,2.9,2.9,0,0,0,.763-2.159,2.63,2.63,0,0,0-.838-2.095,3.651,3.651,0,0,0-2.417-.752H63.959Zm9.356-1.74a1.244,1.244,0,0,1,.306-.859,1.167,1.167,0,0,1,.918-.344,1.2,1.2,0,0,1,.929.344,1.219,1.219,0,0,1,.317.859,1.153,1.153,0,0,1-.317.827,1.223,1.223,0,0,1-.929.333,1.1,1.1,0,0,1-1.225-1.16Zm.376,13.643-1.128-.773a5.184,5.184,0,0,0,1.053-2.9V72.647h1.944v1.558a4.893,4.893,0,0,1-.532,2.17A5.08,5.08,0,0,1,73.691,78.115ZM5.339,98.3l2.879-8.927h2.03L6.08,101H4.565L.354,89.377h2.03ZM19.175,101a4.175,4.175,0,0,1-.279-1.225,4.434,4.434,0,0,1-3.309,1.439,4.1,4.1,0,0,1-2.82-.972,3.145,3.145,0,0,1-1.1-2.465,3.286,3.286,0,0,1,1.38-2.82,6.508,6.508,0,0,1,3.883-1h1.934V93.04a2.232,2.232,0,0,0-.623-1.66,2.5,2.5,0,0,0-1.837-.618,2.9,2.9,0,0,0-1.783.537,1.583,1.583,0,0,0-.72,1.3h-2a2.743,2.743,0,0,1,.618-1.681A4.216,4.216,0,0,1,14.2,89.635a5.638,5.638,0,0,1,2.326-.473,4.6,4.6,0,0,1,3.147,1,3.623,3.623,0,0,1,1.182,2.766v5.35a6.54,6.54,0,0,0,.408,2.546V101Zm-3.3-1.515A3.493,3.493,0,0,0,17.649,99a2.924,2.924,0,0,0,1.214-1.257V95.36H17.306q-3.652,0-3.652,2.138a1.809,1.809,0,0,0,.623,1.461A2.4,2.4,0,0,0,15.877,99.485ZM29.584,91.16a5.955,5.955,0,0,0-.978-.075,2.619,2.619,0,0,0-2.653,1.665V101H23.966V89.377H25.9l.032,1.343A3.094,3.094,0,0,1,28.7,89.162a2.03,2.03,0,0,1,.881.15Zm9.142-1.783.054,1.289a4.292,4.292,0,0,1,3.448-1.5,3.323,3.323,0,0,1,3.319,1.869,4.4,4.4,0,0,1,1.509-1.354,4.458,4.458,0,0,1,2.2-.516q3.824,0,3.889,4.05V101H51.154V93.33a2.669,2.669,0,0,0-.569-1.864,2.507,2.507,0,0,0-1.912-.618,2.635,2.635,0,0,0-1.837.661,2.68,2.68,0,0,0-.849,1.778V101h-2V93.384a2.217,2.217,0,0,0-2.481-2.535,2.659,2.659,0,0,0-2.675,1.665V101H36.846V89.377ZM63.314,99.851a4.221,4.221,0,0,1-3.405,1.364,3.613,3.613,0,0,1-2.831-1.08,4.673,4.673,0,0,1-.983-3.2V89.377h1.987v7.509q0,2.643,2.148,2.643a2.975,2.975,0,0,0,3.029-1.7V89.377h1.987V101H63.357ZM70.426,101H68.438V84.5h1.987ZM76.3,86.563v2.814h2.17v1.536H76.3V98.13a1.613,1.613,0,0,0,.29,1.049,1.221,1.221,0,0,0,.988.35,4.811,4.811,0,0,0,.945-.129V101a5.8,5.8,0,0,1-1.525.214,2.475,2.475,0,0,1-2.009-.806,3.461,3.461,0,0,1-.677-2.288V90.913H72.2V89.377h2.116V86.563ZM82.951,101H80.964V89.377h1.987ZM80.8,86.294a1.186,1.186,0,0,1,.3-.816,1.109,1.109,0,0,1,.875-.333,1.126,1.126,0,0,1,.881.333,1.174,1.174,0,0,1,.3.816,1.135,1.135,0,0,1-.3.806,1.147,1.147,0,0,1-.881.322A1.129,1.129,0,0,1,81.1,87.1,1.147,1.147,0,0,1,80.8,86.294Zm15.146,9.023a6.96,6.96,0,0,1-1.214,4.275,3.89,3.89,0,0,1-3.287,1.622,4.263,4.263,0,0,1-3.33-1.343v5.6H86.131V89.377h1.815l.1,1.289a4.094,4.094,0,0,1,3.373-1.5,3.963,3.963,0,0,1,3.314,1.579,7.036,7.036,0,0,1,1.219,4.394Zm-1.987-.226a5.135,5.135,0,0,0-.838-3.1,2.7,2.7,0,0,0-2.3-1.139,2.921,2.921,0,0,0-2.707,1.6V98a2.927,2.927,0,0,0,2.729,1.59,2.686,2.686,0,0,0,2.272-1.133A5.606,5.606,0,0,0,93.962,95.092ZM100.633,101H98.646V84.5h1.987Zm5.339,0h-1.987V89.377h1.987Zm-2.148-14.706a1.186,1.186,0,0,1,.3-.816,1.109,1.109,0,0,1,.875-.333,1.126,1.126,0,0,1,.881.333,1.174,1.174,0,0,1,.3.816,1.135,1.135,0,0,1-.3.806,1.147,1.147,0,0,1-.881.322,1.129,1.129,0,0,1-.875-.322A1.147,1.147,0,0,1,103.823,86.294Zm9.99,13.3a2.863,2.863,0,0,0,1.858-.645,2.268,2.268,0,0,0,.881-1.611h1.88a3.6,3.6,0,0,1-.687,1.9,4.528,4.528,0,0,1-1.692,1.439,4.882,4.882,0,0,1-2.24.537,4.788,4.788,0,0,1-3.776-1.584,6.311,6.311,0,0,1-1.4-4.334v-.333a7,7,0,0,1,.623-3.019,4.745,4.745,0,0,1,1.789-2.052,5.081,5.081,0,0,1,2.755-.73,4.661,4.661,0,0,1,3.25,1.171,4.185,4.185,0,0,1,1.38,3.04h-1.88a2.739,2.739,0,0,0-.854-1.853,2.657,2.657,0,0,0-1.9-.725,2.781,2.781,0,0,0-2.347,1.09,5.121,5.121,0,0,0-.833,3.153v.376a5.019,5.019,0,0,0,.827,3.094A2.8,2.8,0,0,0,113.813,99.593ZM127.843,101a4.175,4.175,0,0,1-.279-1.225,4.434,4.434,0,0,1-3.309,1.439,4.1,4.1,0,0,1-2.82-.972,3.145,3.145,0,0,1-1.1-2.465,3.286,3.286,0,0,1,1.38-2.82,6.508,6.508,0,0,1,3.883-1h1.934V93.04a2.232,2.232,0,0,0-.623-1.66,2.5,2.5,0,0,0-1.837-.618,2.9,2.9,0,0,0-1.783.537,1.583,1.583,0,0,0-.72,1.3h-2a2.743,2.743,0,0,1,.618-1.681,4.216,4.216,0,0,1,1.676-1.284,5.638,5.638,0,0,1,2.326-.473,4.6,4.6,0,0,1,3.147,1,3.623,3.623,0,0,1,1.182,2.766v5.35a6.54,6.54,0,0,0,.408,2.546V101Zm-3.3-1.515A3.493,3.493,0,0,0,126.317,99a2.924,2.924,0,0,0,1.214-1.257V95.36h-1.558q-3.652,0-3.652,2.138a1.809,1.809,0,0,0,.623,1.461A2.4,2.4,0,0,0,124.545,99.485Zm13.707-8.325a5.955,5.955,0,0,0-.978-.075,2.619,2.619,0,0,0-2.653,1.665V101h-1.987V89.377h1.934l.032,1.343a3.094,3.094,0,0,1,2.771-1.558,2.03,2.03,0,0,1,.881.15Zm10.914,1.1h-8.959V90.526h8.959Zm0,4.458h-8.959V95h8.959ZM159.328,101a4.175,4.175,0,0,1-.279-1.225,4.434,4.434,0,0,1-3.309,1.439,4.1,4.1,0,0,1-2.82-.972,3.145,3.145,0,0,1-1.1-2.465,3.286,3.286,0,0,1,1.38-2.82,6.508,6.508,0,0,1,3.883-1h1.934V93.04a2.232,2.232,0,0,0-.623-1.66,2.5,2.5,0,0,0-1.837-.618,2.9,2.9,0,0,0-1.783.537,1.583,1.583,0,0,0-.72,1.3h-2a2.743,2.743,0,0,1,.618-1.681,4.216,4.216,0,0,1,1.676-1.284,5.638,5.638,0,0,1,2.326-.473,4.6,4.6,0,0,1,3.147,1A3.623,3.623,0,0,1,161,92.933v5.35a6.54,6.54,0,0,0,.408,2.546V101Zm-3.3-1.515A3.493,3.493,0,0,0,157.8,99a2.924,2.924,0,0,0,1.214-1.257V95.36h-1.558q-3.652,0-3.652,2.138a1.809,1.809,0,0,0,.623,1.461A2.4,2.4,0,0,0,156.03,99.485Zm10.13-9.05-3.244-.966.494-1.62,3.244,1.2-.1-3.691H168.2l-.107,3.745,3.19-1.18.494,1.631-3.3.977,2.127,2.911-1.332,1.01-2-3.094-1.934,3.019L164,93.4Zm17.273,4.882a6.911,6.911,0,0,1-1.225,4.281,3.913,3.913,0,0,1-3.287,1.617,4.052,4.052,0,0,1-3.405-1.558l-.1,1.343h-1.826V84.5h1.987v6.155a4.029,4.029,0,0,1,3.319-1.493,3.937,3.937,0,0,1,3.325,1.6,7.118,7.118,0,0,1,1.208,4.383Zm-1.987-.226a5.37,5.37,0,0,0-.784-3.137,2.6,2.6,0,0,0-2.256-1.106,2.918,2.918,0,0,0-2.825,1.826V97.7a3,3,0,0,0,2.847,1.826,2.582,2.582,0,0,0,2.224-1.106A5.711,5.711,0,0,0,181.446,95.092Zm4.179-4.619a1.244,1.244,0,0,1,.306-.859,1.167,1.167,0,0,1,.918-.344,1.2,1.2,0,0,1,.929.344,1.219,1.219,0,0,1,.317.859,1.153,1.153,0,0,1-.317.827,1.223,1.223,0,0,1-.929.333,1.1,1.1,0,0,1-1.225-1.16ZM186,104.115l-1.128-.773a5.184,5.184,0,0,0,1.053-2.9V98.647h1.944v1.558a4.893,4.893,0,0,1-.532,2.17A5.08,5.08,0,0,1,186,104.115Z" transform="translate(934.225 4203.472)" fill="#fff"/>
    <g transform="matrix(1, 0, 0, 1, 906, 4136.28)" filter="url(#Trazado_655374)">
      <path id="Trazado_655374-2" data-name="Trazado 655374" d="M5,0H310a5,5,0,0,1,5,5V30.138H1a1,1,0,0,1-1-1V5A5,5,0,0,1,5,0Z" transform="translate(9 6)" fill="url(#linear-gradient)"/>
    </g>
    <path id="Trazado_654862" data-name="Trazado 654862" d="M367.33,159.913a5.453,5.453,0,1,1-5.452-5.454A5.452,5.452,0,0,1,367.33,159.913Z" transform="translate(608.837 3997.057)" fill="#fff"/>
    <path id="Trazado_654863" data-name="Trazado 654863" d="M367.33,159.913a5.453,5.453,0,1,1-5.452-5.454A5.452,5.452,0,0,1,367.33,159.913Z" transform="translate(587.071 3997.057)" fill="#ffa726"/>
    <path id="Trazado_654864" data-name="Trazado 654864" d="M377.147,159.913a5.454,5.454,0,1,1-5.454-5.454A5.454,5.454,0,0,1,377.147,159.913Z" transform="translate(620.79 3997.057)" fill="#26a69a"/>
  </g>
</svg>
