<svg xmlns="http://www.w3.org/2000/svg" xmlns:xlink="http://www.w3.org/1999/xlink" width="255.055" height="192.379" viewBox="0 0 255.055 192.379">
  <defs>
    <filter id="Trazado_655381" x="0" y="20.379" width="255.055" height="172" filterUnits="userSpaceOnUse">
      <feOffset dy="3" input="SourceAlpha"/>
      <feGaussianBlur stdDeviation="3" result="blur"/>
      <feFlood flood-opacity="0.161"/>
      <feComposite operator="in" in2="blur"/>
      <feComposite in="SourceGraphic"/>
    </filter>
    <linearGradient id="linear-gradient" x1="0.5" x2="0.5" y2="1" gradientUnits="objectBoundingBox">
      <stop offset="0" stop-color="#f5f5f5"/>
      <stop offset="0.25" stop-color="#f5f5f5"/>
      <stop offset="1" stop-color="#a7b3cf"/>
    </linearGradient>
    <filter id="Trazado_655383" x="0" y="0" width="255.055" height="38.379" filterUnits="userSpaceOnUse">
      <feOffset dy="3" input="SourceAlpha"/>
      <feGaussianBlur stdDeviation="3" result="blur-2"/>
      <feFlood flood-opacity="0.161"/>
      <feComposite operator="in" in2="blur-2"/>
      <feComposite in="SourceGraphic"/>
    </filter>
  </defs>
  <g id="Grupo_981175" data-name="Grupo 981175" transform="translate(271 6167.461)">
    <g transform="matrix(1, 0, 0, 1, -271, -6167.46)" filter="url(#Trazado_655381)">
      <path id="Trazado_655381-2" data-name="Trazado 655381" d="M0,0H237.055V154H0Z" transform="translate(9 26.38)" fill="#12263f"/>
    </g>
    <path id="Trazado_655382" data-name="Trazado 655382" d="M3.883,15.039,5.977,8.547H7.453L4.422,17H3.32L.258,8.547H1.734ZM13.945,17a3.036,3.036,0,0,1-.2-.891,3.225,3.225,0,0,1-2.406,1.047,2.984,2.984,0,0,1-2.051-.707,2.287,2.287,0,0,1-.8-1.793,2.39,2.39,0,0,1,1-2.051,4.733,4.733,0,0,1,2.824-.73h1.406v-.664A1.623,1.623,0,0,0,13.266,10a1.821,1.821,0,0,0-1.336-.449,2.107,2.107,0,0,0-1.3.391,1.151,1.151,0,0,0-.523.945H8.656a2,2,0,0,1,.449-1.223,3.066,3.066,0,0,1,1.219-.934,4.1,4.1,0,0,1,1.691-.344,3.342,3.342,0,0,1,2.289.73,2.635,2.635,0,0,1,.859,2.012v3.891a4.757,4.757,0,0,0,.3,1.852V17Zm-2.4-1.1a2.54,2.54,0,0,0,1.289-.352,2.127,2.127,0,0,0,.883-.914V12.9H12.586q-2.656,0-2.656,1.555a1.316,1.316,0,0,0,.453,1.063A1.742,1.742,0,0,0,11.547,15.9Zm9.969-6.055a4.331,4.331,0,0,0-.711-.055A1.9,1.9,0,0,0,18.875,11v6H17.43V8.547h1.406l.023.977a2.251,2.251,0,0,1,2.016-1.133,1.477,1.477,0,0,1,.641.109ZM26.453,12.7a4.952,4.952,0,0,1,.922-3.129,3.137,3.137,0,0,1,4.766-.168V5h1.445V17H32.258l-.07-.906a2.943,2.943,0,0,1-2.414,1.063,2.887,2.887,0,0,1-2.395-1.2,5.008,5.008,0,0,1-.926-3.141Zm1.445.164a3.749,3.749,0,0,0,.594,2.25,1.92,1.92,0,0,0,1.641.813A2.108,2.108,0,0,0,32.141,14.7V10.813a2.125,2.125,0,0,0-1.992-1.2,1.929,1.929,0,0,0-1.656.82A4.128,4.128,0,0,0,27.9,12.867ZM37.4,17H35.953V8.547H37.4ZM35.836,6.3a.863.863,0,0,1,.215-.594.807.807,0,0,1,.637-.242.819.819,0,0,1,.641.242.854.854,0,0,1,.219.594.826.826,0,0,1-.219.586.834.834,0,0,1-.641.234.821.821,0,0,1-.637-.234A.834.834,0,0,1,35.836,6.3ZM44.93,17a3.036,3.036,0,0,1-.2-.891,3.225,3.225,0,0,1-2.406,1.047,2.984,2.984,0,0,1-2.051-.707,2.287,2.287,0,0,1-.8-1.793,2.39,2.39,0,0,1,1-2.051,4.733,4.733,0,0,1,2.824-.73H44.7v-.664A1.623,1.623,0,0,0,44.25,10a1.821,1.821,0,0,0-1.336-.449,2.107,2.107,0,0,0-1.3.391,1.151,1.151,0,0,0-.523.945H39.641a2,2,0,0,1,.449-1.223,3.066,3.066,0,0,1,1.219-.934A4.1,4.1,0,0,1,43,8.391a3.342,3.342,0,0,1,2.289.73,2.635,2.635,0,0,1,.859,2.012v3.891a4.757,4.757,0,0,0,.3,1.852V17Zm-2.4-1.1a2.54,2.54,0,0,0,1.289-.352,2.127,2.127,0,0,0,.883-.914V12.9H43.57q-2.656,0-2.656,1.555a1.316,1.316,0,0,0,.453,1.063A1.742,1.742,0,0,0,42.531,15.9Zm10.8-1.141a1.064,1.064,0,0,0-.441-.91,4.249,4.249,0,0,0-1.539-.559,7.277,7.277,0,0,1-1.742-.562,2.479,2.479,0,0,1-.953-.781,1.869,1.869,0,0,1-.309-1.078,2.193,2.193,0,0,1,.879-1.758,3.432,3.432,0,0,1,2.246-.719,3.532,3.532,0,0,1,2.332.742,2.357,2.357,0,0,1,.895,1.9H53.25a1.3,1.3,0,0,0-.5-1.023,1.888,1.888,0,0,0-1.27-.43,1.976,1.976,0,0,0-1.234.344,1.082,1.082,0,0,0-.445.9.877.877,0,0,0,.414.789,5.1,5.1,0,0,0,1.5.508,7.8,7.8,0,0,1,1.754.578,2.558,2.558,0,0,1,1,.809,1.988,1.988,0,0,1,.324,1.152,2.163,2.163,0,0,1-.906,1.816,3.8,3.8,0,0,1-2.352.684,4.257,4.257,0,0,1-1.8-.359,2.922,2.922,0,0,1-1.223-1,2.42,2.42,0,0,1-.441-1.395h1.445a1.5,1.5,0,0,0,.582,1.152,2.258,2.258,0,0,0,1.434.426,2.331,2.331,0,0,0,1.316-.332A1.02,1.02,0,0,0,53.336,14.758Zm6.906-2.828a7.053,7.053,0,0,1-2.809-1.363,2.6,2.6,0,0,1-.879-2,2.751,2.751,0,0,1,1.074-2.223,4.269,4.269,0,0,1,2.793-.879,4.66,4.66,0,0,1,2.09.453,3.436,3.436,0,0,1,1.422,1.25,3.2,3.2,0,0,1,.5,1.742H62.93a2.08,2.08,0,0,0-.656-1.627A2.669,2.669,0,0,0,60.422,6.7a2.732,2.732,0,0,0-1.73.489,1.632,1.632,0,0,0-.621,1.358,1.468,1.468,0,0,0,.59,1.178,5.785,5.785,0,0,0,2.008.88,9.316,9.316,0,0,1,2.219.88A3.367,3.367,0,0,1,64.074,12.6a2.861,2.861,0,0,1,.387,1.508,2.658,2.658,0,0,1-1.078,2.215,4.6,4.6,0,0,1-2.883.832,5.347,5.347,0,0,1-2.187-.449,3.681,3.681,0,0,1-1.566-1.23A3,3,0,0,1,56.2,13.7H57.7a1.959,1.959,0,0,0,.762,1.629,3.207,3.207,0,0,0,2.035.6,2.948,2.948,0,0,0,1.82-.484,1.573,1.573,0,0,0,.633-1.32,1.545,1.545,0,0,0-.586-1.293A6.755,6.755,0,0,0,60.242,11.93Zm9.422,5.227a3.693,3.693,0,0,1-2.8-1.129,4.19,4.19,0,0,1-1.078-3.02v-.266a5.073,5.073,0,0,1,.48-2.246,3.748,3.748,0,0,1,1.344-1.547,3.378,3.378,0,0,1,1.871-.559,3.166,3.166,0,0,1,2.563,1.086,4.7,4.7,0,0,1,.914,3.109v.6H67.234a3,3,0,0,0,.73,2.02,2.3,2.3,0,0,0,1.777.77,2.517,2.517,0,0,0,1.3-.312,3.259,3.259,0,0,0,.93-.828l.883.688A3.55,3.55,0,0,1,69.664,17.156Zm-.18-7.578a1.928,1.928,0,0,0-1.469.637A3.1,3.1,0,0,0,67.281,12h4.234v-.109a2.753,2.753,0,0,0-.594-1.707A1.815,1.815,0,0,0,69.484,9.578Zm6.508-1.031.039.938a3.122,3.122,0,0,1,2.508-1.094A2.417,2.417,0,0,1,80.953,9.75a3.2,3.2,0,0,1,1.1-.984,3.242,3.242,0,0,1,1.6-.375q2.781,0,2.828,2.945V17H85.031V11.422a1.941,1.941,0,0,0-.414-1.355,1.823,1.823,0,0,0-1.391-.449,1.916,1.916,0,0,0-1.336.48,1.949,1.949,0,0,0-.617,1.293V17H79.82V11.461a1.613,1.613,0,0,0-1.8-1.844,1.934,1.934,0,0,0-1.945,1.211V17H74.625V8.547ZM93.875,17a3.036,3.036,0,0,1-.2-.891,3.225,3.225,0,0,1-2.406,1.047,2.984,2.984,0,0,1-2.051-.707,2.288,2.288,0,0,1-.8-1.793,2.39,2.39,0,0,1,1-2.051,4.733,4.733,0,0,1,2.824-.73h1.406v-.664A1.623,1.623,0,0,0,93.2,10a1.821,1.821,0,0,0-1.336-.449,2.108,2.108,0,0,0-1.3.391,1.151,1.151,0,0,0-.523.945H88.586a2,2,0,0,1,.449-1.223,3.066,3.066,0,0,1,1.219-.934,4.1,4.1,0,0,1,1.691-.344,3.342,3.342,0,0,1,2.289.73,2.635,2.635,0,0,1,.859,2.012v3.891a4.757,4.757,0,0,0,.3,1.852V17Zm-2.4-1.1a2.54,2.54,0,0,0,1.289-.352,2.127,2.127,0,0,0,.883-.914V12.9H92.516q-2.656,0-2.656,1.555a1.316,1.316,0,0,0,.453,1.063A1.742,1.742,0,0,0,91.477,15.9Zm7.25-7.352.047,1.063A3.08,3.08,0,0,1,101.3,8.391q2.68,0,2.7,3.023V17h-1.445V11.406a1.946,1.946,0,0,0-.418-1.352,1.675,1.675,0,0,0-1.277-.437,2.086,2.086,0,0,0-1.234.375,2.546,2.546,0,0,0-.828.984V17H97.359V8.547ZM111.406,17a3.036,3.036,0,0,1-.2-.891,3.225,3.225,0,0,1-2.406,1.047,2.984,2.984,0,0,1-2.051-.707,2.288,2.288,0,0,1-.8-1.793,2.39,2.39,0,0,1,1-2.051,4.733,4.733,0,0,1,2.824-.73h1.406v-.664A1.623,1.623,0,0,0,110.727,10a1.821,1.821,0,0,0-1.336-.449,2.108,2.108,0,0,0-1.3.391,1.151,1.151,0,0,0-.523.945h-1.453a2,2,0,0,1,.449-1.223,3.066,3.066,0,0,1,1.219-.934,4.1,4.1,0,0,1,1.691-.344,3.342,3.342,0,0,1,2.289.73,2.635,2.635,0,0,1,.859,2.012v3.891a4.757,4.757,0,0,0,.3,1.852V17Zm-2.4-1.1a2.54,2.54,0,0,0,1.289-.352,2.127,2.127,0,0,0,.883-.914V12.9h-1.133q-2.656,0-2.656,1.555a1.316,1.316,0,0,0,.453,1.063A1.742,1.742,0,0,0,109.008,15.9ZM121.5,10.641h-6.516V9.383H121.5Zm0,3.242h-6.516v-1.25H121.5Zm5.164-8.7h-1.492V18.25h1.492v1.188h-2.945V4h2.945Zm2.328-.336.828.563a3.685,3.685,0,0,0-.75,2.141V8.617h-1.437V7.711a3.584,3.584,0,0,1,.379-1.578A3.783,3.783,0,0,1,128.992,4.852Zm2.461,0,.828.563a3.685,3.685,0,0,0-.75,2.141V8.617h-1.437V7.711a3.584,3.584,0,0,1,.379-1.578A3.783,3.783,0,0,1,131.453,4.852ZM135.3,15.773H140.7V17h-6.9V5.625H135.3Zm11.75.391a3.07,3.07,0,0,1-2.477.992,2.628,2.628,0,0,1-2.059-.785,3.4,3.4,0,0,1-.715-2.324v-5.5h1.445v5.461q0,1.922,1.563,1.922a2.163,2.163,0,0,0,2.2-1.234V8.547h1.445V17h-1.375Zm4.969-7.617.047,1.063A3.08,3.08,0,0,1,154.6,8.391q2.68,0,2.7,3.023V17h-1.445V11.406a1.946,1.946,0,0,0-.418-1.352,1.675,1.675,0,0,0-1.277-.437,2.086,2.086,0,0,0-1.234.375,2.546,2.546,0,0,0-.828.984V17h-1.445V8.547Zm10.969,8.609a3.693,3.693,0,0,1-2.8-1.129,4.19,4.19,0,0,1-1.078-3.02v-.266a5.073,5.073,0,0,1,.48-2.246,3.748,3.748,0,0,1,1.344-1.547,3.378,3.378,0,0,1,1.871-.559,3.166,3.166,0,0,1,2.563,1.086,4.7,4.7,0,0,1,.914,3.109v.6h-5.727a3,3,0,0,0,.73,2.02,2.3,2.3,0,0,0,1.777.77,2.517,2.517,0,0,0,1.3-.312,3.258,3.258,0,0,0,.93-.828l.883.688A3.55,3.55,0,0,1,162.992,17.156Zm-.18-7.578a1.928,1.928,0,0,0-1.469.637A3.1,3.1,0,0,0,160.609,12h4.234v-.109a2.753,2.753,0,0,0-.594-1.707A1.815,1.815,0,0,0,162.813,9.578Zm10.07,5.18a1.064,1.064,0,0,0-.441-.91,4.249,4.249,0,0,0-1.539-.559,7.277,7.277,0,0,1-1.742-.562,2.479,2.479,0,0,1-.953-.781,1.869,1.869,0,0,1-.309-1.078,2.193,2.193,0,0,1,.879-1.758,3.432,3.432,0,0,1,2.246-.719,3.532,3.532,0,0,1,2.332.742,2.357,2.357,0,0,1,.895,1.9H172.8a1.3,1.3,0,0,0-.5-1.023,1.888,1.888,0,0,0-1.27-.43,1.976,1.976,0,0,0-1.234.344,1.082,1.082,0,0,0-.445.9.877.877,0,0,0,.414.789,5.1,5.1,0,0,0,1.5.508,7.8,7.8,0,0,1,1.754.578,2.558,2.558,0,0,1,1,.809,1.988,1.988,0,0,1,.324,1.152,2.163,2.163,0,0,1-.906,1.816,3.8,3.8,0,0,1-2.352.684,4.257,4.257,0,0,1-1.8-.359,2.922,2.922,0,0,1-1.223-1,2.42,2.42,0,0,1-.441-1.395h1.445a1.5,1.5,0,0,0,.582,1.152,2.258,2.258,0,0,0,1.434.426,2.331,2.331,0,0,0,1.316-.332A1.02,1.02,0,0,0,172.883,14.758Zm3.523-5.93-.82-.562a3.761,3.761,0,0,0,.75-2.141V5h1.43V6.016a3.613,3.613,0,0,1-.387,1.559A3.6,3.6,0,0,1,176.406,8.828Zm2.4,0-.82-.562a3.761,3.761,0,0,0,.75-2.141V5h1.43V6.016a3.613,3.613,0,0,1-.387,1.559A3.6,3.6,0,0,1,178.8,8.828Zm3.07,10.438-.82-.562a3.77,3.77,0,0,0,.766-2.109v-1.3h1.414v1.133A3.559,3.559,0,0,1,182.848,18,3.7,3.7,0,0,1,181.875,19.266ZM2.172,28.852,3,29.414a3.685,3.685,0,0,0-.75,2.141v1.063H.813v-.906a3.584,3.584,0,0,1,.379-1.578A3.783,3.783,0,0,1,2.172,28.852Zm2.461,0,.828.563a3.685,3.685,0,0,0-.75,2.141v1.063H3.273v-.906a3.584,3.584,0,0,1,.379-1.578A3.783,3.783,0,0,1,4.633,28.852Zm4.281.773,3.719,9.281,3.719-9.281H18.3V41H16.8V36.57l.141-4.781L13.2,41H12.055L8.328,31.813l.148,4.758V41h-1.5V29.625ZM25.938,41a3.036,3.036,0,0,1-.2-.891,3.225,3.225,0,0,1-2.406,1.047,2.984,2.984,0,0,1-2.051-.707,2.287,2.287,0,0,1-.8-1.793,2.39,2.39,0,0,1,1-2.051,4.733,4.733,0,0,1,2.824-.73h1.406v-.664A1.623,1.623,0,0,0,25.258,34a1.821,1.821,0,0,0-1.336-.449,2.107,2.107,0,0,0-1.3.391,1.151,1.151,0,0,0-.523.945H20.648a2,2,0,0,1,.449-1.223,3.066,3.066,0,0,1,1.219-.934,4.1,4.1,0,0,1,1.691-.344,3.342,3.342,0,0,1,2.289.73,2.635,2.635,0,0,1,.859,2.012v3.891a4.757,4.757,0,0,0,.3,1.852V41Zm-2.4-1.1a2.54,2.54,0,0,0,1.289-.352,2.127,2.127,0,0,0,.883-.914V36.9H24.578q-2.656,0-2.656,1.555a1.316,1.316,0,0,0,.453,1.063A1.742,1.742,0,0,0,23.539,39.9Zm9.969-6.055a4.331,4.331,0,0,0-.711-.055A1.9,1.9,0,0,0,30.867,35v6H29.422V32.547h1.406l.023.977a2.251,2.251,0,0,1,2.016-1.133,1.477,1.477,0,0,1,.641.109Zm3.68-3.344v2.047h1.578v1.117H37.188v5.249a1.173,1.173,0,0,0,.211.763.888.888,0,0,0,.719.254,3.5,3.5,0,0,0,.688-.094V41a4.215,4.215,0,0,1-1.109.155,1.8,1.8,0,0,1-1.461-.586,2.517,2.517,0,0,1-.492-1.664V33.664H34.2V32.547h1.539V30.5Zm6.773,10.656a3.693,3.693,0,0,1-2.8-1.129,4.19,4.19,0,0,1-1.078-3.02v-.266a5.073,5.073,0,0,1,.48-2.246,3.748,3.748,0,0,1,1.344-1.547,3.378,3.378,0,0,1,1.871-.559,3.166,3.166,0,0,1,2.563,1.086,4.7,4.7,0,0,1,.914,3.109v.6H41.531a3,3,0,0,0,.73,2.02,2.3,2.3,0,0,0,1.777.77,2.517,2.517,0,0,0,1.3-.312,3.258,3.258,0,0,0,.93-.828l.883.688A3.55,3.55,0,0,1,43.961,41.156Zm-.18-7.578a1.928,1.928,0,0,0-1.469.637A3.1,3.1,0,0,0,41.578,36h4.234v-.109a2.753,2.753,0,0,0-.594-1.707A1.815,1.815,0,0,0,43.781,33.578Zm10.07,5.18a1.064,1.064,0,0,0-.441-.91,4.249,4.249,0,0,0-1.539-.559,7.277,7.277,0,0,1-1.742-.562,2.479,2.479,0,0,1-.953-.781,1.869,1.869,0,0,1-.309-1.078,2.193,2.193,0,0,1,.879-1.758,3.432,3.432,0,0,1,2.246-.719,3.532,3.532,0,0,1,2.332.742,2.357,2.357,0,0,1,.895,1.9H53.766a1.3,1.3,0,0,0-.5-1.023,1.888,1.888,0,0,0-1.27-.43,1.976,1.976,0,0,0-1.234.344,1.082,1.082,0,0,0-.445.9.877.877,0,0,0,.414.789,5.1,5.1,0,0,0,1.5.508,7.8,7.8,0,0,1,1.754.578,2.558,2.558,0,0,1,1,.809,1.988,1.988,0,0,1,.324,1.152,2.163,2.163,0,0,1-.906,1.816,3.8,3.8,0,0,1-2.352.684,4.257,4.257,0,0,1-1.8-.359,2.922,2.922,0,0,1-1.223-1,2.42,2.42,0,0,1-.441-1.395h1.445a1.5,1.5,0,0,0,.582,1.152,2.258,2.258,0,0,0,1.434.426,2.331,2.331,0,0,0,1.316-.332A1.02,1.02,0,0,0,53.852,38.758Zm3.523-5.93-.82-.562a3.761,3.761,0,0,0,.75-2.141V29h1.43v1.016a3.86,3.86,0,0,1-1.359,2.813Zm2.4,0-.82-.562a3.761,3.761,0,0,0,.75-2.141V29h1.43v1.016a3.86,3.86,0,0,1-1.359,2.813Zm3.07,10.438-.82-.562a3.77,3.77,0,0,0,.766-2.109v-1.3H64.2v1.133A3.559,3.559,0,0,1,63.816,42,3.7,3.7,0,0,1,62.844,43.266ZM71.07,28.852l.828.563a3.685,3.685,0,0,0-.75,2.141v1.063H69.711v-.906a3.584,3.584,0,0,1,.379-1.578A3.783,3.783,0,0,1,71.07,28.852Zm2.461,0,.828.563a3.685,3.685,0,0,0-.75,2.141v1.063H72.172v-.906a3.584,3.584,0,0,1,.379-1.578A3.783,3.783,0,0,1,73.531,28.852Zm4.281.773,3.719,9.281,3.719-9.281H87.2V41H85.7V36.57l.141-4.781L82.1,41H80.953l-3.727-9.187.148,4.758V41h-1.5V29.625ZM91.188,41H89.742V32.547h1.445ZM89.625,30.3a.863.863,0,0,1,.215-.594.807.807,0,0,1,.637-.242.819.819,0,0,1,.641.242.854.854,0,0,1,.219.594.826.826,0,0,1-.219.586.834.834,0,0,1-.641.234.821.821,0,0,1-.637-.234A.834.834,0,0,1,89.625,30.3Zm7.383,10.852a3.693,3.693,0,0,1-2.8-1.129,4.19,4.19,0,0,1-1.078-3.02v-.266a5.073,5.073,0,0,1,.48-2.246,3.748,3.748,0,0,1,1.344-1.547,3.378,3.378,0,0,1,1.871-.559,3.166,3.166,0,0,1,2.563,1.086,4.7,4.7,0,0,1,.914,3.109v.6H94.578a3,3,0,0,0,.73,2.02,2.3,2.3,0,0,0,1.777.77,2.517,2.517,0,0,0,1.3-.312,3.259,3.259,0,0,0,.93-.828l.883.688A3.55,3.55,0,0,1,97.008,41.156Zm-.18-7.578a1.928,1.928,0,0,0-1.469.637A3.1,3.1,0,0,0,94.625,36h4.234v-.109a2.753,2.753,0,0,0-.594-1.707A1.815,1.815,0,0,0,96.828,33.578Zm9.234.266a4.331,4.331,0,0,0-.711-.055A1.9,1.9,0,0,0,103.422,35v6h-1.445V32.547h1.406l.023.977a2.251,2.251,0,0,1,2.016-1.133,1.477,1.477,0,0,1,.641.109Zm4.57,6.133a2.082,2.082,0,0,0,1.352-.469,1.649,1.649,0,0,0,.641-1.172h1.367a2.621,2.621,0,0,1-.5,1.383,3.293,3.293,0,0,1-1.23,1.047,3.55,3.55,0,0,1-1.629.391A3.482,3.482,0,0,1,107.887,40a4.59,4.59,0,0,1-1.02-3.152v-.242a5.089,5.089,0,0,1,.453-2.2,3.451,3.451,0,0,1,1.3-1.492,3.7,3.7,0,0,1,2-.531,3.39,3.39,0,0,1,2.363.852,3.043,3.043,0,0,1,1,2.211h-1.367A1.992,1.992,0,0,0,112,34.105a1.932,1.932,0,0,0-1.379-.527,2.023,2.023,0,0,0-1.707.793,3.724,3.724,0,0,0-.605,2.293v.273a3.65,3.65,0,0,0,.6,2.25A2.033,2.033,0,0,0,110.633,39.977Zm4.6-3.281a4.993,4.993,0,0,1,.488-2.234,3.643,3.643,0,0,1,1.359-1.531,3.7,3.7,0,0,1,1.988-.539,3.565,3.565,0,0,1,2.793,1.2,4.6,4.6,0,0,1,1.066,3.18v.1a5.036,5.036,0,0,1-.473,2.215,3.589,3.589,0,0,1-1.352,1.527,3.743,3.743,0,0,1-2.02.547,3.556,3.556,0,0,1-2.785-1.2,4.575,4.575,0,0,1-1.066-3.164Zm1.453.172a3.616,3.616,0,0,0,.652,2.258,2.211,2.211,0,0,0,3.5-.012,3.955,3.955,0,0,0,.648-2.418,3.61,3.61,0,0,0-.66-2.254,2.1,2.1,0,0,0-1.754-.863,2.075,2.075,0,0,0-1.727.852A3.925,3.925,0,0,0,116.688,36.867ZM126.313,41h-1.445V29h1.445Zm5.82.156a3.693,3.693,0,0,1-2.8-1.129,4.19,4.19,0,0,1-1.078-3.02v-.266a5.073,5.073,0,0,1,.48-2.246,3.748,3.748,0,0,1,1.344-1.547,3.378,3.378,0,0,1,1.871-.559,3.166,3.166,0,0,1,2.563,1.086,4.7,4.7,0,0,1,.914,3.109v.6H129.7a3,3,0,0,0,.73,2.02,2.3,2.3,0,0,0,1.777.77,2.517,2.517,0,0,0,1.3-.312,3.258,3.258,0,0,0,.93-.828l.883.688A3.55,3.55,0,0,1,132.133,41.156Zm-.18-7.578a1.928,1.928,0,0,0-1.469.637A3.1,3.1,0,0,0,129.75,36h4.234v-.109a2.753,2.753,0,0,0-.594-1.707A1.815,1.815,0,0,0,131.953,33.578Zm10.07,5.18a1.064,1.064,0,0,0-.441-.91,4.249,4.249,0,0,0-1.539-.559,7.277,7.277,0,0,1-1.742-.562,2.479,2.479,0,0,1-.953-.781,1.869,1.869,0,0,1-.309-1.078,2.193,2.193,0,0,1,.879-1.758,3.432,3.432,0,0,1,2.246-.719,3.532,3.532,0,0,1,2.332.742,2.357,2.357,0,0,1,.895,1.9h-1.453a1.3,1.3,0,0,0-.5-1.023,1.888,1.888,0,0,0-1.27-.43,1.976,1.976,0,0,0-1.234.344,1.082,1.082,0,0,0-.445.9.877.877,0,0,0,.414.789,5.1,5.1,0,0,0,1.5.508,7.8,7.8,0,0,1,1.754.578,2.558,2.558,0,0,1,1,.809,1.988,1.988,0,0,1,.324,1.152,2.163,2.163,0,0,1-.906,1.816,3.8,3.8,0,0,1-2.352.684,4.257,4.257,0,0,1-1.8-.359,2.922,2.922,0,0,1-1.223-1,2.42,2.42,0,0,1-.441-1.395H138.2a1.5,1.5,0,0,0,.582,1.152,2.258,2.258,0,0,0,1.434.426,2.331,2.331,0,0,0,1.316-.332A1.02,1.02,0,0,0,142.023,38.758Zm3.523-5.93-.82-.562a3.761,3.761,0,0,0,.75-2.141V29h1.43v1.016a3.86,3.86,0,0,1-1.359,2.813Zm2.4,0-.82-.562a3.761,3.761,0,0,0,.75-2.141V29h1.43v1.016a3.86,3.86,0,0,1-1.359,2.813Zm3.07,10.438-.82-.562a3.77,3.77,0,0,0,.766-2.109v-1.3h1.414v1.133A3.559,3.559,0,0,1,151.988,42,3.7,3.7,0,0,1,151.016,43.266ZM2.172,52.852,3,53.414a3.685,3.685,0,0,0-.75,2.141v1.063H.813v-.906a3.584,3.584,0,0,1,.379-1.578A3.783,3.783,0,0,1,2.172,52.852Zm2.461,0,.828.563a3.685,3.685,0,0,0-.75,2.141v1.063H3.273v-.906a3.584,3.584,0,0,1,.379-1.578A3.783,3.783,0,0,1,4.633,52.852Zm7.109.773H13.25V61.68a3.336,3.336,0,0,1-.98,2.555,3.66,3.66,0,0,1-2.613.922,3.762,3.762,0,0,1-2.641-.867,3.132,3.132,0,0,1-.945-2.43h1.5a2.086,2.086,0,0,0,.535,1.523,2.073,2.073,0,0,0,1.551.547,2.012,2.012,0,0,0,1.5-.586,2.27,2.27,0,0,0,.582-1.641ZM20.8,64.164a3.07,3.07,0,0,1-2.477.992,2.628,2.628,0,0,1-2.059-.785,3.4,3.4,0,0,1-.715-2.324v-5.5h1.445v5.461q0,1.922,1.563,1.922a2.163,2.163,0,0,0,2.2-1.234V56.547H22.2V65H20.828Zm7.109.992a3.693,3.693,0,0,1-2.8-1.129,4.19,4.19,0,0,1-1.078-3.02v-.266a5.073,5.073,0,0,1,.48-2.246,3.748,3.748,0,0,1,1.344-1.547,3.378,3.378,0,0,1,1.871-.559,3.166,3.166,0,0,1,2.563,1.086,4.7,4.7,0,0,1,.914,3.109v.6H25.477a3,3,0,0,0,.73,2.02,2.3,2.3,0,0,0,1.777.77,2.517,2.517,0,0,0,1.3-.312,3.259,3.259,0,0,0,.93-.828l.883.688A3.55,3.55,0,0,1,27.906,65.156Zm-.18-7.578a1.928,1.928,0,0,0-1.469.637A3.1,3.1,0,0,0,25.523,60h4.234v-.109a2.753,2.753,0,0,0-.594-1.707A1.815,1.815,0,0,0,27.727,57.578Zm7.836,5.461,2.094-6.492h1.477L36.1,65H35l-3.062-8.453h1.477Zm8.469,2.117a3.693,3.693,0,0,1-2.8-1.129,4.19,4.19,0,0,1-1.078-3.02v-.266a5.073,5.073,0,0,1,.48-2.246,3.748,3.748,0,0,1,1.344-1.547,3.378,3.378,0,0,1,1.871-.559,3.166,3.166,0,0,1,2.563,1.086,4.7,4.7,0,0,1,.914,3.109v.6H41.6a3,3,0,0,0,.73,2.02,2.3,2.3,0,0,0,1.777.77,2.517,2.517,0,0,0,1.3-.312,3.258,3.258,0,0,0,.93-.828l.883.688A3.55,3.55,0,0,1,44.031,65.156Zm-.18-7.578a1.928,1.928,0,0,0-1.469.637A3.1,3.1,0,0,0,41.648,60h4.234v-.109a2.753,2.753,0,0,0-.594-1.707A1.815,1.815,0,0,0,43.852,57.578Zm10.07,5.18a1.064,1.064,0,0,0-.441-.91,4.249,4.249,0,0,0-1.539-.559,7.277,7.277,0,0,1-1.742-.562,2.479,2.479,0,0,1-.953-.781,1.869,1.869,0,0,1-.309-1.078,2.193,2.193,0,0,1,.879-1.758,3.432,3.432,0,0,1,2.246-.719,3.532,3.532,0,0,1,2.332.742,2.357,2.357,0,0,1,.895,1.9H53.836a1.3,1.3,0,0,0-.5-1.023,1.888,1.888,0,0,0-1.27-.43,1.976,1.976,0,0,0-1.234.344,1.082,1.082,0,0,0-.445.9.877.877,0,0,0,.414.789,5.1,5.1,0,0,0,1.5.508,7.8,7.8,0,0,1,1.754.578,2.558,2.558,0,0,1,1,.809,1.988,1.988,0,0,1,.324,1.152,2.163,2.163,0,0,1-.906,1.816,3.8,3.8,0,0,1-2.352.684,4.257,4.257,0,0,1-1.8-.359,2.922,2.922,0,0,1-1.223-1,2.42,2.42,0,0,1-.441-1.395h1.445a1.5,1.5,0,0,0,.582,1.152,2.258,2.258,0,0,0,1.434.426,2.331,2.331,0,0,0,1.316-.332A1.02,1.02,0,0,0,53.922,62.758Zm3.523-5.93-.82-.562a3.761,3.761,0,0,0,.75-2.141V53H58.8v1.016a3.86,3.86,0,0,1-1.359,2.813Zm2.4,0-.82-.562a3.761,3.761,0,0,0,.75-2.141V53H61.2v1.016a3.86,3.86,0,0,1-1.359,2.813Zm3.07,10.438-.82-.562a3.77,3.77,0,0,0,.766-2.109v-1.3h1.414v1.133A3.559,3.559,0,0,1,63.887,66,3.7,3.7,0,0,1,62.914,67.266Zm8.227-14.414.828.563a3.685,3.685,0,0,0-.75,2.141v1.063H69.781v-.906a3.584,3.584,0,0,1,.379-1.578A3.783,3.783,0,0,1,71.141,52.852Zm2.461,0,.828.563a3.685,3.685,0,0,0-.75,2.141v1.063H72.242v-.906a3.584,3.584,0,0,1,.379-1.578A3.783,3.783,0,0,1,73.6,52.852Zm6.109,10.156,3.25-9.383H84.6L80.383,65H79.055L74.844,53.625h1.633ZM87.469,65H86.023V56.547h1.445ZM85.906,54.3a.863.863,0,0,1,.215-.594.807.807,0,0,1,.637-.242.819.819,0,0,1,.641.242.854.854,0,0,1,.219.594.826.826,0,0,1-.219.586.834.834,0,0,1-.641.234.821.821,0,0,1-.637-.234A.834.834,0,0,1,85.906,54.3Zm7.383,10.852a3.693,3.693,0,0,1-2.8-1.129,4.19,4.19,0,0,1-1.078-3.02v-.266a5.073,5.073,0,0,1,.48-2.246,3.748,3.748,0,0,1,1.344-1.547,3.378,3.378,0,0,1,1.871-.559,3.166,3.166,0,0,1,2.563,1.086,4.7,4.7,0,0,1,.914,3.109v.6H90.859a3,3,0,0,0,.73,2.02,2.3,2.3,0,0,0,1.777.77,2.517,2.517,0,0,0,1.3-.312,3.259,3.259,0,0,0,.93-.828l.883.688A3.55,3.55,0,0,1,93.289,65.156Zm-.18-7.578a1.928,1.928,0,0,0-1.469.637A3.1,3.1,0,0,0,90.906,60h4.234v-.109a2.753,2.753,0,0,0-.594-1.707A1.815,1.815,0,0,0,93.109,57.578Zm9.234.266a4.331,4.331,0,0,0-.711-.055A1.9,1.9,0,0,0,99.7,59v6H98.258V56.547h1.406l.023.977a2.251,2.251,0,0,1,2.016-1.133,1.477,1.477,0,0,1,.641.109Zm2.7-1.3.047,1.063a3.08,3.08,0,0,1,2.531-1.219q2.68,0,2.7,3.023V65h-1.445V59.406a1.946,1.946,0,0,0-.418-1.352,1.675,1.675,0,0,0-1.277-.437,2.086,2.086,0,0,0-1.234.375,2.546,2.546,0,0,0-.828.984V65h-1.445V56.547Zm10.969,8.609a3.693,3.693,0,0,1-2.8-1.129,4.19,4.19,0,0,1-1.078-3.02v-.266a5.073,5.073,0,0,1,.48-2.246,3.748,3.748,0,0,1,1.344-1.547,3.378,3.378,0,0,1,1.871-.559,3.166,3.166,0,0,1,2.563,1.086,4.7,4.7,0,0,1,.914,3.109v.6h-5.727a3,3,0,0,0,.73,2.02,2.3,2.3,0,0,0,1.777.77,2.517,2.517,0,0,0,1.3-.312,3.259,3.259,0,0,0,.93-.828l.883.688A3.55,3.55,0,0,1,116.008,65.156Zm-.18-7.578a1.928,1.928,0,0,0-1.469.637A3.1,3.1,0,0,0,113.625,60h4.234v-.109a2.753,2.753,0,0,0-.594-1.707A1.815,1.815,0,0,0,115.828,57.578Zm10.07,5.18a1.064,1.064,0,0,0-.441-.91,4.249,4.249,0,0,0-1.539-.559,7.277,7.277,0,0,1-1.742-.562,2.479,2.479,0,0,1-.953-.781,1.869,1.869,0,0,1-.309-1.078,2.193,2.193,0,0,1,.879-1.758,3.432,3.432,0,0,1,2.246-.719,3.532,3.532,0,0,1,2.332.742,2.357,2.357,0,0,1,.895,1.9h-1.453a1.3,1.3,0,0,0-.5-1.023,1.888,1.888,0,0,0-1.27-.43,1.976,1.976,0,0,0-1.234.344,1.082,1.082,0,0,0-.445.9.877.877,0,0,0,.414.789,5.1,5.1,0,0,0,1.5.508,7.8,7.8,0,0,1,1.754.578,2.558,2.558,0,0,1,1,.809,1.988,1.988,0,0,1,.324,1.152,2.163,2.163,0,0,1-.906,1.816,3.8,3.8,0,0,1-2.352.684,4.257,4.257,0,0,1-1.8-.359,2.922,2.922,0,0,1-1.223-1,2.42,2.42,0,0,1-.441-1.395h1.445a1.5,1.5,0,0,0,.582,1.152,2.258,2.258,0,0,0,1.434.426,2.331,2.331,0,0,0,1.316-.332A1.02,1.02,0,0,0,125.9,62.758Zm3.523-5.93-.82-.562a3.761,3.761,0,0,0,.75-2.141V53h1.43v1.016a3.86,3.86,0,0,1-1.359,2.813Zm2.4,0-.82-.562a3.761,3.761,0,0,0,.75-2.141V53h1.43v1.016a3.86,3.86,0,0,1-1.359,2.813Zm3.07,10.438-.82-.562a3.77,3.77,0,0,0,.766-2.109v-1.3h1.414v1.133A3.559,3.559,0,0,1,135.863,66,3.7,3.7,0,0,1,134.891,67.266Zm8.227-14.414.828.563a3.685,3.685,0,0,0-.75,2.141v1.063h-1.437v-.906a3.584,3.584,0,0,1,.379-1.578A3.783,3.783,0,0,1,143.117,52.852Zm2.461,0,.828.563a3.685,3.685,0,0,0-.75,2.141v1.063h-1.437v-.906a3.584,3.584,0,0,1,.379-1.578A3.783,3.783,0,0,1,145.578,52.852Zm5.7,7.078a7.053,7.053,0,0,1-2.809-1.363,2.6,2.6,0,0,1-.879-2,2.752,2.752,0,0,1,1.074-2.223,4.269,4.269,0,0,1,2.793-.879,4.66,4.66,0,0,1,2.09.453,3.436,3.436,0,0,1,1.422,1.25,3.2,3.2,0,0,1,.5,1.742h-1.508a2.08,2.08,0,0,0-.656-1.627,2.669,2.669,0,0,0-1.852-.592,2.732,2.732,0,0,0-1.73.489,1.632,1.632,0,0,0-.621,1.358,1.468,1.468,0,0,0,.59,1.178,5.786,5.786,0,0,0,2.008.88,9.316,9.316,0,0,1,2.219.88,3.367,3.367,0,0,1,1.188,1.121,2.861,2.861,0,0,1,.387,1.508,2.658,2.658,0,0,1-1.078,2.215,4.6,4.6,0,0,1-2.883.832,5.347,5.347,0,0,1-2.187-.449,3.681,3.681,0,0,1-1.566-1.23,3,3,0,0,1-.551-1.773h1.508a1.959,1.959,0,0,0,.762,1.629,3.207,3.207,0,0,0,2.035.6,2.948,2.948,0,0,0,1.82-.484,1.573,1.573,0,0,0,.633-1.32,1.545,1.545,0,0,0-.586-1.293A6.755,6.755,0,0,0,151.273,59.93ZM162.406,65a3.036,3.036,0,0,1-.2-.891,3.225,3.225,0,0,1-2.406,1.047,2.984,2.984,0,0,1-2.051-.707,2.287,2.287,0,0,1-.8-1.793,2.39,2.39,0,0,1,1-2.051,4.733,4.733,0,0,1,2.824-.73h1.406v-.664A1.623,1.623,0,0,0,161.727,58a1.821,1.821,0,0,0-1.336-.449,2.107,2.107,0,0,0-1.3.391,1.151,1.151,0,0,0-.523.945h-1.453a2,2,0,0,1,.449-1.223,3.066,3.066,0,0,1,1.219-.934,4.1,4.1,0,0,1,1.691-.344,3.342,3.342,0,0,1,2.289.73,2.635,2.635,0,0,1,.859,2.012v3.891a4.757,4.757,0,0,0,.3,1.852V65Zm-2.4-1.1a2.54,2.54,0,0,0,1.289-.352,2.127,2.127,0,0,0,.883-.914V60.9h-1.133q-2.656,0-2.656,1.555a1.316,1.316,0,0,0,.453,1.063A1.742,1.742,0,0,0,160.008,63.9ZM161.344,53h1.75L161,55.3l-1.164,0Zm11.7,7.867a5.026,5.026,0,0,1-.891,3.113,2.846,2.846,0,0,1-2.391,1.176,2.947,2.947,0,0,1-2.477-1.133l-.07.977h-1.328V53h1.445v4.477a2.93,2.93,0,0,1,2.414-1.086,2.863,2.863,0,0,1,2.418,1.164,5.177,5.177,0,0,1,.879,3.188ZM171.6,60.7a3.906,3.906,0,0,0-.57-2.281,1.888,1.888,0,0,0-1.641-.8,2.122,2.122,0,0,0-2.055,1.328V62.6a2.181,2.181,0,0,0,2.07,1.328,1.878,1.878,0,0,0,1.617-.8A4.153,4.153,0,0,0,171.6,60.7Zm8.484,4.3a3.036,3.036,0,0,1-.2-.891,3.225,3.225,0,0,1-2.406,1.047,2.984,2.984,0,0,1-2.051-.707,2.287,2.287,0,0,1-.8-1.793,2.39,2.39,0,0,1,1-2.051,4.733,4.733,0,0,1,2.824-.73h1.406v-.664A1.623,1.623,0,0,0,179.406,58a1.821,1.821,0,0,0-1.336-.449,2.107,2.107,0,0,0-1.3.391,1.151,1.151,0,0,0-.523.945H174.8a2,2,0,0,1,.449-1.223,3.066,3.066,0,0,1,1.219-.934,4.1,4.1,0,0,1,1.691-.344,3.342,3.342,0,0,1,2.289.73,2.635,2.635,0,0,1,.859,2.012v3.891a4.757,4.757,0,0,0,.3,1.852V65Zm-2.4-1.1a2.54,2.54,0,0,0,1.289-.352,2.127,2.127,0,0,0,.883-.914V60.9h-1.133q-2.656,0-2.656,1.555a1.316,1.316,0,0,0,.453,1.063A1.742,1.742,0,0,0,177.688,63.9Zm5.531-3.2a4.952,4.952,0,0,1,.922-3.129,3.137,3.137,0,0,1,4.766-.168V53h1.445V65h-1.328l-.07-.906a2.943,2.943,0,0,1-2.414,1.063,2.887,2.887,0,0,1-2.395-1.2,5.008,5.008,0,0,1-.926-3.141Zm1.445.164a3.749,3.749,0,0,0,.594,2.25,1.919,1.919,0,0,0,1.641.813,2.108,2.108,0,0,0,2.008-1.234V58.813a2.125,2.125,0,0,0-1.992-1.2,1.929,1.929,0,0,0-1.656.82A4.128,4.128,0,0,0,184.664,60.867Zm7.547-.172a4.993,4.993,0,0,1,.488-2.234,3.642,3.642,0,0,1,1.359-1.531,3.7,3.7,0,0,1,1.988-.539,3.565,3.565,0,0,1,2.793,1.2,4.6,4.6,0,0,1,1.066,3.18v.1a5.036,5.036,0,0,1-.473,2.215,3.589,3.589,0,0,1-1.352,1.527,3.743,3.743,0,0,1-2.02.547,3.556,3.556,0,0,1-2.785-1.2,4.575,4.575,0,0,1-1.066-3.164Zm1.453.172a3.616,3.616,0,0,0,.652,2.258,2.211,2.211,0,0,0,3.5-.012,3.954,3.954,0,0,0,.648-2.418,3.61,3.61,0,0,0-.66-2.254,2.1,2.1,0,0,0-1.754-.863,2.075,2.075,0,0,0-1.727.852A3.925,3.925,0,0,0,193.664,60.867Zm7.188-4.039-.82-.562a3.761,3.761,0,0,0,.75-2.141V53h1.43v1.016a3.86,3.86,0,0,1-1.359,2.813Zm2.4,0-.82-.562a3.761,3.761,0,0,0,.75-2.141V53h1.43v1.016a3.86,3.86,0,0,1-1.359,2.813Zm3.07,10.438-.82-.562a3.77,3.77,0,0,0,.766-2.109v-1.3h1.414v1.133A3.559,3.559,0,0,1,207.293,66,3.7,3.7,0,0,1,206.32,67.266ZM2.172,76.852,3,77.414a3.685,3.685,0,0,0-.75,2.141v1.063H.813v-.906a3.584,3.584,0,0,1,.379-1.578A3.783,3.783,0,0,1,2.172,76.852Zm2.461,0,.828.563a3.685,3.685,0,0,0-.75,2.141v1.063H3.273v-.906a3.584,3.584,0,0,1,.379-1.578A3.783,3.783,0,0,1,4.633,76.852ZM6.977,89V77.625h3.211a5.169,5.169,0,0,1,2.625.656,4.438,4.438,0,0,1,1.762,1.867A6.078,6.078,0,0,1,15.2,82.93v.727a6.1,6.1,0,0,1-.621,2.82,4.369,4.369,0,0,1-1.773,1.859A5.5,5.5,0,0,1,10.125,89Zm1.5-10.148v8.922h1.578a3.434,3.434,0,0,0,2.7-1.079,4.458,4.458,0,0,0,.965-3.073v-.665a4.529,4.529,0,0,0-.91-3.014,3.239,3.239,0,0,0-2.582-1.091ZM16.859,84.7a4.993,4.993,0,0,1,.488-2.234,3.643,3.643,0,0,1,1.359-1.531,3.7,3.7,0,0,1,1.988-.539,3.565,3.565,0,0,1,2.793,1.2,4.6,4.6,0,0,1,1.066,3.18v.1a5.036,5.036,0,0,1-.473,2.215,3.589,3.589,0,0,1-1.352,1.527,3.743,3.743,0,0,1-2.02.547,3.556,3.556,0,0,1-2.785-1.2A4.575,4.575,0,0,1,16.859,84.8Zm1.453.172a3.616,3.616,0,0,0,.652,2.258,2.211,2.211,0,0,0,3.5-.012,3.955,3.955,0,0,0,.648-2.418,3.61,3.61,0,0,0-.66-2.254,2.1,2.1,0,0,0-1.754-.863,2.075,2.075,0,0,0-1.727.852A3.925,3.925,0,0,0,18.313,84.867Zm9.414-4.32.039.938a3.122,3.122,0,0,1,2.508-1.094,2.417,2.417,0,0,1,2.414,1.359,3.2,3.2,0,0,1,1.1-.984,3.242,3.242,0,0,1,1.6-.375q2.781,0,2.828,2.945V89H36.766V83.422a1.941,1.941,0,0,0-.414-1.355,1.823,1.823,0,0,0-1.391-.449,1.916,1.916,0,0,0-1.336.48,1.949,1.949,0,0,0-.617,1.293V89H31.555V83.461a1.613,1.613,0,0,0-1.8-1.844A1.934,1.934,0,0,0,27.8,82.828V89H26.359V80.547ZM41.961,89H40.516V80.547h1.445ZM40.4,78.3a.863.863,0,0,1,.215-.594.807.807,0,0,1,.637-.242.819.819,0,0,1,.641.242.854.854,0,0,1,.219.594.826.826,0,0,1-.219.586.834.834,0,0,1-.641.234.821.821,0,0,1-.637-.234A.834.834,0,0,1,40.4,78.3Zm5.242,2.242.047,1.063a3.08,3.08,0,0,1,2.531-1.219q2.68,0,2.7,3.023V89H49.477V83.406a1.946,1.946,0,0,0-.418-1.352,1.675,1.675,0,0,0-1.277-.437,2.086,2.086,0,0,0-1.234.375,2.546,2.546,0,0,0-.828.984V89H44.273V80.547ZM52.758,84.7a4.968,4.968,0,0,1,.914-3.145,3.151,3.151,0,0,1,4.836-.074l.07-.937H59.9V88.8a3.439,3.439,0,0,1-.973,2.586,3.589,3.589,0,0,1-2.613.945,4.348,4.348,0,0,1-1.789-.391,3.08,3.08,0,0,1-1.336-1.07l.75-.867a2.826,2.826,0,0,0,2.273,1.148,2.214,2.214,0,0,0,1.645-.594,2.269,2.269,0,0,0,.59-1.672v-.727a2.971,2.971,0,0,1-2.367,1,2.887,2.887,0,0,1-2.4-1.2A5.224,5.224,0,0,1,52.758,84.7Zm1.453.164a3.79,3.79,0,0,0,.586,2.246,1.9,1.9,0,0,0,1.641.816,2.117,2.117,0,0,0,2.008-1.242V82.828a2.142,2.142,0,0,0-1.992-1.211,1.921,1.921,0,0,0-1.648.82A4.128,4.128,0,0,0,54.211,84.867ZM61.7,84.7a4.993,4.993,0,0,1,.488-2.234,3.642,3.642,0,0,1,1.359-1.531,3.7,3.7,0,0,1,1.988-.539,3.565,3.565,0,0,1,2.793,1.2,4.6,4.6,0,0,1,1.066,3.18v.1a5.036,5.036,0,0,1-.473,2.215,3.589,3.589,0,0,1-1.352,1.527,3.743,3.743,0,0,1-2.02.547,3.556,3.556,0,0,1-2.785-1.2A4.575,4.575,0,0,1,61.7,84.8Zm1.453.172a3.616,3.616,0,0,0,.652,2.258,2.211,2.211,0,0,0,3.5-.012,3.955,3.955,0,0,0,.648-2.418,3.61,3.61,0,0,0-.66-2.254,2.1,2.1,0,0,0-1.754-.863,2.075,2.075,0,0,0-1.727.852A3.925,3.925,0,0,0,63.148,84.867Zm7.188-4.039-.82-.562a3.761,3.761,0,0,0,.75-2.141V77H71.7v1.016a3.86,3.86,0,0,1-1.359,2.813Zm2.4,0-.82-.562a3.761,3.761,0,0,0,.75-2.141V77h1.43v1.016a3.86,3.86,0,0,1-1.359,2.813ZM74.828,76h2.953V91.438H74.828V90.25h1.508V77.188H74.828Zm5.039,5.344a.905.905,0,0,1,.223-.625.848.848,0,0,1,.668-.25.874.874,0,0,1,.676.25.887.887,0,0,1,.23.625.839.839,0,0,1-.23.6.89.89,0,0,1-.676.242.8.8,0,0,1-.891-.844Zm.273,9.922-.82-.562a3.77,3.77,0,0,0,.766-2.109v-1.3H81.5v1.133A3.559,3.559,0,0,1,81.113,90,3.7,3.7,0,0,1,80.141,91.266Z" transform="translate(-249 -6120.082)" fill="#fff"/>
    <g transform="matrix(1, 0, 0, 1, -271, -6167.46)" filter="url(#Trazado_655383)">
      <path id="Trazado_655383-2" data-name="Trazado 655383" d="M5,0H232.055a5,5,0,0,1,5,5V20.379H1a1,1,0,0,1-1-1V5A5,5,0,0,1,5,0Z" transform="translate(9 6)" fill="url(#linear-gradient)"/>
    </g>
    <path id="Trazado_654862" data-name="Trazado 654862" d="M363.8,158.147a3.687,3.687,0,1,1-3.686-3.688A3.687,3.687,0,0,1,363.8,158.147Z" transform="translate(-584.438 -6309.673)" fill="#fff"/>
    <path id="Trazado_654863" data-name="Trazado 654863" d="M363.8,158.147a3.687,3.687,0,1,1-3.686-3.688A3.687,3.687,0,0,1,363.8,158.147Z" transform="translate(-599.156 -6309.673)" fill="#ffa726"/>
    <path id="Trazado_654864" data-name="Trazado 654864" d="M373.615,158.147a3.688,3.688,0,1,1-3.688-3.688A3.688,3.688,0,0,1,373.615,158.147Z" transform="translate(-579.534 -6309.673)" fill="#26a69a"/>
  </g>
</svg>
