<svg xmlns="http://www.w3.org/2000/svg" xmlns:xlink="http://www.w3.org/1999/xlink" width="355.632" height="272.271" viewBox="0 0 355.632 272.271">
  <defs>
    <clipPath id="clip-path">
      <rect id="Rectángulo_37349" data-name="Rectángulo 37349" width="355.632" height="272.271" fill="none"/>
    </clipPath>
    <clipPath id="clip-path-2">
      <rect id="Rectángulo_37304" data-name="Rectángulo 37304" width="355.632" height="271.425" fill="none"/>
    </clipPath>
    <clipPath id="clip-path-3">
      <rect id="Rectángulo_37305" data-name="Rectángulo 37305" width="355.632" height="273.965" fill="none"/>
    </clipPath>
    <linearGradient id="linear-gradient" x1="0.5" x2="0.5" y2="1" gradientUnits="objectBoundingBox">
      <stop offset="0" stop-color="#f5f5f5"/>
      <stop offset="0.25" stop-color="#f5f5f5"/>
      <stop offset="1" stop-color="#afafaf"/>
    </linearGradient>
    <clipPath id="clip-path-6">
      <path id="Trazado_184344" data-name="Trazado 184344" d="M40.695,172a3.82,3.82,0,1,0,3.82-3.821A3.821,3.821,0,0,0,40.695,172" transform="translate(-40.695 -168.179)" fill="none"/>
    </clipPath>
    <clipPath id="clip-path-8">
      <path id="Trazado_184348" data-name="Trazado 184348" d="M40.695,194.542a3.82,3.82,0,1,0,3.82-3.82,3.82,3.82,0,0,0-3.82,3.82" transform="translate(-40.695 -190.722)" fill="none"/>
    </clipPath>
    <clipPath id="clip-path-10">
      <rect id="Rectángulo_37341" data-name="Rectángulo 37341" width="88.581" height="48.049" fill="none"/>
    </clipPath>
    <linearGradient id="linear-gradient-3" x1="0.5" x2="0.5" y2="1" gradientUnits="objectBoundingBox">
      <stop offset="0" stop-color="#5573c6"/>
      <stop offset="1" stop-color="#2c4a9b"/>
    </linearGradient>
    <clipPath id="clip-path-11">
      <rect id="Rectángulo_37344" data-name="Rectángulo 37344" width="18.594" height="30.807" rx="3.829" fill="none"/>
    </clipPath>
  </defs>
  <g id="Grupo_142476" data-name="Grupo 142476" clip-path="url(#clip-path)">
    <path id="Trazado_184306" data-name="Trazado 184306" d="M302.273,46.508V24.337H66.89V92.556H27.534v74.249H76.478" transform="translate(-7.2 -5.517)" fill="none" stroke="#12263f" stroke-miterlimit="10" stroke-width="1.066" stroke-dasharray="3.197 3.197" opacity="0.22"/>
    <line id="Línea_137" data-name="Línea 137" y1="1.181" transform="translate(40.774 205.147)" fill="none" stroke="#0024a8" stroke-miterlimit="10" stroke-width="1.066"/>
    <line id="Línea_138" data-name="Línea 138" y1="25.685" transform="translate(40.774 177.229)" fill="none" stroke="#12263f" stroke-miterlimit="10" stroke-width="1.066" stroke-dasharray="3.024 3.024"/>
    <path id="Trazado_184307" data-name="Trazado 184307" d="M54.793,236.906v-1.181H53.612" transform="translate(-14.019 -60.794)" fill="none" stroke="#12263f" stroke-miterlimit="10" stroke-width="1.066"/>
    <line id="Línea_139" data-name="Línea 139" x1="34.665" transform="translate(2.692 174.931)" fill="none" stroke="#12263f" stroke-miterlimit="10" stroke-width="1.066" stroke-dasharray="3.028 3.028"/>
    <g id="Grupo_142448" data-name="Grupo 142448" transform="translate(0 0.847)">
      <g id="Grupo_142447" data-name="Grupo 142447" clip-path="url(#clip-path-2)">
        <path id="Trazado_184308" data-name="Trazado 184308" d="M1.714,235.308H.533v-1.181" transform="translate(-0.139 -61.223)" fill="none" stroke="#0024a8" stroke-miterlimit="10" stroke-width="1.066"/>
        <line id="Línea_140" data-name="Línea 140" y1="37.144" transform="translate(0.394 133.364)" fill="none" stroke="#0024a8" stroke-miterlimit="10" stroke-width="1.066" stroke-dasharray="3.245 3.245"/>
        <path id="Trazado_184309" data-name="Trazado 184309" d="M.533,178.545v-1.181H1.714" transform="translate(-0.139 -46.38)" fill="none" stroke="#0024a8" stroke-miterlimit="10" stroke-width="1.066"/>
      </g>
    </g>
    <line id="Línea_141" data-name="Línea 141" x2="44.442" transform="translate(3.853 131.831)" fill="none" stroke="#12263f" stroke-miterlimit="10" stroke-width="1.066" stroke-dasharray="3.086 3.086"/>
    <path id="Trazado_184310" data-name="Trazado 184310" d="M66.938,176.946h1.181v-1.181" transform="translate(-17.504 -45.115)" fill="none" stroke="#0024a8" stroke-miterlimit="10" stroke-width="1.066"/>
    <line id="Línea_142" data-name="Línea 142" y1="96.755" transform="translate(50.615 31.564)" fill="none" stroke="#12263f" stroke-miterlimit="10" stroke-width="1.066" stroke-dasharray="3.157 3.157"/>
    <path id="Trazado_184311" data-name="Trazado 184311" d="M68.537,39.6V38.416h1.181" transform="translate(-17.922 -9.199)" fill="none" stroke="#0024a8" stroke-miterlimit="10" stroke-width="1.066"/>
    <line id="Línea_143" data-name="Línea 143" x2="79.756" transform="translate(54.176 29.218)" fill="none" stroke="#0024a8" stroke-miterlimit="10" stroke-width="1.066" stroke-dasharray="3.224 3.224"/>
    <path id="Trazado_184312" data-name="Trazado 184312" d="M182.967,38h1.181V36.818" transform="translate(-47.845 -8.781)" fill="none" stroke="#0024a8" stroke-miterlimit="10" stroke-width="1.066"/>
    <line id="Línea_144" data-name="Línea 144" y1="22.123" transform="translate(136.303 3.586)" fill="none" stroke="#0024a8" stroke-miterlimit="10" stroke-width="1.066" stroke-dasharray="3.153 3.153"/>
    <g id="Grupo_142450" data-name="Grupo 142450" transform="translate(0 -1.693)">
      <g id="Grupo_142449" data-name="Grupo 142449" clip-path="url(#clip-path-3)">
        <path id="Trazado_184313" data-name="Trazado 184313" d="M184.566,1.714V.533h1.181" transform="translate(-48.263 2.401)" fill="none" stroke="#0024a8" stroke-miterlimit="10" stroke-width="1.066"/>
        <line id="Línea_145" data-name="Línea 145" x2="36.693" transform="translate(139.851 2.934)" fill="none" stroke="#12263f" stroke-miterlimit="10" stroke-width="1.066" stroke-dasharray="3.206 3.206"/>
        <path id="Trazado_184314" data-name="Trazado 184314" d="M240.66.533h1.181V1.714" transform="translate(-62.931 2.401)" fill="none" stroke="#12263f" stroke-miterlimit="10" stroke-width="1.066"/>
      </g>
    </g>
    <line id="Línea_146" data-name="Línea 146" y2="23.255" transform="translate(178.909 4.869)" fill="none" stroke="#12263f" stroke-miterlimit="10" stroke-width="1.066" stroke-dasharray="3.315 3.315"/>
    <path id="Trazado_184315" data-name="Trazado 184315" d="M242.258,38.593v1.181h1.181" transform="translate(-63.349 -9.245)" fill="none" stroke="#0024a8" stroke-miterlimit="10" stroke-width="1.066"/>
    <line id="Línea_147" data-name="Línea 147" x2="37.043" transform="translate(182.479 30.529)" fill="none" stroke="#12263f" stroke-miterlimit="10" stroke-width="1.066" stroke-dasharray="3.236 3.236"/>
    <path id="Trazado_184316" data-name="Trazado 184316" d="M298.87,40.192h1.181v1.181" transform="translate(-78.153 -9.663)" fill="none" stroke="#12273f" stroke-miterlimit="10" stroke-width="1.066"/>
    <line id="Línea_148" data-name="Línea 148" y2="4.051" transform="translate(221.898 34.41)" fill="none" stroke="#12263f" stroke-miterlimit="10" stroke-width="1.066" stroke-dasharray="3.656 3.656"/>
    <path id="Trazado_184317" data-name="Trazado 184317" d="M300.469,52.76v1.181h1.181" transform="translate(-78.571 -12.95)" fill="none" stroke="#12263f" stroke-miterlimit="10" stroke-width="1.066"/>
    <line id="Línea_149" data-name="Línea 149" x2="67.388" transform="translate(225.363 40.991)" fill="none" stroke="#12273f" stroke-miterlimit="10" stroke-width="1.066" stroke-dasharray="3.093 3.093"/>
    <path id="Trazado_184318" data-name="Trazado 184318" d="M397.956,54.359h1.181V55.54" transform="translate(-104.064 -13.368)" fill="none" stroke="#0024a8" stroke-miterlimit="10" stroke-width="1.066"/>
    <line id="Línea_150" data-name="Línea 150" y2="11.803" transform="translate(295.073 44.318)" fill="none" stroke="#0024a8" stroke-miterlimit="10" stroke-width="1.066" stroke-dasharray="2.906 2.906"/>
    <path id="Trazado_184319" data-name="Trazado 184319" d="M399.555,76.3v1.181h1.181" transform="translate(-104.482 -19.105)" fill="none" stroke="#0024a8" stroke-miterlimit="10" stroke-width="1.066"/>
    <line id="Línea_151" data-name="Línea 151" x2="33.562" transform="translate(298.74 58.374)" fill="none" stroke="#12273f" stroke-miterlimit="10" stroke-width="1.066" stroke-dasharray="3.366 3.366"/>
    <path id="Trazado_184320" data-name="Trazado 184320" d="M451.649,77.9h1.181v1.181" transform="translate(-118.104 -19.523)" fill="none" stroke="#12263f" stroke-miterlimit="10" stroke-width="1.066"/>
    <line id="Línea_152" data-name="Línea 152" y2="32.275" transform="translate(334.726 61.945)" fill="none" stroke="#12273f" stroke-miterlimit="10" stroke-width="1.066" stroke-dasharray="3.237 3.237"/>
    <path id="Trazado_184321" data-name="Trazado 184321" d="M452.83,128.055v1.181h-1.181" transform="translate(-118.104 -32.639)" fill="none" stroke="#12263f" stroke-miterlimit="10" stroke-width="1.066"/>
    <line id="Línea_153" data-name="Línea 153" x1="24.34" transform="translate(306.642 96.596)" fill="none" stroke="#12273f" stroke-miterlimit="10" stroke-width="1.066" stroke-dasharray="3.469 3.469"/>
    <path id="Trazado_184322" data-name="Trazado 184322" d="M413.068,129.654h-1.181v1.181" transform="translate(-107.707 -33.057)" fill="none" stroke="#12263f" stroke-miterlimit="10" stroke-width="1.066"/>
    <line id="Línea_154" data-name="Línea 154" y2="86.545" transform="translate(304.18 100.085)" fill="none" stroke="#12273f" stroke-miterlimit="10" stroke-width="1.066" stroke-dasharray="3.125 3.125"/>
    <line id="Línea_155" data-name="Línea 155" y2="1.181" transform="translate(304.18 187.783)" fill="none" stroke="#0024a8" stroke-miterlimit="10" stroke-width="1.066"/>
    <rect id="Rectángulo_37306" data-name="Rectángulo 37306" width="306.442" height="11.476" transform="translate(23.225 260.796)" fill="url(#linear-gradient)"/>
    <path id="Trazado_184323" data-name="Trazado 184323" d="M298.965,296.975H70.374L31.448,337.607H337.89Z" transform="translate(-8.224 -76.811)" fill="#12263f"/>
    <g id="Grupo_142458" data-name="Grupo 142458" transform="translate(0 0.847)">
      <g id="Grupo_142457" data-name="Grupo 142457" clip-path="url(#clip-path-2)">
        <path id="Trazado_184325" data-name="Trazado 184325" d="M204.607,275.226l-4.875,33.817h57.885l-5.484-33.817Z" transform="translate(-52.229 -71.97)" fill="#373f51"/>
        <rect id="Rectángulo_37307" data-name="Rectángulo 37307" width="98.1" height="2.437" transform="translate(127.396 241.947)" fill="#373f51"/>
        <path id="Trazado_184326" data-name="Trazado 184326" d="M192.613,321.017l-20.107,4.875h98.1L250.5,321.017Z" transform="translate(-45.109 -83.945)" fill="#e8e8e8"/>
        <path id="Trazado_184327" data-name="Trazado 184327" d="M311.966,206.8H85.795V89.5a9.367,9.367,0,0,1,9.367-9.367H302.6a9.367,9.367,0,0,1,9.367,9.367Z" transform="translate(-22.435 -20.955)" fill="#12263f"/>
        <path id="Trazado_184328" data-name="Trazado 184328" d="M302.639,273.325H95.124A9.328,9.328,0,0,1,85.8,264v-12.35H311.967V264a9.328,9.328,0,0,1-9.328,9.328" transform="translate(-22.435 -65.805)" fill="url(#linear-gradient)"/>
        <rect id="Rectángulo_37308" data-name="Rectángulo 37308" width="209.481" height="111.505" transform="translate(71.705 66.493)" fill="#fff"/>
        <path id="Trazado_184329" data-name="Trazado 184329" d="M241.776,263.594a4.418,4.418,0,1,1-4.418-4.418,4.418,4.418,0,0,1,4.418,4.418" transform="translate(-60.913 -67.773)" fill="#12263f"/>
        <rect id="Rectángulo_37309" data-name="Rectángulo 37309" width="74.178" height="86.583" transform="translate(104.731 79.22)" fill="#f4a338"/>
        <rect id="Rectángulo_37310" data-name="Rectángulo 37310" width="52.737" height="4.723" transform="translate(115.451 91.027)" fill="#e4eafe"/>
        <rect id="Rectángulo_37311" data-name="Rectángulo 37311" width="52.737" height="4.723" transform="translate(115.451 99.686)" fill="#e4eafe"/>
        <rect id="Rectángulo_37312" data-name="Rectángulo 37312" width="52.737" height="4.723" transform="translate(115.451 108.344)" fill="#e4eafe"/>
        <rect id="Rectángulo_37313" data-name="Rectángulo 37313" width="52.737" height="4.723" transform="translate(115.451 117.002)" fill="#e4eafe"/>
        <rect id="Rectángulo_37314" data-name="Rectángulo 37314" width="52.737" height="4.723" transform="translate(115.451 125.66)" fill="#e4eafe"/>
        <rect id="Rectángulo_37315" data-name="Rectángulo 37315" width="52.737" height="4.723" transform="translate(115.451 134.318)" fill="#e4eafe"/>
        <rect id="Rectángulo_37316" data-name="Rectángulo 37316" width="52.737" height="4.723" transform="translate(115.451 142.977)" fill="#e4eafe"/>
        <rect id="Rectángulo_37317" data-name="Rectángulo 37317" width="52.737" height="4.723" transform="translate(115.451 151.635)" fill="#e4eafe"/>
        <path id="Trazado_184330" data-name="Trazado 184330" d="M295.317,141.146V133.6h-4.7a16.243,16.243,0,0,0-1.95-4.788l3.345-3.346-5.335-5.335-3.32,3.32a16.209,16.209,0,0,0-4.765-2v-4.735h-7.545v4.7a16.147,16.147,0,0,0-4.789,1.95l-3.347-3.346-5.335,5.335,3.32,3.32a16.2,16.2,0,0,0-2,4.766h-4.735v7.545h4.7a16.231,16.231,0,0,0,1.95,4.789l-3.346,3.345,5.335,5.335,3.32-3.32a16.174,16.174,0,0,0,4.765,2.005v4.735h7.545v-4.7a16.2,16.2,0,0,0,4.788-1.95l3.347,3.346,5.334-5.335-3.32-3.32a16.193,16.193,0,0,0,2-4.765ZM274.74,144.54a7.251,7.251,0,1,1,7.251-7.251,7.251,7.251,0,0,1-7.251,7.251" transform="translate(-66.462 -30.52)" fill="#dee4f0"/>
        <path id="Trazado_184331" data-name="Trazado 184331" d="M336.521,174.318v-5.94h-3.7a12.789,12.789,0,0,0-1.536-3.771l2.634-2.634-4.2-4.2-2.614,2.614a12.773,12.773,0,0,0-3.751-1.577v-3.729h-5.941v3.7a12.741,12.741,0,0,0-3.771,1.536l-2.635-2.634-4.2,4.2,2.614,2.614a12.759,12.759,0,0,0-1.577,3.752h-3.728v5.94h3.7a12.728,12.728,0,0,0,1.535,3.771l-2.635,2.634,4.2,4.2,2.614-2.614a12.732,12.732,0,0,0,3.752,1.577v3.728h5.941v-3.7a12.794,12.794,0,0,0,3.77-1.536l2.634,2.634,4.2-4.2-2.614-2.614a12.759,12.759,0,0,0,1.577-3.752Zm-16.2,2.672a5.709,5.709,0,1,1,5.708-5.709,5.708,5.708,0,0,1-5.708,5.709" transform="translate(-79.526 -40.553)" fill="#12263f"/>
        <path id="Trazado_184332" data-name="Trazado 184332" d="M295.823,194.908v-4.215H293.2a9.087,9.087,0,0,0-1.089-2.675l1.868-1.869L291,183.17l-1.854,1.854a9.063,9.063,0,0,0-2.662-1.12v-2.645h-4.214v2.623a9.064,9.064,0,0,0-2.676,1.089l-1.869-1.869-2.98,2.981,1.854,1.854a9.084,9.084,0,0,0-1.12,2.662h-2.645v4.215h2.622a9.05,9.05,0,0,0,1.09,2.675l-1.869,1.869,2.98,2.98,1.854-1.854a9.049,9.049,0,0,0,2.662,1.12v2.645h4.215v-2.622a9.049,9.049,0,0,0,2.675-1.09l1.869,1.869,2.98-2.98-1.854-1.854a9.069,9.069,0,0,0,1.12-2.662Zm-11.494,1.9a4.05,4.05,0,1,1,4.051-4.05,4.051,4.051,0,0,1-4.051,4.05" transform="translate(-71.345 -47.398)" fill="#b0c0d2"/>
        <path id="Trazado_184335" data-name="Trazado 184335" d="M334.55,56.761a1.727,1.727,0,0,1-.757-.175,3.9,3.9,0,0,0-3.182-.006A1.74,1.74,0,0,1,328.3,55.8a1.721,1.721,0,0,1,.754-2.306,7.443,7.443,0,0,1,6.256-.015,1.731,1.731,0,0,1-.759,3.286" transform="translate(-85.801 -13.802)" fill="#12263f"/>
        <path id="Trazado_184336" data-name="Trazado 184336" d="M337.312,49.856a1.722,1.722,0,0,1-.992-.313c-5.563-3.9-10.892-.064-10.945-.024a1.73,1.73,0,0,1-2.054-2.786,13.065,13.065,0,0,1,14.986-.024,1.73,1.73,0,0,1-.995,3.148" transform="translate(-84.363 -11.595)" fill="#12263f"/>
        <path id="Trazado_184337" data-name="Trazado 184337" d="M340.051,43.228a1.72,1.72,0,0,1-1.057-.362c-10.3-7.965-18.706-.425-19.059-.1a1.73,1.73,0,0,1-2.358-2.533c.108-.1,10.866-9.9,23.533-.1a1.73,1.73,0,0,1-1.06,3.1" transform="translate(-82.902 -9.356)" fill="#12263f"/>
        <path id="Trazado_184338" data-name="Trazado 184338" d="M416.912,68.382A26.872,26.872,0,1,1,390.04,41.51a26.872,26.872,0,0,1,26.872,26.872" transform="translate(-94.967 -10.855)" fill="#f4a338"/>
      </g>
    </g>
    <text id="CMS" transform="translate(275.606 61.513)" fill="#fbfffd" font-size="14" font-family="Montserrat-Black, Montserrat" font-weight="800"><tspan x="0" y="0">CMS</tspan></text>
    <g id="Grupo_142460" data-name="Grupo 142460" transform="translate(0 0.847)">
      <g id="Grupo_142459" data-name="Grupo 142459" clip-path="url(#clip-path-2)">
        <path id="Trazado_184340" data-name="Trazado 184340" d="M419.1,288.549l1.984.005a20.649,20.649,0,0,0,0-41.261l-1.965-.006-.02.013a20.654,20.654,0,0,0,0,41.249m-12.473-7.272a23,23,0,0,1,4.224-2.429,24.7,24.7,0,0,0,5.881,7.81,19.117,19.117,0,0,1-10.1-5.381m12.78,5.51a23.6,23.6,0,0,1-7.069-8.536,23.831,23.831,0,0,1,7.069-1.405Zm0-11.538a25.472,25.472,0,0,0-7.715,1.538,23.559,23.559,0,0,1-1.648-7.386l9.363,0Zm0-7.45L410,267.8a23.8,23.8,0,0,1,1.286-7.641,25.088,25.088,0,0,0,8.128,1.721Zm4,18.909a24.682,24.682,0,0,0,6.078-8.147,23.147,23.147,0,0,1,4.545,2.466,19.051,19.051,0,0,1-10.623,5.681m11.679-6.889a24.633,24.633,0,0,0-4.985-2.73,25.2,25.2,0,0,0,1.649-7.7l7.454,0a18.87,18.87,0,0,1-4.119,10.432m.6-23a18.874,18.874,0,0,1,3.583,10.973l-7.466.005a25.422,25.422,0,0,0-1.306-7.948,25.192,25.192,0,0,0,5.19-3.03m-.985-1.256a23.64,23.64,0,0,1-4.759,2.786,24.981,24.981,0,0,0-6.533-9.205,18.96,18.96,0,0,1,11.292,6.42m-13.691-6.332a23.438,23.438,0,0,1,7.447,9.708,23.543,23.543,0,0,1-7.447,1.371Zm0,12.678a25.065,25.065,0,0,0,8-1.472,23.822,23.822,0,0,1,1.2,7.36l-9.2,0Zm0,7.489,9.145,0a23.6,23.6,0,0,1-1.549,7.143,25.484,25.484,0,0,0-7.6-1.3Zm0,7.43a23.865,23.865,0,0,1,6.971,1.183,23.576,23.576,0,0,1-6.971,8.611Zm-1.6-27.763v11.226a23.478,23.478,0,0,1-7.554-1.617,23.463,23.463,0,0,1,7.554-9.609m-2.673.128a25.009,25.009,0,0,0-6.347,8.847,23.568,23.568,0,0,1-4.429-2.749,19.019,19.019,0,0,1,10.776-6.1m-11.786,7.336a25.157,25.157,0,0,0,4.858,3,25.406,25.406,0,0,0-1.41,8.276l-7.248,0a18.848,18.848,0,0,1,3.8-11.284m-3.739,12.881,7.236,0a25.167,25.167,0,0,0,1.766,7.984,24.616,24.616,0,0,0-4.659,2.7,18.844,18.844,0,0,1-4.342-10.68" transform="translate(-104.482 -64.664)" fill="#12263f"/>
        <path id="Trazado_655069" data-name="Trazado 655069" d="M0,0H58.588V12.358H0Z" transform="translate(27.472 122.512)" fill="#4adbd1"/>
      </g>
    </g>
    <g id="Grupo_142462" data-name="Grupo 142462" transform="translate(30.053 125.048)">
      <g id="Grupo_142461" data-name="Grupo 142461" clip-path="url(#clip-path-6)">
        <path id="Trazado_184341" data-name="Trazado 184341" d="M48.336,172a3.82,3.82,0,1,1-3.82-3.82,3.82,3.82,0,0,1,3.82,3.82" transform="translate(-40.695 -168.179)" fill="#fff"/>
        <path id="Trazado_184342" data-name="Trazado 184342" d="M46.728,170.992A1.332,1.332,0,1,1,45.4,169.66a1.331,1.331,0,0,1,1.332,1.332" transform="translate(-41.576 -168.566)" fill="#4adbd1"/>
        <path id="Trazado_184343" data-name="Trazado 184343" d="M47.573,177.233h-5.28V175.6a2.21,2.21,0,0,1,2.211-2.21h.858a2.21,2.21,0,0,1,2.211,2.21Z" transform="translate(-41.113 -169.541)" fill="#4adbd1"/>
      </g>
    </g>
    <g id="Grupo_142464" data-name="Grupo 142464" transform="translate(0 0.847)">
      <g id="Grupo_142463" data-name="Grupo 142463" clip-path="url(#clip-path-2)">
        <rect id="Rectángulo_37323" data-name="Rectángulo 37323" width="38.994" height="0.589" transform="translate(39.559 125.66)" fill="#fff"/>
        <rect id="Rectángulo_37324" data-name="Rectángulo 37324" width="38.994" height="0.589" transform="translate(39.559 127.433)" fill="#fff"/>
        <rect id="Rectángulo_37325" data-name="Rectángulo 37325" width="38.994" height="0.589" transform="translate(39.559 129.206)" fill="#fff"/>
        <rect id="Rectángulo_37326" data-name="Rectángulo 37326" width="38.994" height="0.589" transform="translate(39.559 130.979)" fill="#fff"/>
        <rect id="Rectángulo_37327" data-name="Rectángulo 37327" width="58.588" height="12.358" transform="translate(27.472 139.159)" fill="#5573c6"/>
      </g>
    </g>
    <g id="Grupo_142466" data-name="Grupo 142466" transform="translate(30.053 141.696)">
      <g id="Grupo_142465" data-name="Grupo 142465" clip-path="url(#clip-path-8)">
        <path id="Trazado_184345" data-name="Trazado 184345" d="M48.336,194.541a3.82,3.82,0,1,1-3.82-3.82,3.82,3.82,0,0,1,3.82,3.82" transform="translate(-40.695 -190.722)" fill="#fff"/>
        <path id="Trazado_184346" data-name="Trazado 184346" d="M46.728,193.534A1.332,1.332,0,1,1,45.4,192.2a1.331,1.331,0,0,1,1.332,1.332" transform="translate(-41.576 -191.109)" fill="#5573c6"/>
        <path id="Trazado_184347" data-name="Trazado 184347" d="M47.573,199.775h-5.28V198.14a2.211,2.211,0,0,1,2.211-2.21h.858a2.211,2.211,0,0,1,2.211,2.21Z" transform="translate(-41.113 -192.084)" fill="#5573c6"/>
      </g>
    </g>
    <g id="Grupo_142471" data-name="Grupo 142471" transform="translate(0 0.847)">
      <g id="Grupo_142470" data-name="Grupo 142470" clip-path="url(#clip-path-2)">
        <rect id="Rectángulo_37329" data-name="Rectángulo 37329" width="38.994" height="0.589" transform="translate(39.559 142.308)" fill="#fff"/>
        <rect id="Rectángulo_37330" data-name="Rectángulo 37330" width="38.994" height="0.589" transform="translate(39.559 144.08)" fill="#fff"/>
        <rect id="Rectángulo_37331" data-name="Rectángulo 37331" width="38.994" height="0.589" transform="translate(39.559 145.853)" fill="#fff"/>
        <rect id="Rectángulo_37332" data-name="Rectángulo 37332" width="38.994" height="0.589" transform="translate(39.559 147.626)" fill="#fff"/>
        <path id="Trazado_184349" data-name="Trazado 184349" d="M111.675,40.775c-.182,0-.362.007-.542.013A19.114,19.114,0,0,0,80.772,21.22a19.118,19.118,0,0,0-35.987,4.022A19.118,19.118,0,0,0,19.509,40.78c-.056,0-.112,0-.168,0a14.6,14.6,0,0,0-12.708,7.4A1.754,1.754,0,0,0,8.154,50.8H122.861a1.754,1.754,0,0,0,1.521-2.624,14.6,14.6,0,0,0-12.708-7.4" transform="translate(-1.674 -2.671)" fill="#fff"/>
        <path id="Trazado_184350" data-name="Trazado 184350" d="M76.883,62.572,63.962,40.192,51.041,62.572h8.61V90.517h8.621V62.572Z" transform="translate(-13.347 -10.51)" fill="#12263f"/>
        <path id="Trazado_184351" data-name="Trazado 184351" d="M86.841,68.137l12.921,22.38,12.922-22.38h-8.611V40.192H95.451V68.137Z" transform="translate(-22.708 -10.51)" fill="#fca232"/>
        <g id="Grupo_142469" data-name="Grupo 142469" transform="translate(267.051 105.795)" opacity="0.51">
          <g id="Grupo_142468" data-name="Grupo 142468">
            <g id="Grupo_142467" data-name="Grupo 142467" clip-path="url(#clip-path-10)">
              <rect id="Rectángulo_37333" data-name="Rectángulo 37333" width="88.581" height="48.049" transform="translate(0)" fill="#4779f6"/>
              <rect id="Rectángulo_37334" data-name="Rectángulo 37334" width="73.777" height="3.456" transform="translate(4.017 4.892)" fill="#e4eafe"/>
              <rect id="Rectángulo_37335" data-name="Rectángulo 37335" width="51.579" height="3.456" transform="translate(4.017 10.505)" fill="#e4eafe"/>
              <rect id="Rectángulo_37336" data-name="Rectángulo 37336" width="63.121" height="3.456" transform="translate(4.017 16.119)" fill="#e4eafe"/>
              <rect id="Rectángulo_37337" data-name="Rectángulo 37337" width="73.777" height="3.456" transform="translate(4.017 21.733)" fill="#e4eafe"/>
              <rect id="Rectángulo_37338" data-name="Rectángulo 37338" width="68.083" height="3.456" transform="translate(4.018 27.347)" fill="#e4eafe"/>
              <rect id="Rectángulo_37339" data-name="Rectángulo 37339" width="60.503" height="3.456" transform="translate(4.017 32.961)" fill="#e4eafe"/>
              <rect id="Rectángulo_37340" data-name="Rectángulo 37340" width="69.538" height="3.456" transform="translate(4.017 38.574)" fill="#e4eafe"/>
            </g>
          </g>
        </g>
        <rect id="Rectángulo_37342" data-name="Rectángulo 37342" width="57.007" height="33.188" transform="translate(12.27 190.927)" fill="#fca232"/>
        <path id="Trazado_184352" data-name="Trazado 184352" d="M16.615,296.874l28.5-18.634,28.5,18.634Z" transform="translate(-4.345 -72.758)" fill="#ffb564"/>
        <path id="Trazado_184353" data-name="Trazado 184353" d="M16.615,258.531l28.5,22.883,28.5-22.883Z" transform="translate(-4.345 -67.605)" fill="#f98816"/>
        <path id="Trazado_184354" data-name="Trazado 184354" d="M237.9,15.192H222.392A3.388,3.388,0,0,0,219,18.581V48.727a3.389,3.389,0,0,0,3.388,3.389H237.9a3.389,3.389,0,0,0,3.389-3.389V18.581a3.389,3.389,0,0,0-3.389-3.389" transform="translate(-57.269 -3.973)" fill="url(#linear-gradient-3)"/>
      </g>
    </g>
    <g id="Grupo_142473" data-name="Grupo 142473" transform="translate(163.581 13.814)">
      <g id="Grupo_142472" data-name="Grupo 142472" clip-path="url(#clip-path-11)">
        <path id="Trazado_184355" data-name="Trazado 184355" d="M237.269,17.559H224.331a2.827,2.827,0,0,0-2.828,2.827V45.539a2.827,2.827,0,0,0,2.828,2.827h12.939a2.827,2.827,0,0,0,2.827-2.827V20.386a2.827,2.827,0,0,0-2.827-2.827" transform="translate(-221.503 -17.559)" fill="#b6ceff"/>
      </g>
    </g>
    <g id="Grupo_142475" data-name="Grupo 142475" transform="translate(0 0.847)">
      <g id="Grupo_142474" data-name="Grupo 142474" clip-path="url(#clip-path-2)">
        <path id="Trazado_184358" data-name="Trazado 184358" d="M234.8,61.55a1.092,1.092,0,1,1-1.092-1.092A1.092,1.092,0,0,1,234.8,61.55" transform="translate(-60.828 -15.81)" fill="#fff"/>
        <rect id="Rectángulo_37345" data-name="Rectángulo 37345" width="29.931" height="22.749" transform="translate(179.147 19.632)" fill="#fff"/>
        <path id="Trazado_184359" data-name="Trazado 184359" d="M252.852,46.332l-6.443-6.443,6.532-6.532,1.094,1.1L248.6,39.889l5.349,5.348Z" transform="translate(-64.435 -8.723)" fill="#4adbd1"/>
        <path id="Trazado_184360" data-name="Trazado 184360" d="M269.725,46.332l-1.1-1.1,5.437-5.437-5.348-5.348,1.1-1.1,6.443,6.443Z" transform="translate(-70.246 -8.723)" fill="#4adbd1"/>
        <rect id="Rectángulo_37346" data-name="Rectángulo 37346" width="12.323" height="1.549" transform="translate(190.918 36.765) rotate(-67.484)" fill="#4adbd1"/>
        <rect id="Rectángulo_37347" data-name="Rectángulo 37347" width="29.931" height="2.65" transform="translate(179.147 16.983)" fill="#4adbd1"/>
      </g>
    </g>
  </g>
</svg>
