<svg xmlns="http://www.w3.org/2000/svg" xmlns:xlink="http://www.w3.org/1999/xlink" width="512" height="330" viewBox="0 0 512 330">
  <defs>
    <filter id="Trazado_655378" x="0" y="61.532" width="333" height="222" filterUnits="userSpaceOnUse">
      <feOffset dy="3" input="SourceAlpha"/>
      <feGaussianBlur stdDeviation="3" result="blur"/>
      <feFlood flood-opacity="0.161"/>
      <feComposite operator="in" in2="blur"/>
      <feComposite in="SourceGraphic"/>
    </filter>
    <linearGradient id="linear-gradient" x1="0.5" x2="0.5" y2="1" gradientUnits="objectBoundingBox">
      <stop offset="0" stop-color="#f5f5f5"/>
      <stop offset="0.25" stop-color="#f5f5f5"/>
      <stop offset="1" stop-color="#a7b3cf"/>
    </linearGradient>
    <filter id="Trazado_655380" x="0" y="41.153" width="333" height="38.379" filterUnits="userSpaceOnUse">
      <feOffset dy="3" input="SourceAlpha"/>
      <feGaussianBlur stdDeviation="3" result="blur-2"/>
      <feFlood flood-opacity="0.161"/>
      <feComposite operator="in" in2="blur-2"/>
      <feComposite in="SourceGraphic"/>
    </filter>
    <clipPath id="clip-path">
      <rect id="Rectángulo_38088" data-name="Rectángulo 38088" width="354" height="330" transform="translate(1066 12982)" fill="#fff" stroke="#707070" stroke-width="1"/>
    </clipPath>
    <clipPath id="clip-path-2">
      <rect id="Rectángulo_37363" data-name="Rectángulo 37363" width="423.196" height="360.045" transform="translate(0 0)" fill="none"/>
    </clipPath>
  </defs>
  <g id="Grupo_981174" data-name="Grupo 981174" transform="translate(250 4036.15)">
    <path id="Trazado_655381" data-name="Trazado 655381" d="M2.93,0H1.43V-11.375h1.5ZM6.813-8.453l.047,1.063A3.08,3.08,0,0,1,9.391-8.609q2.68,0,2.7,3.023V0H10.648V-5.594a1.946,1.946,0,0,0-.418-1.352,1.675,1.675,0,0,0-1.277-.437,2.086,2.086,0,0,0-1.234.375,2.546,2.546,0,0,0-.828.984V0H5.445V-8.453Zm10.852,7.43a2.082,2.082,0,0,0,1.352-.469,1.649,1.649,0,0,0,.641-1.172h1.367a2.621,2.621,0,0,1-.5,1.383,3.293,3.293,0,0,1-1.23,1.047,3.55,3.55,0,0,1-1.629.391A3.482,3.482,0,0,1,14.918-1,4.59,4.59,0,0,1,13.9-4.148v-.242a5.089,5.089,0,0,1,.453-2.2,3.451,3.451,0,0,1,1.3-1.492,3.7,3.7,0,0,1,2-.531,3.39,3.39,0,0,1,2.363.852,3.043,3.043,0,0,1,1,2.211H19.656a1.992,1.992,0,0,0-.621-1.348,1.932,1.932,0,0,0-1.379-.527,2.023,2.023,0,0,0-1.707.793,3.724,3.724,0,0,0-.605,2.293v.273a3.65,3.65,0,0,0,.6,2.25A2.033,2.033,0,0,0,17.664-1.023Zm9.07-6.133a4.331,4.331,0,0,0-.711-.055A1.9,1.9,0,0,0,24.094-6V0H22.648V-8.453h1.406l.023.977a2.251,2.251,0,0,1,2.016-1.133,1.477,1.477,0,0,1,.641.109ZM31.57.156a3.693,3.693,0,0,1-2.8-1.129A4.19,4.19,0,0,1,27.7-3.992v-.266a5.073,5.073,0,0,1,.48-2.246A3.748,3.748,0,0,1,29.52-8.051a3.378,3.378,0,0,1,1.871-.559,3.166,3.166,0,0,1,2.563,1.086,4.7,4.7,0,0,1,.914,3.109v.6H29.141a3,3,0,0,0,.73,2.02,2.3,2.3,0,0,0,1.777.77,2.517,2.517,0,0,0,1.3-.312,3.259,3.259,0,0,0,.93-.828l.883.688A3.55,3.55,0,0,1,31.57.156Zm-.18-7.578a1.928,1.928,0,0,0-1.469.637A3.1,3.1,0,0,0,29.188-5h4.234v-.109a2.753,2.753,0,0,0-.594-1.707A1.815,1.815,0,0,0,31.391-7.422ZM37.9-8.453l.039.938a3.122,3.122,0,0,1,2.508-1.094A2.417,2.417,0,0,1,42.859-7.25a3.2,3.2,0,0,1,1.1-.984,3.242,3.242,0,0,1,1.6-.375q2.781,0,2.828,2.945V0H46.938V-5.578a1.941,1.941,0,0,0-.414-1.355,1.823,1.823,0,0,0-1.391-.449A1.917,1.917,0,0,0,43.8-6.9a1.949,1.949,0,0,0-.617,1.293V0H41.727V-5.539a1.613,1.613,0,0,0-1.8-1.844,1.934,1.934,0,0,0-1.945,1.211V0H36.531V-8.453ZM54.07.156a3.693,3.693,0,0,1-2.8-1.129A4.19,4.19,0,0,1,50.2-3.992v-.266a5.073,5.073,0,0,1,.48-2.246A3.748,3.748,0,0,1,52.02-8.051a3.378,3.378,0,0,1,1.871-.559,3.166,3.166,0,0,1,2.563,1.086,4.7,4.7,0,0,1,.914,3.109v.6H51.641a3,3,0,0,0,.73,2.02,2.3,2.3,0,0,0,1.777.77,2.517,2.517,0,0,0,1.3-.312,3.259,3.259,0,0,0,.93-.828l.883.688A3.55,3.55,0,0,1,54.07.156Zm-.18-7.578a1.928,1.928,0,0,0-1.469.637A3.1,3.1,0,0,0,51.688-5h4.234v-.109a2.753,2.753,0,0,0-.594-1.707A1.815,1.815,0,0,0,53.891-7.422Zm6.516-1.031.047,1.063a3.08,3.08,0,0,1,2.531-1.219q2.68,0,2.7,3.023V0H64.242V-5.594a1.946,1.946,0,0,0-.418-1.352,1.675,1.675,0,0,0-1.277-.437,2.086,2.086,0,0,0-1.234.375,2.546,2.546,0,0,0-.828.984V0H59.039V-8.453ZM69.828-10.5v2.047h1.578v1.117H69.828v5.249a1.173,1.173,0,0,0,.211.763.888.888,0,0,0,.719.254,3.5,3.5,0,0,0,.688-.094V0a4.215,4.215,0,0,1-1.109.155A1.8,1.8,0,0,1,68.875-.43a2.517,2.517,0,0,1-.492-1.664V-7.336H66.844V-8.453h1.539V-10.5Zm2.727,6.2a4.993,4.993,0,0,1,.488-2.234A3.643,3.643,0,0,1,74.4-8.07a3.7,3.7,0,0,1,1.988-.539,3.565,3.565,0,0,1,2.793,1.2,4.6,4.6,0,0,1,1.066,3.18v.1a5.036,5.036,0,0,1-.473,2.215A3.589,3.589,0,0,1,78.426-.391a3.743,3.743,0,0,1-2.02.547,3.556,3.556,0,0,1-2.785-1.2A4.575,4.575,0,0,1,72.555-4.2Zm1.453.172a3.616,3.616,0,0,0,.652,2.258,2.088,2.088,0,0,0,1.746.852,2.075,2.075,0,0,0,1.75-.863A3.955,3.955,0,0,0,78.8-4.3a3.61,3.61,0,0,0-.66-2.254,2.1,2.1,0,0,0-1.754-.863,2.075,2.075,0,0,0-1.727.852A3.925,3.925,0,0,0,74.008-4.133Zm13.375-4.32.039.938A3.122,3.122,0,0,1,89.93-8.609,2.417,2.417,0,0,1,92.344-7.25a3.2,3.2,0,0,1,1.1-.984,3.242,3.242,0,0,1,1.6-.375q2.781,0,2.828,2.945V0H96.422V-5.578a1.941,1.941,0,0,0-.414-1.355,1.823,1.823,0,0,0-1.391-.449,1.916,1.916,0,0,0-1.336.48,1.949,1.949,0,0,0-.617,1.293V0H91.211V-5.539a1.613,1.613,0,0,0-1.8-1.844,1.934,1.934,0,0,0-1.945,1.211V0H86.016V-8.453ZM105.266-.836a3.07,3.07,0,0,1-2.477.992,2.628,2.628,0,0,1-2.059-.785,3.4,3.4,0,0,1-.715-2.324v-5.5h1.445v5.461q0,1.922,1.563,1.922a2.163,2.163,0,0,0,2.2-1.234V-8.453h1.445V0H105.3ZM104.094-12h1.75L103.75-9.7l-1.164,0Zm6.344,12h-1.445V-12h1.445Zm4.273-10.5v2.047h1.578v1.117h-1.578v5.249a1.173,1.173,0,0,0,.211.763.888.888,0,0,0,.719.254,3.5,3.5,0,0,0,.688-.094V0a4.215,4.215,0,0,1-1.109.155,1.8,1.8,0,0,1-1.461-.586,2.517,2.517,0,0,1-.492-1.664V-7.336h-1.539V-8.453h1.539V-10.5ZM119.547,0H118.1V-8.453h1.445Zm-1.562-10.7a.863.863,0,0,1,.215-.594.807.807,0,0,1,.637-.242.819.819,0,0,1,.641.242.854.854,0,0,1,.219.594.826.826,0,0,1-.219.586.834.834,0,0,1-.641.234.821.821,0,0,1-.637-.234A.834.834,0,0,1,117.984-10.7ZM129-4.133a5.062,5.062,0,0,1-.883,3.109,2.829,2.829,0,0,1-2.391,1.18A3.1,3.1,0,0,1,123.3-.82V3.25h-1.445v-11.7h1.32l.07.938A2.977,2.977,0,0,1,125.7-8.609a2.882,2.882,0,0,1,2.41,1.148,5.117,5.117,0,0,1,.887,3.2ZM127.555-4.3a3.735,3.735,0,0,0-.609-2.258,1.963,1.963,0,0,0-1.672-.828A2.125,2.125,0,0,0,123.3-6.219V-2.18a2.129,2.129,0,0,0,1.984,1.156,1.954,1.954,0,0,0,1.652-.824A4.077,4.077,0,0,0,127.555-4.3ZM132.406,0h-1.445V-12h1.445Zm5.82.156a3.693,3.693,0,0,1-2.8-1.129,4.19,4.19,0,0,1-1.078-3.02v-.266a5.073,5.073,0,0,1,.48-2.246,3.748,3.748,0,0,1,1.344-1.547,3.378,3.378,0,0,1,1.871-.559,3.166,3.166,0,0,1,2.563,1.086,4.7,4.7,0,0,1,.914,3.109v.6H135.8a3,3,0,0,0,.73,2.02,2.3,2.3,0,0,0,1.777.77,2.517,2.517,0,0,0,1.3-.312,3.258,3.258,0,0,0,.93-.828l.883.688A3.55,3.55,0,0,1,138.227.156Zm-.18-7.578a1.928,1.928,0,0,0-1.469.637A3.1,3.1,0,0,0,135.844-5h4.234v-.109a2.753,2.753,0,0,0-.594-1.707A1.815,1.815,0,0,0,138.047-7.422Z" transform="translate(-234 -4021.16)" fill="#12263f"/>
    <g transform="matrix(1, 0, 0, 1, -250, -4036.15)" filter="url(#Trazado_655378)">
      <path id="Trazado_655378-2" data-name="Trazado 655378" d="M0,0H315V204H0Z" transform="translate(9 67.53)" fill="#12263f"/>
    </g>
    <g transform="matrix(1, 0, 0, 1, -250, -4036.15)" filter="url(#Trazado_655380)">
      <path id="Trazado_655380-2" data-name="Trazado 655380" d="M5,0H310a5,5,0,0,1,5,5V20.379H1a1,1,0,0,1-1-1V5A5,5,0,0,1,5,0Z" transform="translate(9 47.15)" fill="url(#linear-gradient)"/>
    </g>
    <path id="Trazado_654862" data-name="Trazado 654862" d="M363.8,158.147a3.687,3.687,0,1,1-3.686-3.688A3.687,3.687,0,0,1,363.8,158.147Z" transform="translate(-563.438 -4137.209)" fill="#fff"/>
    <path id="Trazado_654863" data-name="Trazado 654863" d="M363.8,158.147a3.687,3.687,0,1,1-3.686-3.688A3.687,3.687,0,0,1,363.8,158.147Z" transform="translate(-578.156 -4137.209)" fill="#ffa726"/>
    <path id="Trazado_654864" data-name="Trazado 654864" d="M373.615,158.147a3.688,3.688,0,1,1-3.688-3.688A3.688,3.688,0,0,1,373.615,158.147Z" transform="translate(-558.534 -4137.209)" fill="#26a69a"/>
    <path id="Trazado_655379" data-name="Trazado 655379" d="M1.466,14V8.04H.381V7.132H1.466v-.7a2.339,2.339,0,0,1,.59-1.708,2.23,2.23,0,0,1,1.669-.6,3.1,3.1,0,0,1,.806.107l-.063.946a3.373,3.373,0,0,0-.635-.057,1.146,1.146,0,0,0-.882.334,1.356,1.356,0,0,0-.311.958v.726H4.107V8.04H2.641V14Zm3.625-3.5a4.057,4.057,0,0,1,.4-1.815,2.96,2.96,0,0,1,1.1-1.244A3.007,3.007,0,0,1,8.208,7a2.9,2.9,0,0,1,2.269.971,3.736,3.736,0,0,1,.866,2.583v.083a4.092,4.092,0,0,1-.384,1.8,2.916,2.916,0,0,1-1.1,1.241,3.041,3.041,0,0,1-1.641.444,2.889,2.889,0,0,1-2.263-.971,3.718,3.718,0,0,1-.866-2.571Zm1.181.14a2.938,2.938,0,0,0,.53,1.834,1.7,1.7,0,0,0,1.419.692,1.686,1.686,0,0,0,1.422-.7,3.213,3.213,0,0,0,.527-1.965,2.933,2.933,0,0,0-.536-1.831,1.705,1.705,0,0,0-1.425-.7,1.686,1.686,0,0,0-1.4.692A3.189,3.189,0,0,0,6.271,10.642Zm9.864-2.457a3.519,3.519,0,0,0-.578-.044,1.547,1.547,0,0,0-1.568.984V14H12.816V7.132h1.143l.019.793A1.829,1.829,0,0,1,15.615,7a1.2,1.2,0,0,1,.521.089Zm4.253,2.063a9.814,9.814,0,0,1,.384-2.755,8,8,0,0,1,1.146-2.4A4.874,4.874,0,0,1,23.5,3.571l.241.774a5.056,5.056,0,0,0-1.52,2.171,9.411,9.411,0,0,0-.651,3.269l-.006.54a9.46,9.46,0,0,0,.9,4.253,5.079,5.079,0,0,0,1.282,1.688l-.241.717a5.031,5.031,0,0,1-1.612-1.574A8.823,8.823,0,0,1,20.389,10.249ZM26.152,14H24.978V7.132h1.174Zm-1.27-8.69a.7.7,0,0,1,.175-.482.655.655,0,0,1,.517-.2.666.666,0,0,1,.521.2.694.694,0,0,1,.178.482.671.671,0,0,1-.178.476.678.678,0,0,1-.521.19.667.667,0,0,1-.517-.19A.678.678,0,0,1,24.883,5.31ZM36.62,8.833H31.326V7.811H36.62Zm0,2.634H31.326V10.452H36.62Zm10.658-1.409a5.371,5.371,0,0,1-.7,3.066,2.928,2.928,0,0,1-4.393.022,5.1,5.1,0,0,1-.736-2.929V8.649a5.251,5.251,0,0,1,.7-3.028,2.98,2.98,0,0,1,4.405-.035,5.068,5.068,0,0,1,.724,2.948ZM46.1,8.452a4.3,4.3,0,0,0-.419-2.174A1.442,1.442,0,0,0,44.357,5.6a1.423,1.423,0,0,0-1.314.679,4.2,4.2,0,0,0-.425,2.088v1.879a4.372,4.372,0,0,0,.435,2.212,1.439,1.439,0,0,0,1.317.714,1.42,1.42,0,0,0,1.292-.673,4.214,4.214,0,0,0,.441-2.12Zm2.761,7.389-.667-.457a3.063,3.063,0,0,0,.622-1.714V12.61h1.149v.92a2.891,2.891,0,0,1-.314,1.282A3,3,0,0,1,48.864,15.841Zm7.021-8.709v7.662q0,1.98-1.8,1.98a2.191,2.191,0,0,1-.717-.114v-.934a2.27,2.27,0,0,0,.533.051.8.8,0,0,0,.6-.213,1.052,1.052,0,0,0,.206-.74V7.132ZM54.59,5.31a.7.7,0,0,1,.175-.479.642.642,0,0,1,.511-.2.666.666,0,0,1,.521.2.694.694,0,0,1,.178.482.671.671,0,0,1-.178.476.678.678,0,0,1-.521.19.657.657,0,0,1-.514-.19A.685.685,0,0,1,54.59,5.31ZM66.365,8.833H61.071V7.811h5.294Zm0,2.634H61.071V10.452h5.294Zm5.4-2.1.47-4.608h4.735V5.843H73.233l-.279,2.52a2.983,2.983,0,0,1,1.542-.4A2.55,2.55,0,0,1,76.5,8.8a3.271,3.271,0,0,1,.743,2.257,3.158,3.158,0,0,1-.771,2.25,2.811,2.811,0,0,1-2.155.822,2.921,2.921,0,0,1-2-.679,2.711,2.711,0,0,1-.882-1.879h1.111a1.865,1.865,0,0,0,.565,1.2,1.757,1.757,0,0,0,1.206.4A1.585,1.585,0,0,0,75.6,12.61a2.335,2.335,0,0,0,.467-1.542,2.143,2.143,0,0,0-.5-1.489,1.717,1.717,0,0,0-1.343-.562,1.936,1.936,0,0,0-1.206.336l-.311.254Zm6.7-1.587a.735.735,0,0,1,.181-.508.689.689,0,0,1,.543-.2.71.71,0,0,1,.549.2.721.721,0,0,1,.187.508.681.681,0,0,1-.187.489.723.723,0,0,1-.549.2.653.653,0,0,1-.724-.686Zm.222,8.062-.667-.457a3.063,3.063,0,0,0,.622-1.714V12.61H79.79v.92a2.891,2.891,0,0,1-.314,1.282A3,3,0,0,1,78.686,15.841ZM85.89,14H84.716V7.132H85.89Zm-1.27-8.69a.7.7,0,0,1,.175-.482.655.655,0,0,1,.517-.2.666.666,0,0,1,.521.2.694.694,0,0,1,.178.482.671.671,0,0,1-.178.476.678.678,0,0,1-.521.19.667.667,0,0,1-.517-.19A.678.678,0,0,1,84.621,5.31Zm7.154,4.6,3.974,1.606v1.244l-5.192-2.406V9.43l5.192-2.4V8.274Zm9.458-.546.47-4.608h4.735V5.843H102.7l-.279,2.52a2.983,2.983,0,0,1,1.542-.4,2.55,2.55,0,0,1,2.006.835,3.271,3.271,0,0,1,.743,2.257,3.158,3.158,0,0,1-.771,2.25,2.811,2.811,0,0,1-2.155.822,2.921,2.921,0,0,1-2-.679,2.711,2.711,0,0,1-.882-1.879h1.111a1.865,1.865,0,0,0,.565,1.2,1.757,1.757,0,0,0,1.206.4,1.585,1.585,0,0,0,1.285-.559,2.335,2.335,0,0,0,.467-1.542,2.143,2.143,0,0,0-.5-1.489,1.717,1.717,0,0,0-1.343-.562,1.936,1.936,0,0,0-1.206.336l-.311.254Zm6.7-1.587a.735.735,0,0,1,.181-.508.689.689,0,0,1,.543-.2.71.71,0,0,1,.549.2.721.721,0,0,1,.187.508.681.681,0,0,1-.187.489.723.723,0,0,1-.549.2.653.653,0,0,1-.724-.686Zm.222,8.062-.667-.457a3.063,3.063,0,0,0,.622-1.714V12.61h1.149v.92a2.891,2.891,0,0,1-.314,1.282A3,3,0,0,1,108.151,15.841Zm7.2-1.841h-1.174V7.132h1.174Zm-1.27-8.69a.7.7,0,0,1,.175-.482.655.655,0,0,1,.517-.2.666.666,0,0,1,.521.2.694.694,0,0,1,.178.482.671.671,0,0,1-.178.476.678.678,0,0,1-.521.19.667.667,0,0,1-.517-.19A.678.678,0,0,1,114.086,5.31ZM120.6,9.042h2.577v1.111H120.6v2.92h-1.181v-2.92h-2.577V9.042h2.577v-2.7H120.6Zm7.37,0h2.577v1.111h-2.577v2.92h-1.181v-2.92h-2.577V9.042h2.577v-2.7h1.181Zm3.967,6.8-.667-.457a3.063,3.063,0,0,0,.622-1.714V12.61h1.149v.92a2.891,2.891,0,0,1-.314,1.282A3,3,0,0,1,131.936,15.841Zm7.021-8.709v7.662q0,1.98-1.8,1.98a2.191,2.191,0,0,1-.717-.114v-.934a2.27,2.27,0,0,0,.533.051.8.8,0,0,0,.6-.213,1.052,1.052,0,0,0,.206-.74V7.132ZM137.662,5.31a.7.7,0,0,1,.175-.479.642.642,0,0,1,.511-.2.666.666,0,0,1,.521.2.694.694,0,0,1,.178.482.671.671,0,0,1-.178.476.678.678,0,0,1-.521.19.657.657,0,0,1-.514-.19A.685.685,0,0,1,137.662,5.31Zm11.691,4.558h-8.48V8.909h8.48Zm4.356.444a9.819,9.819,0,0,1-.371,2.714,8.024,8.024,0,0,1-1.136,2.4,4.978,4.978,0,0,1-1.6,1.562l-.248-.717a5.1,5.1,0,0,0,1.571-2.326,10.065,10.065,0,0,0,.606-3.5v-.2a10.449,10.449,0,0,0-.279-2.479,8.366,8.366,0,0,0-.778-2.053,4.743,4.743,0,0,0-1.12-1.416l.248-.717a4.959,4.959,0,0,1,1.6,1.549,8.041,8.041,0,0,1,1.136,2.393A10.045,10.045,0,0,1,153.708,10.312Zm8.15,6.011a3.155,3.155,0,0,1-1.692-1.044,3.031,3.031,0,0,1-.568-1.92V12.1q0-1.542-1.346-1.542v-.92q1.346,0,1.346-1.536V6.776a3.026,3.026,0,0,1,.568-1.876,3.158,3.158,0,0,1,1.692-1.038l.241.73a2.03,2.03,0,0,0-1.327,2.215V8.09a2.074,2.074,0,0,1-1.06,2.006,2.1,2.1,0,0,1,1.06,2.025v1.308a2.011,2.011,0,0,0,1.327,2.165ZM10.08,31.168a1.692,1.692,0,0,0,1.1-.381,1.34,1.34,0,0,0,.521-.952H12.81a2.13,2.13,0,0,1-.406,1.124,2.676,2.676,0,0,1-1,.851,2.885,2.885,0,0,1-1.323.317,2.829,2.829,0,0,1-2.231-.936,3.729,3.729,0,0,1-.828-2.561v-.2a4.135,4.135,0,0,1,.368-1.784,2.8,2.8,0,0,1,1.057-1.212A3,3,0,0,1,10.074,25a2.755,2.755,0,0,1,1.92.692,2.473,2.473,0,0,1,.816,1.8H11.7a1.618,1.618,0,0,0-.5-1.095,1.57,1.57,0,0,0-1.12-.428,1.644,1.644,0,0,0-1.387.644,3.026,3.026,0,0,0-.492,1.863V28.7a2.965,2.965,0,0,0,.489,1.828A1.651,1.651,0,0,0,10.08,31.168ZM13.819,28.5a4.057,4.057,0,0,1,.4-1.815,2.96,2.96,0,0,1,1.1-1.244A3.007,3.007,0,0,1,16.936,25a2.9,2.9,0,0,1,2.269.971,3.736,3.736,0,0,1,.866,2.583v.083a4.092,4.092,0,0,1-.384,1.8,2.916,2.916,0,0,1-1.1,1.241,3.041,3.041,0,0,1-1.641.444,2.889,2.889,0,0,1-2.263-.971,3.718,3.718,0,0,1-.866-2.571Zm1.181.14a2.938,2.938,0,0,0,.53,1.834,1.8,1.8,0,0,0,2.841-.01A3.213,3.213,0,0,0,18.9,28.5a2.933,2.933,0,0,0-.536-1.831,1.705,1.705,0,0,0-1.425-.7,1.686,1.686,0,0,0-1.4.692A3.189,3.189,0,0,0,15,28.642Zm7.655-3.51.038.863A2.5,2.5,0,0,1,24.75,25q2.177,0,2.2,2.457V32H25.771V27.455a1.581,1.581,0,0,0-.34-1.1A1.361,1.361,0,0,0,24.394,26a1.7,1.7,0,0,0-1,.3,2.069,2.069,0,0,0-.673.8V32H21.544V25.132Zm10.061,5.046a.865.865,0,0,0-.359-.74,3.452,3.452,0,0,0-1.25-.454,5.912,5.912,0,0,1-1.416-.457,2.014,2.014,0,0,1-.774-.635,1.518,1.518,0,0,1-.251-.876,1.782,1.782,0,0,1,.714-1.428A2.789,2.789,0,0,1,31.205,25a2.87,2.87,0,0,1,1.895.6,1.915,1.915,0,0,1,.727,1.542H32.646a1.06,1.06,0,0,0-.409-.832,1.534,1.534,0,0,0-1.031-.349,1.606,1.606,0,0,0-1,.279.879.879,0,0,0-.362.73.712.712,0,0,0,.336.641,4.139,4.139,0,0,0,1.216.413,6.334,6.334,0,0,1,1.425.47,2.079,2.079,0,0,1,.809.657,1.615,1.615,0,0,1,.263.936,1.758,1.758,0,0,1-.736,1.476,3.089,3.089,0,0,1-1.911.555,3.459,3.459,0,0,1-1.46-.292,2.375,2.375,0,0,1-.993-.816,1.966,1.966,0,0,1-.359-1.133h1.174a1.216,1.216,0,0,0,.473.936,1.835,1.835,0,0,0,1.165.346,1.894,1.894,0,0,0,1.07-.27A.829.829,0,0,0,32.716,30.178ZM35.109,28.5a4.057,4.057,0,0,1,.4-1.815,2.96,2.96,0,0,1,1.1-1.244A3.007,3.007,0,0,1,38.226,25a2.9,2.9,0,0,1,2.269.971,3.736,3.736,0,0,1,.866,2.583v.083a4.092,4.092,0,0,1-.384,1.8,2.916,2.916,0,0,1-1.1,1.241,3.041,3.041,0,0,1-1.641.444,2.889,2.889,0,0,1-2.263-.971,3.718,3.718,0,0,1-.866-2.571Zm1.181.14a2.938,2.938,0,0,0,.53,1.834,1.8,1.8,0,0,0,2.841-.01,3.213,3.213,0,0,0,.527-1.965,2.933,2.933,0,0,0-.536-1.831,1.705,1.705,0,0,0-1.425-.7,1.686,1.686,0,0,0-1.4.692A3.189,3.189,0,0,0,36.29,28.642ZM44.11,32H42.936V22.25H44.11Zm4.729.127a3,3,0,0,1-2.272-.917,3.4,3.4,0,0,1-.876-2.453v-.216a4.121,4.121,0,0,1,.39-1.825,3.045,3.045,0,0,1,1.092-1.257A2.745,2.745,0,0,1,48.693,25a2.572,2.572,0,0,1,2.082.882,3.82,3.82,0,0,1,.743,2.526V28.9H46.865a2.441,2.441,0,0,0,.594,1.641,1.866,1.866,0,0,0,1.444.625,2.045,2.045,0,0,0,1.054-.254,2.648,2.648,0,0,0,.755-.673l.717.559A2.884,2.884,0,0,1,48.839,32.127Zm-.146-6.157a1.566,1.566,0,0,0-1.193.517,2.515,2.515,0,0,0-.6,1.45h3.44v-.089a2.237,2.237,0,0,0-.482-1.387A1.475,1.475,0,0,0,48.693,25.97ZM52.9,31.384a.735.735,0,0,1,.181-.508.689.689,0,0,1,.543-.2.71.71,0,0,1,.549.2.721.721,0,0,1,.187.508.681.681,0,0,1-.187.489.723.723,0,0,1-.549.2.653.653,0,0,1-.724-.686ZM57.573,32H56.4V22.25h1.174Zm1.568-3.5a4.057,4.057,0,0,1,.4-1.815,2.96,2.96,0,0,1,1.1-1.244A3.007,3.007,0,0,1,62.258,25a2.9,2.9,0,0,1,2.269.971,3.736,3.736,0,0,1,.866,2.583v.083a4.092,4.092,0,0,1-.384,1.8,2.916,2.916,0,0,1-1.1,1.241,3.041,3.041,0,0,1-1.641.444,2.889,2.889,0,0,1-2.263-.971,3.718,3.718,0,0,1-.866-2.571Zm1.181.14a2.938,2.938,0,0,0,.53,1.834,1.8,1.8,0,0,0,2.841-.01,3.213,3.213,0,0,0,.527-1.965,2.933,2.933,0,0,0-.536-1.831,1.705,1.705,0,0,0-1.425-.7,1.686,1.686,0,0,0-1.4.692A3.189,3.189,0,0,0,60.322,28.642Zm6.265-.133a4.037,4.037,0,0,1,.743-2.555,2.56,2.56,0,0,1,3.929-.06l.057-.762h1.073v6.7a2.794,2.794,0,0,1-.79,2.1,2.916,2.916,0,0,1-2.123.768,3.532,3.532,0,0,1-1.454-.317,2.5,2.5,0,0,1-1.085-.87l.609-.7a2.3,2.3,0,0,0,1.847.933,1.8,1.8,0,0,0,1.336-.482,1.844,1.844,0,0,0,.479-1.358v-.59a2.414,2.414,0,0,1-1.923.813,2.346,2.346,0,0,1-1.952-.971A4.244,4.244,0,0,1,66.587,28.509Zm1.181.133a3.08,3.08,0,0,0,.476,1.825,1.547,1.547,0,0,0,1.333.663,1.72,1.72,0,0,0,1.631-1.009V26.985A1.74,1.74,0,0,0,69.589,26a1.561,1.561,0,0,0-1.339.667A3.354,3.354,0,0,0,67.768,28.642Zm6.348-.394a9.814,9.814,0,0,1,.384-2.755,8,8,0,0,1,1.146-2.4,4.874,4.874,0,0,1,1.581-1.523l.241.774a5.056,5.056,0,0,0-1.52,2.171,9.411,9.411,0,0,0-.651,3.269l-.006.54a9.46,9.46,0,0,0,.9,4.253,5.079,5.079,0,0,0,1.282,1.688l-.241.717a5.031,5.031,0,0,1-1.612-1.574A8.823,8.823,0,0,1,74.115,28.249Zm5.364-6.119.673.457a2.994,2.994,0,0,0-.609,1.739v.863H78.375v-.736a2.912,2.912,0,0,1,.308-1.282A3.074,3.074,0,0,1,79.479,22.129Zm2,0,.673.457a2.994,2.994,0,0,0-.609,1.739v.863H80.374v-.736a2.912,2.912,0,0,1,.308-1.282A3.074,3.074,0,0,1,81.479,22.129Zm4.964,8.252,2.641-7.624h1.333L86.988,32H85.909l-3.421-9.242h1.327ZM95.418,32a2.467,2.467,0,0,1-.165-.724,2.62,2.62,0,0,1-1.955.851,2.424,2.424,0,0,1-1.666-.574,1.859,1.859,0,0,1-.651-1.457,1.942,1.942,0,0,1,.816-1.666,3.846,3.846,0,0,1,2.295-.594h1.143V27.3a1.319,1.319,0,0,0-.368-.981,1.48,1.48,0,0,0-1.085-.365,1.712,1.712,0,0,0-1.054.317.935.935,0,0,0-.425.768H91.121a1.621,1.621,0,0,1,.365-.993,2.491,2.491,0,0,1,.99-.759A3.331,3.331,0,0,1,93.85,25a2.715,2.715,0,0,1,1.86.594,2.141,2.141,0,0,1,.7,1.635v3.161a3.865,3.865,0,0,0,.241,1.5V32Zm-1.949-.9a2.064,2.064,0,0,0,1.047-.286,1.728,1.728,0,0,0,.717-.743V28.667h-.92q-2.158,0-2.158,1.263a1.069,1.069,0,0,0,.368.863A1.415,1.415,0,0,0,93.469,31.1Zm6.056.9H98.351V22.25h1.174Zm1.568-3.5a4.057,4.057,0,0,1,.4-1.815,2.96,2.96,0,0,1,1.1-1.244A3.007,3.007,0,0,1,104.209,25a2.9,2.9,0,0,1,2.269.971,3.736,3.736,0,0,1,.866,2.583v.083a4.092,4.092,0,0,1-.384,1.8,2.916,2.916,0,0,1-1.1,1.241,3.041,3.041,0,0,1-1.641.444,2.889,2.889,0,0,1-2.263-.971,3.718,3.718,0,0,1-.866-2.571Zm1.181.14a2.938,2.938,0,0,0,.53,1.834,1.8,1.8,0,0,0,2.841-.01,3.213,3.213,0,0,0,.527-1.965,2.933,2.933,0,0,0-.536-1.831,1.705,1.705,0,0,0-1.425-.7,1.686,1.686,0,0,0-1.4.692A3.189,3.189,0,0,0,102.273,28.642Zm9.864-2.457a3.519,3.519,0,0,0-.578-.044,1.547,1.547,0,0,0-1.568.984V32h-1.174V25.132h1.143l.019.793a1.829,1.829,0,0,1,1.638-.92,1.2,1.2,0,0,1,.521.089Zm4.012,2.323a4.023,4.023,0,0,1,.749-2.542,2.548,2.548,0,0,1,3.872-.136V22.25h1.174V32h-1.079l-.057-.736a2.391,2.391,0,0,1-1.961.863,2.346,2.346,0,0,1-1.946-.978,4.069,4.069,0,0,1-.752-2.552Zm1.174.133a3.046,3.046,0,0,0,.482,1.828,1.56,1.56,0,0,0,1.333.66,1.713,1.713,0,0,0,1.631-1V26.973A1.726,1.726,0,0,0,119.152,26a1.567,1.567,0,0,0-1.346.667A3.354,3.354,0,0,0,117.324,28.642Zm9.293,3.485a3,3,0,0,1-2.272-.917,3.4,3.4,0,0,1-.876-2.453v-.216a4.121,4.121,0,0,1,.39-1.825,3.045,3.045,0,0,1,1.092-1.257,2.745,2.745,0,0,1,1.52-.454,2.572,2.572,0,0,1,2.082.882,3.82,3.82,0,0,1,.743,2.526V28.9h-4.653a2.441,2.441,0,0,0,.594,1.641,1.866,1.866,0,0,0,1.444.625,2.045,2.045,0,0,0,1.054-.254,2.647,2.647,0,0,0,.755-.673l.717.559A2.884,2.884,0,0,1,126.617,32.127Zm-.146-6.157a1.566,1.566,0,0,0-1.193.517,2.515,2.515,0,0,0-.6,1.45h3.44v-.089a2.237,2.237,0,0,0-.482-1.387A1.475,1.475,0,0,0,126.471,25.97ZM135.148,32h-1.174V25.132h1.174Zm-1.27-8.69a.7.7,0,0,1,.175-.482.655.655,0,0,1,.517-.2.666.666,0,0,1,.521.2.694.694,0,0,1,.178.482.671.671,0,0,1-.178.476.678.678,0,0,1-.521.19.667.667,0,0,1-.517-.19A.678.678,0,0,1,133.878,23.31Zm8.614,6.97,1.6-5.148h1.257l-2.761,7.928q-.641,1.714-2.038,1.714l-.222-.019-.438-.083V33.72l.317.025a1.563,1.563,0,0,0,.93-.241,1.746,1.746,0,0,0,.549-.882l.26-.7-2.45-6.792h1.282Zm8.334-5.148v7.662q0,1.98-1.8,1.98a2.191,2.191,0,0,1-.717-.114v-.934a2.27,2.27,0,0,0,.533.051.8.8,0,0,0,.6-.213,1.052,1.052,0,0,0,.206-.74V25.132Zm-1.295-1.822a.7.7,0,0,1,.175-.479.642.642,0,0,1,.511-.2.666.666,0,0,1,.521.2.694.694,0,0,1,.178.482.671.671,0,0,1-.178.476.678.678,0,0,1-.521.19.657.657,0,0,1-.514-.19A.685.685,0,0,1,149.532,23.31Zm3.148,8.074a.735.735,0,0,1,.181-.508.689.689,0,0,1,.543-.2.71.71,0,0,1,.549.2.721.721,0,0,1,.187.508.682.682,0,0,1-.187.489.723.723,0,0,1-.549.2.653.653,0,0,1-.724-.686Zm.006-5.6a.735.735,0,0,1,.181-.508.689.689,0,0,1,.543-.2.71.71,0,0,1,.549.2.721.721,0,0,1,.187.508.682.682,0,0,1-.187.489.723.723,0,0,1-.549.2.653.653,0,0,1-.724-.686Zm3.339-.419-.667-.457a3.056,3.056,0,0,0,.609-1.739V22.25h1.162v.825a3.137,3.137,0,0,1-1.1,2.285Zm1.949,0-.667-.457a3.056,3.056,0,0,0,.609-1.739V22.25h1.162v.825a3.137,3.137,0,0,1-1.1,2.285Zm2.495,8.48-.667-.457a3.063,3.063,0,0,0,.622-1.714V30.61h1.149v.92a2.891,2.891,0,0,1-.314,1.282A3,3,0,0,1,160.469,33.841ZM167.553,32h-1.174V25.132h1.174Zm-1.27-8.69a.7.7,0,0,1,.175-.482.655.655,0,0,1,.517-.2.666.666,0,0,1,.521.2.694.694,0,0,1,.178.482.671.671,0,0,1-.178.476.678.678,0,0,1-.521.19.667.667,0,0,1-.517-.19A.678.678,0,0,1,166.283,23.31Zm3.11,10.531-.667-.457a3.063,3.063,0,0,0,.622-1.714V30.61H170.5v.92a2.891,2.891,0,0,1-.314,1.282A3,3,0,0,1,169.394,33.841Zm7.021-8.709v7.662q0,1.98-1.8,1.98a2.191,2.191,0,0,1-.717-.114v-.934a2.27,2.27,0,0,0,.533.051.8.8,0,0,0,.6-.213,1.052,1.052,0,0,0,.206-.74V25.132Zm-1.295-1.822a.7.7,0,0,1,.175-.479.642.642,0,0,1,.511-.2.666.666,0,0,1,.521.2.694.694,0,0,1,.178.482.671.671,0,0,1-.178.476.678.678,0,0,1-.521.19.657.657,0,0,1-.514-.19A.685.685,0,0,1,175.119,23.31Zm5.9,5a9.819,9.819,0,0,1-.371,2.714,8.024,8.024,0,0,1-1.136,2.4,4.978,4.978,0,0,1-1.6,1.562l-.248-.717a5.1,5.1,0,0,0,1.571-2.326,10.065,10.065,0,0,0,.606-3.5v-.2a10.449,10.449,0,0,0-.279-2.479,8.366,8.366,0,0,0-.778-2.053,4.743,4.743,0,0,0-1.12-1.416l.248-.717a4.959,4.959,0,0,1,1.6,1.549,8.041,8.041,0,0,1,1.136,2.393A10.045,10.045,0,0,1,181.016,28.312Zm1.625-2.533a.735.735,0,0,1,.181-.508.689.689,0,0,1,.543-.2.71.71,0,0,1,.549.2.721.721,0,0,1,.187.508.682.682,0,0,1-.187.489.723.723,0,0,1-.549.2.653.653,0,0,1-.724-.686Zm.222,8.062-.667-.457a3.063,3.063,0,0,0,.622-1.714V30.61h1.149v.92a2.891,2.891,0,0,1-.314,1.282A3,3,0,0,1,182.863,33.841ZM.121,51.593a1.992,1.992,0,0,0,1.333-2.1V48.1a2,2,0,0,1,1.149-2,1.984,1.984,0,0,1-1.149-2V42.808A2.03,2.03,0,0,0,.127,40.593l.241-.73a3.173,3.173,0,0,1,1.688,1.031,2.984,2.984,0,0,1,.571,1.888v1.333q0,1.517,1.346,1.517v.92q-1.346,0-1.346,1.542v1.282a2.968,2.968,0,0,1-.574,1.911A3.212,3.212,0,0,1,.368,52.323Z" transform="translate(-184 -3921.835)" fill="#fff"/>
    <g id="Enmascarar_grupo_141207" data-name="Enmascarar grupo 141207" transform="translate(-1158 -17018.15)" clip-path="url(#clip-path)">
      <g id="Grupo_142483" data-name="Grupo 142483" transform="translate(1057.804 12952.184)">
        <g id="Grupo_142482" data-name="Grupo 142482" transform="translate(0 0.002)" clip-path="url(#clip-path-2)">
          <path id="Trazado_184361" data-name="Trazado 184361" d="M37.736,1048.474H62.693a3,3,0,0,0,2.989-2.989h0a3,3,0,0,0-2.989-2.989H37.736a3,3,0,0,0-2.989,2.989h0a3,3,0,0,0,2.989,2.989" transform="translate(-24.766 -743.032)" fill="#fff" fill-rule="evenodd"/>
          <path id="Trazado_184363" data-name="Trazado 184363" d="M317.789,1003.175h19.6a3,3,0,0,0,2.99-2.989h0a3,3,0,0,0-2.99-2.989h-19.6a3,3,0,0,0-2.989,2.989h0a3,3,0,0,0,2.989,2.989" transform="translate(-224.371 -710.745)" fill="#6cd6ff" fill-rule="evenodd"/>
          <path id="Trazado_184364" data-name="Trazado 184364" d="M429.626,1003.175h19.6a3,3,0,0,0,2.99-2.989h0a3,3,0,0,0-2.99-2.989h-19.6a3,3,0,0,0-2.989,2.989h0a3,3,0,0,0,2.989,2.989" transform="translate(-304.083 -710.745)" fill="#fccf00" fill-rule="evenodd"/>
          <path id="Trazado_184365" data-name="Trazado 184365" d="M429.626,468.81h19.6a3,3,0,0,0,2.99-2.989h0a3,3,0,0,0-2.99-2.989h-19.6a3,3,0,0,0-2.989,2.989h0a3,3,0,0,0,2.989,2.989" transform="translate(-304.083 -329.88)" fill="#fff" fill-rule="evenodd"/>
          <path id="Trazado_184366" data-name="Trazado 184366" d="M429.626,761.14h19.6a2.989,2.989,0,1,0,0-5.979h-19.6a2.989,2.989,0,0,0,0,5.979" transform="translate(-304.083 -538.236)" fill="#fff" fill-rule="evenodd"/>
          <path id="Trazado_184367" data-name="Trazado 184367" d="M1035.191,76.22h125.743a.051.051,0,0,1,.051.051V180.815a.051.051,0,0,1-.051.051H1035.191a.051.051,0,0,1-.051-.051V76.271a.051.051,0,0,1,.051-.051" transform="translate(-737.789 -54.326)" fill="#12263f" fill-rule="evenodd"/>
          <path id="Trazado_184368" data-name="Trazado 184368" d="M1213.468,402.4h36.168a1,1,0,0,0,0-2h-36.168a1,1,0,1,0,0,2" transform="translate(-864.179 -285.384)" fill="#f4a338" fill-rule="evenodd"/>
          <path id="Trazado_184369" data-name="Trazado 184369" d="M1199.646,387.279h8.505a1,1,0,1,0,0-2h-8.505a1,1,0,0,0,0,2" transform="translate(-854.328 -274.609)" fill="#fff" fill-rule="evenodd"/>
          <path id="Trazado_184370" data-name="Trazado 184370" d="M1213.468,372.162h13.005a1,1,0,1,0,0-2h-13.005a1,1,0,1,0,0,2" transform="translate(-864.179 -263.834)" fill="#fff" fill-rule="evenodd"/>
          <path id="Trazado_184371" data-name="Trazado 184371" d="M1213.622,357.044H1224.2a1,1,0,0,0,0-2h-10.579a1,1,0,1,0,0,2" transform="translate(-864.289 -253.059)" fill="#fff" fill-rule="evenodd"/>
          <path id="Trazado_184372" data-name="Trazado 184372" d="M1213.622,341.927h33.123a1,1,0,1,0,0-2h-33.123a1,1,0,1,0,0,2" transform="translate(-864.289 -242.285)" fill="#fff" fill-rule="evenodd"/>
          <path id="Trazado_184373" data-name="Trazado 184373" d="M1199.646,326.708h8.505a1,1,0,1,0,0-2h-8.505a1,1,0,0,0,0,2" transform="translate(-854.328 -231.438)" fill="#fff" fill-rule="evenodd"/>
          <path id="Trazado_184374" data-name="Trazado 184374" d="M1213.468,193.836h13.005a1,1,0,1,0,0-2h-13.005a1,1,0,1,0,0,2" transform="translate(-864.179 -136.734)" fill="#fff" fill-rule="evenodd"/>
          <path id="Trazado_184375" data-name="Trazado 184375" d="M1213.622,178.719H1224.2a1,1,0,0,0,0-2h-10.579a1,1,0,1,0,0,2" transform="translate(-864.289 -125.959)" fill="#fff" fill-rule="evenodd"/>
          <path id="Trazado_184376" data-name="Trazado 184376" d="M1213.622,163.6h33.123a1,1,0,1,0,0-2h-33.123a1,1,0,1,0,0,2" transform="translate(-864.289 -115.184)" fill="#6cd6ff" fill-rule="evenodd"/>
          <path id="Trazado_184377" data-name="Trazado 184377" d="M1214.235,306.508h8.505a1,1,0,0,0,0-2h-8.505a1,1,0,1,0,0,2" transform="translate(-864.726 -217.04)" fill="#fff" fill-rule="evenodd"/>
          <path id="Trazado_184378" data-name="Trazado 184378" d="M1213.468,291.391h13.005a1,1,0,1,0,0-2h-13.005a1,1,0,1,0,0,2" transform="translate(-864.179 -206.266)" fill="#fff" fill-rule="evenodd"/>
          <path id="Trazado_184379" data-name="Trazado 184379" d="M1213.622,276.273H1224.2a1,1,0,0,0,0-2h-10.579a1,1,0,1,0,0,2" transform="translate(-864.289 -195.49)" fill="#fff" fill-rule="evenodd"/>
          <path id="Trazado_184380" data-name="Trazado 184380" d="M1213.622,261.156h14.033a1,1,0,1,0,0-2h-14.033a1,1,0,1,0,0,2" transform="translate(-864.289 -184.716)" fill="#fccf00" fill-rule="evenodd"/>
          <path id="Trazado_184381" data-name="Trazado 184381" d="M1250.867,246.073H1276.6a1,1,0,1,0,0-2h-25.733a1,1,0,1,0,0,2" transform="translate(-890.835 -173.965)" fill="#fff" fill-rule="evenodd"/>
          <path id="Trazado_184382" data-name="Trazado 184382" d="M1250.867,230.037h10.975a1,1,0,1,0,0-2h-10.975a1,1,0,1,0,0,2" transform="translate(-890.835 -162.536)" fill="#fff" fill-rule="evenodd"/>
          <rect id="Rectángulo_37362" data-name="Rectángulo 37362" width="22.293" height="91.845" transform="translate(302.861 28.996)" fill="url(#linear-gradient)"/>
          <path id="Trazado_184383" data-name="Trazado 184383" d="M1199.646,212.817h11.093a1,1,0,1,0,0-1.995h-11.093a1,1,0,1,0,0,1.995" transform="translate(-854.328 -150.262)" fill="#fff" fill-rule="evenodd"/>
          <path id="Trazado_184384" data-name="Trazado 184384" d="M1250.881,212.817h7.325a1,1,0,0,0,0-1.995h-7.325a1,1,0,1,0,0,1.995" transform="translate(-890.845 -150.262)" fill="#fff" fill-rule="evenodd"/>
          <path id="Trazado_184385" data-name="Trazado 184385" d="M1075.566,321.551h4.489a.966.966,0,0,0,.963-.963h0a.966.966,0,0,0-.963-.963h-4.489a.966.966,0,0,0-.963.963h0a.966.966,0,0,0,.963.963" transform="translate(-765.916 -227.811)" fill="#12263f" fill-rule="evenodd"/>
          <path id="Trazado_184386" data-name="Trazado 184386" d="M1065.124,304.947h12.654a.966.966,0,0,0,.963-.963h0a.966.966,0,0,0-.963-.963h-12.654a.966.966,0,0,0-.963.963h0a.966.966,0,0,0,.963.963" transform="translate(-758.473 -215.977)" fill="#12263f" fill-rule="evenodd"/>
          <path id="Trazado_184387" data-name="Trazado 184387" d="M1065.124,287.371h9.529a.963.963,0,0,0,0-1.926h-9.529a.963.963,0,1,0,0,1.926" transform="translate(-758.473 -203.449)" fill="#12263f" fill-rule="evenodd"/>
          <path id="Trazado_184388" data-name="Trazado 184388" d="M1075.566,269.8h9.51a.963.963,0,0,0,0-1.926h-9.51a.963.963,0,1,0,0,1.926" transform="translate(-765.916 -190.924)" fill="#12263f" fill-rule="evenodd"/>
          <path id="Trazado_184389" data-name="Trazado 184389" d="M1075.567,252.22h2.7a.963.963,0,1,0,0-1.926h-2.7a.963.963,0,0,0,0,1.926" transform="translate(-765.916 -178.396)" fill="#12263f" fill-rule="evenodd"/>
          <path id="Trazado_184390" data-name="Trazado 184390" d="M1065.124,234.645h9.019a.963.963,0,0,0,0-1.926h-9.019a.963.963,0,1,0,0,1.926" transform="translate(-758.473 -165.869)" fill="#12263f" fill-rule="evenodd"/>
          <path id="Trazado_184391" data-name="Trazado 184391" d="M1075.37,217.069h2.122a.963.963,0,0,0,0-1.926h-2.122a.963.963,0,0,0,0,1.926" transform="translate(-765.776 -153.342)" fill="#12263f" fill-rule="evenodd"/>
          <path id="Trazado_184392" data-name="Trazado 184392" d="M1074.163,199.493h10.057a.963.963,0,0,0,0-1.926h-10.057a.963.963,0,0,0,0,1.926" transform="translate(-764.916 -140.815)" fill="#12263f" fill-rule="evenodd"/>
          <path id="Trazado_184393" data-name="Trazado 184393" d="M1065.124,181.918h7.9a.963.963,0,1,0,0-1.926h-7.9a.963.963,0,1,0,0,1.926" transform="translate(-758.473 -128.289)" fill="#12263f" fill-rule="evenodd"/>
          <path id="Trazado_184394" data-name="Trazado 184394" d="M1074.163,164.341h10.057a.963.963,0,0,0,0-1.926h-10.057a.963.963,0,0,0,0,1.926" transform="translate(-764.916 -115.761)" fill="#12263f" fill-rule="evenodd"/>
          <path id="Trazado_184395" data-name="Trazado 184395" d="M1074.163,146.766h5.944a.963.963,0,1,0,0-1.926h-5.944a.963.963,0,0,0,0,1.926" transform="translate(-764.916 -103.234)" fill="#12263f" fill-rule="evenodd"/>
          <path id="Trazado_184396" data-name="Trazado 184396" d="M1075.566,337.081h4.489a.966.966,0,0,0,.963-.963h0a.966.966,0,0,0-.963-.963h-4.489a.966.966,0,0,0-.963.963h0a.966.966,0,0,0,.963.963" transform="translate(-765.916 -238.88)" fill="#12263f" fill-rule="evenodd"/>
          <path id="Trazado_184397" data-name="Trazado 184397" d="M1065.124,352.611h12.211a.966.966,0,0,0,.963-.963h0a.966.966,0,0,0-.963-.963h-12.211a.966.966,0,0,0-.963.963h0a.966.966,0,0,0,.963.963" transform="translate(-758.473 -249.949)" fill="#12263f" fill-rule="evenodd"/>
          <path id="Trazado_184398" data-name="Trazado 184398" d="M1075.566,368.14h4.489a.963.963,0,1,0,0-1.926h-4.489a.963.963,0,1,0,0,1.926" transform="translate(-765.916 -261.017)" fill="#12263f" fill-rule="evenodd"/>
          <path id="Trazado_184399" data-name="Trazado 184399" d="M1213.622,147.96h6.872a1,1,0,1,0,0-2h-6.872a1,1,0,0,0,0,2" transform="translate(-864.29 -104.036)" fill="#fff" fill-rule="evenodd"/>
          <path id="Trazado_184400" data-name="Trazado 184400" d="M1159.382,193.836h.117a1,1,0,0,0,0-2h-.117a1,1,0,0,0,0,2" transform="translate(-825.631 -136.734)" fill="#b1cbef" fill-rule="evenodd"/>
          <path id="Trazado_184401" data-name="Trazado 184401" d="M1159.536,178.719h.072a1,1,0,1,0,0-2h-.072a1,1,0,1,0,0,2" transform="translate(-825.74 -125.959)" fill="#b1cbef" fill-rule="evenodd"/>
          <path id="Trazado_184402" data-name="Trazado 184402" d="M1159.536,163.6h.072a1,1,0,1,0,0-2h-.072a1,1,0,1,0,0,2" transform="translate(-825.74 -115.184)" fill="#b1cbef" fill-rule="evenodd"/>
          <path id="Trazado_184403" data-name="Trazado 184403" d="M1159.536,147.96h.072a1,1,0,0,0,0-2h-.072a1,1,0,1,0,0,2" transform="translate(-825.74 -104.036)" fill="#b1cbef" fill-rule="evenodd"/>
          <path id="Trazado_184404" data-name="Trazado 184404" d="M1159.685,246.073h.03a1,1,0,0,0,0-2h-.03a1,1,0,1,0,0,2" transform="translate(-825.846 -173.965)" fill="#b1cbef" fill-rule="evenodd"/>
          <path id="Trazado_184405" data-name="Trazado 184405" d="M1159.685,230.037h.03a1,1,0,0,0,0-2h-.03a1,1,0,1,0,0,2" transform="translate(-825.846 -162.536)" fill="#b1cbef" fill-rule="evenodd"/>
          <path id="Trazado_184406" data-name="Trazado 184406" d="M1159.7,212.817h.026a1,1,0,1,0,0-1.995h-.026a1,1,0,1,0,0,1.995" transform="translate(-825.856 -150.262)" fill="#b1cbef" fill-rule="evenodd"/>
          <path id="Trazado_184407" data-name="Trazado 184407" d="M1160.377,306.508h0a.9.9,0,0,0,.9-.9v-.2a.9.9,0,1,0-1.8,0v.2a.9.9,0,0,0,.9.9" transform="translate(-826.41 -217.04)" fill="#b1cbef" fill-rule="evenodd"/>
          <path id="Trazado_184408" data-name="Trazado 184408" d="M1159.685,291.391h.03a1,1,0,0,0,0-2h-.03a1,1,0,1,0,0,2" transform="translate(-825.846 -206.266)" fill="#b1cbef" fill-rule="evenodd"/>
          <path id="Trazado_184409" data-name="Trazado 184409" d="M1159.835,276.273h0a.993.993,0,0,0,.99-.99v-.016a.99.99,0,0,0-1.979,0v.016a.993.993,0,0,0,.99.99" transform="translate(-825.959 -195.49)" fill="#b1cbef" fill-rule="evenodd"/>
          <path id="Trazado_184410" data-name="Trazado 184410" d="M1159.834,261.156h0a.993.993,0,0,0,.99-.99v-.016a.99.99,0,0,0-1.98,0v.016a.993.993,0,0,0,.99.99" transform="translate(-825.958 -184.716)" fill="#b1cbef" fill-rule="evenodd"/>
          <path id="Trazado_184411" data-name="Trazado 184411" d="M1160.61,387.279h0a.862.862,0,0,0,.86-.86v-.276a.86.86,0,1,0-1.719,0v.276a.862.862,0,0,0,.86.86" transform="translate(-826.604 -274.609)" fill="#b1cbef" fill-rule="evenodd"/>
          <path id="Trazado_184412" data-name="Trazado 184412" d="M1160.61,372.162h0a.862.862,0,0,0,.86-.86v-.276a.86.86,0,0,0-1.719,0v.276a.862.862,0,0,0,.86.86" transform="translate(-826.604 -263.834)" fill="#b1cbef" fill-rule="evenodd"/>
          <path id="Trazado_184413" data-name="Trazado 184413" d="M1160.526,357.044h0a.876.876,0,0,0,.874-.874v-.248a.874.874,0,0,0-1.747,0v.248a.876.876,0,0,0,.874.874" transform="translate(-826.534 -253.059)" fill="#b1cbef" fill-rule="evenodd"/>
          <path id="Trazado_184414" data-name="Trazado 184414" d="M1160.375,341.927h0a.9.9,0,0,0,.9-.9v-.2a.9.9,0,1,0-1.8,0v.2a.9.9,0,0,0,.9.9" transform="translate(-826.408 -242.285)" fill="#b1cbef" fill-rule="evenodd"/>
          <path id="Trazado_184415" data-name="Trazado 184415" d="M1160.377,326.708h0a.9.9,0,0,0,.9-.9v-.2a.9.9,0,0,0-1.8,0v.2a.9.9,0,0,0,.9.9" transform="translate(-826.41 -231.438)" fill="#b1cbef" fill-rule="evenodd"/>
          <path id="Trazado_184416" data-name="Trazado 184416" d="M1236.032,551.466h-74.308a8.886,8.886,0,0,0-8.86,8.86v24.343a8.886,8.886,0,0,0,8.86,8.859h10.829v16.059c0,3.462,2.521,4.49,5.143,2.6l25.387-18.28c.18-.129.357-.261.54-.38h32.409a8.886,8.886,0,0,0,8.859-8.859V560.326a8.886,8.886,0,0,0-8.859-8.86" transform="translate(-821.696 -393.054)" fill="#cce1f9"/>
          <path id="Trazado_184417" data-name="Trazado 184417" d="M1269.737,612.428v1.458a.439.439,0,0,1-.084.252.592.592,0,0,1-.2.187l-5.55,2.62a.206.206,0,0,1-.2,0,.2.2,0,0,1-.084-.181v-2.091a.441.441,0,0,1,.084-.252.587.587,0,0,1,.2-.187l2.22-.955c.078-.034.116-.073.116-.116s-.038-.086-.116-.129l-2.22-.968a.478.478,0,0,1-.2-.174.442.442,0,0,1-.084-.252v-2.078a.211.211,0,0,1,.084-.187.179.179,0,0,1,.2.006l5.55,2.608a.525.525,0,0,1,.284.439m-11.049,3.356v1.755a.309.309,0,0,1-.31.31h-6.441a.293.293,0,0,1-.226-.09.309.309,0,0,1-.084-.219v-8.829a.309.309,0,0,1,.084-.219.294.294,0,0,1,.226-.09h1.937a.308.308,0,0,1,.31.31v6.454a.31.31,0,0,0,.084.219.292.292,0,0,0,.226.091h3.885a.308.308,0,0,1,.31.31m-9.1-7.061v8.816a.3.3,0,0,1-.09.219.293.293,0,0,1-.217.09h-1.94a.293.293,0,0,1-.217-.09.3.3,0,0,1-.09-.219v-4.156a.123.123,0,0,0-.116-.142.2.2,0,0,0-.194.09l-2.175,3.5a.226.226,0,0,1-.207.1.258.258,0,0,1-.219-.1l-2.175-3.5a.177.177,0,0,0-.181-.09.123.123,0,0,0-.116.142v4.156a.3.3,0,0,1-.09.219.294.294,0,0,1-.217.09H1239.4a.294.294,0,0,1-.217-.09.3.3,0,0,1-.091-.219v-8.816a.309.309,0,0,1,.308-.31h1.8a.568.568,0,0,1,.271.077.548.548,0,0,1,.2.181l2.485,3.64a.224.224,0,0,0,.181.1.193.193,0,0,0,.168-.1l2.485-3.64a.681.681,0,0,1,.217-.181.569.569,0,0,1,.271-.077h1.8a.292.292,0,0,1,.217.09.3.3,0,0,1,.09.219m-11.837,2.052h-1.807a.308.308,0,0,0-.309.31v6.454a.312.312,0,0,1-.084.219.293.293,0,0,1-.226.09h-1.936a.308.308,0,0,1-.31-.31v-6.454a.31.31,0,0,0-.084-.219.293.293,0,0,0-.226-.09h-1.833a.308.308,0,0,1-.31-.31v-1.756a.308.308,0,0,1,.31-.31h6.815a.294.294,0,0,1,.226.09.312.312,0,0,1,.084.219v1.756a.312.312,0,0,1-.084.219.294.294,0,0,1-.226.09m-8.326-2.065v8.829a.308.308,0,0,1-.31.31h-1.936a.293.293,0,0,1-.226-.09.311.311,0,0,1-.084-.219v-2.762a.308.308,0,0,0-.308-.31h-2.65a.291.291,0,0,0-.224.09.311.311,0,0,0-.084.219v2.762a.3.3,0,0,1-.09.219.3.3,0,0,1-.222.09h-1.932a.3.3,0,0,1-.228-.09.309.309,0,0,1-.084-.219v-8.829a.309.309,0,0,1,.084-.219.3.3,0,0,1,.228-.09h1.932a.3.3,0,0,1,.222.09.3.3,0,0,1,.09.219v3.046a.311.311,0,0,0,.084.219.292.292,0,0,0,.224.09h2.65a.308.308,0,0,0,.308-.31v-3.046a.311.311,0,0,1,.084-.219.294.294,0,0,1,.226-.09h1.936a.308.308,0,0,1,.31.31m-14.225.852v2.078a.439.439,0,0,1-.084.252.48.48,0,0,1-.2.174l-2.233.968q-.129.064-.129.129t.129.116l2.22.955a.555.555,0,0,1,.212.187.438.438,0,0,1,.084.252v2.091a.194.194,0,0,1-.084.181.2.2,0,0,1-.2,0l-5.564-2.62a.539.539,0,0,1-.193-.187.466.466,0,0,1-.078-.252v-1.458a.5.5,0,0,1,.078-.258.433.433,0,0,1,.193-.181l5.564-2.608a.178.178,0,0,1,.2-.006.21.21,0,0,1,.084.187" transform="translate(-861.765 -433.634)" fill="#5776b7"/>
          <path id="Trazado_184419" data-name="Trazado 184419" d="M342.247,603.008c11.311,16.091-17.589,96.012-23.154,133.937-2.541,17.324-8.008,20.878-23.614,24.415-20.47,4.64-34.344,10.327-49.368,9.811-8.791-.3-15.877.043-19.324-2.543-11.99-8.992,6.63-19.385,6.63-19.385s37.393-14.747,44.856-18.577c6.421-3.784,10.091-135.143,52.054-144.448,5.5-1.219,4.573,9.324,11.92,16.791" transform="translate(-158.773 -417.754)" fill="#f4a338" fill-rule="evenodd"/>
          <path id="Trazado_184420" data-name="Trazado 184420" d="M506.665,1010.454c-7.017-4.431-13.7-6.934-15.959,0Zm119.461,0a279.551,279.551,0,0,0-7.566-43.141c-18.13-.614-34.652-4.059-38.759-6.923-1.708-5.274-9.5-23.3-2.042-25.938,5.731-2.521,15.412-3.289,25.329-3.661-31.135-45.737-79.43-.148-76.7,79.664Z" transform="translate(-349.747 -650.442)" fill="#0b3870" fill-rule="evenodd"/>
          <path id="Trazado_184421" data-name="Trazado 184421" d="M574.211,281.742a81.394,81.394,0,0,1,.053,22.886c-2.139,15.112-7.682,25.858-13.862,39.149a9.819,9.819,0,0,0-.394,5.178c.627,2.49,2.294,4.064,2.343,5.5.2,5.653-6.269,8-4.217,14.441,2.181,6.846,12.167,14.67,18.25,23.222,0,0,19.967-21.977,28.518-23.529s9.69-28.437,9.69-29.817-7.61-54.979-7.61-54.979Z" transform="translate(-397.519 -200.81)" fill="#373f51" fill-rule="evenodd"/>
          <path id="Trazado_184422" data-name="Trazado 184422" d="M569.71,567.963c17.8,0,33.066,5.457,43.841,16.6a8.3,8.3,0,0,1,1.591,2.472c-3.449,31.816-16.657,39.584-7.261,59.77-1.765,6.751-11.033,34.77-12.549,41.1-.133.008-5.311,19.447-.847,40.365,2.75,9.3,4.508,16.85,9.013,35.863h-149.1c5.323-30.2,11.426-54,11.8-58.187,2.406-26.99-2.3-116.668,23.26-131.218,20.224-11.514,55.553-6.764,80.258-6.764" transform="translate(-323.865 -404.12)" fill="#f4a338" fill-rule="evenodd"/>
          <path id="Trazado_184423" data-name="Trazado 184423" d="M615.131,565.317c-21.139,11.43-32.223,121.524-27.171,196.943h49.278c-1.633-121.416,11.841-168.315,24.533-196.325-17.984-1.186-24.314-2.514-46.64-.618" transform="translate(-418.202 -402.248)" fill="#fff" fill-rule="evenodd"/>
          <path id="Trazado_184424" data-name="Trazado 184424" d="M646.2,367.535l-.422,9.434-.648.834c-4.607,10.535,7.289,17.665,10.5,19.306,3.282-.5,22.046-6.433,23.138-21.266l-.084-.951-.652-21.025a5.837,5.837,0,0,0,4.583-3.205c1.88-3.2,3.5-9.406,3.21-11.641-.517-4.029-6.191-1.575-6.191-1.575h0c5.349-11.634,11.973-21.581-.143-28.724s-37.172-7.773-37.172-7.773l-14.943-2.221c6.674,11.746-14.87,58.795,18.825,68.807" transform="translate(-446.624 -212.917)" fill="#f4b1b1" fill-rule="evenodd"/>
          <path id="Trazado_184425" data-name="Trazado 184425" d="M716.41,501.441c-5.911,13.9-11.156,18.924-23.126,20.011l.43-9.622c4.562-.239,15.869-3.606,22.7-10.388" transform="translate(-494.133 -357.399)" fill="#ed8082" fill-rule="evenodd"/>
          <path id="Trazado_184426" data-name="Trazado 184426" d="M599.112,223.2c20.02-14.144,50.112-10.736,64.845,11.809,12.681,19.4,12.845,52.719,32.209,53.662,6.34.308,13.657,3.464,14.667,17.3,4.585,1.473,15.037,7.022,7.358,21.742,7.574,5.432,8.4,14.384,1.607,19.672-3.379-6.378-4.812-8.2-7.493-11.392l0,0A8.29,8.29,0,0,0,710.7,333.5c-10.776-11.137-26.039-16.6-43.841-16.6-4.22-.009-9.693-.013-13.756-.321-.538-6.635-1.481-19.114-1.508-23.228a11.954,11.954,0,0,0,4.717-10.249c-.119-5.365-1.823-4.577-9.4-.962-1-13.478.683-21.372-24.942-21.363a57.229,57.229,0,0,1-21.672-3.84c-10.9-4.443-14.11-24.609-1.18-33.743" transform="translate(-421.012 -153.064)" fill="#373f51" fill-rule="evenodd"/>
          <path id="Trazado_184427" data-name="Trazado 184427" d="M786.753,645.83c5.523-12.26-3.736-53.463,22.747-32.363,1.427,1.137,8.218,10.67,9.76,13.254,11.97,20.066,37.4,96.148,32.08,132.391-2.527,17.225-17.332,20.656-32.848,24.174-20.354,4.614-51.022,10.268-65.96,9.755-8.741-.3-15.786.042-19.215-2.529-11.921-8.94,6.592-19.275,6.592-19.275s65.645-25.831,73.065-29.639c3.508-2.068-30.573-86.1-26.221-95.768" transform="translate(-519.814 -433.03)" fill="#f4a338" fill-rule="evenodd"/>
          <path id="Trazado_184428" data-name="Trazado 184428" d="M250.574,1226.589H388.1v3.833a3.844,3.844,0,0,1-3.833,3.833H254.407a3.844,3.844,0,0,1-3.833-3.833Z" transform="translate(-178.595 -874.243)" fill="#12263f" fill-rule="evenodd"/>
          <path id="Trazado_184429" data-name="Trazado 184429" d="M64.26,949.368H166.9c4.047,0,6.6,3.423,7.359,7.446l14.6,77.79H72.527l-14.6-78.823c-.642-3.466,2.851-6.413,6.337-6.413" transform="translate(-41.229 -676.656)" fill="#12263f" fill-rule="evenodd"/>
          <path id="Trazado_184430" data-name="Trazado 184430" d="M52.019,949.368H154.657c4.048,0,6.6,3.424,7.359,7.447l13.116,69.631h.174l.843,5.111c.457,2.771-2.3,5.111-5.111,5.111H64.711c-2.808,0-4.694-2.33-5.111-5.111l-.629-4.2-13.289-71.58c-.643-3.467,2.852-6.413,6.337-6.413" transform="translate(-32.504 -676.656)" fill-rule="evenodd" fill="url(#linear-gradient)"/>
          <path id="Trazado_184431" data-name="Trazado 184431" d="M247.862,1085.53c2.447-.585,4.988,1.274,5.677,4.152s-.737,5.687-3.184,6.272-4.989-1.274-5.677-4.152.737-5.687,3.184-6.272" transform="translate(-174.269 -773.628)" fill="#f4fafd" fill-rule="evenodd"/>
          <path id="Trazado_184432" data-name="Trazado 184432" d="M687.129,1208.488c-16.088-.08-34.065.131-38.825-.073,4.711-14.034,21.476-18.662,34.7-17.9,3.175,2.169,6.4,13.459,4.125,17.971" transform="translate(-462.074 -848.476)" fill="#f6c0c5" fill-rule="evenodd"/>
        </g>
      </g>
    </g>
  </g>
</svg>
